<svg xmlns="http://www.w3.org/2000/svg" xmlns:xlink="http://www.w3.org/1999/xlink" width="43" height="41" viewBox="0 0 43 41"><defs><path id="kg6ea" d="M987.388 2590.447l-.538.048c-.838.063-2.703.159-5.407.286h-.585v-15.769h6.545v15.435zm-1.591 15.393c-1.296.096-8.282.541-18.286.541-9.467 0-16.39-.414-18.286-.541l-.537-.048v-13.64l.616.047a152.634 152.634 0 0 0 4.33.207h.538v3.072c0 .43.332.78.774.78a.768.768 0 0 0 .775-.78v-3.009l.584.016c2.45.08 4.931.128 7.334.175h.695l.047.526c.064.907.822 1.623 1.707 1.623h2.861c.885 0 1.644-.716 1.707-1.623l.047-.526h.522c2.576-.031 5.105-.095 7.491-.175l.585-.016v3.009c0 .43.332.78.774.78a.768.768 0 0 0 .775-.78v-3.072l.553-.016c1.58-.064 2.908-.127 4.315-.207l.616-.048v13.657zm-38.185-15.41v-15.434h6.555v15.77l-.601-.017a178.105 178.105 0 0 1-5.4-.286zm21.896.286v2.271a.67.67 0 0 1-.664.667h-2.672a.67.67 0 0 1-.664-.667v-2.271c0-.366.3-.667.664-.667h2.672a.67.67 0 0 1 .664.667zm-13.786-15.704h23.613v15.833l-.554.016c-2.119.08-4.444.127-7.528.16h-.553l-.048-.526c-.079-.877-.838-1.577-1.708-1.577h-2.862c-.886 0-1.63.685-1.708 1.577l-.048.525h-.522c-2.325-.032-4.776-.08-7.528-.16l-.554-.015zm4.174-4.6l.016-.063a.924.924 0 0 1 .3-.479l.032-.048 2.197-1.085c.332-.176 1.012-.335 1.407-.335h7.256c.396 0 1.075.16 1.407.335l2.214 1.101.063.064c.126.112.237.303.284.463l.016.096v2.904h-15.192zm27.302 2.96h-10.703v-2.884c0-.764-.521-1.608-1.201-1.943l-2.15-1.067c-.522-.27-1.407-.478-2.024-.478h-7.256c-.617 0-1.486.207-2.024.478l-2.134 1.035c-.68.335-1.201 1.179-1.201 1.943v2.884H947.96l-.158.015c-.996 0-1.802.813-1.802 1.816v15.037c0 .621.3 1.194.822 1.545l.253.16v13.459c0 1.083.838 1.99 1.897 2.07.063 0 7.43.558 18.544.558 11.003 0 18.227-.542 18.528-.557 1.059-.08 1.897-.988 1.897-2.071v-13.444l.253-.16c.506-.366.806-.939.806-1.544v-15.037a1.808 1.808 0 0 0-1.802-1.816z"/><linearGradient id="kg6eb" x1="946.95" x2="989" y1="2591.02" y2="2591.02" gradientUnits="userSpaceOnUse"><stop offset="0" stop-color="#8179f9"/><stop offset="1" stop-color="#4a44ed"/></linearGradient></defs><g><g transform="translate(-946 -2567)"><g><use fill="url(#kg6eb)" xlink:href="#kg6ea"/></g></g></g></svg>