<svg xmlns="http://www.w3.org/2000/svg" xmlns:xlink="http://www.w3.org/1999/xlink" width="55" height="56" viewBox="0 0 55 56"><defs><path id="9l9fa" d="M1093.944 821.453c.89 0 1.334-1.042 1.334-3.127 0-2.084-.445-3.126-1.334-3.126-.888 0-1.333 1.042-1.333 3.126 0 2.085.445 3.127 1.333 3.127zm-2.666-6.89c.61-.926 1.5-1.39 2.666-1.39 1.167 0 2.056.464 2.667 1.39.611.926.889 2.142.889 3.763s-.278 2.837-.889 3.763c-.611.927-1.5 1.39-2.667 1.39-1.166 0-2.055-.463-2.666-1.39-.611-.926-.89-2.2-.89-3.763 0-1.563.279-2.837.89-3.763zm40.659 30.939h-8.134v7.485h8.134zm-33.326-30.01c-.111-.232-.167-.464-.055-.754.11-.29.277-.521.555-.753.722-.522 1.556-.753 2.556-.753s1.722.231 2.277.753c.556.522.778 1.159.778 1.97 0 .58-.11 1.043-.333 1.507-.222.464-.556.87-.889 1.16-.333.289-.722.579-1.111.868-.389.29-.722.58-1.056.87-.333.29-.555.637-.666.927h3.11c.723 0 1.112.348 1.112.985 0 .348-.111.58-.278.753-.222.174-.5.29-.833.29h-4.222c-.39 0-.723-.116-.89-.347-.166-.232-.277-.522-.277-.928 0-.637.167-1.217.444-1.738.278-.522.611-.985 1-1.275.39-.348.834-.638 1.223-.927.388-.29.722-.58 1-.87.277-.29.444-.637.444-.985 0-.521-.333-.811-1-.811-.389 0-.889.116-1.444.405-.723.232-1.167.116-1.445-.347zm23.119 20.456h-8.012v7.474h8.012zm0 9.554h-8.012v7.485h8.012zm-10.085-9.554h-8.628v7.474h8.628zm0 9.554h-8.628v7.485h8.628zm12.158-2.08h8.134v-7.474h-8.134zm10.197-16.41v26.976c0 .562-.448 1.012-1.008 1.012h-30.984c-.56 0-1.008-.45-1.008-1.012v-18.94c0-.112 0-.168.056-.28.056-.506.504-.9 1.009-.9h29.918v-5.789h-16.752c-.56 0-1.009-.45-1.009-1.011 0-.618.449-1.068 1.009-1.068h17.76c.56 0 1.009.45 1.009 1.012zm-43.288-19.952c-1.962 0-3.52 1.559-3.52 3.396v15.032c0 1.893 1.616 3.396 3.52 3.396h15.576c1.962 0 3.52-1.559 3.52-3.396v-15.032c0-1.893-1.616-3.396-3.52-3.396zm15.576 23.94h-15.576c-3.116 0-5.712-2.45-5.712-5.512v-15.032c0-3.006 2.538-5.456 5.712-5.456h15.576c3.116 0 5.712 2.45 5.712 5.512v15.032c-.058 3.006-2.596 5.456-5.712 5.456zm21.345-16.23c0-.396-.344-.679-.687-.679h-3.435c-.4 0-.687.34-.687.678v5.087c0 .339.343.622.687.622h3.435c.4 0 .687-.283.687-.622zm12.366 7.346v33.345c0 3.052-2.519 5.539-5.61 5.539h-33.778c-3.092 0-5.611-2.487-5.611-5.539v-20.724c0-.565.458-1.074 1.03-1.074.573 0 1.031.509 1.031 1.074v20.724c0 1.865 1.603 3.448 3.55 3.448h33.777c1.947 0 3.55-1.526 3.55-3.448v-33.345c0-1.921-1.603-3.504-3.55-3.504h-4.694v1.244c0 1.47-1.202 2.713-2.748 2.713h-3.435c-1.489 0-2.748-1.187-2.748-2.713v-1.244h-4.981c-.63 0-1.088-.452-1.088-1.017a1.08 1.08 0 0 1 1.088-1.074h5.038v-1.752c0-1.526 1.202-2.769 2.748-2.769h3.435c1.489 0 2.748 1.243 2.748 2.77v1.751h4.695c3.091 0 5.61 2.487 5.553 5.595z"/><linearGradient id="9l9fb" x1="1085" x2="1140" y1="861" y2="861" gradientUnits="userSpaceOnUse"><stop offset="0" stop-color="#8179f9"/><stop offset="1" stop-color="#4943ed"/></linearGradient></defs><g><g transform="translate(-1085 -805)"><use fill="url(#9l9fb)" xlink:href="#9l9fa"/></g></g></svg>