<svg xmlns="http://www.w3.org/2000/svg" xmlns:xlink="http://www.w3.org/1999/xlink" width="218" height="37" viewBox="0 0 218 37"><defs><path id="445ra" d="M599.73 51.89a16.134 16.134 0 0 1-.695 4.21 10.362 10.362 0 0 1-1.62 3.175c-1.293 1.69-2.864 2.535-3.902 3.095-.091.048-.707.36-3.673 1.823V51.89h9.882"/><path id="445rb" d="M582.272 51.89v12.3c-2.963-1.462-3.582-1.772-3.673-1.823-1.038-.56-2.61-1.404-3.903-3.094a10.355 10.355 0 0 1-1.619-3.176 16.097 16.097 0 0 1-.687-4.207h9.882"/><path id="445rc" d="M599.752 34.36h-9.902v10.03h9.9V34.36z"/><path id="445rd" d="M582.272 34.36h-9.902v10.03h9.902z"/><path id="445re" d="M586.065 67.585l-.3-.158c-.445-.22-7.404-3.642-7.818-3.865C575.69 62.35 571 59.825 571 50.982V33h30.128v17.982c0 8.843-4.69 11.365-6.946 12.578-.415.222-7.417 3.667-7.818 3.865z"/><path id="445rf" d="M589.128 45.1V33.64h-6.13V45.1H571.65v6.065h11.347v14.172l3.064 1.5 3.064-1.5v-14.17h11.347V45.1z"/><path id="445rg" d="M571.65 45.1V33.64H583V45.1z"/><path id="445rh" d="M589.13 45.1V33.64h11.35V45.1z"/><path id="445ri" d="M582.997 51.17H571.65c.066 8.22 4.322 10.602 6.606 11.833.232.125 2.655 1.324 4.741 2.352z"/><path id="445rj" d="M589.13 51.172v14.183a578.543 578.543 0 0 0 4.741-2.352c2.274-1.228 6.54-3.61 6.606-11.833z"/><path id="445rk" d="M593.024 48.233l.234-.275-.285-.348-.296.348.235.275c0 .14 0 1.355-.712 1.79.184.025.371.019.553-.018.05.233.124.46.22.677.088-.218.154-.445.197-.677.186.037.378.042.566.015-.725-.432-.715-1.647-.712-1.788z"/><path id="445rl" d="M594.876 46.163l.235-.275-.296-.348-.298.348.235.275c0 .14 0 1.355-.712 1.787.188.027.38.022.566-.015.046.232.115.459.207.677.091-.218.16-.445.207-.677.186.037.378.042.566.015-.723-.432-.715-1.647-.71-1.788z"/><path id="445rm" d="M596.724 48.233l.235-.275-.296-.348-.296.348.235.275c0 .14 0 1.355-.712 1.79.188.027.38.022.566-.016.046.233.115.46.207.678.091-.219.16-.445.207-.677.186.037.378.042.566.014-.725-.434-.715-1.65-.712-1.79z"/><path id="445rn" d="M598.574 46.163l.234-.275-.295-.348-.296.348.235.275c0 .14 0 1.355-.712 1.787.188.027.38.022.566-.015.046.232.116.459.207.677.091-.218.16-.445.207-.677.186.037.378.042.566.015-.725-.432-.717-1.647-.712-1.788z"/><path id="445ro" d="M591.174 46.163l.235-.275-.296-.348-.296.348.235.275c0 .14 0 1.355-.712 1.787.188.027.38.022.566-.015.046.232.115.459.207.677.091-.218.16-.445.207-.677.186.037.378.042.566.015-.723-.432-.715-1.647-.712-1.788z"/><path id="445rp" d="M575.534 48.233l.234-.275-.295-.348-.296.348.235.275c0 .14 0 1.355-.712 1.79.187.026.378.02.563-.018.047.232.116.459.207.677.093-.218.163-.445.21-.677.186.037.378.042.566.015-.725-.432-.717-1.647-.712-1.788z"/><path id="445rq" d="M577.374 46.163l.235-.275-.296-.348-.296.348.235.275c0 .14 0 1.355-.712 1.787.188.027.38.022.566-.015.046.233.115.46.207.68.091-.219.16-.445.207-.677.186.037.378.042.566.014-.725-.434-.715-1.65-.712-1.79z"/><path id="445rr" d="M579.224 48.233l.235-.275-.296-.348-.296.348.235.275c0 .14 0 1.355-.712 1.79.187.026.378.02.563-.018.047.232.116.459.207.677.093-.218.163-.445.21-.677.186.037.378.042.566.015-.725-.432-.715-1.647-.712-1.788z"/><path id="445rs" d="M581.074 46.163l.234-.275-.295-.348-.296.348.235.275c0 .14 0 1.355-.712 1.787.188.027.38.022.566-.015.046.232.116.459.207.677.091-.218.16-.445.207-.677.186.037.378.042.566.015-.723-.432-.715-1.647-.712-1.788z"/><path id="445rt" d="M573.684 46.163l.234-.275-.295-.348-.296.348.235.275c0 .14 0 1.355-.712 1.787.188.027.38.022.566-.015.046.232.116.459.207.677.091-.218.16-.445.207-.677.186.037.378.042.566.015-.725-.432-.715-1.647-.712-1.788z"/><path id="445ru" d="M586.146 52.883l.235-.276-.298-.357-.296.347.235.275c0 .14 0 1.355-.712 1.788.188.028.38.022.566-.015.046.232.116.459.207.677a3.58 3.58 0 0 0 .207-.677c.186.037.378.043.566.015-.723-.422-.715-1.64-.71-1.778z"/><path id="445rv" d="M586.144 59.093l.234-.276-.295-.347-.296.348.235.275c0 .14 0 1.354-.712 1.79.188.027.38.022.566-.016.046.233.116.46.207.678.091-.219.16-.445.207-.677.186.037.378.042.566.014-.725-.434-.717-1.652-.712-1.79z"/><path id="445rw" d="M587.856 55.982l.235-.275-.296-.347-.298.347.235.275c0 .14 0 1.355-.712 1.79.189.024.38.014.566-.027.046.232.116.459.207.677.092-.218.162-.445.21-.677.186.037.377.042.565.015-.725-.423-.714-1.638-.712-1.778z"/><path id="445rx" d="M584.404 55.982l.235-.275-.296-.347-.296.347.235.275c0 .14 0 1.355-.712 1.79.187.023.377.014.56-.027.047.232.117.459.208.677.093-.218.164-.445.212-.677.186.037.378.042.566.015-.733-.423-.717-1.638-.712-1.778z"/><path id="445ry" d="M587.854 62.203l.235-.276-.296-.347-.296.348.235.275c0 .14 0 1.354-.712 1.79.188.027.38.022.566-.016.046.233.116.46.207.678.091-.219.16-.445.207-.677.186.037.378.042.566.014-.725-.434-.715-1.652-.712-1.79z"/><path id="445rz" d="M584.404 62.203l.235-.276-.296-.347-.296.348.235.275c0 .14 0 1.354-.712 1.79.188.027.38.022.566-.016.046.233.116.46.207.678.091-.219.16-.445.207-.677.186.037.378.042.566.014-.733-.434-.717-1.652-.712-1.79z"/><path id="445rA" d="M586.144 38.752l.234-.275-.295-.347-.296.347.235.275c0 .14 0 1.355-.712 1.79.188.028.38.023.566-.015.046.232.116.46.207.678.091-.219.16-.446.207-.678.186.038.378.043.566.015-.725-.445-.717-1.662-.712-1.79z"/><path id="445rB" d="M587.856 35.635l.235-.275-.296-.36-.298.36.235.275c0 .14 0 1.355-.712 1.79.188.027.38.022.566-.015.046.232.116.459.207.677.091-.218.16-.445.207-.677.186.037.378.042.566.015-.723-.425-.712-1.653-.71-1.79z"/><path id="445rC" d="M584.406 35.635l.232-.275-.295-.36-.296.36.235.275c0 .14 0 1.355-.712 1.79.187.026.378.02.563-.018.047.233.116.46.207.678a3.55 3.55 0 0 0 .208-.677c.186.037.377.042.565.014-.727-.422-.712-1.65-.707-1.787z"/><path id="445rD" d="M587.856 41.843l.235-.276-.296-.347-.298.348.235.275c0 .14 0 1.354-.712 1.79.188.027.38.022.566-.016.046.233.115.46.207.678.091-.219.16-.445.207-.677.186.037.378.042.566.014-.723-.434-.712-1.65-.71-1.79z"/><path id="445rE" d="M584.404 41.842l.234-.275-.295-.347-.296.347.235.275c0 .14 0 1.355-.712 1.79.187.026.376.02.56-.017.047.232.117.459.208.677.091-.218.16-.445.207-.677.186.037.378.042.566.015-.728-.433-.712-1.648-.707-1.788z"/><path id="445rF" d="M580.548 39.303l.038.142c.035.128.06.23.078.305.122.545.223.685.49.685a.318.318 0 0 0 .319-.21l.058-.19a.09.09 0 0 1 .09-.07c.104 0 .155.107.157.345.014.156.037.311.069.465.024.137.037.276.037.415a.674.674 0 0 1-.058.31c.034.193.053.387.058.583.009.195-.031.39-.116.567.034.114.051.232.05.35 0 .107-.01.213-.03.318a2.328 2.328 0 0 0-.05.33c0 .043.008.086.023.127a.439.439 0 0 1 .027.115c0 .028 0 .048-.027.048l-.192-.078-.213-.11a1.009 1.009 0 0 1-.22-.17c-.186.168-.252.19-.73.323a.666.666 0 0 0-.212.085.307.307 0 0 1-.128.065c-.084 0-.122-.133-.122-.403a2.154 2.154 0 0 1 .058-.53 1.106 1.106 0 0 0-.343-.085l-.147.018h-.035c-.028 0-.05-.043-.05-.093a.744.744 0 0 1 .058-.207l.096-.228a.814.814 0 0 1 .23-.275.62.62 0 0 1 .252-.145l.346-.065c.205-.04.329-.147.329-.29 0-.142-.094-.23-.301-.302l-.414-.143a2.236 2.236 0 0 1-.377-.18c-.23-.135-.267-.152-.323-.152-.056 0-.131.062-.131.17a.263.263 0 0 0 .07.203.27.27 0 0 0 .296.064.341.341 0 0 1 .098-.03c.043 0 .069.025.069.072v.048l-.02.162c-.054.214-.16.41-.309.573l-.086.115c-.077.303-.262.57-.52.75a.968.968 0 0 0-.106.075 1.322 1.322 0 0 0-.078.133c-.057.082-.121.159-.192.23-.077.08-.162.153-.253.217a.906.906 0 0 0-.192.172l-.096.163a.091.091 0 0 1-.078.047c-.086 0-.164-.087-.212-.25-.036-.112-.066-.142-.14-.142a.744.744 0 0 0-.166.03l-.134.018h-.333c-.18.001-.36.034-.528.097a.272.272 0 0 1-.099.03c-.025 0-.038 0-.063-.058a.136.136 0 0 1-.02-.077c.038-.268.138-.525.29-.75.063-.117.15-.22.253-.305a.429.429 0 0 0-.268-.323l-.164-.047a.05.05 0 0 1-.038-.045c0-.05.078-.117.222-.193.162-.09.343-.142.528-.152.182.009.355.08.49.2.253.202.331.25.457.25a.415.415 0 0 0 .402-.383.882.882 0 0 0-.252-.5c-.27-.36-.352-.537-.352-.787 0-.155.037-.307.109-.445l.096-.143c.02-.027.03-.059.033-.092 0-.065-.073-.11-.174-.11a1.645 1.645 0 0 0-.677.25c-.117.07-.195.152-.195.202 0 .03.016.057.04.073l.107.067c.013.01.02.025.02.04a.18.18 0 0 1-.04.075l-.193.25a3.2 3.2 0 0 1-.404.42.659.659 0 0 0-.096.095l-.076.143c-.11.168-.252.312-.419.425a.847.847 0 0 0-.134.105.865.865 0 0 0-.076.132c-.038.07-.08.136-.126.2a2.15 2.15 0 0 1-.23.295l-.273.268a1.56 1.56 0 0 0-.27.59c-.068.21-.129.335-.164.335s-.043-.02-.076-.058c-.19-.214-.353-.342-.442-.342a.272.272 0 0 0-.106.048.763.763 0 0 1-.253.094l-.356.065a.76.76 0 0 0-.525.283c-.038.042-.068.065-.084.065-.015 0-.05-.048-.05-.11v-.088l.048-.25c.03-.219.095-.432.192-.632l.162-.295a.323.323 0 0 0 .048-.155.521.521 0 0 0-.506-.445c-.07 0-.098-.023-.098-.063s.078-.142.184-.222c.174-.139.385-.225.607-.25.15.014.295.053.431.115l.213.085c.067.03.14.047.214.05.225 0 .442-.203.708-.658a.993.993 0 0 0 .174-.5c0-.25-.116-.387-.306-.387a.62.62 0 0 0-.416.18.43.43 0 0 0-.15.295v.13c0 .09-.03.137-.083.137-.053 0-.222-.127-.601-.58a1.115 1.115 0 0 1-.356-.82c-.331-.392-.402-.567-.402-.867l.013-.198a.906.906 0 0 1-.29-.662c0-.088.023-.174.067-.25a.973.973 0 0 1-.181-.37l-.043-.195a1.025 1.025 0 0 0-.154-.352c-.099-.123-.099-.14-.099-.18 0-.11.076-.155.414-.238a1.534 1.534 0 0 1-.02-.21c.003-.077.013-.153.03-.227l.069-.353c.021-.1.035-.202.04-.305a.976.976 0 0 0-.07-.302 1.036 1.036 0 0 0-.087-.22.368.368 0 0 1-.058-.13c0-.033.023-.053.066-.053.226.075.432.199.604.362.55.453.667.633.74 1.18 0 .043.015.106.028.193.238.146.389.398.404.675a1.179 1.179 0 0 1-.192.61l-.2.292a.57.57 0 0 0-.086.315c.007.203.07.4.182.57.147.25.273.363.43.363.252 0 .475-.438.475-.933v-.25c0-.104.006-.208.02-.312.018-.148.028-.24.028-.275v-.38a.277.277 0 0 0-.101-.182l-.19-.218a1.478 1.478 0 0 1-.475-.873.482.482 0 0 1 .138-.352.493.493 0 0 1 .352-.148c.07.003.139.015.205.038v-.072c0-.42.086-.73.204-.73l.046.015.174.152.212.133.059.057c0-.117 0-.13.126-.267.028-.033.073-.093.134-.18l.096-.143.048-.085c.025-.047.05-.07.078-.07.028 0 .048.035.083.138.023.065.038.082.202.227a.62.62 0 0 1 .114.125c.031.061.058.125.078.19l.028.078a.576.576 0 0 1 .192-.173l.144-.085a.315.315 0 0 1 .106-.05s.03.023.048.058c.018.035.04.08.076.142.075.101.122.22.136.345v.208a.533.533 0 0 1 .427.595c-.027.305-.16.592-.376.812-.164.195-.184.233-.184.37 0 .705.505 1.113 1.366 1.125h.644c.357-.003.712.054 1.049.17.23.096.473.157.722.183a.221.221 0 0 0 .124-.04.113.113 0 0 0 .058-.085c0-.133-.237-.25-1.01-.458-1.587-.445-2.261-1.077-2.261-2.118.009-.393.178-.767.47-1.036.292-.268.68-.408 1.078-.388.331.01.66.07.973.177l.394.143a.614.614 0 0 0 .207.04c.134 0 .202-.11.207-.335 0-.12.03-.163.109-.163.078 0 .283.138.44.352.14.182.228.398.252.626a.542.542 0 0 1-.339.5.944.944 0 0 1-.838.475c-.278 0-.672-.155-1.326-.523a.953.953 0 0 0-.465-.17.254.254 0 0 0-.197.063.249.249 0 0 0-.084.187c0 .138.109.225.39.323.258.056.495.185.681.372.369.035.72.174 1.01.4.845.265 1.367.835 1.367 1.5.02.284-.082.563-.279.77a1.04 1.04 0 0 1-.759.322c-.153 0-.306-.02-.455-.057"/><path id="445rG" d="M581.502 43.472a1.028 1.028 0 0 1-.035-.23v-.074l.027-.153v-.123a.476.476 0 0 0-.068-.285l-.116-.152a.692.692 0 0 1-.116-.263.065.065 0 0 1 .019-.05.066.066 0 0 1 .052-.02c.025 0 .035 0 .123.055a.2.2 0 0 0 .094.033c.058 0 .088-.093.088-.25a.557.557 0 0 0-.058-.333l-.144-.162-.124-.105a.127.127 0 0 1-.05-.083.07.07 0 0 1 .023-.052.071.071 0 0 1 .055-.018.806.806 0 0 1 .212.048h.043c.04 0 .056-.023.056-.08v-.025l-.028-.2-.043-.2c-.018-.068-.03-.078-.073-.078h-.025l-.24.048h-.038a.852.852 0 0 1-.758-.593l-.185-.627a1.275 1.275 0 0 0-.462-.583.426.426 0 0 0-.192-.102l-.174-.02c-.033 0-.053-.023-.053-.048s.038-.057.119-.057l.318.027c.178.026.352.07.52.133.207.081.425.129.647.14.48 0 .758-.25.758-.688a1.2 1.2 0 0 0-.394-.842.887.887 0 0 0-.308-.21.05.05 0 0 0-.048.05v.122c0 .048-.028.085-.066.085-.038 0-.104-.062-.167-.19a.92.92 0 0 0-.758-.597c-.05 0-.086.02-.086.05.01.048.026.094.048.137l.076.17a.32.32 0 0 1 .03.088s-.017.02-.04.02a.279.279 0 0 1-.164-.09l-.144-.153-.126-.19a.867.867 0 0 0-.394-.332l-.23-.125a.254.254 0 0 0-.12-.038.046.046 0 0 0-.037.013.045.045 0 0 0-.013.037.201.201 0 0 0 .038.103c.046.056.08.12.099.19a.055.055 0 0 1-.05.055c-.074 0-.23-.15-.367-.353a.966.966 0 0 1-.174-.535c-.001-.185.074-.363.207-.494a.701.701 0 0 1 .503-.198c.258.019.508.105.722.25l.452.277c.16.098.34.157.526.173.095-.005.19-.021.283-.048a.46.46 0 0 0 .116-.047c.027-.015.045-.038.045-.053a.042.042 0 0 0-.028-.042l-.058-.02-.212-.038a1.215 1.215 0 0 1-.253-.095 4.614 4.614 0 0 1-.482-.25 1.882 1.882 0 0 0-.32-.182c-.08-.028-.127-.06-.127-.09a.037.037 0 0 1 .01-.032.038.038 0 0 1 .033-.01.214.214 0 0 1 .103.037c.105.074.228.12.357.132l.414.143c.206.071.421.116.639.132.174 0 .316-.14.316-.312a.825.825 0 0 0-.167-.418c-.023-.03-.045-.047-.066-.047-.02 0-.06.027-.06.077v.078l.015.112a.206.206 0 0 1-.19.22.51.51 0 0 1-.151-.03l-.624-.2a3.25 3.25 0 0 0-1.028-.22c-.758 0-1.319.5-1.319 1.178 0 .75.538 1.25 1.867 1.697 1.329.448 1.49.553 1.49.885a.405.405 0 0 1-.414.363c-.077 0-.154-.006-.23-.02l-.654-.153a4.914 4.914 0 0 0-1.197-.135c-.945 0-1.468.163-1.92.6a.315.315 0 0 1-.28.125h-.218a.303.303 0 0 0-.27.173l-.164.25a.14.14 0 0 1-.109.057c-.086 0-.139-.065-.235-.295a.807.807 0 0 0-.202-.287l-.192-.173a.117.117 0 0 1-.048-.072.186.186 0 0 1 .038-.088.708.708 0 0 0 .134-.25c.025-.127.03-.132.08-.132.051 0 .076.057.081.277.01.088.037.173.079.25l.106.228c.017.031.05.05.086.047.098 0 .225-.232.252-.477.028-.205.05-.268.091-.268a.05.05 0 0 1 .043.02c0 .015.04.07.086.17.03.058.073.107.126.143a.395.395 0 0 0 .117.067c.078 0 .103-.05.123-.23v-.095l-.02-.135-.012-.092c0-.06.022-.098.058-.098a.111.111 0 0 1 .07.038l.096.095c.049.055.117.09.19.095.08 0 .129-.033.129-.085a.497.497 0 0 0-.089-.22l-.068-.123c-.078-.142-.139-.2-.21-.2h-.096l-.113.048a.255.255 0 0 1-.076.022c-.018 0-.03-.015-.03-.037a.858.858 0 0 1 .164-.388 1.86 1.86 0 0 0 .154-.75c.033-.5.101-.82.17-.82.067 0 .065.04.065.148v.22c0 .09.02.16.043.16.083 0 .18-.12.252-.318a.585.585 0 0 0 .05-.195v-.045l-.191-.352-.192-.058a.106.106 0 0 1-.068-.042v-.208l-.02-.115-.038-.095-.048-.105c-.148.066-.28.163-.384.285-.076.1-.119.138-.157.138a.05.05 0 0 1-.045-.05.884.884 0 0 1 .045-.145v-.053a.656.656 0 0 0-.326-.547l-.058.075-.068.095-.116.132a.55.55 0 0 0-.114.298v.05c0 .08 0 .1-.045.1h-.023l-.068-.095-.117-.12-.164-.105-.086-.068-.038.085a.476.476 0 0 0-.048.153v.34c0 .082-.02.115-.07.115a.346.346 0 0 1-.111-.048.283.283 0 0 0-.14-.04.254.254 0 0 0-.183.078.248.248 0 0 0-.069.185.829.829 0 0 0 .154.5l.124.162c.035.043.098.08.1.058l.024-.2-.028-.15v-.073c0-.062.023-.1.058-.1s.086.06.121.22l.076.353.078.447c.025.131.064.259.117.38.044.116.099.227.164.333.106.135.118.155.118.185a.045.045 0 0 1-.04.045.219.219 0 0 1-.086-.028.4.4 0 0 0-.116-.037h-.076c-.154 0-.187.13-.187.767 0 .397.063.79.185 1.168l.202.5a.627.627 0 0 1 .048.235c0 .695-.93 1.782-1.953 2.287a.783.783 0 0 0-.528.78v.125c.102-.058.212-.103.326-.132.288-.075.341-.11.386-.25l.038-.125c.016-.048.038-.063.253-.18a.399.399 0 0 0 .154-.123c.048-.08.088-.122.114-.122.025 0 .038 0 .038.03v.035l-.096.272v.068a.517.517 0 0 0 .288.44.854.854 0 0 1 .126-.4l.172-.268a.711.711 0 0 0 .09-.407c.002-.1-.006-.2-.022-.298v-.075c0-.047.025-.077.068-.077.043 0 .06 0 .063.027l.038.18c.01.042.05.07.094.068.093 0 .212-.12.338-.333a.496.496 0 0 0 .07-.25l-.014-.13-.028-.142v-.028c0-.062.035-.105.086-.105.05 0 .04 0 .043.018l.058.22c.009.064.06.115.124.125.065 0 .174-.11.252-.25a.835.835 0 0 0 .068-.375c0-.203.02-.25.096-.25.026 0 .043 0 .048.022l.038.125c.015.045.043.075.068.075.026 0 .147-.115.22-.25a.179.179 0 0 0 .03-.087c0-.04-.027-.083-.085-.13-.101-.083-.106-.095-.106-.22-.001-.12.036-.236.106-.333.045-.082.088-.157.123-.23.122-.235.165-.295.21-.295a.08.08 0 0 1 .07.085.174.174 0 0 1-.02.078.323.323 0 0 0-.037.112.07.07 0 0 0 .07.068.379.379 0 0 0 .17-.058c.025-.015.116-.05.267-.105l.319-.107a.574.574 0 0 1 .192-.03c.058 0 .115.007.172.02.072.02.147.033.222.04a.166.166 0 0 0 .164-.158.59.59 0 0 0-.154-.29.165.165 0 0 1-.05-.087v-.037a.063.063 0 0 1 .05-.038c.066 0 .217.16.354.372.828 1.29 1.124 1.603 1.682 1.77.558.168.712.303.712.633a1.244 1.244 0 0 1-.3.68c-.42.58-.52.815-.52 1.198v.07l.105-.048c.05-.027.101-.05.155-.068l.252-.047a.205.205 0 0 0 .137-.195v-.025l-.028-.21v-.025c0-.076.033-.148.088-.2a.086.086 0 0 1 .05-.02.098.098 0 0 1 .076.06l.155.322c.067.137.188.24.336.285"/><path id="445rH" d="M573.814 36.572c-.103 0-.154.06-.165.19l-.026.18c-.019.077-.03.153-.033.23 0 .135.059.238.14.238.08 0 .228-.118.298-.25a.464.464 0 0 0 .062-.223.478.478 0 0 0-.063-.215c-.051-.097-.128-.152-.213-.152"/><path id="445rI" d="M572.954 35.185l.134.133c.22.217.329.577.329 1.09 0 .112 0 .187-.03.5 0 .16-.021.29-.021.392 0 1.18.386 2.073.902 2.073.161 0 .265-.078.417-.305.025-.038.063-.068.085-.068.023 0 .046.025.048.077l.02.21.02.18.019.2.027.18v.023a.08.08 0 0 1-.068.09l-.172.03a.762.762 0 0 0-.27.105.777.777 0 0 0-.253.19l-.106.218a.076.076 0 0 1-.06.047c-.056 0-.147-.097-.253-.267a.91.91 0 0 1-.141-.31c0-.03.022-.043.083-.043H573.967a.068.068 0 0 0 .058-.067.06.06 0 0 0-.038-.058l-.432-.182a.671.671 0 0 1-.325-.313 1.277 1.277 0 0 1-.175-.427c0-.058.03-.098.079-.098a.16.16 0 0 1 .068.02.392.392 0 0 0 .121.038.068.068 0 0 0 .07-.06.18.18 0 0 0-.078-.103c-.346-.272-.543-.57-.543-.827 0-.073.018-.105.056-.105h.07l.124.017h.003a.076.076 0 0 0 .058-.018.075.075 0 0 0 .025-.054c0-.025-.033-.063-.078-.088l-.154-.085a.42.42 0 0 1-.134-.135 7.603 7.603 0 0 1-.164-.305l-.134-.25c-.05-.095-.078-.15-.086-.162a.884.884 0 0 0-.058-.078.611.611 0 0 1 .3-.077c.132 0 .215.085.309.315.058.145.121.25.159.25.038 0 .025-.033.025-.113 0-.096-.014-.19-.04-.282a.653.653 0 0 1-.028-.21l-.018-.133-.113-.057a.25.25 0 0 1-.086-.095.405.405 0 0 1-.076-.218.743.743 0 0 1 .028-.172c.067-.202.11-.411.126-.623v-.085z"/><path id="445rJ" d="M574.103 42.05a1.09 1.09 0 0 1-.28-.068l-.183-.075a.978.978 0 0 0-.368-.097.592.592 0 0 0-.402.162l.086.065.192.133.184.142a.254.254 0 0 0 .16.058c.239-.024.459-.14.61-.325"/><path id="445rK" d="M577.804 43.78a.538.538 0 0 1 .192-.25c.268-.228.394-.398.394-.532v-.21c0-.123.02-.163.086-.163a.06.06 0 0 1 .058.03l.048.113c.016.029.047.046.08.044.039 0 .094-.042.142-.11l.096-.132a.285.285 0 0 0 .048-.295l-.068-.152a.446.446 0 0 1-.04-.15c0-.063.033-.1.086-.1.026-.001.05.01.068.03l.086.1a.094.094 0 0 0 .073.032.131.131 0 0 0 .101-.08l.076-.152a.226.226 0 0 0 .03-.086c0-.03-.03-.06-.088-.085l-.127-.057a.685.685 0 0 1-.29-.61c0-.035.007-.07.02-.103l.068-.162c.02-.048.031-.1.03-.153a.536.536 0 0 0-.103-.295 2.47 2.47 0 0 1-.126-.2c-.056-.15-.086-.192-.134-.192h-.048l-.068.037-.106.058-.124.152-.134.065a.443.443 0 0 0-.157.35c0 .25.028.315.359.88.11.163.178.35.197.545 0 .39-.354.669-1.06.835l-.443.105a.752.752 0 0 0-.586.678.724.724 0 0 1 .424-.063h.165c.128 0 .146 0 .227-.125a.728.728 0 0 1 .308-.272l.154-.068.127-.067h.037c.036 0 .053.015.053.04a.307.307 0 0 1-.09.16.497.497 0 0 0-.155.367c0 .094.04.184.106.25"/><path id="445rL" d="M576.593 42.305c.11.066.207.15.288.25.09.125.106.133.194.133a.604.604 0 0 0 .141-.02l.086-.018c.16-.03.213-.052.213-.092a.12.12 0 0 0-.048-.08l-.107-.096-.106-.094a.521.521 0 0 0-.318-.108.61.61 0 0 0-.346.117"/><path id="445rM" d="M579.71 42.842H579.983a.425.425 0 0 0 .42-.385c0-.068-.061-.107-.17-.107-.253 0-.422.154-.523.5"/><path id="445rN" d="M576.123 36.263c0 .089.056.162.104.162.048 0 .086-.106.187-.275.125-.175.216-.371.268-.58 0-.04-.02-.07-.048-.07l-.107.096a.854.854 0 0 1-.328.172c-.109.04-.149.086-.149.164v.079l.048.134z"/><path id="445rO" d="M575.547 35.752l.161.085c.04.015.068.051.071.093v.06a.643.643 0 0 0 0 .203.162.162 0 0 1-.055.129.165.165 0 0 1-.137.038c-.033 0-.015-.02-.09-.105l-.213-.25a.874.874 0 0 1-.144-.427v-.026c0-.052.018-.072.058-.072a.21.21 0 0 1 .106.048z"/><path id="445rP" d="M575.91 36.745h-.163l-.117-.068a.275.275 0 0 0-.136-.037c-.086 0-.144.047-.144.12.019.147.061.29.126.422l.127.305c.108.268.217.38.358.38.142 0 .144-.122.228-.332.192-.478.298-.55.298-.718 0-.115-.026-.147-.132-.147l-.088-.02-.154.097z"/><path id="445rQ" d="M575.932 36.998h-.146a.07.07 0 0 0-.056.027l-.02.048.056.23.043.2c.024.11.074.152.167.152.094 0 .176-.065.19-.18l.024-.21c0-.14.02-.212.02-.217a.078.078 0 0 0-.032-.058.09.09 0 0 0-.056-.02z"/><path id="445rR" d="M598.498 39.307l.038.143c.035.127.06.23.078.305.122.545.223.685.49.685a.318.318 0 0 0 .319-.21l.058-.19a.09.09 0 0 1 .09-.07c.104 0 .162.113.17.345.011.156.03.311.058.465.025.145.037.293.038.44a.66.66 0 0 1-.058.273l.018.114c.024.116.038.233.04.35 0 .408-.02.53-.116.688.033.11.05.225.05.34a2.819 2.819 0 0 1-.03.335l-.038.285v.17c.017.037.03.075.038.115a.042.042 0 0 1-.009.032.043.043 0 0 1-.029.016l-.192-.078-.217-.105a.989.989 0 0 1-.22-.17.78.78 0 0 1-.434.25 1.875 1.875 0 0 0-.506.173.314.314 0 0 1-.133.065c-.074 0-.127-.143-.127-.353a1.55 1.55 0 0 1 .068-.58 1.233 1.233 0 0 0-.35-.085.803.803 0 0 0-.142.018h-.043c-.028 0-.043-.035-.043-.09a1.14 1.14 0 0 1 .154-.435.86.86 0 0 1 .472-.42l.347-.066c.204-.04.328-.147.328-.29 0-.142-.091-.227-.298-.302l-.404-.142a2.12 2.12 0 0 1-.384-.18l-.212-.126a.232.232 0 0 0-.104-.027c-.086 0-.139.063-.139.163-.004.157.121.29.28.294a.255.255 0 0 0 .099-.02.316.316 0 0 1 .088-.03c.043 0 .076.043.076.103a1.19 1.19 0 0 1-.222.602l-.116.143-.086.115a1.277 1.277 0 0 1-.518.75.599.599 0 0 0-.106.075 1.496 1.496 0 0 0-.076.133 1.68 1.68 0 0 1-.192.23c-.077.08-.162.152-.253.217a.906.906 0 0 0-.192.172l-.096.163a.086.086 0 0 1-.075.05c-.086 0-.164-.088-.212-.25-.036-.113-.066-.143-.14-.143a.765.765 0 0 0-.169.03l-.134.018h-.315c-.184 0-.366.034-.538.097a.255.255 0 0 1-.099.03c-.05 0-.076-.05-.076-.145.051-.403.242-.776.54-1.055a.406.406 0 0 0-.252-.322l-.174-.048a.052.052 0 0 1-.028-.045c0-.06.068-.12.223-.192.152-.094.326-.146.505-.153a.78.78 0 0 1 .505.2c.253.2.333.25.457.25a.415.415 0 0 0 .402-.38.884.884 0 0 0-.253-.5 1.219 1.219 0 0 1-.346-.81.907.907 0 0 1 .202-.552.231.231 0 0 0 .04-.103c0-.052-.088-.1-.184-.1-.141.01-.279.05-.404.115-.29.133-.462.25-.462.328.002.033.02.062.048.08l.096.067c.013.01.02.025.02.04a.155.155 0 0 1-.04.075 9.611 9.611 0 0 0-.192.25 2.19 2.19 0 0 1-.402.42.372.372 0 0 0-.099.095l-.075.143c-.115.161-.26.3-.425.41a1.037 1.037 0 0 0-.134.105.854.854 0 0 0-.085.132c-.1.18-.22.347-.357.5l-.252.268c-.126.18-.22.38-.278.59-.078.23-.129.335-.164.335-.036 0-.043-.02-.076-.058-.187-.21-.354-.342-.437-.342a.302.302 0 0 0-.111.047.8.8 0 0 1-.253.095l-.346.065a.743.743 0 0 0-.556.278c-.033.042-.06.065-.075.065-.016 0-.059-.05-.059-.115v-.083l.048-.25c.034-.22.102-.433.202-.632l.175-.295a.32.32 0 0 0 .048-.153c0-.22-.207-.397-.52-.447-.064 0-.097-.033-.097-.068s.076-.127.195-.217c.167-.139.372-.226.589-.25.153.01.302.049.442.112l.212.085c.067.03.14.048.214.05.225 0 .44-.202.71-.657a.993.993 0 0 0 .175-.5c0-.25-.114-.385-.304-.385a.576.576 0 0 0-.409.18.458.458 0 0 0-.159.305V40.912c0 .078-.025.113-.083.113s-.157-.07-.324-.268l-.27-.312a1.08 1.08 0 0 1-.366-.82c-.323-.395-.402-.62-.402-.87v-.198a.833.833 0 0 1-.278-.66.421.421 0 0 1 .058-.25.968.968 0 0 1-.181-.37l-.046-.197a1.03 1.03 0 0 0-.154-.353c-.086-.122-.096-.14-.096-.177 0-.1.096-.163.338-.223l.076-.02a1.628 1.628 0 0 1-.02-.21 1.21 1.21 0 0 1 .03-.227l.079-.35c.022-.103.035-.207.04-.313a.934.934 0 0 0-.058-.295.816.816 0 0 0-.096-.22.261.261 0 0 1-.058-.125c0-.032.033-.057.076-.057a.23.23 0 0 1 .096.03c.348.193.663.44.932.732.217.25.288.438.336.973a.81.81 0 0 1 .404.722.993.993 0 0 1-.195.563 9.08 9.08 0 0 0-.192.295.625.625 0 0 0-.085.322c.008.201.072.396.184.563.144.25.273.362.424.362.253 0 .48-.432.48-.905v-.35l.03-.227.018-.275.018-.23v-.128c0-.092-.02-.12-.316-.435-.295-.315-.48-.637-.48-.91a.485.485 0 0 1 .49-.47c.07.003.139.015.205.038v-.318l.058-.25c.046-.197.068-.232.136-.232l.048.015.175.152.21.133.058.057a.388.388 0 0 1 .123-.267c.05-.063.096-.123.134-.18l.096-.143.058-.085c.038-.057.056-.072.081-.072s.046.032.073.14c.017.048.046.09.086.122l.127.105a.688.688 0 0 1 .222.398.566.566 0 0 1 .192-.173l.164-.09a.396.396 0 0 1 .101-.047s.028.022.043.057c.022.05.048.098.078.143.124.197.134.225.134.36v.192a.52.52 0 0 1 .435.593c-.021.306-.151.595-.367.815-.164.195-.192.25-.192.402 0 .673.506 1.078 1.375 1.09h.634c.356-.003.71.055 1.048.17.231.097.475.158.725.183.098 0 .18-.055.18-.12 0-.138-.233-.25-1.011-.463-1.584-.442-2.261-1.077-2.261-2.115.01-.394.181-.768.474-1.037a1.49 1.49 0 0 1 1.082-.388c.325.009.646.063.955.163l.394.142a.612.612 0 0 0 .207.04c.137 0 .187-.085.207-.335 0-.112.046-.162.116-.162.071 0 .299.157.44.352.142.186.23.407.253.638a.543.543 0 0 1-.339.485.942.942 0 0 1-.839.475c-.272 0-.74-.183-1.326-.523a.872.872 0 0 0-.46-.17.254.254 0 0 0-.2.061.249.249 0 0 0-.085.19c0 .137.104.222.39.322.454.16.552.212.681.372.369.036.72.175 1.01.4.88.278 1.367.815 1.367 1.5a.994.994 0 0 1-.27.763c-.196.205-.469.32-.753.315-.157 0-.315-.019-.467-.058"/><path id="445rS" d="M599.449 43.482a.663.663 0 0 1-.03-.175v-.13c.018-.123.028-.246.03-.37a.296.296 0 0 0-.071-.19l-.116-.153a.416.416 0 0 1-.106-.25c0-.056.012-.073.05-.073h.046l.085.047c.03.019.062.03.096.033.06 0 .088-.09.086-.268a.498.498 0 0 0-.192-.48l-.134-.105a.105.105 0 0 1-.04-.078.067.067 0 0 1 .018-.054.069.069 0 0 1 .053-.021.51.51 0 0 1 .11.02l.107.03h.04c.033 0 .048-.025.048-.08v-.028l-.027-.2c-.03-.208-.066-.288-.127-.288h-.017l-.253.048h-.043a.883.883 0 0 1-.758-.593l-.154-.618a1.283 1.283 0 0 0-.462-.584.454.454 0 0 0-.202-.102l-.172-.02c-.03 0-.053-.023-.053-.048s.033-.057.104-.057c.29.008.578.063.85.162.206.08.422.128.642.14.483 0 .77-.25.77-.66a1.28 1.28 0 0 0-.184-.633 1.538 1.538 0 0 0-.452-.418.152.152 0 0 0-.075-.03.048.048 0 0 0-.048.047v.123c0 .047-.028.085-.061.085s-.109-.063-.17-.19a.908.908 0 0 0-.757-.598c-.063 0-.101.022-.101.06a.279.279 0 0 0 .05.125c.034.054.063.11.086.17.013.026.02.054.023.082 0 .018-.015.028-.043.028a.276.276 0 0 1-.162-.09l-.144-.153-.123-.19a.917.917 0 0 0-.384-.333l-.253-.125a.287.287 0 0 0-.124-.038.04.04 0 0 0-.033.011.04.04 0 0 0-.012.032c.003.04.018.078.043.11a.483.483 0 0 1 .088.19.052.052 0 0 1-.012.04.053.053 0 0 1-.036.018c-.068 0-.187-.12-.359-.353a.898.898 0 0 1-.184-.536.697.697 0 0 1 .205-.506.71.71 0 0 1 .51-.207c.258.02.506.106.72.25l.462.278c.16.098.34.157.528.173a.884.884 0 0 0 .27-.048.49.49 0 0 0 .124-.047.07.07 0 0 0 .035-.055c0-.038-.022-.053-.083-.058a2.74 2.74 0 0 1-.952-.373 2.466 2.466 0 0 0-.293-.177c-.079-.028-.132-.068-.132-.103 0-.035.016-.022.04-.022h.056l.42.152.404.143c.209.072.426.116.647.132a.297.297 0 0 0 .22-.084.291.291 0 0 0 .088-.218.604.604 0 0 0-.06-.25c-.059-.116-.137-.21-.168-.21-.03 0-.058.037-.058.102v.172c0 .128-.07.213-.182.213a.53.53 0 0 1-.156-.03l-.627-.2a3.12 3.12 0 0 0-1.01-.22c-.758 0-1.326.5-1.326 1.178 0 .751.525 1.237 1.877 1.7 1.31.45 1.48.553 1.48.896a.384.384 0 0 1-.136.262.391.391 0 0 1-.283.09c-.076 0-.151-.006-.225-.02l-.655-.152a4.764 4.764 0 0 0-1.194-.135c-.955 0-1.412.145-1.913.6a.342.342 0 0 1-.29.126h-.202a.3.3 0 0 0-.273.172l-.154.25a.127.127 0 0 1-.111.058c-.101 0-.152-.065-.253-.295a.735.735 0 0 0-.19-.303l-.201-.173c-.03-.025-.048-.05-.048-.07a.197.197 0 0 1 .048-.092.951.951 0 0 0 .086-.133.381.381 0 0 0 .047-.115v-.085a.068.068 0 0 1 .069-.048c.063 0 .075.043.075.278a.679.679 0 0 0 .076.25l.106.228c.018.03.05.05.086.048.101 0 .228-.233.253-.478.028-.203.05-.268.09-.268.041 0 .059.025.14.19a.454.454 0 0 0 .116.143.284.284 0 0 0 .116.067c.078 0 .106-.05.124-.23v-.095l-.02-.135-.013-.093c0-.06.023-.098.058-.098a.114.114 0 0 1 .07.038l.097.095c.049.057.12.09.194.095.084 0 .134-.035.134-.092 0-.058 0-.07-.096-.213l-.068-.123c-.086-.16-.126-.2-.202-.2h-.099l-.126.048a.28.28 0 0 1-.076.022c-.015 0-.03-.017-.03-.037a.854.854 0 0 1 .164-.388c.1-.24.155-.493.164-.751l.048-.448c.028-.275.059-.373.117-.373.058 0 .035 0 .038.02l.027.143v.115c-.01.085.002.17.033.25.04 0 .101-.048.16-.128a.692.692 0 0 0 .133-.167.896.896 0 0 0 .048-.25c0-.22-.093-.316-.394-.399a.106.106 0 0 1-.058-.027v-.238l-.02-.115-.038-.095-.043-.105-.076.047a1.009 1.009 0 0 0-.308.25c-.088.11-.119.138-.154.138a.045.045 0 0 1-.048-.04l.028-.167v-.038a.707.707 0 0 0-.329-.563l-.068.075-.055.098-.117.132a.446.446 0 0 0-.116.296v.062c0 .075 0 .1-.048.1h-.02l-.076-.095-.096-.115-.174-.105-.086-.068a.79.79 0 0 0-.096.47v.081c0 .085-.028.138-.076.138a.299.299 0 0 1-.106-.058.298.298 0 0 0-.144-.04c-.072 0-.14.03-.19.083a.249.249 0 0 0-.062.195.826.826 0 0 0 .154.485c.075.123.174.223.22.223a1.14 1.14 0 0 0 .03-.205l-.028-.15v-.073c0-.062.023-.1.058-.1s.086.06.121.22l.079.353.075.448c.025.13.064.258.117.38.043.116.097.228.161.333.106.136.119.156.119.186a.045.045 0 0 1-.043.045.224.224 0 0 1-.086-.028.394.394 0 0 0-.116-.037h-.07c-.16 0-.193.127-.193.75 0 .4.062.796.185 1.177l.202.5a.633.633 0 0 1 .048.238c0 .696-.953 1.81-1.953 2.287-.389.186-.505.378-.538.906a1.84 1.84 0 0 1 .338-.142c.283-.078.344-.118.384-.25l.038-.126c.018-.052.053-.08.253-.18a.391.391 0 0 0 .154-.122c.05-.083.088-.123.114-.123.025 0 .043.017.043.05v.015l-.106.273v.067a.52.52 0 0 0 .3.46c.013-.05.023-.087.028-.112.018-.099.05-.195.096-.285l.184-.268c.066-.097.079-.16.079-.405v-.378c0-.05.022-.078.068-.078.045 0 .06 0 .063.03l.028.18c.01.042.05.07.093.068.094 0 .212-.118.339-.333a.43.43 0 0 0 .068-.228 2.161 2.161 0 0 0-.03-.295v-.058a.07.07 0 0 1 .018-.055.071.071 0 0 1 .055-.022c.025 0 .043 0 .045.017l.069.22c.022.073.073.126.126.126.146 0 .3-.3.316-.618 0-.2.035-.27.096-.27a.048.048 0 0 1 .048.022l.038.125c.015.045.042.075.068.075.025 0 .073-.042.134-.113a.937.937 0 0 0 .085-.125.209.209 0 0 0 .028-.1c0-.047 0-.06-.086-.12a.25.25 0 0 1-.106-.2c.025-.21.105-.41.23-.58.157-.269.18-.299.217-.299.04.006.068.041.064.08a.194.194 0 0 1-.02.083.356.356 0 0 0-.041.115c.003.04.036.07.076.068a.392.392 0 0 0 .174-.058c.082-.04.166-.075.253-.105l.318-.107a.673.673 0 0 1 .364-.01c.072.02.147.033.222.04.04 0 .08-.015.109-.044a.15.15 0 0 0 .045-.107.4.4 0 0 0-.06-.165c-.051-.08-.079-.125-.086-.132-.008-.008-.059-.068-.059-.086v-.037a.063.063 0 0 1 .053-.038c.076 0 .225.153.36.373.757 1.22 1.118 1.607 1.674 1.772.556.165.712.296.712.636a1.246 1.246 0 0 1-.3.678c-.384.528-.52.839-.52 1.191v.078l.105-.048c.05-.027.101-.05.155-.067l.24-.048a.2.2 0 0 0 .136-.2v-.02l-.018-.21v-.033c0-.117.058-.215.132-.215a.093.093 0 0 1 .073.058l.154.322c.067.138.189.241.336.286"/><path id="445rT" d="M591.56 36.945v.245c0 .155.037.223.122.223.085 0 .241-.118.308-.25a.697.697 0 0 0 .07-.25.362.362 0 0 0-.07-.18c-.063-.105-.13-.153-.208-.153-.078 0-.178.105-.203.372"/><path id="445rU" d="M590.902 35.185l.133.133c.225.275.343.62.331.975v.157l-.027.448v.374c0 1.25.366 2.093.904 2.093a.575.575 0 0 0 .414-.305c.025-.04.058-.068.079-.068.02 0 .045.025.048.078l.02.21.017.18c0 .085.018.152.03.2.016.062.026.124.031.187 0 .095-.02.105-.253.138a.66.66 0 0 0-.267.105.96.96 0 0 0-.253.19l-.106.22a.076.076 0 0 1-.06.047c-.056 0-.132-.085-.238-.267a.913.913 0 0 1-.142-.31c0-.03.023-.043.084-.043h.3a.073.073 0 0 0 .059-.07.058.058 0 0 0-.038-.052l-.432-.183a.792.792 0 0 1-.316-.312.975.975 0 0 1-.174-.415c0-.068.03-.113.075-.113.025.002.05.01.071.023a.364.364 0 0 0 .114.037.092.092 0 0 0 .05-.02.065.065 0 0 0 .03-.045c0-.027-.03-.062-.075-.097-.361-.25-.579-.56-.579-.813 0-.075.018-.107.053-.107h.071a.99.99 0 0 0 .134.02c.053 0 .088-.03.088-.073 0-.042-.035-.062-.088-.087-.24-.118-.298-.188-.452-.525a2.131 2.131 0 0 0-.278-.5.609.609 0 0 1 .298-.078c.131 0 .215.085.308.315.058.145.122.25.16.25.037 0 .025-.03.025-.11-.001-.096-.015-.192-.04-.285a.612.612 0 0 1-.029-.21l-.02-.132-.106-.058a.354.354 0 0 1-.164-.312c0-.058.007-.116.02-.173l.058-.22c.038-.13.06-.266.068-.402v-.09z"/><path id="445rV" d="M592.053 42.05a1.43 1.43 0 0 1-.463-.142.881.881 0 0 0-.36-.098.597.597 0 0 0-.41.163l.086.065.192.132.184.142a.254.254 0 0 0 .162.058c.19 0 .349-.085.606-.325"/><path id="445rW" d="M595.76 43.782a.55.55 0 0 1 .191-.25c.268-.227.394-.397.394-.532v-.21c0-.122.02-.163.086-.163a.06.06 0 0 1 .06.03l.049.113a.084.084 0 0 0 .08.042c.069 0 .117-.047.235-.25a.36.36 0 0 0 .071-.187.285.285 0 0 0-.023-.108l-.068-.152a.459.459 0 0 1-.04-.15c0-.063.033-.1.086-.1.026 0 .05.01.068.03l.076.095c.017.02.022.032.05.032a.164.164 0 0 0 .124-.08l.076-.152a.22.22 0 0 0 .03-.088c0-.032-.03-.065-.078-.085l-.134-.057a.675.675 0 0 1-.288-.59.416.416 0 0 1 .028-.123l.058-.162a.468.468 0 0 0 .028-.158.526.526 0 0 0-.096-.29 1.949 1.949 0 0 1-.117-.2c-.055-.142-.088-.187-.136-.187a.254.254 0 0 0-.124.045l-.096.057-.134.153-.134.065a.455.455 0 0 0-.156.355c0 .205.045.317.359.872a1.2 1.2 0 0 1 .194.543c0 .387-.4.707-1.05.837-.779.158-.95.285-1.039.78a.724.724 0 0 1 .43-.052h.164c.128 0 .146 0 .227-.125a.718.718 0 0 1 .318-.265l.154-.068.124-.067h.038c.035 0 .053.015.053.04a.334.334 0 0 1-.09.16.545.545 0 0 0-.147.315.454.454 0 0 0 .098.287"/><path id="445rX" d="M594.543 42.303c.11.065.207.15.288.25.09.125.103.132.197.132a.612.612 0 0 0 .141-.02l.086-.018c.164-.03.212-.054.212-.097a.1.1 0 0 0-.04-.075l-.117-.095-.106-.095a.509.509 0 0 0-.303-.105.664.664 0 0 0-.361.115"/><path id="445rY" d="M597.66 42.842h.283a.277.277 0 0 0 .19-.044.798.798 0 0 0 .184-.228.239.239 0 0 0 .038-.113c0-.068-.061-.107-.165-.107-.252 0-.426.152-.527.5"/><path id="445rZ" d="M594.07 36.253c0 .089.059.162.104.162.046 0 .104-.139.205-.306.12-.163.207-.35.253-.548 0-.04-.02-.071-.048-.071l-.107.099a1.109 1.109 0 0 1-.318.171c-.121.043-.159.081-.159.165l.015.078.081.167z"/><path id="445raa" d="M593.227 35.538a.216.216 0 0 0-.109-.048c-.04 0-.058.02-.058.07v.028c.008.055.021.109.038.162.028.09.071.176.129.253l.144.25c.058.06.13.104.21.13a.048.048 0 0 0 .05-.04l.03-.19.048-.173v-.04a.125.125 0 0 0-.073-.11l-.157-.077z"/><path id="445rab" d="M593.854 36.748h-.162l-.116-.068a.267.267 0 0 0-.134-.037.132.132 0 0 0-.105.039.13.13 0 0 0-.036.105c.019.139.06.273.121.398.036.08.078.182.126.305.107.265.215.38.362.38.146 0 .225-.1.303-.302l.106-.43c.05-.133.18-.19.18-.283a.251.251 0 0 0-.228-.215h-.056l-.144.097z"/><path id="445rac" d="M593.884 37h-.134a.073.073 0 0 0-.055.028.226.226 0 0 0-.035.047l.055.23.044.2c.026.11.046.152.142.152.116 0 .21-.08.212-.18l.024-.21.023-.217a.08.08 0 0 0-.032-.05.095.095 0 0 0-.058-.02z"/><path id="445rad" d="M580.735 57.28c.064.142.105.293.121.448l.018.4c.015.4.149.6.404.6a.303.303 0 0 0 .212-.068l.106-.105h.043c.069 0 .104.043.104.125v.155c-.002.147.01.293.038.438.019.127.028.256.028.384.008.16-.021.318-.086.463.066.185.102.379.106.575a.766.766 0 0 1-.116.463c.03.105.046.213.048.322a2.228 2.228 0 0 1-.038.362 1.98 1.98 0 0 0-.038.455v.025c0 .06-.018.09-.056.09a.174.174 0 0 1-.119-.075c-.058-.075-.096-.102-.141-.102-.045 0-.086.035-.187.32-.056.13-.134.249-.23.352a.811.811 0 0 0-.174.275c-.03.115-.05.18-.058.2a.076.076 0 0 1-.058.048c-.16 0-.341-.335-.526-.97-.053-.18-.118-.25-.217-.25a.19.19 0 0 0-.167.107l-.058.133a.06.06 0 0 1-.05.037c-.076 0-.195-.14-.268-.315a1.197 1.197 0 0 1-.094-.437c0-.297.223-.52.892-.895a.73.73 0 0 0 .404-.75.72.72 0 0 0-.346-.658.776.776 0 0 0-.43-.21.153.153 0 0 0-.11.035.15.15 0 0 0-.053.103c0 .09.053.145.179.188.126.042.212.104.212.17a.9.9 0 0 1-.164.344.882.882 0 0 1-.308.316.866.866 0 0 1-.47.604.997.997 0 0 1-.192.353l-.202.25a.829.829 0 0 0-.144.295c-.02.145-.035.17-.091.17-.056 0-.232-.135-.389-.333a.46.46 0 0 1-.124-.315.509.509 0 0 1-.328.113.817.817 0 0 0-.253.067.744.744 0 0 1-.222.098c-.04 0-.053-.02-.056-.088v-.21c.006-.305.106-.6.288-.847a.958.958 0 0 0-.472-.25c-.058 0-.07-.013-.07-.035a.386.386 0 0 1 .09-.175c.052-.068.11-.132.174-.19a.958.958 0 0 1 .559-.2c.188.015.374.06.548.133.073.029.15.045.23.047.106 0 .166-.068.166-.188a2.541 2.541 0 0 0-.28-.88 1.737 1.737 0 0 1-.19-.627.911.911 0 0 1 .354-.77.402.402 0 0 0-.214-.058.544.544 0 0 0-.296.096c-.142.082-.222.154-.222.202 0 .048.03.048.078.083s.088.07.088.14a1.096 1.096 0 0 1-.472.75.839.839 0 0 1-.52.675.92.92 0 0 1-.213.437c-.167.19-.29.414-.356.657-.022.103-.048.146-.078.146s-.126-.063-.22-.165a1.602 1.602 0 0 1-.154-.183.886.886 0 0 1-.106-.302.408.408 0 0 1-.139.022h-.237a1.2 1.2 0 0 0-.549.118.226.226 0 0 1-.083.037c-.063 0-.111-.13-.111-.287-.003-.34.11-.672.32-.94a1.628 1.628 0 0 1-.184-.17.315.315 0 0 0-.075-.068l-.107-.058c-.035-.02-.058-.042-.058-.062 0-.02.142-.182.309-.29.134-.1.296-.16.464-.172.157 0 .253.04.437.21.137.117.23.172.296.172a.182.182 0 0 0 .136-.087.248.248 0 0 0 .05-.143 1.028 1.028 0 0 0-.461-.647 1.058 1.058 0 0 0-.574-.18.648.648 0 0 0-.601.342l-.106.22c-.025.05-.056.078-.091.078-.035 0-.094-.028-.313-.278l-.253-.287a.748.748 0 0 1-.154-.25.566.566 0 0 0-.048-.125.544.544 0 0 0-.096-.078 1.246 1.246 0 0 1-.414-.79c0-.027-.015-.07-.028-.122-.228-.266-.36-.6-.376-.948 0-.044.006-.088.02-.13-.137-.138-.154-.17-.253-.532a1.336 1.336 0 0 0-.222-.5.162.162 0 0 1-.038-.075c0-.053.08-.095.222-.118a.92.92 0 0 1 .164.015l.192.013v-.25c0-.147.017-.293.051-.435.015-.065.024-.131.028-.198 0-.017 0-.072-.02-.162a.832.832 0 0 0-.028-.143.248.248 0 0 1-.02-.08c0-.03.02-.047.058-.047.044.005.087.02.126.042.146.07.285.153.414.25.331.25.594.653.594.898v.075c-.013.085-.02.132-.02.14.006.057.03.11.068.155l.106.142a.72.72 0 0 1 .136.35c0 .09-.017.128-.174.35a.72.72 0 0 0-.164.425c.013.214.08.42.194.603.114.197.253.305.37.305.214 0 .307-.188.34-.698.018-.265.043-.5.079-.722v-.13c0-.06-.018-.095-.096-.185l-.291-.333c-.275-.317-.359-.482-.359-.71a.41.41 0 0 1 .114-.314.419.419 0 0 1 .31-.128h.117v-.076a.99.99 0 0 1 .048-.25c.06-.205.136-.362.177-.362.034.01.066.025.093.048.057.025.115.047.174.064.067.026.132.058.192.095a.836.836 0 0 1 .155-.332c.123-.158.252-.285.315-.285s.086.04.157.115l.184.19c.045.054.08.115.106.18l.038.085.117-.065c.075-.045.126-.072.154-.085l.181-.085a.282.282 0 0 1 .099-.05c.033 0 .05.058.121.372.037.138.06.279.068.42a.482.482 0 0 1 .348.173.472.472 0 0 1 .105.37c-.029.37-.2.714-.48.96a.289.289 0 0 0-.111.23c0 .843.295 1.107 1.361 1.218a6.85 6.85 0 0 1 1.642.357c.26.091.53.149.806.172.182 0 .283-.064.283-.182 0-.177-.13-.232-.894-.392-1.781-.37-2.484-.973-2.484-2.138a1.407 1.407 0 0 1 .414-1.042 1.438 1.438 0 0 1 1.049-.418c.437.021.86.163 1.22.41.485.278.584.325.695.325.11 0 .18-.083.18-.287 0-.133.04-.198.123-.198.12.028.227.1.298.2a.684.684 0 0 1 .222.54.654.654 0 0 1-.548.67l-.086.095a.794.794 0 0 1-.69.29 1.613 1.613 0 0 1-.853-.275l-.462-.322a.856.856 0 0 0-.485-.2.29.29 0 0 0-.232.083.283.283 0 0 0-.082.229c.006.2.15.369.346.41l.435.133c.143.042.282.1.414.17.071-.013.143-.02.215-.02.283.003.561.071.813.2.056.03.114.056.175.077l.252.068c.578.203.969.74.98 1.347 0 .672-.442 1.09-1.154 1.09z"/><path id="445rae" d="M580.57 62.932l.058-.115.134-.142a.7.7 0 0 0 .174-.5 1.035 1.035 0 0 0-.05-.307.763.763 0 0 1-.041-.168c0-.06.045-.117.09-.117.03.005.057.022.074.047l.144.16c.054.078.138.13.233.142V61.642a1.102 1.102 0 0 0-.213-.642.432.432 0 0 1-.11-.19c0-.035.024-.068.052-.068.015.003.03.01.04.02.094.068.142.098.167.098.026 0 .089-.115.089-.25a.88.88 0 0 0-.197-.532c-.06-.073-.101-.12-.116-.143a.092.092 0 0 1-.02-.055c0-.02.01-.04.025-.053a.074.074 0 0 1 .058-.017.198.198 0 0 1 .118.048.15.15 0 0 0 .074.027c.075 0 .1-.105.1-.387v-.29c0-.203-.027-.238-.115-.238h-.076c-.47 0-.687-.295-.809-1.085-.085-.572-.303-.98-.568-1.067-.16-.053-.215-.085-.215-.128 0-.042.043-.052.091-.052a.65.65 0 0 1 .182.047c.312.137.647.214.988.228a.796.796 0 0 0 .569-.206.78.78 0 0 0 .254-.545 1.297 1.297 0 0 0-.424-.91.547.547 0 0 0-.253-.142h-.017l-.048.015.02.138.038.095v.04a.04.04 0 0 1-.015.028.04.04 0 0 1-.03.009.086.086 0 0 1-.071-.037l-.172-.25a.916.916 0 0 0-.642-.395c-.078 0-.129.035-.129.09a.214.214 0 0 0 .058.112.332.332 0 0 1 .089.153v.037c0 .023-.025.035-.038.038-.045 0-.068-.02-.278-.25a1.24 1.24 0 0 0-.73-.38.102.102 0 0 0-.07.03.062.062 0 0 0-.02.037c.008.042.032.08.067.105a.328.328 0 0 1 .106.145c0 .02-.025.035-.053.035-.027 0-.179-.08-.409-.25-.359-.277-.518-.542-.518-.847a.619.619 0 0 1 .164-.455.632.632 0 0 1 .443-.203 1.2 1.2 0 0 1 .644.23l.472.353c.218.163.484.251.758.25a.364.364 0 0 0 .167-.038c.043-.02.068-.045.068-.065 0-.02-.036-.027-.086-.04a1.095 1.095 0 0 1-.404-.17l-.48-.36a3.254 3.254 0 0 0-.377-.25c-.252-.132-.303-.162-.303-.192s.026-.028.056-.028a.217.217 0 0 1 .083.02l.253.105c.141.072.277.156.404.25.505.34.776.45 1.079.45a.48.48 0 0 0 .356-.13.47.47 0 0 0 .149-.345.37.37 0 0 0-.048-.187l-.048-.095c-.018-.035-.048-.06-.058-.048l-.028.038-.028.2a.399.399 0 0 1-.03.067.335.335 0 0 1-.06.088.218.218 0 0 1-.178.067c-.149 0-.315-.08-.757-.362a2.395 2.395 0 0 0-1.193-.438 1.255 1.255 0 0 0-.892.356c-.237.232-.37.549-.37.879 0 .953.588 1.383 2.432 1.783.702.15 1.01.355 1.01.662 0 .308-.23.46-.596.46-.084.001-.169-.006-.252-.02a43.281 43.281 0 0 1-.99-.267 5.043 5.043 0 0 0-1.284-.178c-.725 0-1.212.213-1.543.673-.038.055-.076.087-.101.087a.152.152 0 0 1-.081-.037l-.134-.105a.656.656 0 0 0-.346-.13.305.305 0 0 0-.205.082.253.253 0 0 1-.098.065c-.053 0-.154-.12-.228-.275a1.507 1.507 0 0 1-.164-.647c0-.095.03-.163.073-.163s.059.025.074.075l.075.275c.043.155.132.275.198.275.065 0 .08-.042.138-.115a.444.444 0 0 0 .079-.132c.06-.175.076-.2.121-.2s.086.035.124.207a.875.875 0 0 0 .18.333.14.14 0 0 0 .098.047c.083 0 .161-.14.161-.295v-.217c0-.068 0-.09.05-.09.051 0 .041 0 .069.047.045.055.1.1.164.133a.328.328 0 0 0 .137.047.15.15 0 0 0 .093-.047.11.11 0 0 0 .04-.075c0-.028-.035-.073-.136-.173a1.213 1.213 0 0 1-.192-.38c-.028-.075-.063-.125-.09-.125l-.064.02-.124.048-.086.037h-.032a.07.07 0 0 1-.074-.065.582.582 0 0 1 .195-.225.349.349 0 0 0 .124-.25c0-.16.035-.287.068-.287l.03-.333c.026-.222.075-.442.144-.655 0-.035.028-.058.038-.058.01 0 .05.073.05.15V53.866c0 .12.02.182.059.182.037 0 .088-.06.13-.165l.087-.217a.496.496 0 0 0 .038-.178.283.283 0 0 0-.064-.217.289.289 0 0 0-.204-.103h-.07l-.069.02a.11.11 0 0 1-.093-.12v-.327l-.038-.2v-.095l-.086.047-.106.085-.154.123-.127.105a.112.112 0 0 1-.07.03c-.074 0-.084-.02-.084-.168v-.037c0-.12-.053-.213-.252-.443l-.048-.057-.038.067-.106.17-.106.266-.02.17c0 .05-.026.087-.044.087-.017 0-.053-.025-.09-.068a.758.758 0 0 0-.415-.275l-.018.066c-.035.112-.055.18-.058.2v.317c0 .052-.02.083-.053.083l-.058-.048a.178.178 0 0 0-.116-.03c-.18 0-.293.095-.293.25 0 .115.04.2.217.465.079.118.17.213.205.213.035 0 .043-.063.043-.135l-.018-.115a.47.47 0 0 1-.028-.145c0-.053.015-.083.046-.083.086 0 .177.25.212.59l.038.353c.017.132.056.26.116.38a.97.97 0 0 0 .253.352c.093.065.149.128.149.163a.058.058 0 0 1-.05.057l-.195-.067h-.081c-.192 0-.253.11-.253.435.03.457.233.886.569 1.202l.442.353c.218.167.36.413.394.685 0 .277-.308.552-.836.75l-.319.112c-.252.09-.346.25-.442.705a.793.793 0 0 1 .253-.048h.184a.2.2 0 0 0 .152-.045.197.197 0 0 0 .07-.14v-.084c0-.026.036-.06.086-.086l.134-.067.106-.085a.089.089 0 0 1 .053-.023c.032.003.055.03.054.06a.248.248 0 0 1-.02.085.929.929 0 0 0-.051.328.794.794 0 0 0 .156.53.704.704 0 0 1 .028-.122 1.56 1.56 0 0 1 .164-.25c.133-.17.22-.37.253-.58v-.04l-.028-.218c0-.04.018-.078.048-.105a.104.104 0 0 1 .066-.028c.04 0 .066.025.098.095.033.07.05.085.069.085.017 0 .098-.087.141-.19a.528.528 0 0 0 .048-.202.332.332 0 0 0-.028-.122.332.332 0 0 1-.03-.108c0-.025 0-.038.04-.063a.084.084 0 0 1 .048-.02.11.11 0 0 1 .058.02l.086.058a.15.15 0 0 0 .079.03.207.207 0 0 0 .134-.105.81.81 0 0 0 .136-.27c0-.025-.015-.043-.068-.08a.684.684 0 0 1-.319-.5.396.396 0 0 1 .028-.138l.096-.25c.048-.13.076-.197.076-.2h.028c.033 0 .053.028.053.073a.32.32 0 0 1-.023.107.617.617 0 0 0-.04.18.092.092 0 0 0 .025.077c.02.02.047.031.076.028a.418.418 0 0 0 .161-.037c.207-.102.43-.167.66-.193a.534.534 0 0 1 .348.125c.026.02.056.034.089.038a.083.083 0 0 0 .055-.038.085.085 0 0 0 .02-.047.214.214 0 0 0-.058-.125.222.222 0 0 1-.068-.135c0-.014.005-.028.015-.037a.048.048 0 0 1 .038-.013c.152 0 .387.472.614 1.222.177.59.227.65.798.973.483.27.667.537.667.972a5.427 5.427 0 0 1-.369 1.693c-.143.303-.15.652-.017.96.035.122.058.195.068.22.022.05.047.097.076.142"/><path id="445raf" d="M578.325 61.602c.048-.115.109-.224.182-.324a.913.913 0 0 0 .213-.466v-.152c0-.143.025-.21.083-.21.021 0 .04.012.05.03l.048.075c.015.024.04.038.069.037a.18.18 0 0 0 .113-.087.663.663 0 0 0 .111-.34v-.213c0-.057.023-.082.079-.082.055 0 .053.015.086.085.032.07.048.077.073.077a.111.111 0 0 0 .08-.057l.077-.115.058-.085.015-.045c0-.025-.02-.05-.073-.088-.18-.127-.253-.322-.268-.675 0-.175-.017-.35-.048-.522 0-.018-.063-.155-.175-.408a2.581 2.581 0 0 1-.116-.342c-.022-.088-.05-.115-.118-.115a.482.482 0 0 0-.34.16.472.472 0 0 0-.12.352c.024.267.093.529.204.773.127.247.207.515.235.79 0 .35-.141.5-.629.675-.55.195-.808.477-.904.98l.096-.038a1.42 1.42 0 0 1 .134-.047l.154-.038a.35.35 0 0 0 .253-.18l.037-.132a.095.095 0 0 1 .059-.068l.085-.037.086-.038.018.038-.038.125a.826.826 0 0 0-.02.222.668.668 0 0 0 .164.483"/><path id="445rag" d="M573.168 52.79c.01.035.017.071.02.107-.007.085-.02.168-.038.25l-.017.193c0 .17.028.339.083.5.031.07.052.142.06.217v.04c0 .04-.022.068-.037.068a.213.213 0 0 1-.099-.06.541.541 0 0 0-.52-.122l.048.105.144.352.207.308.21.142a.229.229 0 0 1 .058.058c.016.017.026.039.03.062a.038.038 0 0 1-.038.033h-.192c-.03 0-.053.02-.053.04.018.096.046.19.084.282l.096.277.164.153.172.125c.04.023.07.062.08.107 0 .028-.017.053-.032.056h-.096c-.03 0-.048.03-.048.077.032.137.1.265.194.37.15.2.253.268.424.268h.144c.069 0 .112.032.112.087 0 .055-.028.07-.094.085-.134.028-.174.055-.174.115a.209.209 0 0 0 .048.105l.078.105c.063.087.137.145.182.145a.238.238 0 0 0 .141-.087.612.612 0 0 1 .311-.21c.334-.086.404-.118.404-.196a.248.248 0 0 0-.038-.11.874.874 0 0 1-.146-.46c0-.117-.03-.202-.076-.202-.045 0-.048.03-.078.077a.43.43 0 0 1-.336.2c-.334 0-.735-.514-.932-1.2a1.882 1.882 0 0 1-.076-.505c.002-.196.026-.391.07-.582l.107-.468v-.13c0-.235-.22-.54-.561-.775"/><path id="445rah" d="M573.911 54.11a1.328 1.328 0 0 0-.181.62c0 .11.047.2.11.2.064 0 .048-.018.071-.048l.141-.19c.024-.032.047-.064.09-.117a.313.313 0 0 0 .088-.14c-.03-.143-.157-.265-.336-.323"/><path id="445rai" d="M574.92 58.407l.048.048.078.075c.187.193.215.21.306.21a1.06 1.06 0 0 0 .359-.098c.04-.02.068-.047.068-.064 0-.018-.035-.053-.096-.105l-.106-.095a.547.547 0 0 0-.253-.138.726.726 0 0 0-.399.168"/><path id="445raj" d="M577.153 60.161a.919.919 0 0 1 .192.108c.085.062.136.1.154.108.049.017.1.025.151.022.04 0 .08-.007.116-.022l.202-.085.192-.077c.05-.02.086-.054.086-.082 0-.029-.043-.04-.106-.057a1.109 1.109 0 0 1-.144-.054c-.237-.108-.27-.122-.356-.122a.618.618 0 0 0-.49.264"/><path id="445rak" d="M579.593 62.045c.063-.152.109-.18.326-.19.217-.01.482-.45.482-.75 0-.03 0-.055-.022-.055a.157.157 0 0 0-.066.033c-.046.03-.094.06-.144.085l-.278.122c-.2.103-.333.3-.351.523.004.079.022.157.053.23"/><path id="445ral" d="M575.435 53.775l.096.133c.062.06.132.11.21.15.027 0 .045-.02.06-.083l.038-.143v-.157c0-.125-.056-.172-.319-.25-.065-.018-.09-.015-.133-.048a.269.269 0 0 0-.117-.057c-.022 0-.04 0-.04.025v.043l.048.142z"/><path id="445ram" d="M576.458 53.768l-.126.22-.048.052c-.05 0-.104-.115-.106-.235l-.018-.19c.015-.077.06-.112.182-.132a.563.563 0 0 0 .192-.058l.154-.105h.015c.013 0 .025.004.034.013.009.01.013.022.012.035v.012l-.069.163z"/><path id="445ran" d="M576.215 54.423l.154-.075a.173.173 0 0 1 .074-.02c.076 0 .131.055.131.155a1.244 1.244 0 0 1-.205.465c-.126.227-.222.382-.32.382-.14 0-.334-.217-.526-.582a.615.615 0 0 1-.073-.265c0-.12.053-.183.157-.183.039-.001.078.01.11.03l.087.058c.074.049.162.075.252.075a.382.382 0 0 0 .17-.038"/><path id="445rao" d="M576.036 54.65l-.128-.018h-.018c-.073 0-.11.036-.11.103a.82.82 0 0 0 .21.412.12.12 0 0 0 .089.04c.076 0 .128-.117.167-.307l.034-.142v-.028c0-.06-.021-.08-.08-.08h-.027"/><path id="445rap" d="M597.47 57.133a.837.837 0 0 0 .596.367c.085-.005.17-.018.252-.04a.53.53 0 0 1 .13-.02c.047 0 .065.018.065.06a.642.642 0 0 1-.05.177.899.899 0 0 0-.059.17l-.038.2-.096.17-.133.126-.038.04v.117a.51.51 0 0 1-.253.5l-.068.048-.02.077a2.287 2.287 0 0 1-.096.333 1.948 1.948 0 0 1-.182.267c-.102.118-.187.25-.253.39-.04.095-.07.123-.134.123-.063 0-.19-.118-.204-.25a.416.416 0 0 1-.048.057l-.114.075-.184.123a1.49 1.49 0 0 0-.154.115l-.107.105a.084.084 0 0 1-.055.027c-.048 0-.099-.082-.147-.25l-.096-.312c-.027-.1-.04-.204-.038-.308a.657.657 0 0 1 .069-.34 1.203 1.203 0 0 0-.346.068.332.332 0 0 1-.084.017c-.033 0-.05-.022-.05-.057a.585.585 0 0 1 .038-.14l.126-.323a.813.813 0 0 1 .66-.48c.086.004.17.02.252.05a.51.51 0 0 0 .146.03.19.19 0 0 0 .2-.182c0-.053-.03-.101-.078-.125-.016 0-.132-.043-.346-.105a.792.792 0 0 1-.425-.315c-.131-.15-.184-.193-.232-.193-.048 0-.056.025-.056.068v.187a1.737 1.737 0 0 1-.273.865l-.27.485c-.11.174-.173.374-.182.58 0 .193.084.363.192.39l.144.038a.104.104 0 0 1 .048.03.09.09 0 0 1 .03.055.17.17 0 0 1-.048.087c-.017.018-.075.093-.174.218a.82.82 0 0 1-.47.352.93.93 0 0 1-.644.553l-.038.065a.78.78 0 0 1-.53.382h-.038a.75.75 0 0 1-.336.485c-.076.05-.15.103-.22.16a.38.38 0 0 0-.048.085c-.043.095-.083.135-.136.135-.104 0-.187-.095-.253-.277l-.086.057a2.05 2.05 0 0 1-.182.123c-.109.04-.221.072-.336.095a.903.903 0 0 0-.49.25l-.085.142-.04.018c-.049 0-.102-.065-.125-.15a2.316 2.316 0 0 1-.086-.535c0-.338.114-.558.463-.903v-.082c0-.525.404-.883 1.01-.883h.111l.326.02h.03a.8.8 0 0 0 .506-.21c.235-.19.303-.307.303-.52a1.465 1.465 0 0 0-.094-.382c-.207-.611.051-1.282.617-1.6.1-.07.176-.163.176-.215 0-.053 0-.04-.027-.04a.253.253 0 0 0-.122.075c-.07.056-.147.104-.23.142l-.154.075-.174.068c-.053.02-.08.05-.08.085.002.03.01.06.022.087.01.022.017.046.02.07a.269.269 0 0 1-.048.11l-.134.22a.812.812 0 0 1-.394.38c-.108.313-.252.473-.49.5-.182.363-.34.5-.664.523-.061.165-.16.315-.288.437a.941.941 0 0 0-.124.153c-.076.132-.08.142-.116.142a.478.478 0 0 1-.22-.142.568.568 0 0 1-.086-.115l-.086-.153c-.027-.05-.058-.072-.093-.072h-.06l-.213.03a.673.673 0 0 0-.376.232l-.116.173a.058.058 0 0 1-.046.027c-.086 0-.139-.187-.139-.5a.97.97 0 0 1 .137-.585l.27-.37a.263.263 0 0 0 .058-.145.191.191 0 0 0-.048-.122.313.313 0 0 0-.154-.115l-.202-.028c-.036 0-.05-.015-.05-.03a.117.117 0 0 1 .03-.065.92.92 0 0 1 .252-.21c.162-.118.355-.187.556-.2.18.005.356.061.505.163l.278.18c.04.025.086.039.134.04.129 0 .227-.075.316-.25a.908.908 0 0 0 .126-.44.59.59 0 0 0-.18-.456.602.602 0 0 0-.464-.167.823.823 0 0 0-.505.19.314.314 0 0 0-.096.105l-.076.173c-.018.04-.046.065-.068.065-.023 0-.157-.138-.253-.315a2.05 2.05 0 0 1-.134-.343 1.543 1.543 0 0 1-.08-.475l.014-.25a.95.95 0 0 1-.174-.59c.005-.115.028-.228.068-.335a.7.7 0 0 1-.106-.425v-.12l.028-.132.02-.115c-.093-.12-.118-.2-.212-.618a1.268 1.268 0 0 0-.124-.4.137.137 0 0 1-.03-.057c0-.055.134-.105.288-.105h.136a.439.439 0 0 1-.04-.193c.002-.13.026-.258.07-.38a.716.716 0 0 0 .061-.232.902.902 0 0 0-.043-.29l-.075-.19a.27.27 0 0 1-.026-.098c0-.02.013-.025.048-.025.318.07.608.233.831.468.26.211.4.535.374.867l-.015.208c.213.14.35.368.376.62a.498.498 0 0 1-.194.39.819.819 0 0 0-.318.717c0 .5.151.778.434.778.283 0 .44-.265.47-.658l.028-.362c0-.095.023-.208.048-.343.016-.083.026-.166.03-.25 0-.127-.086-.29-.336-.58s-.361-.48-.361-.725a.475.475 0 0 1 .133-.352.485.485 0 0 1 .35-.148c.066 0 .13.017.186.053a.906.906 0 0 1 .13-.428c.075-.182.153-.312.191-.312.038 0 .033.012.058.037a.926.926 0 0 0 .127.105l.096.068c.03.026.059.054.085.085a.916.916 0 0 1 .299-.483c.133-.13.184-.17.21-.17a.104.104 0 0 1 .067.048l.117.152.164.183c.068.08.109.181.116.287l.096-.057.154-.085a1.1 1.1 0 0 0 .116-.078.134.134 0 0 1 .06-.03c.016 0 .036.028.046.068l.058.217.127.25a.47.47 0 0 1 .048.25v.06h.065c.19 0 .354.223.354.478-.048.41-.279.776-.629 1a.758.758 0 0 0-.04.25c0 .75.202.915 1.376 1.09.266.037.53.092.789.162l.757.25c.183.07.376.113.571.125.144 0 .223-.04.223-.115 0-.13-.192-.25-.784-.475l-.836-.322c-.851-.33-1.263-.843-1.263-1.6a1.492 1.492 0 0 1 .444-1.104c.294-.292.698-.45 1.115-.439.391.014.776.099 1.137.25.606.22.639.228.704.228.117 0 .182-.08.2-.25.018-.17.053-.2.134-.2.119 0 .252.107.338.287.08.155.122.326.124.5a.546.546 0 0 1-.47.58.938.938 0 0 1-.775.395c-.384 0-.574-.075-1.228-.48a.829.829 0 0 0-.505-.18.364.364 0 0 0-.271.082.356.356 0 0 0-.128.25c0 .176.141.29.462.373.122.013.235.07.318.16a.63.63 0 0 1 .16-.022c.381.029.742.185 1.022.442.594.183 1.12.815 1.12 1.345a1.138 1.138 0 0 1-1.082 1.095c-.25-.015-.5-.054-.742-.117"/><path id="445raq" d="M597.124 59.765l.038-.105.038-.135a.805.805 0 0 1 .106-.16.757.757 0 0 0 .146-.472.392.392 0 0 0-.05-.185.22.22 0 0 1-.03-.088.077.077 0 0 1 .02-.045.06.06 0 0 1 .037-.027c.04.01.075.034.099.067.04.05.076.078.098.078.023 0 .089-.073.114-.18.013-.058.02-.09.02-.095a.898.898 0 0 0-.086-.268.233.233 0 0 1-.027-.097.057.057 0 0 1 .013-.043.058.058 0 0 1 .04-.02c.05.013.095.04.129.08.019.02.045.034.073.038.06 0 .103-.06.149-.21a.854.854 0 0 0 .038-.15c0-.028 0-.045-.036-.045h-.134a.822.822 0 0 1-.54-.25l-.27-.323c-.09-.1-.175-.205-.253-.315l-.222-.142a.108.108 0 0 1-.058-.078c0-.035.035-.06.09-.06.175.039.345.097.506.175.31.123.64.194.975.21a.832.832 0 0 0 .838-.815c-.024-.3-.16-.58-.38-.785a.346.346 0 0 0-.178-.117.053.053 0 0 0-.04.017.052.052 0 0 0-.013.04.298.298 0 0 0 .03.108.248.248 0 0 1 .018.087c0 .043-.015.068-.045.068s-.124-.098-.175-.27c-.063-.213-.19-.34-.482-.485a1.045 1.045 0 0 0-.303-.108c-.018 0-.033.018-.033.043.002.04.015.079.038.112a.467.467 0 0 1 .078.183c0 .037-.02.057-.053.057s-.076-.015-.217-.23a1.11 1.11 0 0 0-.432-.322.494.494 0 0 0-.164-.038c-.036 0-.06.018-.06.038a.4.4 0 0 0 .042.087l.015.053a.047.047 0 0 1-.011.035.048.048 0 0 1-.034.017 1.033 1.033 0 0 1-.377-.305.945.945 0 0 1-.252-.57.755.755 0 0 1 .745-.687.56.56 0 0 1 .253.047l.335.17.395.25c.217.141.466.227.725.25.103-.005.205-.025.303-.06.093-.025.154-.062.154-.097l-.033-.02-.212-.018a1.846 1.846 0 0 1-.596-.267l-.442-.285-.395-.163c-.03 0-.048-.03-.048-.05a.043.043 0 0 1 .046-.035l.109.02.366.105c.153.053.301.12.442.2.258.164.55.268.854.305.1.006.197-.028.27-.095a.358.358 0 0 0 .116-.26 1.319 1.319 0 0 0-.038-.272.376.376 0 0 0-.058-.125c-.017-.025-.035-.038-.048-.038-.012 0-.043.028-.043.078v.12c0 .175-.068.25-.252.25-.3-.035-.592-.12-.864-.25a2.774 2.774 0 0 0-1.03-.25 1.343 1.343 0 0 0-1.36 1.25c0 .575.387 1.017 1.177 1.337l.816.333c.677.275.925.472.925.732 0 .218-.205.358-.523.358a2.187 2.187 0 0 1-.624-.138 5.712 5.712 0 0 0-1.7-.342 2.083 2.083 0 0 0-1.627.617c-.053.055-.086.073-.131.073a.285.285 0 0 1-.137-.055.468.468 0 0 0-.212-.068.355.355 0 0 0-.23.125l-.096.123a.126.126 0 0 1-.086.057c-.07 0-.192-.117-.27-.25a.887.887 0 0 1-.116-.5v-.177l.03-.19c.015-.093.025-.145.03-.163a.05.05 0 0 1 .046-.037c.05 0 .07.045.07.15v.102c0 .27.11.52.228.52.119 0 .177-.167.253-.5.015-.065.04-.105.073-.105.033 0 .06.048.09.19.027.11.076.214.145.305.023.04.063.068.108.078.079 0 .13-.118.17-.39.015-.108.048-.173.086-.173a.05.05 0 0 1 .04.02s.03.043.068.105a.252.252 0 0 0 .106.095c.034.02.072.033.111.038a.14.14 0 0 0 .091-.038c.043-.037.069-.067.069-.077a.192.192 0 0 0-.059-.085.925.925 0 0 1-.171-.315l-.086-.218a.135.135 0 0 0-.048-.067h-.086l-.202.057h-.063a.043.043 0 0 1-.033-.012.042.042 0 0 1-.013-.033.193.193 0 0 1 .079-.107c.273-.255.433-.608.442-.98a.993.993 0 0 1 .164-.54c.025-.035.048-.058.06-.058.013 0 .058.028.058.085a.387.387 0 0 1-.03.135.332.332 0 0 0-.02.115v.038l.02.057.106-.037.114-.133a.698.698 0 0 0 .126-.39.308.308 0 0 0-.078-.22c-.06-.072-.104-.1-.147-.1h-.133c-.064 0-.094-.017-.094-.055l.018-.072v-.105l-.058-.25-.048-.115-.03-.095-.069.047-.144.085a.48.48 0 0 0-.116.105c-.136.165-.144.173-.2.173-.055 0-.055 0-.055-.035v-.04a.973.973 0 0 0 .028-.198.901.901 0 0 0-.268-.555.854.854 0 0 0-.29.618v.115c0 .042-.016.065-.044.065a.114.114 0 0 1-.068-.048l-.116-.152a1.54 1.54 0 0 0-.154-.125l-.076-.065-.038.075a.992.992 0 0 0-.134.457c0 .128-.015.165-.045.165a.135.135 0 0 1-.06-.022c-.147-.08-.16-.085-.223-.085a.287.287 0 0 0-.213.087.28.28 0 0 0-.078.215.745.745 0 0 0 .114.318c.089.155.22.297.278.297.018 0 .02 0 .02-.057v-.183l-.02-.125v-.015c0-.037.015-.052.043-.052.088 0 .163.25.227.75.013.34.145.667.374.922.05.045.078.083.078.103a.035.035 0 0 1-.037.03.303.303 0 0 1-.127-.048.211.211 0 0 0-.103-.03.271.271 0 0 0-.223.23l-.085.543-.069.75c-.008.191.012.383.058.57.037.147.06.298.069.45a1.228 1.228 0 0 1-.953 1.195l-.616.18c-.384.112-.573.362-.624.827a.447.447 0 0 1 .28-.112l.182-.028a.51.51 0 0 0 .164-.047.754.754 0 0 0 .107-.105l.164-.18c.06-.07.116-.108.151-.108.036 0 .04.025.04.055a.346.346 0 0 1-.067.158.452.452 0 0 0-.071.25c.006.138.061.27.156.372a.638.638 0 0 1 .038-.115c.044-.07.092-.136.144-.2.11-.123.189-.27.23-.43 0-.147.015-.195.053-.195s.038 0 .053.09a.12.12 0 0 0 .028.058.101.101 0 0 0 .058.037.21.21 0 0 0 .076-.037.687.687 0 0 0 .154-.133.788.788 0 0 0 .144-.352v-.123c0-.032.013-.06.033-.06.02 0 .07.05.103.105.033.055.036.048.061.048a.145.145 0 0 0 .086-.038.568.568 0 0 0 .194-.357v-.175l-.037-.145a.053.053 0 0 1 .045-.055c.043 0 .091.06.157.2.03.065.058.097.088.097.03 0 .08-.035.172-.162l.086-.123a.166.166 0 0 0 .027-.095.169.169 0 0 0-.027-.095l-.079-.115a.186.186 0 0 1-.02-.095.928.928 0 0 1 .144-.447 2.24 2.24 0 0 0 .124-.25c.015-.04.033-.058.053-.058.02 0 .033.023.033.048v.257c.012.035.035.048.083.048a.329.329 0 0 0 .101-.02l.253-.085a1.65 1.65 0 0 0 .222-.105c.377-.208.505-.25.68-.25.16.013.315.059.457.135.03.016.064.026.098.03a.116.116 0 0 0 .084-.048.114.114 0 0 0 .028-.072.248.248 0 0 0-.038-.118.447.447 0 0 1-.058-.142.04.04 0 0 1 .012-.032.04.04 0 0 1 .033-.011c.03.005.057.024.073.05.029.045.102.172.22.38.122.265.343.472.616.58l.422.095c.132.03.164.08.164.25a.825.825 0 0 1-.384.71l-.346.22a.628.628 0 0 0-.23.48c.007.168.03.336.069.5l.068-.065.164-.095.144-.142.076-.21.076-.19c.038-.093.08-.153.11-.153.031 0 .054.053.054.145v.063a.72.72 0 0 0 .126.402"/><path id="445rar" d="M591.42 62.485c0-.453.167-.65.829-.983 1.306-.655 2.02-1.25 2.02-1.715a2.05 2.05 0 0 0-.116-.512 1.645 1.645 0 0 1-.083-.413c.04-.283.182-.541.401-.727l.182-.163a.499.499 0 0 0 .175-.3v-.1c0-.095.038-.13.136-.132h.086l.073-.02c.034.001.064.02.081.047l.048.078.068.075c.014.02.036.035.06.04a.214.214 0 0 0 .074-.028.24.24 0 0 1 .116-.035c.05 0 .076.028.076.083-.04.278-.16.538-.346.75-.369.5-.49.75-.49 1.077-.005.233.07.46.212.645.018.02.031.044.038.07a.25.25 0 0 1-.068.12.894.894 0 0 0-.058.078c-.076.11-.13.152-.18.152a.106.106 0 0 1-.09-.077l-.038-.105a.065.065 0 0 0-.053-.05s-.023.015-.043.04a.169.169 0 0 0-.038.105v.163a.323.323 0 0 1-.069.19.8.8 0 0 1-.133.142.182.182 0 0 1-.076.048c-.028 0-.056-.03-.068-.078l-.058-.19c0-.028-.028-.048-.048-.048s-.059.053-.069.133a.68.68 0 0 1-.113.4l-.134.122a.233.233 0 0 1-.121.07.066.066 0 0 1-.061-.032l-.068-.142a.048.048 0 0 0-.043-.03c-.038 0-.068.075-.081.22a.73.73 0 0 1-.298.627.53.53 0 0 0-.253.268.606.606 0 0 1-.116-.38.342.342 0 0 1 .04-.18.4.4 0 0 0 .064-.158.037.037 0 0 0-.009-.029.038.038 0 0 0-.027-.014s-.025.013-.048.038a.505.505 0 0 1-.124.095.37.37 0 0 0-.252.323.488.488 0 0 1-.442.427c-.326.065-.346.075-.462.182z"/><path id="445ras" d="M590.804 52.667v.238a.597.597 0 0 1-.02.155.762.762 0 0 0 .096.675.705.705 0 0 1 .099.32c0 .037-.015.06-.043.06a.06.06 0 0 1-.048-.028l-.076-.105c-.06-.082-.119-.104-.275-.104h-.167c.048.107.087.218.116.332.079.31.089.333.253.485.164.153.187.173.187.228a.073.073 0 0 1-.066.077h-.101c-.053 0-.101.095-.101.203a.677.677 0 0 0 .06.25c.016.041.038.08.066.115l.096.095a.134.134 0 0 1 .038.097c0 .048-.028.085-.058.085a.224.224 0 0 1-.086-.03.158.158 0 0 0-.068-.02c-.043 0-.063.025-.063.077l.015.143.058.25c.02.068.056.131.106.182.04.048.089.087.144.115l.192.086c.02.019.03.047.028.074a.065.065 0 0 1-.018.047.066.066 0 0 1-.045.021l-.089-.04h-.098c-.099 0-.104 0-.104.08 0 .05.008.1.02.147l.038.153c.04.16.094.25.152.25a.172.172 0 0 0 .07-.037c.177-.119.382-.188.594-.2.157-.003.313.013.465.047.03.011.06.019.091.022.023 0 .03-.022.033-.107l.02-.172.038-.296.028-.22v-.125l-.079.068a.566.566 0 0 1-.434.2c-.442 0-.697-.5-.697-1.35.012-.48.063-.958.151-1.43.018-.092.028-.186.03-.28a1.04 1.04 0 0 0-.55-.84"/><path id="445rat" d="M591.46 54.795l.143-.085.143-.077c.13-.079.206-.183.214-.293a.21.21 0 0 0-.055-.135c-.054-.072-.163-.135-.227-.135-.063 0-.105.078-.126.203l-.033.142-.046.143v.142z"/><path id="445rau" d="M590.61 58.699c.099.036.119.054.22.174.082.133.23.208.384.196a.482.482 0 0 0 .136-.018l.124-.039.096-.03c.045 0 .078-.034.078-.05 0-.015-.076-.084-.192-.164a1.851 1.851 0 0 0-.23-.136.499.499 0 0 0-.22-.062.696.696 0 0 0-.396.129"/><path id="445rav" d="M591.91 61.372a.63.63 0 0 1 .677-.56c.187 0 .296.037.296.1 0 .062-.081.115-.253.207l-.28.153a4.166 4.166 0 0 1-.425.21z"/><path id="445raw" d="M595.82 59.07c.137-.028.182-.063.253-.066h.174a.56.56 0 0 0 .116-.078l.134-.096c.192-.131.202-.139.202-.182 0-.043-.078-.078-.252-.078-.304 0-.488.141-.637.49"/><path id="445rax" d="M592.918 53.27l.134.085c.06.04.125.076.192.105.149.06.202.083.202.138a.396.396 0 0 1-.02.107.585.585 0 0 0-.028.133c-.013.13-.093.162-.144.162-.05 0-.134-.1-.24-.285a2.197 2.197 0 0 1-.154-.38v-.037c0-.023.015-.038.04-.038"/><path id="445ray" d="M594.21 53.605l-.22.22a.816.816 0 0 0-.095.21.13.13 0 0 1-.068.028h-.016a.1.1 0 0 1-.07-.027.097.097 0 0 1-.03-.069v-.325a.098.098 0 0 1 .085-.105l.205-.054.21-.105a.333.333 0 0 1 .09-.038.053.053 0 0 1 .046.055.149.149 0 0 1-.02.06z"/><path id="445raz" d="M593.24 54.247l.144.105c.04.022.084.033.129.033a.599.599 0 0 0 .227-.06l.126-.058a.19.19 0 0 1 .076-.02c.078 0 .14.08.14.183a.996.996 0 0 1-.254.5l-.106.22c-.083.12-.139.162-.207.162-.113 0-.169-.065-.34-.4a1.197 1.197 0 0 1-.175-.5c0-.1.053-.17.129-.17a.183.183 0 0 1 .111.018"/><path id="445raA" d="M593.37 54.773v.182c.003.08.082.147.19.163.12 0 .207-.133.255-.336a.825.825 0 0 0 .055-.132c0-.07-.031-.09-.155-.09h-.22c-.084 0-.115.047-.115.167"/><path id="445raB" d="M582.54 50.463h.94v1.91h1.106v-1.89h2.794v1.892h1.106v-1.892h.943v-4.935h-1.079l-.038-.048a.6.6 0 0 0-.52-.29.57.57 0 0 0-.506.348h-.778a.566.566 0 0 0-.52-.348.579.579 0 0 0-.546.348h-.833a.561.561 0 0 0-.533-.345.525.525 0 0 0-.505.345h-1.01z"/><path id="445raC" d="M582.94 50.1v-4.15h6.12v4.15z"/><path id="445raD" d="M583.58 46.9c-.16 0-.29.129-.29.287 0 .16.13.288.29.288.16 0 .291-.129.291-.287a.289.289 0 0 0-.29-.288"/><path id="445raE" d="M583.576 46.94a.249.249 0 0 0-.248.25c0 .138.111.25.248.25a.249.249 0 0 0 .248-.25.251.251 0 0 0-.072-.178.247.247 0 0 0-.176-.075zm.005.575a.33.33 0 0 1-.331-.328.33.33 0 0 1 .33-.327.33.33 0 0 1 .332.328.33.33 0 0 1-.331.327z"/><path id="445raF" d="M588.38 46.9c-.16 0-.29.129-.29.287 0 .16.13.288.29.288a.286.286 0 1 0 .205-.49.292.292 0 0 0-.205-.085"/><path id="445raG" d="M588.376 46.94a.249.249 0 0 0-.248.25c0 .138.111.25.248.25a.249.249 0 0 0 .248-.25.251.251 0 0 0-.072-.178.247.247 0 0 0-.176-.075zm.005.575a.33.33 0 0 1-.331-.328.33.33 0 0 1 .33-.327.33.33 0 0 1 .332.328.33.33 0 0 1-.331.327z"/><path id="445raH" d="M583.58 49.16c-.077 0-.15.03-.205.084a.286.286 0 0 0-.085.203.291.291 0 0 0 .09.206.297.297 0 0 0 .21.082.287.287 0 0 0 .201-.086.28.28 0 0 0 .08-.202c0-.076-.03-.149-.085-.203a.292.292 0 0 0-.206-.084"/><path id="445raI" d="M583.586 49.2a.249.249 0 0 0-.248.25c0 .138.111.25.248.25a.251.251 0 1 0 .172-.43.246.246 0 0 0-.182-.07zm.005.575a.338.338 0 0 1-.239-.094.33.33 0 0 1-.102-.233.33.33 0 0 1 .33-.328.33.33 0 0 1 .24.557.327.327 0 0 1-.229.098z"/><path id="445raJ" d="M588.38 49.16c-.16 0-.29.129-.29.287 0 .16.13.288.29.288a.286.286 0 1 0 .205-.49.292.292 0 0 0-.205-.085"/><path id="445raK" d="M588.376 49.2a.249.249 0 0 0-.248.25c0 .138.111.25.248.25a.249.249 0 0 0 .248-.25c0-.138-.111-.25-.248-.25zm.005.575a.33.33 0 0 1-.331-.328.33.33 0 0 1 .33-.327.33.33 0 0 1 .332.328.33.33 0 0 1-.331.327z"/><path id="445raL" d="M584.49 48.283c.356.471.92.743 1.516.73.568 0 .962-.203 1.422-.73a1.946 1.946 0 0 0-1.465-.663c-.563 0-1.097.242-1.465.663"/><path id="445raM" d="M584.78 48.282c.325-.282.742-.44 1.175-.442.431.001.847.163 1.164.452a1.493 1.493 0 0 1-1.172.5 1.635 1.635 0 0 1-1.167-.5"/><path id="445raN" d="M585.27 48.24a.997.997 0 0 0 .662.28c.251.006.498-.092.705-.28a1.304 1.304 0 0 0-.695-.22 1.142 1.142 0 0 0-.672.22"/><path id="445raO" d="M582.85 46.6v-.43h6.29v.43z"/><path id="445raP" d="M582.873 46.57h6.257v-.37h-6.257zm6.282.055h-6.315v-.475h6.315z"/><path id="445raQ" d="M583.815 45.895v.608c0 .138.113.25.253.25.07.009.141-.014.193-.063a.231.231 0 0 0 .072-.187v-.598c0-.225-.093-.365-.253-.365a.38.38 0 0 0-.184.068.235.235 0 0 0-.058.077.328.328 0 0 0-.038.105"/><path id="445raR" d="M585.708 46.387v.118c0 .138.113.25.252.25.07.01.142-.014.193-.062a.231.231 0 0 0 .073-.188v-.598c0-.225-.094-.367-.253-.367-.16 0-.283.14-.283.357"/><path id="445raS" d="M587.545 45.895v.608c0 .138.113.25.253.25.07.009.141-.014.193-.063a.231.231 0 0 0 .072-.187v-.598c0-.225-.093-.365-.253-.365a.323.323 0 0 0-.116.03.35.35 0 0 0-.068.038.25.25 0 0 0-.058.077.325.325 0 0 0-.038.105"/><path id="445raT" d="M583.68 51.64v-.73h.57v.73z"/><path id="445raU" d="M583.68 52.27v-.46h.57v.46z"/><path id="445raV" d="M587.58 51.64v-.73h.57v.73z"/><path id="445raW" d="M587.58 52.27v-.46h.57v.46z"/><path id="445raX" d="M700.408 41.716l.932-2.498c.35-.976.544-1.533.66-1.973h.039c.116.422.291 1 .64 1.956l.894 2.498zm2.505-7.646h-1.862l-4.941 12.695h2.422l1.2-3.165h4.547l1.24 3.165h2.527z"/><path id="445raY" d="M725.686 41.25c.018-1.093.64-2.053 1.784-2.053 1.22 0 1.743 1.015 1.768 2.053zm1.822-3.788c-2.617 0-4.128 2.053-4.128 4.775 0 2.455 1.357 4.718 4.69 4.718a6.188 6.188 0 0 0 3.237-.845l-.697-1.573a4.62 4.62 0 0 1-2.307.613c-1.53 0-2.538-.9-2.596-2.3h5.873v-.537c0-3-1.49-4.853-4.07-4.853z"/><path id="445raZ" d="M765.686 41.25c.018-1.093.64-2.053 1.784-2.053 1.22 0 1.743 1.015 1.768 2.053zm1.822-3.788c-2.617 0-4.128 2.053-4.128 4.775 0 2.455 1.357 4.718 4.69 4.718a6.188 6.188 0 0 0 3.244-.845l-.697-1.573a4.62 4.62 0 0 1-2.306.613c-1.544 0-2.554-.9-2.607-2.3h5.863v-.537c0-3-1.493-4.853-4.07-4.853z"/><path id="445rba" d="M785.973 34.91l-2.306.672v2.11h-1.647v1.783h1.647v5.045c0 1.515.99 2.435 2.617 2.435a5.294 5.294 0 0 0 2.68-.705l-.697-1.573a2.613 2.613 0 0 1-1.394.44c-.602 0-.892-.307-.892-1.152v-4.49h.856c1.036 0 1.331-.538 1.473-.798l.455-.897.017-.035-.017-.035h-2.688v-.018h-.104z"/><path id="445rbb" d="M719.28 37.46c-2.15 0-3.47 1.13-3.47 2.75 0 3.03 4.295 2.455 4.295 4 0 .69-.677.96-1.609.96a4.723 4.723 0 0 1-2.498-.75l-.104.25-.404 1.518a6.684 6.684 0 0 0 3.165.767c1.978 0 3.721-.825 3.721-2.82 0-3.165-4.294-2.607-4.294-4.045 0-.595.523-.825 1.298-.825a6.269 6.269 0 0 1 2.168.41l.429-1.627V37.9a8.08 8.08 0 0 0-2.698-.44"/><path id="445rbc" d="M736.148 37.46c-2.152 0-3.469 1.13-3.469 2.75 0 3.03 4.295 2.455 4.295 4 0 .69-.68.96-1.61.96a4.71 4.71 0 0 1-2.407-.693l-.467 1.773c.941.465 1.98.704 3.031.698 1.978 0 3.721-.826 3.721-2.82 0-3.166-4.294-2.608-4.294-4.046 0-.595.523-.825 1.298-.825a6.248 6.248 0 0 1 2.152.405l.443-1.662v-.09a8.091 8.091 0 0 0-2.693-.44"/><path id="445rbd" d="M743.803 37.46c-2.15 0-3.468 1.13-3.468 2.75 0 3.03 4.294 2.455 4.294 4 0 .69-.68.96-1.61.96a4.717 4.717 0 0 1-2.432-.708l-.467 1.788c.95.475 2 .718 3.064.71 1.978 0 3.721-.825 3.721-2.82 0-3.165-4.294-2.607-4.294-4.045 0-.595.523-.825 1.298-.825a6.246 6.246 0 0 1 2.14.402l.457-1.727v-.037a8.086 8.086 0 0 0-2.693-.44"/><path id="445rbe" d="M711.658 37.46c-2.15 0-3.468 1.13-3.468 2.75 0 3.03 4.294 2.455 4.294 4 0 .69-.677.96-1.609.96a4.726 4.726 0 0 1-2.498-.75l.882 2.313c.577.15 1.171.226 1.768.227 1.975 0 3.72-.825 3.72-2.82 0-3.165-4.294-2.607-4.294-4.045 0-.595.523-.825 1.299-.825a6.25 6.25 0 0 1 2.15.405l.447-1.69v-.077a8.086 8.086 0 0 0-2.693-.44"/><path id="445rbf" d="M748.145 37.3l-.045.022v9.44h2.306v-6.405c.68-.537 1.455-.902 2.19-.902 1.183 0 1.357.882 1.357 1.937v5.37h2.326v-6.06l-.02-.345c.66-.537 1.435-.902 2.17-.902 1.182 0 1.394.845 1.394 1.917v5.39h2.307V40.75c0-2.398-1.435-3.28-3.031-3.28-1.029 0-2.19.477-3.284 1.4-.445-.903-1.319-1.4-2.443-1.4s-2.17.537-3.082 1.25h-.086a1.76 1.76 0 0 0-.82-.803l-1.175-.58z"/><path id="445rbg" d="M772.895 37.3l-.045.022v9.44h2.306v-6.347c.68-.555 1.493-.96 2.249-.96 1.182 0 1.414.902 1.414 2.012v5.295h2.327V40.75c0-2.59-1.493-3.298-2.946-3.298-1.144 0-2.17.5-3.14 1.25h-.123a1.76 1.76 0 0 0-.821-.802l-1.175-.58z"/><path id="445rbh" d="M613.555 33.924c-4.11 0-6.745 2.915-6.745 6.577 0 3.703 2.273 6.368 6.454 6.368a8.266 8.266 0 0 0 3.946-.945 3.429 3.429 0 0 1-.538-1.873 6.077 6.077 0 0 1-3.138.88c-2.617 0-4.243-1.84-4.243-4.5 0-2.475 1.49-4.582 4.322-4.582 1.147 0 2.276.283 3.284.825v-2.138a8.62 8.62 0 0 0-3.352-.615"/><path id="445rbi" d="M646.1 44.863c-.362.002-.721-.05-1.066-.155v-5.241a3.361 3.361 0 0 1 1.394-.287c1.516 0 2.402 1.11 2.402 2.7 0 1.78-1.066 2.995-2.733 2.995zM645.034 33h-2.294v13.137c.937.443 1.966.66 3.003.633 3.12 0 5.485-1.84 5.485-5.025 0-2.877-1.958-4.47-4.4-4.47-.605 0-1.205.09-1.782.268z"/><path id="445rbj" d="M668.66 44.963c-1.665 0-2.806-1.014-2.806-2.776 0-1.856 1.181-2.93 2.776-2.93.372 0 .743.046 1.105.135v5.418a3.54 3.54 0 0 1-1.085.153zm3.416-11.863h-2.324v4.402a6.968 6.968 0 0 0-1.243-.125c-2.907 0-5.019 1.975-5.019 4.853 0 3 2.228 4.643 5.214 4.643a8.383 8.383 0 0 0 3.372-.673z"/><path id="445rbk" d="M684.709 41.178c.018-1.093.639-2.053 1.783-2.053 1.22 0 1.743 1.015 1.768 2.053zm1.821-3.798c-2.614 0-4.13 2.053-4.13 4.775 0 2.455 1.357 4.718 4.69 4.718a6.188 6.188 0 0 0 3.237-.845l-.697-1.573c-.7.403-1.496.615-2.307.615-1.53 0-2.538-.902-2.596-2.302h5.873v-.535c0-3-1.493-4.853-4.07-4.853z"/><path id="445rbl" d="M621.261 45.06c-.83 0-1.352-.46-1.352-1.25a1.093 1.093 0 0 1 .559-1.035 2.918 2.918 0 0 1 1.322-.28l1.183-.037V44.433a2.807 2.807 0 0 1-1.712.627m.401-7.69a7.258 7.258 0 0 0-3.536.903l.757 1.475a5.228 5.228 0 0 1 2.383-.633c1.066 0 1.768.46 1.768 1.515v.288l-1.571.057c-.816.004-1.62.18-2.36.52a2.588 2.588 0 0 0-1.55 2.473c0 1.75 1.298 2.895 3.03 2.895a3.792 3.792 0 0 0 2.635-1.055h.195a2 2 0 0 0 .634.5l1.207.597.046.025.045-.025v-5.35h-.015v-.887c0-2.188-1.22-3.298-3.683-3.298"/><path id="445rbm" d="M627.075 37.18l-.045.022v9.438h2.319v-6.405c.677-.537 1.452-.902 2.19-.902 1.182 0 1.357.882 1.357 1.937v5.37h2.326v-6.06l-.02-.345c.66-.538 1.435-.903 2.17-.903 1.182 0 1.394.845 1.394 1.918v5.39h2.306v-6.02c0-2.398-1.434-3.28-3.03-3.28-1.029 0-2.191.477-3.285 1.4-.444-.903-1.318-1.4-2.442-1.4-1.125 0-2.17.537-3.082 1.25h-.086a1.76 1.76 0 0 0-.821-.803l-1.175-.58z"/><path id="445rbn" d="M657.296 37.42a3.421 3.421 0 0 0-2.526 1.202l-.252-1.017h-1.958v9.07h2.306V40.27c.71-.863 1.412-1.117 1.993-1.117a2.315 2.315 0 0 1 1.417.525V37.59a2.968 2.968 0 0 0-.99-.17"/><path id="445rbo" d="M661.996 37.6h-2.332v9.078h2.332zm-1.161-4.215a1.39 1.39 0 0 0-1.01.39 1.36 1.36 0 0 0-.415.993c-.003.368.146.722.414.98.267.257.628.395 1 .382.768 0 1.39-.616 1.39-1.375 0-.76-.622-1.375-1.39-1.375z"/><path id="445rbp" d="M677.532 49.26c-1.53 0-2.498-.553-2.498-1.452 0-.593.446-.974.736-1.183 1.24.476 4.086.21 4.086 1.51 0 .67-.929 1.128-2.324 1.128zm-1.76-8.813c0-1.092.674-1.687 1.58-1.687 1.021 0 1.64.805 1.64 1.708 0 1.092-.694 1.667-1.62 1.667-1.022 0-1.6-.787-1.6-1.688zm6.547-3.417h-4.999c-2.498 0-3.741 1.67-3.741 3.337a3.164 3.164 0 0 0 1.53 2.82c-.757.518-1.103 1.17-1.103 1.708-.018.457.211.888.601 1.133-.95.402-1.647 1.19-1.647 2.187 0 1.573 1.569 2.665 4.261 2.665 3.178 0 4.845-1.343 4.845-3 0-3.395-6.027-1.88-6.027-3.5.011-.242.092-.475.233-.672.365.106.743.158 1.124.155 2.228 0 3.789-1.323 3.789-3.358a3.121 3.121 0 0 0-.647-1.925h.265v-.012c.471-.003.9-.27 1.107-.688l.396-.787.018-.03z"/><path id="445rbq" d="M607.38 52.83h6.434l-.523 1.452h-4.193v4h4.142v1.453h-4.152v4.25h4.8v1.452h-6.508z"/><path id="445rbr" d="M615.825 56.388h1.43l.212 1.11c.985-.803 2.02-1.338 3.168-1.338 1.45 0 2.778.843 2.778 3.213v6.06h-1.7v-5.5c0-1.28-.308-2.275-1.566-2.275-.927 0-1.816.535-2.627 1.222v6.558h-1.7z"/><path id="445rbs" d="M630.698 59.484c0 1.28-.826 1.967-1.92 1.977-1.222 0-1.94-.872-1.94-2 0-1.222.794-1.95 1.92-1.95 1.164 0 1.94.843 1.94 1.97zm.818 7.78c0 .802-.928 1.435-2.69 1.425-1.605 0-2.687-.613-2.687-1.645 0-.78.658-1.263 1.082-1.53 1.552.5 4.298.202 4.298 1.75zm-2.854 2.69c2.885 0 4.547-1.185 4.547-2.868 0-3.382-6.027-1.805-6.027-3.555.017-.348.17-.676.424-.917.374.12.766.178 1.16.172 2.144 0 3.612-1.317 3.612-3.287a3.196 3.196 0 0 0-.947-2.275c.244-.145.526-.218.81-.21.189 0 .377.02.561.057l.387-1.25a3.342 3.342 0 0 0-.56-.057 2.642 2.642 0 0 0-1.991.75c-.076.077-.117.077-.213.02a4.142 4.142 0 0 0-1.768-.345c-2.127 0-3.478 1.472-3.478 3.25a3.136 3.136 0 0 0 1.467 2.75c-.79.64-1.023 1.272-1.023 1.75-.01.462.233.894.637 1.127-1.102.498-1.68 1.338-1.68 2.275 0 1.625 1.584 2.62 4.082 2.613z"/><path id="445rbt" d="M634.49 51.89h1.688v11.28c0 .688.212.897.677.897.197-.01.392-.049.578-.114l.349 1.32c-.45.172-.928.263-1.41.267-1.263 0-1.892-.688-1.892-1.893z"/><path id="445rbu" d="M639.103 56.385h1.7v9.043h-1.7zm-.232-2.945c0-.602.493-1.09 1.101-1.09s1.102.488 1.102 1.09c.002.291-.115.571-.324.777a1.1 1.1 0 0 1-.788.313 1.067 1.067 0 0 1-.785-.31 1.044 1.044 0 0 1-.306-.78z"/><path id="445rbv" d="M642.81 63.56a4.582 4.582 0 0 0 2.357.687c1.023 0 1.854-.362 1.854-1.3 0-1.835-4.294-1.222-4.294-4.225 0-1.435 1.14-2.562 3.208-2.562.819.003 1.63.152 2.395.44v1.452a5.67 5.67 0 0 0-2.306-.515c-.852 0-1.604.25-1.604 1.11 0 1.835 4.294 1.185 4.294 4.283 0 1.855-1.584 2.695-3.478 2.695a5.657 5.657 0 0 1-2.956-.803z"/><path id="445rbw" d="M650.303 51.89h1.7v5.582c.906-.765 1.932-1.32 3.11-1.32 1.429 0 2.778.843 2.778 3.213v6.06h-1.7v-5.5c0-1.28-.329-2.275-1.584-2.275-.927 0-1.816.535-2.607 1.222v6.558h-1.7z"/></defs><g><g transform="translate(-571 -33)"><g><use fill="#fff" fill-opacity="0" stroke="#fd0" stroke-miterlimit="50" stroke-width=".29" xlink:href="#445ra"/></g><g><use fill="#fff" fill-opacity="0" stroke="#fd0" stroke-miterlimit="50" stroke-width=".29" xlink:href="#445rb"/></g><g><use fill="#fff" fill-opacity="0" stroke="#171614" stroke-miterlimit="50" stroke-width=".29" xlink:href="#445rc"/></g><g><use fill="#fff" fill-opacity="0" stroke="#171614" stroke-miterlimit="50" stroke-width=".29" xlink:href="#445rd"/></g><g><use fill="#241f0c" xlink:href="#445re"/></g><g><use fill="#fff" xlink:href="#445rf"/></g><g><use fill="#e63329" xlink:href="#445rg"/></g><g><use fill="#e63329" xlink:href="#445rh"/></g><g><use fill="#e63329" xlink:href="#445ri"/></g><g><use fill="#e63329" xlink:href="#445rj"/></g><g><use fill="#241f0c" xlink:href="#445rk"/></g><g><use fill="#241f0c" xlink:href="#445rl"/></g><g><use fill="#241f0c" xlink:href="#445rm"/></g><g><use fill="#241f0c" xlink:href="#445rn"/></g><g><use fill="#241f0c" xlink:href="#445ro"/></g><g><use fill="#241f0c" xlink:href="#445rp"/></g><g><use fill="#241f0c" xlink:href="#445rq"/></g><g><use fill="#241f0c" xlink:href="#445rr"/></g><g><use fill="#241f0c" xlink:href="#445rs"/></g><g><use fill="#241f0c" xlink:href="#445rt"/></g><g><use fill="#241f0c" xlink:href="#445ru"/></g><g><use fill="#241f0c" xlink:href="#445rv"/></g><g><use fill="#241f0c" xlink:href="#445rw"/></g><g><use fill="#241f0c" xlink:href="#445rx"/></g><g><use fill="#241f0c" xlink:href="#445ry"/></g><g><use fill="#241f0c" xlink:href="#445rz"/></g><g><use fill="#241f0c" xlink:href="#445rA"/></g><g><use fill="#241f0c" xlink:href="#445rB"/></g><g><use fill="#241f0c" xlink:href="#445rC"/></g><g><use fill="#241f0c" xlink:href="#445rD"/></g><g><use fill="#241f0c" xlink:href="#445rE"/></g><g><use fill="#241f0c" xlink:href="#445rF"/></g><g><use fill="#fd0" xlink:href="#445rG"/></g><g><use fill="#fd0" xlink:href="#445rH"/></g><g><use fill="#fd0" xlink:href="#445rI"/></g><g><use fill="#fd0" xlink:href="#445rJ"/></g><g><use fill="#fd0" xlink:href="#445rK"/></g><g><use fill="#fd0" xlink:href="#445rL"/></g><g><use fill="#fd0" xlink:href="#445rM"/></g><g><use fill="#241f0c" xlink:href="#445rN"/></g><g><use fill="#241f0c" xlink:href="#445rO"/></g><g><use fill="#241f0c" xlink:href="#445rP"/></g><g><use fill="#fd0" xlink:href="#445rQ"/></g><g><use fill="#241f0c" xlink:href="#445rR"/></g><g><use fill="#fd0" xlink:href="#445rS"/></g><g><use fill="#fd0" xlink:href="#445rT"/></g><g><use fill="#fd0" xlink:href="#445rU"/></g><g><use fill="#fd0" xlink:href="#445rV"/></g><g><use fill="#fd0" xlink:href="#445rW"/></g><g><use fill="#fd0" xlink:href="#445rX"/></g><g><use fill="#fd0" xlink:href="#445rY"/></g><g><use fill="#241f0c" xlink:href="#445rZ"/></g><g><use fill="#241f0c" xlink:href="#445raa"/></g><g><use fill="#241f0c" xlink:href="#445rab"/></g><g><use fill="#fd0" xlink:href="#445rac"/></g><g><use fill="#241f0c" xlink:href="#445rad"/></g><g><use fill="#fd0" xlink:href="#445rae"/></g><g><use fill="#fd0" xlink:href="#445raf"/></g><g><use fill="#fd0" xlink:href="#445rag"/></g><g><use fill="#fd0" xlink:href="#445rah"/></g><g><use fill="#fd0" xlink:href="#445rai"/></g><g><use fill="#fd0" xlink:href="#445raj"/></g><g><use fill="#fd0" xlink:href="#445rak"/></g><g><use fill="#241f0c" xlink:href="#445ral"/></g><g><use fill="#241f0c" xlink:href="#445ram"/></g><g><use fill="#241f0c" xlink:href="#445ran"/></g><g><use fill="#fd0" xlink:href="#445rao"/></g><g><use fill="#241f0c" xlink:href="#445rap"/></g><g><use fill="#fd0" xlink:href="#445raq"/></g><g><use fill="#fd0" xlink:href="#445rar"/></g><g><use fill="#fd0" xlink:href="#445ras"/></g><g><use fill="#fd0" xlink:href="#445rat"/></g><g><use fill="#fd0" xlink:href="#445rau"/></g><g><use fill="#fd0" xlink:href="#445rav"/></g><g><use fill="#fd0" xlink:href="#445raw"/></g><g><use fill="#241f0c" xlink:href="#445rax"/></g><g><use fill="#241f0c" xlink:href="#445ray"/></g><g><use fill="#241f0c" xlink:href="#445raz"/></g><g><use fill="#fd0" xlink:href="#445raA"/></g><g><use fill="#241f0c" xlink:href="#445raB"/></g><g><use fill="#e63329" xlink:href="#445raC"/></g><g><use fill="#fd0" xlink:href="#445raD"/></g><g><use fill="#1d1d1b" xlink:href="#445raE"/></g><g><use fill="#fd0" xlink:href="#445raF"/></g><g><use fill="#1d1d1b" xlink:href="#445raG"/></g><g><use fill="#fd0" xlink:href="#445raH"/></g><g><use fill="#1d1d1b" xlink:href="#445raI"/></g><g><use fill="#fd0" xlink:href="#445raJ"/></g><g><use fill="#1d1d1b" xlink:href="#445raK"/></g><g><use fill="#fd0" xlink:href="#445raL"/></g><g><use fill="#241f0c" xlink:href="#445raM"/></g><g><use fill="#fd0" xlink:href="#445raN"/></g><g><use fill="#241f0c" xlink:href="#445raO"/></g><g><use fill="#1d1d1b" xlink:href="#445raP"/></g><g><use fill="#fd0" xlink:href="#445raQ"/></g><g><use fill="#fd0" xlink:href="#445raR"/></g><g><use fill="#fd0" xlink:href="#445raS"/></g><g><use fill="#fd0" xlink:href="#445raT"/></g><g><use fill="#fd0" xlink:href="#445raU"/></g><g><use fill="#fd0" xlink:href="#445raV"/></g><g><use fill="#fd0" xlink:href="#445raW"/></g><g><use fill="#1d1e1c" xlink:href="#445raX"/></g><g><use fill="#1d1e1c" xlink:href="#445raY"/></g><g><use fill="#1d1e1c" xlink:href="#445raZ"/></g><g><use fill="#1d1e1c" xlink:href="#445rba"/></g><g><use fill="#1d1e1c" xlink:href="#445rbb"/></g><g><use fill="#1d1e1c" xlink:href="#445rbc"/></g><g><use fill="#1d1e1c" xlink:href="#445rbd"/></g><g><use fill="#1d1e1c" xlink:href="#445rbe"/></g><g><use fill="#1d1e1c" xlink:href="#445rbf"/></g><g><use fill="#1d1e1c" xlink:href="#445rbg"/></g><g><use fill="#1d1e1c" xlink:href="#445rbh"/></g><g><use fill="#1d1e1c" xlink:href="#445rbi"/></g><g><use fill="#1d1e1c" xlink:href="#445rbj"/></g><g><use fill="#1d1e1c" xlink:href="#445rbk"/></g><g><use fill="#1d1e1c" xlink:href="#445rbl"/></g><g><use fill="#1d1e1c" xlink:href="#445rbm"/></g><g><use fill="#1d1e1c" xlink:href="#445rbn"/></g><g><use fill="#1d1e1c" xlink:href="#445rbo"/></g><g><use fill="#1d1e1c" xlink:href="#445rbp"/></g><g><use fill="#1d1e1c" xlink:href="#445rbq"/></g><g><use fill="#1d1e1c" xlink:href="#445rbr"/></g><g><use fill="#1d1e1c" xlink:href="#445rbs"/></g><g><use fill="#1d1e1c" xlink:href="#445rbt"/></g><g><use fill="#1d1e1c" xlink:href="#445rbu"/></g><g><use fill="#1d1e1c" xlink:href="#445rbv"/></g><g><use fill="#1d1e1c" xlink:href="#445rbw"/></g></g></g></svg>