<svg xmlns="http://www.w3.org/2000/svg" xmlns:xlink="http://www.w3.org/1999/xlink" width="55" height="56" viewBox="0 0 55 56"><defs><path id="nflsa" d="M837.944 841.128c0 1.4-1.166 2.576-2.555 2.576-1.389 0-2.556-1.176-2.556-2.576 0-1.4 1.111-2.576 2.556-2.576 1.444 0 2.555 1.176 2.555 2.576zm2.122 0c0-2.632-2.058-4.704-4.672-4.704s-4.672 2.072-4.672 4.704a4.68 4.68 0 0 0 4.672 4.704c2.614 0 4.672-2.072 4.672-4.704zM813 829.648l-4.889-2.576a.948.948 0 0 0-.944 0l-4.89 2.576v-7.84c1.556 1.064 3.39 1.624 5.39 1.624 2 0 3.833-.616 5.389-1.624v7.84zm26.5-7.28c0-.616-.5-1.064-1.056-1.064h-16.666c-.611 0-1.056.448-1.056 1.064 0 .616.5 1.064 1.056 1.064h16.666c.612 0 1.056-.448 1.056-1.064zm-4.889 4.48c0-.616-.5-1.064-1.055-1.064h-11.778c-.611 0-1.056.448-1.056 1.064 0 .616.5 1.064 1.056 1.064h11.833c.556 0 1-.448 1-1.064zm0 4.48c0-.616-.5-1.064-1.055-1.064h-11.778c-.611 0-1.056.448-1.056 1.064 0 .616.5 1.064 1.056 1.064h11.833c.556 0 1-.448 1-1.064zm-23.39 7.749v4.738c0 .216.11.431.22.593.11.161.331.215.607.215.276 0 .442-.054.607-.215.166-.162.22-.323.22-.593V842.2h1.546c.276 0 .441-.108.607-.215a.683.683 0 0 0 .22-.539c0-.215-.055-.43-.22-.538-.166-.162-.331-.216-.607-.216h-1.545v-.915h1.986c.276 0 .441-.108.607-.215a.683.683 0 0 0 .22-.539c0-.215-.055-.43-.22-.538-.166-.162-.331-.216-.607-.216h-2.814c-.276 0-.441.054-.607.216-.165.161-.22.323-.22.592zm7.945.538c.275 0 .662.108 1.103.216.441.161.772.054.938-.27.055-.107.11-.269.055-.43a.784.784 0 0 0-.331-.485c-.386-.323-.993-.484-1.765-.484-.938 0-1.656.269-2.207.861-.552.592-.828 1.4-.828 2.37 0 1.022.276 1.776.772 2.369.497.592 1.214.861 2.207.861.773 0 1.435-.161 1.876-.538.22-.162.386-.377.442-.593.055-.215 0-.377-.11-.538-.221-.27-.552-.323-.994-.108-.22.054-.33.108-.386.162-.11.054-.22.054-.331.107-.11.054-.276.054-.386.054-.387 0-.662-.161-.938-.43-.276-.27-.386-.7-.386-1.293 0-.592.11-1.023.33-1.346.221-.323.552-.485.939-.485zm3.034-.538v4.846c0 .215.11.43.22.592.111.162.332.216.608.216h3.09c.275 0 .44-.108.606-.216a.683.683 0 0 0 .22-.538c0-.215-.054-.43-.22-.539-.165-.161-.33-.215-.607-.215h-2.207V842.2h1.656c.275 0 .44-.108.606-.215a.683.683 0 0 0 .221-.539c0-.215-.055-.43-.22-.538-.166-.162-.332-.216-.607-.216h-1.656v-.915h2.152c.276 0 .441-.108.607-.215a.683.683 0 0 0 .22-.539c0-.215-.055-.43-.22-.538-.166-.162-.331-.216-.607-.216h-2.98c-.275 0-.44.054-.606.216-.166.161-.22.323-.22.592zm-22.144-25.333c0-4.2 3.386-7.672 7.606-7.672s7.55 3.416 7.55 7.672c0 4.2-3.386 7.616-7.606 7.616s-7.55-3.416-7.55-7.616zM807.61 804c-5.278 0-9.611 4.368-9.611 9.744 0 2.352.833 4.48 2.222 6.216v11.424c0 .336.167.672.5.896.334.168.667.224 1 .056l5.89-3.136 5.944 3.08c.166.056.333.112.5.112.166 0 .388-.056.555-.168.278-.168.5-.504.5-.896v-11.424a9.753 9.753 0 0 0 2.222-6.216c-.055-5.32-4.389-9.688-9.722-9.688zm4.177 9.744c0 2.296-1.891 4.2-4.172 4.2-2.28 0-4.172-1.904-4.172-4.2 0-2.296 1.892-4.2 4.172-4.2 2.336 0 4.172 1.904 4.172 4.2zm1.1 0c0-2.912-2.388-5.32-5.277-5.32-2.889 0-5.278 2.408-5.278 5.32 0 2.912 2.39 5.32 5.278 5.32 2.945 0 5.278-2.408 5.278-5.32zM844.5 819.4v-2.856c0-.336.111-3.192 3.167-3.192 2.944 0 3.11 2.632 3.166 3.192v2.856zm-41.612 38.08h-.111s-.5 0-1.055-.504c-.611-.56-1.555-2.016-1.666-5.88h33.934c-.055 1.568.112 4.368 1.611 6.328h-32.713zm44.723-46.2h-27.5c-.555 0-1 .448-1 1.064a1 1 0 0 0 1 1.008h23.278c-.722 1.064-.945 2.296-.945 3.192v38.08c0 .28-.166 2.352-3.222 2.8-.722-.168-1.333-.504-1.778-1.008-1.777-2.016-1.277-6.048-1.277-6.104.055-.28-.056-.616-.223-.84a1.093 1.093 0 0 0-.777-.336h-26.778v-14.952c0-.56-.445-1.064-1-1.064-.556 0-1.056.504-1.056 1.064v14.896H799c-.556 0-1 .448-1 1.064 0 4.2.833 7.056 2.5 8.512.944.784 1.889.952 2.333.952H837.944c.445 0 .834 0 1.223-.056.333.056.666.056 1 .056v-.224c4.333-.952 4.333-4.704 4.333-4.76v-33.152h7.333a1 1 0 0 0 1-1.008v-3.92c0-1.848-1.055-5.264-5.222-5.264z"/><linearGradient id="nflsb" x1="798" x2="852.83" y1="859.61" y2="859.61" gradientUnits="userSpaceOnUse"><stop offset="0" stop-color="#8179f9"/><stop offset="1" stop-color="#4943ed"/></linearGradient></defs><g><g transform="translate(-798 -804)"><use fill="url(#nflsb)" xlink:href="#nflsa"/></g></g></svg>