<svg xmlns="http://www.w3.org/2000/svg" xmlns:xlink="http://www.w3.org/1999/xlink" width="58" height="56" viewBox="0 0 58 56"><defs><path id="y1c7a" d="M540.882 853.049l11.646-28.966h10.275zm-29.742-28.966H550.3l-13.358 33.169-12.102-27.262c-.229-.511-.857-.795-1.37-.511a1.04 1.04 0 0 0-.514 1.363l9.419 21.184zm11.988-14.596l-2.74 12.495h-8.963zm2.683-2.442h10.675l13.016 14.937h-25.803l9.476-10.167c.4-.454.4-1.079-.057-1.476-.457-.398-1.085-.398-1.484.057l-8.506 9.087zm21.693 0l2.455 12.334-10.676-12.334zm14.957 14.927h-9.762l-2.57-12.656zm3.539.918v-.056c0-.057 0-.114-.057-.114a1.24 1.24 0 0 0-.171-.284l-16.613-17.152c0-.057-.057-.057-.114-.057 0-.057-.057-.057-.057-.057l-.057-.056c-.057-.057-.057-.057-.114-.057s-.114-.057-.171-.057H524.84c-.058 0-.115 0-.172.057-.057 0-.057 0-.114.057-.057 0-.114.056-.114.056-.057.057-.114.114-.171.114l-15.985 16.982-.057.057c-.057.056-.057.113-.114.113-.057.057-.057.114-.057.17 0 .057-.057.114-.057.17v.398c0 .057 0 .114.057.114 0 .057 0 .057.057.114 0 .056.057.113.057.113l.057.057 27.916 37.03c.057.114.171.17.285.228.057 0 .114.056.114.056.057 0 .114.057.114.057.058 0 .115.057.172.057h.399c.172-.057.343-.114.457-.227l.057-.057a.785.785 0 0 0 .171-.227l27.859-36.803.057-.057a.43.43 0 0 0 .114-.227c0-.057.057-.114.057-.17v-.228-.114z"/><linearGradient id="y1c7b" x1="508" x2="566" y1="861" y2="861" gradientUnits="userSpaceOnUse"><stop offset="0" stop-color="#8179f9"/><stop offset="1" stop-color="#4943ed"/></linearGradient></defs><g><g transform="translate(-508 -805)"><use fill="url(#y1c7b)" xlink:href="#y1c7a"/></g></g></svg>