<?xml version="1.0" encoding="utf-8"?>
<!-- Generator: Adobe Illustrator 21.0.0, SVG Export Plug-In . SVG Version: 6.00 Build 0)  -->
<svg version="1.1" id="Layer_1" xmlns="http://www.w3.org/2000/svg" xmlns:xlink="http://www.w3.org/1999/xlink" x="0px" y="0px"
	 viewBox="0 0 1070 537.5" style="enable-background:new 0 0 1070 537.5;" xml:space="preserve">
<style type="text/css">
	.st0{fill:#DD958C;}
	.st1{fill:#EFACA0;}
	.st2{fill:#FFFFFF;}
	.st3{opacity:0.21;}
	.st4{fill:#4B45F1;}
	.st5{fill:#CACACE;}
	.st6{fill:#9A9AA5;}
	.st7{fill:#1A2445;}
	.st8{fill:#283456;}
	.st9{fill:none;stroke:#56617C;stroke-width:5.262;stroke-linecap:round;stroke-miterlimit:10;}
	.st10{fill:#56617C;}
	.st11{fill:#DD9B92;}
</style>
<g>
	<path class="st0" d="M394.7,136.9C353.7,162.7,302,230,302,230s-8-3,19,7c13.9,6.5,93-70.1,93-70.1L394.7,136.9z"/>
	<path class="st1" d="M348.6,201.3c-4.1,6.7-9.2,13.5-15.6,19.7l-66,42c-8.2,4.9-26,8-26,8s13.4-20,25.7-33.1
		c9.8-10.5,52.7-73.1,69.5-97.8L348.6,201.3z"/>
	<path class="st2" d="M0,329c0,0,303,133,531-22c86,20,133,22,133,22s169-2,227-49S714,154,591,2C450,256,0,329,0,329z"/>
	<path class="st0" d="M414,166.9l181.3,134.8c0,0,80-1.6,124.1-37.6c0,0-113.5-105.4-264.6-142.9c-17.4-5.5-39.1,2.6-60.1,15.8
		L414,166.9z"/>
	<g class="st3">
		
			<image style="overflow:visible;" width="151" height="173" xlink:href="5CA233118529F5AC.png"  transform="matrix(1 0 0 1 339 155)">
		</image>
	</g>
	<path class="st1" d="M336.2,140.1c7.7-11.3,20.3-18.5,34-18.7c2.5,0,5.2,0.1,7.9,0.6c6.7,1.1,14.7,4.3,22.3,7.9
		c14.4,6.9,27.8,16,39.7,26.6L556.9,260l38.4,31l-86.6,26.1c0,0-58.4,21.2-136-132.3l-9.8-18.8c0,0-3.2,17.1-14.3,35.3L336.2,140.1z
		"/>
	<path class="st1" d="M595.3,291"/>
	<path class="st4" d="M460,302c0,0-29.5-47.9,54.9-79.3s111.9-26.9,111.9-26.9s50,26.2,74.6,52.8c32.7,35.4-177.1,69.3-177.1,69.3
		S497,329.4,460,302z"/>
	<path class="st4" d="M591.3,304.8c0,0,7.5-24.8,22.3-38c7.7-6.9-10-31,11.5-46.8c19.8-14.5,46.2-27.6,64-28
		c37.2-0.8,131.3,14.4,139,19.1c7.7,4.6-31.7,62.7-31.7,62.7l-146.3,37.9C649.9,311.7,604.6,328.9,591.3,304.8z"/>
	<path class="st1" d="M734.2,200.5C701,203,678.4,212.3,755,217l30-15l-34.2-2.4C745.2,199.2,739.7,200.1,734.2,200.5z"/>
	<path class="st1" d="M723.9,225.8c29.1-18.1,56.9,25.1,28.6,44.4c-44.4,30.3-121.4,79.2-149,74.5C563.8,338,660,278,660,278l37-30
		C697,248,708.7,235.2,723.9,225.8z"/>
	<g>
		
			<image style="overflow:visible;opacity:0.14;" width="232" height="265" xlink:href="5CA233118529F5AD.png"  transform="matrix(1 0 0 1 400 145)">
		</image>
		<g>
			<path class="st1" d="M567.8,347.1C535.9,303.9,505,258,493,232c-0.5-1-0.8-1.9-1.1-2.7c-0.7-2-4-3.7-5.8-4.7
				c-0.9-0.5-2-1.2-3.2-2.1c-0.3-0.1-0.5-0.3-0.8-0.4c-2-1.2-3.5-2.9-4.7-4.8l-3.7-5.9c-0.4-0.7-0.8-1.3-1.1-2
				c-3.3-6.9-5.6-11.7-5.6-11.7s-3.8-6.3,3.7-7.5c7.5-1.2,20.9,13.4,20.9,13.4s8,10.4,7.1,16c0,0,0,0,0,0c-0.3,1.7,0.1,3.5,1.2,4.9
				c20.6,24.3,46.4,52.3,46.4,52.3S591,324.2,601,339C620.2,367.4,588.2,374.7,567.8,347.1z"/>
		</g>
	</g>
	<path class="st1" d="M767.4,203.6c-0.2,12.3-20.8,14.2-21.2,1.9c-0.4-13.3,7.8-12.5,0.9-41c-1.1-4.5,3.1-2.5,6.3-2.9
		c10-1.2,11.7,12.8,11.7,12.8l1.5,16.1C766.6,190.4,767.5,197.2,767.4,203.6z"/>
	<path class="st2" d="M531,307c0,0,209-16,262-51S1070,0,1070,0S949,233,891,280c-22.8,18.5-62.7,30-102.8,37.2
		c-75.5,13.5-153,11.9-228.2-3.8C550.9,311.5,541.2,309.4,531,307z"/>
	<path class="st5" d="M531,307c10.2,2.4,19.9,4.5,29.1,6.4c75.1,15.6,152.6,17.3,228.2,3.8c40.1-7.2,80-18.7,102.8-37.2
		c58-47,179-280,179-280s-7,257-280,454c-64.4,43.6-134.2,65.9-198.7,76.3C481,548,368,533,265.5,488.7
		C183.2,453.1,62.3,393.8,0,329C0,329,303,462,531,307z"/>
	<path class="st6" d="M790,454c-64.4,43.6-134.2,65.9-198.7,76.3C481,548,368,533,265.5,488.7c0,0,142.5,27.3,270.5,19.3
		S790,454,790,454z"/>
	<path class="st0" d="M714.2,151.6c2,2.9,4.2,5.7,6.5,8.5c5.9,7.1,8.2,11.8,17.3,8c19-8,58-4,58-4s26-30,6-50s-85-28-85-28l-27,8
		c0,0-0.3,3.9-0.2,9c0.1,9.2,3,18.2,8.3,25.7L714.2,151.6z"/>
	<path class="st7" d="M745,11c0,0-45.4,3.8-60,33c-12,24-8,36-8,36s2.8,9.6,13.5,15.2c1.8,1,3.9,1.8,6.2,2.5c3.3,1,6.8,1.1,10.3,0.9
		c19.1-1.3,13.5,28.8,16,28.4c9.3-1.3,4-26,4-26s6-9,15,4c2.7,3.9,2,16-3,23c-10.4,14.5,9,36,9,36s19,47-13,85c-40,42,16,74,16,74
		s98.5-12.5,159,6c85,26,122.6-44.3,129-55c24-40-20-120-71-137c-44.2-14.7-69.9,15.7-70.3,11.8c-3.1-27.4-51.9-4.3-74.7-63.8
		C797,17,781,12,745,11z"/>
	<g>
		
			<image style="overflow:visible;opacity:0.14;" width="255" height="180" xlink:href="5CA233118529F5AB.png"  transform="matrix(1 0 0 1 387 102)">
		</image>
		<g>
			<path class="st7" d="M455,189.6l63.2,44.3c3.6,2.5,8.3,3.1,12.4,1.4l83.3-36.7c3.6-1.6,4-6.5,0.8-8.7l-59.4-41
				c-2.7-1.8-6.1-2.3-9.1-1.2l-89.9,33C452.4,182.1,451.7,187.3,455,189.6z"/>
		</g>
	</g>
	<polygon class="st8" points="464,185 551,152 609,192 526,228 	"/>
	<path class="st9" d="M491.6,191c1.7-0.9,39.4-16.2,39.4-16.2"/>
	<path class="st9" d="M505.8,201.2c1.7-0.9,39.4-16.2,39.4-16.2"/>
	<path class="st9" d="M520.9,212.3c1.7-0.9,39.4-16.2,39.4-16.2"/>
	<ellipse transform="matrix(0.5 -0.866 0.866 0.5 126.3477 576.188)" class="st10" cx="562.2" cy="178.7" rx="8.6" ry="16.4"/>
	<path class="st11" d="M480.2,214.8c0.1,0.1,0.1,0.3,0.2,0.5l-0.3-0.2C480.2,215,480.2,214.9,480.2,214.8z"/>
</g>
</svg>
