<svg xmlns="http://www.w3.org/2000/svg" xmlns:xlink="http://www.w3.org/1999/xlink" width="82" height="52" viewBox="0 0 82 52"><defs><path id="r0qta" d="M407.016 2609.404h-4.561v-10.643c0-.766.304-1.49.847-2.043l3.28-3.215.347-.34.044.49c.021.17.043.297.043.425zm-5.125-14.049a4.703 4.703 0 0 0-1.43 3.406v10.643h-8.475v-16.965l.065-.064 5.18-5.087.109-.106.151.064 6.98 3.043c.498.235.953.533 1.321.916l.174.17-.174.17zm-10.712-4.853l-.173.17-.173-.17-4.547-4.47-.13-.127.108-.15c.325-.553.498-1.17.498-1.787v-.83l.325.127c1.234.511 2.555.767 3.897.767a10.09 10.09 0 0 0 3.897-.767l.325-.127v.83c0 .617.173 1.256.498 1.788l.108.149-.13.127zm-1.187 2.044v16.879h-8.474v-10.664c0-1.277-.499-2.49-1.43-3.406l-3.88-3.81-.174-.17.174-.17c.368-.383.823-.681 1.322-.916l6.979-3.043.151-.064.109.106 5.18 5.087.065.064v.107zm-10.49 16.858h-4.551v-15.326c0-.128.021-.277.043-.426l.043-.49.347.341 3.273 3.215a2.91 2.91 0 0 1 .845 2.043zm3.382-35.334v-.724l.152-.064c.737-.298 1.453-.745 2.147-1.362a.996.996 0 0 0 .303-.68c.022-.256-.087-.49-.26-.682a1.043 1.043 0 0 0-.737-.298c-.239 0-.5.106-.673.255-.629.596-1.28.958-1.908 1.128-.022.022-.043.022-.065.022l-.152.021-.043-.128a.45.45 0 0 1-.044-.213v-2.383c0-4.407 3.644-8.004 8.154-8.004h2.624c4.489 0 8.154 3.576 8.154 8.004v.255a.301.301 0 0 1-.239.298c-1.41.255-2.754.404-4.033.404-2.039 0-5.812-.383-8.414-2.937a.98.98 0 0 0-.694-.298c-.26 0-.52.106-.694.298a.945.945 0 0 0-.304.681c0 .256.109.511.304.681 2.95 2.874 6.983 3.491 9.845 3.491.867 0 1.756-.043 2.667-.17l.26-.043v2.405c0 2.129-.845 4.151-2.385 5.641a8.148 8.148 0 0 1-5.746 2.341c-2.169 0-4.229-.83-5.747-2.341-1.605-1.447-2.472-3.448-2.472-5.598zm22.41 14.453l-7.088-3.108a1.592 1.592 0 0 1-.953-1.469v-1.915l.087-.17c2.427-1.916 3.814-4.747 3.814-7.791v-2.703l.108-.192a2.251 2.251 0 0 0 1.193-1.98v-.255c0-5.47-4.53-9.94-10.122-9.94h-2.688c-5.57 0-10.121 4.449-10.121 9.94v2.384c0 .745.325 1.405.888 1.83a.912.912 0 0 0 .304.192l.108.064v.66c0 3.044 1.387 5.875 3.815 7.79l.086.17v1.916c0 .639-.368 1.214-.953 1.47l-7.087 3.107c-2.233.979-3.685 3.171-3.685 5.576v15.9a.986.986 0 0 0 1.539.81H380a.96.96 0 0 0 .541.17.96.96 0 0 0 .542-.17h9.342a.98.98 0 0 0 .607.191.918.918 0 0 0 .585-.192h9.32c.151.107.368.17.563.17a.978.978 0 0 0 .563-.17h5.375c.152.107.369.17.564.17A.985.985 0 0 0 409 2610v-15.9c0-2.406-1.474-4.598-3.706-5.577z"/><path id="r0qtc" d="M385.022 2567.1s-.05 0 0 0c.05-.05.1-.05.15-.1-.1 0-.15.05-.15.1z"/><path id="r0qte" d="M381 2571c0 .2 0 .25.05.3.05 0 .05 0 .05-.05h-.05c-.05-.05-.05-.1-.05-.25z"/><path id="r0qtg" d="M368.99 2579.266l-.177.043a9.253 9.253 0 0 1-2.474.358c-3.843 0-6.074-2.738-6.184-2.864a.99.99 0 0 0-.73-.379h-.066a.975.975 0 0 0-.706.295c-1.26 1.2-2.474 1.747-3.292 2l-.309.105v-.315c.044-1.748.773-3.37 2.099-4.59 1.303-1.222 3.026-1.896 4.859-1.896 3.843 0 6.98 2.99 6.98 6.654zm-.022 2.286c-.199 3.516-3.27 6.294-6.958 6.294-3.821 0-6.958-2.989-6.958-6.652v-.42l.177-.043c.95-.21 2.385-.695 3.887-1.852l.177-.127.133.127c.707.61 1.458 1.136 2.275 1.578a9.982 9.982 0 0 0 4.638 1.137c.773 0 1.569-.105 2.342-.273l.309-.064zm-3.888 10.574l-2.871 2.734-.177.168-.177-.168-2.871-2.734-.11-.105.044-.126c.088-.295.11-.589.11-.883v-1.746l.31.105a9.534 9.534 0 0 0 2.672.379c.906 0 1.811-.147 2.695-.379l.309-.105v1.746c0 .294.044.588.11.883l.045.126zm-4.108 16.339h-4.617v-5.467c0-1.262-.508-2.46-1.457-3.365l-2.806-2.67-.022-.021-.022-.021-.199-.169.2-.168c.198-.168.419-.294.64-.42l4.307-2.061c.199-.105.398-.232.574-.358l.177-.105.155.147 3.004 2.902.066.063zm-9.94-.01v-9.79l.398.379 2.032 1.933c.552.546.861 1.26.861 2.016v5.462zm10.978-41.52c1.657 0 2.982 1.261 2.982 2.838 0 .169-.022.337-.044.505l-.044.252-.243-.084a9.117 9.117 0 0 0-2.629-.378c-.905 0-1.789.126-2.628.378l-.243.084-.045-.252c-.044-.19-.044-.357-.044-.505-.044-1.556 1.281-2.838 2.938-2.838zm4.86 4.52l-.155-.105.044-.168c.155-.483.243-.946.243-1.43 0-2.607-2.253-4.752-4.992-4.752s-4.992 2.145-5.036 4.773c0 .484.088.968.243 1.43l.044.168-.155.106c-2.584 1.577-4.108 4.268-4.108 7.191v2.524c0 2.796 1.458 5.446 3.888 7.044l.11.063v2.692c0 .61-.353 1.135-.906 1.409l-4.329 2.04c-1.7.82-2.761 2.46-2.761 4.268v10.304c0 .546.464.967 1.016.967.199 0 .376-.063.53-.147h4.241a1 1 0 0 0 .552.168 1 1 0 0 0 .553-.168h5.522c.154.105.375.168.574.168.22 0 .42-.063.574-.168h6.185c.398 0 .707-.295.707-.673 0-.379-.332-.673-.707-.673h-5.743v-11.713l.066-.063 3.048-2.902.155-.147.177.105c.177.148.375.253.574.358l1.193.568c.132.063.31.105.442.105.375 0 .729-.19.905-.526a.945.945 0 0 0 .044-.736.91.91 0 0 0-.508-.547l-1.192-.567c-.575-.274-.906-.8-.906-1.41v-2.712l.11-.063c2.43-1.598 3.888-4.227 3.888-7.044v-2.545c-.022-2.902-1.546-5.614-4.13-7.191z"/><path id="r0qti" d="M425.83 2609.508v-9.375c0-.767.301-1.492.84-2.046l1.874-1.854.28-.277.108.384c.064.234.107.49.107.746v12.422zm-.56-12.785a4.724 4.724 0 0 0-1.423 3.41v9.375h-7.13v-15.704l.064-.064 2.973-2.94.15-.15.173.107c.173.15.366.256.56.362l6.571 3.24.302.148-.237.235zm-9.35-4.858l-.173.17-.172-.17-2.801-2.77-.108-.106.043-.128c.086-.299.108-.597.108-.895v-.576l.301.107a7.628 7.628 0 0 0 2.607.469c.884 0 1.767-.17 2.629-.469l.301-.107v.576c0 .298.043.596.108.895l.043.128-.108.106zm-5.667-11.272v-2.088l.15-.064a10.75 10.75 0 0 0 2.78-1.683l.108-.107.13.064c1.249.64 3.877 1.769 7.626 2.13l.215.022v1.705c0 3.004-2.477 5.455-5.515 5.455s-5.515-2.45-5.494-5.434zm-1.314-3.707v-1.47c0-3.005 2.478-5.456 5.515-5.456h2.607c3.038 0 5.515 2.45 5.515 5.455v1.577l-.237-.021c-5.321-.277-8.574-2.344-8.617-2.365a1.076 1.076 0 0 0-.56-.17.934.934 0 0 0-.69.297c-1.228 1.215-2.413 1.769-3.21 2.025zm19.368 15.874l-6.786-3.367a1.556 1.556 0 0 1-.884-1.427v-1.811l.087-.064a7.328 7.328 0 0 0 2.52-5.52v-1.597h.323c.56 0 .991-.448.991-.98v-2.579c0-4.09-3.339-7.394-7.475-7.394V2568h-2.607c-4.137 0-7.476 3.303-7.476 7.394v2.578c0 .554.452.98.991.98h.086l.237-.02v1.597c0 2.11.927 4.134 2.52 5.52l.087.063v1.811c0 .618-.345 1.15-.883 1.428a.969.969 0 0 0-.453 1.3c.173.32.496.532.884.532a.99.99 0 0 0 .43-.106c.194-.107.388-.235.56-.362l.173-.107.15.15 2.93 2.94.065.064v15.704h-3.425a.677.677 0 0 0-.69.682.69.69 0 0 0 .69.682h3.835c.15.106.366.17.56.17.215 0 .41-.064.56-.17h7.993a.95.95 0 0 0 .538.17.95.95 0 0 0 .539-.17h4.072c.15.106.366.17.56.17.56 0 .991-.447.991-.98V2597c0-1.768-1.034-3.409-2.693-4.24z"/><linearGradient id="r0qtb" x1="373" x2="409" y1="2611" y2="2611" gradientUnits="userSpaceOnUse"><stop offset="0" stop-color="#8179f9"/><stop offset="1" stop-color="#4943ed"/></linearGradient><linearGradient id="r0qtd" x1="371.04" x2="389.3" y1="2567.09" y2="2567.09" gradientUnits="userSpaceOnUse"><stop offset="0" stop-color="#df9a19"/><stop offset="1" stop-color="#a6a30d"/></linearGradient><linearGradient id="r0qtf" x1="371.93" x2="383.76" y1="2571.27" y2="2571.27" gradientUnits="userSpaceOnUse"><stop offset="0" stop-color="#df9a19"/><stop offset="1" stop-color="#a6a30d"/></linearGradient><linearGradient id="r0qth" x1="349" x2="371" y1="2610" y2="2610" gradientUnits="userSpaceOnUse"><stop offset="0" stop-color="#8179f9"/><stop offset="1" stop-color="#4943ed"/></linearGradient><linearGradient id="r0qtj" x1="407" x2="431" y1="2611" y2="2611" gradientUnits="userSpaceOnUse"><stop offset="0" stop-color="#8179f9"/><stop offset="1" stop-color="#4943ed"/></linearGradient></defs><g><g transform="translate(-349 -2559)"><g><use fill="url(#r0qtb)" xlink:href="#r0qta"/></g><g><use fill="url(#r0qtd)" xlink:href="#r0qtc"/></g><g><use fill="url(#r0qtf)" xlink:href="#r0qte"/></g><g><use fill="url(#r0qth)" xlink:href="#r0qtg"/></g><g><use fill="url(#r0qtj)" xlink:href="#r0qti"/></g></g></g></svg>