<?xml version="1.0" encoding="utf-8"?>
<!-- Generator: Adobe Illustrator 21.0.0, SVG Export Plug-In . SVG Version: 6.00 Build 0)  -->
<svg version="1.1" id="Layer_1" xmlns="http://www.w3.org/2000/svg" xmlns:xlink="http://www.w3.org/1999/xlink" x="0px" y="0px"
	 viewBox="0 0 1033 702" style="enable-background:new 0 0 1033 702;" xml:space="preserve">
<style type="text/css">
	.st0{fill:#CACACE;}
	.st1{fill:#F4F4F4;}
	.st2{fill:#FFFFFF;}
	.st3{opacity:0.21;}
	.st4{fill:#3434AD;}
	.st5{fill:#EFACA0;}
	.st6{fill:#DDDDDD;}
	.st7{fill:#3A3ACC;}
	.st8{fill:#4B45F1;}
	.st9{fill:#1A2445;}
	.st10{fill:#283456;}
	.st11{fill:#E0E0E0;}
	.st12{fill:none;stroke:#36466B;stroke-width:4;stroke-linecap:round;stroke-miterlimit:10;}
</style>
<g>
	<path class="st0" d="M694,645c144.7-54.1,339-249,339-249l-418,50L0,381c0,0,106,59,180,137C180,518,445,738,694,645z"/>
	<path class="st1" d="M0,381c0,0,195.3-42.7,312-35c64.7,4.2,128.9,15.6,178.7,26.5c70.3,15.3,142,23,214,22.8
		c80.2-0.3,195.1-0.3,328.3,0.7c0,0-225,176-434,218c0,0-94.5,11.3-211-33C259,532,141,460,0,381z"/>
	<path class="st2" d="M1033,396c0,0-157,171-434,217c0,0-94.5,11.3-211-33C259,531,138,457,0,381c0,0,265-13,303,49
		c42.8,69.8,170,127,340,54C783.8,423.5,1033,396,1033,396z"/>
	<g class="st3">
		
			<image style="overflow:visible;" width="149" height="178" xlink:href="3D8F514D2408BC4D.png"  transform="matrix(1 0 0 1 576 386)">
		</image>
	</g>
	<path class="st4" d="M500.1,632.9L504,622c10-3,29-1.1,37,3l15,17c0,0-11,0-19-2S500.1,632.9,500.1,632.9z"/>
	<path class="st5" d="M619,237l25-3c0,0,9-4,15-11s20-8,20-8s31-8,35-5s-9,24-9,24l-14,22c0,0-22,6-40,9s-32,0-32,0V237z"/>
	<path class="st6" d="M542,234l73-4c0,0,18-3,20,13s0,19,0,19s0,16-24,17s-69,3-69,3V234z"/>
	<path class="st4" d="M547.1,499.9l4.9,9.1c0,0-1.4,3.5-22,8c-32,7-32,16-32,16l0,0l-6-15l11.6-11.6c5.5-5.5,12.5-9.2,20.2-10.6l0,0
		c6.7-1.2,13.7-0.7,20.2,1.4h0C545.3,497.8,546.4,498.7,547.1,499.9z"/>
	<path class="st5" d="M600.5,107.7c-3.1,13.3-6.3,21.4-14.5,30.3c-6.7,7.2-23.9-2-34,0c-10.7,2.1-14.3,18.3-24,16
		c-22.5-5.3-40-9-25-42c3.6-7.9-3.3-21.8-4-31c-4-50,35.9-65.3,66-58.3c17,4,31.3,20.4,32.7,38.3c0.7,9,3.9,17.3,4.4,25.4
		C602.4,93.6,602.2,100.5,600.5,107.7z"/>
	<g class="st3">
		
			<image style="overflow:visible;" width="127" height="188" xlink:href="3D8F514D2408BC4F.png"  transform="matrix(1 0 0 1 498 514)">
		</image>
	</g>
	<path class="st2" d="M528,595l-23.3,35.3c-4.2,6.4-6.6,13.9-6.6,21.6c0.1,6.1,1.6,12.9,6.8,18.1c12.5,12.5,66,28,66,28s25,8,30-4
		c4.5-10.8,4.3-11.6,1.7-16.5c-1.8-3.3-4.6-5.9-7.9-7.7L547,643l21-38l-36-18L528,595z"/>
	<path class="st1" d="M574,553l-49,4c0,0-26-5-27-23s-9-46-9-46l50-10l7.6,29c1.5,5.5,5.8,9.9,11.3,11.4L586,526L574,553z"/>
	<g class="st3">
		
			<image style="overflow:visible;" width="186" height="128" xlink:href="3D8F514D2408BC4A.png"  transform="matrix(1 0 0 1 345 412)">
		</image>
	</g>
	<path class="st7" d="M474,268c0,0,42,9,52,65s26,176,26,176s-7.4-14.5-28-10c-32,7-26,34-26,34l0,0c-6.5-8.5-10.2-18.7-10.5-29.4
		L466,356l-22-53L474,268z"/>
	<g class="st3">
		
			<image style="overflow:visible;" width="171" height="155" xlink:href="3D8F514D2408BC4B.png"  transform="matrix(1 0 0 1 430 372)">
		</image>
	</g>
	<g class="st3">
		
			<image style="overflow:visible;" width="134" height="106" xlink:href="3D8F514D2408BC55.png"  transform="matrix(1 0 0 1 532 327)">
		</image>
	</g>
	<path class="st8" d="M556,642c0,0-12.9-14.5-29-18c-23-5-26.9,8.9-26.9,8.9s-5.9-9.4,4.9-37.9c17-45,86-136,83-143
		c-3-4.5-14.8,0.7-27,8c-5,3-14.3,12.3-29,20c-36.9,19.3-61.5,26.3-102,24c-69-4-102-55-102-55l111-44l122-28c0,0,55-9,76,25
		c17.4,28.2,12.1,55.5,4,80c-2.8,8.4-13.5,34-17.4,41.9C610.9,549,576.4,621.6,556,642z"/>
	<path class="st8" d="M358.2,474.6c0,0-40.2-15.6-35.2-53.6c3.1-23.9,3.1-32.5,8-46c23-63,45-64,52-98c12.7-61.5,90-21,90-21
		l-44,197L358.2,474.6z"/>
	<path class="st9" d="M607.4,83.1c0,0,1.7-16.2-1.8-24.1c-3.9-1.1-8.1,1.7-9.7,22.2c-0.5,6.7-5.1,14-11.9,19.8
		c-3,2.5-14.3-15.9-18-14c-1.6,0.8,3.3,13.3,4,20c0.3,3.1-2.5,3.5-3.4,3.6C547,113,537.7,122.7,527,118
		c-27.9-12.3-22.2-17.1-29.5-31.7c-2.2-4.4-6-23.7-6-31.4c0-29.8,28.3-54.9,63.2-54.9c31.7,0,53.8,24.8,57.6,51.5c0.1,0,0.2,0,0.2,0
		C612.1,54.4,616.7,66.1,607.4,83.1z"/>
	<g>
		
			<image style="overflow:visible;opacity:0.12;" width="30" height="37" xlink:href="3D8F514D2408BC57.png"  transform="matrix(1 0 0 1 556 73)">
		</image>
		<g>
			
				<ellipse transform="matrix(0.984 -0.1784 0.1784 0.984 -6.9099 104.1606)" class="st5" cx="575.7" cy="90.5" rx="11.3" ry="15.5"/>
		</g>
	</g>
	<path class="st2" d="M709,197c0,0,5-7,14,1c10.6,9.4,58,45,58,45s12,7-2,19l-41,38c0,0-9,8-31-8c-8.5-6.2-34.3-28.4-45.1-37.8
		c-2.7-2.3-2.8-6.4-0.4-8.9L709,197z"/>
	<polygon class="st10" points="715,200 779,251 729,299 667,249 	"/>
	<path class="st5" d="M667,327.6l36.3-16.3c2.2-1.1,5.2-4.4,6.1-6.6c0.3-0.7,1.5-3.1,1.6-3.9c1.1-7.4,0.6-6.3,0.9-8.3
		c0.1-0.6,0.2-1.2,0.2-1.9c0.1-2-0.1-9.9,4.4-10.3c0.2,0,0.4,0,0.6-0.1c2.9-0.1,4.2,4.2,4.6,6.9l0.2,10.5l18.1-16.8
		c0,0,13.7-15.8,17-2.6c2.2,8.9-0.5,15.2-0.5,15.2s5.3,4.5-4.9,17.9c-13.7,17.9-30.8,22.1-30.8,22.1s-13.5,5.3-19.2,8.4
		c-7.7,4.2-16.5,4.2-16.5,4.2L667,327.6z"/>
	<path class="st2" d="M702,351l-8.1,5c-24.1,14.9-50.5,25.8-78.1,32.2c-2.5,0.6-5.1,1.2-7.8,1.8c-36,8-47-9-47-9s-14-23-19-40
		c-3.9-13.3-10.9-49.2-13.7-64.2c-4.6,1.6-7.3,2.2-7.3,2.2s-29.9,36-27,101c1.5,34.7-29.3,49.8-51.7,56.3c-23.9,7-49.5,4.4-72.2-6
		C351.5,421.8,330,411,330,385c0,0-1-23,23-99c6-18,22-60,22-60s17.7-49,43-62c31-16,29-34,29-34s10-18,23-11s81,52,81,52s0,0,0,0
		c0.9,0.9,29.8,30.6,31.6,56.5c0.6,8.8,8.4,80.5,8.4,101.5c0,0-3,17,11,17c20,2,65-26,65-26s15-12,30-1S702,351,702,351z"/>
	<path class="st1" d="M574,202c0,0-31-2-109,26s-64-48-64-48s5-44,58-64s103,59,103,59S571,190,574,202z"/>
	<path class="st11" d="M481.4,113c30,2.8,56.7,30.8,70.6,48.3c6.4,8,10,13.8,10,13.8l-78-33C471.7,136.6,465,121,481.4,113
		L481.4,113z"/>
	<path class="st5" d="M674,221c0,0,12-1,19,1s5,6,5,6s-1,3-12,3c-8.1,0-17,1-17,1L674,221z"/>
	<line class="st12" x1="712.9" y1="223.5" x2="741.6" y2="247.5"/>
	<line class="st12" x1="704.9" y1="232.5" x2="733.6" y2="256.5"/>
	<line class="st12" x1="695.9" y1="242.5" x2="715" y2="258"/>
</g>
</svg>
