<svg xmlns="http://www.w3.org/2000/svg" xmlns:xlink="http://www.w3.org/1999/xlink" width="55" height="51" viewBox="0 0 55 51"><defs><path id="6ipfa" d="M979.229 2388.028c-.554-.12-1.067.154-1.21.615l-.985 3.315c-.144.461.184.888.738 1.008.082.017.144.034.247.034.45 0 .861-.256.964-.632l.985-3.315c.143-.444-.206-.905-.739-1.025z"/><path id="6ipfc" d="M967.133 2370c.13 0 .224-.038.335-.058l9.964-4.263a.937.937 0 0 0 .502-1.21.89.89 0 0 0-1.173-.518l-9.628 4.09-25.345-10.793v-.326a.908.908 0 0 0-.894-.922c-.484 0-.894.422-.894.922v.922c0 .384.223.71.559.864l26.258 11.196c.093.077.186.096.316.096z"/><path id="6ipfe" d="M977.905 2378.644a.91.91 0 0 0-1.214-.405c-1.718.848-4.612 1.825-8.664 1.954v-8.039a.89.89 0 0 0-.896-.885.903.903 0 0 0-.897.885v8.04c-11.278-.351-14.9-7.1-15.441-8.224v-6.085a.89.89 0 0 0-.897-.885.89.89 0 0 0-.896.885v6.269c0 .13.037.221.056.313.15.406 4.015 9.533 18.075 9.533 4.91 0 8.346-1.18 10.381-2.157.43-.203.617-.738.393-1.199z"/><path id="6ipfg" d="M981 2388c-.563 0-1 .455-1 .992v3.016c0 .558.458.992 1 .992.562 0 1-.455 1-.992v-3.016c.02-.537-.438-.992-1-.992z"/><path id="6ipfi" d="M980.33 2385.25c0-.49.416-.904.906-.904.509 0 .905.414.905.904.019.47-.396.904-.905.904a.905.905 0 0 1-.905-.904zm-14.668-31.29c0-.378.697-.908 1.829-.908 1.13 0 1.829.53 1.829.908.018.36-.717.909-1.83.909-1.112 0-1.828-.53-1.828-.909zm27.51 2.726v.303l-11.012 4.563v-1.647l12.274-5.093a.91.91 0 0 0 .566-.852.93.93 0 0 0-.566-.852l-26.585-11.037a.893.893 0 0 0-.698 0l-26.585 11.018a.91.91 0 0 0-.566.852c0 .379.226.7.566.852l26.585 11.038c.113.037.226.056.34.056.132 0 .226-.037.339-.056l9.616-3.995a.915.915 0 0 0 .51-1.193.909.909 0 0 0-1.189-.51l-9.276 3.842-24.173-10.034 24.173-10.034 24.172 10.053-10.521 4.374-10.088-3.768c.038-.19.076-.397.076-.606 0-1.552-1.622-2.764-3.658-2.764-2.055 0-3.658 1.212-3.658 2.764 0 1.553 1.621 2.764 3.658 2.764.905 0 1.734-.246 2.375-.662l10.465 3.919v22.661a2.726 2.726 0 0 0-1.829 2.594 2.762 2.762 0 0 0 2.753 2.764 2.762 2.762 0 0 0 2.753-2.764 2.77 2.77 0 0 0-1.83-2.594v-5.225c2.622-1.988 3.564-4.657 3.62-4.77.039-.096.039-.21.039-.304v-6.437a.907.907 0 0 0-.905-.908.907.907 0 0 0-.905.908v6.267c-.151.397-.698 1.59-1.83 2.783v-11.416l12.256-5.055a.93.93 0 0 0 .566-.852v-.928c-.019-.51-.415-.927-.924-.927a.907.907 0 0 0-.905.908z"/><path id="6ipfk" d="M984.984 2388.64c-.144-.463-.66-.72-1.215-.617-.557.12-.866.549-.742 1.012l.989 3.33c.123.378.536.635.968.635.062 0 .144-.017.247-.034.557-.12.866-.55.742-1.013z"/><linearGradient id="6ipfb" x1="977" x2="980" y1="2393" y2="2393" gradientUnits="userSpaceOnUse"><stop offset="0" stop-color="#8179f9"/><stop offset="1" stop-color="#4943ed"/></linearGradient><linearGradient id="6ipfd" x1="940" x2="978" y1="2370" y2="2370" gradientUnits="userSpaceOnUse"><stop offset="0" stop-color="#8179f9"/><stop offset="1" stop-color="#4943ed"/></linearGradient><linearGradient id="6ipff" x1="949" x2="978" y1="2382" y2="2382" gradientUnits="userSpaceOnUse"><stop offset="0" stop-color="#8179f9"/><stop offset="1" stop-color="#4943ed"/></linearGradient><linearGradient id="6ipfh" x1="980" x2="982" y1="2393" y2="2393" gradientUnits="userSpaceOnUse"><stop offset="0" stop-color="#8179f9"/><stop offset="1" stop-color="#4943ed"/></linearGradient><linearGradient id="6ipfj" x1="940" x2="995" y1="2388" y2="2388" gradientUnits="userSpaceOnUse"><stop offset="0" stop-color="#8179f9"/><stop offset="1" stop-color="#4943ed"/></linearGradient><linearGradient id="6ipfl" x1="983" x2="986" y1="2393" y2="2393" gradientUnits="userSpaceOnUse"><stop offset="0" stop-color="#8179f9"/><stop offset="1" stop-color="#4943ed"/></linearGradient></defs><g><g transform="translate(-940 -2342)"><g><use fill="url(#6ipfb)" xlink:href="#6ipfa"/></g><g><use fill="url(#6ipfd)" xlink:href="#6ipfc"/></g><g><use fill="url(#6ipff)" xlink:href="#6ipfe"/></g><g><use fill="url(#6ipfh)" xlink:href="#6ipfg"/></g><g><use fill="url(#6ipfj)" xlink:href="#6ipfi"/></g><g><use fill="url(#6ipfl)" xlink:href="#6ipfk"/></g></g></g></svg>