<svg xmlns="http://www.w3.org/2000/svg" xmlns:xlink="http://www.w3.org/1999/xlink" width="48" height="52" viewBox="0 0 48 52"><defs><path id="z9d2a" d="M383.193 2834.495c0 1.004-.755 1.769-1.698 1.769s-1.698-.765-1.698-1.769.755-1.769 1.698-1.769 1.698.765 1.698 1.769zm1.807.005c0-1.918-1.56-3.5-3.5-3.5s-3.5 1.582-3.5 3.5 1.56 3.5 3.5 3.5 3.5-1.582 3.5-3.5zm17.157-22.813c0 .294-.246.54-.59.54h-1.965c-.295 0-.59-.246-.59-.54v-.49c0-.295.246-.59.59-.59h1.965c.295 0 .59.246.59.59zm-8.337 0c0 .294-.244.54-.587.54h-1.96c-.293 0-.587-.246-.587-.54v-.49c0-.295.245-.59.587-.59h1.96c.294 0 .587.246.587.59zm7.74-2.845h-1.96c-.98 0-1.861.588-2.204 1.471h-1.96c-.342-.883-1.224-1.471-2.203-1.471h-1.96c-1.322 0-2.35 1.079-2.35 2.403v.49a2.353 2.353 0 0 0 2.35 2.356h1.96a2.372 2.372 0 0 0 2.35-1.963h1.715a2.372 2.372 0 0 0 2.351 1.963h1.96a2.353 2.353 0 0 0 2.35-2.355v-.49c-.049-1.374-1.077-2.404-2.4-2.404zm5.828 39.245v-8.929c0-1.422.294-2.305.539-2.894.244-.589.538-.785.538-.785l.147-.098a89.758 89.758 0 0 1 3.184-3.14c.196.54.196.982.196.982v14.864zm-37.077-4.415c-1.372 0-2.548-1.129-2.548-2.502v-13.245c0-1.374 1.127-2.551 2.548-2.551h23.029a2.563 2.563 0 0 1 2.548 2.55v13.246c0 1.373-1.127 2.502-2.548 2.502zm26.105-22.066h-.245c-4.359 0-7.934-3.533-7.934-7.902v-4.22c.734-.393 1.518-.884 2.204-1.522a.92.92 0 0 0 0-1.276.916.916 0 0 0-1.274 0c-.636.638-1.567 1.129-2.302 1.473.343-2.7 2.008-8.295 9.6-8.295 6.613 0 8.523 4.76 9.013 6.871-1.568-.049-4.556-.196-7.151-.785-3.527-.785-5.976-2.748-5.976-2.748-.392-.344-.98-.246-1.273.147-.343.392-.245.981.146 1.276.098.098 2.743 2.257 6.76 3.14 2.204.492 4.653.688 6.367.786v5.203c-.049 4.27-3.575 7.852-7.935 7.852zm12.784 5.926c-3.38-1.275-5.24-2.355-5.24-2.404l-.099-.049c-.098-.049-1.714-.785-1.812-3.483a9.695 9.695 0 0 0 4.114-7.947v-5.15h.441c.245 0 .49-.099.686-.295.147-.196.245-.442.245-.687-.392-3.287-3.086-9.517-11.07-9.517-11.363 0-11.51 10.94-11.51 11.43 0 .295.147.54.343.736.147.098.343.196.539.196.098 0 .147 0 .245-.049 0 0 .147-.049.342-.098v3.483a9.696 9.696 0 0 0 9.698 9.713h.245a9.685 9.685 0 0 0 3.919-.834c.147.981.49 1.766.832 2.355l-2.204 2.355a.877.877 0 0 0 .05 1.275c.195.147.391.246.636.246a.79.79 0 0 0 .637-.295l2.106-2.207c.343.245.588.392.735.441.342.196 2.204 1.276 5.485 2.502 1.029.393 1.715.883 2.204 1.472-.636.54-1.665 1.57-3.428 3.385-.392.343-1.763 1.668-1.763 5.102v8.879h-8.523v-1.08a.879.879 0 0 0-.882-.882.879.879 0 0 0-.881.883v1.079h-8.62v-1.03c0-.491-.392-.932-.882-.932s-.882.392-.882.932v1.03h-6.073v-2.6h14.547c2.4 0 4.31-1.962 4.31-4.317v-13.245c0-2.404-1.96-4.367-4.31-4.367h-23.02c-2.4 0-4.36 1.914-4.36 4.317v13.246a4.32 4.32 0 0 0 4.31 4.317h6.71v3.532c0 .49.392.883.882.883h35.804v-16.581c0-.147-.049-4.072-4.506-5.74z"/><linearGradient id="z9d2b" x1="413.71" x2="366" y1="2831.13" y2="2831.13" gradientUnits="userSpaceOnUse"><stop offset="0" stop-color="#4943ed"/><stop offset="1" stop-color="#7771f7"/></linearGradient></defs><g><g transform="translate(-366 -2798)"><g><g><use fill="url(#z9d2b)" xlink:href="#z9d2a"/></g></g></g></g></svg>