<svg xmlns="http://www.w3.org/2000/svg" xmlns:xlink="http://www.w3.org/1999/xlink" width="184" height="41" viewBox="0 0 184 41"><defs><path id="ccxta" d="M141.167 54.077c-.228 0-.457-.059-.686-.206-.142-.088-3.171-1.703-3.171-4.727 0-1.821 1.057-3.495 3.171-4.934 2.2-1.497 4.229-2.378 6.058-2.643 2.571-.352 5.028 1.293 5.742 3.789.429 1.497.143 2.936-.8 4.17-2.114 2.672-3.342 3.758-3.4 3.787a1.197 1.197 0 0 1-1.714-.146c-.428-.529-.371-1.322.143-1.762 0 0 1.143-.999 3.057-3.436.457-.558.572-1.175.372-1.88-.372-1.32-1.686-2.172-3.086-1.996-1.457.205-3.143.94-5 2.232-1.372.94-2.057 1.879-2.057 2.819 0 1.38 1.485 2.73 2.057 3.142.571.381.943 1.38.343 1.703-.4.176-.629.088-1.029.088z"/><path id="ccxtb" d="M143.918 67.182l-2.086-1.321c-.486-.294-.743-.91-.543-1.469 0-.029.029-.058.029-.088.114-.235.285-.44.514-.587l1.257-.764-3.857-1.262c-.543-.176-.886-.705-.857-1.292.028-.5.371-.91.8-1.087 1.457-.587 3-1.233 4.4-1.82-2.172.088-3.257 0-3.857-.089-.657-.088-1.457-.41-1.372-1.115.086-.676.8-.94 1.457-.999 1.086-.088 3.2-.293 5.172-.382 1.228-.058 2.4-.088 3.286-.117h1.114c.4 0 1.171.03 1.514.822.2.47.114 1.028-.257 1.41-.229.235-.371.381-5.6 2.555-.629.264-1.229.499-1.829.763l3.172 1.028c.4.117.714.44.828.851.172.558-.085 1.146-.542 1.44l-2.2 1.35 1.6 1.498c.485.44.142 1.233-.343 1.35-.486.118-1.8-.675-1.8-.675z"/><path id="ccxtc" d="M129.399 48.21c-.686-.058-1.172-.675-1.114-1.35a1.235 1.235 0 0 1 1.342-1.145l5.286.499c.686.059 1.172.411 1.114 1.116-.057.646-.657.705-1.285.705z"/><path id="ccxtd" d="M136.63 41.48c-.742-.646-1.714-1.087-3.885-1.762-.629-.176-1.029-.852-.886-1.498a1.258 1.258 0 0 1 1.543-.94c2.8.823 4.771 2.878 5.628 3.76l.286.293c.514.44.829 1.527.2 1.762-.257.088-.4.117-.543.088-.657-.117-.743-.352-1.028-.587-.457-.323-1.057-.881-1.315-1.116z"/><path id="ccxte" d="M145.826 37.988v0zm-1.229 1.263c.657 0 1.2-.529 1.229-1.204v-.118c.285-3.436-.029-5.491-.915-6.49a1.228 1.228 0 0 0-1.743-.088 1.312 1.312 0 0 0-.085 1.792s1.057 1.321.943 3.73c-.115 2.407.571 2.378.571 2.378l-.543-2.408z"/><path id="ccxtf" d="M152.373 40.98c-.2.117-.429.205-.686.205-.171 0-.286-.03-.457-.235a1.286 1.286 0 0 1 .114-1.791c.686-.587 4.086-3.641 5.229-4.287.6-.323 1.343-.118 1.657.499.314.616.114 1.38-.486 1.703-.685.382-3.285 2.056-4.743 3.377a4.072 4.072 0 0 1-.628.529z"/><path id="ccxtg" d="M155.08 47.062c-.142.03-.313.06-.485.06-.486 0-.914-.03-1.028-.559-.115-.675.371-.969 1.171-1.262.314-.118 1.771-.881 2.829-1.322 2.057-.793 2.657-1.028 2.942-1.086a1.234 1.234 0 0 1 1.458 1.204 1.21 1.21 0 0 1-1.029 1.262c-.314.088-1.629.529-2.6.823z"/><path id="ccxth" d="M168.773 52.056a8.067 8.067 0 0 0-2.267-.352c-1.148 0-2.06.235-2.737.674-.678.44-1.03 1.055-1.03 1.818 0 .674.176 1.23.559 1.64.382.411.853.763 1.383.997.56.235 1.295.528 2.267.821 1.118.323 2.03.645 2.708.967a5.072 5.072 0 0 1 1.766 1.407c.471.616.736 1.436.736 2.433 0 .88-.235 1.67-.736 2.345-.5.674-1.207 1.202-2.09 1.553-.912.381-1.943.557-3.09.557-1.149 0-2.267-.234-3.386-.674-1.09-.469-2.031-1.055-2.826-1.817l.765-1.348a7.79 7.79 0 0 0 2.59 1.7c.972.41 1.944.615 2.886.615 1.265 0 2.266-.264 3.002-.762.736-.498 1.119-1.202 1.119-2.052 0-.703-.177-1.26-.56-1.7a3.964 3.964 0 0 0-1.383-1.026c-.56-.234-1.325-.498-2.325-.82-1.12-.352-2.032-.674-2.709-.968a4.374 4.374 0 0 1-1.737-1.377c-.47-.616-.706-1.407-.706-2.374 0-.82.235-1.554.706-2.199.471-.615 1.149-1.113 2.002-1.436.854-.351 1.825-.498 2.973-.498.913 0 1.796.147 2.709.41a9.529 9.529 0 0 1 2.413 1.056l-.706 1.377a10.575 10.575 0 0 0-2.296-.967z"/><path id="ccxti" d="M194.881 55.72c.825.85 1.237 2.022 1.237 3.546v7.592h-1.62v-7.24c0-1.172-.323-2.081-.97-2.755-.648-.645-1.531-.967-2.65-.967-1.325.029-2.355.498-3.12 1.377-.736.88-1.119 2.052-1.119 3.488v6.067h-1.62v-7.21c0-1.172-.323-2.081-.97-2.755-.648-.645-1.531-.967-2.65-.967-1.325.029-2.355.498-3.12 1.377-.766.88-1.148 2.052-1.148 3.488v6.067H175.6v-12.34h1.59v2.902c.412-.967 1.03-1.7 1.825-2.198.824-.498 1.795-.733 2.973-.762 1.177 0 2.178.293 2.944.88.794.586 1.295 1.406 1.56 2.461.382-1.113 1-1.934 1.825-2.462.854-.557 1.884-.82 3.12-.85 1.472-.029 2.62.41 3.444 1.26z"/><path id="ccxtj" d="M206.221 64.807c.765-.5 1.295-1.233 1.56-2.172v-1.703h-4.003c-1.09 0-1.914.176-2.473.558-.56.352-.854.91-.854 1.614 0 .734.265 1.321.825 1.79.53.44 1.265.676 2.178.676 1.06.029 2.002-.235 2.767-.763zm1.59 2.022l-.03-2.081c-.5.733-1.118 1.26-1.913 1.612-.795.352-1.708.528-2.708.528-.825 0-1.56-.147-2.208-.47a3.576 3.576 0 0 1-1.472-1.318c-.353-.557-.53-1.202-.53-1.906 0-1.055.412-1.905 1.236-2.52.825-.616 1.973-.909 3.415-.909h4.18v-.967c0-.967-.294-1.73-.883-2.257-.589-.528-1.442-.791-2.561-.791-1.325 0-2.65.498-4.003 1.494l-.707-1.084a10.673 10.673 0 0 1 2.384-1.29c.766-.263 1.62-.41 2.591-.41 1.501 0 2.65.381 3.474 1.114.824.733 1.236 1.788 1.265 3.107l.03 8.177h-1.56z"/><path id="ccxtk" d="M216.606 55.192c.766-.498 1.678-.762 2.768-.762v1.495c-1.325-.03-2.355.352-3.15 1.143-.795.791-1.237 1.846-1.354 3.165v6.595h-1.59v-12.34h1.59v2.873c.382-.938.971-1.67 1.736-2.169z"/><path id="ccxtl" d="M227.855 65.973a5.008 5.008 0 0 1-2.738.908c-.942 0-1.707-.293-2.237-.879-.56-.586-.824-1.465-.824-2.609v-7.327h-1.767l-.029-1.231h1.796V51.64h1.59v3.195l4.032-.03v1.26h-4.033v7.094c0 1.524.56 2.286 1.708 2.286.618 0 1.324-.234 2.06-.674z"/><path id="ccxtm" d="M274.445 37.428a2.545 2.545 0 0 0-.97 1.068 3.404 3.404 0 0 0-.354 1.571c0 .597.118 1.131.353 1.571.236.471.56.817.971 1.068.412.252.883.377 1.413.377s1-.125 1.412-.377c.412-.251.736-.597.971-1.068.235-.471.353-.974.353-1.57 0-.598-.118-1.1-.353-1.572a2.545 2.545 0 0 0-.971-1.068 2.657 2.657 0 0 0-1.412-.377c-.56 0-1 .126-1.413.377zm3.266-.755c.558.314.97.786 1.294 1.383.323.597.47 1.257.47 1.98 0 .754-.147 1.414-.47 2.011a3.544 3.544 0 0 1-1.294 1.383 3.74 3.74 0 0 1-1.853.503c-.706 0-1.324-.157-1.853-.503-.56-.314-.97-.786-1.294-1.383-.324-.597-.471-1.257-.471-2.011 0-.755.147-1.415.47-1.98.324-.566.736-1.037 1.295-1.383a3.74 3.74 0 0 1 1.853-.503c.676.031 1.294.189 1.853.503z"/><path id="ccxtn" d="M287.005 36.996c.5.534.735 1.257.735 2.2v4.714h-.941v-4.494c0-.723-.177-1.289-.559-1.697-.382-.409-.882-.629-1.559-.629-.735 0-1.323.251-1.765.723-.44.471-.705 1.131-.764 1.948v4.149h-.912v-7.669h.912v1.792a2.847 2.847 0 0 1 1.088-1.352c.47-.314 1.059-.471 1.765-.471.823 0 1.5.251 2 .786z"/><path id="ccxto" d="M290.06 33.03h.912v10.874h-.912z"/><path id="ccxtp" d="M293.558 36.24h.909v7.7h-.91zm.91-2.704c.118.126.177.283.177.503a.742.742 0 0 1-.177.503c-.117.126-.265.22-.441.22s-.323-.063-.47-.22a.742.742 0 0 1-.177-.503c0-.188.059-.345.176-.503a.6.6 0 0 1 .471-.188c.176-.032.324.031.441.188z"/><path id="ccxtq" d="M302.735 36.996c.5.534.735 1.257.735 2.2v4.714h-.941v-4.494c0-.723-.177-1.289-.559-1.697-.382-.409-.882-.629-1.559-.629-.735 0-1.323.251-1.765.723-.44.471-.705 1.131-.764 1.948v4.149h-.912v-7.669h.912v1.792a2.847 2.847 0 0 1 1.088-1.352c.47-.314 1.059-.471 1.765-.471.853 0 1.53.251 2 .786z"/><path id="ccxtr" d="M311.088 39.622c-.06-.816-.294-1.442-.736-1.913-.44-.47-1.058-.72-1.764-.72-.736 0-1.324.25-1.824.72s-.765 1.097-.823 1.913zm0-2.29c.588.755.853 1.792.823 3.05h-6c.059.817.353 1.477.853 1.98.5.502 1.118.754 1.853.754.47 0 .882-.095 1.265-.252.382-.188.735-.44 1.03-.754l.529.566a3.514 3.514 0 0 1-1.265.943c-.5.22-1.03.345-1.618.345-.706 0-1.323-.157-1.853-.503a3.278 3.278 0 0 1-1.264-1.382 4.471 4.471 0 0 1-.471-2.012c0-.754.147-1.414.47-2.011.295-.597.736-1.037 1.265-1.383a3.55 3.55 0 0 1 1.824-.503c1.147.031 1.97.409 2.559 1.163z"/><path id="ccxts" d="M242.848 50.51v3.26h-8.129v3.378h7.316v3.115h-7.316v3.406h8.39v3.232H231.09V50.51z"/><path id="ccxtt" d="M249.063 59.855v7.016h-3.513V54.265h3.513v1.426c1.045-1.077 2.235-1.601 3.57-1.601 1.336 0 2.44.466 3.34 1.397.9.932 1.335 2.184 1.335 3.756V66.9h-3.513v-7.133c0-1.921-.697-2.911-2.12-2.911-.696 0-1.306.262-1.828.757-.523.495-.784 1.252-.784 2.242z"/><path id="ccxtu" d="M268.945 60.329c0-1.02-.29-1.805-.842-2.388-.552-.582-1.249-.873-2.09-.873-.814 0-1.54.291-2.15.873-.609.583-.9 1.369-.9 2.358 0 .99.291 1.806.872 2.417.58.611 1.306.932 2.148.932.842 0 1.539-.292 2.09-.903.581-.611.872-1.427.872-2.416zm.493 4.425c-1.103 1.223-2.468 1.863-4.123 1.863-1.654 0-3.019-.553-4.151-1.688-1.132-1.107-1.684-2.62-1.684-4.484 0-1.863.58-3.406 1.742-4.6 1.161-1.194 2.497-1.805 3.977-1.805 1.481 0 2.73.611 3.716 1.863v-1.66h3.513V65.22c0 1.135-.203 2.125-.58 2.998-.378.874-.9 1.573-1.568 2.068-1.306 1.019-2.816 1.543-4.587 1.543a9.26 9.26 0 0 1-2.874-.466c-.987-.291-1.83-.728-2.555-1.31l1.364-2.65c1.162.874 2.381 1.31 3.658 1.31 1.278 0 2.294-.32 3.049-.96.726-.583 1.103-1.602 1.103-3z"/><path id="ccxtv" d="M278.903 66.871h-3.513V49.49h3.513z"/><path id="ccxtw" d="M285.372 66.88h-3.511V54.274h3.511zm-3.192-14.207c-.407-.408-.61-.874-.61-1.456s.203-1.077.61-1.456c.406-.378.87-.611 1.451-.611.58 0 1.074.204 1.452.611.377.408.61.874.61 1.456s-.204 1.077-.61 1.456c-.407.407-.871.611-1.452.611-.58 0-1.074-.204-1.451-.611z"/><path id="ccxtx" d="M297.83 62.94c0 1.253-.464 2.242-1.364 3-.9.756-2.061 1.135-3.455 1.135-.929 0-1.916-.175-2.932-.495a9.183 9.183 0 0 1-2.729-1.485l1.539-2.213c1.306 1.02 2.7 1.514 4.18 1.514.465 0 .813-.087 1.075-.262.26-.174.406-.407.406-.728 0-.29-.174-.582-.552-.815-.377-.262-.9-.495-1.596-.698-.697-.233-1.22-.408-1.597-.554-.378-.145-.784-.378-1.249-.67-.958-.582-1.422-1.484-1.422-2.62 0-1.164.464-2.125 1.393-2.853.93-.728 2.149-1.106 3.63-1.106 1.48 0 2.96.495 4.441 1.485l-1.306 2.329c-1.103-.757-2.177-1.136-3.252-1.136-1.074 0-1.625.292-1.625.903 0 .32.174.582.522.786.348.175.9.408 1.713.67.784.262 1.365.436 1.684.582.348.146.726.35 1.19.611.871.495 1.307 1.398 1.307 2.62z"/><path id="ccxty" d="M303.693 60.087v6.784h-3.513V49.49h3.513v6.201c1.045-1.077 2.235-1.601 3.57-1.601 1.307 0 2.41.466 3.34 1.397.9.932 1.364 2.184 1.364 3.756V66.9h-3.513V60c0-1.921-.697-2.911-2.12-2.911-.696 0-1.306.262-1.828.757-.552.524-.813 1.252-.813 2.241z"/></defs><g><g transform="translate(-128 -31)"><g><g><use fill="#4a44f0" xlink:href="#ccxta"/></g><g><use fill="#4a44f0" xlink:href="#ccxtb"/></g><g><use fill="#4a44f0" xlink:href="#ccxtc"/></g><g><use fill="#4a44f0" xlink:href="#ccxtd"/></g><g><use fill="#4a44f0" xlink:href="#ccxte"/></g><g><use fill="#4a44f0" xlink:href="#ccxtf"/></g><g><use fill="#4a44f0" xlink:href="#ccxtg"/></g></g><g><g><use fill="#182243" xlink:href="#ccxth"/></g><g><use fill="#182243" xlink:href="#ccxti"/></g><g><use fill="#182243" xlink:href="#ccxtj"/></g><g><use fill="#182243" xlink:href="#ccxtk"/></g><g><use fill="#182243" xlink:href="#ccxtl"/></g></g><g><g><use fill="#182243" xlink:href="#ccxtm"/></g><g><use fill="#182243" xlink:href="#ccxtn"/></g><g><use fill="#182243" xlink:href="#ccxto"/></g><g><use fill="#182243" xlink:href="#ccxtp"/></g><g><use fill="#182243" xlink:href="#ccxtq"/></g><g><use fill="#182243" xlink:href="#ccxtr"/></g></g><g><g><use fill="#182243" xlink:href="#ccxts"/></g><g><use fill="#182243" xlink:href="#ccxtt"/></g><g><use fill="#182243" xlink:href="#ccxtu"/></g><g><use fill="#182243" xlink:href="#ccxtv"/></g><g><use fill="#182243" xlink:href="#ccxtw"/></g><g><use fill="#182243" xlink:href="#ccxtx"/></g><g><use fill="#182243" xlink:href="#ccxty"/></g></g></g></g></svg>