<svg xmlns="http://www.w3.org/2000/svg" xmlns:xlink="http://www.w3.org/1999/xlink" width="51" height="55" viewBox="0 0 51 55"><defs><path id="qss1a" d="M989.695 2832.346h-44.4l2.606 4.697h3.786l-.295-1.778c-.05-.274.05-.502.197-.684a1.01 1.01 0 0 1 .688-.274h30.485c.246 0 .54.137.688.32.197.182.246.455.197.683l-.344 1.733h3.786a260.28 260.28 0 0 1 2.606-4.697zm-44.793-1.746h45.246c.59 0 1.082-.41 1.082-.955 0-.545-.492-1-1.082-1h-45.246c-.59 0-1.082.455-1.082 1 0 .546.491 1 1.082.955zm48.098-.904c0 .731-.344 1.417-.836 1.874 0 .137-.05.274-.148.41-.491.732-2.705 4.799-3.54 6.307-.197.274-.492.457-.837.457h-4.672l-2.311 12.566c-.05.411-.443.686-1.033.686-.492-.046-.836-.503-.738-.96l2.46-13.206v-.091l.344-1.737H953.31l.246 1.737 3.066 13.297a.883.883 0 0 1-.787.96c-.492.045-.984-.275-1.033-.731l-2.918-12.521h-4.524c-.345 0-.689-.183-.836-.457l-3.541-6.398c-.05-.09-.099-.182-.099-.274-.54-.502-.885-1.188-.885-1.965 0-1.462 1.279-2.65 2.852-2.65h45.246c1.623 0 2.902 1.188 2.902 2.696zm-20.251-18.56v-4.677c-1.371-.208-3.246-.52-4.937-.936-3.109-.78-5.211-2.286-5.303-2.338-.411-.312-.503-.884-.274-1.352.229-.467.731-.571 1.143-.311.045.051 1.965 1.403 4.754 2.078 1.874.468 4.114.832 5.394.988-.503-1.975-2.103-5.717-6.948-5.717-5.714 0-7.086 4.677-7.406 7.12.366-.208.823-.468 1.28-.883.366-.312.914-.208 1.189.207.274.416.183 1.04-.183 1.352-.412.363-.823.675-1.189.883v3.638c0 2.39 1.006 4.47 2.606 5.717.091.052.183.156.274.208a5.324 5.324 0 0 0 3.2 1.04h.183c3.337 0 6.08-3.119 6.217-7.017zm3.142 14.292c-.182.312-.456.52-.776.52-.137 0-.228-.052-.366-.104-.274-.156-.456-.312-.685-.416-1.187-.727-1.918-1.247-2.101-1.403-.411-.26-1.964-1.455-2.284-4.677-1.005.467-2.101.78-3.244.78h-.182c-1.05 0-2.056-.26-2.97-.676-.045 2.234-1.096 4.21-2.649 5.093l-.046.052-2.375 1.3c-.137.051-.229.103-.366.103-.32 0-.64-.208-.776-.572-.183-.52 0-1.04.411-1.299l2.467-1.351c1.005-.52 1.69-1.975 1.69-3.534v-.884c-1.919-1.61-3.152-4.21-3.152-7.12v-2.91c-.137.052-.183.052-.228.052h-.092a.794.794 0 0 1-.548-.26 1.1 1.1 0 0 1-.274-.728c0-.467.091-10.394 9.182-10.394 6.44 0 8.588 5.665 8.816 8.68a.931.931 0 0 1-.228.779c-.183.208-.457.312-.685.26h-.137v4.47c0 2.806-1.142 5.3-2.924 6.911 0 3.275 1.416 4.106 1.462 4.158l.091.052s.685.52 1.965 1.3c.182.103.41.26.639.363.457.26.594.832.365 1.455z"/><linearGradient id="qss1b" x1="993" x2="942" y1="2827.42" y2="2827.42" gradientUnits="userSpaceOnUse"><stop offset="0" stop-color="#4a44ed"/><stop offset="1" stop-color="#8179f9"/></linearGradient></defs><g><g transform="translate(-942 -2797)"><g><use fill="url(#qss1b)" xlink:href="#qss1a"/></g></g></g></svg>