<svg xmlns="http://www.w3.org/2000/svg" xmlns:xlink="http://www.w3.org/1999/xlink" width="69" height="52" viewBox="0 0 69 52"><defs><path id="7fy6a" d="M367.5 2358c.284 0 .5-.463.5-1.027v-.946c0-.584-.225-1.027-.5-1.027-.274 0-.5.463-.5 1.027v.946c-.01.584.216 1.027.5 1.027z"/><path id="7fy6c" d="M376.5 2358c.284 0 .5-.463.5-1.027v-.946c0-.584-.225-1.027-.5-1.027s-.5.463-.5 1.027v.946c0 .584.225 1.027.5 1.027z"/><path id="7fy6e" d="M369.338 2360.818c.841.761 1.957 1.182 3.164 1.182s2.34-.42 3.163-1.182c.402-.38.439-1.002.128-1.443-.33-.44-.914-.5-1.317-.14-.493.44-1.225.701-1.974.701-.768 0-1.481-.26-1.975-.7-.402-.362-.987-.301-1.317.14a.976.976 0 0 0-.2.74 1 1 0 0 0 .328.702z"/><path id="7fy6g" d="M366.201 2353.18l.354-1.361h11.837l.354 1.36c.282 1.135 1.307 1.92 2.49 1.92h1.184c.407 0 .743.332.743.733a.742.742 0 0 1-.743.733h-.83a.888.888 0 0 0-.9.89c0 4.467-3.676 8.114-8.199 8.114s-8.215-3.647-8.215-8.114a.888.888 0 0 0-.901-.89h-.83a.742.742 0 0 1-.743-.733c0-.401.336-.733.742-.733h1.184c1.166 0 2.19-.785 2.473-1.92zm6.278 18.95c-1.328 0-2.426-1.064-2.426-2.39v-2.67c1.611.384 3.24.384 4.833 0v2.67c.018 1.308-1.062 2.39-2.407 2.39zm9.058 3.019a.908.908 0 0 0-.247-1.239c-.389-.28-.972-.157-1.255.244l-1.643 2.443a.824.824 0 0 0-.159.506v14.379h-11.466v-14.379a.901.901 0 0 0-.16-.506l-1.66-2.443a.961.961 0 0 0-.583-.384.84.84 0 0 0-.671.14.889.889 0 0 0-.248 1.239l1.52 2.234v1.29h-3.18v-4.257c0-.977.6-1.85 1.519-2.216l4.982-1.972c.248 2.077 2.05 3.682 4.188 3.682 2.155 0 3.94-1.588 4.187-3.682l5 1.972c.919.366 1.52 1.221 1.52 2.216v4.258h-3.163v-1.291zm-.318-21.847a.773.773 0 0 1-.742-.558l-.23-.925h1.272v1.483zm-17.738-3.253c.459-4.071 4.01-7.234 8.162-7.234h1.66c4.17 0 7.704 3.163 8.163 7.234zm-.053 1.77h1.272l-.248.942c-.07.332-.388.558-.742.558h-.282zm1.529 28.617v11.036h-2.342v-11.036zm17.41 0v11.036h-2.332v-11.036zm-.035-9.894l-5.636-2.233v-1.885c3.251-1.483 5.442-4.554 5.76-8.079 1.396-.017 2.526-1.152 2.526-2.53 0-1.065-.653-1.99-1.66-2.373v-2.548c0-5.444-4.488-9.894-10.018-9.894h-1.66c-5.178 0-9.524 3.944-9.966 8.987h-5.777a.888.888 0 0 0-.901.89.9.9 0 0 0 .901.89h5.724v1.657a2.537 2.537 0 0 0-1.66 2.373c0 1.379 1.13 2.513 2.526 2.53.318 3.508 2.509 6.579 5.76 8.08v1.884l-5.636 2.234a4.135 4.135 0 0 0-2.65 3.874v4.327c0 .593.318 1.134.83 1.448v11.936c0 .558.477.977 1.06.873h3.834a.973.973 0 0 0 .318 0h12.95a.973.973 0 0 0 .319 0h3.834a.495.495 0 0 0 .159.017.888.888 0 0 0 .9-.89v-11.953c.513-.314.831-.872.831-1.448v-4.328a4.22 4.22 0 0 0-2.668-3.839z"/><path id="7fy6i" d="M400 2367.015c0-.574-.217-1.015-.5-1.015-.272 0-.5.463-.5 1.015v.97c0 .552.228 1.015.5 1.015s.5-.463.5-1.015z"/><path id="7fy6k" d="M407.5 2366c-.272 0-.5.463-.5 1.015v.97c0 .552.228 1.015.5 1.015s.5-.463.5-1.015v-.97c0-.552-.217-1.015-.5-1.015z"/><path id="7fy6m" d="M407.195 2371.003a.88.88 0 0 0-.679.24c-.499.46-1.238.723-1.996.723-.759 0-1.497-.263-1.996-.722-.4-.35-.978-.284-1.318.131-.319.438-.26 1.072.12 1.444.839.765 1.976 1.181 3.174 1.181s2.335-.416 3.174-1.181c.38-.35.439-1.006.12-1.422a.708.708 0 0 0-.6-.394z"/><path id="7fy6o" d="M391.895 2358.82c-2.221 1.67-3.457 4.22-4.03 5.75l-3.959-3.324c2.06-3.464 4.747-5.398 7.989-5.75.143-.017.269-.034.412-.034-.305.72-.573 1.828-.412 3.358zm20.59-.95c-.179-.07-.357-.14-.57-.228a10.299 10.299 0 0 0-1.427-1.882c.357-.087.838-.193 1.39-.263.25.387.607 1.125.607 2.373zm-7.21 21.838c0 1.23-1.02 2.215-2.256 2.215-1.236 0-2.257-1.002-2.257-2.215v-2.497a9.866 9.866 0 0 0 4.532 0v2.497zm-8.203 5.89l-2.813-3.306 4.819-2.092c.233 1.916 1.917 3.376 3.905 3.376 1.988 0 3.672-1.46 3.905-3.376l4.818 2.092-2.776 3.306c-.358.422-.555.95-.555 1.494v4.326h-10.748v-4.326c0-.545-.197-1.09-.555-1.494zm5.924-9.758c-4.243 0-7.68-3.394-7.68-7.543a.826.826 0 0 0-.824-.81h-.788a.712.712 0 0 1-.716-.702c0-.387.322-.704.716-.704.447 0 .823-.369.823-.808v-.704h16.937v.704c0 .44.376.808.824.808.394 0 .716.317.716.704a.712.712 0 0 1-.716.703h-.788a.826.826 0 0 0-.824.809c0 4.15-3.437 7.543-7.68 7.543zm-8.468-12.941v-.703c0-4.167 3.457-7.543 7.703-7.543h1.54c4.245 0 7.685 3.393 7.685 7.543v.703zm1.003-7.121a9.802 9.802 0 0 0-1.433 1.864c-.179.053-.376.14-.59.228 0-1.336.411-2.074.608-2.356.484.053.95.14 1.415.264zm.43 31.314v4.326h-2.221v-6.031a2.4 2.4 0 0 1 .197-.914l1.845 2.162c.125.14.18.317.18.457zm14.259-.44l1.845-2.162c.125.281.197.598.197.914v6.031h-2.222v-4.343c0-.176.054-.316.18-.44zm3.493-31.19c.107 0 .232.017.358.017 3.26.334 5.965 2.268 8.043 5.75l-3.96 3.34c-.572-1.53-1.808-4.079-4.03-5.75.162-1.529-.107-2.637-.411-3.357zm10.192 5.59c-1.648-2.988-4.657-6.68-9.673-7.19a11.764 11.764 0 0 0-5.266.685 9.444 9.444 0 0 0-5.195-1.547h-1.54a9.501 9.501 0 0 0-5.195 1.547 11.422 11.422 0 0 0-5.266-.685c-4.998.51-8.025 4.184-9.673 7.19-.18.352-.108.774.197 1.003l5.427 4.571c.144.123.34.194.538.194.071 0 .143-.018.197-.018l.054-.017a.828.828 0 0 0 .555-.58c.018-.036 1.11-4.203 4.066-6.242a9.542 9.542 0 0 0-.287 2.233v2.373c-.931.352-1.54 1.213-1.54 2.18 0 1.284 1.057 2.321 2.364 2.339.287 3.27 2.347 6.136 5.392 7.525v1.776l-5.553 2.426c-.466.211-.806.598-.913 1.09-.108.422-.018.862.215 1.231a3.858 3.858 0 0 0-.735 2.268v6.77c0 .492.484.896.985.808h19.865c.054.018.108.018.144.018.448 0 .824-.37.824-.809v-6.769c0-.809-.269-1.6-.735-2.268.251-.352.323-.791.215-1.23a1.602 1.602 0 0 0-.913-1.091l-5.553-2.426v-1.776c3.045-1.39 5.087-4.238 5.391-7.526 1.308-.017 2.365-1.054 2.365-2.338 0-.985-.627-1.864-1.54-2.198v-2.356c0-.756-.09-1.494-.287-2.233 2.955 2.04 4.048 6.19 4.066 6.242a.83.83 0 0 0 .555.58l.054.018a.684.684 0 0 0 .197.017c.197 0 .394-.07.537-.193l5.428-4.571c.34-.282.412-.704.233-1.02z"/><linearGradient id="7fy6b" x1="367" x2="368" y1="2358" y2="2358" gradientUnits="userSpaceOnUse"><stop offset="0" stop-color="#8179f9"/><stop offset="1" stop-color="#4943ed"/></linearGradient><linearGradient id="7fy6d" x1="376" x2="377" y1="2358" y2="2358" gradientUnits="userSpaceOnUse"><stop offset="0" stop-color="#8179f9"/><stop offset="1" stop-color="#4943ed"/></linearGradient><linearGradient id="7fy6f" x1="369" x2="376" y1="2362" y2="2362" gradientUnits="userSpaceOnUse"><stop offset="0" stop-color="#8179f9"/><stop offset="1" stop-color="#4943ed"/></linearGradient><linearGradient id="7fy6h" x1="355" x2="385" y1="2393" y2="2393" gradientUnits="userSpaceOnUse"><stop offset="0" stop-color="#8179f9"/><stop offset="1" stop-color="#4943ed"/></linearGradient><linearGradient id="7fy6j" x1="399" x2="400" y1="2369" y2="2369" gradientUnits="userSpaceOnUse"><stop offset="0" stop-color="#8179f9"/><stop offset="1" stop-color="#4943ed"/></linearGradient><linearGradient id="7fy6l" x1="407" x2="408" y1="2369" y2="2369" gradientUnits="userSpaceOnUse"><stop offset="0" stop-color="#8179f9"/><stop offset="1" stop-color="#4943ed"/></linearGradient><linearGradient id="7fy6n" x1="401" x2="408" y1="2374" y2="2374" gradientUnits="userSpaceOnUse"><stop offset="0" stop-color="#8179f9"/><stop offset="1" stop-color="#4943ed"/></linearGradient><linearGradient id="7fy6p" x1="382" x2="424" y1="2393" y2="2393" gradientUnits="userSpaceOnUse"><stop offset="0" stop-color="#8179f9"/><stop offset="1" stop-color="#4943ed"/></linearGradient></defs><g><g transform="translate(-355 -2341)"><g><use fill="url(#7fy6b)" xlink:href="#7fy6a"/></g><g><use fill="url(#7fy6d)" xlink:href="#7fy6c"/></g><g><use fill="url(#7fy6f)" xlink:href="#7fy6e"/></g><g><use fill="url(#7fy6h)" xlink:href="#7fy6g"/></g><g><use fill="url(#7fy6j)" xlink:href="#7fy6i"/></g><g><use fill="url(#7fy6l)" xlink:href="#7fy6k"/></g><g><use fill="url(#7fy6n)" xlink:href="#7fy6m"/></g><g><use fill="url(#7fy6p)" xlink:href="#7fy6o"/></g></g></g></svg>