<?xml version="1.0" encoding="UTF-8"?>
<svg width="25px" height="25px" viewBox="0 0 25 25" version="1.1" xmlns="http://www.w3.org/2000/svg" xmlns:xlink="http://www.w3.org/1999/xlink">
    <!-- Generator: Sketch 61.2 (89653) - https://sketch.com -->
    <title>Fill 1@SVG</title>
    <desc>Created with Sketch.</desc>
    <g id="Billboard" stroke="none" stroke-width="1" fill="none" fill-rule="#fff">
        <g id="MOBILE---iPhone-SE-(320x568)" transform="translate(-31.000000, -343.000000)" fill="#FFFFFF">
            <g id="Group-2" transform="translate(31.000000, 343.000000)">
                <path d="M18.8103922,24.7999985 C17.9420341,24.8003161 17.1112468,24.604026 16.3066731,24.3200047 C15.1652034,23.9170901 14.0270422,23.4995483 12.9100365,23.0340549 C11.4929739,22.4435628 10.2323022,21.5828817 9.04467237,20.6193018 C6.82647178,18.8195888 4.84661155,16.7921056 3.2011659,14.4490574 C2.28807924,13.148862 1.60916549,11.7326032 1.09904966,10.2322701 C0.799788066,9.35206489 0.457897525,8.48305267 0.217012145,7.58704379 C-0.24548015,5.86692171 0.0514273052,4.2273444 0.915745173,2.68990281 C1.18930214,2.20329539 1.51573174,1.74327125 1.84922374,1.29428107 C2.1823658,0.845767861 2.63372367,0.545497728 3.17746547,0.389750285 C3.87009047,0.191329695 4.56281091,0.000254483406 5.29240221,0 C5.52660693,0 5.72588136,0.0694155062 5.85532703,0.265419435 C6.05603304,0.569378155 6.2526034,0.877152656 6.4314223,1.19430762 C7.01066702,2.22161114 7.57505523,3.25734118 8.15830834,4.28235523 C8.34097657,4.60338957 8.57499042,4.89478802 8.76844314,5.21022588 C9.15922972,5.84746123 9.13635643,6.20649438 8.61803293,6.74490102 C8.25600499,7.1209462 7.84959839,7.4547634 7.45817555,7.80196763 C7.04693344,8.16675626 6.62446146,8.5190164 6.21694142,8.88781159 C5.83811639,9.23062768 5.74162863,9.64082409 5.99304399,10.101834 C6.23844677,10.5517781 6.49068927,10.9980972 6.74690834,11.4419679 C7.54174738,12.8188923 8.47939341,14.0892293 9.60686551,15.2133264 C10.7266708,16.3297284 11.9910327,17.2578535 13.3578632,18.0494371 C13.682893,18.2376823 14.0003196,18.4397915 14.3308212,18.6176387 C14.539035,18.7297272 14.762837,18.8145011 14.9838713,18.9006424 C15.2080869,18.987992 15.4198,18.945446 15.616275,18.8101766 C16.0363292,18.5210358 16.3490793,18.1255302 16.6760497,17.7442065 C17.085574,17.2666934 17.488513,16.7833611 17.9060222,16.3129072 C18.0308868,16.1722321 18.1901728,16.0598891 18.3421736,15.9459245 C18.6374268,15.724641 18.9581301,15.7099185 19.2859595,15.8642032 C19.4386284,15.9360671 19.5924425,16.0127325 19.7289188,16.110639 C20.6305529,16.7574456 21.6138183,17.2652942 22.5826407,17.79785 C23.0462146,18.0527123 23.5148149,18.298703 23.9735852,18.5618965 C24.1882569,18.6850508 24.3891856,18.8338344 24.5883964,18.9816959 C24.7381386,19.0928623 24.8011594,19.2570045 24.7999985,19.4408615 C24.7939698,20.3748374 24.5763712,21.2649636 24.2072809,22.1164233 C24.0442411,22.4925956 23.7407802,22.7705434 23.4217629,23.0187282 C22.3543531,23.8492646 21.1814208,24.4615384 19.8343777,24.6910894 C19.4966865,24.7486441 19.151901,24.7648294 18.8103922,24.7999985" id="Fill-1"></path>
            </g>
        </g>
    </g>
</svg>