<svg xmlns="http://www.w3.org/2000/svg" xmlns:xlink="http://www.w3.org/1999/xlink" width="53" height="53" viewBox="0 0 53 53">
  <metadata><?xpacket begin="﻿" id="W5M0MpCehiHzreSzNTczkc9d"?>
<x:xmpmeta xmlns:x="adobe:ns:meta/" x:xmptk="Adobe XMP Core 5.6-c142 79.160924, 2017/07/13-01:06:39        ">
   <rdf:RDF xmlns:rdf="http://www.w3.org/1999/02/22-rdf-syntax-ns#">
      <rdf:Description rdf:about=""/>
   </rdf:RDF>
</x:xmpmeta>
                                                                                                    
                                                                                                    
                                                                                                    
                                                                                                    
                                                                                                    
                                                                                                    
                                                                                                    
                                                                                                    
                                                                                                    
                                                                                                    
                                                                                                    
                                                                                                    
                                                                                                    
                                                                                                    
                                                                                                    
                                                                                                    
                                                                                                    
                                                                                                    
                                                                                                    
                                                                                                    
                           
<?xpacket end="w"?></metadata>
<defs>
    <style>
      .cls-1 {
        fill-rule: evenodd;
        filter: url(#filter);
      }
    </style>
    <filter id="filter" x="0" y="0" width="53" height="53" filterUnits="userSpaceOnUse">
      <feFlood result="flood" flood-color="#a79fa7"/>
      <feComposite result="composite" operator="in" in2="SourceGraphic"/>
      <feBlend result="blend" in2="SourceGraphic"/>
    </filter>
  </defs>
  <path id="icon1" class="cls-1" d="M3.312,44.167a3.313,3.313,0,1,0,3.312,3.312A3.316,3.316,0,0,0,3.312,44.167Zm0,4.417a1.1,1.1,0,1,1,1.1-1.1A1.1,1.1,0,0,1,3.312,48.583Zm23.188,0a6.605,6.605,0,0,0,4.523-11.437c-6.656-17.3,1.9-35.383,1.992-35.564A1.1,1.1,0,0,0,31.122.46c-0.459.643-11.247,16.04-11.247,41.5A6.634,6.634,0,0,0,26.5,48.583Zm0.539-34.826A45.47,45.47,0,0,0,29.059,38.2a1.1,1.1,0,0,0,.307.43,4.407,4.407,0,1,1-7.283,3.328A81.376,81.376,0,0,1,27.039,13.757Zm22.649,28.2a1.1,1.1,0,1,0,0-2.208H36.327a1.1,1.1,0,0,0-1.1,1.226l0.046,0.351a4.566,4.566,0,0,1,.06.632,8.833,8.833,0,0,1-17.667,0,4.634,4.634,0,0,1,.057-0.612L17.768,41a1.208,1.208,0,0,0-.006-0.282,1.1,1.1,0,0,0-1.1-.968H1.1a1.1,1.1,0,1,0,0,2.208H15.458a11.042,11.042,0,1,0,22.083,0H49.688Zm0,4.417A3.313,3.313,0,1,0,53,49.687,3.316,3.316,0,0,0,49.688,46.375Zm0,4.417a1.1,1.1,0,1,1,1.1-1.1A1.1,1.1,0,0,1,49.688,50.792ZM12.146,46.375a3.313,3.313,0,1,0,3.313,3.312A3.316,3.316,0,0,0,12.146,46.375Zm0,4.417a1.1,1.1,0,1,1,1.1-1.1A1.1,1.1,0,0,1,12.146,50.792Zm28.708-6.625a3.313,3.313,0,1,0,3.313,3.312A3.316,3.316,0,0,0,40.854,44.167Zm0,4.417a1.1,1.1,0,1,1,1.1-1.1A1.1,1.1,0,0,1,40.854,48.583Z"/>
</svg>
