<svg width="114" height="114" xmlns="http://www.w3.org/2000/svg"><g id="Pages" stroke="none" stroke-width="1" fill="none" fill-rule="evenodd"><g id="Brokermint-Request-success" transform="translate(-663 -182)"><g id="Group-3" transform="translate(663 182)"><rect id="Rectangle" fill="#0EA7AE" fill-rule="nonzero" x="33" y="33" width="48" height="48" rx="24"/><rect id="Rectangle-Copy-2" fill="#0EA7AE" fill-rule="nonzero" opacity=".5" x="17" y="17" width="80" height="80" rx="40"/><rect id="Rectangle-Copy-3" stroke="#0EA7AE" stroke-width="3" opacity=".5" fill-rule="nonzero" x="1.5" y="1.5" width="111" height="111" rx="55.5"/><path d="M67.603 51.347c.265.267.397.591.397.973 0 .381-.132.706-.397.973L55.396 65.599a1.31 1.31 0 0 1-.965.401c-.379 0-.7-.134-.965-.4l-7.069-7.127A1.33 1.33 0 0 1 46 57.5c0-.382.132-.706.397-.973l1.93-1.946c.266-.267.587-.4.966-.4.378 0 .7.133.965.4l4.173 4.221 9.31-9.401c.266-.267.588-.401.966-.401.379 0 .7.134.965.4l1.93 1.947z" id="" fill="#FFF"/></g></g></g></svg>