<svg version="1.1" id="Layer_1" xmlns="http://www.w3.org/2000/svg" x="0" y="0" viewBox="0 0 1650.5 279.8" xml:space="preserve" enable-background="new 0 0 1650.5 279.8"><style>.st7{fill:#0ea7ae}</style><filter filterUnits="objectBoundingBox" height="335.3%" id="filter-7" width="335.3%" x="-117.6%" y="-94.1%"><feMorphology in="SourceAlpha" operator="dilate" radius="6" result="shadowSpreadOuter1"/><feOffset dy="4" in="shadowSpreadOuter1" result="shadowOffsetOuter1"/><feGaussianBlur in="shadowOffsetOuter1" result="shadowBlurOuter1" stdDeviation="4"/><feComposite in="shadowBlurOuter1" in2="SourceAlpha" operator="out" result="shadowBlurOuter1"/><feColorMatrix in="shadowBlurOuter1" values="0 0 0 0 0 0 0 0 0 0 0 0 0 0 0 0 0 0 0.15 0"/></filter><g id="Pages"><g id="Graph-line" transform="translate(17 1)"><linearGradient id="Path-Copy_1_" gradientUnits="userSpaceOnUse" x1="743.715" y1="190.493" x2="743.718" y2="191.086" gradientTransform="matrix(1649.792 0 0 -389.4289 -1226167.25 74444.922)"><stop offset="0" stop-color="#fff" stop-opacity=".38"/><stop offset="1" stop-color="#0ea7ae" stop-opacity=".07"/></linearGradient><path id="Path-Copy" d="M-16.3 278.1c60.7-57.3 140.3-50.7 239-27.5 148 34.7 216-135.5 481.5-58.9S954.7 62.9 1183.7 129s287-129 449-129c1.1 86 1.1 102.4 0 276h-1649v2.1z" fill="url(#Path-Copy_1_)"/><g id="Path"><path id="path-2_1_" d="M-16.3 278.1c60.7-57.3 140.3-50.7 239-27.5 148 34.7 216-135.5 481.5-58.9S954.7 62.9 1183.7 129s287-129 449-129" fill="none" stroke="#0ea7ae" stroke-width="2"/></g><linearGradient id="Rectangle_2_" gradientUnits="userSpaceOnUse" x1="-32.813" y1="190.602" x2="-32.813" y2="191.135" gradientTransform="matrix(1 0 0 -296 1143 56694)"><stop offset="0" stop-color="#fff" stop-opacity=".2"/><stop offset="1" stop-color="#0ea7ae" stop-opacity=".4"/></linearGradient><path id="Rectangle" fill="url(#Rectangle_2_)" d="M1109.7 117.5h1v158.3h-1z"/><linearGradient id="Rectangle-Copy_1_" gradientUnits="userSpaceOnUse" x1="-32.813" y1="190.618" x2="-32.813" y2="191.16" gradientTransform="matrix(1 0 0 -287 1411 54984)"><stop offset="0" stop-color="#fff" stop-opacity=".2"/><stop offset=".996" stop-color="#0ea7ae" stop-opacity=".4"/></linearGradient><path id="Rectangle-Copy" fill="url(#Rectangle-Copy_1_)" d="M1377.7 121h1v155.8h-1z"/><linearGradient id="Rectangle-Copy-21_1_" gradientUnits="userSpaceOnUse" x1="-32.813" y1="191.118" x2="-32.813" y2="191.559" gradientTransform="matrix(1 0 0 -159 874 30664)"><stop offset="0" stop-color="#fff" stop-opacity=".2"/><stop offset=".996" stop-color="#0ea7ae" stop-opacity=".4"/></linearGradient><path id="Rectangle-Copy-21" fill="url(#Rectangle-Copy-21_1_)" d="M840.7 206.2h1v70.1h-1z"/><linearGradient id="Rectangle-Copy-22_1_" gradientUnits="userSpaceOnUse" x1="-32.688" y1="190.953" x2="-32.688" y2="191.525" gradientTransform="matrix(1 0 0 -186 606 35794)"><stop offset="0" stop-color="#fff" stop-opacity=".2"/><stop offset=".996" stop-color="#0ea7ae" stop-opacity=".4"/></linearGradient><path id="Rectangle-Copy-22" fill="url(#Rectangle-Copy-22_1_)" d="M572.7 170.3h1l.2 106.5h-1z"/><linearGradient id="Rectangle-Copy-23_1_" gradientUnits="userSpaceOnUse" x1="-32.813" y1="191.901" x2="-32.813" y2="192.207" gradientTransform="matrix(1 0 0 -92 338 17933)"><stop offset="0" stop-color="#fff" stop-opacity=".2"/><stop offset=".996" stop-color="#0ea7ae" stop-opacity=".4"/></linearGradient><path id="Rectangle-Copy-23" fill="url(#Rectangle-Copy-23_1_)" d="M304.7 249.9h1v28.2h-1z"/><path id="Rectangle_1_" class="st7" d="M305.2 246.4c1.9 0 3.5 1.6 3.5 3.5s-1.6 3.5-3.5 3.5-3.5-1.6-3.5-3.5 1.6-3.5 3.5-3.5z"/><path id="Rectangle-Copy-8" class="st7" d="M573.2 168.3c1.9 0 3.5 1.6 3.5 3.5s-1.6 3.5-3.5 3.5-3.5-1.6-3.5-3.5 1.6-3.5 3.5-3.5z"/><path id="Rectangle-Copy-18" class="st7" d="M841.2 204.2c1.9 0 3.5 1.6 3.5 3.5s-1.6 3.5-3.5 3.5-3.5-1.6-3.5-3.5c0-2 1.6-3.5 3.5-3.5z"/><path id="Rectangle-Copy-20" class="st7" d="M1378.2 117c1.9 0 3.5 1.6 3.5 3.5s-1.6 3.5-3.5 3.5-3.5-1.6-3.5-3.5 1.6-3.5 3.5-3.5z"/><g id="Rectangle-Copy-19"><g filter="url(#filter-7)"><path id="path-6_1_" d="M1110.2 108.5c4.7 0 8.5 3.8 8.5 8.5s-3.8 8.5-8.5 8.5-8.5-3.8-8.5-8.5 3.8-8.5 8.5-8.5z"/></g><path class="st7" d="M1110.2 105.5c6.4 0 11.5 5.1 11.5 11.5s-5.1 11.5-11.5 11.5-11.5-5.1-11.5-11.5 5.1-11.5 11.5-11.5z"/><path d="M1110.2 131.5c-8 0-14.5-6.5-14.5-14.5s6.5-14.5 14.5-14.5 14.5 6.5 14.5 14.5-6.5 14.5-14.5 14.5zm0-23c-4.7 0-8.5 3.8-8.5 8.5s3.8 8.5 8.5 8.5 8.5-3.8 8.5-8.5-3.8-8.5-8.5-8.5z" fill="#fff"/></g></g></g></svg>