<svg version="1.1" id="Layer_1" xmlns="http://www.w3.org/2000/svg" x="0" y="0" viewBox="0 0 806 502" xml:space="preserve"><linearGradient id="SVGID_1_" gradientUnits="userSpaceOnUse" x1="163.411" y1="648.354" x2="163.411" y2="647.354" gradientTransform="matrix(526 0 0 -360 -85551 233478.406)"><stop offset="0" stop-color="#4fd5d8"/><stop offset="1" stop-color="#0ea7ae"/></linearGradient><path d="M145 71h516c2.8 0 5 2.2 5 5v350c0 2.8-2.2 5-5 5H145c-2.8 0-5-2.2-5-5V76c0-2.8 2.2-5 5-5z" fill="url(#SVGID_1_)"/><linearGradient id="SVGID_2_" gradientUnits="userSpaceOnUse" x1="162.766" y1="645.874" x2="162.766" y2="644.874" gradientTransform="matrix(64 0 0 -64 -9750 41374.96)"><stop offset="0" stop-color="#4fd5d8"/><stop offset="1" stop-color="#0ea7ae"/></linearGradient><path d="M640 39h54c2.8 0 5 2.2 5 5v54c0 2.8-2.2 5-5 5h-54c-2.8 0-5-2.2-5-5V44c0-2.8 2.2-5 5-5z" fill="url(#SVGID_2_)"/><linearGradient id="SVGID_3_" gradientUnits="userSpaceOnUse" x1="162.521" y1="644.869" x2="162.521" y2="643.869" gradientTransform="matrix(48 0 0 -48 -7078 31178.72)"><stop offset="0" stop-color="#4fd5d8"/><stop offset="1" stop-color="#0ea7ae"/></linearGradient><path d="M704 225h38c2.8 0 5 2.2 5 5v38c0 2.8-2.2 5-5 5h-38c-2.8 0-5-2.2-5-5v-38c0-2.8 2.2-5 5-5z" opacity=".399" fill="url(#SVGID_3_)"/><linearGradient id="SVGID_4_" gradientUnits="userSpaceOnUse" x1="149.563" y1="644.827" x2="149.563" y2="643.827" gradientTransform="matrix(48 0 0 -48 -7078 31178.72)"><stop offset="0" stop-color="#4fd5d8"/><stop offset="1" stop-color="#0ea7ae"/></linearGradient><path d="M82 227h38c2.8 0 5 2.2 5 5v38c0 2.8-2.2 5-5 5H82c-2.8 0-5-2.2-5-5v-38c0-2.8 2.2-5 5-5z" opacity=".399" fill="url(#SVGID_4_)"/><linearGradient id="SVGID_5_" gradientUnits="userSpaceOnUse" x1="162.031" y1="642.859" x2="162.031" y2="641.859" gradientTransform="matrix(32 0 0 -32 -4395 20706.48)"><stop offset="0" stop-color="#4fd5d8"/><stop offset="1" stop-color="#0ea7ae"/></linearGradient><path d="M779 135h22c2.8 0 5 2.2 5 5v22c0 2.8-2.2 5-5 5h-22c-2.8 0-5-2.2-5-5v-22c0-2.8 2.2-5 5-5z" opacity=".199" fill="url(#SVGID_5_)"/><linearGradient id="SVGID_6_" gradientUnits="userSpaceOnUse" x1="162.031" y1="642.859" x2="162.031" y2="641.859" gradientTransform="matrix(32 0 0 -32 -4427 20986.48)"><stop offset="0" stop-color="#4fd5d8"/><stop offset="1" stop-color="#0ea7ae"/></linearGradient><path d="M747 415h22c2.8 0 5 2.2 5 5v22c0 2.8-2.2 5-5 5h-22c-2.8 0-5-2.2-5-5v-22c0-2.8 2.2-5 5-5z" opacity=".199" fill="url(#SVGID_6_)"/><linearGradient id="SVGID_7_" gradientUnits="userSpaceOnUse" x1="138.844" y1="645.859" x2="138.844" y2="644.859" gradientTransform="matrix(32 0 0 -32 -4427 20986.48)"><stop offset="0" stop-color="#4fd5d8"/><stop offset="1" stop-color="#0ea7ae"/></linearGradient><path d="M5 319h22c2.8 0 5 2.2 5 5v22c0 2.8-2.2 5-5 5H5c-2.8 0-5-2.2-5-5v-22c0-2.8 2.2-5 5-5z" opacity=".199" fill="url(#SVGID_7_)"/><linearGradient id="SVGID_8_" gradientUnits="userSpaceOnUse" x1="162.031" y1="642.859" x2="162.031" y2="641.859" gradientTransform="matrix(32 0 0 -32 -5053 20571.48)"><stop offset="0" stop-color="#4fd5d8"/><stop offset="1" stop-color="#0ea7ae"/></linearGradient><path d="M121 0h22c2.8 0 5 2.2 5 5v22c0 2.8-2.2 5-5 5h-22c-2.8 0-5-2.2-5-5V5c0-2.8 2.2-5 5-5z" opacity=".202" fill="url(#SVGID_8_)"/><linearGradient id="SVGID_9_" gradientUnits="userSpaceOnUse" x1="176.197" y1="628.171" x2="176.197" y2="627.171" gradientTransform="matrix(32 0 0 -32 -5053 20571.48)"><stop offset="0" stop-color="#4fd5d8"/><stop offset="1" stop-color="#0ea7ae"/></linearGradient><path d="M574.3 470h22c2.8 0 5 2.2 5 5v22c0 2.8-2.2 5-5 5h-22c-2.8 0-5-2.2-5-5v-22c0-2.8 2.3-5 5-5z" opacity=".202" fill="url(#SVGID_9_)"/><linearGradient id="SVGID_10_" gradientUnits="userSpaceOnUse" x1="162.521" y1="644.869" x2="162.521" y2="643.869" gradientTransform="matrix(48 0 0 -48 -7661 31360.72)"><stop offset="0" stop-color="#4fd5d8"/><stop offset="1" stop-color="#0ea7ae"/></linearGradient><path d="M121 407h38c2.8 0 5 2.2 5 5v38c0 2.8-2.2 5-5 5h-38c-2.8 0-5-2.2-5-5v-38c0-2.8 2.2-5 5-5z" fill="url(#SVGID_10_)"/></svg>