<?xml version="1.0" encoding="UTF-8"?><!DOCTYPE svg PUBLIC "-//W3C//DTD SVG 1.1//EN" "http://www.w3.org/Graphics/SVG/1.1/DTD/svg11.dtd"><svg xmlns="http://www.w3.org/2000/svg"><symbol id="icon-arrow-down" viewBox="0 0 10 7">
    <path d="M2.172.585L.758 2 5 6.242 9.243 2 7.829.585 5 3.414z"/>
</symbol><symbol id="icon-arrow-right" viewBox="0 0 16 12">
    <title>
        Combined Shape
    </title>
    <path d="M14.096 5.5H.5v1h13.617l-4.814 4.814.707.707 6.01-6.01L10.01 0l-.707.707L14.096 5.5z" fill-rule="nonzero"/>
</symbol><symbol id="icon-email" viewBox="0 0 15 11">
    <title>
        ico
    </title>
    <g fill-rule="nonzero">
        <path d="M2.926 2.005a.5.5 0 0 0-.61.792l4.727 3.645a.5.5 0 0 0 .61 0l6.849-5.28a.5.5 0 0 0-.61-.792L7.347 5.415l-4.422-3.41z"/>
        <path d="M.501 10.828a.5.5 0 0 1-.5-.5V.766a.5.5 0 0 1 .5-.5h13.696a.5.5 0 0 1 .5.5v9.562a.5.5 0 0 1-.5.5H.501zm13.196-1V1.266H1.001v8.562h12.696z"/>
    </g>
</symbol><symbol id="icon-facebook" viewBox="0 0 22 23">
    <title>
        FB
    </title>
    <path d="M20 .942H2c-1.105 0-2 .895-2 1.998v17.98c0 1.103.895 1.998 2 1.998h7.5a.5.5 0 0 0 .5-.5v-6.992a.5.5 0 0 0-.5-.5h-1a.5.5 0 0 1-.5-.499v-2.996a.5.5 0 0 1 .5-.5h1a.5.5 0 0 0 .5-.5v-.998a4.498 4.498 0 0 1 4.5-4.495h3a.5.5 0 0 1 .5.5v2.996a.5.5 0 0 1-.5.5h-3a.5.5 0 0 0-.5.499v.999a.5.5 0 0 0 .5.5h3a.5.5 0 0 1 .49.578l-.5 2.997a.5.5 0 0 1-.49.42h-2.5a.5.5 0 0 0-.5.5v6.991a.5.5 0 0 0 .5.5H20c1.105 0 2-.895 2-1.998V2.94a1.999 1.999 0 0 0-2-1.998z" fill-rule="nonzero"/>
</symbol><symbol id="icon-linkedin" viewBox="0 0 22 23">
    <title>
        Linkedin
    </title>
    <path d="M20.625.942H1.375C.616.942 0 1.557 0 2.316v19.229c0 .758.616 1.373 1.375 1.373H20.625c.759 0 1.375-.615 1.375-1.374V2.315c0-.758-.616-1.373-1.375-1.373zm-1.776 17.813h-3.1v-4.939c0-1.24-.352-2.087-1.474-2.087-.857 0-1.369.572-1.591 1.123-.082.197-.102.473-.102.749v5.154h-3.2s.04-8.624 0-9.49h3.2v1.307c.411-.627 1.147-1.525 2.795-1.525 2.04 0 3.472 1.583 3.472 4.417v5.29zM5.602 5.13c.952 0 1.538.687 1.558 1.588 0 .88-.606 1.587-1.576 1.587h-.018c-.935 0-1.539-.706-1.539-1.587 0-.901.622-1.588 1.575-1.588zM7.336 9.3v9.455H4.19V9.3h3.145z" fill-rule="nonzero"/>
</symbol></svg>