<?xml version="1.0" encoding="utf-8"?>
<!-- Generator: Adobe Illustrator 23.0.1, SVG Export Plug-In . SVG Version: 6.00 Build 0)  -->
<svg version="1.1" id="Layer_1" xmlns="http://www.w3.org/2000/svg" xmlns:xlink="http://www.w3.org/1999/xlink" x="0px" y="0px"
	 viewBox="0 0 239 50" style="enable-background:new 0 0 239 50;" xml:space="preserve">
<style type="text/css">
	.st0{fill:#989392;}
	.st1{fill:#3D53A4;}
	.st2{fill:#9F9D9D;}
	.st3{fill:#989392;stroke:#989392;stroke-width:0.4454;}
</style>
<g>
	<path class="st0" d="M238,13.32c0,1.52-1.18,2.71-2.7,2.71c-1.52,0-2.69-1.19-2.69-2.69s1.17-2.69,2.7-2.69
		C236.85,10.64,238,11.8,238,13.32z M237.64,13.32c0-1.33-0.99-2.34-2.33-2.34c-1.34,0-2.34,1.04-2.34,2.35s1,2.35,2.33,2.35
		C236.63,15.69,237.64,14.65,237.64,13.32z M236.04,13.79l0.7,1.08h-0.53l-0.63-0.98h-0.13h-0.7v0.98h-0.52v-3.05h1.22
		c0.76,0,1.24,0.41,1.24,1.04C236.68,13.32,236.44,13.64,236.04,13.79z M236.18,12.85c0-0.39-0.28-0.6-0.77-0.6h-0.67v1.21h0.67
		C235.89,13.46,236.18,13.24,236.18,12.85z"/>
</g>
<path class="st1" d="M1.21,10.68h10.45c6.3,0,10.45,3.35,10.45,8.85v0.08c0,6.02-5.03,9.13-10.97,9.13H4.36v9.85H1.21V10.68z
	 M11.26,25.88c4.63,0,7.66-2.47,7.66-6.14v-0.08c0-3.99-2.99-6.06-7.5-6.06H4.36v12.28H11.26z"/>
<path class="st1" d="M28.42,26.91V10.68h3.15v16.03c0,6.02,3.19,9.41,8.53,9.41c5.14,0,8.42-3.11,8.42-9.21V10.68h3.15v15.99
	c0,8.13-4.67,12.36-11.65,12.36C33.12,39.04,28.42,34.81,28.42,26.91z"/>
<path class="st1" d="M60.13,10.68h12c3.43,0,6.18,1.04,7.94,2.79c1.36,1.36,2.15,3.31,2.15,5.51v0.08c0,4.63-3.19,7.34-7.58,8.14
	l8.57,11.41h-3.87l-8.1-10.85h-7.98V38.6h-3.15V10.68z M71.85,24.92c4.19,0,7.18-2.15,7.18-5.74V19.1c0-3.43-2.63-5.5-7.14-5.5
	h-8.61v11.33H71.85z"/>
<path class="st1" d="M89.96,10.68h10.45c6.3,0,10.45,3.35,10.45,8.85v0.08c0,6.02-5.03,9.13-10.97,9.13h-6.78v9.85h-3.15V10.68z
	 M100.01,25.88c4.63,0,7.66-2.47,7.66-6.14v-0.08c0-3.99-2.99-6.06-7.5-6.06h-7.06v12.28H100.01z"/>
<path class="st1" d="M117.17,26.91V10.68h3.15v16.03c0,6.02,3.19,9.41,8.54,9.41c5.14,0,8.41-3.11,8.41-9.21V10.68h3.15v15.99
	c0,8.13-4.67,12.36-11.65,12.36C121.87,39.04,117.17,34.81,117.17,26.91z"/>
<path class="st1" d="M148.88,10.68h12.01c3.43,0,6.18,1.04,7.94,2.79c1.36,1.36,2.15,3.31,2.15,5.51v0.08
	c0,4.63-3.19,7.34-7.58,8.14l8.57,11.41h-3.87L160,27.75h-7.98V38.6h-3.15V10.68z M160.6,24.92c4.19,0,7.18-2.15,7.18-5.74V19.1
	c0-3.43-2.63-5.5-7.14-5.5h-8.61v11.33H160.6z"/>
<path class="st2" d="M178.71,10.68h20.18v2.87h-17.03v9.53h15.24v2.87h-15.24v9.77h17.23v2.87h-20.38V10.68z"/>
<path class="st2" d="M215.05,24.36l-10.33-13.68h3.71l8.57,11.4l8.49-11.4h3.67l-10.33,13.64l10.73,14.28h-3.75l-8.93-12.01
	l-8.93,12.01h-3.63L215.05,24.36z"/>
<g>
	<path class="st0" d="M0.79,48.38l0.59-0.7c0.53,0.46,1.07,0.72,1.76,0.72c0.61,0,0.99-0.28,0.99-0.7v-0.02
		c0-0.4-0.22-0.61-1.26-0.85c-1.19-0.29-1.86-0.64-1.86-1.67v-0.02c0-0.96,0.8-1.62,1.91-1.62c0.81,0,1.46,0.25,2.02,0.7l-0.53,0.74
		c-0.5-0.37-1-0.58-1.51-0.58C2.33,44.4,2,44.7,2,45.06v0.02c0,0.43,0.26,0.62,1.32,0.88c1.18,0.29,1.79,0.71,1.79,1.63v0.02
		c0,1.04-0.82,1.67-1.99,1.67C2.27,49.27,1.46,48.98,0.79,48.38z"/>
	<path class="st0" d="M11.86,43.61h0.98v2.8l2.65-2.8h1.2l-2.32,2.4l2.42,3.18h-1.19l-1.9-2.51l-0.87,0.89v1.62h-0.98V43.61z"/>
	<path class="st0" d="M23.28,43.61h0.98v5.58h-0.98V43.61z"/>
	<path class="st0" d="M31.34,43.61h0.91l2.99,3.86v-3.86h0.96v5.58h-0.82l-3.08-3.97v3.97h-0.96V43.61z"/>
	<path class="st0" d="M50.83,48.38l0.59-0.7c0.53,0.46,1.07,0.72,1.76,0.72c0.61,0,0.99-0.28,0.99-0.7v-0.02
		c0-0.4-0.22-0.61-1.26-0.85c-1.19-0.29-1.86-0.64-1.86-1.67v-0.02c0-0.96,0.8-1.62,1.91-1.62c0.81,0,1.46,0.25,2.02,0.7l-0.53,0.74
		c-0.5-0.37-1-0.58-1.51-0.58c-0.57,0-0.91,0.3-0.91,0.66v0.02c0,0.43,0.26,0.62,1.32,0.88c1.18,0.29,1.79,0.71,1.79,1.63v0.02
		c0,1.04-0.82,1.67-1.99,1.67C52.3,49.27,51.5,48.98,50.83,48.38z"/>
	<path class="st0" d="M61.65,46.42V46.4c0-1.57,1.21-2.88,2.92-2.88c1.71,0,2.91,1.3,2.91,2.87v0.02c0,1.57-1.21,2.89-2.92,2.89
		C62.84,49.29,61.65,47.99,61.65,46.42z M66.45,46.42V46.4c0-1.08-0.79-1.98-1.9-1.98c-1.11,0-1.88,0.89-1.88,1.97v0.02
		c0,1.09,0.79,1.98,1.9,1.98C65.68,48.39,66.45,47.5,66.45,46.42z"/>
	<path class="st0" d="M74.26,43.61h0.98v4.69h2.93v0.89h-3.91V43.61z"/>
	<path class="st0" d="M84.53,46.83v-3.21h0.98v3.17c0,1.03,0.53,1.59,1.41,1.59c0.87,0,1.4-0.53,1.4-1.55v-3.21h0.98v3.16
		c0,1.67-0.94,2.5-2.4,2.5C85.46,49.28,84.53,48.44,84.53,46.83z"/>
	<path class="st0" d="M97.62,44.52h-1.77v-0.91h4.53v0.91H98.6v4.67h-0.99V44.52z"/>
	<path class="st0" d="M107.05,43.61h0.98v5.58h-0.98V43.61z"/>
	<path class="st0" d="M114.86,46.42V46.4c0-1.57,1.21-2.88,2.93-2.88c1.71,0,2.91,1.3,2.91,2.87v0.02c0,1.57-1.21,2.89-2.93,2.89
		C116.06,49.29,114.86,47.99,114.86,46.42z M119.67,46.42V46.4c0-1.08-0.79-1.98-1.9-1.98s-1.88,0.89-1.88,1.97v0.02
		c0,1.09,0.79,1.98,1.9,1.98C118.9,48.39,119.67,47.5,119.67,46.42z"/>
	<path class="st0" d="M127.48,43.61h0.91l2.99,3.86v-3.86h0.96v5.58h-0.82l-3.08-3.97v3.97h-0.96V43.61z"/>
	<path class="st0" d="M138.99,48.38l0.59-0.7c0.54,0.46,1.07,0.72,1.76,0.72c0.61,0,0.99-0.28,0.99-0.7v-0.02
		c0-0.4-0.22-0.61-1.26-0.85c-1.19-0.29-1.86-0.64-1.86-1.67v-0.02c0-0.96,0.8-1.62,1.91-1.62c0.81,0,1.46,0.25,2.02,0.7l-0.53,0.74
		c-0.5-0.37-1-0.58-1.51-0.58c-0.57,0-0.91,0.3-0.91,0.66v0.02c0,0.43,0.25,0.62,1.32,0.88c1.18,0.29,1.79,0.71,1.79,1.63v0.02
		c0,1.04-0.82,1.67-1.99,1.67C140.46,49.27,139.66,48.98,138.99,48.38z"/>
</g>
<line class="st3" x1="178.87" y1="48.06" x2="229.86" y2="48.06"/>
<line class="st3" x1="178.87" y1="0.94" x2="229.86" y2="0.94"/>
</svg>
