<?xml version="1.0" encoding="UTF-8"?>
<svg width="8px" height="13px" viewBox="0 0 8 13" version="1.1" xmlns="http://www.w3.org/2000/svg" xmlns:xlink="http://www.w3.org/1999/xlink">
    <!-- Generator: Sketch 61 (89581) - https://sketch.com -->
    <title>B_SHORT LOGO@1.5x</title>
    <desc>Created with Sketch.</desc>
    <defs>
        <polygon id="path-1" points="0.000809756098 0.0246880184 7.99092683 0.0246880184 7.99092683 10.9032258 0.000809756098 10.9032258"></polygon>
    </defs>
    <g id="ReDesign---bluesquare.digital" stroke="none" stroke-width="1" fill="none" fill-rule="evenodd">
        <g id="MINIMAL-FOOTER" transform="translate(-716.000000, -29.000000)">
            <g id="FOOTER">
                <g id="TOP-3-BAR">
                    <g id="ADDRESS" transform="translate(480.000000, 0.000000)">
                        <g id="B_SHORT-LOGO" transform="translate(236.000000, 29.000000)">
                            <g>
                                <g id="Group-3" transform="translate(0.000000, 2.096774)">
                                    <mask id="mask-2" fill="white">
                                        <use xlink:href="#path-1"></use>
                                    </mask>
                                    <g id="Clip-2"></g>
                                    <path d="M2.13037073,8.91393226 C2.2572,8.91393226 2.35202927,8.91422431 2.44685854,8.91393226 C3.20793171,8.9118879 3.96988293,8.9324288 4.7296878,8.89962177 C5.21856585,8.87839942 5.57807805,8.60221682 5.7669561,8.14398929 C6.13729756,7.24544666 5.55115122,6.36471912 4.55759024,6.33853191 C3.92217561,6.32178767 3.28598049,6.3348326 2.65017561,6.33454055 L2.13037073,6.33454055 L2.13037073,8.91393226 Z M2.13807805,0.032962788 C2.8607122,0.0390958525 3.5834439,0.0413349078 4.30588293,0.0525301843 C5.27388293,0.0674247696 6.11593171,0.387901728 6.79534634,1.09057569 C7.89202927,2.22470588 7.84880976,4.06832454 6.70022439,5.1496909 C6.66539512,5.18259528 6.62617561,5.21082684 6.57388293,5.25336889 C6.63993171,5.30905323 6.68441951,5.35733894 6.73837073,5.39043802 C8.36559024,6.38526002 8.28080976,8.73305553 7.20851707,9.82649332 C6.52480976,10.5237157 5.69622439,10.8820619 4.72988293,10.8935492 C3.20637073,10.9116563 1.68246829,10.8990008 0.158663415,10.898222 C0.111931707,10.898222 0.0652,10.8860532 0.000809756098,10.8769997 L0.000809756098,4.43991037 C0.11124878,4.43991037 0.221492683,4.43991037 0.331639024,4.43991037 C1.6336878,4.43981302 2.93563902,4.44691959 4.23749268,4.43679516 C5.11934634,4.42998065 5.65924878,3.65312581 5.37739512,2.82272834 C5.21759024,2.35184528 4.81807805,2.05541382 4.30656585,2.05025426 C3.59456585,2.042953 2.88256585,2.04840461 2.14773659,2.04840461 L2.14773659,0.0246880184 L2.13807805,0.032962788 Z" id="Fill-1" fill="#202B3D" mask="url(#mask-2)"></path>
                                </g>
                                <path d="M2.10526316,2.08821315 L0,2.08821315 L0,0 L2.09512607,0 C2.09512607,0.705799507 2.09512607,1.40138413 2.0955086,2.09677419 C2.0957955,2.09638506 2.10526316,2.08821315 2.10526316,2.08821315" id="Fill-4" fill="#202B3D"></path>
                            </g>
                        </g>
                    </g>
                </g>
            </g>
        </g>
    </g>
</svg>