<?xml version="1.0" standalone="no"?>
<!DOCTYPE svg PUBLIC "-//W3C//DTD SVG 1.1//EN" "http://www.w3.org/Graphics/SVG/1.1/DTD/svg11.dtd" >
<svg xmlns="http://www.w3.org/2000/svg" xmlns:xlink="http://www.w3.org/1999/xlink" version="1.1">
<metadata>
Created by FontForge 20170731 at Fri Oct  1 07:58:17 2004
 By Aleksey,,,
(c) 2000 Ray Larabie. This font is freeware. Read attached text file for details. This font was updated in 2004. Don't forget to have a look at the rest of the Nasalization family at Typodermic, especially the enigmantic Nasalization Galaxy!
http://www.typodermic.com
</metadata>
<defs>
<font id="NasalizationFree" horiz-adv-x="591" >
  <font-face 
    font-family="Nasalization Free"
    font-weight="400"
    font-stretch="normal"
    units-per-em="1000"
    panose-1="2 0 5 5 0 0 0 2 0 4"
    ascent="800"
    descent="-200"
    x-height="628"
    cap-height="628"
    bbox="-70 -201 1352 801"
    underline-thickness="10"
    underline-position="-80"
    unicode-range="U+0020-2122"
  />
<missing-glyph horiz-adv-x="275" 
 />
    <glyph glyph-name=".notdef" horiz-adv-x="275" 
 />
    <glyph glyph-name=".null" horiz-adv-x="0" 
 />
    <glyph glyph-name="nonmarkingreturn" horiz-adv-x="333" 
 />
    <glyph glyph-name="visiblespace" unicode=" " horiz-adv-x="275" 
 />
    <glyph glyph-name="exclam" unicode="!" horiz-adv-x="201" 
d="M46 111h110v-111h-110v111zM46 628h110v-411h-110v411z" />
    <glyph glyph-name="quotedbl" unicode="&#x22;" horiz-adv-x="335" 
d="M39 460l-19 143v125h117v-125l-19 -143h-79zM211 460l-19 143v125h118v-125l-20 -143h-79z" />
    <glyph glyph-name="numbersign" unicode="#" horiz-adv-x="507" 
d="M315 222v117h-118v-117h118zM408 73h-93v55h-118v-55h-94v55h-60v94h60v117h-60v94h60v57h94v-57h118v57h93v-57h52v-94h-52v-117h52v-94h-52v-55z" />
    <glyph glyph-name="dollar" unicode="$" horiz-adv-x="466" 
d="M319 216q0 23 -13.5 32t-35.5 12v-90q21 2 34.5 11t14.5 35zM156 425q0 -29 14.5 -41t41.5 -13v107q-56 -3 -56 -53zM68 60v110h144v91q-84 5 -125 43t-41 119q0 84 40.5 122t125.5 42v41h58v-40h117v-110h-117v-109q75 -4 117 -38t42 -115q0 -41 -10.5 -69.5t-31 -46.5
t-50 -27.5t-67.5 -12.5v-60h-58v60h-144z" />
    <glyph glyph-name="percent" unicode="%" horiz-adv-x="948" 
d="M225 628q42 0 77.5 -11.5t61 -32t40 -48t14.5 -59.5q0 -35 -15.5 -62.5t-41.5 -47t-61.5 -30t-74.5 -10.5t-72 11t-57 30.5t-37.5 47t-13.5 61.5q0 35 14.5 63t39 47.5t57 30t69.5 10.5zM233 519q-74 0 -74 -38q0 -19 21.5 -29.5t52.5 -10.5q26 0 49 10.5t23 30.5
q0 7 -7 14t-17.5 12t-23 8t-24.5 3zM674 190q-76 0 -76 -38q0 -39 76 -39q72 0 72 39q0 38 -72 38zM683 628l-364 -628h-99l369 628h94zM666 300q40 0 75.5 -11t61.5 -31t41 -47.5t15 -61.5q0 -73 -65 -115h1q-53 -35 -129 -35q-39 0 -72 11t-57 31t-37.5 47.5t-13.5 60.5
q0 35 14.5 63t39 47.5t57 30t69.5 10.5z" />
    <glyph glyph-name="ampersand" unicode="&#x26;" horiz-adv-x="603" 
d="M227 261q-29 0 -50 -22t-21 -51q0 -35 20 -56.5t52 -21.5h126v151h-127zM557 261h-93v-151h93v-110h-313q-55 0 -92.5 16t-61 42.5t-34 59.5t-10.5 68q0 37 16 72.5t42 57.5q-27 22 -42.5 58t-15.5 69q0 90 52 137.5t146 47.5h74v-110h-91q-29 0 -50 -22t-21 -51
q0 -31 20 -52.5t52 -21.5h329v-110z" />
    <glyph glyph-name="quotesingle" unicode="'" horiz-adv-x="157" 
d="M39 460l-19 143v125h117v-125l-19 -143h-79z" />
    <glyph glyph-name="parenleft" unicode="(" horiz-adv-x="374" 
d="M282 608q-27 0 -50 -9t-40.5 -25t-27 -37.5t-9.5 -46.5v-352q0 -26 9.5 -47.5t26.5 -37t40.5 -24.5t50.5 -9h27v-110h-25q-44 0 -87 14t-77 43t-54.5 73.5t-20.5 105.5v336q0 61 20.5 105.5t54.5 73.5t77 43t87 14h25v-110h-27z" />
    <glyph glyph-name="parenright" unicode=")" horiz-adv-x="374" 
d="M70 20q27 0 50.5 9t40.5 24.5t26.5 37t9.5 47.5v352q0 25 -9.5 46.5t-27 37.5t-40.5 25t-50 9h-27v110h25q44 0 87 -14t76.5 -43t54.5 -73.5t21 -105.5v-336q0 -61 -21 -105.5t-54.5 -73.5t-76.5 -43t-87 -14h-25v110h27z" />
    <glyph glyph-name="asterisk" unicode="*" horiz-adv-x="435" 
d="M339 388l-75 -40l-46 89l-46 -89l-76 40l53 102h-115v86h113l-52 105l75 39l48 -94l48 94l76 -40l-54 -104h111v-86h-113z" />
    <glyph glyph-name="plus" unicode="+" horiz-adv-x="524" 
d="M302 107h-110v153h-161v112h161v148h110v-148h162v-112h-162v-153z" />
    <glyph glyph-name="comma" unicode="," horiz-adv-x="213" 
d="M176 1q0 -35 -12.5 -64t-35 -49.5t-53 -32t-65.5 -11.5v110q25 0 37 12t12 29v116h117v-110z" />
    <glyph glyph-name="hyphen" unicode="-" horiz-adv-x="322" 
d="M36 372h256v-112h-256v112z" />
    <glyph glyph-name="period" unicode="." horiz-adv-x="178" 
d="M30 111h117v-111h-117v111z" />
    <glyph glyph-name="slash" unicode="/" horiz-adv-x="428" 
d="M-7 0l368 628h74l-365 -628h-77z" />
    <glyph glyph-name="zero" unicode="0" horiz-adv-x="649" 
d="M356 110q147 0 147 194v8q0 106 -36.5 156t-111.5 50h-61q-75 0 -111.5 -50t-36.5 -156v-8q0 -194 147 -194h63zM327 628q283 0 286 -312v-3q0 -313 -285 -313h-7q-285 0 -285 313v3q3 312 286 312h5z" />
    <glyph glyph-name="one" unicode="1" horiz-adv-x="294" 
d="M25 628q41 0 81.5 -13.5t72 -40.5t51 -66.5t19.5 -91.5v-416h-110v417q0 51 -33 76t-81 25v110z" />
    <glyph glyph-name="two" unicode="2" horiz-adv-x="696" 
d="M493 628q76 0 114 -40t38 -104q0 -46 -23 -83.5t-78 -60.5l-344 -150q-16 -7 -26 -19.5t-10 -27.5v-33h466v-110h-576v144q0 16 3.5 35t14.5 38.5t31 38t52 32.5l346 150q17 8 26 21t9 26q0 14 -8.5 23.5t-31.5 9.5h-419v110h416z" />
    <glyph glyph-name="three" unicode="3" 
d="M358 628q52 0 89.5 -14t61.5 -39t35.5 -58.5t11.5 -73.5q0 -33 -16 -69t-53 -58q36 -22 52.5 -57.5t16.5 -72.5q0 -35 -10.5 -68.5t-34 -59.5t-61.5 -42t-92 -16h-313v110h329q32 0 52 21.5t20 56.5q0 29 -21 51t-50 22h-148v110h147q32 0 52 21.5t20 52.5q0 29 -21 51
t-50 22h-330v110h313z" />
    <glyph glyph-name="four" unicode="4" horiz-adv-x="565" 
d="M159 302q-12 -17 -12 -36q0 -17 15 -28.5t44 -11.5h202v252q0 40 -33 40h-27q-26 0 -39 -6.5t-27 -26.5zM408 116h-236q-30 0 -55 12.5t-43 33.5t-28 48.5t-10 56.5q0 45 26 86l125 191q55 84 166 84h34q38 0 63.5 -8t41 -25t22 -44.5t6.5 -66.5v-484h-112v116z" />
    <glyph glyph-name="five" unicode="5" horiz-adv-x="603" 
d="M534 518h-378v-147h223q87 0 133 -50t46 -135q0 -39 -13 -73t-37 -59t-57 -39.5t-72 -14.5h-334v111h334q15 0 27.5 6.5t21.5 17t14.5 24.5t5.5 28t-5.5 27.5t-14.5 24t-21.5 16.5t-27.5 6h-334v367h489v-110z" />
    <glyph glyph-name="six" unicode="6" horiz-adv-x="639" 
d="M148 261q13 -153 145 -151l132 1q28 0 48 22.5t20 52.5t-19.5 52.5t-48.5 22.5h-277zM321 0q-285 0 -285 313v3q3 312 286 312h229v-110h-257q-127 0 -145 -147h281q37 0 68.5 -15.5t54.5 -40.5t36.5 -57.5t13.5 -66.5v-10q0 -34 -14 -66.5t-38 -58t-55.5 -41
t-66.5 -15.5h-108z" />
    <glyph glyph-name="seven" unicode="7" horiz-adv-x="659" 
d="M496 628q31 0 55.5 -11t41.5 -29t26 -41.5t9 -48.5q0 -29 -11 -56.5t-34 -52.5l-361 -389h-148l436 472q11 11 11 23q0 9 -6.5 16t-17.5 7h-461v110h460z" />
    <glyph glyph-name="eight" unicode="8" horiz-adv-x="621" 
d="M165 392q11 -10 23 -15.5t29 -5.5h187q32 0 52 21.5t20 52.5q0 29 -21 51t-50 22h-189q-29 0 -50 -22t-21 -51q0 -30 20 -53zM456 131q20 23 20 57q0 29 -21 51t-50 22h-189q-29 0 -50 -22t-21 -51q0 -33 19.5 -55.5t52.5 -22.5h187q31 0 52 21zM388 628q54 0 91.5 -14.5
t61.5 -39.5t34.5 -58.5t10.5 -72.5q0 -33 -16 -69t-53 -58q36 -22 52.5 -57.5t16.5 -72.5q0 -35 -10.5 -68.5t-34 -59.5t-61.5 -42t-92 -16h-155q-55 0 -92.5 16t-61 42.5t-34 59.5t-10.5 68q0 37 16 72.5t52 57.5q-37 22 -52.5 58t-15.5 69q0 39 11 73t34.5 59t61 39
t91.5 14h155z" />
    <glyph glyph-name="nine" unicode="9" horiz-adv-x="641" 
d="M493 371q-18 146 -145 146h-132q-14 0 -26.5 -6.5t-21.5 -17.5t-14.5 -24.5t-5.5 -28.5q0 -29 19.5 -49t48.5 -20h277zM320 628q285 0 285 -313v-3q-3 -312 -286 -312h-229v110h257q66 0 100 36.5t45 114.5h-281q-37 0 -68.5 14.5t-55 38.5t-36.5 55.5t-13 65.5v10
q0 34 14 67t38 58.5t55.5 41.5t66.5 16h108z" />
    <glyph glyph-name="colon" unicode=":" horiz-adv-x="187" 
d="M36 110h117v-110h-117v110zM36 371h117v-110h-117v110z" />
    <glyph glyph-name="semicolon" unicode=";" horiz-adv-x="194" 
d="M39 371h117v-111h-117v111zM156 1q0 -35 -12.5 -64t-35 -49.5t-53 -32t-65.5 -11.5v110q25 0 37 12t12 29v116h117v-110z" />
    <glyph glyph-name="less" unicode="&#x3c;" horiz-adv-x="453" 
d="M320 394h94v-155h-94v-115l-253 154q-23 14 -23 33q0 20 23 35l253 165v-117z" />
    <glyph glyph-name="equal" unicode="=" horiz-adv-x="424" 
d="M45 277h310v-114h-310v114zM45 468h310v-114h-310v114z" />
    <glyph glyph-name="greater" unicode="&#x3e;" horiz-adv-x="453" 
d="M138 511l253 -165q23 -15 23 -35q0 -19 -23 -33l-253 -154v115h-94v155h94v117z" />
    <glyph glyph-name="question" unicode="?" horiz-adv-x="612" 
d="M151 112h116v-112h-116v112zM378 628q36 0 68 -12.5t55.5 -36t37 -58t13.5 -78.5v-6q0 -36 -13.5 -68t-37 -56t-55 -38t-68.5 -14h-24q-30 0 -53.5 -21.5t-30.5 -54.5h-114v14q0 33 15.5 64t41 55t57 38.5t64.5 14.5h37q29 0 50 21.5t21 52.5q0 29 -21 51t-50 22h-329
v110h336z" />
    <glyph glyph-name="at" unicode="@" horiz-adv-x="715" 
d="M379 266q6 0 11 1.5t9 6.5t6 16t2 31q0 54 -28 54h-48q-31 0 -31 -54q0 -37 7.5 -46t22.5 -9h49zM408 225q-14 -12 -49 -12h-29q-83 0 -83 108t84 108h28q32 0 49 -12v12h51v-216h-51v12zM344 574q-232 0 -232 -253v-2q0 -254 231 -254h41q231 0 231 254v2
q-3 253 -232 253h-39zM383 627q139 0 211 -78t74 -228v-2q0 -307 -284 -307h-41q-284 0 -284 307v2q2 151 75 228.5t210 77.5h39z" />
    <glyph glyph-name="A" unicode="A" horiz-adv-x="676" 
d="M538 0l-176 500q-3 9 -9.5 13t-14.5 4q-18 0 -24 -17l-176 -500h-117l195 547q14 41 46.5 61t75.5 20q42 0 75 -20t47 -61l195 -547h-117z" />
    <glyph glyph-name="B" unicode="B" 
d="M358 628q54 0 91.5 -14.5t61.5 -39.5t34.5 -58.5t10.5 -72.5q0 -33 -16 -69t-53 -58q36 -22 52.5 -57.5t16.5 -72.5q0 -35 -10.5 -68.5t-34 -59.5t-61.5 -42t-92 -16h-313v110h329q32 0 52 21.5t20 56.5q0 29 -21 51t-50 22h-330v110h329q32 0 52 21.5t20 52.5
q0 29 -21 51t-50 22h-330v110h313z" />
    <glyph glyph-name="C" unicode="C" 
d="M321 0q-285 0 -285 313v3q3 312 286 312h229v-110h-257q-75 0 -111.5 -50t-36.5 -156q0 -202 147 -202h257v-110h-229z" />
    <glyph glyph-name="D" unicode="D" horiz-adv-x="625" 
d="M155 110h176q75 0 111.5 50t36.5 156q0 202 -147 202h-177v-408zM304 628q285 0 285 -313v-3q-3 -312 -286 -312h-258v628h259z" />
    <glyph glyph-name="E" unicode="E" 
d="M546 518h-330q-29 0 -50 -22t-21 -51q0 -31 20 -52.5t52 -21.5h329v-110h-330q-29 0 -50 -22t-21 -51q0 -35 20 -56.5t52 -21.5h329v-110h-313q-55 0 -92.5 16t-61 42.5t-34 59.5t-10.5 68q0 37 16 72.5t52 57.5q-37 22 -52.5 58t-15.5 69q0 40 12 74t36 59t61.5 38.5
t88.5 13.5h313v-110z" />
    <glyph glyph-name="F" unicode="F" horiz-adv-x="559" 
d="M524 518h-205q-72 0 -116.5 -37.5t-47.5 -109.5h369v-110h-369v-261h-110v356q0 63 17.5 113t52 85.5t86.5 54.5t121 19h202v-110z" />
    <glyph glyph-name="G" unicode="G" horiz-adv-x="639" 
d="M321 0q-285 0 -285 313v3q3 312 286 312h229v-110h-257q-75 0 -111.5 -50t-36.5 -156q0 -202 147 -202h132q28 0 48 23t20 53t-19.5 52.5t-48.5 22.5h-100v110h105q36 0 68 -14t55 -39.5t36.5 -60t13.5 -76.5q0 -34 -14 -66.5t-38 -58t-55.5 -41t-66.5 -15.5h-108z" />
    <glyph glyph-name="H" unicode="H" horiz-adv-x="601" 
d="M446 261h-291v-261h-110v628h110v-257h291v257h110v-628h-110v261z" />
    <glyph glyph-name="I" unicode="I" horiz-adv-x="200" 
d="M45 628h110v-628h-110v628z" />
    <glyph glyph-name="J" unicode="J" horiz-adv-x="525" 
d="M35 110h171q78 0 121 42.5t43 118.5v357h110v-356q0 -63 -17.5 -113t-52 -85.5t-86.5 -54.5t-121 -19h-168v110z" />
    <glyph glyph-name="K" unicode="K" horiz-adv-x="616" 
d="M155 0h-110v628h110v-200l416 206v-126l-419 -194l419 -198v-122l-416 207v-201z" />
    <glyph glyph-name="L" unicode="L" horiz-adv-x="545" 
d="M322 0q-69 0 -121 19t-86.5 54.5t-52 85.5t-17.5 113v356h110v-357q0 -76 43 -118.5t121 -42.5h191v-110h-188z" />
    <glyph glyph-name="M" unicode="M" horiz-adv-x="1073" 
d="M211 532q16 45 54.5 71.5t86.5 26.5q34 0 63.5 -11t51.5 -31t34.5 -48.5t12.5 -63.5v-317q0 -55 47 -55q15 0 23.5 10t14.5 29l126 389q15 46 54 72t87 26q34 0 63.5 -11t51.5 -31t34.5 -48.5t12.5 -63.5v-476h-117v464q0 55 -47 55q-15 0 -23.5 -10t-14.5 -29l-127 -389
q-13 -46 -52.5 -72t-87.5 -26q-34 0 -63.5 11t-51.5 31t-34.5 48.5t-12.5 63.5v317q0 55 -47 55q-15 0 -23 -10t-15 -29l-167 -480h-124z" />
    <glyph glyph-name="N" unicode="N" horiz-adv-x="721" 
d="M676 149q0 -35 -12.5 -63.5t-34.5 -48.5t-51.5 -31t-63.5 -11q-48 0 -87 26t-54 72l-126 387q-6 19 -14.5 29t-23.5 10q-47 0 -47 -55v-464h-117v476q0 35 12.5 63.5t34.5 48.5t51.5 31t63.5 11q48 0 86.5 -26.5t53.5 -71.5l127 -387q6 -19 14.5 -29t23.5 -10q47 0 47 55
v467h117v-479z" />
    <glyph glyph-name="O" unicode="O" horiz-adv-x="692" 
d="M294 518q-75 0 -111.5 -50t-36.5 -156q0 -202 147 -202h106q147 0 147 202q0 106 -36.5 156t-111.5 50h-104zM370 628q283 0 286 -312v-3q0 -313 -285 -313h-50q-285 0 -285 313v3q3 312 286 312h48z" />
    <glyph glyph-name="P" unicode="P" horiz-adv-x="592" 
d="M46 188q0 90 53 136.5t144 46.5h132q31 0 51.5 21.5t20.5 52.5q0 29 -21 51t-50 22h-330v110h313q52 0 89.5 -14.5t61.5 -40t35.5 -59t11.5 -71.5q0 -33 -10.5 -65.5t-34.5 -58.5t-61.5 -42t-91.5 -16h-135q-29 0 -48.5 -22.5t-19.5 -52.5v-186h-110v188z" />
    <glyph glyph-name="Q" unicode="Q" horiz-adv-x="700" 
d="M294 518q-75 0 -111.5 -50t-36.5 -156v-8q0 -194 147 -194h123l-118 56v123l225 -108q23 48 23 123v8q0 106 -36.5 156t-111.5 50h-104zM370 628q141 0 213.5 -77.5t72.5 -234.5q0 -114 -34 -183l43 -20v-119l-116 54q-34 -23 -77.5 -35.5t-100.5 -12.5h-50
q-285 0 -285 313v3q3 312 286 312h48z" />
    <glyph glyph-name="R" unicode="R" horiz-adv-x="602" 
d="M46 188q0 90 53 136.5t144 46.5h132q31 0 51.5 21.5t20.5 52.5q0 29 -21 51t-50 22h-330v110h313q52 0 89.5 -14.5t61.5 -40t35.5 -59t11.5 -71.5q0 -33 -10.5 -65.5t-34.5 -58.5t-61.5 -42t-91.5 -16h-127l340 -149v-122l-416 187v-177h-110v188z" />
    <glyph glyph-name="S" unicode="S" horiz-adv-x="624" 
d="M588 184q0 -91 -52.5 -137.5t-146.5 -46.5h-322v110h343q29 0 48.5 22t19.5 54q0 30 -19.5 52.5t-48.5 22.5h-177q-55 0 -92.5 16.5t-61 42.5t-34 58.5t-10.5 64.5q0 38 11 71.5t35 59t61.5 40t90.5 14.5h313v-110h-330q-29 0 -50 -22t-21 -51q0 -31 20.5 -52.5
t51.5 -21.5h174q91 0 144 -46.5t53 -136.5v-4z" />
    <glyph glyph-name="T" unicode="T" horiz-adv-x="461" 
d="M290 0h-110v518h-155v110h411v-110h-146v-518z" />
    <glyph glyph-name="U" unicode="U" horiz-adv-x="618" 
d="M573 238q0 -54 -16.5 -97.5t-49 -75t-82 -48.5t-115.5 -17q-64 0 -113.5 17.5t-83 48.5t-51 74.5t-17.5 96.5v391h110v-389q0 -57 41.5 -93t114.5 -36h3q75 0 112 36t37 93v389h110v-390z" />
    <glyph glyph-name="V" unicode="V" horiz-adv-x="676" 
d="M340 107q6 0 12 4t10 15l176 502h117l-195 -552q-14 -41 -46.5 -60.5t-75.5 -19.5t-75.5 20t-46.5 60l-195 552h117l176 -503q6 -18 22 -18h4z" />
    <glyph glyph-name="W" unicode="W" horiz-adv-x="1073" 
d="M312 148q7 -19 15 -29t23 -10q47 0 47 55v313q0 35 12.5 63.5t34.5 48.5t51.5 31t63.5 11q48 0 87 -26t54 -72l126 -385q6 -19 14.5 -29t23.5 -10q47 0 47 55v464h117v-476q0 -35 -12.5 -63.5t-34.5 -48.5t-51.5 -31t-63.5 -11q-48 0 -87 26t-54 72l-126 385
q-6 19 -14.5 29t-23.5 10q-47 0 -47 -55v-313q0 -35 -12.5 -63.5t-34.5 -48.5t-51.5 -31t-63.5 -11q-48 0 -86.5 26.5t-54.5 71.5l-190 532h124z" />
    <glyph glyph-name="X" unicode="X" horiz-adv-x="606" 
d="M589 0h-132l-154 254l-154 -254h-132l202 322l-202 306h131l155 -252l155 252h131l-203 -306z" />
    <glyph glyph-name="Y" unicode="Y" horiz-adv-x="606" 
d="M248 278l-232 350h132l155 -252l155 252h132l-232 -343v-285h-110v278z" />
    <glyph glyph-name="Z" unicode="Z" horiz-adv-x="672" 
d="M487 438q16 7 26 19.5t10 26.5t-10 24t-31 10h-419v110h416q76 0 114 -40t38 -104q0 -12 -2 -30t-11.5 -38t-30 -40t-57.5 -36l-345 -150q-36 -17 -36 -45q0 -17 12 -26t29 -9h426v-110h-423q-76 0 -114.5 40t-38.5 103q0 17 3.5 36.5t14.5 39t31 37.5t52 32z" />
    <glyph glyph-name="bracketleft" unicode="[" horiz-adv-x="352" 
d="M98 789h131v-110h-38v-673h38v-113h-131v896z" />
    <glyph glyph-name="backslash" unicode="\" horiz-adv-x="352" 
d="M35 628l369 -628h-98l-354 628h83z" />
    <glyph glyph-name="bracketright" unicode="]" horiz-adv-x="306" 
d="M75 6h39v673h-39v110h131v-896h-131v113z" />
    <glyph glyph-name="asciicircum" unicode="^" horiz-adv-x="1414" 
d="M62 293h1v47h67v28h-18v88h18v31h-18v37h439v-46q-7 13 -24 13q-46 0 -46 -77q0 -76 48 -76q15 0 31 19v-17h24v184h374v-26h34v26h360v-322h-1290v91zM938 340v94q0 54 -47 54q-24 0 -31 -24q-9 24 -28 24q-17 0 -27 -24v23h-32v-119h-19v-28h70v28h-19v61q0 23 19 23
q15 0 15 -23v-89h51v28h-19v61q0 22 19 22q15 0 15 -22v-89h33zM256 293h33v56q7 -12 24 -12q46 0 46 76t-48 76q-14 0 -31 -20v18h-24v-194zM475 412q0 78 -55 78q-54 0 -54 -78q0 -76 54 -76q55 0 55 76zM169 293h21q55 6 55 71v123h-33v-91q0 -26 -20 -26q-19 0 -19 26
v91h-32v-85q0 -64 46 -64q14 0 25 8q0 -23 -28 -23h-15v-30zM685 487h-15v-23q-11 26 -33 26q-43 0 -43 -43q0 -27 22 -36q-23 -9 -23 -33q1 -42 45 -42q22 0 34.5 13t12.5 40h-15q-3 -19 -25 -19q-20 0 -20 14q0 18 20 18h10v18h-10q-20 0 -20 17q0 16 20 16q17 0 25 -20
h15v54zM1096 485h-16v-21q-12 26 -30 26q-50 0 -50 -78q0 -75 51 -75q36 0 45 58h-16q-3 -23 -25 -23q-23 0 -23 40q0 41 23 41t25 -27h16v59zM740 368h-14v65q0 20 14 20q6 0 12 -6l11 33q-8 7 -17 8q-21 0 -31 -24v23h-19v-147h44v28zM943 487v-31h15v-116h34v147h-49z
M286 437q6 15 21 15q21 0 21 -38q0 -43 -22 -43q-14 0 -20 16v50zM442 412q0 -40 -22 -40q-21 0 -21 40q0 41 21 41q22 0 22 -41zM553 389q-6 -14 -20 -14q-21 0 -21 38q0 43 22 43q13 0 19 -16v-51zM63 368v88h19v-88h-19zM63 487v37h19v-37h-19z" />
    <glyph glyph-name="underscore" unicode="_" horiz-adv-x="585" 
d="M0 -81h585v-68h-585v68z" />
    <glyph glyph-name="grave" unicode="`" horiz-adv-x="222" 
d="M108 771l66 -118h-54l-103 118h91z" />
    <glyph glyph-name="a" unicode="a" horiz-adv-x="676" 
d="M336 518q-15 0 -22 -18l-107 -300h260l-105 299q-4 11 -10 15t-12 4h-4zM169 90l-31 -90h-117l195 548q15 42 47 61t75 20q42 0 75 -20t47 -61l195 -548h-117l-32 90h-337z" />
    <glyph glyph-name="b" unicode="b" 
d="M155 371h219q32 0 52 21.5t20 52.5q0 29 -21 51t-50 22h-220v-147zM155 110h219q34 0 53 22.5t19 55.5q0 29 -21 51t-50 22h-220v-151zM358 628q54 0 91.5 -14.5t61.5 -39.5t34.5 -58.5t10.5 -72.5q0 -33 -16 -69t-53 -58q36 -22 52.5 -57.5t16.5 -72.5
q0 -35 -10.5 -68.5t-34 -59.5t-61.5 -42t-92 -16h-313v628h313z" />
    <glyph glyph-name="c" unicode="c" 
d="M321 0q-285 0 -285 313v3q3 312 286 312h229v-110h-257q-75 0 -111.5 -50t-36.5 -156q0 -202 147 -202h257v-110h-229z" />
    <glyph glyph-name="d" unicode="d" horiz-adv-x="625" 
d="M155 110h176q75 0 111.5 50t36.5 156q0 202 -147 202h-177v-408zM304 628q285 0 285 -313q0 -158 -72.5 -236.5t-213.5 -78.5h-258v628h259z" />
    <glyph glyph-name="e" unicode="e" 
d="M546 518h-330q-29 0 -50 -22t-21 -51q0 -31 20 -52.5t52 -21.5h329v-110h-330q-29 0 -50 -22t-21 -51q0 -35 20 -56.5t52 -21.5h329v-110h-313q-55 0 -92.5 16t-61 42.5t-34 59.5t-10.5 68q0 37 16 72.5t52 57.5q-37 22 -52.5 58t-15.5 69q0 39 11 73t34.5 59t61 39
t91.5 14h313v-110z" />
    <glyph glyph-name="f" unicode="f" horiz-adv-x="559" 
d="M524 518h-205q-72 0 -116.5 -37.5t-47.5 -109.5h369v-110h-369v-261h-110v356q0 63 17.5 113t52 85.5t86.5 54.5t121 19h202v-110z" />
    <glyph glyph-name="g" unicode="g" horiz-adv-x="639" 
d="M321 0q-285 0 -285 313v3q3 312 286 312h229v-110h-257q-75 0 -111.5 -50t-36.5 -156q0 -202 147 -202h132q28 0 48 23t20 53t-19.5 52.5t-48.5 22.5h-100v110h105q37 0 68.5 -15.5t54.5 -40.5t36.5 -57.5t13.5 -66.5q0 -42 -14 -76.5t-38 -59.5t-55.5 -39.5t-66.5 -15.5
h-108z" />
    <glyph glyph-name="h" unicode="h" horiz-adv-x="601" 
d="M446 261h-291v-261h-110v628h110v-257h291v257h110v-628h-110v261z" />
    <glyph glyph-name="i" unicode="i" horiz-adv-x="200" 
d="M45 628h110v-628h-110v628z" />
    <glyph glyph-name="j" unicode="j" horiz-adv-x="525" 
d="M35 110h171q78 0 121 42.5t43 118.5v357h110v-356q0 -63 -17.5 -113t-52 -85.5t-86.5 -54.5t-121 -19h-168v110z" />
    <glyph glyph-name="k" unicode="k" horiz-adv-x="616" 
d="M155 0h-110v628h110v-200l416 206v-126l-419 -194l419 -198v-122l-416 207v-201z" />
    <glyph glyph-name="l" unicode="l" horiz-adv-x="545" 
d="M322 0q-69 0 -121 19t-86.5 54.5t-52 85.5t-17.5 113v356h110v-357q0 -76 43 -118.5t121 -42.5h191v-110h-188z" />
    <glyph glyph-name="m" unicode="m" horiz-adv-x="1073" 
d="M49 0v476q0 35 12.5 63.5t34.5 48.5t51.5 31t63.5 11q49 0 87.5 -26t53.5 -72l126 -384q6 -19 14.5 -29t23.5 -10q47 0 47 55v312q0 35 12.5 63.5t34.5 48.5t51.5 31t63.5 11q48 0 86.5 -26.5t54.5 -71.5l190 -532h-124l-167 480q-7 19 -15 29t-23 10q-47 0 -47 -55v-312
q0 -35 -12.5 -63.5t-34.5 -48.5t-51.5 -31t-63.5 -11q-49 0 -87.5 26t-53.5 72l-126 384q-6 19 -14.5 29t-23.5 10q-47 0 -47 -55v-464h-117z" />
    <glyph glyph-name="n" unicode="n" horiz-adv-x="721" 
d="M676 150q0 -35 -12.5 -63.5t-34.5 -48.5t-51.5 -31t-63.5 -11q-48 0 -87 26t-54 72l-126 386q-6 19 -14.5 29t-23.5 10q-47 0 -47 -55v-464h-117v476q0 35 12.5 63.5t34.5 48.5t51.5 31t63.5 11q48 0 87 -26t54 -72l126 -386q6 -19 14.5 -29t23.5 -10q47 0 47 55v466h117
v-478z" />
    <glyph glyph-name="o" unicode="o" horiz-adv-x="692" 
d="M399 110q147 0 147 202q0 106 -36.5 156t-111.5 50h-104q-75 0 -111.5 -50t-36.5 -156q0 -202 147 -202h106zM370 628q283 0 286 -312v-3q0 -313 -285 -313h-50q-285 0 -285 313v3q1 155 72 233.5t214 78.5h48z" />
    <glyph glyph-name="p" unicode="p" 
d="M155 371h219q31 0 51.5 21.5t20.5 52.5q0 29 -21 51t-50 22h-220v-147zM358 628q52 0 89.5 -14.5t61.5 -40t35.5 -59t11.5 -71.5q0 -33 -10.5 -65.5t-34.5 -58.5t-61.5 -42t-91.5 -16h-203v-261h-110v628h313z" />
    <glyph glyph-name="q" unicode="q" horiz-adv-x="700" 
d="M523 181q23 48 23 131q0 106 -36.5 156t-111.5 50h-104q-75 0 -111.5 -50t-36.5 -156q0 -202 147 -202h123l-118 56v123zM370 628q141 0 213.5 -77.5t72.5 -234.5q0 -114 -34 -183l43 -20v-119l-116 54q-34 -23 -77.5 -35.5t-100.5 -12.5h-50q-285 0 -285 313v3
q1 155 72 233.5t214 78.5h48z" />
    <glyph glyph-name="r" unicode="r" 
d="M155 367h219q31 0 51.5 22.5t20.5 53.5q0 15 -5.5 28.5t-15.5 24t-22.5 16.5t-27.5 6h-220v-151zM358 628q52 0 89.5 -14.5t61.5 -40t35.5 -59t11.5 -71.5q0 -33 -10.5 -65.5t-34.5 -58.5t-61.5 -42t-91.5 -16h-51l254 -142v-132l-406 247v-234h-110v628h313z" />
    <glyph glyph-name="s" unicode="s" horiz-adv-x="624" 
d="M216 518q-29 0 -50 -22t-21 -51q0 -31 20.5 -52.5t51.5 -21.5h174q91 0 144 -46.5t53 -136.5q0 -94 -52.5 -141t-146.5 -47h-322v110h343q29 0 48.5 22t19.5 54q0 30 -19.5 52.5t-48.5 22.5h-177q-55 0 -92.5 16.5t-61 42.5t-34 58.5t-10.5 64.5q0 38 11 71.5t35 59
t61.5 40t90.5 14.5h313v-110h-330z" />
    <glyph glyph-name="t" unicode="t" horiz-adv-x="461" 
d="M290 0h-110v518h-155v110h411v-110h-146v-518z" />
    <glyph glyph-name="u" unicode="u" horiz-adv-x="618" 
d="M573 233q0 -54 -16.5 -97.5t-49 -75t-82 -48.5t-115.5 -17q-64 0 -113.5 17.5t-83 48.5t-51 74.5t-17.5 96.5v396h110v-394q0 -57 41.5 -93t114.5 -36h3q75 0 112 36t37 93v394h110v-395z" />
    <glyph glyph-name="v" unicode="v" horiz-adv-x="676" 
d="M340 107q6 0 12.5 4t9.5 13l176 504h117l-195 -552q-14 -41 -46.5 -60.5t-75.5 -19.5t-75.5 20t-46.5 60l-195 552h117l176 -504q6 -17 22 -17h4z" />
    <glyph glyph-name="w" unicode="w" horiz-adv-x="1073" 
d="M861 94q-17 -45 -54.5 -71.5t-85.5 -26.5q-34 0 -63.5 11t-51.5 31t-34.5 48.5t-12.5 63.5v315q0 55 -47 55q-15 0 -23.5 -10t-14.5 -29l-127 -387h1q-14 -46 -53.5 -72t-87.5 -26q-34 0 -63.5 11t-51.5 31t-34.5 48.5t-12.5 63.5v478h117v-466q0 -55 47 -55
q15 0 23.5 10t14.5 29l127 387q15 45 53.5 71.5t86.5 26.5q34 0 63.5 -11t51.5 -31t34.5 -48.5t12.5 -63.5v-315q0 -55 47 -55q15 0 23 10t15 29l167 482h124z" />
    <glyph glyph-name="x" unicode="x" horiz-adv-x="606" 
d="M589 0h-132l-154 254l-154 -254h-132l202 322l-202 306h131l155 -252l155 252h131l-203 -306z" />
    <glyph glyph-name="y" unicode="y" horiz-adv-x="606" 
d="M248 278l-232 350h132l155 -252l155 252h132l-232 -343v-285h-110v278z" />
    <glyph glyph-name="z" unicode="z" horiz-adv-x="672" 
d="M487 438q17 8 26.5 20.5t9.5 26.5q0 13 -10 23t-31 10h-419v110h416q76 0 114 -40t38 -104q0 -12 -2 -30t-11.5 -38t-30 -40t-57.5 -36l-345 -150q-31 -13 -31 -43q0 -37 36 -37h426v-110h-423q-76 0 -114.5 40t-38.5 103q0 17 3.5 36.5t14.5 39t31 37.5t52 32z" />
    <glyph glyph-name="braceleft" unicode="{" horiz-adv-x="390" 
d="M268 -114q-118 0 -118 166v66q0 81 -26 114.5t-88 35.5v96q62 3 88 37t26 113v67q0 166 118 166h74v-85q-37 0 -58.5 -6t-32 -24t-13 -51t-2.5 -88q0 -54 -18 -94t-66 -73v-21q84 -62 84 -166q0 -50 2 -82.5t9.5 -51t21.5 -25.5t38 -7q8 0 16 0.5t19 1.5v-89h-74z" />
    <glyph glyph-name="braceright" unicode="}" horiz-adv-x="390" 
d="M110 746q118 0 118 -166v-66q0 -81 26 -114.5t88 -35.5v-96q-62 -3 -88 -37t-26 -113v-67q0 -166 -118 -166h-74v85h13q28 0 46 5t28.5 22.5t14.5 51t4 90.5q0 54 18 94t66 72v21q-84 61 -84 167q0 58 -3.5 91.5t-13.5 50.5t-28.5 21.5t-47.5 4.5h-13v85h74z" />
    <glyph glyph-name="uni0081" horiz-adv-x="250" 
d="M174 696q0 17 -13.5 29t-33.5 12q-18 0 -32 -12t-14 -29q0 -19 14 -30t32 -11q20 0 33.5 11t13.5 30zM219 696q0 -37 -27.5 -61.5t-64.5 -24.5q-36 0 -63 24.5t-27 61.5q0 19 7.5 35t19.5 28t28.5 18.5t34.5 6.5t35 -6.5t29.5 -18.5t20 -28t7.5 -35z" />
    <glyph glyph-name="exclamdown" unicode="&#xa1;" horiz-adv-x="201" 
d="M156 517h-110v111h110v-111zM156 0h-110v411h110v-411z" />
    <glyph glyph-name="cent" unicode="&#xa2;" 
d="M299 741h74v-907h-74v907zM321 0q-285 0 -285 313v3q3 312 286 312h229v-110h-257q-75 0 -111.5 -50t-36.5 -156q0 -202 147 -202h257v-110h-229z" />
    <glyph glyph-name="sterling" unicode="&#xa3;" horiz-adv-x="500" 
d="M108 110v151h-67v110h67q1 57 19.5 104.5t53.5 81.5t86 52.5t118 18.5h76v-110h-79q-72 0 -116.5 -37.5t-47.5 -109.5h137v-110h-137v-151h243v-110h-420v110h67z" />
    <glyph glyph-name="currency" unicode="&#xa4;" horiz-adv-x="566" 
d="M182 285h206l-42 -99h-145q19 -37 49.5 -56.5t78.5 -19.5h179v-110h-151q-219 0 -271 186h-48v99h34v61h-34v98h50q25 91 93 137.5t177 46.5h173l-46 -110h-155q-45 0 -78 -19.5t-49 -54.5h251l-41 -98h-231v-61z" />
    <glyph glyph-name="yen" unicode="&#xa5;" horiz-adv-x="685" 
d="M388 0h-118v44h-96v85h96v47h-96v84h76l-230 368h133l178 -274l175 274h136l-236 -368h72v-84h-90v-47h90v-85h-90v-44z" />
    <glyph glyph-name="dieresis" unicode="&#xa8;" horiz-adv-x="340" 
d="M246 653q-24 0 -42 18t-18 43q0 26 18 43.5t42 17.5q26 0 42.5 -17.5t16.5 -43.5q0 -25 -16.5 -43t-42.5 -18zM94 653q-26 0 -43 18t-17 43q0 26 17 43.5t43 17.5t43 -17.5t17 -43.5q0 -25 -17 -43t-43 -18z" />
    <glyph glyph-name="copyright" unicode="&#xa9;" horiz-adv-x="676" 
d="M342 151q-125 0 -125 138v2q2 137 126 137h101v-48h-114q-64 0 -64 -91v-4q0 -85 64 -85h113v-49h-101zM115 285q0 -51 19.5 -95.5t52.5 -77.5t77.5 -52.5t95.5 -19.5t95.5 19.5t78 52.5t53 77.5t19.5 95.5t-19.5 95.5t-53 78t-78 53t-95.5 19.5t-95.5 -19.5t-77.5 -53
t-52.5 -78t-19.5 -95.5zM72 286q0 58 23 110.5t62 91.5t91 62t111 23q58 0 110.5 -23t91.5 -62t62 -91.5t23 -110.5q0 -59 -23 -111t-62 -91t-91.5 -62t-110.5 -23q-59 0 -111 23t-91 62t-62 91t-23 111z" />
    <glyph glyph-name="guillemotleft" unicode="&#xab;" horiz-adv-x="424" 
d="M377 265v-72l-168 84v67l168 87v-74l-99 -46zM207 265v-72l-168 84v67l168 87v-74l-99 -46z" />
    <glyph glyph-name="registered" unicode="&#xae;" horiz-adv-x="590" 
d="M295 524q-40 0 -71.5 -14t-53.5 -37t-34 -51.5t-12 -58.5t12 -59t34 -52t53.5 -37t71.5 -14q37 0 70.5 12.5t58.5 34.5t39.5 51.5t14.5 63.5q0 30 -13.5 58.5t-38 51.5t-58 37t-73.5 14zM296 142q-51 0 -94 18t-74 49t-48.5 70.5t-17.5 83.5q0 45 17.5 85.5t48.5 70.5
t74 48t94 18q52 0 95.5 -17t75 -47t49.5 -70.5t18 -87.5q0 -44 -18 -83.5t-50 -70.5t-75.5 -49t-94.5 -18zM256 380h71q24 0 24 25q0 9 -7 16t-16 7h-72v-48zM322 464q35 0 50 -17.5t15 -42.5q0 -21 -14.5 -40.5t-50.5 -19.5h-16l83 -46v-44l-133 81v-76h-36v205h102z" />
    <glyph glyph-name="macron" unicode="&#xaf;" horiz-adv-x="300" 
d="M269 737v-84h-240v84h240z" />
    <glyph glyph-name="degree" unicode="&#xb0;" horiz-adv-x="321" 
d="M161 589q-34 0 -52 -19.5t-18 -45.5t18 -45t52 -19q32 0 53 19t21 45t-21 45.5t-53 19.5zM161 394q-29 0 -53.5 10.5t-42 28.5t-27 41.5t-9.5 49.5q0 27 9.5 51t27 42t42 28t53.5 10t53.5 -10t42.5 -27.5t28 -41.5t10 -52q0 -26 -10.5 -49.5t-28.5 -41.5t-42.5 -28.5
t-52.5 -10.5z" />
    <glyph glyph-name="acute" unicode="&#xb4;" horiz-adv-x="184" 
d="M16 652l66 118h90l-102 -118h-54z" />
    <glyph glyph-name="cedilla" unicode="&#xb8;" horiz-adv-x="254" 
d="M41 -135h82q14 0 21.5 8t7.5 17q0 8 -7 15t-22 7h-82v103h62v-40h29q22 0 38.5 -7.5t27.5 -20.5t16.5 -29t5.5 -33q0 -16 -5.5 -31.5t-16 -27.5t-27.5 -19.5t-39 -7.5h-91v66z" />
    <glyph glyph-name="ordmasculine" unicode="&#xba;" horiz-adv-x="339" 
d="M169 589q-29 0 -44 -16t-15 -41q0 -55 60 -55q59 0 59 55q0 57 -60 57zM169 416q-69 0 -106 30.5t-37 85.5q0 51 38.5 84.5t104.5 33.5q32 0 58.5 -9t45.5 -24.5t29.5 -37.5t10.5 -47q0 -54 -37.5 -85t-106.5 -31z" />
    <glyph glyph-name="guillemotright" unicode="&#xbb;" horiz-adv-x="400" 
d="M26 359v72l168 -84v-67l-168 -87v74l98 46zM204 359v72l168 -84v-67l-168 -87v74l98 46z" />
    <glyph glyph-name="questiondown" unicode="&#xbf;" horiz-adv-x="612" 
d="M443 516h-116v112h116v-112zM216 0q-36 0 -68 12.5t-55.5 36t-37 58t-13.5 78.5v6q0 36 13.5 68t37 56t55 38t68.5 14h24q30 0 53.5 21.5t30.5 54.5h114v-14q0 -33 -15.5 -64t-41 -55t-57 -38.5t-64.5 -14.5h-37q-29 0 -50 -21.5t-21 -52.5q0 -29 21 -51t50 -22h329v-110
h-336z" />
    <glyph glyph-name="Agrave" unicode="&#xc0;" horiz-adv-x="676" 
d="M538 0l-176 500q-3 9 -9.5 13t-14.5 4q-18 0 -24 -17l-176 -500h-117l195 547q14 41 46.5 61t75.5 20q42 0 75 -20t47 -61l195 -547h-117zM309 771l66 -118h-54l-103 118h91z" />
    <glyph glyph-name="Aacute" unicode="&#xc1;" horiz-adv-x="676" 
d="M538 0l-176 500q-3 9 -9.5 13t-14.5 4q-18 0 -24 -17l-176 -500h-117l195 547q14 41 46.5 61t75.5 20q42 0 75 -20t47 -61l195 -547h-117zM299 652l66 118h90l-102 -118h-54z" />
    <glyph glyph-name="Acircumflex" unicode="&#xc2;" horiz-adv-x="676" 
d="M538 0l-176 500q-3 9 -9.5 13t-14.5 4q-18 0 -24 -17l-176 -500h-117l195 547q14 41 46.5 61t75.5 20q42 0 75 -20t47 -61l195 -547h-117zM285 652h-82l99 117h70l102 -117h-84l-53 62z" />
    <glyph glyph-name="Atilde" unicode="&#xc3;" horiz-adv-x="676" 
d="M538 0l-176 500q-3 9 -9.5 13t-14.5 4q-18 0 -24 -17l-176 -500h-117l195 547q14 41 46.5 61t75.5 20q42 0 75 -20t47 -61l195 -547h-117zM197 674q39 68 91 68q9 0 22.5 -5.5t28 -12t28.5 -12t25 -5.5q30 0 46 40l40 -44q-4 -17 -14.5 -29t-23 -19t-25.5 -10t-22 -3
q-10 0 -20.5 2.5t-21.5 8.5q-23 11 -35 16.5t-21 5.5q-20 0 -52 -41z" />
    <glyph glyph-name="Adieresis" unicode="&#xc4;" horiz-adv-x="676" 
d="M538 0l-176 500q-3 9 -9.5 13t-14.5 4q-18 0 -24 -17l-176 -500h-117l195 547q14 41 46.5 61t75.5 20q42 0 75 -20t47 -61l195 -547h-117zM414 653q-24 0 -42 18t-18 43q0 26 18 43.5t42 17.5q26 0 42.5 -17.5t16.5 -43.5q0 -25 -16.5 -43t-42.5 -18zM262 653
q-26 0 -43 18t-17 43q0 26 17 43.5t43 17.5t43 -17.5t17 -43.5q0 -25 -17 -43t-43 -18z" />
    <glyph glyph-name="Aring" unicode="&#xc5;" horiz-adv-x="676" 
d="M538 0l-176 500q-3 9 -9.5 13t-14.5 4q-18 0 -24 -17l-176 -500h-117l195 547q14 41 46.5 61t75.5 20q42 0 75 -20t47 -61l195 -547h-117zM337 750q-14 0 -23.5 -10.5t-9.5 -24.5q0 -16 9.5 -25.5t23.5 -9.5t24.5 9.5t10.5 25.5q0 14 -10.5 24.5t-24.5 10.5zM335 637
q-32 0 -54 21t-22 55q0 35 22 57.5t54 22.5q34 0 56 -23t22 -57t-22 -55t-56 -21z" />
    <glyph glyph-name="AE" unicode="&#xc6;" horiz-adv-x="848" 
d="M212 532h-1q14 46 53.5 72t87.5 26q11 0 17.5 -0.5t10.5 -1.5h409v-110h-280q5 -25 5 -42v-105h275v-110h-275v-151h275v-110h-392v464q0 55 -47 55q-31 0 -38 -40l-178 -479h-113z" />
    <glyph glyph-name="Ccedilla" unicode="&#xc7;" 
d="M321 0q-285 0 -285 313v3q3 312 286 312h229v-110h-257q-75 0 -111.5 -50t-36.5 -156q0 -202 147 -202h257v-110h-229zM308 -135h82q14 0 21.5 8t7.5 17q0 8 -7 15t-22 7h-82v103h62v-40h29q22 0 38.5 -7.5t27.5 -20.5t16.5 -29t5.5 -33q0 -16 -5.5 -31.5t-16 -27.5
t-27.5 -19.5t-39 -7.5h-91v66z" />
    <glyph glyph-name="Egrave" unicode="&#xc8;" 
d="M546 518h-330q-29 0 -50 -22t-21 -51q0 -31 20 -52.5t52 -21.5h329v-110h-330q-29 0 -50 -22t-21 -51q0 -35 20 -56.5t52 -21.5h329v-110h-313q-55 0 -92.5 16t-61 42.5t-34 59.5t-10.5 68q0 37 16 72.5t52 57.5q-37 22 -52.5 58t-15.5 69q0 40 12 74t36 59t61.5 38.5
t88.5 13.5h313v-110zM309 771l66 -118h-54l-103 118h91z" />
    <glyph glyph-name="Eacute" unicode="&#xc9;" 
d="M546 518h-330q-29 0 -50 -22t-21 -51q0 -31 20 -52.5t52 -21.5h329v-110h-330q-29 0 -50 -22t-21 -51q0 -35 20 -56.5t52 -21.5h329v-110h-313q-55 0 -92.5 16t-61 42.5t-34 59.5t-10.5 68q0 37 16 72.5t52 57.5q-37 22 -52.5 58t-15.5 69q0 40 12 74t36 59t61.5 38.5
t88.5 13.5h313v-110zM275 652l66 118h90l-102 -118h-54z" />
    <glyph glyph-name="Ecircumflex" unicode="&#xca;" 
d="M546 518h-330q-29 0 -50 -22t-21 -51q0 -31 20 -52.5t52 -21.5h329v-110h-330q-29 0 -50 -22t-21 -51q0 -35 20 -56.5t52 -21.5h329v-110h-313q-55 0 -92.5 16t-61 42.5t-34 59.5t-10.5 68q0 37 16 72.5t52 57.5q-37 22 -52.5 58t-15.5 69q0 40 12 74t36 59t61.5 38.5
t88.5 13.5h313v-110zM270 652h-82l99 117h70l102 -117h-84l-53 62z" />
    <glyph glyph-name="Edieresis" unicode="&#xcb;" 
d="M546 518h-330q-29 0 -50 -22t-21 -51q0 -31 20 -52.5t52 -21.5h329v-110h-330q-29 0 -50 -22t-21 -51q0 -35 20 -56.5t52 -21.5h329v-110h-313q-55 0 -92.5 16t-61 42.5t-34 59.5t-10.5 68q0 37 16 72.5t52 57.5q-37 22 -52.5 58t-15.5 69q0 40 12 74t36 59t61.5 38.5
t88.5 13.5h313v-110zM402 653q-24 0 -42 18t-18 43q0 26 18 43.5t42 17.5q26 0 42.5 -17.5t16.5 -43.5q0 -25 -16.5 -43t-42.5 -18zM250 653q-26 0 -43 18t-17 43q0 26 17 43.5t43 17.5t43 -17.5t17 -43.5q0 -25 -17 -43t-43 -18z" />
    <glyph glyph-name="Igrave" unicode="&#xcc;" horiz-adv-x="200" 
d="M45 628h110v-628h-110v628zM78 771l66 -118h-54l-103 118h91z" />
    <glyph glyph-name="Iacute" unicode="&#xcd;" horiz-adv-x="200" 
d="M45 628h110v-628h-110v628zM67 652l66 118h90l-102 -118h-54z" />
    <glyph glyph-name="Icircumflex" unicode="&#xce;" horiz-adv-x="200" 
d="M45 628h110v-628h-110v628zM52 652h-82l99 117h70l102 -117h-84l-53 62z" />
    <glyph glyph-name="Idieresis" unicode="&#xcf;" horiz-adv-x="200" 
d="M45 628h110v-628h-110v628zM180 653q-24 0 -42 18t-18 43q0 26 18 43.5t42 17.5q26 0 42.5 -17.5t16.5 -43.5q0 -25 -16.5 -43t-42.5 -18zM28 653q-26 0 -43 18t-17 43q0 26 17 43.5t43 17.5t43 -17.5t17 -43.5q0 -25 -17 -43t-43 -18z" />
    <glyph glyph-name="Eth" unicode="&#xd0;" horiz-adv-x="625" 
d="M155 110h176q75 0 111.5 50t36.5 156q0 202 -147 202h-177v-408zM304 628q285 0 285 -313v-3q-3 -312 -286 -312h-258v628h259zM9 372h256v-112h-256v112z" />
    <glyph glyph-name="Ntilde" unicode="&#xd1;" horiz-adv-x="721" 
d="M676 149q0 -35 -12.5 -63.5t-34.5 -48.5t-51.5 -31t-63.5 -11q-48 0 -87 26t-54 72l-126 387q-6 19 -14.5 29t-23.5 10q-47 0 -47 -55v-464h-117v476q0 35 12.5 63.5t34.5 48.5t51.5 31t63.5 11q48 0 86.5 -26.5t53.5 -71.5l127 -387q6 -19 14.5 -29t23.5 -10q47 0 47 55
v467h117v-479zM227 674q39 68 91 68q9 0 22.5 -5.5t28 -12t28.5 -12t25 -5.5q30 0 46 40l40 -44q-4 -17 -14.5 -29t-23 -19t-25.5 -10t-22 -3q-10 0 -20.5 2.5t-21.5 8.5q-23 11 -35 16.5t-21 5.5q-20 0 -52 -41z" />
    <glyph glyph-name="Ograve" unicode="&#xd2;" horiz-adv-x="692" 
d="M294 518q-75 0 -111.5 -50t-36.5 -156q0 -202 147 -202h106q147 0 147 202q0 106 -36.5 156t-111.5 50h-104zM370 628q283 0 286 -312v-3q0 -313 -285 -313h-50q-285 0 -285 313v3q3 312 286 312h48zM318 771l66 -118h-54l-103 118h91z" />
    <glyph glyph-name="Oacute" unicode="&#xd3;" horiz-adv-x="692" 
d="M294 518q-75 0 -111.5 -50t-36.5 -156q0 -202 147 -202h106q147 0 147 202q0 106 -36.5 156t-111.5 50h-104zM370 628q283 0 286 -312v-3q0 -313 -285 -313h-50q-285 0 -285 313v3q3 312 286 312h48zM278 652l66 118h90l-102 -118h-54z" />
    <glyph glyph-name="Ocircumflex" unicode="&#xd4;" horiz-adv-x="692" 
d="M294 518q-75 0 -111.5 -50t-36.5 -156q0 -202 147 -202h106q147 0 147 202q0 106 -36.5 156t-111.5 50h-104zM370 628q283 0 286 -312v-3q0 -313 -285 -313h-50q-285 0 -285 313v3q3 312 286 312h48zM296 652h-82l99 117h70l102 -117h-84l-53 62z" />
    <glyph glyph-name="Otilde" unicode="&#xd5;" horiz-adv-x="692" 
d="M294 518q-75 0 -111.5 -50t-36.5 -156q0 -202 147 -202h106q147 0 147 202q0 106 -36.5 156t-111.5 50h-104zM370 628q283 0 286 -312v-3q0 -313 -285 -313h-50q-285 0 -285 313v3q3 312 286 312h48zM204 674q39 68 91 68q9 0 22.5 -5.5t28 -12t28.5 -12t25 -5.5
q30 0 46 40l40 -44q-4 -17 -14.5 -29t-23 -19t-25.5 -10t-22 -3q-10 0 -20.5 2.5t-21.5 8.5q-23 11 -35 16.5t-21 5.5q-20 0 -52 -41z" />
    <glyph glyph-name="Odieresis" unicode="&#xd6;" horiz-adv-x="692" 
d="M294 518q-75 0 -111.5 -50t-36.5 -156q0 -202 147 -202h106q147 0 147 202q0 106 -36.5 156t-111.5 50h-104zM370 628q283 0 286 -312v-3q0 -313 -285 -313h-50q-285 0 -285 313v3q3 312 286 312h48zM420 653q-24 0 -42 18t-18 43q0 26 18 43.5t42 17.5q26 0 42.5 -17.5
t16.5 -43.5q0 -25 -16.5 -43t-42.5 -18zM268 653q-26 0 -43 18t-17 43q0 26 17 43.5t43 17.5t43 -17.5t17 -43.5q0 -25 -17 -43t-43 -18z" />
    <glyph glyph-name="Oslash" unicode="&#xd8;" horiz-adv-x="692" 
d="M294 518q-75 0 -111.5 -50t-36.5 -156q0 -202 147 -202h106q147 0 147 202q0 106 -36.5 156t-111.5 50h-104zM370 628q283 0 286 -312v-3q0 -313 -285 -313h-50q-285 0 -285 313v3q3 312 286 312h48zM117 0l368 628h74l-365 -628h-77z" />
    <glyph glyph-name="Ugrave" unicode="&#xd9;" horiz-adv-x="618" 
d="M573 238q0 -54 -16.5 -97.5t-49 -75t-82 -48.5t-115.5 -17q-64 0 -113.5 17.5t-83 48.5t-51 74.5t-17.5 96.5v391h110v-389q0 -57 41.5 -93t114.5 -36h3q75 0 112 36t37 93v389h110v-390zM289 771l66 -118h-54l-103 118h91z" />
    <glyph glyph-name="Uacute" unicode="&#xda;" horiz-adv-x="618" 
d="M573 238q0 -54 -16.5 -97.5t-49 -75t-82 -48.5t-115.5 -17q-64 0 -113.5 17.5t-83 48.5t-51 74.5t-17.5 96.5v391h110v-389q0 -57 41.5 -93t114.5 -36h3q75 0 112 36t37 93v389h110v-390zM259 652l66 118h90l-102 -118h-54z" />
    <glyph glyph-name="Ucircumflex" unicode="&#xdb;" horiz-adv-x="618" 
d="M573 238q0 -54 -16.5 -97.5t-49 -75t-82 -48.5t-115.5 -17q-64 0 -113.5 17.5t-83 48.5t-51 74.5t-17.5 96.5v391h110v-389q0 -57 41.5 -93t114.5 -36h3q75 0 112 36t37 93v389h110v-390zM261 652h-82l99 117h70l102 -117h-84l-53 62z" />
    <glyph glyph-name="Udieresis" unicode="&#xdc;" horiz-adv-x="618" 
d="M573 238q0 -54 -16.5 -97.5t-49 -75t-82 -48.5t-115.5 -17q-64 0 -113.5 17.5t-83 48.5t-51 74.5t-17.5 96.5v391h110v-389q0 -57 41.5 -93t114.5 -36h3q75 0 112 36t37 93v389h110v-390zM388 653q-24 0 -42 18t-18 43q0 26 18 43.5t42 17.5q26 0 42.5 -17.5t16.5 -43.5
q0 -25 -16.5 -43t-42.5 -18zM236 653q-26 0 -43 18t-17 43q0 26 17 43.5t43 17.5t43 -17.5t17 -43.5q0 -25 -17 -43t-43 -18z" />
    <glyph glyph-name="Yacute" unicode="&#xdd;" horiz-adv-x="606" 
d="M248 278l-232 350h132l155 -252l155 252h132l-232 -343v-285h-110v278zM252 652l66 118h90l-102 -118h-54z" />
    <glyph glyph-name="Thorn" unicode="&#xde;" horiz-adv-x="543" 
d="M155 246h169q31 0 51.5 21.5t20.5 52.5q0 29 -21 51t-50 22h-170v-147zM155 628v-125h153q52 0 89.5 -14.5t61.5 -40t35.5 -59t11.5 -71.5q0 -33 -10.5 -65.5t-34.5 -58.5t-61.5 -42t-91.5 -16h-153v-136h-110v628h110z" />
    <glyph glyph-name="germandbls" unicode="&#xdf;" horiz-adv-x="1248" 
d="M588 184q0 -91 -52.5 -137.5t-146.5 -46.5h-322v110h343q29 0 48.5 22t19.5 54q0 30 -19.5 52.5t-48.5 22.5h-177q-55 0 -92.5 16.5t-61 42.5t-34 58.5t-10.5 64.5q0 38 11 71.5t35 59t61.5 40t90.5 14.5h313v-110h-330q-29 0 -50 -22t-21 -51q0 -31 20.5 -52.5
t51.5 -21.5h174q91 0 144 -46.5t53 -136.5v-4zM1212 184q0 -91 -52.5 -137.5t-146.5 -46.5h-322v110h343q29 0 48.5 22t19.5 54q0 30 -19.5 52.5t-48.5 22.5h-177q-55 0 -92.5 16.5t-61 42.5t-34 58.5t-10.5 64.5q0 38 11 71.5t35 59t61.5 40t90.5 14.5h313v-110h-330
q-29 0 -50 -22t-21 -51q0 -31 20.5 -52.5t51.5 -21.5h174q91 0 144 -46.5t53 -136.5v-4z" />
    <glyph glyph-name="agrave" unicode="&#xe0;" horiz-adv-x="676" 
d="M336 518q-15 0 -22 -18l-107 -300h260l-105 299q-4 11 -10 15t-12 4h-4zM169 90l-31 -90h-117l195 548q15 42 47 61t75 20q42 0 75 -20t47 -61l195 -548h-117l-32 90h-337zM306 771l66 -118h-54l-103 118h91z" />
    <glyph glyph-name="aacute" unicode="&#xe1;" horiz-adv-x="676" 
d="M336 518q-15 0 -22 -18l-107 -300h260l-105 299q-4 11 -10 15t-12 4h-4zM169 90l-31 -90h-117l195 548q15 42 47 61t75 20q42 0 75 -20t47 -61l195 -548h-117l-32 90h-337zM281 652l66 118h90l-102 -118h-54z" />
    <glyph glyph-name="acircumflex" unicode="&#xe2;" horiz-adv-x="676" 
d="M336 518q-15 0 -22 -18l-107 -300h260l-105 299q-4 11 -10 15t-12 4h-4zM169 90l-31 -90h-117l195 548q15 42 47 61t75 20q42 0 75 -20t47 -61l195 -548h-117l-32 90h-337zM283 652h-82l99 117h70l102 -117h-84l-53 62z" />
    <glyph glyph-name="atilde" unicode="&#xe3;" horiz-adv-x="676" 
d="M336 518q-15 0 -22 -18l-107 -300h260l-105 299q-4 11 -10 15t-12 4h-4zM169 90l-31 -90h-117l195 548q15 42 47 61t75 20q42 0 75 -20t47 -61l195 -548h-117l-32 90h-337zM196 674q39 68 91 68q9 0 22.5 -5.5t28 -12t28.5 -12t25 -5.5q30 0 46 40l40 -44
q-4 -17 -14.5 -29t-23 -19t-25.5 -10t-22 -3q-10 0 -20.5 2.5t-21.5 8.5q-23 11 -35 16.5t-21 5.5q-20 0 -52 -41z" />
    <glyph glyph-name="adieresis" unicode="&#xe4;" horiz-adv-x="676" 
d="M336 518q-15 0 -22 -18l-107 -300h260l-105 299q-4 11 -10 15t-12 4h-4zM169 90l-31 -90h-117l195 548q15 42 47 61t75 20q42 0 75 -20t47 -61l195 -548h-117l-32 90h-337zM415 653q-24 0 -42 18t-18 43q0 26 18 43.5t42 17.5q26 0 42.5 -17.5t16.5 -43.5
q0 -25 -16.5 -43t-42.5 -18zM263 653q-26 0 -43 18t-17 43q0 26 17 43.5t43 17.5t43 -17.5t17 -43.5q0 -25 -17 -43t-43 -18z" />
    <glyph glyph-name="aring" unicode="&#xe5;" horiz-adv-x="676" 
d="M336 518q-15 0 -22 -18l-107 -300h260l-105 299q-4 11 -10 15t-12 4h-4zM169 90l-31 -90h-117l195 548q15 42 47 61t75 20q42 0 75 -20t47 -61l195 -548h-117l-32 90h-337zM340 750q-14 0 -23.5 -10.5t-9.5 -24.5q0 -16 9.5 -25.5t23.5 -9.5t24.5 9.5t10.5 25.5
q0 14 -10.5 24.5t-24.5 10.5zM338 637q-32 0 -54 21t-22 55q0 35 22 57.5t54 22.5q34 0 56 -23t22 -57t-22 -55t-56 -21z" />
    <glyph glyph-name="ae" unicode="&#xe6;" horiz-adv-x="848" 
d="M212 532h-1q14 46 53.5 72t87.5 26h14q4 0 7 -0.5t7 -1.5h409v-110h-280q5 -25 5 -42v-105h275v-110h-275v-151h275v-110h-392v90h-230l-33 -90h-113zM397 193v271q0 55 -47 55q-31 0 -38 -40l-106 -286h191z" />
    <glyph glyph-name="ccedilla" unicode="&#xe7;" 
d="M321 0q-285 0 -285 313v3q3 312 286 312h229v-110h-257q-75 0 -111.5 -50t-36.5 -156q0 -202 147 -202h257v-110h-229zM305 -135h82q14 0 21.5 8t7.5 17q0 8 -7 15t-22 7h-82v103h62v-40h29q22 0 38.5 -7.5t27.5 -20.5t16.5 -29t5.5 -33q0 -16 -5.5 -31.5t-16 -27.5
t-27.5 -19.5t-39 -7.5h-91v66z" />
    <glyph glyph-name="egrave" unicode="&#xe8;" 
d="M546 518h-330q-29 0 -50 -22t-21 -51q0 -31 20 -52.5t52 -21.5h329v-110h-330q-29 0 -50 -22t-21 -51q0 -35 20 -56.5t52 -21.5h329v-110h-313q-55 0 -92.5 16t-61 42.5t-34 59.5t-10.5 68q0 37 16 72.5t52 57.5q-37 22 -52.5 58t-15.5 69q0 39 11 73t34.5 59t61 39
t91.5 14h313v-110zM321 771l66 -118h-54l-103 118h91z" />
    <glyph glyph-name="eacute" unicode="&#xe9;" 
d="M546 518h-330q-29 0 -50 -22t-21 -51q0 -31 20 -52.5t52 -21.5h329v-110h-330q-29 0 -50 -22t-21 -51q0 -35 20 -56.5t52 -21.5h329v-110h-313q-55 0 -92.5 16t-61 42.5t-34 59.5t-10.5 68q0 37 16 72.5t52 57.5q-37 22 -52.5 58t-15.5 69q0 39 11 73t34.5 59t61 39
t91.5 14h313v-110zM248 652l66 118h90l-102 -118h-54z" />
    <glyph glyph-name="ecircumflex" unicode="&#xea;" 
d="M546 518h-330q-29 0 -50 -22t-21 -51q0 -31 20 -52.5t52 -21.5h329v-110h-330q-29 0 -50 -22t-21 -51q0 -35 20 -56.5t52 -21.5h329v-110h-313q-55 0 -92.5 16t-61 42.5t-34 59.5t-10.5 68q0 37 16 72.5t52 57.5q-37 22 -52.5 58t-15.5 69q0 39 11 73t34.5 59t61 39
t91.5 14h313v-110zM258 652h-82l99 117h70l102 -117h-84l-53 62z" />
    <glyph glyph-name="edieresis" unicode="&#xeb;" 
d="M546 518h-330q-29 0 -50 -22t-21 -51q0 -31 20 -52.5t52 -21.5h329v-110h-330q-29 0 -50 -22t-21 -51q0 -35 20 -56.5t52 -21.5h329v-110h-313q-55 0 -92.5 16t-61 42.5t-34 59.5t-10.5 68q0 37 16 72.5t52 57.5q-37 22 -52.5 58t-15.5 69q0 39 11 73t34.5 59t61 39
t91.5 14h313v-110zM394 653q-24 0 -42 18t-18 43q0 26 18 43.5t42 17.5q26 0 42.5 -17.5t16.5 -43.5q0 -25 -16.5 -43t-42.5 -18zM242 653q-26 0 -43 18t-17 43q0 26 17 43.5t43 17.5t43 -17.5t17 -43.5q0 -25 -17 -43t-43 -18z" />
    <glyph glyph-name="igrave" unicode="&#xec;" horiz-adv-x="200" 
d="M45 628h110v-628h-110v628zM71 771l66 -118h-54l-103 118h91z" />
    <glyph glyph-name="iacute" unicode="&#xed;" horiz-adv-x="200" 
d="M45 628h110v-628h-110v628zM66 652l66 118h90l-102 -118h-54z" />
    <glyph glyph-name="icircumflex" unicode="&#xee;" horiz-adv-x="200" 
d="M45 628h110v-628h-110v628zM49 652h-82l99 117h70l102 -117h-84l-53 62z" />
    <glyph glyph-name="idieresis" unicode="&#xef;" horiz-adv-x="200" 
d="M45 628h110v-628h-110v628zM179 653q-24 0 -42 18t-18 43q0 26 18 43.5t42 17.5q26 0 42.5 -17.5t16.5 -43.5q0 -25 -16.5 -43t-42.5 -18zM27 653q-26 0 -43 18t-17 43q0 26 17 43.5t43 17.5t43 -17.5t17 -43.5q0 -25 -17 -43t-43 -18z" />
    <glyph glyph-name="eth" unicode="&#xf0;" horiz-adv-x="625" 
d="M155 110h176q75 0 111.5 50t36.5 156q0 202 -147 202h-177v-408zM304 628q285 0 285 -313v-3q-3 -312 -286 -312h-258v628h259zM9 372h256v-112h-256v112z" />
    <glyph glyph-name="ntilde" unicode="&#xf1;" horiz-adv-x="721" 
d="M676 150q0 -35 -12.5 -63.5t-34.5 -48.5t-51.5 -31t-63.5 -11q-48 0 -87 26t-54 72l-126 386q-6 19 -14.5 29t-23.5 10q-47 0 -47 -55v-464h-117v476q0 35 12.5 63.5t34.5 48.5t51.5 31t63.5 11q48 0 87 -26t54 -72l126 -386q6 -19 14.5 -29t23.5 -10q47 0 47 55v466h117
v-478zM222 674q39 68 91 68q9 0 22.5 -5.5t28 -12t28.5 -12t25 -5.5q30 0 46 40l40 -44q-4 -17 -14.5 -29t-23 -19t-25.5 -10t-22 -3q-10 0 -20.5 2.5t-21.5 8.5q-23 11 -35 16.5t-21 5.5q-20 0 -52 -41z" />
    <glyph glyph-name="ograve" unicode="&#xf2;" horiz-adv-x="692" 
d="M399 110q147 0 147 202q0 106 -36.5 156t-111.5 50h-104q-75 0 -111.5 -50t-36.5 -156q0 -202 147 -202h106zM370 628q283 0 286 -312v-3q0 -313 -285 -313h-50q-285 0 -285 313v3q1 155 72 233.5t214 78.5h48zM302 771l66 -118h-54l-103 118h91z" />
    <glyph glyph-name="oacute" unicode="&#xf3;" horiz-adv-x="692" 
d="M399 110q147 0 147 202q0 106 -36.5 156t-111.5 50h-104q-75 0 -111.5 -50t-36.5 -156q0 -202 147 -202h106zM370 628q283 0 286 -312v-3q0 -313 -285 -313h-50q-285 0 -285 313v3q1 155 72 233.5t214 78.5h48zM295 652l66 118h90l-102 -118h-54z" />
    <glyph glyph-name="ocircumflex" unicode="&#xf4;" horiz-adv-x="692" 
d="M399 110q147 0 147 202q0 106 -36.5 156t-111.5 50h-104q-75 0 -111.5 -50t-36.5 -156q0 -202 147 -202h106zM370 628q283 0 286 -312v-3q0 -313 -285 -313h-50q-285 0 -285 313v3q1 155 72 233.5t214 78.5h48zM290 652h-82l99 117h70l102 -117h-84l-53 62z" />
    <glyph glyph-name="otilde" unicode="&#xf5;" horiz-adv-x="692" 
d="M399 110q147 0 147 202q0 106 -36.5 156t-111.5 50h-104q-75 0 -111.5 -50t-36.5 -156q0 -202 147 -202h106zM370 628q283 0 286 -312v-3q0 -313 -285 -313h-50q-285 0 -285 313v3q1 155 72 233.5t214 78.5h48zM201 674q39 68 91 68q9 0 22.5 -5.5t28 -12t28.5 -12
t25 -5.5q30 0 46 40l40 -44q-4 -17 -14.5 -29t-23 -19t-25.5 -10t-22 -3q-10 0 -20.5 2.5t-21.5 8.5q-23 11 -35 16.5t-21 5.5q-20 0 -52 -41z" />
    <glyph glyph-name="odieresis" unicode="&#xf6;" horiz-adv-x="692" 
d="M399 110q147 0 147 202q0 106 -36.5 156t-111.5 50h-104q-75 0 -111.5 -50t-36.5 -156q0 -202 147 -202h106zM370 628q283 0 286 -312v-3q0 -313 -285 -313h-50q-285 0 -285 313v3q1 155 72 233.5t214 78.5h48zM425 653q-24 0 -42 18t-18 43q0 26 18 43.5t42 17.5
q26 0 42.5 -17.5t16.5 -43.5q0 -25 -16.5 -43t-42.5 -18zM273 653q-26 0 -43 18t-17 43q0 26 17 43.5t43 17.5t43 -17.5t17 -43.5q0 -25 -17 -43t-43 -18z" />
    <glyph glyph-name="oslash" unicode="&#xf8;" horiz-adv-x="692" 
d="M399 110q147 0 147 202q0 106 -36.5 156t-111.5 50h-104q-75 0 -111.5 -50t-36.5 -156q0 -202 147 -202h106zM370 628q283 0 286 -312v-3q0 -313 -285 -313h-50q-285 0 -285 313v3q1 155 72 233.5t214 78.5h48zM120 0l368 628h74l-365 -628h-77z" />
    <glyph glyph-name="ugrave" unicode="&#xf9;" horiz-adv-x="618" 
d="M573 233q0 -54 -16.5 -97.5t-49 -75t-82 -48.5t-115.5 -17q-64 0 -113.5 17.5t-83 48.5t-51 74.5t-17.5 96.5v396h110v-394q0 -57 41.5 -93t114.5 -36h3q75 0 112 36t37 93v394h110v-395zM289 771l66 -118h-54l-103 118h91z" />
    <glyph glyph-name="uacute" unicode="&#xfa;" horiz-adv-x="618" 
d="M573 233q0 -54 -16.5 -97.5t-49 -75t-82 -48.5t-115.5 -17q-64 0 -113.5 17.5t-83 48.5t-51 74.5t-17.5 96.5v396h110v-394q0 -57 41.5 -93t114.5 -36h3q75 0 112 36t37 93v394h110v-395zM254 652l66 118h90l-102 -118h-54z" />
    <glyph glyph-name="ucircumflex" unicode="&#xfb;" horiz-adv-x="618" 
d="M573 233q0 -54 -16.5 -97.5t-49 -75t-82 -48.5t-115.5 -17q-64 0 -113.5 17.5t-83 48.5t-51 74.5t-17.5 96.5v396h110v-394q0 -57 41.5 -93t114.5 -36h3q75 0 112 36t37 93v394h110v-395zM262 652h-82l99 117h70l102 -117h-84l-53 62z" />
    <glyph glyph-name="udieresis" unicode="&#xfc;" horiz-adv-x="618" 
d="M573 233q0 -54 -16.5 -97.5t-49 -75t-82 -48.5t-115.5 -17q-64 0 -113.5 17.5t-83 48.5t-51 74.5t-17.5 96.5v396h110v-394q0 -57 41.5 -93t114.5 -36h3q75 0 112 36t37 93v394h110v-395zM387 653q-24 0 -42 18t-18 43q0 26 18 43.5t42 17.5q26 0 42.5 -17.5t16.5 -43.5
q0 -25 -16.5 -43t-42.5 -18zM235 653q-26 0 -43 18t-17 43q0 26 17 43.5t43 17.5t43 -17.5t17 -43.5q0 -25 -17 -43t-43 -18z" />
    <glyph glyph-name="yacute" unicode="&#xfd;" horiz-adv-x="606" 
d="M248 278l-232 350h132l155 -252l155 252h132l-232 -343v-285h-110v278zM253 652l66 118h90l-102 -118h-54z" />
    <glyph glyph-name="thorn" unicode="&#xfe;" horiz-adv-x="543" 
d="M155 246h169q31 0 51.5 21.5t20.5 52.5q0 29 -21 51t-50 22h-170v-147zM155 628v-125h153q52 0 89.5 -14.5t61.5 -40t35.5 -59t11.5 -71.5q0 -33 -10.5 -65.5t-34.5 -58.5t-61.5 -42t-91.5 -16h-153v-136h-110v628h110z" />
    <glyph glyph-name="ydieresis" unicode="&#xff;" horiz-adv-x="606" 
d="M248 278l-232 350h132l155 -252l155 252h132l-232 -343v-285h-110v278zM381 653q-24 0 -42 18t-18 43q0 26 18 43.5t42 17.5q26 0 42.5 -17.5t16.5 -43.5q0 -25 -16.5 -43t-42.5 -18zM229 653q-26 0 -43 18t-17 43q0 26 17 43.5t43 17.5t43 -17.5t17 -43.5q0 -25 -17 -43
t-43 -18z" />
    <glyph glyph-name="Amacron" unicode="&#x100;" horiz-adv-x="676" 
d="M538 0l-176 500q-3 9 -9.5 13t-14.5 4q-18 0 -24 -17l-176 -500h-117l195 547q14 41 46.5 61t75.5 20q42 0 75 -20t47 -61l195 -547h-117zM456 737v-84h-240v84h240z" />
    <glyph glyph-name="amacron" unicode="&#x101;" horiz-adv-x="676" 
d="M336 518q-15 0 -22 -18l-107 -300h260l-105 299q-4 11 -10 15t-12 4h-4zM169 90l-31 -90h-117l195 548q15 42 47 61t75 20q42 0 75 -20t47 -61l195 -548h-117l-32 90h-337zM458 737v-84h-240v84h240z" />
    <glyph glyph-name="Abreve" unicode="&#x102;" horiz-adv-x="676" 
d="M538 0l-176 500q-3 9 -9.5 13t-14.5 4q-18 0 -24 -17l-176 -500h-117l195 547q14 41 46.5 61t75.5 20q42 0 75 -20t47 -61l195 -547h-117zM336 650q-52 0 -79 30t-35 87h54q6 -29 21 -48t39 -19q23 0 37.5 19t20.5 48h59q-11 -57 -38.5 -87t-78.5 -30z" />
    <glyph glyph-name="abreve" unicode="&#x103;" horiz-adv-x="676" 
d="M336 518q-15 0 -22 -18l-107 -300h260l-105 299q-4 11 -10 15t-12 4h-4zM169 90l-31 -90h-117l195 548q15 42 47 61t75 20q42 0 75 -20t47 -61l195 -548h-117l-32 90h-337zM336 650q-52 0 -79 30t-35 87h54q6 -29 21 -48t39 -19q23 0 37.5 19t20.5 48h59
q-11 -57 -38.5 -87t-78.5 -30z" />
    <glyph glyph-name="Aogonek" unicode="&#x104;" horiz-adv-x="676" 
d="M538 0l-176 500q-3 9 -9.5 13t-14.5 4q-18 0 -24 -17l-176 -500h-117l195 547q14 41 46.5 61t75.5 20q42 0 75 -20t47 -61l195 -547h-117zM531 -201q-23 0 -39.5 7.5t-27 19.5t-16 27.5t-5.5 31.5q0 24 28 61.5t89 68.5h62q-61 -42 -86.5 -77.5t-25.5 -46.5
q0 -9 7.5 -17.5t22.5 -8.5h82v-66h-91z" />
    <glyph glyph-name="aogonek" unicode="&#x105;" horiz-adv-x="676" 
d="M336 518q-15 0 -22 -18l-107 -300h260l-105 299q-4 11 -10 15t-12 4h-4zM169 90l-31 -90h-117l195 548q15 42 47 61t75 20q42 0 75 -20t47 -61l195 -548h-117l-32 90h-337zM529 -201q-23 0 -39.5 7.5t-27 19.5t-16 27.5t-5.5 31.5q0 24 28 61.5t89 68.5h62
q-61 -42 -86.5 -77.5t-25.5 -46.5q0 -9 7.5 -17.5t22.5 -8.5h82v-66h-91z" />
    <glyph glyph-name="Cacute" unicode="&#x106;" 
d="M321 0q-285 0 -285 313v3q3 312 286 312h229v-110h-257q-75 0 -111.5 -50t-36.5 -156q0 -202 147 -202h257v-110h-229zM280 652l66 118h90l-102 -118h-54z" />
    <glyph glyph-name="cacute" unicode="&#x107;" 
d="M321 0q-285 0 -285 313v3q3 312 286 312h229v-110h-257q-75 0 -111.5 -50t-36.5 -156q0 -202 147 -202h257v-110h-229zM289 652l66 118h90l-102 -118h-54z" />
    <glyph glyph-name="Ccaron" unicode="&#x10c;" 
d="M321 0q-285 0 -285 313v3q3 312 286 312h229v-110h-257q-75 0 -111.5 -50t-36.5 -156q0 -202 147 -202h257v-110h-229zM400 771h81l-97 -117h-71l-101 117h84l52 -63z" />
    <glyph glyph-name="ccaron" unicode="&#x10d;" 
d="M321 0q-285 0 -285 313v3q3 312 286 312h229v-110h-257q-75 0 -111.5 -50t-36.5 -156q0 -202 147 -202h257v-110h-229zM406 771h81l-97 -117h-71l-101 117h84l52 -63z" />
    <glyph glyph-name="Dcaron" unicode="&#x10e;" horiz-adv-x="625" 
d="M155 110h176q75 0 111.5 50t36.5 156q0 202 -147 202h-177v-408zM304 628q285 0 285 -313v-3q-3 -312 -286 -312h-258v628h259zM323 771h81l-97 -117h-71l-101 117h84l52 -63z" />
    <glyph glyph-name="dcaron" unicode="&#x10f;" horiz-adv-x="625" 
d="M155 110h176q75 0 111.5 50t36.5 156q0 202 -147 202h-177v-408zM304 628q285 0 285 -313q0 -158 -72.5 -236.5t-213.5 -78.5h-258v628h259zM314 771h81l-97 -117h-71l-101 117h84l52 -63z" />
    <glyph glyph-name="Dmacron" unicode="&#x110;" horiz-adv-x="625" 
d="M155 110h176q75 0 111.5 50t36.5 156q0 202 -147 202h-177v-408zM304 628q285 0 285 -313v-3q-3 -312 -286 -312h-258v628h259zM10 372h256v-112h-256v112z" />
    <glyph glyph-name="dmacron" unicode="&#x111;" horiz-adv-x="625" 
d="M155 110h176q75 0 111.5 50t36.5 156q0 202 -147 202h-177v-408zM304 628q285 0 285 -313q0 -158 -72.5 -236.5t-213.5 -78.5h-258v628h259zM1 372h256v-112h-256v112z" />
    <glyph glyph-name="Emacron" unicode="&#x112;" 
d="M546 518h-330q-29 0 -50 -22t-21 -51q0 -31 20 -52.5t52 -21.5h329v-110h-330q-29 0 -50 -22t-21 -51q0 -35 20 -56.5t52 -21.5h329v-110h-313q-55 0 -92.5 16t-61 42.5t-34 59.5t-10.5 68q0 37 16 72.5t52 57.5q-37 22 -52.5 58t-15.5 69q0 40 12 74t36 59t61.5 38.5
t88.5 13.5h313v-110zM444 737v-84h-240v84h240z" />
    <glyph glyph-name="emacron" unicode="&#x113;" 
d="M546 518h-330q-29 0 -50 -22t-21 -51q0 -31 20 -52.5t52 -21.5h329v-110h-330q-29 0 -50 -22t-21 -51q0 -35 20 -56.5t52 -21.5h329v-110h-313q-55 0 -92.5 16t-61 42.5t-34 59.5t-10.5 68q0 37 16 72.5t52 57.5q-37 22 -52.5 58t-15.5 69q0 39 11 73t34.5 59t61 39
t91.5 14h313v-110zM455 737v-84h-240v84h240z" />
    <glyph glyph-name="Edotaccent" unicode="&#x116;" 
d="M546 518h-330q-29 0 -50 -22t-21 -51q0 -31 20 -52.5t52 -21.5h329v-110h-330q-29 0 -50 -22t-21 -51q0 -35 20 -56.5t52 -21.5h329v-110h-313q-55 0 -92.5 16t-61 42.5t-34 59.5t-10.5 68q0 37 16 72.5t52 57.5q-37 22 -52.5 58t-15.5 69q0 40 12 74t36 59t61.5 38.5
t88.5 13.5h313v-110zM328 652q-29 0 -46 21.5t-17 53.5t17 53t46 21q11 0 22 -6t19.5 -16t14 -23.5t5.5 -28.5q0 -32 -18 -53.5t-43 -21.5z" />
    <glyph glyph-name="edotaccent" unicode="&#x117;" 
d="M546 518h-330q-29 0 -50 -22t-21 -51q0 -31 20 -52.5t52 -21.5h329v-110h-330q-29 0 -50 -22t-21 -51q0 -35 20 -56.5t52 -21.5h329v-110h-313q-55 0 -92.5 16t-61 42.5t-34 59.5t-10.5 68q0 37 16 72.5t52 57.5q-37 22 -52.5 58t-15.5 69q0 39 11 73t34.5 59t61 39
t91.5 14h313v-110zM323 652q-29 0 -46 21.5t-17 53.5t17 53t46 21q11 0 22 -6t19.5 -16t14 -23.5t5.5 -28.5q0 -32 -18 -53.5t-43 -21.5z" />
    <glyph glyph-name="Eogonek" unicode="&#x118;" 
d="M546 518h-330q-29 0 -50 -22t-21 -51q0 -31 20 -52.5t52 -21.5h329v-110h-330q-29 0 -50 -22t-21 -51q0 -35 20 -56.5t52 -21.5h329v-110h-313q-55 0 -92.5 16t-61 42.5t-34 59.5t-10.5 68q0 37 16 72.5t52 57.5q-37 22 -52.5 58t-15.5 69q0 40 12 74t36 59t61.5 38.5
t88.5 13.5h313v-110zM294 -201q-23 0 -39.5 7.5t-27 19.5t-16 27.5t-5.5 31.5q0 24 28 61.5t89 68.5h62q-61 -42 -86.5 -77.5t-25.5 -46.5q0 -9 7.5 -17.5t22.5 -8.5h82v-66h-91z" />
    <glyph glyph-name="eogonek" unicode="&#x119;" 
d="M546 518h-330q-29 0 -50 -22t-21 -51q0 -31 20 -52.5t52 -21.5h329v-110h-330q-29 0 -50 -22t-21 -51q0 -35 20 -56.5t52 -21.5h329v-110h-313q-55 0 -92.5 16t-61 42.5t-34 59.5t-10.5 68q0 37 16 72.5t52 57.5q-37 22 -52.5 58t-15.5 69q0 39 11 73t34.5 59t61 39
t91.5 14h313v-110zM284 -201q-23 0 -39.5 7.5t-27 19.5t-16 27.5t-5.5 31.5q0 24 28 61.5t89 68.5h62q-61 -42 -86.5 -77.5t-25.5 -46.5q0 -9 7.5 -17.5t22.5 -8.5h82v-66h-91z" />
    <glyph glyph-name="Ecaron" unicode="&#x11a;" 
d="M546 518h-330q-29 0 -50 -22t-21 -51q0 -31 20 -52.5t52 -21.5h329v-110h-330q-29 0 -50 -22t-21 -51q0 -35 20 -56.5t52 -21.5h329v-110h-313q-55 0 -92.5 16t-61 42.5t-34 59.5t-10.5 68q0 37 16 72.5t52 57.5q-37 22 -52.5 58t-15.5 69q0 40 12 74t36 59t61.5 38.5
t88.5 13.5h313v-110zM373 771h81l-97 -117h-71l-101 117h84l52 -63z" />
    <glyph glyph-name="ecaron" unicode="&#x11b;" 
d="M546 518h-330q-29 0 -50 -22t-21 -51q0 -31 20 -52.5t52 -21.5h329v-110h-330q-29 0 -50 -22t-21 -51q0 -35 20 -56.5t52 -21.5h329v-110h-313q-55 0 -92.5 16t-61 42.5t-34 59.5t-10.5 68q0 37 16 72.5t52 57.5q-37 22 -52.5 58t-15.5 69q0 39 11 73t34.5 59t61 39
t91.5 14h313v-110zM381 771h81l-97 -117h-71l-101 117h84l52 -63z" />
    <glyph glyph-name="Gbreve" unicode="&#x11e;" horiz-adv-x="639" 
d="M321 0q-285 0 -285 313v3q3 312 286 312h229v-110h-257q-75 0 -111.5 -50t-36.5 -156q0 -202 147 -202h132q28 0 48 23t20 53t-19.5 52.5t-48.5 22.5h-100v110h105q36 0 68 -14t55 -39.5t36.5 -60t13.5 -76.5q0 -34 -14 -66.5t-38 -58t-55.5 -41t-66.5 -15.5h-108z
M342 650q-52 0 -79 30t-35 87h54q6 -29 21 -48t39 -19q23 0 37.5 19t20.5 48h59q-11 -57 -38.5 -87t-78.5 -30z" />
    <glyph glyph-name="gbreve" unicode="&#x11f;" horiz-adv-x="639" 
d="M321 0q-285 0 -285 313v3q3 312 286 312h229v-110h-257q-75 0 -111.5 -50t-36.5 -156q0 -202 147 -202h132q28 0 48 23t20 53t-19.5 52.5t-48.5 22.5h-100v110h105q37 0 68.5 -15.5t54.5 -40.5t36.5 -57.5t13.5 -66.5q0 -42 -14 -76.5t-38 -59.5t-55.5 -39.5t-66.5 -15.5
h-108zM336 650q-52 0 -79 30t-35 87h54q6 -29 21 -48t39 -19q23 0 37.5 19t20.5 48h59q-11 -57 -38.5 -87t-78.5 -30z" />
    <glyph glyph-name="Gcommaaccent" unicode="&#x122;" horiz-adv-x="639" 
d="M321 0q-285 0 -285 313v3q3 312 286 312h229v-110h-257q-75 0 -111.5 -50t-36.5 -156q0 -202 147 -202h132q28 0 48 23t20 53t-19.5 52.5t-48.5 22.5h-100v110h105q36 0 68 -14t55 -39.5t36.5 -60t13.5 -76.5q0 -34 -14 -66.5t-38 -58t-55.5 -41t-66.5 -15.5h-108z
M300 -135h82q14 0 21.5 8t7.5 17q0 8 -7 15t-22 7h-82v103h62v-40h29q22 0 38.5 -7.5t27.5 -20.5t16.5 -29t5.5 -33q0 -16 -5.5 -31.5t-16 -27.5t-27.5 -19.5t-39 -7.5h-91v66z" />
    <glyph glyph-name="gcommaaccent" unicode="&#x123;" horiz-adv-x="639" 
d="M321 0q-285 0 -285 313v3q3 312 286 312h229v-110h-257q-75 0 -111.5 -50t-36.5 -156q0 -202 147 -202h132q28 0 48 23t20 53t-19.5 52.5t-48.5 22.5h-100v110h105q37 0 68.5 -15.5t54.5 -40.5t36.5 -57.5t13.5 -66.5q0 -42 -14 -76.5t-38 -59.5t-55.5 -39.5t-66.5 -15.5
h-108zM390.777 701.547q0 -19.1299 -6.80273 -34.9805q-6.80176 -15.8506 -19.0459 -27.0557q-12.2451 -11.2041 -28.8428 -17.4902q-16.5977 -6.28516 -35.6445 -6.28516v60.1221q13.6055 0 20.1357 6.55957q6.53027 6.55859 6.53027 15.8506v63.4014h63.6699v-60.1221z
" />
    <glyph glyph-name="Imacron" unicode="&#x12a;" horiz-adv-x="200" 
d="M45 628h110v-628h-110v628zM225 737v-84h-240v84h240z" />
    <glyph glyph-name="imacron" unicode="&#x12b;" horiz-adv-x="200" 
d="M45 628h110v-628h-110v628zM225 737v-84h-240v84h240z" />
    <glyph glyph-name="Iogonek" unicode="&#x12e;" horiz-adv-x="200" 
d="M45 628h110v-628h-110v628zM44 -201q-23 0 -39.5 7.5t-27 19.5t-16 27.5t-5.5 31.5q0 24 28 61.5t89 68.5h62q-61 -42 -86.5 -77.5t-25.5 -46.5q0 -9 7.5 -17.5t22.5 -8.5h82v-66h-91z" />
    <glyph glyph-name="iogonek" unicode="&#x12f;" horiz-adv-x="200" 
d="M45 628h110v-628h-110v628zM44 -201q-23 0 -39.5 7.5t-27 19.5t-16 27.5t-5.5 31.5q0 24 28 61.5t89 68.5h62q-61 -42 -86.5 -77.5t-25.5 -46.5q0 -9 7.5 -17.5t22.5 -8.5h82v-66h-91z" />
    <glyph glyph-name="Idotaccent" unicode="&#x130;" horiz-adv-x="200" 
d="M45 628h110v-628h-110v628zM102 652q-29 0 -46 21.5t-17 53.5t17 53t46 21q11 0 22 -6t19.5 -16t14 -23.5t5.5 -28.5q0 -32 -18 -53.5t-43 -21.5z" />
    <glyph glyph-name="dotlessi" unicode="&#x131;" horiz-adv-x="200" 
d="M45 628h110v-628h-110v628z" />
    <glyph glyph-name="Kcommaaccent" unicode="&#x136;" horiz-adv-x="616" 
d="M155 0h-110v628h110v-200l416 206v-126l-419 -194l419 -198v-122l-416 207v-201zM226 -135h82q14 0 21.5 8t7.5 17q0 8 -7 15t-22 7h-82v103h62v-40h29q22 0 38.5 -7.5t27.5 -20.5t16.5 -29t5.5 -33q0 -16 -5.5 -31.5t-16 -27.5t-27.5 -19.5t-39 -7.5h-91v66z" />
    <glyph glyph-name="kcommaaccent" unicode="&#x137;" horiz-adv-x="616" 
d="M155 0h-110v628h110v-200l416 206v-126l-419 -194l419 -198v-122l-416 207v-201zM193 -135h82q14 0 21.5 8t7.5 17q0 8 -7 15t-22 7h-82v103h62v-40h29q22 0 38.5 -7.5t27.5 -20.5t16.5 -29t5.5 -33q0 -16 -5.5 -31.5t-16 -27.5t-27.5 -19.5t-39 -7.5h-91v66z" />
    <glyph glyph-name="Lacute" unicode="&#x139;" horiz-adv-x="545" 
d="M322 0q-69 0 -121 19t-86.5 54.5t-52 85.5t-17.5 113v356h110v-357q0 -76 43 -118.5t121 -42.5h191v-110h-188zM60 652l66 118h90l-102 -118h-54z" />
    <glyph glyph-name="lacute" unicode="&#x13a;" horiz-adv-x="545" 
d="M322 0q-69 0 -121 19t-86.5 54.5t-52 85.5t-17.5 113v356h110v-357q0 -76 43 -118.5t121 -42.5h191v-110h-188zM57 652l66 118h90l-102 -118h-54z" />
    <glyph glyph-name="Lcommaaccent" unicode="&#x13b;" horiz-adv-x="545" 
d="M322 0q-69 0 -121 19t-86.5 54.5t-52 85.5t-17.5 113v356h110v-357q0 -76 43 -118.5t121 -42.5h191v-110h-188zM249 -135h82q14 0 21.5 8t7.5 17q0 8 -7 15t-22 7h-82v103h62v-40h29q22 0 38.5 -7.5t27.5 -20.5t16.5 -29t5.5 -33q0 -16 -5.5 -31.5t-16 -27.5t-27.5 -19.5
t-39 -7.5h-91v66z" />
    <glyph glyph-name="lcommaaccent" unicode="&#x13c;" horiz-adv-x="545" 
d="M322 0q-69 0 -121 19t-86.5 54.5t-52 85.5t-17.5 113v356h110v-357q0 -76 43 -118.5t121 -42.5h191v-110h-188zM260 -135h82q14 0 21.5 8t7.5 17q0 8 -7 15t-22 7h-82v103h62v-40h29q22 0 38.5 -7.5t27.5 -20.5t16.5 -29t5.5 -33q0 -16 -5.5 -31.5t-16 -27.5t-27.5 -19.5
t-39 -7.5h-91v66z" />
    <glyph glyph-name="Lcaron" unicode="&#x13d;" horiz-adv-x="545" 
d="M322 0q-69 0 -121 19t-86.5 54.5t-52 85.5t-17.5 113v356h110v-357q0 -76 43 -118.5t121 -42.5h191v-110h-188zM352 518q0 -35 -12.5 -64t-35 -49.5t-53 -32t-65.5 -11.5v110q25 0 37 12t12 29v116h117v-110z" />
    <glyph glyph-name="lcaron" unicode="&#x13e;" horiz-adv-x="545" 
d="M322 0q-69 0 -121 19t-86.5 54.5t-52 85.5t-17.5 113v356h110v-357q0 -76 43 -118.5t121 -42.5h191v-110h-188zM335 519q0 -35 -12.5 -64t-35 -49.5t-53 -32t-65.5 -11.5v110q25 0 37 12t12 29v116h117v-110z" />
    <glyph glyph-name="Lslash" unicode="&#x141;" horiz-adv-x="545" 
d="M20 416v212h110v-183l69 20l30 -106l-99 -27v-61q0 -76 43 -118.5t121 -42.5h191v-110h-188q-69 0 -121 19t-86.5 54.5t-52 85.5t-17.5 113v30l-60 -16l-30 106z" />
    <glyph glyph-name="lslash" unicode="&#x142;" horiz-adv-x="545" 
d="M20 416v212h110v-183l69 20l30 -106l-99 -27v-61q0 -76 43 -118.5t121 -42.5h191v-110h-188q-69 0 -121 19t-86.5 54.5t-52 85.5t-17.5 113v30l-60 -16l-30 106z" />
    <glyph glyph-name="Nacute" unicode="&#x143;" horiz-adv-x="721" 
d="M676 149q0 -35 -12.5 -63.5t-34.5 -48.5t-51.5 -31t-63.5 -11q-48 0 -87 26t-54 72l-126 387q-6 19 -14.5 29t-23.5 10q-47 0 -47 -55v-464h-117v476q0 35 12.5 63.5t34.5 48.5t51.5 31t63.5 11q48 0 86.5 -26.5t53.5 -71.5l127 -387q6 -19 14.5 -29t23.5 -10q47 0 47 55
v467h117v-479zM300 652l66 118h90l-102 -118h-54z" />
    <glyph glyph-name="nacute" unicode="&#x144;" horiz-adv-x="721" 
d="M676 150q0 -35 -12.5 -63.5t-34.5 -48.5t-51.5 -31t-63.5 -11q-48 0 -87 26t-54 72l-126 386q-6 19 -14.5 29t-23.5 10q-47 0 -47 -55v-464h-117v476q0 35 12.5 63.5t34.5 48.5t51.5 31t63.5 11q48 0 87 -26t54 -72l126 -386q6 -19 14.5 -29t23.5 -10q47 0 47 55v466h117
v-478zM278 652l66 118h90l-102 -118h-54z" />
    <glyph glyph-name="Ncommaaccent" unicode="&#x145;" horiz-adv-x="721" 
d="M676 149q0 -35 -12.5 -63.5t-34.5 -48.5t-51.5 -31t-63.5 -11q-48 0 -87 26t-54 72l-126 387q-6 19 -14.5 29t-23.5 10q-47 0 -47 -55v-464h-117v476q0 35 12.5 63.5t34.5 48.5t51.5 31t63.5 11q48 0 86.5 -26.5t53.5 -71.5l127 -387q6 -19 14.5 -29t23.5 -10q47 0 47 55
v467h117v-479zM247 -135h82q14 0 21.5 8t7.5 17q0 8 -7 15t-22 7h-82v103h62v-40h29q22 0 38.5 -7.5t27.5 -20.5t16.5 -29t5.5 -33q0 -16 -5.5 -31.5t-16 -27.5t-27.5 -19.5t-39 -7.5h-91v66z" />
    <glyph glyph-name="ncommaaccent" unicode="&#x146;" horiz-adv-x="721" 
d="M676 150q0 -35 -12.5 -63.5t-34.5 -48.5t-51.5 -31t-63.5 -11q-48 0 -87 26t-54 72l-126 386q-6 19 -14.5 29t-23.5 10q-47 0 -47 -55v-464h-117v476q0 35 12.5 63.5t34.5 48.5t51.5 31t63.5 11q48 0 87 -26t54 -72l126 -386q6 -19 14.5 -29t23.5 -10q47 0 47 55v466h117
v-478zM257 -135h82q14 0 21.5 8t7.5 17q0 8 -7 15t-22 7h-82v103h62v-40h29q22 0 38.5 -7.5t27.5 -20.5t16.5 -29t5.5 -33q0 -16 -5.5 -31.5t-16 -27.5t-27.5 -19.5t-39 -7.5h-91v66z" />
    <glyph glyph-name="Ncaron" unicode="&#x147;" horiz-adv-x="721" 
d="M676 149q0 -35 -12.5 -63.5t-34.5 -48.5t-51.5 -31t-63.5 -11q-48 0 -87 26t-54 72l-126 387q-6 19 -14.5 29t-23.5 10q-47 0 -47 -55v-464h-117v476q0 35 12.5 63.5t34.5 48.5t51.5 31t63.5 11q48 0 86.5 -26.5t53.5 -71.5l127 -387q6 -19 14.5 -29t23.5 -10q47 0 47 55
v467h117v-479zM427 771h81l-97 -117h-71l-101 117h84l52 -63z" />
    <glyph glyph-name="ncaron" unicode="&#x148;" horiz-adv-x="721" 
d="M676 150q0 -35 -12.5 -63.5t-34.5 -48.5t-51.5 -31t-63.5 -11q-48 0 -87 26t-54 72l-126 386q-6 19 -14.5 29t-23.5 10q-47 0 -47 -55v-464h-117v476q0 35 12.5 63.5t34.5 48.5t51.5 31t63.5 11q48 0 87 -26t54 -72l126 -386q6 -19 14.5 -29t23.5 -10q47 0 47 55v466h117
v-478zM419 771h81l-97 -117h-71l-101 117h84l52 -63z" />
    <glyph glyph-name="Omacron" unicode="&#x14c;" horiz-adv-x="692" 
d="M294 518q-75 0 -111.5 -50t-36.5 -156q0 -202 147 -202h106q147 0 147 202q0 106 -36.5 156t-111.5 50h-104zM370 628q283 0 286 -312v-3q0 -313 -285 -313h-50q-285 0 -285 313v3q3 312 286 312h48zM470 737v-84h-240v84h240z" />
    <glyph glyph-name="omacron" unicode="&#x14d;" horiz-adv-x="692" 
d="M399 110q147 0 147 202q0 106 -36.5 156t-111.5 50h-104q-75 0 -111.5 -50t-36.5 -156q0 -202 147 -202h106zM370 628q283 0 286 -312v-3q0 -313 -285 -313h-50q-285 0 -285 313v3q1 155 72 233.5t214 78.5h48zM469 737v-84h-240v84h240z" />
    <glyph glyph-name="Ohungarumlaut" unicode="&#x150;" horiz-adv-x="692" 
d="M294 518q-75 0 -111.5 -50t-36.5 -156q0 -202 147 -202h106q147 0 147 202q0 106 -36.5 156t-111.5 50h-104zM370 628q283 0 286 -312v-3q0 -313 -285 -313h-50q-285 0 -285 313v3q3 312 286 312h48zM306 773h89l-119 -120h-60zM426 773h91l-142 -120h-63z" />
    <glyph glyph-name="ohungarumlaut" unicode="&#x151;" horiz-adv-x="692" 
d="M399 110q147 0 147 202q0 106 -36.5 156t-111.5 50h-104q-75 0 -111.5 -50t-36.5 -156q0 -202 147 -202h106zM370 628q283 0 286 -312v-3q0 -313 -285 -313h-50q-285 0 -285 313v3q1 155 72 233.5t214 78.5h48zM310 773h89l-119 -120h-60zM430 773h91l-142 -120h-63z" />
    <glyph glyph-name="OE" unicode="&#x152;" horiz-adv-x="920" 
d="M351 110q60 0 93.5 50t33.5 152q0 106 -28 156t-100 50h-59q-72 0 -100 -50t-28 -156q0 -102 33.5 -152t93.5 -50h61zM871 518h-215q-29 0 -50 -22t-21 -51q0 -31 20 -52.5t52 -21.5h214v-110h-215q-29 0 -50 -22t-21 -51q0 -35 20 -56.5t52 -21.5h214v-110h-198
q-63 0 -100.5 18t-63.5 63q-17 -26 -35.5 -41t-40.5 -23.5t-49 -11.5t-61 -5h-5q-71 0 -121.5 19t-82.5 58t-46.5 98.5t-14.5 140.5q0 73 13.5 131t44.5 98t82 61.5t126 21.5h3q67 0 109.5 -18t76.5 -64q24 48 63 65t102 17h198v-110z" />
    <glyph glyph-name="oe" unicode="&#x153;" horiz-adv-x="920" 
d="M351 110q60 0 93.5 50t33.5 152q0 106 -28 156t-100 50h-59q-72 0 -100 -50t-28 -156q0 -102 33.5 -152t93.5 -50h61zM605 131q21 -21 52 -21h214v-110h-198q-63 0 -100.5 18t-63.5 63q-17 -26 -35.5 -41t-40.5 -23.5t-49 -11.5t-61 -5h-5q-71 0 -121.5 19.5t-82.5 58.5
t-46.5 97.5t-14.5 136.5v4q1 73 14.5 131t44 98t81.5 61.5t126 21.5h3q67 0 109.5 -18t76.5 -64q24 48 63 65t102 17h198v-110h-215q-29 0 -50 -22t-21 -51q0 -31 20 -52.5t52 -21.5h214v-110h-215q-29 0 -50 -22t-21 -51q0 -34 20 -57z" />
    <glyph glyph-name="Racute" unicode="&#x154;" horiz-adv-x="602" 
d="M46 188q0 90 53 136.5t144 46.5h132q31 0 51.5 21.5t20.5 52.5q0 29 -21 51t-50 22h-330v110h313q52 0 89.5 -14.5t61.5 -40t35.5 -59t11.5 -71.5q0 -33 -10.5 -65.5t-34.5 -58.5t-61.5 -42t-91.5 -16h-127l340 -149v-122l-416 187v-177h-110v188zM220 652l66 118h90
l-102 -118h-54z" />
    <glyph glyph-name="racute" unicode="&#x155;" 
d="M155 367h219q31 0 51.5 22.5t20.5 53.5q0 15 -5.5 28.5t-15.5 24t-22.5 16.5t-27.5 6h-220v-151zM358 628q52 0 89.5 -14.5t61.5 -40t35.5 -59t11.5 -71.5q0 -33 -10.5 -65.5t-34.5 -58.5t-61.5 -42t-91.5 -16h-51l254 -142v-132l-406 247v-234h-110v628h313zM206 652
l66 118h90l-102 -118h-54z" />
    <glyph glyph-name="Rcommaaccent" unicode="&#x156;" horiz-adv-x="602" 
d="M46 188q0 90 53 136.5t144 46.5h132q31 0 51.5 21.5t20.5 52.5q0 29 -21 51t-50 22h-330v110h313q52 0 89.5 -14.5t61.5 -40t35.5 -59t11.5 -71.5q0 -33 -10.5 -65.5t-34.5 -58.5t-61.5 -42t-91.5 -16h-127l340 -149v-122l-416 187v-177h-110v188zM201 -135h82
q14 0 21.5 8t7.5 17q0 8 -7 15t-22 7h-82v103h62v-40h29q22 0 38.5 -7.5t27.5 -20.5t16.5 -29t5.5 -33q0 -16 -5.5 -31.5t-16 -27.5t-27.5 -19.5t-39 -7.5h-91v66z" />
    <glyph glyph-name="rcommaaccent" unicode="&#x157;" 
d="M155 367h219q31 0 51.5 22.5t20.5 53.5q0 15 -5.5 28.5t-15.5 24t-22.5 16.5t-27.5 6h-220v-151zM358 628q52 0 89.5 -14.5t61.5 -40t35.5 -59t11.5 -71.5q0 -33 -10.5 -65.5t-34.5 -58.5t-61.5 -42t-91.5 -16h-51l254 -142v-132l-406 247v-234h-110v628h313zM221 -135
h82q14 0 21.5 8t7.5 17q0 8 -7 15t-22 7h-82v103h62v-40h29q22 0 38.5 -7.5t27.5 -20.5t16.5 -29t5.5 -33q0 -16 -5.5 -31.5t-16 -27.5t-27.5 -19.5t-39 -7.5h-91v66z" />
    <glyph glyph-name="Rcaron" unicode="&#x158;" horiz-adv-x="602" 
d="M46 188q0 90 53 136.5t144 46.5h132q31 0 51.5 21.5t20.5 52.5q0 29 -21 51t-50 22h-330v110h313q52 0 89.5 -14.5t61.5 -40t35.5 -59t11.5 -71.5q0 -33 -10.5 -65.5t-34.5 -58.5t-61.5 -42t-91.5 -16h-127l340 -149v-122l-416 187v-177h-110v188zM340 771h81l-97 -117
h-71l-101 117h84l52 -63z" />
    <glyph glyph-name="rcaron" unicode="&#x159;" 
d="M155 367h219q31 0 51.5 22.5t20.5 53.5q0 15 -5.5 28.5t-15.5 24t-22.5 16.5t-27.5 6h-220v-151zM358 628q52 0 89.5 -14.5t61.5 -40t35.5 -59t11.5 -71.5q0 -33 -10.5 -65.5t-34.5 -58.5t-61.5 -42t-91.5 -16h-51l254 -142v-132l-406 247v-234h-110v628h313zM330 771h81
l-97 -117h-71l-101 117h84l52 -63z" />
    <glyph glyph-name="Sacute" unicode="&#x15a;" horiz-adv-x="624" 
d="M588 184q0 -91 -52.5 -137.5t-146.5 -46.5h-322v110h343q29 0 48.5 22t19.5 54q0 30 -19.5 52.5t-48.5 22.5h-177q-55 0 -92.5 16.5t-61 42.5t-34 58.5t-10.5 64.5q0 38 11 71.5t35 59t61.5 40t90.5 14.5h313v-110h-330q-29 0 -50 -22t-21 -51q0 -31 20.5 -52.5
t51.5 -21.5h174q91 0 144 -46.5t53 -136.5v-4zM269 652l66 118h90l-102 -118h-54z" />
    <glyph glyph-name="sacute" unicode="&#x15b;" horiz-adv-x="624" 
d="M216 518q-29 0 -50 -22t-21 -51q0 -31 20.5 -52.5t51.5 -21.5h174q91 0 144 -46.5t53 -136.5q0 -94 -52.5 -141t-146.5 -47h-322v110h343q29 0 48.5 22t19.5 54q0 30 -19.5 52.5t-48.5 22.5h-177q-55 0 -92.5 16.5t-61 42.5t-34 58.5t-10.5 64.5q0 38 11 71.5t35 59
t61.5 40t90.5 14.5h313v-110h-330zM254 652l66 118h90l-102 -118h-54z" />
    <glyph glyph-name="Scommaaccent" unicode="&#x15e;" horiz-adv-x="624" 
d="M588 184q0 -91 -52.5 -137.5t-146.5 -46.5h-322v110h343q29 0 48.5 22t19.5 54q0 30 -19.5 52.5t-48.5 22.5h-177q-55 0 -92.5 16.5t-61 42.5t-34 58.5t-10.5 64.5q0 38 11 71.5t35 59t61.5 40t90.5 14.5h313v-110h-330q-29 0 -50 -22t-21 -51q0 -31 20.5 -52.5
t51.5 -21.5h174q91 0 144 -46.5t53 -136.5v-4zM221 -135h82q14 0 21.5 8t7.5 17q0 8 -7 15t-22 7h-82v103h62v-40h29q22 0 38.5 -7.5t27.5 -20.5t16.5 -29t5.5 -33q0 -16 -5.5 -31.5t-16 -27.5t-27.5 -19.5t-39 -7.5h-91v66z" />
    <glyph glyph-name="scommaaccent" unicode="&#x15f;" horiz-adv-x="624" 
d="M216 518q-29 0 -50 -22t-21 -51q0 -31 20.5 -52.5t51.5 -21.5h174q91 0 144 -46.5t53 -136.5q0 -94 -52.5 -141t-146.5 -47h-322v110h343q29 0 48.5 22t19.5 54q0 30 -19.5 52.5t-48.5 22.5h-177q-55 0 -92.5 16.5t-61 42.5t-34 58.5t-10.5 64.5q0 38 11 71.5t35 59
t61.5 40t90.5 14.5h313v-110h-330zM230 -135h82q14 0 21.5 8t7.5 17q0 8 -7 15t-22 7h-82v103h62v-40h29q22 0 38.5 -7.5t27.5 -20.5t16.5 -29t5.5 -33q0 -16 -5.5 -31.5t-16 -27.5t-27.5 -19.5t-39 -7.5h-91v66z" />
    <glyph glyph-name="Scaron" unicode="&#x160;" horiz-adv-x="624" 
d="M588 184q0 -91 -52.5 -137.5t-146.5 -46.5h-322v110h343q29 0 48.5 22t19.5 54q0 30 -19.5 52.5t-48.5 22.5h-177q-55 0 -92.5 16.5t-61 42.5t-34 58.5t-10.5 64.5q0 38 11 71.5t35 59t61.5 40t90.5 14.5h313v-110h-330q-29 0 -50 -22t-21 -51q0 -31 20.5 -52.5
t51.5 -21.5h174q91 0 144 -46.5t53 -136.5v-4zM362 771h81l-97 -117h-71l-101 117h84l52 -63z" />
    <glyph glyph-name="scaron" unicode="&#x161;" horiz-adv-x="624" 
d="M216 518q-29 0 -50 -22t-21 -51q0 -31 20.5 -52.5t51.5 -21.5h174q91 0 144 -46.5t53 -136.5q0 -94 -52.5 -141t-146.5 -47h-322v110h343q29 0 48.5 22t19.5 54q0 30 -19.5 52.5t-48.5 22.5h-177q-55 0 -92.5 16.5t-61 42.5t-34 58.5t-10.5 64.5q0 38 11 71.5t35 59
t61.5 40t90.5 14.5h313v-110h-330zM366 771h81l-97 -117h-71l-101 117h84l52 -63z" />
    <glyph glyph-name="Tcommaaccent" unicode="&#x162;" horiz-adv-x="461" 
d="M290 0h-110v518h-155v110h411v-110h-146v-518zM204 -135h82q14 0 21.5 8t7.5 17q0 8 -7 15t-22 7h-82v103h62v-40h29q22 0 38.5 -7.5t27.5 -20.5t16.5 -29t5.5 -33q0 -16 -5.5 -31.5t-16 -27.5t-27.5 -19.5t-39 -7.5h-91v66z" />
    <glyph glyph-name="tcommaaccent" unicode="&#x163;" horiz-adv-x="461" 
d="M290 0h-110v518h-155v110h411v-110h-146v-518zM200 -135h82q14 0 21.5 8t7.5 17q0 8 -7 15t-22 7h-82v103h62v-40h29q22 0 38.5 -7.5t27.5 -20.5t16.5 -29t5.5 -33q0 -16 -5.5 -31.5t-16 -27.5t-27.5 -19.5t-39 -7.5h-91v66z" />
    <glyph glyph-name="Tcaron" unicode="&#x164;" horiz-adv-x="461" 
d="M290 0h-110v518h-155v110h411v-110h-146v-518zM287 771h81l-97 -117h-71l-101 117h84l52 -63z" />
    <glyph glyph-name="tcaron" unicode="&#x165;" horiz-adv-x="603" 
d="M290 0h-110v518h-155v110h411v-110h-146v-518zM561 519q0 -35 -12.5 -64t-35 -49.5t-53 -32t-65.5 -11.5v110q25 0 37 12t12 29v116h117v-110z" />
    <glyph glyph-name="Umacron" unicode="&#x16a;" horiz-adv-x="618" 
d="M573 238q0 -54 -16.5 -97.5t-49 -75t-82 -48.5t-115.5 -17q-64 0 -113.5 17.5t-83 48.5t-51 74.5t-17.5 96.5v391h110v-389q0 -57 41.5 -93t114.5 -36h3q75 0 112 36t37 93v389h110v-390zM435 737v-84h-240v84h240z" />
    <glyph glyph-name="umacron" unicode="&#x16b;" horiz-adv-x="618" 
d="M573 233q0 -54 -16.5 -97.5t-49 -75t-82 -48.5t-115.5 -17q-64 0 -113.5 17.5t-83 48.5t-51 74.5t-17.5 96.5v396h110v-394q0 -57 41.5 -93t114.5 -36h3q75 0 112 36t37 93v394h110v-395zM432 737v-84h-240v84h240z" />
    <glyph glyph-name="Uring" unicode="&#x16e;" horiz-adv-x="618" 
d="M573 238q0 -54 -16.5 -97.5t-49 -75t-82 -48.5t-115.5 -17q-64 0 -113.5 17.5t-83 48.5t-51 74.5t-17.5 96.5v391h110v-389q0 -57 41.5 -93t114.5 -36h3q75 0 112 36t37 93v389h110v-390zM313 750q-14 0 -23.5 -10.5t-9.5 -24.5q0 -16 9.5 -25.5t23.5 -9.5t24.5 9.5
t10.5 25.5q0 14 -10.5 24.5t-24.5 10.5zM311 637q-32 0 -54 21t-22 55q0 35 22 57.5t54 22.5q34 0 56 -23t22 -57t-22 -55t-56 -21z" />
    <glyph glyph-name="uring" unicode="&#x16f;" horiz-adv-x="618" 
d="M573 238q0 -54 -16.5 -97.5t-49 -75t-82 -48.5t-115.5 -17q-64 0 -113.5 17.5t-83 48.5t-51 74.5t-17.5 96.5v391h110v-389q0 -57 41.5 -93t114.5 -36h3q75 0 112 36t37 93v389h110v-390zM314 750q-14 0 -23.5 -10.5t-9.5 -24.5q0 -16 9.5 -25.5t23.5 -9.5t24.5 9.5
t10.5 25.5q0 14 -10.5 24.5t-24.5 10.5zM312 637q-32 0 -54 21t-22 55q0 35 22 57.5t54 22.5q34 0 56 -23t22 -57t-22 -55t-56 -21z" />
    <glyph glyph-name="Uhungarumlaut" unicode="&#x170;" horiz-adv-x="618" 
d="M573 238q0 -54 -16.5 -97.5t-49 -75t-82 -48.5t-115.5 -17q-64 0 -113.5 17.5t-83 48.5t-51 74.5t-17.5 96.5v391h110v-389q0 -57 41.5 -93t114.5 -36h3q75 0 112 36t37 93v389h110v-390zM287 773h89l-119 -120h-60zM407 773h91l-142 -120h-63z" />
    <glyph glyph-name="uhungarumlaut" unicode="&#x171;" horiz-adv-x="618" 
d="M573 233q0 -54 -16.5 -97.5t-49 -75t-82 -48.5t-115.5 -17q-64 0 -113.5 17.5t-83 48.5t-51 74.5t-17.5 96.5v396h110v-394q0 -57 41.5 -93t114.5 -36h3q75 0 112 36t37 93v394h110v-395zM260 773h89l-119 -120h-60zM380 773h91l-142 -120h-63z" />
    <glyph glyph-name="Uogonek" unicode="&#x172;" horiz-adv-x="618" 
d="M573 238q0 -54 -16.5 -97.5t-49 -75t-82 -48.5t-115.5 -17q-64 0 -113.5 17.5t-83 48.5t-51 74.5t-17.5 96.5v391h110v-389q0 -57 41.5 -93t114.5 -36h3q75 0 112 36t37 93v389h110v-390zM258 -201q-23 0 -39.5 7.5t-27 19.5t-16 27.5t-5.5 31.5q0 24 28 61.5t89 68.5h62
q-61 -42 -86.5 -77.5t-25.5 -46.5q0 -9 7.5 -17.5t22.5 -8.5h82v-66h-91z" />
    <glyph glyph-name="uogonek" unicode="&#x173;" horiz-adv-x="618" 
d="M573 233q0 -54 -16.5 -97.5t-49 -75t-82 -48.5t-115.5 -17q-64 0 -113.5 17.5t-83 48.5t-51 74.5t-17.5 96.5v396h110v-394q0 -57 41.5 -93t114.5 -36h3q75 0 112 36t37 93v394h110v-395zM251 -201q-23 0 -39.5 7.5t-27 19.5t-16 27.5t-5.5 31.5q0 24 28 61.5t89 68.5h62
q-61 -42 -86.5 -77.5t-25.5 -46.5q0 -9 7.5 -17.5t22.5 -8.5h82v-66h-91z" />
    <glyph glyph-name="Ydieresis" unicode="&#x178;" horiz-adv-x="606" 
d="M248 278l-232 350h132l155 -252l155 252h132l-232 -343v-285h-110v278zM379 648q-24 0 -42 18t-18 43q0 26 18 43.5t42 17.5q26 0 42.5 -17.5t16.5 -43.5q0 -25 -16.5 -43t-42.5 -18zM227 648q-26 0 -43 18t-17 43q0 26 17 43.5t43 17.5t43 -17.5t17 -43.5q0 -25 -17 -43
t-43 -18z" />
    <glyph glyph-name="Zacute" unicode="&#x179;" horiz-adv-x="672" 
d="M487 438q16 7 26 19.5t10 26.5t-10 24t-31 10h-419v110h416q76 0 114 -40t38 -104q0 -12 -2 -30t-11.5 -38t-30 -40t-57.5 -36l-345 -150q-36 -17 -36 -45q0 -17 12 -26t29 -9h426v-110h-423q-76 0 -114.5 40t-38.5 103q0 17 3.5 36.5t14.5 39t31 37.5t52 32zM268 652
l66 118h90l-102 -118h-54z" />
    <glyph glyph-name="zacute" unicode="&#x17a;" horiz-adv-x="672" 
d="M487 438q17 8 26.5 20.5t9.5 26.5q0 13 -10 23t-31 10h-419v110h416q76 0 114 -40t38 -104q0 -12 -2 -30t-11.5 -38t-30 -40t-57.5 -36l-345 -150q-31 -13 -31 -43q0 -37 36 -37h426v-110h-423q-76 0 -114.5 40t-38.5 103q0 17 3.5 36.5t14.5 39t31 37.5t52 32zM273 652
l66 118h90l-102 -118h-54z" />
    <glyph glyph-name="Zdotaccent" unicode="&#x17b;" horiz-adv-x="672" 
d="M487 438q16 7 26 19.5t10 26.5t-10 24t-31 10h-419v110h416q76 0 114 -40t38 -104q0 -12 -2 -30t-11.5 -38t-30 -40t-57.5 -36l-345 -150q-36 -17 -36 -45q0 -17 12 -26t29 -9h426v-110h-423q-76 0 -114.5 40t-38.5 103q0 17 3.5 36.5t14.5 39t31 37.5t52 32zM333 652
q-29 0 -46 21.5t-17 53.5t17 53t46 21q11 0 22 -6t19.5 -16t14 -23.5t5.5 -28.5q0 -32 -18 -53.5t-43 -21.5z" />
    <glyph glyph-name="zdotaccent" unicode="&#x17c;" horiz-adv-x="672" 
d="M487 438q17 8 26.5 20.5t9.5 26.5q0 13 -10 23t-31 10h-419v110h416q76 0 114 -40t38 -104q0 -12 -2 -30t-11.5 -38t-30 -40t-57.5 -36l-345 -150q-31 -13 -31 -43q0 -37 36 -37h426v-110h-423q-76 0 -114.5 40t-38.5 103q0 17 3.5 36.5t14.5 39t31 37.5t52 32zM340 652
q-29 0 -46 21.5t-17 53.5t17 53t46 21q11 0 22 -6t19.5 -16t14 -23.5t5.5 -28.5q0 -32 -18 -53.5t-43 -21.5z" />
    <glyph glyph-name="Zcaron" unicode="&#x17d;" horiz-adv-x="672" 
d="M487 438q16 7 26 19.5t10 26.5t-10 24t-31 10h-419v110h416q76 0 114 -40t38 -104q0 -12 -2 -30t-11.5 -38t-30 -40t-57.5 -36l-345 -150q-36 -17 -36 -45q0 -17 12 -26t29 -9h426v-110h-423q-76 0 -114.5 40t-38.5 103q0 17 3.5 36.5t14.5 39t31 37.5t52 32zM387 771h81
l-97 -117h-71l-101 117h84l52 -63z" />
    <glyph glyph-name="zcaron" unicode="&#x17e;" horiz-adv-x="672" 
d="M487 438q17 8 26.5 20.5t9.5 26.5q0 13 -10 23t-31 10h-419v110h416q76 0 114 -40t38 -104q0 -12 -2 -30t-11.5 -38t-30 -40t-57.5 -36l-345 -150q-31 -13 -31 -43q0 -37 36 -37h426v-110h-423q-76 0 -114.5 40t-38.5 103q0 17 3.5 36.5t14.5 39t31 37.5t52 32zM379 771
h81l-97 -117h-71l-101 117h84l52 -63z" />
    <glyph glyph-name="circumflex" unicode="&#x2c6;" horiz-adv-x="292" 
d="M93 652h-82l99 117h70l102 -117h-84l-53 62z" />
    <glyph glyph-name="caron" unicode="&#x2c7;" horiz-adv-x="340" 
d="M220 771h81l-97 -117h-71l-101 117h84l52 -63z" />
    <glyph glyph-name="breve" unicode="&#x2d8;" horiz-adv-x="278" 
d="M139 650q-52 0 -79 30t-35 87h54q6 -29 21 -48t39 -19q23 0 37.5 19t20.5 48h59q-11 -57 -38.5 -87t-78.5 -30z" />
    <glyph glyph-name="dotaccent" unicode="&#x2d9;" horiz-adv-x="182" 
d="M88 652q-29 0 -46 21.5t-17 53.5t17 53t46 21q11 0 22 -6t19.5 -16t14 -23.5t5.5 -28.5q0 -32 -18 -53.5t-43 -21.5z" />
    <glyph glyph-name="ogonek" unicode="&#x2db;" horiz-adv-x="276" 
d="M129 -201q-23 0 -39.5 7.5t-27 19.5t-16 27.5t-5.5 31.5q0 24 28 61.5t89 68.5h62q-61 -42 -86.5 -77.5t-25.5 -46.5q0 -9 7.5 -17.5t22.5 -8.5h82v-66h-91z" />
    <glyph glyph-name="tilde" unicode="&#x2dc;" horiz-adv-x="336" 
d="M21 674q39 68 91 68q9 0 22.5 -5.5t28 -12t28.5 -12t25 -5.5q30 0 46 40l40 -44q-4 -17 -14.5 -29t-23 -19t-25.5 -10t-22 -3q-10 0 -20.5 2.5t-21.5 8.5q-23 11 -35 16.5t-21 5.5q-20 0 -52 -41z" />
    <glyph glyph-name="hungarumlaut" unicode="&#x2dd;" horiz-adv-x="309" 
d="M98 773h89l-119 -120h-60zM218 773h91l-142 -120h-63z" />
    <glyph glyph-name="endash" unicode="&#x2013;" horiz-adv-x="410" 
d="M36 372h336v-112h-336v112z" />
    <glyph glyph-name="emdash" unicode="&#x2014;" horiz-adv-x="588" 
d="M36 372h516v-112h-516v112z" />
    <glyph glyph-name="quoteleft" unicode="&#x2018;" horiz-adv-x="285" 
d="M179 463q-30 0 -54.5 11t-41.5 30t-26.5 45.5t-9.5 56.5v125h117v-98q0 -48 49 -61v-109h-34z" />
    <glyph glyph-name="quoteright" unicode="&#x2019;" horiz-adv-x="279" 
d="M210 602q0 -30 -9.5 -56t-26.5 -45t-41.5 -30t-54.5 -11h-34v108q49 13 49 62v98h117v-126z" />
    <glyph glyph-name="quotesinglbase" unicode="&#x201a;" horiz-adv-x="213" 
d="M201 11q0 -35 -12.5 -64t-35 -49.5t-53 -32t-65.5 -11.5v110q25 0 37 12t12 29v116h117v-110z" />
    <glyph glyph-name="quotedblleft" unicode="&#x201c;" horiz-adv-x="400" 
d="M23 574q0 34 13 63t34 50t48 32.5t56 11.5h15v-110q-25 0 -37 -12t-12 -29v-116h-117v110zM213 574q0 34 13 63t34 50t48 32.5t56 11.5h15v-110q-25 0 -37 -12t-12 -29v-116h-117v110z" />
    <glyph glyph-name="quotedblright" unicode="&#x201d;" horiz-adv-x="400" 
d="M377 621q0 -34 -12.5 -62.5t-33.5 -49.5t-48 -33t-57 -12h-15v110q25 0 37 12t12 29v116h117v-110zM187 621q0 -34 -12.5 -62.5t-33.5 -49.5t-48 -33t-57 -12h-15v110q25 0 37 12t12 29v116h117v-110z" />
    <glyph glyph-name="quotedblbase" unicode="&#x201e;" horiz-adv-x="439" 
d="M398 11q0 -35 -12.5 -64t-35 -49.5t-53 -32t-65.5 -11.5v110q25 0 37 12t12 29v116h117v-110zM201 11q0 -35 -12.5 -64t-35 -49.5t-53 -32t-65.5 -11.5v110q25 0 37 12t12 29v116h117v-110z" />
    <glyph glyph-name="bullet" unicode="&#x2022;" horiz-adv-x="437" 
d="M390 472v-320h-341v320h341z" />
    <glyph glyph-name="ellipsis" unicode="&#x2026;" horiz-adv-x="714" 
d="M305 111h117v-111h-117v111zM549 111h117v-111h-117v111zM55 111h117v-111h-117v111z" />
    <glyph glyph-name="guilsinglleft" unicode="&#x2039;" horiz-adv-x="280" 
d="M228 265v-72l-168 84v67l168 87v-74l-99 -46z" />
    <glyph glyph-name="guilsinglright" unicode="&#x203a;" horiz-adv-x="280" 
d="M60 359v72l168 -84v-67l-168 -87v74l98 46z" />
    <glyph glyph-name="Euro" unicode="&#x20ac;" horiz-adv-x="566" 
d="M182 285h206l-42 -99h-145q19 -37 49.5 -56.5t78.5 -19.5h179v-110h-151q-219 0 -271 186h-48v99h34v61h-34v98h50q25 91 93 137.5t177 46.5h173l-46 -110h-155q-45 0 -78 -19.5t-49 -54.5h251l-41 -98h-231v-61z" />
    <glyph glyph-name="trademark" unicode="&#x2122;" horiz-adv-x="611" 
d="M188 261h-79v223h-71v74h219v-74h-69v-223zM444 262h-14l-52 124v-124h-72v297h73l57 -148l56 148h71v-298h-73v123z" />
    <glyph glyph-name="uniE000" horiz-adv-x="201" 
d="M102 750q-14 0 -23.5 -10.5t-9.5 -24.5q0 -16 9.5 -25.5t23.5 -9.5t24.5 9.5t10.5 25.5q0 14 -10.5 24.5t-24.5 10.5zM100 637q-32 0 -54 21t-22 55q0 35 22 57.5t54 22.5q34 0 56 -23t22 -57t-22 -55t-56 -21z" />
    </font>
</defs>
</svg>
