<?xml version="1.0" encoding="UTF-8"?><!DOCTYPE svg PUBLIC "-//W3C//DTD SVG 1.1//EN" "http://www.w3.org/Graphics/SVG/1.1/DTD/svg11.dtd"><svg xmlns="http://www.w3.org/2000/svg"><symbol id="icon-arrow-left" viewBox="0 0 12 18">
    <path fill-rule="evenodd" d="M0 9l12-9v18z"/>
</symbol><symbol id="icon-arrow-right" viewBox="0 0 12 18">
    <path fill-rule="evenodd" d="M12 9L0 18V0z"/>
</symbol><symbol id="icon-delete" viewBox="0 0 9 12">
    <path d="M.643 10.667C.643 11.4 1.22 12 1.929 12H7.07c.708 0 1.286-.6 1.286-1.333v-8H.643v8zM9 .667H6.75L6.107 0H2.893L2.25.667H0V2h9V.667z"/>
</symbol><symbol id="icon-edit" viewBox="0 0 12 12">
    <path d="M0 9.5V12h2.5l7.372-7.372-2.5-2.5L0 9.5zm11.805-6.805c.26-.26.26-.68 0-.94l-1.56-1.56a.664.664 0 0 0-.94 0l-1.22 1.22 2.5 2.5 1.22-1.22z"/>
</symbol><symbol id="icon-gallery" viewBox="0 0 16 16">
    <path d="M16 14.222V1.778C16 .8 15.2 0 14.222 0H1.778C.8 0 0 .8 0 1.778v12.444C0 15.2.8 16 1.778 16h12.444C15.2 16 16 15.2 16 14.222zM4.889 9.333L7.11 12.01 10.222 8l4 5.333H1.778l3.11-4z"/>
</symbol><symbol id="icon-logout" viewBox="0 0 16 16">
    <path d="M6.302 11.191l1.254 1.253L12 8 7.556 3.556 6.302 4.809 8.596 7.11H0V8.89h8.596L6.302 11.19zM14.222 0H1.778C.79 0 0 .8 0 1.778v3.555h1.778V1.778h12.444v12.444H1.778v-3.555H0v3.555C0 15.2.791 16 1.778 16h12.444C15.2 16 16 15.2 16 14.222V1.778C16 .8 15.2 0 14.222 0z"/>
</symbol><symbol id="icon-password" viewBox="0 0 16 21">
    <path d="M14 7h-1V5c0-2.76-2.24-5-5-5S3 2.24 3 5v2H2C.9 7 0 7.9 0 9v10c0 1.1.9 2 2 2h12c1.1 0 2-.9 2-2V9c0-1.1-.9-2-2-2zm-6 9c-1.1 0-2-.9-2-2s.9-2 2-2 2 .9 2 2-.9 2-2 2zm3.1-9H4.9V5c0-1.71 1.39-3.1 3.1-3.1 1.71 0 3.1 1.39 3.1 3.1v2z"/>
</symbol><symbol id="icon-plus" viewBox="0 0 12 12">
    <path fill-rule="evenodd" d="M5 5V0h2v5h5v2H7v5H5V7H0V5h5z"/>
</symbol><symbol id="icon-promo" viewBox="0 0 16 16">
    <path fill-rule="evenodd" d="M3 0h10a3 3 0 0 1 3 3v10a3 3 0 0 1-3 3H3a3 3 0 0 1-3-3V3a3 3 0 0 1 3-3zM2 3v2h12V3H2z"/>
</symbol><symbol id="icon-tick" viewBox="0 0 17 16">
    <path d="M13.695 1.26a1.5 1.5 0 0 1 2.61 1.48l-7.09 12.516a1.5 1.5 0 0 1-2.334.353l-5.91-5.566a1.5 1.5 0 1 1 2.057-2.184l4.519 4.255 6.148-10.853z"/>
</symbol></svg>