<?xml version="1.0" encoding="UTF-8" standalone="no"?>
<!-- Created with Inkscape (http://www.inkscape.org/) -->

<svg
   xmlns:dc="http://purl.org/dc/elements/1.1/"
   xmlns:cc="http://creativecommons.org/ns#"
   xmlns:rdf="http://www.w3.org/1999/02/22-rdf-syntax-ns#"
   xmlns:svg="http://www.w3.org/2000/svg"
   xmlns="http://www.w3.org/2000/svg"
   xmlns:sodipodi="http://sodipodi.sourceforge.net/DTD/sodipodi-0.dtd"
   xmlns:inkscape="http://www.inkscape.org/namespaces/inkscape"
   width="1000"
   height="866.89563"
   id="svg2"
   version="1.1"
   inkscape:version="0.48.5 r10040"
   sodipodi:docname="France_2_2018_(icon).svg">
  <defs
     id="defs4" />
  <sodipodi:namedview
     id="base"
     pagecolor="#ffffff"
     bordercolor="#666666"
     borderopacity="1.0"
     inkscape:pageopacity="0.0"
     inkscape:pageshadow="2"
     inkscape:zoom="0.32912137"
     inkscape:cx="985.35866"
     inkscape:cy="-82.480393"
     inkscape:document-units="px"
     inkscape:current-layer="layer1"
     showgrid="false"
     fit-margin-top="0"
     fit-margin-left="0"
     fit-margin-right="0"
     fit-margin-bottom="0"
     inkscape:window-width="1022"
     inkscape:window-height="1032"
     inkscape:window-x="889"
     inkscape:window-y="-15"
     inkscape:window-maximized="0">
    <inkscape:grid
       type="xygrid"
       id="grid4316"
       empspacing="5"
       visible="true"
       enabled="true"
       snapvisiblegridlinesonly="true"
       originx="-384.11259px"
       originy="-309.39494px" />
  </sodipodi:namedview>
  <metadata
     id="metadata7">
    <rdf:RDF>
      <cc:Work
         rdf:about="">
        <dc:format>image/svg+xml</dc:format>
        <dc:type
           rdf:resource="http://purl.org/dc/dcmitype/StillImage" />
        <dc:title />
      </cc:Work>
    </rdf:RDF>
  </metadata>
  <g
     inkscape:label="Layer 1"
     inkscape:groupmode="layer"
     id="layer1"
     transform="translate(-384.11259,123.9284)">
    <g
       id="g4383"
       transform="matrix(24.105672,0,0,24.105672,-9959.3569,-17672.598)">
      <g
         id="text4318"
         style="font-size:50.65392303000000100px;font-style:normal;font-weight:normal;line-height:125%;letter-spacing:0px;word-spacing:0px;fill:#232323;fill-opacity:1;stroke:none;font-family:Sans">
        <path
           sodipodi:nodetypes="ccccccccccccccccccccsccccc"
           inkscape:connector-curvature="0"
           id="path4323"
           style="fill:#232323;fill-opacity:1;font-family:Brown Bold;-inkscape-font-specification:Brown Bold"
           d="m 447.02841,763.95154 0,-5.04173 12.46561,-13.13729 c 1.38506,-1.54994 2.31256,-2.86905 2.78251,-3.95734 0.46991,-1.08824 0.70488,-2.08582 0.7049,-2.99274 -2e-5,-0.61006 -0.11956,-1.19954 -0.35864,-1.76843 -0.2391,-0.56884 -0.56064,-1.07588 -0.9646,-1.5211 -0.40399,-0.44518 -0.88217,-0.79969 -1.43453,-1.06354 -0.55239,-0.26379 -1.16661,-0.3957 -1.84264,-0.39573 -1.18721,3e-5 -2.19303,0.37103 -3.01747,1.113 -0.82445,0.74203 -1.52515,1.97451 -1.52515,4.17554 l -6.83365,0 c 0,-3.10358 1.20261,-5.49875 1.92813,-6.51284 0.72551,-1.01404 1.57881,-1.87558 2.5599,-2.58464 0.98108,-0.70899 2.06111,-1.26549 3.24007,-1.6695 1.17895,-0.40394 2.42798,-0.60593 3.74711,-0.60597 1.51696,4e-5 2.95974,0.26798 4.32833,0.80384 1.36856,0.53592 2.57638,1.28616 3.62344,2.25073 1.04702,0.96463 1.87559,2.12298 2.4857,3.47504 0.61007,1.35212 0.91511,2.81963 0.91514,4.40254 -3e-5,2.16007 -0.46584,4.06041 -1.39744,5.70104 -0.93164,1.64066 -1.99105,3.13703 -3.17823,4.4891 l -8.47439,8.75561 13.79012,0 0,6.08441 z" />
      </g>
      <path
         transform="translate(-0.69682379,0.1161373)"
         sodipodi:open="true"
         sodipodi:end="6.2831852"
         sodipodi:start="0"
         d="m 443.48964,751.52789 c 0,3.78431 -3.06779,6.8521 -6.8521,6.8521 -3.78431,0 -6.8521,-3.06779 -6.8521,-6.8521 0,-3.78431 3.06779,-6.8521 6.8521,-6.8521 3.78431,0 6.8521,3.06779 6.8521,6.8521"
         sodipodi:ry="6.8521008"
         sodipodi:rx="6.8521008"
         sodipodi:cy="751.52789"
         sodipodi:cx="436.63754"
         id="path4325"
         style="fill:#de0038;fill-opacity:1;fill-rule:evenodd;stroke:none"
         sodipodi:type="arc" />
    </g>
  </g>
  <style
     id="style3"
     type="text/css">
	.st0{fill:#FFC300;}
	.st1{fill:#323232;}
</style>
</svg>
