<?xml version="1.0" encoding="utf-8"?>
<!-- Generator: Adobe Illustrator 21.0.0, SVG Export Plug-In . SVG Version: 6.00 Build 0)  -->
<svg version="1.1"
	 id="svg2" inkscape:version="0.48.5 r10040" sodipodi:docname="France_2_2018_(icon).svg" xmlns:cc="http://creativecommons.org/ns#" xmlns:dc="http://purl.org/dc/elements/1.1/" xmlns:inkscape="http://www.inkscape.org/namespaces/inkscape" xmlns:rdf="http://www.w3.org/1999/02/22-rdf-syntax-ns#" xmlns:sodipodi="http://sodipodi.sourceforge.net/DTD/sodipodi-0.dtd" xmlns:svg="http://www.w3.org/2000/svg"
	 xmlns="http://www.w3.org/2000/svg" xmlns:xlink="http://www.w3.org/1999/xlink" x="0px" y="0px" viewBox="0 0 1000 866.9"
	 style="enable-background:new 0 0 1000 866.9;" xml:space="preserve">
<style type="text/css">
	.st0{fill:#1FB5FC;}
</style>
<sodipodi:namedview  bordercolor="#666666" borderopacity="1.0" fit-margin-bottom="0" fit-margin-left="0" fit-margin-right="0" fit-margin-top="0" id="base" inkscape:current-layer="layer1" inkscape:cx="985.35866" inkscape:cy="-82.480393" inkscape:document-units="px" inkscape:pageopacity="0.0" inkscape:pageshadow="2" inkscape:window-height="1032" inkscape:window-maximized="0" inkscape:window-width="1022" inkscape:window-x="889" inkscape:window-y="-15" inkscape:zoom="0.32912137" pagecolor="#ffffff" showgrid="false">
	
		<inkscape:grid  empspacing="5" enabled="true" id="grid4316" originx="-384.11259px" originy="-309.39494px" snapvisiblegridlinesonly="true" type="xygrid" visible="true">
		</inkscape:grid>
</sodipodi:namedview>
<g>
	<path d="M957.8,104.5V1.6H443.6v144h277.7L567,330.7v102.9c28.1-19.7,69.9-20.6,108-20.6c92.6,0,167.6,69.1,167.6,154.3
		c0,85.2-75,154.3-167.6,154.3c-67.4,0-125.5-36.6-152.1-89.4l-118.1,99.7c58,80.5,157.4,133.7,270.2,133.7
		c178.9,0,324-133.5,324-298.3c0-123.5-81.6-229.6-197.9-274.8L957.8,104.5z"/>
	<circle class="st0" cx="155.6" cy="557" r="154.3"/>
</g>
</svg>
