<?xml version="1.0" encoding="utf-8"?>
<!-- Generator: Adobe Illustrator 21.0.0, SVG Export Plug-In . SVG Version: 6.00 Build 0)  -->
<svg version="1.1"
	 id="svg2" inkscape:version="0.48.5 r10040" sodipodi:docname="France_2_2018_(icon).svg" xmlns:cc="http://creativecommons.org/ns#" xmlns:dc="http://purl.org/dc/elements/1.1/" xmlns:inkscape="http://www.inkscape.org/namespaces/inkscape" xmlns:rdf="http://www.w3.org/1999/02/22-rdf-syntax-ns#" xmlns:sodipodi="http://sodipodi.sourceforge.net/DTD/sodipodi-0.dtd" xmlns:svg="http://www.w3.org/2000/svg"
	 xmlns="http://www.w3.org/2000/svg" xmlns:xlink="http://www.w3.org/1999/xlink" x="0px" y="0px" viewBox="0 0 1000 866.9"
	 style="enable-background:new 0 0 1000 866.9;" xml:space="preserve">
<style type="text/css">
	.st0{fill:#65FD7F;}
</style>
<sodipodi:namedview  bordercolor="#666666" borderopacity="1.0" fit-margin-bottom="0" fit-margin-left="0" fit-margin-right="0" fit-margin-top="0" id="base" inkscape:current-layer="layer1" inkscape:cx="985.35866" inkscape:cy="-82.480393" inkscape:document-units="px" inkscape:pageopacity="0.0" inkscape:pageshadow="2" inkscape:window-height="1032" inkscape:window-maximized="0" inkscape:window-width="1022" inkscape:window-x="889" inkscape:window-y="-15" inkscape:zoom="0.32912137" pagecolor="#ffffff" showgrid="false">
	
		<inkscape:grid  empspacing="5" enabled="true" id="grid4316" originx="-384.11259px" originy="-309.39494px" snapvisiblegridlinesonly="true" type="xygrid" visible="true">
		</inkscape:grid>
</sodipodi:namedview>
<g>
	<path d="M937,142.8V0.3H489.2l-40.7,458h111.9c27.8-19.5,50.9-40.7,117-40.7c91.6,0,165.8,68.3,165.8,152.7
		c0,84.3-74.2,152.7-165.8,152.7c-66.7,0-124.2-36.2-150.5-88.5l-116.9,98.7c57.4,79.7,155.7,132.2,267.4,132.2
		c177.1,0,320.6-132.1,320.6-295.1c0-8.7-0.4-17.4-1.2-26.1C984.6,408.2,897.4,299,747.1,282.5c-16.4-1.8-32.9-1.8-49.3-1l-76.2,3.8
		l10.2-142.5H937z"/>
	<circle class="st0" cx="154.5" cy="560.1" r="152.7"/>
</g>
</svg>
