<?xml version="1.0" encoding="utf-8"?>
<!-- Generator: Adobe Illustrator 21.0.0, SVG Export Plug-In . SVG Version: 6.00 Build 0)  -->
<svg version="1.1" id="Layer_1" xmlns="http://www.w3.org/2000/svg" xmlns:xlink="http://www.w3.org/1999/xlink" x="0px" y="0px"
	 viewBox="0 0 13 14" style="enable-background:new 0 0 13 14;" xml:space="preserve">
<style type="text/css">
	.st0{fill:#DEF300;}
</style>
<g>
	<path class="st0" d="M12.9,12c0,1.1-0.9,2-2,2s-2-0.9-2-2c0-0.2,0-0.3,0.1-0.5L3.4,8.4C3.1,8.8,2.5,9,2,9C0.9,9,0,8.1,0,7
		s0.9-2,2-2c0.5,0,1,0.2,1.3,0.5L9,2.3C9,2.2,9,2.1,9,2c0-1.1,0.9-2,2-2s2,0.9,2,2s-0.9,2-2,2c-0.6,0-1.2-0.3-1.6-0.8l0,0L3.9,6.3
		C4,6.5,4,6.8,4,7s0,0.3-0.1,0.5l5.6,3.1c0.3-0.4,0.9-0.6,1.4-0.6C12,10,12.9,10.9,12.9,12z"/>
</g>
<g>
	<polygon class="st0" points="2.7,6.9 2.6,6.9 2.6,6.8 	"/>
</g>
<g>
	<polygon class="st0" points="2.7,6.9 2.6,6.9 2.6,6.8 	"/>
</g>
</svg>
