<?xml version="1.0" encoding="utf-8"?>
<!-- Generator: Adobe Illustrator 21.0.0, SVG Export Plug-In . SVG Version: 6.00 Build 0)  -->
<svg version="1.1" id="Layer_1" xmlns="http://www.w3.org/2000/svg" xmlns:xlink="http://www.w3.org/1999/xlink" x="0px" y="0px"
	 viewBox="0 0 610.8 294.5" style="enable-background:new 0 0 610.8 294.5;" xml:space="preserve">
<style type="text/css">
	.st0{fill:#FFFFFF;}
	.st1{fill:#DEF300;}
</style>
<title>kik_logo_1</title>
<g>
	<path class="st0" d="M93.5,203.7c0,3.3-1.4,6.5-4,8.6c-2.3,2.2-5.4,3.4-8.5,3.5c-3.5,0-6.8-1.5-9.1-4.1l-37.1-39.1l-10.1,9.3v21.6
		c0.1,3.4-1.2,6.6-3.5,9c-4.9,4.8-12.8,4.8-17.7,0c-2.3-2.4-3.6-5.6-3.5-9V76.2c-0.1-3.4,1.2-6.6,3.5-9c4.9-4.8,12.8-4.8,17.7,0
		c2.3,2.4,3.6,5.6,3.5,9v76.2l44.1-42.6c2.3-2.5,5.6-3.9,9-3.9c3.1,0.1,6.1,1.4,8.1,3.8c2.4,2.5,3.6,5.1,3.6,7.7
		c0,3.3-1.6,6.4-4.9,9.3l-31.1,28.6l36,39.1C92.1,196.9,93.5,200.2,93.5,203.7z"/>
	<path class="st0" d="M116,90.2c-1.9-1.5-2.9-4.2-2.9-8v-3.9c0-3.8,1-6.5,3.1-8c2.1-1.5,5.4-2.2,9.9-2.3c4.8,0,8.2,0.8,10.1,2.3
		c1.9,1.5,2.9,4.2,2.9,8v3.9c0,4-1,6.7-3,8.1s-5.4,2.1-10.2,2.1C121.2,92.5,117.9,91.7,116,90.2z M135,212.5
		c-4.9,4.8-12.8,4.8-17.7,0c-2.3-2.4-3.6-5.6-3.5-9v-85c-0.1-3.4,1.2-6.6,3.5-9c4.9-4.8,12.8-4.8,17.7,0c2.3,2.4,3.6,5.6,3.5,9v85.1
		C138.5,206.9,137.3,210.1,135,212.5L135,212.5z"/>
	<path class="st0" d="M259.4,203.7c0,3.3-1.4,6.5-4,8.6c-2.3,2.2-5.4,3.4-8.5,3.5c-3.5,0-6.8-1.5-9.1-4.1l-37.1-39.1l-10.1,9.3v21.6
		c0.1,3.4-1.2,6.6-3.5,9c-4.9,4.8-12.8,4.8-17.7,0c-2.3-2.4-3.6-5.6-3.5-9V76.2c-0.1-3.4,1.2-6.6,3.5-9c4.9-4.8,12.8-4.8,17.7,0
		c2.3,2.4,3.6,5.6,3.5,9v76.2l44.1-42.6c2.4-2.5,5.6-3.9,9.1-3.9c3.1,0.1,6.1,1.4,8.1,3.8c2.4,2.5,3.6,5.1,3.6,7.7
		c0,3.3-1.6,6.4-4.9,9.3l-31.1,28.6l36,39.1C257.9,196.9,259.3,200.2,259.4,203.7z"/>
	<path class="st1" d="M610.8,147c-0.5-84.6-131-125.5-131-125.5s-106-37-150-14c-42.3,22.1-47,115-47,139.5v2.5
		c0,25,4.7,115.4,47,137.5c44,23,150-14,150-14s130.4-40.8,131-125.5c0-0.1,0-0.2,0-0.3C610.9,147.2,610.9,147.1,610.8,147
		 M383.1,194c1.8,1.4,4,2.1,6.2,2c1.6-0.1,3.1-0.4,4.6-0.8c1.5-0.6,3.1-1,4.8-1c2.1,0.1,4.1,1.1,5.3,2.8c1.7,2.1,2.5,4.7,2.4,7.4
		c0,3.8-2,6.9-6.2,9.5c-4.1,2.6-9,3.9-13.8,3.9c-8.6,0-15.9-1.8-21.8-5.5c-5.9-3.7-8.8-11.5-8.8-23.5V131h-9.6
		c-6.3,0.1-11.5-4.8-11.7-11.1c0-0.2,0-0.4,0-0.6c-0.1-3,1.1-5.9,3.3-8c2.2-2.2,5.2-3.3,8.3-3.2h9.6V94.6
		c-0.2-6.9,5.3-12.6,12.2-12.7c0.2,0,0.3,0,0.5,0c3.3-0.1,6.5,1.3,8.8,3.7c2.4,2.4,3.6,5.7,3.5,9.1V108h14.8
		c6.3-0.1,11.5,4.8,11.7,11.1c0,0.2,0,0.4,0,0.6c0.1,3-1.1,6-3.3,8c-2.2,2.2-5.2,3.3-8.3,3.2h-14.8v56.7
		C380.9,190.6,381.6,192.7,383.1,194 M523.7,123.4l-38.5,84.9c-0.9,2.2-2.3,4.1-4.2,5.6c-1.8,1.4-4,2.2-6.3,2.3l-1.8,0.2
		c-2.3,0-4.6-0.8-6.5-2.2c-2-1.5-3.6-3.5-4.6-5.9l-38.3-84.9c-0.9-2.1-1.4-4.3-1.4-6.6c0.1-2.9,1.3-5.6,3.5-7.5
		c2.3-2.3,5.4-3.5,8.7-3.4c2.6,0,5.1,0.7,7.2,2.1c2.2,1.4,3.9,3.4,4.9,5.8l28.4,65.1l28.2-64.9c0.9-2.4,2.5-4.5,4.5-6
		c1.8-1.3,4.1-2,6.4-1.8c3.1-0.1,6,1.1,8.2,3.2c2.2,2.1,3.4,4.9,3.3,7.9C525.3,119.4,524.7,121.5,523.7,123.4"/>
</g>
</svg>
