<?xml version="1.0" encoding="UTF-8" standalone="no"?>
<!-- Created with Inkscape (http://www.inkscape.org/) -->
<svg
   xmlns:dc="http://purl.org/dc/elements/1.1/"
   xmlns:cc="http://web.resource.org/cc/"
   xmlns:rdf="http://www.w3.org/1999/02/22-rdf-syntax-ns#"
   xmlns:svg="http://www.w3.org/2000/svg"
   xmlns="http://www.w3.org/2000/svg"
   xmlns:xlink="http://www.w3.org/1999/xlink"
   xmlns:sodipodi="http://sodipodi.sourceforge.net/DTD/sodipodi-0.dtd"
   xmlns:inkscape="http://www.inkscape.org/namespaces/inkscape"
   width="745"
   height="279"
   id="svg2"
   sodipodi:version="0.32"
   inkscape:version="0.45.1"
   version="1.0"
   inkscape:output_extension="org.inkscape.output.svg.inkscape">
  <g
     inkscape:label="Layer 1"
     inkscape:groupmode="layer"
     id="layer1"
     transform="translate(-343.05434,42.256503)">
    <g
       id="g5963"
       transform="matrix(14.437257,0,0,14.437257,-4609.7333,-3181.2003)">
      <g
         transform="matrix(1,0,0,-1,77.431,958.08568)"
         clip-path="url(#id95)"
         id="g2997">
        <g
   transform="translate(313.716,721.341)"
   id="g2999">
          <path
   style="fill:#231f20;fill-rule:evenodd;stroke:none"
   d="M 0,0 C 1.168,0 2.336,0 3.504,0 C 3.504,0.439 3.504,0.878 3.504,1.317 C 2.874,1.334 2.179,1.284 1.591,1.342 C 1.591,3.115 1.591,4.888 1.591,6.661 C 1.069,6.661 0.547,6.661 0.025,6.661 C 0.008,4.548 0.058,2.154 0,0 z M -4.573,5.343 C -4.216,5.286 -3.753,5.335 -3.355,5.319 C -3.355,3.546 -3.355,1.773 -3.355,0 C -2.825,0 -2.295,0 -1.765,0 C -1.765,1.773 -1.765,3.546 -1.765,5.319 C -1.35,5.319 -0.936,5.319 -0.522,5.319 C -0.465,5.717 -0.513,6.221 -0.497,6.661 C -1.848,6.661 -3.198,6.661 -4.548,6.661 C -4.606,6.271 -4.556,5.774 -4.573,5.343 z M -8.997,6.089 C -9.577,5.3 -9.346,3.528 -8.475,3.305 C -8.736,3.216 -8.95,3.146 -9.096,2.933 C -9.453,2.415 -9.187,1.082 -9.37,0.373 C -9.411,0.211 -9.547,0.168 -9.519,0 C -8.955,0 -8.392,0 -7.829,0 C -7.496,0.91 -8.238,3.027 -6.661,2.61 C -6.644,1.748 -6.693,0.82 -6.636,0 C -6.114,0 -5.592,0 -5.07,0 C -5.07,2.229 -5.07,4.457 -5.07,6.685 C -6.633,6.583 -8.317,7.013 -8.997,6.089 z M -16.651,4.821 C -19.496,4.409 -21.74,5.605 -23.212,6.884 C -23.392,7.04 -23.67,7.429 -23.883,7.481 C -24.27,7.574 -24.811,7.481 -25.25,7.481 C -25.742,7.481 -26.196,7.481 -26.617,7.481 C -26.421,7.17 -26.121,6.917 -25.847,6.661 C -25.566,6.397 -25.273,6.136 -24.977,5.89 C -23.236,4.447 -20.979,3.032 -17.919,3.032 C -15.822,3.032 -14.221,3.753 -12.874,4.598 C -11.502,5.458 -10.399,6.544 -9.419,7.754 C -9.598,8.022 -9.857,8.211 -10.09,8.425 C -11.775,6.865 -13.851,5.228 -16.651,4.821 z M 3.479,17.621 C 3.402,18.075 2.974,18.513 2.609,18.764 C 2.189,19.053 1.684,19.246 1.093,19.286 C -0.234,19.375 -1.773,19.286 -3.281,19.286 C -4.023,19.286 -4.761,19.286 -5.468,19.286 C -6.224,19.286 -6.999,19.352 -7.68,19.286 C -8.438,19.212 -9.078,18.81 -9.494,18.391 C -10.584,17.292 -10.67,15.259 -10.562,12.998 C -10.508,11.848 -10.587,10.929 -10.264,10.09 C -9.983,9.359 -9.408,8.707 -8.723,8.375 C -7.974,8.013 -6.921,7.943 -5.965,7.878 C -2.693,7.658 0.24,7.91 3.479,8.077 C 3.479,10.181 3.479,12.285 3.479,14.39 C 1.839,14.39 0.199,14.39 -1.441,14.39 C -1.441,13.661 -1.441,12.932 -1.441,12.203 C -1.188,12.174 -0.818,12.263 -0.646,12.153 C -0.654,11.879 -0.713,11.658 -0.845,11.507 C -1.277,11.016 -2.575,11.059 -3.504,11.059 C -4.511,11.06 -5.74,11.048 -6.089,11.681 C -6.296,12.056 -6.288,12.734 -6.288,13.296 C -6.288,13.834 -6.362,14.488 -6.213,14.986 C -6.068,15.474 -5.599,15.839 -5.12,16.005 C -4.124,16.349 -2.679,16.005 -1.417,16.129 C -1.389,16.024 -1.475,15.806 -1.367,15.781 C 0.249,15.781 1.864,15.781 3.479,15.781 C 3.403,16.381 3.581,17.025 3.479,17.621 z M -24.082,18.888 C -24.389,18.468 -24.256,17.323 -24.256,16.577 C -24.256,15.606 -24.256,14.831 -24.256,14.067 C -24.256,12.438 -24.474,10.536 -23.908,9.469 C -23.275,8.274 -22.114,8.052 -20.305,8.052 C -18.498,8.052 -16.816,8.068 -15.061,8.077 C -13.334,8.086 -12.333,8.893 -11.88,10.14 C -11.507,11.167 -11.631,12.983 -11.631,14.464 C -11.631,15.1 -11.631,15.933 -11.631,16.751 C -11.631,17.484 -11.538,18.462 -11.83,18.863 C -12.177,19.341 -12.978,19.286 -13.719,19.286 C -14.477,19.286 -15.303,19.355 -15.657,18.888 C -15.868,18.61 -15.856,17.967 -15.856,17.397 C -15.856,16.109 -15.856,15.189 -15.856,14.017 C -15.856,12.918 -15.799,11.902 -16.577,11.631 C -16.874,11.528 -17.542,11.581 -17.944,11.581 C -18.463,11.581 -18.973,11.501 -19.335,11.631 C -20.28,11.97 -20.056,13.501 -20.056,14.986 C -20.056,15.684 -20.056,16.33 -20.056,17.024 C -20.056,17.629 -19.991,18.512 -20.255,18.888 C -20.622,19.41 -22.331,19.31 -22.964,19.261 C -23.473,19.221 -23.89,19.152 -24.082,18.888 z M -34.794,19.211 C -34.794,15.5 -34.794,11.789 -34.794,8.077 C -31.629,8.077 -28.465,8.077 -25.3,8.077 C -25.316,9.222 -25.268,10.56 -25.325,11.581 C -27.073,11.581 -28.821,11.581 -30.569,11.581 C -30.569,14.149 -30.569,16.718 -30.569,19.286 C -31.969,19.286 -33.369,19.286 -34.769,19.286 C -34.798,19.281 -34.796,19.246 -34.794,19.211 z M -48.09,19.211 C -48.09,15.5 -48.09,11.789 -48.09,8.077 C -46.607,8.077 -45.124,8.077 -43.641,8.077 C -43.641,9.245 -43.641,10.413 -43.641,11.581 C -41.705,11.684 -39.703,11.443 -37.925,11.581 C -37.051,11.649 -36.307,12.08 -35.937,12.65 C -35.514,13.301 -35.49,14.285 -35.49,15.309 C -35.49,16.371 -35.442,17.359 -35.838,18.068 C -36.189,18.697 -36.9,19.201 -37.826,19.286 C -38.642,19.361 -39.535,19.286 -40.386,19.286 C -42.95,19.286 -45.561,19.286 -48.065,19.286 C -48.094,19.281 -48.092,19.246 -48.09,19.211"
   id="path3001" />

        </g>

        <g
   transform="translate(269.95,737.446)"
   id="g3003">
          <path
   style="fill:#231f20;fill-rule:evenodd;stroke:none"
   d="M 0,0 C -0.166,-0.309 -0.195,-1.113 0,-1.417 C 0.309,-1.898 1.773,-1.715 2.485,-1.715 C 3.273,-1.715 4.695,-1.883 4.995,-1.417 C 5.199,-1.1 5.145,-0.276 4.995,0 C 4.74,0.471 3.682,0.373 3.007,0.373 C 2.095,0.373 1.211,0.449 0.596,0.348 C 0.398,0.315 0.126,0.234 0,0 z M -4.299,3.181 C -1.796,3.181 0.815,3.181 3.38,3.181 C 4.23,3.181 5.124,3.256 5.94,3.181 C 6.865,3.096 7.576,2.593 7.928,1.963 C 8.324,1.254 8.276,0.266 8.276,-0.795 C 8.276,-1.82 8.251,-2.804 7.829,-3.455 C 7.459,-4.024 6.715,-4.455 5.84,-4.523 C 4.063,-4.661 2.061,-4.42 0.124,-4.523 C 0.124,-5.691 0.124,-6.859 0.124,-8.027 C -1.359,-8.027 -2.842,-8.027 -4.324,-8.027 C -4.324,-4.316 -4.324,-0.605 -4.324,3.107 C -4.327,3.142 -4.329,3.177 -4.299,3.181"
   id="path3005" />

        </g>

      </g>
      <g
         transform="matrix(1,0,0,-1,356.378,217.45868)"
         id="g3007">
        <path
   style="fill:#231f20;fill-rule:evenodd;stroke:none"
   d="M 0,0 C 1.4,0 2.8,0 4.2,0 C 4.2,-2.568 4.2,-5.136 4.2,-7.704 C 5.948,-7.704 7.696,-7.704 9.444,-7.704 C 9.501,-8.725 9.453,-10.064 9.469,-11.209 C 6.304,-11.209 3.14,-11.209 -0.025,-11.209 C -0.025,-7.497 -0.025,-3.786 -0.025,-0.075 C -0.027,-0.039 -0.029,-0.004 0,0"
   id="path3009" />

      </g>
      <g
         transform="matrix(1,0,0,-1,77.431,958.08568)"
         clip-path="url(#id96)"
         id="g3011">
        <g
   transform="translate(290.752,740.602)"
   id="g3013">
          <path
   style="fill:#231f20;fill-rule:evenodd;stroke:none"
   d="M 0,0 C 0.633,0.049 2.342,0.149 2.709,-0.373 C 2.973,-0.749 2.908,-1.631 2.908,-2.237 C 2.908,-2.931 2.908,-3.577 2.908,-4.275 C 2.908,-5.76 2.684,-7.29 3.628,-7.63 C 3.991,-7.76 4.501,-7.68 5.02,-7.68 C 5.422,-7.68 6.09,-7.733 6.387,-7.63 C 7.165,-7.359 7.108,-6.343 7.108,-5.244 C 7.108,-4.072 7.108,-3.151 7.108,-1.864 C 7.108,-1.294 7.096,-0.651 7.306,-0.373 C 7.661,0.094 8.486,0.025 9.245,0.025 C 9.986,0.025 10.787,0.08 11.134,-0.398 C 11.426,-0.798 11.333,-1.777 11.333,-2.51 C 11.333,-3.328 11.333,-4.161 11.333,-4.797 C 11.333,-6.278 11.457,-8.094 11.084,-9.121 C 10.631,-10.368 9.629,-11.174 7.903,-11.184 C 6.148,-11.193 4.465,-11.209 2.659,-11.209 C 0.85,-11.209 -0.312,-10.987 -0.944,-9.792 C -1.51,-8.724 -1.292,-6.823 -1.292,-5.194 C -1.292,-4.43 -1.292,-3.655 -1.292,-2.684 C -1.292,-1.938 -1.425,-0.793 -1.119,-0.373 C -0.926,-0.108 -0.509,-0.04 0,0"
   id="path3015" />

        </g>

        <g
   transform="translate(317.195,737.122)"
   id="g3017">
          <path
   style="fill:#231f20;fill-rule:evenodd;stroke:none"
   d="M 0,0 C -1.615,0 -3.231,0 -4.846,0 C -4.954,0.024 -4.868,0.243 -4.896,0.348 C -6.158,0.223 -7.604,0.568 -8.599,0.224 C -9.078,0.058 -9.547,-0.307 -9.692,-0.795 C -9.841,-1.293 -9.767,-1.948 -9.767,-2.485 C -9.767,-3.047 -9.775,-3.725 -9.568,-4.101 C -9.219,-4.733 -7.99,-4.722 -6.984,-4.722 C -6.054,-4.722 -4.756,-4.766 -4.324,-4.275 C -4.192,-4.124 -4.134,-3.902 -4.126,-3.628 C -4.297,-3.519 -4.668,-3.607 -4.921,-3.579 C -4.921,-2.85 -4.921,-2.121 -4.921,-1.392 C -3.28,-1.392 -1.64,-1.392 0,-1.392 C 0,-3.496 0,-5.6 0,-7.704 C -3.239,-7.871 -6.172,-8.124 -9.444,-7.903 C -10.4,-7.839 -11.453,-7.769 -12.203,-7.406 C -12.887,-7.075 -13.462,-6.422 -13.743,-5.691 C -14.066,-4.853 -13.987,-3.933 -14.042,-2.783 C -14.149,-0.522 -14.063,1.511 -12.973,2.61 C -12.557,3.029 -11.917,3.43 -11.159,3.504 C -10.478,3.571 -9.703,3.504 -8.947,3.504 C -8.241,3.504 -7.502,3.504 -6.76,3.504 C -5.252,3.504 -3.713,3.593 -2.386,3.504 C -1.796,3.465 -1.29,3.272 -0.87,2.982 C -0.506,2.731 -0.078,2.294 0,1.839 C 0.102,1.243 -0.076,0.6 0,0"
   id="path3019" />

        </g>

      </g>
      <g
         transform="matrix(1,0,0,-1,347.978,220.29268)"
         id="g3021">
        <path
   style="fill:#ffffff;fill-rule:evenodd;stroke:none"
   d="M 0,0 C 0.615,0.101 1.499,0.025 2.411,0.025 C 3.086,0.025 4.143,0.124 4.399,-0.348 C 4.549,-0.624 4.603,-1.447 4.399,-1.764 C 4.099,-2.231 2.677,-2.063 1.889,-2.063 C 1.177,-2.063 -0.287,-2.246 -0.596,-1.764 C -0.791,-1.461 -0.763,-0.657 -0.596,-0.348 C -0.47,-0.113 -0.198,-0.032 0,0"
   id="path3023" />

      </g>
      <g
         transform="matrix(1,0,0,-1,381.057,228.31968)"
         id="g3025">
        <path
   style="fill:#231f20;fill-rule:evenodd;stroke:none"
   d="M 0,0 C 0.233,-0.214 0.492,-0.403 0.671,-0.671 C -0.309,-1.881 -1.411,-2.967 -2.783,-3.827 C -4.13,-4.672 -5.732,-5.393 -7.828,-5.393 C -10.889,-5.393 -13.145,-3.978 -14.887,-2.535 C -15.183,-2.289 -15.476,-2.028 -15.756,-1.764 C -16.03,-1.508 -16.33,-1.255 -16.527,-0.944 C -16.106,-0.944 -15.651,-0.944 -15.16,-0.944 C -14.72,-0.944 -14.18,-0.851 -13.793,-0.944 C -13.579,-0.996 -13.302,-1.385 -13.122,-1.541 C -11.649,-2.82 -9.406,-4.016 -6.561,-3.604 C -3.76,-3.197 -1.685,-1.56 0,0"
   id="path3027" />

      </g>
      <g
         transform="matrix(1,0,0,-1,383.542,231.47568)"
         id="g3029">
        <path
   style="fill:#231f20;fill-rule:evenodd;stroke:none"
   d="M 0,0 C -0.206,-0.246 -0.228,-1.114 0.099,-1.342 C 0.347,-1.514 0.585,-1.366 0.944,-1.417 C 0.912,-0.886 1.01,-0.224 0.895,0.224 C 0.535,0.144 0.213,0.254 0,0 z M 2.535,1.417 C 2.535,-0.812 2.535,-3.04 2.535,-5.269 C 2.013,-5.269 1.491,-5.269 0.969,-5.269 C 0.912,-4.448 0.961,-3.521 0.944,-2.659 C -0.633,-2.242 0.109,-4.359 -0.224,-5.269 C -0.787,-5.269 -1.35,-5.269 -1.914,-5.269 C -1.942,-5.1 -1.806,-5.057 -1.765,-4.896 C -1.582,-4.187 -1.848,-2.854 -1.491,-2.336 C -1.345,-2.123 -1.131,-2.052 -0.87,-1.963 C -1.741,-1.741 -1.972,0.031 -1.392,0.82 C -0.712,1.745 0.972,1.315 2.535,1.417"
   id="path3031" />

      </g>
      <g
         transform="matrix(1,0,0,-1,386.599,230.08368)"
         id="g3033">
        <path
   style="fill:#231f20;fill-rule:evenodd;stroke:none"
   d="M 0,0 C 1.35,0 2.701,0 4.051,0 C 4.035,-0.44 4.083,-0.944 4.026,-1.342 C 3.612,-1.342 3.198,-1.342 2.784,-1.342 C 2.784,-3.115 2.784,-4.888 2.784,-6.661 C 2.253,-6.661 1.723,-6.661 1.193,-6.661 C 1.193,-4.888 1.193,-3.115 1.193,-1.342 C 0.795,-1.326 0.332,-1.374 -0.025,-1.317 C -0.008,-0.886 -0.058,-0.389 0,0"
   id="path3035" />

      </g>
      <g
         transform="matrix(1,0,0,-1,391.172,230.08368)"
         id="g3037">
        <path
   style="fill:#231f20;fill-rule:evenodd;stroke:none"
   d="M 0,0 C 0.522,0 1.044,0 1.566,0 C 1.566,-1.773 1.566,-3.546 1.566,-5.319 C 2.154,-5.376 2.85,-5.327 3.479,-5.343 C 3.479,-5.782 3.479,-6.221 3.479,-6.661 C 2.311,-6.661 1.143,-6.661 -0.025,-6.661 C 0.033,-4.507 -0.017,-2.113 0,0"
   id="path3039" />

      </g>
      <g
         transform="matrix(1,0,0,-1,384.437,231.25268)"
         id="g3041">
        <path
   style="fill:#ffffff;fill-rule:evenodd;stroke:none"
   d="M 0,0 C 0.115,-0.448 0.017,-1.11 0.05,-1.64 C -0.31,-1.59 -0.548,-1.738 -0.795,-1.566 C -1.123,-1.338 -1.101,-0.469 -0.895,-0.224 C -0.682,0.031 -0.36,-0.079 0,0"
   id="path3043" />

      </g>
    </g>
  </g>
</svg>
