<svg xmlns="http://www.w3.org/2000/svg" width="10" height="10" viewBox="0 0 10 10">
    <path fill="#FFF" fill-rule="evenodd" d="M2.005 4.323a8.343 8.343 0 0 0 3.672 3.672L6.901 6.77c.174-.174.365-.217.573-.13a6.218 6.218 0 0 0 1.98.312.53.53 0 0 1 .39.156A.53.53 0 0 1 10 7.5v1.953a.53.53 0 0 1-.156.39.53.53 0 0 1-.39.157c-2.605 0-4.832-.924-6.68-2.773C.923 5.377 0 3.15 0 .547a.53.53 0 0 1 .156-.39A.53.53 0 0 1 .546 0H2.5a.53.53 0 0 1 .39.156.53.53 0 0 1 .157.39c0 .695.104 1.355.312 1.98.07.226.026.417-.13.573L2.005 4.323z"/>
</svg>
