<svg xmlns="http://www.w3.org/2000/svg" width="422" height="354" viewBox="0 0 422 354">
    <path fill="#4A4E7E" fill-rule="evenodd" d="M106.026 118.075l7.66 68.824c.202 1.81 2.83 1.814 3.036.004l8.403-73.923 76.62-20.444v240.672l-76.525-14.513-8.498-74.767c-.206-1.81-2.834-1.807-3.036.004l-7.91 71.074-57.126-10.834-1.082-170.498 58.458-15.6zm91.63-44.667L43.01 114.674 22.777 79.487l147.388-57.688 27.491 51.609zm201.572 5.285l-20.592 35.811L224.018 73.25l27.827-52.24 147.383 57.684zM374.6 132.927l-.458 71.647-62.097 9.302c-1.726.26-1.74 2.743-.015 3.02L374 226.831l-.493 77.312-153.088 29.032V91.789l154.183 41.138zm46.871-62.053a9.302 9.302 0 0 0-5.393-5.584L250.92.647c-4.392-1.73-9.385.114-11.616 4.291l-28.509 53.519-28.09-52.729c-2.23-4.177-7.226-6.019-11.613-4.293L5.922 66.086A9.279 9.279 0 0 0 .53 71.668a9.294 9.294 0 0 0 .714 7.733l27.662 48.102 1.17 184.448c.028 4.44 3.213 8.265 7.575 9.09l171.673 32.56c.583.112 1.15.162 1.736.162.59 0 1.221-.072 1.909-.218l171.542-32.533a9.321 9.321 0 0 0 7.576-9.089l1.18-185.492 27.498-47.826a9.327 9.327 0 0 0 .708-7.73z"/>
</svg>
