<svg xmlns="http://www.w3.org/2000/svg" width="161" height="44" viewBox="0 0 161 44">
    <defs>
        <linearGradient id="a" x1="0%" y1="0%" y2="100%">
            <stop offset="0%" stop-color="#02DA94"/>
            <stop offset="100%" stop-color="#02DCB8"/>
        </linearGradient>
    </defs>
    <g fill="none" fill-rule="evenodd">
        <path fill="#FFF" d="M142.488 32.366c-1.87 2.5-5.21 3.634-8.488 3.634-5.036 0-10-2.565-10-8.484C124 21.5 128.929 19 134 19c3.413 0 6.671 1.129 8.496 3.593C144.338 20.099 147.638 19 151 19c5.177 0 10 2.598 10 8.516 0 5.92-5.071 8.484-10 8.484-3.348 0-6.665-1.134-8.512-3.634zM67.54 12v8.88c1.23-1.543 2.566-2.194 4.64-2.194 3.516 0 6.821 2.228 6.821 7.92V36h-6.434v-9.36c-.07-1.92-1.054-2.503-2.355-2.503-1.266 0-2.672.926-2.707 2.914V36H61V12h6.54zm20.83 7v9.171c0 2.05 1.212 2.755 2.389 2.755 1.523 0 2.942-.907 2.942-3.09V19h6.3v16.595h-5.642l-.277-1.813c-1.454 1.646-3.6 2.25-5.4 2.217-3.6-.034-6.681-1.882-6.681-7.794V19h6.37zm21.19 1.391c.963-1.117 2.639-1.793 4.885-1.793 5.133 0 8.556 3.62 8.556 8.73 0 5.277-2.888 8.356-8.057 8.66-1.96.102-4.314-.473-5.811-2.097l-.285 1.793H103V12h6.56v8.391zM109 27.677c0 1.678 1.308 3.323 3.5 3.323 1.945 0 3.5-1.258 3.5-3.484S114.445 24 112.5 24c-2.298 0-3.5 1.742-3.5 3.677zm28-.16c0-1.856-1.27-3.517-3.5-3.517s-3.5 1.66-3.5 3.516S131.27 31 133.5 31c2.127 0 3.5-1.53 3.5-3.484zm18 0c0-1.856-1.27-3.517-3.5-3.517s-3.5 1.66-3.5 3.516S149.27 31 151.5 31c2.127 0 3.5-1.53 3.5-3.484z"/>
        <path fill="url(#a)" d="M1 9l4 7.5V38l20.5 4.5 21-4.5V15l4-6L30 2l-4.25 7-5.25-7z"/>
        <path fill="#4A4E7E" d="M20.5 1l5 9v32.5L4.5 38V15L1 8.5z"/>
        <path fill="#FFF" d="M13.065 14.55l.944 8.48c.025.223.348.224.374 0l1.035-9.108 9.442-2.52V41.06l-9.43-1.788-1.047-9.214c-.026-.223-.35-.222-.374 0l-.975 8.759-7.04-1.335-.132-21.01 7.203-1.922zm11.29-5.504L5.3 14.13 2.807 9.795l18.161-7.109 3.388 6.36zm24.839.65l-2.537 4.414-19.053-5.084 3.43-6.437 18.16 7.108zm-3.035 6.684l-.056 8.828-7.652 1.146c-.213.032-.214.338-.002.372l7.636 1.225-.06 9.526-18.864 3.578V11.31l18.998 5.07zm5.776-7.647a1.146 1.146 0 0 0-.665-.688L30.92.08a1.147 1.147 0 0 0-1.432.528l-3.513 6.595L22.513.706a1.147 1.147 0 0 0-1.43-.53L.73 8.144a1.145 1.145 0 0 0-.577 1.64l3.409 5.928.144 22.728a1.15 1.15 0 0 0 .933 1.12l21.154 4.013a1.12 1.12 0 0 0 .45-.007l21.137-4.009c.538-.102.93-.573.934-1.12l.145-22.857 3.389-5.893a1.15 1.15 0 0 0 .087-.953z"/>
    </g>
</svg>
