<svg xmlns="http://www.w3.org/2000/svg" width="57" height="67" viewBox="0 0 57 67">
    <defs>
        <linearGradient id="a" x1="0%" y1="0%" y2="100%">
            <stop offset="0%" stop-color="#02DA94"/>
            <stop offset="100%" stop-color="#02DCB8"/>
        </linearGradient>
    </defs>
    <g fill="none" fill-rule="evenodd">
        <path fill="url(#a)" d="M1 9l4 7.5V38l20.5 4.5 21-4.5V15l4-6L30 2l-4.25 7-5.25-7z" transform="translate(2)"/>
        <path fill="#4A4E7E" d="M22.5 1l5 9v32.5L6.5 38V15L3 8.5z"/>
        <path fill="#FFF" d="M15.065 14.55l.944 8.48c.025.223.348.224.374 0l1.035-9.108 9.442-2.52V41.06l-9.43-1.788-1.047-9.214c-.026-.223-.35-.222-.374 0l-.975 8.759-7.04-1.335-.132-21.01 7.203-1.922zm11.29-5.504L7.3 14.13 4.807 9.795l18.161-7.109 3.388 6.36zm24.839.65l-2.537 4.414-19.053-5.084 3.43-6.437 18.16 7.108zm-3.035 6.684l-.056 8.828-7.652 1.146c-.213.032-.214.338-.002.372l7.636 1.225-.06 9.526-18.864 3.578V11.31l18.998 5.07zm5.776-7.647a1.146 1.146 0 0 0-.665-.688L32.92.08a1.147 1.147 0 0 0-1.432.528l-3.513 6.595L24.513.706a1.147 1.147 0 0 0-1.43-.53L2.73 8.144a1.145 1.145 0 0 0-.577 1.64l3.409 5.928.144 22.728a1.15 1.15 0 0 0 .933 1.12l21.154 4.013a1.12 1.12 0 0 0 .45-.007l21.137-4.009c.538-.102.93-.573.934-1.12l.145-22.857 3.389-5.893a1.15 1.15 0 0 0 .087-.953z"/>
        <g fill="#FFF">
            <path d="M46.448 64.88C45.382 66.34 43.478 67 41.61 67c-2.87 0-5.7-1.496-5.7-4.949 0-3.51 2.81-4.968 5.7-4.968 1.945 0 3.803.659 4.843 2.096 1.05-1.455 2.93-2.096 4.847-2.096 2.951 0 5.7 1.516 5.7 4.968C57 65.504 54.11 67 51.3 67c-1.908 0-3.8-.661-4.852-2.12zM3.728 53v5.18c.7-.9 1.462-1.28 2.644-1.28 2.004 0 3.888 1.3 3.888 4.62V67H6.593v-5.46c-.04-1.12-.601-1.46-1.343-1.46-.721 0-1.523.54-1.543 1.7V67H0V53h3.727zM15.6 57.083v5.35c0 1.196.691 1.607 1.362 1.607.868 0 1.677-.529 1.677-1.803v-5.154h3.591v9.681h-3.216l-.158-1.058c-.829.96-2.052 1.313-3.078 1.293-2.052-.02-3.808-1.097-3.808-4.546v-5.37h3.63zm12.079.812c.549-.652 1.504-1.046 2.784-1.046 2.926 0 4.877 2.112 4.877 5.092 0 3.079-1.646 4.875-4.593 5.052-1.117.06-2.458-.276-3.312-1.223l-.162 1.046H23.94V53h3.739v4.895zm-.319 4.25c0 .979.746 1.938 1.995 1.938 1.108 0 1.995-.734 1.995-2.032S30.463 60 29.355 60c-1.31 0-1.995 1.016-1.995 2.145zm15.96-.094c0-1.082-.724-2.051-1.995-2.051-1.271 0-1.995.969-1.995 2.051 0 1.083.724 2.032 1.995 2.032 1.213 0 1.995-.892 1.995-2.032zm10.26 0c0-1.082-.724-2.051-1.995-2.051-1.271 0-1.995.969-1.995 2.051 0 1.083.724 2.032 1.995 2.032 1.213 0 1.995-.892 1.995-2.032z"/>
        </g>
    </g>
</svg>
