<svg xmlns="http://www.w3.org/2000/svg" xmlns:xlink="http://www.w3.org/1999/xlink" width="72" height="69" viewBox="0 0 72 69">
  <defs>
    <polygon id="banner-a" points="0 76 80 76 80 0 0 0"/>
  </defs>
  <g fill="none" fill-rule="evenodd" transform="translate(-8 1)">
    <path fill="#FFF" d="M34.8080295,37 C34.3047815,32.5923441 32.6300112,28.3605998 29.7183619,25.0248542 C27.0436314,21.9603743 25.5845389,17.7976795 26.1041261,13.2913815 C26.8965784,6.40780993 32.4372084,0.860838232 39.2800745,0.0963622875 C48.3336372,-0.916362835 56,6.18750933 56,15.091599 C56,18.9008265 54.5915591,22.376315 52.2762914,25.0297863 C49.3646421,28.3638879 47.6898719,32.5939881 47.1898917,37 L34.8080295,37 Z"/>
    <path stroke="#231F20" stroke-linejoin="round" stroke-width=".556" d="M34.8080295,37 L47.1898917,37 C47.6898719,32.5939881 49.3646421,28.3638879 52.2762914,25.0297863 C54.5915591,22.376315 56,18.9008265 56,15.091599 C56,6.18750933 48.3336372,-0.916362835 39.2800745,0.0963622875 C32.4372084,0.860838232 26.8965784,6.40780993 26.1041261,13.2913815 C25.5845389,17.7976795 27.0436314,21.9603743 29.7183619,25.0248542 C32.6300112,28.3605998 34.3047815,32.5923441 34.8080295,37 Z"/>
    <polygon fill="#FFF" points="49 38 39.701 38 34 38 34 46 49 46"/>
    <polygon stroke="#231F20" stroke-linejoin="round" stroke-width=".556" points="49 38 39.701 38 34 38 34 46 49 46"/>
    <g transform="translate(31 40)">
      <path fill="#FFF" d="M0.0143451355,0.827475 L20.1919092,0.827475"/>
      <path stroke="#231F20" stroke-linejoin="round" stroke-width=".556" d="M0.0143451355,0.827475 L20.1919092,0.827475"/>
    </g>
    <g transform="translate(31 43)">
      <path fill="#FFF" d="M0.0143451355,0.149295652 L20.1919092,0.149295652"/>
      <path stroke="#231F20" stroke-linejoin="round" stroke-width=".556" d="M0.0143451355,0.149295652 L20.1919092,0.149295652"/>
    </g>
    <mask id="banner-b" fill="#fff">
      <use xlink:href="#banner-a"/>
    </mask>
    <polygon fill="#FFF" points="38 49 45 49 45 46 38 46" mask="url(#banner-b)"/>
    <polygon stroke="#231F20" stroke-linejoin="round" stroke-width=".556" points="38 49 45 49 45 46 38 46" mask="url(#banner-b)"/>
    <polygon fill="#FFF" points="9 67 18 67 18 10 9 10" mask="url(#banner-b)"/>
    <polygon stroke="#231F20" stroke-width=".556" points="9 67 18 67 18 10 9 10" mask="url(#banner-b)"/>
    <polygon fill="#30C0D8" points="10 66 17 66 17 11 10 11" mask="url(#banner-b)"/>
    <polygon stroke="#020202" stroke-width=".556" points="10 66 17 66 17 11 10 11" mask="url(#banner-b)"/>
    <path stroke="#231F20" stroke-width=".556" d="M9 14L12 14M9 18L12 18M9 22L12 22M9 25L12 25M9 29L12 29M9 33L12 33M9 37L12 37M9 41L12 41M9 44L12 44M9 48L12 48M9 52L12 52M9 56L12 56M9 60L12 60M9 63L12 63" mask="url(#banner-b)"/>
    <path fill="#30C0D8" d="M76.1815041,58 L39,58 L39,64 L76.1815041,64 C77.7380863,64 79,62.6558442 79,61 C79,59.3441558 77.7380863,58 76.1815041,58" mask="url(#banner-b)"/>
    <path stroke="#020202" stroke-width=".556" d="M76.1815041,58 L39,58 L39,64 L76.1815041,64 C77.7380863,64 79,62.6558442 79,61 C79,59.3441558 77.7380863,58 76.1815041,58 Z" mask="url(#banner-b)"/>
    <path stroke="#231F20" stroke-width=".556" d="M71,64 L77.0590278,64 C78.6822917,64 80,62.6558442 80,61.001771 C80,59.3441558 78.6822917,58 77.0590278,58 L71,58 L71,64 Z" mask="url(#banner-b)"/>
    <polygon stroke="#231F20" stroke-linejoin="round" stroke-width=".556" points="40 64 33 61.002 40 58" mask="url(#banner-b)"/>
    <path stroke="#231F20" stroke-linejoin="round" stroke-width=".556" d="M39,61 L70,61" mask="url(#banner-b)"/>
    <path stroke="#231F20" stroke-linecap="round" stroke-width=".556" d="M63.958 47L63 47.958M60.956 49L60 49.958M63.958 49.958L63 49M60.956 47.958L60 47" mask="url(#banner-b)"/>
    <path fill="#07DDDD" d="M70 13.5008069C70 14.3286713 69.3270576 15 68.4991931 15 67.6713287 15 67 14.3286713 67 13.5008069 67 12.6713287 67.6713287 12 68.4991931 12 69.3270576 12 70 12.6713287 70 13.5008069M27 55.4991931C27 56.3286713 26.32831 57 25.5 57 24.67169 57 24 56.3286713 24 55.4991931 24 54.6713287 24.67169 54 25.5 54 26.32831 54 27 54.6713287 27 55.4991931M19 1.49919311C19 2.32867133 18.32831 3 17.4983854 3 16.67169 3 16 2.32867133 16 1.49919311 16 .671328671 16.67169 0 17.4983854 0 18.32831 0 19 .671328671 19 1.49919311" mask="url(#banner-b)"/>
    <g mask="url(#banner-b)">
      <g transform="translate(35 15)">
        <path fill="#FFF" d="M5.36815576,22.5914278 C6.01000047,22.4472056 6.19019751,5.72562222 4.0089552,2.03156667 C4.0089552,2.03156667 3.15945484,-0.1416 1.45702182,0.509038889 C-0.187061694,1.13673333 0.183629369,3.20009444 0.183629369,3.20009444 C0.183629369,3.20009444 0.290031433,4.6669 1.56170772,5.52895556 C2.833384,6.38937222 6.22795308,6.2894 6.22795308,6.2894 L7.39494347,6.2894"/>
        <path stroke="#231F20" stroke-linejoin="round" stroke-width=".278" d="M5.36815576,22.5914278 C6.01000047,22.4472056 6.19019751,5.72562222 4.0089552,2.03156667 C4.0089552,2.03156667 3.15945484,-0.1416 1.45702182,0.509038889 C-0.187061694,1.13673333 0.183629369,3.20009444 0.183629369,3.20009444 C0.183629369,3.20009444 0.290031433,4.6669 1.56170772,5.52895556 C2.833384,6.38937222 6.22795308,6.2894 6.22795308,6.2894 L7.39494347,6.2894"/>
      </g>
    </g>
    <g mask="url(#banner-b)">
      <g transform="translate(40 15)">
        <path fill="#FFF" d="M3.04533005,22.5914278 C3.04533005,22.5914278 1.9178114,5.72562222 4.09905372,2.03156667 C4.09905372,2.03156667 4.9107985,-0.0367111111 6.65441942,0.509038889 C8.13203519,0.972844444 7.92609571,3.20009444 7.92609571,3.20009444 C7.92609571,3.20009444 7.93639268,4.54070556 6.5463012,5.52895556 C5.29693502,6.41887222 1.88005583,6.2894 1.88005583,6.2894 L0.714781609,6.2894"/>
        <path stroke="#231F20" stroke-linejoin="round" stroke-width=".278" d="M3.04533005,22.5914278 C3.04533005,22.5914278 1.9178114,5.72562222 4.09905372,2.03156667 C4.09905372,2.03156667 4.9107985,-0.0367111111 6.65441942,0.509038889 C8.13203519,0.972844444 7.92609571,3.20009444 7.92609571,3.20009444 C7.92609571,3.20009444 7.93639268,4.54070556 6.5463012,5.52895556 C5.29693502,6.41887222 1.88005583,6.2894 1.88005583,6.2894 L0.714781609,6.2894"/>
      </g>
    </g>
  </g>
</svg>
