<?xml version="1.0" encoding="UTF-8"?>
<svg width="76px" height="71px" viewBox="0 0 76 71" version="1.1" xmlns="http://www.w3.org/2000/svg" xmlns:xlink="http://www.w3.org/1999/xlink">
    <!-- Generator: Sketch 46.2 (44496) - http://www.bohemiancoding.com/sketch -->
    <title>Group 15</title>
    <desc>Created with Sketch.</desc>
    <defs>
        <rect id="path-1" x="7" y="27" width="9.92592593" height="9.89795918" rx="4.94897959"></rect>
        <rect id="path-2" x="7" y="37" width="9.92592593" height="9.89795918" rx="4.94897959"></rect>
        <rect id="path-3" x="7" y="16" width="9.92592593" height="9.89795918" rx="4.94897959"></rect>
        <rect id="path-4" x="18" y="27" width="9.92592593" height="9.89795918" rx="4.94897959"></rect>
        <rect id="path-5" x="18" y="37" width="9.92592593" height="9.89795918" rx="4.94897959"></rect>
        <rect id="path-6" x="18" y="16" width="9.92592593" height="9.89795918" rx="4.94897959"></rect>
        <rect id="path-7" x="30" y="27" width="9.92592593" height="9.89795918" rx="4.94897959"></rect>
        <rect id="path-8" x="30" y="37" width="9.92592593" height="9.89795918" rx="4.94897959"></rect>
        <rect id="path-9" x="30" y="16" width="9.92592593" height="9.89795918" rx="4.94897959"></rect>
    </defs>
    <g id="Service-1---Roof-&amp;-Facade" stroke="none" stroke-width="1" fill="none" fill-rule="evenodd">
        <g id="Group-15" transform="translate(1.000000, 1.000000)">
            <polygon id="Stroke-30" stroke="#000000" stroke-width="1.118403" points="0 8.42309899 73.8878908 8.42309899 73.8878908 0 0 0"></polygon>
            <polyline id="Stroke-32" stroke="#000000" stroke-width="1.118403" points="39.0258331 52.7039398 0 52.7039398 0 8 73.8398052 8 73.8398052 52.7039398 66.233538 52.7039398"></polyline>
            <path d="M44.4195194,38.5224033 C44.187367,38.5224033 44,38.2984137 44,38.0208852 L44,34.5026107 C44,34.2250822 44.187367,34 44.4195194,34 L55.2593883,34 C55.4915406,34 55.6798216,34.2250822 55.6798216,34.5026107 L55.6798216,38.0208852 C55.6798216,38.2984137 55.4915406,38.5224033 55.2593883,38.5224033 L44.4195194,38.5224033 Z" id="Fill-33" fill="#07DCDC"></path>
            <g id="Rectangle-6">
                <use fill="#2ABFBF" fill-rule="evenodd" xlink:href="#path-1"></use>
                <rect stroke="#000000" stroke-width="0.55" x="7.275" y="27.275" width="9.37592593" height="9.34795918" rx="4.67397959"></rect>
            </g>
            <g id="Rectangle-6-Copy-6">
                <use fill="#FFFFFF" fill-rule="evenodd" xlink:href="#path-2"></use>
                <rect stroke="#000000" stroke-width="0.55" x="7.275" y="37.275" width="9.37592593" height="9.34795918" rx="4.67397959"></rect>
            </g>
            <g id="Rectangle-6-Copy-3">
                <use fill="#417505" fill-rule="evenodd" xlink:href="#path-3"></use>
                <rect stroke="#000000" stroke-width="0.55" x="7.275" y="16.275" width="9.37592593" height="9.34795918" rx="4.67397959"></rect>
            </g>
            <g id="Rectangle-6-Copy">
                <use fill="#000000" fill-rule="evenodd" xlink:href="#path-4"></use>
                <rect stroke="#000000" stroke-width="0.55" x="18.275" y="27.275" width="9.37592593" height="9.34795918" rx="4.67397959"></rect>
            </g>
            <g id="Rectangle-6-Copy-7">
                <use fill="#701520" fill-rule="evenodd" xlink:href="#path-5"></use>
                <rect stroke="#000000" stroke-width="0.55" x="18.275" y="37.275" width="9.37592593" height="9.34795918" rx="4.67397959"></rect>
            </g>
            <g id="Rectangle-6-Copy-4">
                <use fill="#F5A623" fill-rule="evenodd" xlink:href="#path-6"></use>
                <rect stroke="#000000" stroke-width="0.55" x="18.275" y="16.275" width="9.37592593" height="9.34795918" rx="4.67397959"></rect>
            </g>
            <g id="Rectangle-6-Copy-2">
                <use fill="#9013FE" fill-rule="evenodd" xlink:href="#path-7"></use>
                <rect stroke="#000000" stroke-width="0.55" x="30.275" y="27.275" width="9.37592593" height="9.34795918" rx="4.67397959"></rect>
            </g>
            <g id="Rectangle-6-Copy-8">
                <use fill="#7ED321" fill-rule="evenodd" xlink:href="#path-8"></use>
                <rect stroke="#000000" stroke-width="0.55" x="30.275" y="37.275" width="9.37592593" height="9.34795918" rx="4.67397959"></rect>
            </g>
            <g id="Rectangle-6-Copy-5">
                <use fill="#D0021B" fill-rule="evenodd" xlink:href="#path-9"></use>
                <rect stroke="#000000" stroke-width="0.55" x="30.275" y="16.275" width="9.37592593" height="9.34795918" rx="4.67397959"></rect>
            </g>
            <path d="M55.2593883,38.5224033 L44.4195194,38.5224033 C44.187367,38.5224033 44,38.2984137 44,38.0208852 L44,34.5026107 C44,34.2250822 44.187367,34 44.4195194,34 L55.2593883,34 C55.4915406,34 55.6798216,34.2250822 55.6798216,34.5026107 L55.6798216,38.0208852 C55.6798216,38.2984137 55.4915406,38.5224033 55.2593883,38.5224033 Z" id="Stroke-34" stroke="#282828" stroke-width="0.677358"></path>
            <path d="M63.3236723,64.9498939 C63.4340506,64.8395381 63.4340506,64.6603465 63.3236723,64.5510833 L56.6627243,57.8903995 C56.5173747,57.7461721 56.5698317,57.5014226 56.7610812,57.4271236 L62.312782,55.3052325 C62.5597671,55.2101736 62.5532099,54.8594387 62.3029463,54.7742135 L42.3725593,48.0151928 C42.1518027,47.9408938 41.9408818,48.1517718 42.0151959,48.3724834 L48.7745008,68.2988106 C48.8608363,68.5490233 49.2116426,68.5566717 49.305628,68.3097369 L51.43123,62.7580744 C51.5044512,62.5668639 51.7492506,62.5144175 51.8935074,62.6586449 L58.5544554,69.3182361 C58.6637409,69.4285919 58.8418762,69.4285919 58.9522545,69.3182361 L63.3236723,64.9498939 Z" id="Fill-35" fill="#30BFD7"></path>
            <path d="M58.9522545,69.3182361 L63.3236723,64.9498939 C63.4340506,64.8395381 63.4340506,64.6603465 63.3236723,64.5510833 L56.6627243,57.8903995 C56.5173747,57.7461721 56.5698317,57.5014226 56.7610812,57.4271236 L62.312782,55.3052325 C62.5597671,55.2101736 62.5532099,54.8594387 62.3029463,54.7742135 L42.3725593,48.0151928 C42.1518027,47.9408938 41.9408818,48.1517718 42.0151959,48.3724834 L48.7745008,68.2988106 C48.8608363,68.5490233 49.2116426,68.5566717 49.305628,68.3097369 L51.43123,62.7580744 C51.5044512,62.5668639 51.7492506,62.5144175 51.8935074,62.6586449 L58.5544554,69.3182361 C58.6637409,69.4285919 58.8418762,69.4285919 58.9522545,69.3182361 Z" id="Stroke-36" stroke="#020202" stroke-width="1.017126"></path>
            <path d="M44,28 L61.3017469,28.0906884" id="Stroke-37" stroke="#000000" stroke-width="0.745965" stroke-linecap="round"></path>
            <path d="M44,25 L64.3517167,25" id="Stroke-38" stroke="#000000" stroke-width="0.745965" stroke-linecap="round"></path>
            <path d="M44,18 L65.4064561,18" id="Stroke-39" stroke="#07DCDC" stroke-width="2.236806"></path>
            <path d="M6.50482245,5.99162603 L4.1825067,5.99162603 C4.08087123,5.99162603 4,5.90967864 4,5.80915651 L4,3.18246952 C4,3.08085476 4.08087123,3 4.1825067,3 L6.50482245,3 C6.60536506,3 6.68732914,3.08085476 6.68732914,3.18246952 L6.68732914,5.80915651 C6.68732914,5.90967864 6.60536506,5.99162603 6.50482245,5.99162603 Z" id="Stroke-40" stroke="#000000" stroke-width="0.745965"></path>
            <path d="M11.5048224,5.99162603 L9.18359955,5.99162603 C9.08196409,5.99162603 9,5.90967864 9,5.80915651 L9,3.18246952 C9,3.08085476 9.08196409,3 9.18359955,3 L11.5048224,3 C11.6064579,3 11.688422,3.08085476 11.688422,3.18246952 L11.688422,5.80915651 C11.688422,5.90967864 11.6064579,5.99162603 11.5048224,5.99162603 Z" id="Stroke-41" stroke="#000000" stroke-width="0.745965"></path>
            <path d="M15.5048224,5.99162603 L13.1825067,5.99162603 C13.0819641,5.99162603 13,5.90967864 13,5.80915651 L13,3.18246952 C13,3.08085476 13.0819641,3 13.1825067,3 L15.5048224,3 C15.6064579,3 15.6873291,3.08085476 15.6873291,3.18246952 L15.6873291,5.80915651 C15.6873291,5.90967864 15.6064579,5.99162603 15.5048224,5.99162603 Z" id="Stroke-42" stroke="#000000" stroke-width="0.745965"></path>
        </g>
    </g>
</svg>