<?xml version="1.0" encoding="UTF-8"?>
<svg width="86px" height="75px" viewBox="0 0 86 75" version="1.1" xmlns="http://www.w3.org/2000/svg" xmlns:xlink="http://www.w3.org/1999/xlink">
    <!-- Generator: Sketch 46.2 (44496) - http://www.bohemiancoding.com/sketch -->
    <title>Group 17</title>
    <desc>Created with Sketch.</desc>
    <defs></defs>
    <g id="Service-1---Roof-&amp;-Facade" stroke="none" stroke-width="1" fill="none" fill-rule="evenodd">
        <g id="Group-17" transform="translate(1.000000, 1.000000)">
            <polygon id="Fill-1" fill="#CED5E0" points="53.0595 66.376 30.7915 66.376 32.7885 69.808 51.0635 69.808"></polygon>
            <polygon id="Stroke-2" stroke="#231F20" stroke-width="0.672" points="10.414 60.7047 73.437 60.7047 73.437 26.2477 10.414 26.2477"></polygon>
            <path d="M79.7949,73.1729 L4.0569,73.1729 C1.8659,73.1729 0.0909,71.3979 0.0909,69.2069 L0.0909,66.2729 L83.7609,66.2729 L83.7609,69.2069 C83.7609,71.3979 81.9849,73.1729 79.7949,73.1729 Z" id="Stroke-13" stroke="#231F20" stroke-width="1.005" stroke-linecap="round" stroke-linejoin="round"></path>
            <path d="M77.4902,66.2725 L6.3612,66.2725 L6.3612,23.6355 C6.3612,22.0035 7.6842,20.6805 9.3162,20.6805 L74.5352,20.6805 C76.1672,20.6805 77.4902,22.0035 77.4902,23.6355 L77.4902,66.2725 Z" id="Stroke-15" stroke="#231F20" stroke-width="1.005" stroke-linecap="round" stroke-linejoin="round"></path>
            <path d="M45.9111,20.6807 C45.9111,27.0617 51.0831,32.2347 57.4641,32.2347 C63.8451,32.2347 69.0171,27.0617 69.0171,20.6807 C69.0171,14.2997 63.8451,9.1267 57.4641,9.1267 C51.0831,9.1267 45.9111,14.2997 45.9111,20.6807" id="Fill-17" fill="#FFFFFF"></path>
            <path d="M45.9111,20.6807 C45.9111,27.0617 51.0831,32.2347 57.4641,32.2347 C63.8451,32.2347 69.0171,27.0617 69.0171,20.6807 C69.0171,14.2997 63.8451,9.1267 57.4641,9.1267 C51.0831,9.1267 45.9111,14.2997 45.9111,20.6807 Z" id="Stroke-19" stroke="#231F20" stroke-width="1.005"></path>
            <path d="M47.5,20.6807 C47.5,26.1837 51.961,30.6447 57.464,30.6447 C62.967,30.6447 67.429,26.1837 67.429,20.6807 C67.429,15.1777 62.967,10.7167 57.464,10.7167 C51.961,10.7167 47.5,15.1777 47.5,20.6807" id="Fill-21" fill="#07DDDD"></path>
            <path d="M53.0381,13.0147 L53.5651,13.9277" id="Stroke-23" stroke="#231F20" stroke-width="1.005"></path>
            <path d="M61.3623,27.4327 L61.8893,28.3467" id="Stroke-25" stroke="#231F20" stroke-width="1.005"></path>
            <path d="M49.7988,16.2549 L50.7118,16.7819" id="Stroke-27" stroke="#231F20" stroke-width="1.005"></path>
            <path d="M64.2168,24.5792 L65.1298,25.1062" id="Stroke-29" stroke="#231F20" stroke-width="1.005"></path>
            <path d="M48.6123,20.6807 L49.6673,20.6807" id="Stroke-31" stroke="#231F20" stroke-width="1.005"></path>
            <path d="M65.2607,20.6807 L66.3157,20.6807" id="Stroke-33" stroke="#231F20" stroke-width="1.005"></path>
            <path d="M49.7988,25.1065 L50.7118,24.5795" id="Stroke-35" stroke="#231F20" stroke-width="1.005"></path>
            <path d="M64.2168,16.7823 L65.1298,16.2553" id="Stroke-37" stroke="#231F20" stroke-width="1.005"></path>
            <path d="M53.0381,28.3467 L53.5651,27.4327" id="Stroke-39" stroke="#231F20" stroke-width="1.005"></path>
            <path d="M61.3623,13.9278 L61.8893,13.0148" id="Stroke-41" stroke="#231F20" stroke-width="1.005"></path>
            <polyline id="Stroke-43" stroke="#231F20" stroke-width="1.005" points="61.6259 20.6807 57.4639 20.6807 57.4639 15.1497"></polyline>
            <path d="M57.4638,11.8292 L57.4638,12.8842" id="Stroke-45" stroke="#231F20" stroke-width="1.005"></path>
            <path d="M57.4638,28.4776 L57.4638,29.5326" id="Stroke-47" stroke="#231F20" stroke-width="1.005"></path>
            <path d="M32.8457,57.6739 L3.2767,57.6739 C1.6347,57.6739 0.3047,56.3439 0.3047,54.7029 L0.3047,3.3079 C0.3047,1.6659 1.6347,0.3359 3.2767,0.3359 L32.8457,0.3359 C34.4877,0.3359 35.8177,1.6659 35.8177,3.3079 L35.8177,54.7029 C35.8177,56.3439 34.4877,57.6739 32.8457,57.6739" id="Fill-51" fill="#E6E9EE"></path>
            <path d="M32.8457,57.6739 L3.2767,57.6739 C1.6347,57.6739 0.3047,56.3439 0.3047,54.7029 L0.3047,3.3079 C0.3047,1.6659 1.6347,0.3359 3.2767,0.3359 L32.8457,0.3359 C34.4877,0.3359 35.8177,1.6659 35.8177,3.3079 L35.8177,54.7029 C35.8177,56.3439 34.4877,57.6739 32.8457,57.6739 Z" id="Stroke-53" stroke="#231F20" stroke-width="0.672"></path>
            <polygon id="Fill-55" fill="#FFFFFF" points="0.304 50.5467 35.817 50.5467 35.817 7.4637 0.304 7.4637"></polygon>
            <polygon id="Stroke-57" stroke="#231F20" stroke-width="0.672" points="0.304 50.5467 35.817 50.5467 35.817 7.4637 0.304 7.4637"></polygon>
            <path d="M6.5166,3.8663 C6.5166,4.6353 5.8936,5.2583 5.1236,5.2583 C4.3556,5.2583 3.7326,4.6353 3.7326,3.8663 C3.7326,3.0963 4.3556,2.4733 5.1236,2.4733 C5.8936,2.4733 6.5166,3.0963 6.5166,3.8663" id="Fill-58" fill="#FFFFFF"></path>
            <path d="M6.5166,3.8663 C6.5166,4.6353 5.8936,5.2583 5.1236,5.2583 C4.3556,5.2583 3.7326,4.6353 3.7326,3.8663 C3.7326,3.0963 4.3556,2.4733 5.1236,2.4733 C5.8936,2.4733 6.5166,3.0963 6.5166,3.8663 Z" id="Stroke-59" stroke="#231F20" stroke-width="0.672"></path>
            <g id="Group-62" transform="translate(15.000000, 3.675700)">
                <path d="M0.5049,0.3751 L1.1629,0.3751" id="Fill-60" fill="#E6E9EE"></path>
                <path d="M0.5049,0.3751 L1.1629,0.3751" id="Stroke-61" stroke="#231F20" stroke-width="0.672" stroke-linecap="round"></path>
            </g>
            <g id="Group-65" transform="translate(17.000000, 3.675700)">
                <path d="M0.7353,0.3751 L5.7153,0.3751" id="Fill-63" fill="#E6E9EE"></path>
                <path d="M0.7353,0.3751 L5.7153,0.3751" id="Stroke-64" stroke="#231F20" stroke-width="0.672" stroke-linecap="round"></path>
            </g>
            <g id="Group-68" transform="translate(13.000000, 3.675700)">
                <path d="M0.4062,0.3751 L1.0642,0.3751" id="Fill-66" fill="#E6E9EE"></path>
                <path d="M0.4062,0.3751 L1.0642,0.3751" id="Stroke-67" stroke="#231F20" stroke-width="0.672" stroke-linecap="round"></path>
            </g>
            <path d="M21.0322,55.5635 L15.0902,55.5635 C13.9882,55.5635 13.0952,54.6705 13.0952,53.5705 C13.0952,53.0715 13.5002,52.6665 13.9992,52.6665 L22.1232,52.6665 C22.6222,52.6665 23.0262,53.0715 23.0262,53.5705 C23.0262,54.6705 22.1342,55.5635 21.0322,55.5635" id="Fill-69" fill="#FFFFFF"></path>
            <path d="M21.0322,55.5635 L15.0902,55.5635 C13.9882,55.5635 13.0952,54.6705 13.0952,53.5705 C13.0952,53.0715 13.5002,52.6665 13.9992,52.6665 L22.1232,52.6665 C22.6222,52.6665 23.0262,53.0715 23.0262,53.5705 C23.0262,54.6705 22.1342,55.5635 21.0322,55.5635 Z" id="Stroke-70" stroke="#231F20" stroke-width="0.672" stroke-linecap="round"></path>
            <path d="M3.1191,47.9444 C3.1191,48.5794 2.6041,49.0934 1.9701,49.0934 C1.3341,49.0934 0.8191,48.5794 0.8191,47.9444 C0.8191,47.3084 1.3341,46.7944 1.9701,46.7944 C2.6041,46.7944 3.1191,47.3084 3.1191,47.9444" id="Fill-71" fill="#FFFFFF"></path>
            <polygon id="Fill-76" fill="#FFFFFF" points="10.741 40.5667 32.202 40.5667 32.202 27.8027 10.741 27.8027"></polygon>
            <polygon id="Stroke-77" stroke="#231F20" stroke-width="0.551" stroke-linecap="round" stroke-linejoin="round" points="10.741 40.5667 32.202 40.5667 32.202 27.8027 10.741 27.8027"></polygon>
            <polygon id="Fill-78" fill="#FFFFFF" points="32.2021 27.8028 21.4721 37.0088 10.7411 27.8028"></polygon>
            <polygon id="Stroke-79" stroke="#231F20" stroke-width="0.551" stroke-linecap="round" stroke-linejoin="round" points="32.2021 27.8028 21.4721 37.0088 10.7411 27.8028"></polygon>
            <polygon id="Fill-80" fill="#07DDDD" points="12.7256 28.5372 30.2176 28.5372 21.4716 36.0412"></polygon>
            <g id="Group-83" transform="translate(25.000000, 32.675700)">
                <path d="M7.2021,7.8908 L0.6141,0.8318" id="Fill-81" fill="#FFFFFF"></path>
                <path d="M7.2021,7.8908 L0.6141,0.8318" id="Stroke-82" stroke="#231F20" stroke-width="0.551" stroke-linecap="round" stroke-linejoin="round"></path>
            </g>
            <g id="Group-86" transform="translate(10.000000, 32.675700)">
                <path d="M0.7412,7.8156 L7.3292,0.7566" id="Fill-84" fill="#FFFFFF"></path>
                <path d="M0.7412,7.8156 L7.3292,0.7566" id="Stroke-85" stroke="#231F20" stroke-width="0.551" stroke-linecap="round" stroke-linejoin="round"></path>
            </g>
            <g id="Group-90" transform="translate(26.000000, 23.675700)">
                <path d="M0.8886,0.8136 L0.8896,0.3966" id="Fill-88" fill="#FFFFFF"></path>
                <path d="M0.8886,0.8136 L0.8896,0.3966" id="Stroke-89" stroke="#231F20" stroke-width="0.256" stroke-linecap="round"></path>
            </g>
            <g id="Group-93" transform="translate(26.000000, 22.675700)">
                <path d="M0.8906,0.9074 L0.8916,0.6754" id="Fill-91" fill="#FFFFFF"></path>
                <path d="M0.8906,0.9074 L0.8916,0.6754" id="Stroke-92" stroke="#231F20" stroke-width="0.256" stroke-linecap="round"></path>
            </g>
            <g id="Group-96" transform="translate(23.000000, 23.675700)">
                <path d="M0.7168,1.4083 L0.7168,0.9923" id="Fill-94" fill="#FFFFFF"></path>
                <path d="M0.7168,1.4083 L0.7168,0.9923" id="Stroke-95" stroke="#231F20" stroke-width="0.256" stroke-linecap="round"></path>
            </g>
            <g id="Group-99" transform="translate(23.000000, 23.675700)">
                <path d="M0.7177,0.5021 L0.7187,0.2711" id="Fill-97" fill="#FFFFFF"></path>
                <path d="M0.7177,0.5021 L0.7187,0.2711" id="Stroke-98" stroke="#231F20" stroke-width="0.256" stroke-linecap="round"></path>
            </g>
            <g id="Group-102" transform="translate(19.000000, 24.675700)">
                <path d="M0.8193,0.5392 L0.8193,0.1902" id="Fill-100" fill="#FFFFFF"></path>
                <path d="M0.8193,0.5392 L0.8193,0.1902" id="Stroke-101" stroke="#231F20" stroke-width="0.256" stroke-linecap="round"></path>
            </g>
            <g id="Group-105" transform="translate(19.000000, 23.675700)">
                <path d="M0.8203,0.7804 L0.8213,0.5874" id="Fill-103" fill="#FFFFFF"></path>
                <path d="M0.8203,0.7804 L0.8213,0.5874" id="Stroke-104" stroke="#231F20" stroke-width="0.256" stroke-linecap="round"></path>
            </g>
            <g id="Group-108" transform="translate(22.000000, 19.675700)">
                <path d="M0.6826,0.7511 L0.6716,5.9471" id="Fill-106" fill="#FFFFFF"></path>
                <path d="M0.6826,0.7511 L0.6716,5.9471" id="Stroke-107" stroke="#231F20" stroke-width="0.256" stroke-dasharray="0.171,0.341"></path>
            </g>
            <g id="Group-111" transform="translate(21.000000, 15.675700)">
                <polyline id="Fill-109" fill="#FFFFFF" points="4.9765 9.9542 4.9895 3.6872 6.1725 3.6902 3.3425 0.8482 0.4995 3.6792 1.6845 3.6812 1.6825 4.7512"></polyline>
                <polyline id="Stroke-110" stroke="#231F20" stroke-width="0.256" points="4.9765 9.9542 4.9895 3.6872 6.1725 3.6902 3.3425 0.8482 0.4995 3.6792 1.6845 3.6812 1.6825 4.7512"></polyline>
            </g>
            <g id="Group-114" transform="translate(26.000000, 19.675700)">
                <path d="M0.8925,3.2003 L0.8985,0.3823" id="Fill-112" fill="#FFFFFF"></path>
                <path d="M0.8925,3.2003 L0.8985,0.3823" id="Stroke-113" stroke="#231F20" stroke-width="0.256" stroke-linecap="round"></path>
            </g>
            <g id="Group-117" transform="translate(23.000000, 19.675700)">
                <path d="M0.7197,3.7951 L0.7257,0.9781" id="Fill-115" fill="#FFFFFF"></path>
                <path d="M0.7197,3.7951 L0.7257,0.9781" id="Stroke-116" stroke="#231F20" stroke-width="0.256" stroke-linecap="round"></path>
            </g>
            <g id="Group-120" transform="translate(16.000000, 18.675700)">
                <path d="M0.8418,0.4347 L0.8338,4.5837" id="Fill-118" fill="#FFFFFF"></path>
                <path d="M0.8418,0.4347 L0.8338,4.5837" id="Stroke-119" stroke="#231F20" stroke-width="0.256" stroke-dasharray="0.171,0.341"></path>
            </g>
            <g id="Group-123" transform="translate(16.000000, 15.675700)">
                <polyline id="Fill-121" fill="#FFFFFF" points="3.0341 7.588 3.0441 2.726 3.8331 2.728 1.9481 0.835 0.0551 2.72 0.8441 2.722 0.8421 3.435"></polyline>
                <polyline id="Stroke-122" stroke="#231F20" stroke-width="0.256" points="3.0341 7.588 3.0441 2.726 3.8331 2.728 1.9481 0.835 0.0551 2.72 0.8441 2.722 0.8421 3.435"></polyline>
            </g>
            <g id="Group-126" transform="translate(17.000000, 22.675700)">
                <path d="M0.9336,0.6574 L0.9346,0.3074" id="Fill-124" fill="#FFFFFF"></path>
                <path d="M0.9336,0.6574 L0.9346,0.3074" id="Stroke-125" stroke="#231F20" stroke-width="0.256" stroke-linecap="round"></path>
            </g>
            <g id="Group-129" transform="translate(17.000000, 21.675700)">
                <path d="M0.9355,0.8986 L0.9355,0.7046" id="Fill-127" fill="#FFFFFF"></path>
                <path d="M0.9355,0.8986 L0.9355,0.7046" id="Stroke-128" stroke="#231F20" stroke-width="0.256" stroke-linecap="round"></path>
            </g>
            <g id="Group-132" transform="translate(17.000000, 18.675700)">
                <path d="M0.9365,3.3068 L0.9415,0.9478" id="Fill-130" fill="#FFFFFF"></path>
                <path d="M0.9365,3.3068 L0.9415,0.9478" id="Stroke-131" stroke="#231F20" stroke-width="0.256" stroke-linecap="round"></path>
            </g>
            <g id="Group-135" transform="translate(19.000000, 20.675700)">
                <path d="M0.8213,3.1886 L0.8263,0.8306" id="Fill-133" fill="#FFFFFF"></path>
                <path d="M0.8213,3.1886 L0.8263,0.8306" id="Stroke-134" stroke="#231F20" stroke-width="0.256" stroke-linecap="round"></path>
            </g>
        </g>
    </g>
</svg>