<?xml version="1.0" encoding="UTF-8"?>
<svg width="85px" height="82px" viewBox="0 0 85 82" version="1.1" xmlns="http://www.w3.org/2000/svg" xmlns:xlink="http://www.w3.org/1999/xlink">
    <!-- Generator: Sketch 46.2 (44496) - http://www.bohemiancoding.com/sketch -->
    <title>Group 18</title>
    <desc>Created with Sketch.</desc>
    <defs></defs>
    <g id="Service-1---Roof-&amp;-Facade" stroke="none" stroke-width="1" fill="none" fill-rule="evenodd">
        <g id="Group-18">
            <polygon id="Fill-1" fill="#E5E8ED" points="65.4326554 41.9401653 74.2060338 50.7450819 74.2060338 41.9401653"></polygon>
            <polygon id="Stroke-16" stroke="#231F20" stroke-width="0.97078905" stroke-linejoin="round" points="4.95802703 37.4483667 0.487486486 37.4483667 0.487486486 80.5922278 69.9049189 80.5922278 69.9049189 76.1044639 4.95802703 76.1044639"></polygon>
            <polygon id="Stroke-18" stroke="#231F20" stroke-width="0.97078905" stroke-linejoin="round" points="4.96147297 32.9600264 65.4332297 32.9600264 65.4332297 41.9401653 74.3823514 41.9401653 74.3823514 76.1038875 4.96147297 76.1038875"></polygon>
            <polygon id="Fill-19" fill="#FFFFFF" points="74.381777 41.9401653 65.4326554 41.9401653 65.4326554 32.9600264"></polygon>
            <polygon id="Stroke-20" stroke="#231F20" stroke-width="0.97078905" stroke-linejoin="round" points="74.381777 41.9401653 65.4326554 41.9401653 65.4326554 32.9600264"></polygon>
            <polygon id="Fill-21" fill="#07DCDC" points="66.7349932 40.6331458 66.7349932 36.1165625 71.2353986 40.6331458"></polygon>
            <path d="M36.8520946,40.2369361 C36.3122297,35.5209222 34.5157432,30.9928111 31.3902703,27.4226583 C28.5209459,24.1430056 26.9564865,19.689825 27.5124324,14.86545 C28.3624324,7.50035278 34.3066892,1.5647 41.6511486,0.745075 C51.3641216,-0.337383333 59.5872973,7.26403333 59.5872973,16.7928944 C59.5872973,20.8691167 58.077973,24.5891306 55.5922973,27.4272694 C52.4691216,30.9951167 50.6714865,35.522075 50.1350676,40.2369361 L36.8520946,40.2369361 Z" id="Fill-22" fill="#FFFFFF"></path>
            <path d="M36.8520946,40.2369361 L50.1350676,40.2369361 C50.6714865,35.522075 52.4691216,30.9951167 55.5922973,27.4272694 C58.077973,24.5891306 59.5872973,20.8691167 59.5872973,16.7928944 C59.5872973,7.26403333 51.3641216,-0.337383333 41.6511486,0.745075 C34.3066892,1.5647 28.3624324,7.50035278 27.5124324,14.86545 C26.9564865,19.689825 28.5209459,24.1430056 31.3902703,27.4226583 C34.5157432,30.9928111 36.3122297,35.5209222 36.8520946,40.2369361 Z" id="Stroke-24" stroke="#231F20" stroke-width="0.97078905" stroke-linejoin="round"></path>
            <polygon id="Fill-26" fill="#FFFFFF" points="51.5590473 40.2369361 41.5589122 40.2369361 35.429723 40.2369361 35.429723 48.926575 51.5590473 48.926575"></polygon>
            <polygon id="Stroke-28" stroke="#231F20" stroke-width="0.97078905" stroke-linejoin="round" points="51.5590473 40.2369361 41.5589122 40.2369361 35.429723 40.2369361 35.429723 48.926575 51.5590473 48.926575"></polygon>
            <g id="Group-33" transform="translate(32.162162, 43.039569)">
                <path d="M0.862635135,0.0927986111 L21.8013514,0.0927986111" id="Fill-30" fill="#FFFFFF"></path>
                <path d="M0.862635135,0.0927986111 L21.8013514,0.0927986111" id="Stroke-32" stroke="#231F20" stroke-width="0.97078905" stroke-linejoin="round"></path>
            </g>
            <g id="Group-37" transform="translate(32.162162, 45.345125)">
                <path d="M0.862635135,0.686133333 L21.8013514,0.686133333" id="Fill-34" fill="#FFFFFF"></path>
                <path d="M0.862635135,0.686133333 L21.8013514,0.686133333" id="Stroke-36" stroke="#231F20" stroke-width="0.97078905" stroke-linejoin="round"></path>
            </g>
            <polygon id="Fill-38" fill="#FFFFFF" points="39.8661486 51.9136528 47.1221622 51.9136528 47.1221622 48.9256528 39.8661486 48.9256528"></polygon>
            <polygon id="Stroke-40" stroke="#231F20" stroke-width="0.97078905" stroke-linejoin="round" points="39.8661486 51.9136528 47.1221622 51.9136528 47.1221622 48.9256528 39.8661486 48.9256528"></polygon>
            <polygon id="Fill-41" fill="#FFFFFF" points="9.84162162 71.6895556 19.0434459 71.6895556 19.0434459 10.9750556 9.84162162 10.9750556"></polygon>
            <polygon id="Stroke-42" stroke="#231F20" stroke-width="0.97078905" points="9.84162162 71.6895556 19.0434459 71.6895556 19.0434459 10.9750556 9.84162162 10.9750556"></polygon>
            <polygon id="Fill-43" fill="#30BFD7" points="10.8845946 70.6428333 18.0016216 70.6428333 18.0016216 12.020625 10.8845946 12.020625"></polygon>
            <polygon id="Stroke-44" stroke="#020202" stroke-width="0.97078905" points="10.8845946 70.6428333 18.0016216 70.6428333 18.0016216 12.020625 10.8845946 12.020625"></polygon>
            <path d="M9.84208108,14.9872986 L13.2616081,14.9872986" id="Stroke-45" stroke="#231F20" stroke-width="0.97078905"></path>
            <path d="M9.84208108,19.0400042 L13.2616081,19.0400042" id="Stroke-46" stroke="#231F20" stroke-width="0.97078905"></path>
            <path d="M9.84208108,23.0927097 L13.2616081,23.0927097" id="Stroke-47" stroke="#231F20" stroke-width="0.97078905"></path>
            <path d="M9.84208108,27.1465681 L13.2616081,27.1465681" id="Stroke-48" stroke="#231F20" stroke-width="0.97078905"></path>
            <path d="M9.84208108,31.1992736 L13.2616081,31.1992736" id="Stroke-49" stroke="#231F20" stroke-width="0.97078905"></path>
            <path d="M9.84208108,35.2520944 L13.2616081,35.2520944" id="Stroke-50" stroke="#231F20" stroke-width="0.97078905"></path>
            <path d="M9.84208108,39.3059528 L13.2616081,39.3059528" id="Stroke-51" stroke="#231F20" stroke-width="0.97078905"></path>
            <path d="M9.84208108,43.3586583 L13.2616081,43.3586583" id="Stroke-52" stroke="#231F20" stroke-width="0.97078905"></path>
            <path d="M9.84208108,47.4113639 L13.2616081,47.4113639" id="Stroke-53" stroke="#231F20" stroke-width="0.97078905"></path>
            <path d="M9.84208108,51.4652222 L13.2616081,51.4652222" id="Stroke-54" stroke="#231F20" stroke-width="0.97078905"></path>
            <path d="M9.84208108,55.5179278 L13.2616081,55.5179278" id="Stroke-55" stroke="#231F20" stroke-width="0.97078905"></path>
            <path d="M9.84208108,59.5707486 L13.2616081,59.5707486" id="Stroke-56" stroke="#231F20" stroke-width="0.97078905"></path>
            <path d="M9.84208108,63.6246069 L13.2616081,63.6246069" id="Stroke-57" stroke="#231F20" stroke-width="0.97078905"></path>
            <path d="M9.84208108,67.6773125 L13.2616081,67.6773125" id="Stroke-58" stroke="#231F20" stroke-width="0.97078905"></path>
            <path d="M80.7106014,62.0001125 L41.5589122,62.0001125 L41.5589122,67.9588208 L80.7106014,67.9588208 C82.3508716,67.9588208 83.6798581,66.6250569 83.6798581,64.9788903 C83.6798581,63.3338764 82.3508716,62.0001125 80.7106014,62.0001125" id="Fill-59" fill="#30BFD7"></path>
            <path d="M80.7106014,62.0001125 L41.5589122,62.0001125 L41.5589122,67.9588208 L80.7106014,67.9588208 C82.3508716,67.9588208 83.6798581,66.6250569 83.6798581,64.9788903 C83.6798581,63.3338764 82.3508716,62.0001125 80.7106014,62.0001125 Z" id="Stroke-60" stroke="#020202" stroke-width="0.97078905"></path>
            <path d="M74.5926689,67.9587056 L80.7103716,67.9587056 C82.3506419,67.9587056 83.6796284,66.6249417 83.6796284,64.978775 C83.6796284,63.3337611 82.3506419,61.9999972 80.7103716,61.9999972 L74.5926689,61.9999972 L74.5926689,67.9587056 Z" id="Stroke-61" stroke="#231F20" stroke-width="0.97078905"></path>
            <polygon id="Stroke-62" stroke="#231F20" stroke-width="0.97078905" stroke-linejoin="round" points="41.5589122 67.9587056 34.3316149 64.978775 41.5589122 61.9999972"></polygon>
            <path d="M41.5589122,64.9788903 L74.5928986,64.9788903" id="Stroke-63" stroke="#231F20" stroke-width="0.97078905" stroke-linejoin="round"></path>
            <path d="M67.0221554,49.7270639 L66.1847905,50.5674389" id="Stroke-64" stroke="#231F20" stroke-width="0.97078905" stroke-linecap="round"></path>
            <path d="M64.3972635,52.3613917 L63.5598986,53.2017667" id="Stroke-65" stroke="#231F20" stroke-width="0.97078905" stroke-linecap="round"></path>
            <path d="M67.0221554,53.2023431 L66.1847905,52.3619681" id="Stroke-66" stroke="#231F20" stroke-width="0.97078905" stroke-linecap="round"></path>
            <path d="M64.3972635,50.5680153 L63.5598986,49.7276403" id="Stroke-67" stroke="#231F20" stroke-width="0.97078905" stroke-linecap="round"></path>
            <path d="M29.0303716,59.0201819 C29.0303716,59.9228069 28.3009797,60.6548208 27.4015878,60.6548208 C26.5021959,60.6548208 25.7728041,59.9228069 25.7728041,59.0201819 C25.7728041,58.1175569 26.5021959,57.3855431 27.4015878,57.3855431 C28.3009797,57.3855431 29.0303716,58.1175569 29.0303716,59.0201819" id="Fill-69" fill="#07DCDC"></path>
            <g id="Group-73" transform="translate(36.756757, 16.372903)">
                <path d="M5.54027703,23.8640333 C6.19500676,23.7095611 6.38108784,5.75850556 4.15270946,1.79410278 C4.15270946,1.79410278 3.28433108,-0.539119444 1.54412838,0.160616667 C-0.134047297,0.832686111 0.245006757,3.04717222 0.245006757,3.04717222 C0.245006757,3.04717222 0.351831081,4.625325 1.65210135,5.54754722 C2.95237162,6.472075 6.41899324,6.36371389 6.41899324,6.36371389 L7.61014189,6.36371389" id="Fill-71" fill="#FFFFFF"></path>
                <path d="M5.54027703,23.8640333 C6.19500676,23.7095611 6.38108784,5.75850556 4.15270946,1.79410278 C4.15270946,1.79410278 3.28433108,-0.539119444 1.54412838,0.160616667 C-0.134047297,0.832686111 0.245006757,3.04717222 0.245006757,3.04717222 C0.245006757,3.04717222 0.351831081,4.625325 1.65210135,5.54754722 C2.95237162,6.472075 6.41899324,6.36371389 6.41899324,6.36371389 L7.61014189,6.36371389" id="Stroke-72" stroke="#231F20" stroke-width="0.55" stroke-linejoin="round"></path>
            </g>
            <g id="Group-76" transform="translate(42.500000, 16.372903)">
                <path d="M2.68324324,23.8640333 C2.68324324,23.8640333 1.53114865,5.75850556 3.75952703,1.79410278 C3.75952703,1.79410278 4.5877027,-0.426147222 6.36810811,0.160616667 C7.87858108,0.656311111 7.66837838,3.04717222 7.66837838,3.04717222 C7.66837838,3.04717222 7.67871622,4.48814444 6.26013514,5.54754722 C4.98283784,6.5032 1.49439189,6.36371389 1.49439189,6.36371389 L0.303243243,6.36371389" id="Fill-74" fill="#FFFFFF"></path>
                <path d="M2.68324324,23.8640333 C2.68324324,23.8640333 1.53114865,5.75850556 3.75952703,1.79410278 C3.75952703,1.79410278 4.5877027,-0.426147222 6.36810811,0.160616667 C7.87858108,0.656311111 7.66837838,3.04717222 7.66837838,3.04717222 C7.66837838,3.04717222 7.67871622,4.48814444 6.26013514,5.54754722 C4.98283784,6.5032 1.49439189,6.36371389 1.49439189,6.36371389 L0.303243243,6.36371389" id="Stroke-75" stroke="#231F20" stroke-width="0.55" stroke-linejoin="round"></path>
            </g>
        </g>
    </g>
</svg>