<svg xmlns="http://www.w3.org/2000/svg" width="75" height="175" viewBox="0 0 75 175">
  <g fill="none" fill-rule="evenodd" transform="translate(1 1)">
    <path stroke="#000" stroke-width=".72" d="M24.7232869,104.391051 C24.8286121,104.636055 24.9260647,104.862608 25.0236366,105.089161 L25.127769,105.063283 C25.1361186,104.905978 25.1265761,104.744839 25.158782,104.592685 C25.1821611,104.482583 25.2361954,104.353432 25.3193343,104.286461 C25.5768621,104.079316 25.8549062,103.89781 26.1798278,103.667423 C25.9453212,103.482562 25.7752265,103.348499 25.6015533,103.211441 C25.4783359,103.321902 25.3829111,103.40313 25.2921382,103.489271 C24.9248719,103.836948 24.8212167,103.839225 24.4723196,103.481004 C24.3502951,103.355567 24.2527232,103.20557 24.1274781,103.083847 C24.0228686,102.982491 23.8876039,102.825545 23.7775075,102.83465 C23.5080516,102.857054 23.4336203,102.703822 23.334617,102.516086 C23.2489732,102.353389 23.1221775,102.212497 23.0083833,102.054833 C22.9438523,102.085503 22.8868359,102.095087 22.8584471,102.128993 C22.7483507,102.26018 22.5820729,102.388612 22.5580974,102.537771 C22.5208817,102.768038 22.666166,102.905216 22.9297771,102.937324 C23.0778049,102.955295 23.2116382,103.091634 23.3519127,103.17478 C23.342251,103.221624 23.3327085,103.268468 23.3230467,103.315432 C23.1027346,103.347301 22.8823033,103.379289 22.6664046,103.410439 C23.0422592,103.919614 23.4016529,104.406387 23.7680843,104.902743 C24.052331,104.75047 24.3717657,104.579387 24.7232869,104.391051 Z M23.2375222,74.1747564 C23.2529095,74.1333035 23.2681775,74.0918506 23.2835647,74.0503976 C23.0902101,73.9503596 22.8580892,73.72764 22.7108964,73.7742446 C22.3437493,73.8905763 22.2115859,73.6320348 21.9869797,73.4827564 C21.4521235,73.1272917 20.8577461,72.9159537 20.1219013,72.7821303 C20.3706023,73.3126317 20.5789863,73.7571123 20.7929765,74.2133339 C20.6459029,74.2690438 20.5272183,74.3142107 20.4086529,74.3592578 C20.3938621,74.4027474 20.3791905,74.4463568 20.3643997,74.4899662 C20.622166,74.6357702 20.8928147,74.7631241 21.1343588,74.9321705 C21.4347085,75.1421906 21.8289324,75.3302861 21.9707575,75.6292024 C22.1975108,76.1074683 22.282081,76.664327 22.3633114,77.1975839 C22.4082804,77.4930258 22.4901072,77.8828748 21.983282,77.9690154 C22.0757248,78.2881788 22.1414487,78.5848187 22.2522608,78.8633679 C22.2954405,78.9719122 22.4290353,79.0711116 22.5433065,79.1101684 C22.5857706,79.1247848 22.7167412,78.9678388 22.7626644,78.8682799 C22.9694977,78.4202051 23.019715,77.9520029 22.9146284,77.4649911 C22.8268376,77.0580098 22.7379732,76.6499503 22.6825075,76.2378173 C22.6172608,75.7546393 22.389434,75.1913111 23.1448408,75.0088464 C23.1764503,75.0011788 23.193269,74.9309724 23.1974438,74.9237841 C23.1035696,74.6318166 22.5372232,74.6436774 22.8076333,74.1747564 L23.2375222,74.1747564 Z M29.0945794,124.367999 C28.7516464,124.928332 28.9903278,125.412109 29.6062951,125.46063 C29.7689944,125.47345 29.9309781,125.495254 30.0936775,125.508553 C30.4853964,125.540301 30.7370794,125.322734 30.8264209,124.927254 C30.8551676,124.800139 30.9550059,124.619592 31.0575876,124.590958 C31.4767412,124.474267 31.9065108,124.381896 32.3381889,124.327265 C32.952367,124.24963 33.2387608,124.041767 33.3914405,123.445492 C33.2424585,123.475803 33.1104144,123.48982 32.9869585,123.530315 C32.7487542,123.608308 32.5210467,123.73111 32.2780712,123.777115 C32.1212167,123.806947 31.9408637,123.748002 31.7782837,123.702476 C31.5464013,123.637421 31.3262085,123.523725 31.0920598,123.474725 C30.6909176,123.390621 30.1573735,123.889853 29.8949552,123.19318 C29.8888719,123.176647 29.8527297,123.16263 29.8303049,123.16227 C29.3699993,123.154842 28.885599,123.05708 28.4559487,123.169698 C28.0221235,123.283394 27.6131088,123.35372 27.1748703,123.29861 C27.0809961,123.286869 26.9842592,123.296932 26.8396905,123.296932 C26.8697493,123.475084 26.8525729,123.633468 26.9217559,123.728114 C27.0647739,123.923997 27.9771546,124.103107 28.2052199,123.990011 C28.5321693,123.827673 28.7962575,123.814974 28.9625353,124.204104 C28.9861529,124.259574 29.040068,124.301866 29.0945794,124.367999 Z M40.8017755,40.3953083 C40.9848719,40.6140742 41.1250271,40.7852771 41.2691186,40.9530057 C41.6931627,41.446487 41.9307706,42.0199988 41.9966137,42.6658734 C42.0467118,43.1564794 42.1358147,43.2114704 42.5053474,43.0438616 C42.9951154,43.2380673 43.4296562,43.4238866 43.8755288,43.5762799 C43.9654667,43.6069503 44.0983458,43.5111054 44.2114242,43.4736061 C44.1682444,43.368656 44.1474895,43.2436982 44.076398,43.1634281 C43.9781105,43.0522481 43.8461856,42.968264 43.7210598,42.8840403 C43.5019405,42.7367986 43.3991203,42.5548132 43.4419422,42.2755452 C43.4977657,41.910496 43.2618278,41.6203256 42.9073245,41.6976006 C42.5147706,41.7832619 42.3314356,41.5697675 42.1238866,41.3397398 C41.989934,41.1911802 41.8323637,41.0506476 41.7443343,40.8763298 C41.5334454,40.4579669 40.9345353,40.1434759 41.3596529,39.5330639 C41.3977036,39.4784323 41.3650206,39.3583866 41.3386595,39.2775175 C41.2772297,39.0895417 41.1998163,38.9068374 41.1221644,38.7049641 C41.3390173,38.6248139 41.5432265,38.5635929 41.7346725,38.4748166 C41.9565353,38.3719032 42.0145059,38.2016587 41.887233,37.9772619 C41.668233,37.5913665 41.4660516,37.8319371 41.1914667,38.0800555 C41.0045533,37.7462758 40.8471023,37.4448436 40.6696121,37.1559911 C40.5683425,36.9913776 40.4658801,36.7763256 40.3095026,36.7058796 C39.5616105,36.3688651 38.9972918,35.8067349 38.5355549,35.171523 C38.1079324,34.5835147 37.5801137,34.1868367 36.9321791,33.9227841 C36.834965,33.8832481 36.6937363,33.9523762 36.5730239,33.9713055 C36.6178735,34.0929087 36.6270582,34.2645909 36.7138948,34.3267702 C36.9772673,34.5151054 37.3089879,34.6187377 37.543733,34.832951 C37.9294879,35.1847017 38.2602542,35.597194 38.6126105,35.9856054 C38.6275206,36.001899 38.6394487,36.0385597 38.6314569,36.055692 C38.3987395,36.5530071 38.8116905,36.5974551 39.097965,36.709953 C39.7856203,36.9801158 40.0530484,37.6613332 40.6084209,38.1349267 C40.4249667,38.2108838 40.3205958,38.2486227 40.2207575,38.2963055 C39.5777134,38.6031289 39.5538572,38.7170645 40.003666,39.3053125 C40.034202,39.3452079 40.0815565,39.3837855 40.0885941,39.4282335 C40.1118539,39.5717612 40.1862853,39.768363 40.1217542,39.8535452 C39.902635,40.1428769 39.9425941,40.4562896 39.9850582,40.7629932 C40.0025925,40.8886698 40.1626676,41.1027633 40.2267216,41.0918609 C40.380952,41.0657432 40.5438899,40.9543235 40.6512428,40.8315223 C40.7372444,40.7332813 40.7466676,40.5674697 40.8017755,40.3953083 Z M25.0757624,132.917122 C24.7968833,132.783538 24.4454814,132.615211 24.1464438,132.471803 C24.3115288,132.039782 24.4457199,131.694141 24.5754977,131.346824 C24.6665092,131.103258 24.764916,130.861249 24.8338605,130.611214 C24.8710761,130.475953 24.8903997,130.314934 24.853184,130.184225 C24.7803033,129.928799 24.6618572,129.686551 24.531483,129.361517 C24.3792804,129.512952 24.1769797,129.622694 24.1249732,129.781916 C23.8877232,130.508181 23.1811023,130.806977 22.7570582,131.357846 C22.7241366,131.400616 22.6442183,131.408763 22.5848163,131.428651 C22.1544503,131.572059 22.0243147,131.768421 21.994733,132.221288 C21.9637199,132.697038 21.9452314,133.178659 21.5938294,133.568508 C21.4287444,133.751452 21.2930026,133.966623 21.1716938,134.182873 C20.8953196,134.675396 20.6375533,135.178222 20.3689324,135.675178 C20.2971252,135.808043 20.1741464,135.925333 20.1415827,136.065506 C19.9798376,136.760502 19.7069225,137.42255 19.6406023,138.148934 C19.5807232,138.804873 19.4618,139.451107 19.0791464,140.04834 C18.8989127,140.329525 18.9027297,140.843972 19.0266627,141.176195 C19.1528621,141.513928 19.2097592,141.810209 19.1737363,142.154771 C19.1650288,142.237797 19.2654634,142.403129 19.3314258,142.411875 C19.7586905,142.469022 19.9593212,142.280687 19.9899765,141.832852 C19.9970141,141.731736 19.9836546,141.627145 20.004648,141.529623 C20.1516023,140.848884 20.2927118,140.167188 21.0539634,139.868631 C21.1586922,139.827657 21.241831,139.684489 21.295269,139.569954 C21.3694618,139.411211 21.3639748,139.20191 21.465483,139.071321 C22.1426415,138.200451 22.0654667,137.055704 22.546885,136.116184 C22.5774209,136.056521 22.5477199,135.966906 22.5496284,135.891308 C22.5639422,135.347628 22.6327673,134.837853 23.1824144,134.534864 C23.3059895,134.466814 23.4204993,134.30232 23.4528245,134.162147 C23.534532,133.807042 23.5929797,133.768225 23.9044225,133.970936 C24.1327265,134.119616 24.4492984,134.042461 24.578599,133.808479 C24.7355729,133.524659 24.8944552,133.242036 25.0757624,132.917122 Z M12.5988458,130.863526 C12.7239716,130.618762 12.9589552,130.663569 13.1588703,130.752346 C13.3672542,130.844956 13.4373915,130.993995 13.3377918,131.241035 C13.1490892,131.708518 12.9767281,132.186065 12.8487395,132.672837 C12.8083033,132.826069 12.8745042,133.10354 12.9894912,133.184889 C13.4002951,133.475658 13.8836219,133.244911 13.9681922,132.75131 C14.0535974,132.251959 14.1854029,131.741824 14.653581,131.502571 C15.1834275,131.23193 15.7563343,130.984051 16.3366366,130.891081 C16.9932788,130.785772 17.4613376,130.512973 17.8101154,129.941019 C17.4144601,129.481562 17.1673098,130.133907 16.8386905,130.065977 C16.8671987,130.040458 16.8957069,130.014939 16.9243343,129.98942 C16.7279977,129.744177 16.5317804,129.498934 16.3284062,129.244826 C16.3862575,128.953577 16.5982199,128.889361 16.8828245,128.970829 C17.1358196,129.043432 17.3959716,129.101058 17.6371578,129.202893 C18.0158752,129.362715 18.2734029,129.273339 18.4152281,128.876302 C18.5384454,128.53138 18.6516431,128.182026 18.7495729,127.829077 C18.7811824,127.71574 18.7914405,127.562988 18.7401497,127.466424 C18.5948654,127.192787 18.6562951,127.024699 18.9277788,126.896387 C19.0515925,126.837921 19.1652673,126.750942 19.2705925,126.661447 C19.6631464,126.327907 19.6349961,126.000477 19.1222069,125.671249 C18.9648752,125.889536 18.8068278,126.116329 18.6395958,126.335814 C18.5931954,126.396436 18.4978899,126.487968 18.4616284,126.473351 C18.3875549,126.44352 18.2850925,126.348753 18.2883131,126.285495 C18.2990484,126.063495 18.307398,125.824841 18.3938768,125.626562 C18.5805516,125.198614 18.816251,124.792352 19.0296448,124.376146 C19.1403376,124.159896 19.0107984,123.237988 18.8390337,123.084037 C18.7917984,123.041745 18.6932722,123.012632 18.6370908,123.032041 C18.2996448,123.148732 18.092215,122.960756 17.8843082,122.743308 C17.7582281,122.611641 17.6131824,122.498664 17.4826889,122.382572 C17.3210631,122.517114 17.199635,122.618351 17.1353425,122.671904 C16.9186088,122.534366 16.7355124,122.323508 16.5785386,122.341598 C16.3591807,122.366878 16.0568033,122.473385 16.063483,122.801534 C16.0718327,123.209234 15.7933114,123.352402 15.4978523,123.523965 C15.3127281,123.192342 15.1415598,122.883242 14.9680059,122.57558 C14.7703572,122.225506 14.559349,122.169916 14.2048458,122.38377 C14.088666,122.453977 13.9865614,122.547545 13.873483,122.633806 C13.9208376,122.761519 13.9588882,122.864432 14.0365402,123.073853 C13.8307804,122.986874 13.6885974,122.95848 13.589952,122.876892 C13.4744879,122.781526 13.3970745,122.639916 13.3032003,122.518432 C13.2390271,122.733364 13.2711137,122.908761 13.2577542,123.080802 C13.2472575,123.217022 13.2208964,123.392777 13.1319127,123.474125 C12.8945435,123.691214 12.8943049,123.901594 13.0091725,124.180382 C13.4447869,125.237312 13.7340435,126.328266 13.7587346,127.483556 C13.7655337,127.798407 13.6868082,128.020168 13.4041121,128.15471 C12.789934,127.806913 12.7783637,127.782472 12.7320827,127.024699 C12.7231366,126.877697 12.7019046,126.613524 12.653715,126.605617 C12.2722542,126.543438 12.3584944,126.184499 12.2299095,125.956747 C11.9976693,125.981308 11.7798621,126.00431 11.5562101,126.028032 C11.5302069,125.859704 11.5096905,125.727798 11.479751,125.53503 C11.1846497,125.649804 10.7752771,125.680714 10.6868899,125.866054 C10.3461039,126.581057 9.68099281,127.161398 9.72894379,128.051677 C9.73490784,128.161779 9.64115294,128.283382 9.57769542,128.390129 C9.30680817,128.845991 9.00550425,129.28544 8.76205163,129.7552 C8.51335065,130.234903 12.2574634,131.531804 12.5988458,130.863526 Z M43.4382444,122.696704 C43.3664373,122.613199 43.3040533,122.518193 43.2210337,122.447986 C42.9075631,122.183574 42.6273719,121.924913 42.8906252,121.453835 C42.9391725,121.366976 42.8448212,121.199487 42.7263752,121.08028 C42.6601742,121.232194 42.5939732,121.384108 42.4726644,121.662897 C42.3612559,121.448444 42.2894487,121.33966 42.2457918,121.220333 C42.1510827,120.961432 42.0818997,120.734639 41.7033016,120.896138 C41.5749552,120.95077 41.3576252,120.794662 41.1652248,120.729607 C41.2763948,120.463159 41.6140794,120.348984 41.386849,120.056058 C40.9916709,120.436442 40.8595075,120.414158 40.5859961,119.929303 C40.4937918,119.765767 40.4112493,119.596721 40.3242935,119.430071 C40.2832608,119.422403 40.2422281,119.414616 40.201434,119.406948 C40.1699438,119.52316 40.0876399,119.655426 40.117818,119.752349 C40.1805598,119.954582 40.3213114,120.131176 40.3957428,120.331132 C40.4801938,120.557686 40.5270712,120.798376 40.5964928,121.055959 C40.1896252,121.149168 39.884385,121.148569 39.6389046,120.854086 C39.5667395,120.767466 39.4762052,120.695103 39.3885337,120.62298 C38.6897853,120.047192 38.4308261,120.022632 37.7166905,120.420029 C37.4208735,120.278178 37.1706219,120.126384 36.8992575,120.044436 C36.7973915,120.013646 36.6179928,120.115481 36.5235222,120.207852 C36.1887003,120.535522 36.0046497,120.53648 35.7391301,120.17215 C35.4324585,119.75163 35.1335402,119.663333 34.7449225,119.901508 C35.1094454,120.482208 34.5328408,120.695223 34.2593294,120.977486 C34.0019209,121.243096 33.6073392,121.279637 33.2496154,121.045057 C33.1818637,121.000609 33.0443327,120.949571 33.0136775,120.979403 C32.6793327,121.303239 32.2593441,121.174448 31.8732314,121.190741 C31.8727542,121.746402 32.016965,121.871 32.5004111,121.800674 C33.2189601,121.696203 33.9394176,121.60551 34.6599944,121.515895 C34.7434912,121.505592 34.8364111,121.527875 34.9182379,121.555551 C35.2037967,121.652713 35.4604895,121.55627 35.7433049,121.513619 C36.3084585,121.428436 36.8962755,120.966704 37.4874324,121.546685 C37.5338327,121.397287 37.5372918,121.285148 37.594666,121.224766 C37.6853196,121.12952 37.8121154,121.069018 37.9236431,120.9939 C38.0132232,121.128801 38.1496807,121.25328 38.1818866,121.400761 C38.2360402,121.647921 38.1895206,121.917844 38.2473719,122.163327 C38.3413654,122.561083 38.4270092,122.579893 38.8629814,122.369393 C38.8054879,122.197831 38.7250925,122.025191 38.6953915,121.844164 C38.6777379,121.736578 38.7086317,121.587659 38.777099,121.510743 C38.8251693,121.45683 38.9841709,121.462941 39.0748245,121.495168 C39.2835663,121.569089 39.5369193,121.626596 39.6700369,121.780067 C39.8736497,122.015007 39.9639454,122.32219 39.5826039,122.521787 C39.8726954,122.948297 39.8726954,122.948297 39.4327869,123.306637 C39.5375157,123.52672 39.6446301,123.751716 39.7325402,123.936457 C40.0173833,123.986416 40.2648915,124.029786 40.5385222,124.077828 C40.452282,123.776037 40.3689046,123.48359 40.2854078,123.191263 C40.3142739,123.171855 40.3431399,123.152566 40.3721252,123.133157 C40.844001,123.596927 41.6613147,123.649641 41.7889454,124.523028 C41.8364193,124.498468 41.8838931,124.473788 41.931367,124.449227 C41.9070337,124.295276 41.8739928,124.142044 41.8608719,123.987135 C41.8491824,123.850556 41.8596791,123.71218 41.8603948,123.574523 C42.0315631,123.590936 42.270483,123.542535 42.3601824,123.637062 C42.5575925,123.844925 42.7422395,123.841691 42.9927297,123.805869 C43.1451709,123.784184 43.3156235,123.889733 43.5079046,123.947 C43.5056382,123.951673 43.5314029,123.913934 43.5439275,123.872241 C43.5982003,123.692891 43.596769,123.410269 43.7103245,123.352163 C44.0134176,123.197254 44.3610026,123.117702 44.6991644,123.048934 C44.9452412,122.998975 45.2045582,123.01419 45.4641137,122.999933 C45.6906284,123.138429 45.9634242,123.305079 46.2836938,123.500722 C46.1342346,123.537503 46.0470402,123.558948 45.8838637,123.598963 C46.2229797,123.852952 46.5067493,124.065488 46.7912346,124.278504 C46.6231676,124.696148 46.6231676,124.696148 47.1825958,124.901256 C47.0407706,125.009081 46.9486856,125.128648 46.8346529,125.156323 C46.5005467,125.237312 46.2183278,125.55959 45.8260124,125.385991 C45.8022755,125.375448 45.7321382,125.40552 45.7272477,125.426725 C45.6382641,125.816335 45.2793474,125.934224 45.0181219,126.151312 C44.8258408,126.311134 44.5761856,126.451067 44.4744389,126.660009 C44.3058948,127.006249 43.9445925,127.312952 44.1409291,127.786905 C44.1751627,127.869452 44.0775908,128.015256 44.025465,128.124279 C43.870519,128.448355 43.7185549,128.774587 43.5442853,129.088119 C43.4505304,129.256806 43.313715,129.401292 43.1324078,129.532959 C43.5192363,128.991675 43.1433817,128.621594 42.9355941,128.188375 C42.8072477,127.921328 42.8462526,127.572213 42.8164324,127.259279 C42.80355,127.126055 42.8537673,126.963598 42.7944846,126.862242 C42.6168752,126.559252 42.7326971,126.312811 42.8634291,126.043487 C42.9320157,125.902116 42.9428703,125.73247 42.9829487,125.562226 C42.336684,125.498848 42.8666497,126.149156 42.4459454,126.201272 C42.4008572,125.770329 42.357081,125.351727 42.3133049,124.933004 C42.2676203,124.933244 42.2218163,124.933364 42.1760124,124.933603 C42.1593131,124.984161 42.1136284,125.048977 42.1303278,125.082762 C42.2825304,125.391502 42.1531105,125.600564 42.0075876,125.894089 C41.8578899,126.19612 41.6780141,126.633891 42.0143866,127.105808 C42.0842853,126.841875 42.1342641,126.65318 42.1842428,126.464486 C42.2367265,126.465923 42.2892101,126.467361 42.3416938,126.468799 C42.3521905,126.882249 42.3747346,127.29618 42.3581546,127.708432 C42.3558882,127.762585 42.1521562,127.80847 42.1020582,127.831114 C41.9590402,128.081029 41.8260418,128.2968 41.7116513,128.522035 C41.6724078,128.59943 41.6756284,128.700307 41.6675173,128.79112 C41.6603605,128.869114 41.6646546,128.948186 41.6640582,129.026659 C41.5779373,129.00737 41.4868065,128.999702 41.4071268,128.965318 C41.3303098,128.932132 41.2651824,128.87139 41.1182281,128.769794 C41.094849,129.138917 41.0756448,129.443464 41.0552477,129.765024 L40.5926758,129.765024 C40.5486611,129.917058 40.507867,130.05771 40.4670729,130.198362 C40.4456023,130.173682 40.4240124,130.149122 40.4023033,130.124442 C40.2390075,130.226277 40.0755925,130.327993 39.9125353,130.430187 C39.8710255,130.456305 39.817349,130.517166 39.7920614,130.506623 C39.4215745,130.352673 38.949818,130.585456 38.6405222,130.20603 C38.4344046,129.953119 38.2736137,130.133907 38.0564029,130.266173 C38.3196562,130.484459 38.5582183,130.682259 38.8156268,130.895514 C38.7178163,131.064441 38.6252542,131.224262 38.5243425,131.39858 C38.2292412,131.272424 37.9955696,130.824349 37.6481039,131.262959 C37.8048392,131.362878 37.9624095,131.463275 38.1589846,131.588353 C37.5289422,132.041819 36.924068,131.882237 36.3363703,131.786752 C35.7404422,131.690068 35.1545337,131.532164 34.5590827,131.432245 C34.1584176,131.365154 33.748568,131.32418 33.3427739,131.323222 C32.9730026,131.322503 32.9026268,131.712711 33.2011873,132.167495 C33.525751,131.981436 33.8677297,131.835273 34.0835092,132.338938 C34.2177003,132.122688 34.3076382,131.831679 34.4226252,131.821375 C34.7118817,131.795138 35.0229667,131.862349 35.3067363,131.951725 C36.130849,132.211225 36.813733,132.697398 37.4119275,133.385923 C37.1491513,133.713833 37.0431105,134.226722 36.508135,134.281114 C36.0844487,134.324005 35.6530092,134.28974 35.2004569,134.28974 C35.1627641,134.558106 35.3214078,134.713375 35.6187755,134.713974 C35.8878735,134.714693 36.0546284,134.800953 36.1730745,135.060333 C36.2211448,135.165523 36.4247575,135.258852 36.5542967,135.254659 C36.879099,135.244236 37.139251,135.35242 37.2717722,135.631089 C37.3608752,135.818346 36.9628343,136.21155 36.6593833,136.282715 C36.48905,136.32273 36.3184781,136.361667 36.0384062,136.426243 C36.8188621,136.858143 37.1509405,137.378342 36.5328261,138.135756 C36.4019748,138.088073 36.2637281,138.037754 36.1059193,137.980487 C36.0050075,138.390224 36.3547395,138.560109 36.5365239,138.84369 C36.1697346,138.99788 36.2408261,139.219881 36.3591529,139.528741 C36.5851905,140.119026 36.7177118,140.739502 36.4558899,141.412932 C36.2383212,141.296839 36.0177706,141.19153 35.8102216,141.064895 C35.6341627,140.957549 35.5300304,140.98151 35.4117036,141.16062 C35.028215,141.741919 35.105867,142.12434 35.7408,142.63124 C35.8194062,142.694018 35.9137575,142.738466 35.9879503,142.805558 C36.2107673,143.007071 36.2238882,143.420283 35.9830598,143.597596 C35.6693507,143.828941 35.6778196,144.114439 35.758215,144.462835 C35.9013523,144.443547 36.0337542,144.425695 36.1659176,144.407844 C36.2883,144.829562 36.2113637,144.899409 35.4521399,145.005317 C35.5959928,145.205034 35.7145582,145.38666 35.8506578,145.554149 C36.0824209,145.839168 36.1765337,146.141678 36.0423425,146.502774 C35.981032,146.667507 35.9550288,146.84518 35.9069585,147.015184 C35.8104601,147.356632 35.8017526,147.787934 35.2453065,147.633144 C35.2453065,147.806983 35.2721448,147.93829 35.2389846,148.052106 C35.1912722,148.21624 35.1399814,148.419791 35.0187918,148.51312 C34.8006268,148.680848 34.7471889,148.847619 34.8286578,149.097774 C34.861818,149.200088 34.8923539,149.353799 34.8415402,149.424365 C34.6458,149.696565 34.6286235,149.941089 34.7486203,150.266123 C34.8676627,150.588761 35.0786709,150.754452 35.3520631,150.893547 C35.3723408,150.903851 35.3839111,150.931406 35.4447444,151.007842 C34.3724078,152.024996 34.6432951,153.463747 34.3017935,154.729978 C34.3428261,154.714882 34.3837395,154.699907 34.4247722,154.684811 C34.5312902,154.813243 34.6375696,154.941556 34.7440876,155.069988 C34.6132363,155.129651 34.4825042,155.189315 34.3517722,155.248978 L34.2782951,155.157806 C34.1975418,155.459357 34.1260925,155.764144 34.0310255,156.061143 C33.992617,156.181069 33.9168735,156.367008 33.8332575,156.381864 C33.1954618,156.495201 33.1547869,157.01504 33.0698588,157.488154 C33.026202,157.731121 33.1712477,158.032553 32.7959895,158.129356 C32.773684,158.135107 32.7617559,158.193213 32.7505435,158.228675 C32.4470925,159.19611 32.148532,160.165101 31.8397134,161.130738 C31.6783261,161.635122 31.4989275,162.133755 31.3274013,162.635024 C31.3152346,162.670966 31.3095092,162.731587 31.2876807,162.738297 C30.7603392,162.901233 30.7333817,163.424426 30.5267869,163.853811 C30.3826954,163.69998 30.2647265,163.573944 30.1443719,163.445392 C29.9027085,163.557171 29.6701105,163.664757 29.4373931,163.772343 C29.4166382,163.73736 29.3957641,163.702256 29.3748899,163.667273 C29.4557624,163.579575 29.5736121,163.504816 29.6093964,163.401184 C29.6748817,163.21177 29.7771056,162.960657 29.7037477,162.819046 C29.6358768,162.687978 29.3629618,162.645327 29.1717542,162.602556 C28.9762526,162.558947 28.7607118,162.516535 28.5711742,162.556431 C28.302434,162.612979 28.0495582,162.745365 27.739666,162.864692 C27.7008997,162.834381 27.6034471,162.758065 27.5157755,162.689296 C27.3095386,162.864452 27.1089078,163.034936 26.8701072,163.237648 C26.765617,163.006183 26.6905892,162.839772 26.6091203,162.658865 C26.0842837,162.69924 25.5315353,163.130302 25.0349683,162.53235 C24.7312788,162.982701 24.2417493,162.851393 23.812099,162.888054 C23.3533441,162.927351 22.8886252,162.89692 22.4083997,162.89692 C22.1874912,163.542315 22.7295042,163.917907 23.0302118,164.38599 C22.7155484,165.051752 22.3259765,164.985619 21.6866301,164.526402 C21.2265631,164.195977 20.9908637,164.216943 20.7042314,164.734506 C20.6354062,164.858745 20.5036007,164.952074 20.3900451,165.046481 C20.1657967,165.232899 19.835269,165.33114 19.8673556,165.721229 C19.8703376,165.759327 19.8226252,165.828934 19.7861252,165.838998 C19.4279242,165.938078 19.3905892,166.299293 19.199501,166.534952 C18.6956578,167.156506 18.9590304,167.867794 18.921934,168.54386 C18.9207412,168.567342 18.929568,168.608196 18.9436431,168.613348 C19.5262118,168.825405 19.3595761,169.528547 19.7704993,169.87239 C20.0762167,170.128416 20.0036938,170.726008 19.6970222,171.123166 C19.3825974,171.530626 19.0740173,171.94252 18.7600696,172.350459 C18.7242853,172.396824 18.663452,172.468708 18.626117,172.461999 C18.2767428,172.399819 17.829916,172.435282 17.6012542,172.229575 C16.8799618,171.580466 16.0891284,171.81229 15.2962673,171.892081 C15.1983376,171.902025 15.0961137,171.905739 15.0053408,171.938806 C14.8928588,171.979899 14.732068,172.023269 14.6946137,172.110248 C14.5824895,172.370467 14.3970075,172.427375 14.1496186,172.404132 C13.7920141,172.370467 13.4600549,172.394907 13.1649536,172.657283 C12.7945859,172.98639 12.3983343,172.729765 12.0203327,172.642307 C11.6920712,172.56647 11.3708474,172.457566 11.0497428,172.353215 C10.7716987,172.262761 10.4983065,172.157931 10.222648,172.05993 C10.1647967,172.039323 10.1045598,172.000506 10.0481399,172.004819 C9.72345686,172.029738 9.39948954,172.065081 9.02113007,172.102101 C9.11333431,171.920475 9.17989314,171.789407 9.21675098,171.716805 C9.45793725,171.772395 9.71212516,171.914125 9.84703203,171.839127 C9.98337026,171.763409 10.0567281,171.473239 10.0572052,171.276877 C10.0576824,171.04649 9.98265458,170.800049 9.88269706,170.588231 C9.60632288,170.002499 9.86456634,169.457142 10.507849,169.326194 C10.5792984,169.311578 10.6532526,169.309062 10.6929732,169.304629 C10.7713408,169.038659 10.8800059,168.804558 10.8963474,168.564227 C10.9061284,168.419502 10.8097493,168.219905 10.6953588,168.12418 C10.4499977,167.918712 10.1620533,167.764522 9.89092745,167.588886 C10.1163686,167.120204 9.97454346,166.694773 9.85955654,166.272217 C9.84130654,166.205245 9.74218399,166.107364 9.68803039,166.112036 C9.37670686,166.138873 9.30764314,165.927295 9.25158105,165.699184 C9.14673301,165.272794 9.0894781,164.828553 8.93238497,164.42313 C8.78900915,164.052689 8.54651078,163.719269 8.33395196,163.378061 C8.24103203,163.229022 8.12306307,163.092563 8.00068072,162.965689 C7.79694869,162.754351 7.73826242,162.5139 7.7132134,162.218698 C7.6634732,161.632966 7.56053366,161.044837 7.12014804,160.533146 C7.30682288,160.618328 7.50482941,160.68482 7.67790621,160.792166 C8.13379837,161.075148 8.57179837,161.388082 9.03365458,161.660401 C9.13361209,161.719346 9.38577222,161.708803 9.42525425,161.643508 C9.53344216,161.464398 9.56684085,161.239283 9.62600425,161.031299 C9.63149118,161.01213 9.61264477,160.982778 9.59928529,160.961932 C9.34116111,160.557346 9.08912026,160.148568 8.81775588,159.753208 C8.76073954,159.670062 8.63823791,159.610519 8.5350598,159.58512 C8.20512843,159.504131 8.27156797,159.266436 8.36305654,159.082533 C8.56070523,158.685256 9.03580163,158.589651 9.36799935,158.90558 C9.6552281,159.178977 9.80444869,159.117038 10.0971644,158.882817 C10.782434,158.334704 10.5907493,157.652408 10.5014078,156.97155 C10.481965,156.82299 10.4286464,156.676827 10.3761627,156.535096 C10.259983,156.221444 9.95557778,156.120687 9.66560556,156.292249 C9.35619052,156.475313 9.12526242,156.402471 8.98319869,156.072166 C8.81871013,155.689026 8.65267092,155.306365 8.49939477,154.918792 C8.44977386,154.792996 8.42758758,154.653182 8.41220033,154.517562 C8.38882124,154.309698 8.4620598,154.027914 8.35244052,153.904993 C8.0901415,153.61063 7.74899771,153.385394 7.43051732,153.144225 C7.35429673,153.086478 7.2406219,153.080607 7.14770196,153.04215 C6.81001732,152.902336 6.69741601,152.654577 6.80095196,152.299232 C6.90949771,151.926276 6.79641928,151.630115 6.55046176,151.329641 C6.36247484,151.099853 6.20633595,150.802495 6.15277876,150.513402 C6.08693562,150.158537 6.02717582,149.832544 5.78718235,149.542973 C5.6371268,149.362186 5.51903856,149.135992 5.45247974,148.910517 C5.40643725,148.75429 5.40786863,148.509047 5.50055,148.399903 C5.83739967,148.003944 5.75259085,147.415337 5.3772134,147.280555 L5.3772134,145.844679 C5.33570359,145.828026 5.29431307,145.811253 5.25280327,145.7946 C5.16167255,145.951785 5.0468049,146.100105 4.98549444,146.268193 C4.90831961,146.48013 4.88792255,146.712554 4.81563824,146.926887 C4.79154346,146.998292 4.68550261,147.081797 4.61274118,147.08587 C4.53807124,147.090063 4.41318399,147.021055 4.38825425,146.954562 C4.21947157,146.504211 4.0543866,146.10334 4.26527549,145.554389 C4.46196993,145.042817 4.35616765,144.412277 4.36881144,143.833853 C4.36988497,143.784373 4.2645598,143.725788 4.20098301,143.683017 C3.93427059,143.503907 3.93749118,143.180431 4.20992908,143.011504 C4.30451895,142.952799 4.39755817,142.891578 4.52244542,142.811668 C4.19680817,142.61255 3.73411699,143.066256 3.56593072,142.564867 C3.41038824,142.631599 3.28228039,142.68647 3.15405327,142.741342 C3.1186268,142.651607 3.02845033,142.529285 3.05838987,142.478727 C3.13950098,142.341668 3.25377222,142.166033 3.38736699,142.13093 C3.66958595,142.056889 3.67566928,141.897188 3.63189314,141.680459 C3.15894379,141.519679 3.00399771,141.031828 3.21011536,140.584233 C3.35683105,140.265908 3.39869869,139.899781 3.49686699,139.557734 C3.52609085,139.455779 3.56509575,139.340047 3.63749935,139.270559 C3.90480817,139.013934 4.00130654,138.712981 3.96432941,138.346135 C3.93570196,138.061716 3.89681634,137.769269 4.19585392,137.561285 C4.2797085,137.50294 4.32324608,137.337727 4.32610882,137.220078 C4.33255,136.965849 4.30189477,136.71821 4.58411373,136.568932 C4.62729346,136.546168 4.63492745,136.386587 4.6063,136.31015 C4.54558595,136.148772 4.46542908,135.989789 4.36594869,135.849256 C4.14957288,135.543751 4.06285556,135.251184 4.46196993,134.952029 C4.11080654,134.881103 3.84457124,134.827191 3.58072157,134.773877 C3.3583817,135.35254 1.88430654,136.405037 1.40825588,136.309312 C1.49831307,136.107558 1.51286536,135.898976 1.82526242,135.863993 C2.17237026,135.825175 2.39864641,135.381174 2.29558758,135.042123 C1.98438333,135.083096 2.00084412,135.640195 1.55747647,135.508887 C1.66661863,135.292398 1.8801317,135.052306 1.54208922,134.983178 C1.4786317,134.697081 1.42865294,134.471366 1.36984739,134.206475 C1.03943889,134.261945 0.737538562,134.312623 0.43730817,134.363062 C0.486213399,134.037309 0.535237908,133.710119 0.593685621,133.320629 C0.7008,133.43768 0.76127549,133.503573 0.914790196,133.671182 C0.95057451,133.398862 1.01271993,133.218075 0.987790196,133.050107 C0.947353922,132.777308 0.860994444,132.509422 0.773680719,132.246088 C0.677063072,131.95424 0.666924183,131.690068 0.847873529,131.41679 C0.90954183,131.323581 0.907394771,131.144351 0.863976471,131.032093 C0.691376797,130.586294 0.479652941,130.155711 0.306576144,129.710152 C0.237273856,129.531641 0.187175817,129.324856 0.203159477,129.13736 C0.251587582,128.572234 0.377548366,128.01286 0.0709960784,127.4687 C0.0223294118,127.38244 0.141371895,127.200694 0.218785294,127.071303 C-0.0987408497,125.894688 0.333295098,125.160037 1.58741601,124.875258 C1.82144542,125.531795 2.28079673,126.119444 2.0468866,126.911842 C1.95730654,127.21531 1.88025098,127.724846 2.27113497,127.803199 C2.59522157,127.868254 3.01079673,127.638226 3.33691111,127.452047 C3.47873627,127.371178 3.53229346,127.078612 3.56557288,126.872306 C3.65205163,126.335215 3.84063497,125.855511 4.18225588,125.426965 C4.25990784,125.329682 4.28269052,125.127929 4.24046503,125.005607 C4.08885882,124.565679 4.23664804,123.988932 4.57087353,123.702236 C4.66248137,123.623643 4.69456797,123.443216 4.70470686,123.305918 C4.79989314,122.017164 4.44407778,120.774894 4.29402222,119.511539 C4.21255327,118.82481 4.38849281,118.505048 5.05074118,118.376376 C5.11133595,118.364635 5.19375915,118.354212 5.22357941,118.312639 C5.43458758,118.018396 5.7220549,117.740206 5.81187353,117.409541 C5.89370033,117.107989 5.75891275,116.746534 5.71525588,116.412035 C5.70881471,116.363754 5.6805451,116.317029 5.65764314,116.272102 C5.53573791,116.034047 5.4665549,115.821272 5.72444052,115.600828 C5.95763497,115.401471 6.11675588,115.17348 6.48986699,115.398236 C6.84926078,115.614606 7.31266765,115.407941 7.59500588,115.06841 C7.71965458,114.918533 7.95642745,114.868094 8.12556797,114.748648 C8.30997647,114.618299 8.47911699,114.464827 8.6464683,114.312074 C8.70968725,114.254328 8.74153529,114.163035 8.80081797,114.099418 C9.72870523,113.103351 10.0886954,111.93584 9.8119634,110.596887 C9.74170686,110.256638 9.75566275,109.969583 10.0068686,109.731528 C10.5958784,109.173351 10.5216856,108.437502 10.4950859,107.744184 C10.4835157,107.442153 10.2296856,107.1539 10.1096889,106.849832 C10.0480206,106.693485 9.98241601,106.502873 10.0178425,106.351079 C10.0853556,106.062346 10.0276235,105.820578 9.85621667,105.608641 C9.38350588,105.023867 9.14267745,104.294128 9.14935719,103.610275 C9.15722974,102.784571 8.82586699,102.09976 8.60197647,101.306044 C9.24072647,101.182165 9.82818562,100.898943 10.4890026,101.013837 C10.5756007,101.028933 10.6641072,101.04343 10.7515402,101.042351 C11.2603931,101.036481 11.323135,100.988439 11.3764536,100.477226 C11.4221382,100.038616 11.5405843,99.6742855 11.9023637,99.3591954 C12.1275663,99.1631927 12.2350386,98.8037744 12.3355925,98.4979094 C12.4492673,98.1523886 12.5167804,97.7872197 12.5628229,97.4254053 C12.5846513,97.254442 12.5542346,97.0458596 12.4713343,96.8974198 C12.0580255,96.157737 11.6102444,95.4377024 11.1949078,94.6992176 C11.062148,94.4630798 10.8956317,94.3668755 10.6444258,94.4201892 C10.2986301,94.4937501 10.088934,94.3383616 9.89104673,94.0646047 C9.55061863,93.593647 9.15818399,93.1607875 8.81692092,92.6905486 C8.72089967,92.5580431 8.66674608,92.3398762 8.69549281,92.1795756 C9.06335556,90.1383194 9.45316601,88.1010168 9.82544216,86.0604794 C9.8578866,85.8826871 9.83534248,85.6808139 9.78703366,85.5043395 C9.44266928,84.2481726 9.06920033,82.9996733 8.74320523,81.7388339 C8.66937026,81.4532162 8.66424118,81.0976317 8.76658431,80.827469 C9.0825598,79.9934988 9.26064641,79.165399 9.03973791,78.2771566 C8.9296415,77.8344731 9.0114683,77.4309662 9.37491765,77.1096463 C9.72476895,76.8004267 9.77522484,76.4638914 9.58783431,76.0029974 C9.24108431,75.1494988 8.96948137,74.2642515 8.69406144,73.3834371 C8.64169706,73.2159482 8.66066275,72.9781331 8.7427281,72.8243021 C9.08756961,72.1773492 9.45567092,71.541658 9.84249935,70.918906 C10.0294127,70.6180729 10.1154144,70.3320957 9.97335065,69.9965188 C9.71737353,69.3918575 9.83045196,68.90221 10.3612526,68.4779766 C10.5442297,68.3318132 10.6159176,68.0402051 10.7274454,67.8096982 C10.818934,67.620165 10.8653343,67.4030763 10.9811562,67.2319932 C11.5910402,66.3316504 12.1855369,65.4178893 12.8479046,64.557442 C13.2540565,64.0299357 13.7865271,63.6091767 14.4444814,63.3973596 C14.480385,63.3857384 14.5193899,63.3810659 14.5529078,63.3646525 C15.9945386,62.6582758 17.3535075,63.3095417 18.7284601,63.6320597 C19.0692461,63.7119704 19.3958376,63.8620874 19.7196856,64.0015417 C19.9368964,64.0949904 20.0582052,64.0589288 20.168898,63.8389648 C20.4929846,63.1957259 20.8416431,62.5650666 21.1707395,61.9244634 C21.2318114,61.8053762 21.2795239,61.6620881 21.2778539,61.5306608 C21.2669993,60.6192958 21.2242967,59.7080507 21.2277559,58.7969253 C21.2296644,58.3246497 20.9586578,58.0813235 20.581849,57.9897917 C19.896818,57.8235008 19.4375859,57.3219925 18.89605,56.942926 C18.8361709,56.9009939 18.8102869,56.7119399 18.8513196,56.6365819 C19.9939127,54.5412931 21.1567837,52.4571463 22.2878065,50.3557474 C22.4544422,50.0461684 22.5181382,49.6641068 22.5590516,49.3073242 C22.6121317,48.8464302 22.7343948,48.4522681 23.1410239,48.1864184 C23.3849536,48.0268367 23.4401807,47.7909385 23.4506775,47.5019662 C23.4987477,46.1742751 23.5613703,44.8467037 23.6462984,43.5209295 C23.666934,43.1993699 23.7344471,42.8542086 23.8806856,42.5725445 C24.302702,41.7598997 24.2628621,40.9261691 24.1305794,40.0633256 C24.015831,39.3140583 23.9486758,38.557363 23.8644634,37.8035431 C23.8550402,37.7190798 23.8711431,37.6316213 23.8808049,37.4410098 C24.5042869,37.4410098 25.1175108,37.4262737 25.7294225,37.4465209 C26.0888163,37.4585015 26.3803392,37.3670895 26.6608882,37.1322695 C27.1544732,36.7191781 27.6657118,36.3248963 28.1917412,35.9546954 C28.4485533,35.773908 28.525251,35.5660445 28.4776578,35.277791 C28.3848572,34.7163796 28.3064895,34.1523325 28.1994944,33.5936767 C28.1478458,33.3237536 28.1677657,33.1116968 28.3865271,32.9129385 C29.3937363,31.9973803 29.9865631,30.8035126 30.5034078,29.5789745 C30.9838719,28.4403374 31.703733,27.5062093 32.6569078,26.7480763 C32.9546333,26.5113395 33.0797592,26.2349468 33.1551448,25.8695382 C33.369135,24.8339343 33.280032,23.8774025 32.6725337,22.9769399 C32.3775516,22.5396476 32.1537804,22.0505992 31.9306056,21.5696975 C31.861184,21.4200597 31.8684601,21.2154309 31.8941056,21.0441082 C31.9830892,20.4499898 32.3300778,20.1666483 32.9410353,20.1658097 C33.0605549,20.1655701 33.2202722,19.9838242 33.2929144,19.848683 C33.9663752,18.5925161 34.1331301,17.1868312 34.4604373,15.8271518 C34.5118474,15.6141366 34.6562967,15.3972875 34.8158948,15.2427377 C35.0962052,14.9717363 35.4216039,14.7480583 35.7277984,14.5038935 C36.0141922,14.2755431 36.3302869,14.0748679 36.5775565,13.8096172 C36.812898,13.5569461 36.9764324,13.2365846 37.1885141,12.9205361 C38.2750451,13.2541961 39.143769,14.0361705 40.1835418,14.6040514 C40.5515239,13.7087404 40.9707967,12.8661442 41.2303523,11.9764641 C41.3464127,11.5781089 41.1325418,11.0864247 41.0855451,10.6352349 C40.9873768,9.69403823 40.9078163,8.75092465 40.8046382,7.81032701 C40.773983,7.53022036 40.9230843,7.44072521 41.1258621,7.29575983 C41.7692641,6.83570443 42.3048359,6.91261994 42.7984209,7.50877507 C42.959331,7.70298075 43.1572183,7.74407424 43.4090206,7.67590457 C43.7235647,7.59072244 44.0489634,7.52482909 44.37305,7.50398283 C44.6377346,7.48685055 44.9250827,7.49691427 45.1719944,7.58317465 C46.394983,8.0106428 47.6111725,8.45859778 48.8216366,8.92057008 C49.0982493,9.02599945 49.2500941,8.97220651 49.4172069,8.73858463 C49.7907951,8.21623006 50.1921758,7.7137633 50.6171742,7.15726399 C50.1665304,6.91273975 49.7513131,6.68750429 49.3337101,6.46095097 C50.974898,4.56142535 51.4193392,2.61098213 49.5710794,0.506348476 C49.8358833,0.456628947 50.0350827,0.402236981 50.2375026,0.384505679 C50.8940255,0.32711856 51.5221595,-0.041165374 52.2025386,0.186825623 C52.391599,0.250203047 52.5731448,0.350600554 52.7404961,0.460941967 C52.9173899,0.577633102 53.0732902,0.726312465 53.2575794,0.87678892 C53.1634667,1.0415223 53.0722167,1.20122382 52.9807281,1.36104515 C53.1331693,1.6449856 53.2885925,1.84649945 53.6776873,1.80660402 C53.8548196,1.78839349 54.090519,1.9851151 54.2403359,2.14158186 C54.5174258,2.43127299 54.7556301,2.75942188 55.0000369,3.07930416 C55.0980859,3.20773629 55.1343474,3.35833255 55.373148,3.26224806 C55.5773572,3.18006108 55.7115484,3.34347659 55.6869765,3.55852853 C55.6405761,3.96503061 55.8305908,4.14629723 56.2039405,4.25232562 C56.4760206,4.32960055 56.7281807,4.48894266 56.9760467,4.63474668 C57.0630026,4.68590388 57.1661807,4.80547036 57.1659422,4.89352784 C57.1647493,5.26768227 57.3498735,5.25510263 57.6501039,5.2426428 C57.8611121,5.23389695 58.0745059,5.43169681 58.2968458,5.50717465 C58.5666595,5.59870651 58.6277314,5.7755403 58.6480092,6.04510402 C58.6774716,6.43555208 59.1572199,6.66030831 59.6948196,6.5440964 C59.9445941,6.48994404 60.1436742,6.48000014 60.2905092,6.68654584 C60.9359389,6.83019335 61.626934,6.84397105 62.1386497,7.42527022 C62.4022608,7.17571413 62.587385,7.15390942 62.6304454,7.58257562 C62.6380794,7.65913172 62.7714356,7.74263657 62.8639977,7.78672521 C63.0796578,7.88939903 63.3229912,7.94247313 63.5218327,8.06874875 C63.6598408,8.15632701 63.7483474,8.32776953 63.8478278,8.46961994 C63.9153408,8.56582424 63.9383621,8.72768227 64.0249601,8.77045305 C64.3333016,8.92248698 64.2991873,9.16233878 64.2913147,9.44148698 C64.2841578,9.69475706 64.3739765,9.95090249 64.4314699,10.2627578 C64.6802902,10.1298928 64.8213997,10.0546546 65.047318,9.93400983 C65.2110908,10.2955846 65.3684225,10.6432619 65.5259928,10.9908194 C65.6037641,11.1621421 65.6109209,11.3406532 65.904233,11.3712037 C66.1122592,11.3930084 66.3028703,11.6538263 66.4859667,11.8244302 C66.6324438,11.9610091 66.7557804,12.122388 66.9407853,12.2427931 C67.0770042,12.5438658 67.1390304,12.8556012 66.7133163,13.0451345 C66.5147134,13.1335514 66.3857706,13.7634918 66.4415941,14.0444371 C66.5043359,14.3606054 66.5812722,14.6848007 66.5698212,15.0025265 C66.5537183,15.4508409 66.6547493,15.8273914 66.8936693,16.2129274 C67.0300075,16.4327716 67.0117575,16.7619988 67.0172444,17.0428242 C67.0189144,17.1247716 66.8626562,17.2098339 66.8383229,17.2340348 C66.8224585,17.4877841 66.8732722,17.7149364 66.7866742,17.8581047 C66.5664814,18.221237 66.6690631,18.4410812 67.0232085,18.6291767 C67.2590271,18.3961539 67.5028376,18.4923582 67.7591725,18.6272598 C67.8454127,18.6726663 67.9668408,18.6475071 68.0709732,18.6626026 C68.1666366,18.6766199 68.2904503,18.6719475 68.3471088,18.729694 C68.4050794,18.7888783 68.4178425,18.9150341 68.4123556,19.0095611 C68.4042444,19.1464994 68.3267118,19.2858339 68.3428147,19.4159434 C68.3652395,19.5962515 68.4470663,19.7691317 68.5594291,19.9386573 C68.5766056,20.2762709 68.5013392,20.5714731 68.1047297,20.7165583 C67.7774225,20.8363644 67.7826709,21.1568457 67.8338425,21.4550431 C67.8462477,21.5275258 67.926166,21.6154634 67.904099,21.6625472 C67.6748408,22.150158 68.0589258,22.3993547 68.2846056,22.7172003 C68.390885,22.8668381 68.5355729,23.0515791 68.5243605,23.2105618 C68.4958523,23.616944 68.7180729,23.8382259 68.991465,24.0549551 C69.2095108,24.2277155 69.4230239,24.406586 69.6333163,24.5888111 C69.6860386,24.634577 69.7566529,24.7051428 69.7546252,24.7620507 C69.7391186,25.1910763 70.0336235,25.4454247 70.2661023,25.7413457 C70.3886039,25.8975729 70.4970304,26.0765632 70.5603686,26.2628616 C70.5926938,26.3581075 70.5436693,26.5675285 70.4763948,26.5964018 C70.0972003,26.7588589 70.2148114,27.0699953 70.2312722,27.340158 C70.2664601,27.9189413 70.3290827,28.4960472 70.3645092,29.0749503 C70.3704732,29.1724724 70.2981889,29.2756255 70.2587069,29.3748249 C70.1945337,29.5364434 70.1254699,29.6961449 70.0635631,29.8587217 C70.0510386,29.8917882 70.0692886,29.9651096 70.060581,29.9672661 C69.5752265,30.0858741 69.8190369,30.6796331 69.465965,30.8840223 C69.2566268,31.0051463 69.2778588,31.1682024 69.4258866,31.31796 C69.6883049,31.5838097 69.7122804,31.8895548 69.6019454,32.2228554 C69.492684,32.5535202 69.5322853,32.8653755 69.6792395,33.1781892 C69.780867,33.3947986 69.8809438,33.6201539 69.9290141,33.8525777 C70.0245582,34.3138312 70.3412493,34.4779655 70.7505026,34.5546414 C71.199715,34.6387453 71.3872248,34.8361857 71.4907608,35.2970798 C71.5207003,35.4303042 71.5705598,35.5600542 71.6224471,35.6869288 C72.0402886,36.7103125 72.4607542,37.7327377 72.9034062,38.8113519 C72.4157853,38.9371483 71.9739683,39.0700133 71.5232052,39.1538776 C71.414898,39.174005 71.2598327,39.0512037 71.1557003,38.9601511 C70.843184,38.687113 70.7242608,38.7113139 70.5195745,39.0766026 C70.3976693,39.2942903 70.2077739,39.4064288 69.9528703,39.2676934 C69.8321578,39.2020396 69.7149046,39.1296767 69.5501775,39.0335922 C69.4657265,39.2410964 69.3926072,39.4204461 69.30255,39.641728 C68.9359993,39.5062273 68.5777984,39.3738416 68.1294209,39.2081497 C68.0118098,39.6794669 67.9045761,40.109451 67.8037837,40.5129579 C67.3477722,40.3003021 66.8658768,40.0996269 66.4116546,39.8481539 C66.2859324,39.7785465 66.246331,39.5561864 66.1609258,39.4076269 C66.0325794,39.1846677 65.9147297,38.9522439 65.7579944,38.7509697 C65.7051529,38.6831594 65.5032101,38.6429046 65.4477444,38.687712 C65.3604307,38.7583976 65.2918441,38.9143852 65.2984046,39.0295188 C65.3265549,39.523719 65.4899699,39.9593339 65.8812118,40.2992238 C65.9965565,40.3993817 66.0380663,40.5850812 66.1135712,40.731604 C66.071465,40.7669468 66.0295974,40.8021698 65.9874912,40.8375126 C65.8618882,40.754487 65.7052722,40.6962612 65.6165271,40.5838831 C65.3805892,40.2849669 65.1593229,39.9909627 64.790983,40.1349697 C64.6247052,39.8199994 64.4983866,39.5444454 64.3360451,39.2924932 C64.2737804,39.1960493 64.0887755,39.072649 64.0288964,39.1023609 C63.875501,39.1784378 63.6570974,39.3265181 63.6486284,39.4579454 C63.6068801,40.0973506 63.5676366,40.7475382 63.6419487,41.380354 C63.6978915,41.8568229 63.9297739,42.3117266 64.0760124,42.7784911 C64.0990337,42.8518125 64.1159716,42.9767702 64.0781595,43.0085188 C64.013867,43.0625514 63.9042477,43.0641089 63.8124013,43.0812411 C63.7927199,43.0849551 63.7685059,43.059077 63.7453654,43.0494925 C63.0187052,42.7487792 62.9733784,42.775496 62.9731399,43.5306338 C62.5357363,43.573165 62.0945157,43.6159357 61.549282,43.66889 C61.7262951,43.8339828 61.8385386,43.9250355 61.9340827,44.0314233 C62.0456105,44.1556622 62.2530402,44.3298602 62.2241742,44.4180375 C62.1454487,44.6578893 62.0077984,44.9264946 61.8108654,45.0648706 C61.6263376,45.1945008 61.3176382,45.2514087 61.0957755,45.2002515 C60.6122101,45.088712 60.2321807,45.3250895 59.8329471,45.4855098 C59.7160516,45.532354 59.6314814,45.7366234 59.5996333,45.8835057 C59.5868703,45.9420909 59.7465876,46.058183 59.8458294,46.117487 C60.0623245,46.246638 60.2918212,46.3532654 60.5132069,46.4745091 C60.8569748,46.6628443 60.8976497,46.9884773 60.5686725,47.2163485 C60.3154389,47.3917446 60.2930141,47.5786421 60.3986971,47.8238852 C60.607081,48.3076622 60.589666,48.7675978 60.3161546,49.2300493 C60.1758801,49.4672654 60.0944111,49.7395846 59.9878931,49.9966885 C59.771398,50.5180846 59.6268294,51.0983055 58.877983,51.2050528 C59.1165451,51.598496 59.2168605,51.9091532 58.9217592,52.2782758 C58.6717461,52.5910895 58.5014127,52.9156442 57.9947069,52.6308651 C57.980751,52.6694427 57.9669144,52.7080202 57.9530778,52.7465978 C58.0836905,52.9840535 58.1596725,53.3180729 58.3599454,53.4323679 C58.5689258,53.5514551 58.8976644,53.4589648 59.2286693,53.4589648 C59.2081529,53.909915 59.5003915,54.338701 59.0937624,54.7303471 C59.0518948,54.7708416 59.0473621,54.9074205 59.0826693,54.9622917 C59.2788866,55.2670784 59.3930386,55.6227827 59.8977167,55.6312889 C60.1200565,55.6350029 60.3632706,55.9644697 60.5458899,56.1880278 C60.6574176,56.3246068 60.6784111,56.5394191 60.7281513,56.7222432 C60.798885,56.9821026 60.8613882,57.2414828 61.2602641,57.0346975 C61.2680173,57.1954773 61.3133441,57.324149 61.2720729,57.4114877 C61.0325565,57.9181476 60.9317641,58.5091511 60.4257739,58.8595839 C59.5405892,59.4727515 58.9734078,60.3602751 58.4201824,61.251872 C58.302452,61.4417647 58.2886154,61.7056975 58.2581987,61.9396788 C58.0982428,63.1637377 57.743501,64.3262162 57.2181873,65.4416109 C57.0905565,65.7126123 56.8851546,65.7908457 56.6254797,65.8241518 C56.2010778,65.8787834 55.7942101,66.3205084 55.7544895,66.7556442 C55.7286056,67.0400639 55.8100745,67.4029565 55.3322346,67.3839073 C55.3213801,67.3834281 55.3046807,67.3916947 55.2996709,67.4009198 C54.9172559,68.0998686 54.300215,67.7457217 53.7624961,67.7466802 C53.7137101,67.7468 53.6650435,67.7468 53.5920435,67.7468 C53.5683065,67.8781075 53.5715271,68.0119309 53.5176121,68.1161622 C53.4651284,68.2178776 53.3627853,68.300424 53.2674797,68.3715888 C53.1270859,68.4765389 52.943751,68.53764 52.832581,68.6649939 C52.6596235,68.8631532 52.5448752,69.1113914 52.3816987,69.319854 C52.1638915,69.5980438 52.0574928,69.881505 52.2247248,70.2221137 C52.3826529,70.5440327 52.0557036,70.5476269 51.9451301,70.7003796 C51.5102314,70.1580175 51.092867,69.6373402 50.6753833,69.1165431 C50.6133572,69.1315188 50.5512118,69.1464946 50.4893049,69.1614704 C50.4559062,69.3592702 50.3727673,69.5650971 50.4029454,69.7527134 C50.4352706,69.9536283 50.5741137,70.1371712 50.7195173,70.4382439 C50.3351938,70.4792176 50.0170712,70.5132425 49.6419324,70.5533776 C49.5942199,70.9368769 49.5202657,71.3831546 49.4899683,71.8323076 C49.4727918,72.0861767 49.402416,72.2504309 49.1348686,72.2654066 C48.825215,72.2826587 48.7608033,72.4718325 48.7986154,72.7312127 C48.8692297,73.2146303 48.7531693,73.6280812 48.336282,73.9726435 C47.9913212,73.5335542 47.666519,73.7472882 47.3276415,74.0160133 C47.0132167,74.2653298 46.6947363,74.5239911 46.2400369,74.4279066 C46.1802771,74.4152072 46.0624275,74.4881691 46.0333229,74.5505881 C45.7976235,75.0553312 45.3450712,75.4794447 45.4722248,76.1265175 C45.1785549,76.2043914 44.7994797,76.1592245 44.8542297,76.6759482 C45.0132314,76.6967945 45.193465,76.7301006 45.3751301,76.7418416 C45.6265745,76.758255 45.771501,76.8475105 45.6554405,77.1215071 C45.446818,77.6139101 45.2290108,78.1022398 45.016452,78.5888921 C44.6278343,78.4870569 44.414202,77.8410625 44.0097199,78.4428485 C44.0783065,78.5329427 44.1520222,78.6301054 44.2549618,78.7657259 C43.8416529,79.0961511 43.6044029,79.7330403 42.8093948,79.4012972 C42.8456562,79.6418679 42.8698703,79.801809 42.8963507,79.9780438 C43.1399225,79.9504884 43.3353049,79.9282044 43.6527118,79.8922626 C43.322184,80.3953284 43.0439013,80.8187231 42.7510663,81.264282 C42.8747608,81.3664766 43.0176595,81.4847252 43.2125647,81.6456248 C42.5702363,81.9792848 42.1154176,82.440658 42.0527951,83.1651255 C41.7482706,83.198791 41.5111399,82.69896 41.2633931,83.1052224 C41.1269356,83.3289004 41.08805,83.6126012 40.999782,83.886478 C40.4248474,84.0237758 40.209068,83.5636006 40.0190533,83.0977945 C39.8976252,82.7995971 39.6828,82.8442848 39.5025663,82.954746 C39.4035631,83.0154877 39.361099,83.2076566 39.343684,83.3469911 C39.3359307,83.4088111 39.4528261,83.5469475 39.513898,83.5474267 C40.0305042,83.5513803 40.06605,83.9209821 40.1082755,84.2947771 C40.1181758,84.3818762 40.1408392,84.4675375 40.1637412,84.5851871 C39.8456186,84.6744427 39.5127052,84.7542335 39.5480124,85.2007508 C39.5705565,85.4863686 40.0330092,86.0801276 40.3195222,86.1461407 C40.5121611,86.1905888 40.7069471,86.2264108 40.8994667,86.265827 C40.9049536,86.6428568 40.8209797,86.8849849 40.4190026,86.925719 C40.3061627,86.9371006 40.1404814,87.0911712 40.1165059,87.2047474 C40.0127314,87.696791 39.964184,88.2004558 39.8713833,88.6953748 C39.819019,88.975122 39.7311088,89.250077 39.6389046,89.5201199 C39.4843163,89.972388 39.2933474,90.4132744 39.1616611,90.8715327 C39.1228948,91.0067938 39.223568,91.1874614 39.274501,91.3427301 C39.3494095,91.5712003 39.5012542,91.794399 39.5051905,92.0219108 C39.5121088,92.4217037 39.6022853,92.7237349 40.0152363,92.8403062 C40.2338784,92.9020064 40.2776546,93.0418201 40.2446137,93.2433339 C40.2078752,93.4671317 40.182349,93.6928464 40.1429863,93.982897 C39.6391431,93.8134911 39.5608948,93.0612287 38.8843327,93.1794773 C38.6269242,93.7683242 38.3201333,94.4037758 38.0810941,95.0637875 C38.0236007,95.2227702 38.1707935,95.4729253 38.2594193,95.6643755 C38.3660565,95.8942834 38.3431546,96.0839364 38.2259013,96.3064163 C37.851001,97.0178249 37.9156513,97.3537612 38.489751,97.8999572 C38.9103359,98.2997501 38.9214291,98.8840445 38.4728131,99.2753312 C38.2259013,99.4906227 38.1935761,99.703638 38.2390222,100.007107 C38.3095173,100.478783 38.3141693,100.960164 38.3617624,101.435794 C38.3720206,101.539067 38.4190173,101.669057 38.4945222,101.729679 C38.7462052,101.932031 38.7691072,102.129232 38.6157118,102.416767 C38.5455745,102.548194 38.5895892,102.7672 38.6386137,102.929297 C38.6884732,103.09427 38.7929634,103.249659 38.9001971,103.388514 C39.1078654,103.657359 39.1473474,103.927282 38.9749863,104.226438 C38.8703768,104.408303 38.9097395,104.551592 39.0840092,104.680743 C39.2549389,104.807497 39.4046366,104.963485 39.5963212,105.136125 C39.3490516,105.402574 39.1139487,105.655844 38.8740745,105.914146 C39.5546922,106.565891 40.3976513,106.336103 41.1468556,106.394449 C41.2650631,106.830423 41.3604879,107.244114 41.4964683,107.644146 C41.5334454,107.75281 41.7031824,107.900411 41.7924046,107.888071 C41.9523605,107.865788 42.1813801,107.769823 42.2321938,107.643907 C42.3455108,107.362842 42.515367,107.187326 42.7756382,107.053263 C43.167715,106.85103 43.6420958,107.078062 43.6590337,107.529731 C43.6766873,108.001288 43.8489291,108.382152 44.1627575,108.71713 C44.6357069,109.221873 45.0702477,109.774299 45.7722167,109.984798 C46.1391252,110.0949 46.3465549,109.892787 46.2659209,109.508209 C46.1885075,109.138607 46.0960647,108.770563 46.0508572,108.396888 C46.037617,108.287745 46.1640549,108.161589 46.2773719,108.056878 C46.5747395,108.799676 46.4613033,109.722542 47.4009993,110.044222 C47.4537216,110.468934 47.1064944,110.355478 46.8573163,110.413943 C47.0705908,110.65715 47.2814797,110.839375 47.4190108,111.066527 C47.7070745,111.542637 47.5966203,111.724742 47.0559193,111.736962 C46.914452,112.210675 46.9861399,112.418779 47.3239438,112.516061 C48.2175974,112.773045 48.2175974,112.773045 48.4833556,111.746906 C48.7859716,111.928652 48.9307788,112.143105 48.8316562,112.52289 C48.7914585,112.67708 48.9091889,112.878475 48.9715729,113.052313 C49.0256072,113.20267 49.118885,113.339369 49.1670745,113.491043 C49.2622608,113.791277 49.3269111,114.101575 49.4248408,114.400851 C49.5919536,114.911464 50.0012069,115.207265 50.4096252,115.510614 C50.5596807,115.622034 50.7574487,115.814682 50.7516039,115.963002 C50.7369324,116.339074 50.6248082,116.40305 50.1753572,116.496499 L50.1753572,117.07061 C50.3511775,117.115058 50.5420271,117.16322 50.728702,117.210303 C50.8996317,117.820955 50.7545859,117.983532 50.1229928,117.916441 C49.753818,117.877144 49.403251,117.91668 49.0715304,118.124304 C48.8363082,118.271426 48.7219176,118.42969 48.7031905,118.722975 C48.6759944,119.147089 48.4738131,119.478832 48.1084552,119.7581 C47.6178523,120.132973 47.213251,120.619146 46.7399438,121.019778 C46.6034863,121.135391 46.3581252,121.121613 46.115269,121.178161 C46.0638588,121.251962 45.9605614,121.400282 45.872532,121.526677 C45.905215,121.691171 45.9989699,122.015966 45.9677183,122.028545 C45.7162739,122.130021 45.4556448,122.12451 45.2696856,121.833141 C45.3513931,121.743526 45.4303572,121.657026 45.5331775,121.544289 C45.3736987,121.461623 45.2403425,121.392614 45.0348212,121.285987 C44.8994373,121.626955 44.7697788,121.953666 44.588233,122.411086 C44.7359029,122.510525 44.9509667,122.655371 45.1661497,122.800336 C45.144202,122.824776 45.1223735,122.849217 45.1004258,122.873657 C44.945599,122.860838 44.7885059,122.860479 44.6366611,122.831725 C44.4705026,122.800216 44.3092346,122.74247 44.1399748,122.694547 C44.1092003,122.779011 44.072581,122.879767 44.0200974,123.023535 C43.8055108,122.900734 43.6165696,122.792668 43.4276284,122.684603 L43.4382444,122.696704 Z"/>
    <path fill="#000" d="M10.2231848,143.777604 C10.2231848,144.129954 9.38129918,144.415572 8.3428384,144.415572 C7.30437761,144.415572 6.46261127,144.129954 6.46261127,143.777604 C6.46261127,143.425374 7.30437761,143.139637 8.3428384,143.139637 C9.38129918,143.139637 10.2231848,143.425374 10.2231848,143.777604"/>
    <path fill="#690" d="M8.35359755,137.02435 C6.44366944,137.02435 4.89528219,135.469148 4.89528219,133.550812 C4.89528219,131.632597 6.44366944,130.077394 8.35359755,130.077394 C10.2635257,130.077394 11.8119129,131.632597 11.8119129,133.550812 C11.8119129,135.469148 10.2635257,137.02435 8.35359755,137.02435 M8.35168905,128.659729 C5.65259755,128.659729 3.46486389,130.857092 3.46486389,133.568064 C3.46486389,136.278438 8.35168905,142.921206 8.35168905,142.921206 C8.35168905,142.921206 13.2380371,136.278438 13.2380371,133.568064 C13.2380371,130.857092 11.0503034,128.659729 8.35168905,128.659729"/>
    <path fill="#457F00" d="M8.35359755,136.665747 C6.65801748,136.665747 5.28354199,135.285341 5.28354199,133.582297 C5.28354199,131.879254 6.65801748,130.498608 8.35359755,130.498608 C10.0491776,130.498608 11.4236531,131.879254 11.4236531,133.582297 C11.4236531,135.285341 10.0491776,136.665747 8.35359755,136.665747 M8.35359755,130.020462 C6.41253709,130.020462 4.83874297,131.601304 4.83874297,133.550788 C4.83874297,135.500393 6.41253709,137.081234 8.35359755,137.081234 C10.294658,137.081234 11.8684521,135.500393 11.8684521,133.550788 C11.8684521,131.601304 10.294658,130.020462 8.35359755,130.020462"/>
    <text fill="#000" font-family="LucidaGrande, Lucida Grande" font-size="3.024">
      <tspan x="0" y="134">WPF</tspan>
    </text>
  </g>
</svg>
