<svg xmlns="http://www.w3.org/2000/svg" xmlns:xlink="http://www.w3.org/1999/xlink" width="50" height="43" viewBox="0 0 50 43">
  <defs>
    <filter id="menu-5-a" width="109.6%" height="106.6%" x="-4.8%" y="-2.6%" filterUnits="objectBoundingBox">
      <feOffset dy="2" in="SourceAlpha" result="shadowOffsetOuter1"/>
      <feGaussianBlur in="shadowOffsetOuter1" result="shadowBlurOuter1" stdDeviation="3"/>
      <feColorMatrix in="shadowBlurOuter1" result="shadowMatrixOuter1" values="0 0 0 0 0.399606718   0 0 0 0 0.397391411   0 0 0 0 0.397391411  0 0 0 0.5 0"/>
      <feMerge>
        <feMergeNode in="shadowMatrixOuter1"/>
        <feMergeNode in="SourceGraphic"/>
      </feMerge>
    </filter>
    <polygon id="menu-5-b" points=".249 .208 10.382 .208 10.382 6.382 .249 6.382 .249 .208"/>
    <polygon id="menu-5-d" points="7.068 .361 .101 .361 .101 .126 7.068 .126 7.068 .361"/>
    <polygon id="menu-5-f" points="1.704 .361 .343 .361 .343 .126 1.704 .126 1.704 .361"/>
    <polygon id="menu-5-h" points="2.397 1.361 .877 1.361 .877 .129 2.397 .129"/>
    <polygon id="menu-5-j" points="10.943 1.361 .233 1.361 .233 .129 10.943 .129 10.943 1.361"/>
    <polygon id="menu-5-l" points="0 1.648 0 .221 1.428 .221 1.428 1.648"/>
  </defs>
  <g fill="none" fill-rule="evenodd" filter="url(#menu-5-a)" transform="translate(5.948 3.872)">
    <polygon stroke="#231F20" stroke-width=".567" points="5.452 8.979 11.828 8.979 11.828 15.925 18.2 11.144 18.2 15.925 24.576 11.144 24.576 15.925 30.95 11.144 30.95 27.081 5.452 27.081"/>
    <polygon stroke="#231F20" stroke-linecap="round" stroke-linejoin="round" stroke-width=".567" points="5.453 7.957 11.828 7.957 11.828 6.364 5.453 6.364"/>
    <polygon stroke="#231F20" stroke-linecap="round" stroke-linejoin="round" stroke-width=".567" points="5.453 5.341 11.828 5.341 11.828 1.582 5.453 1.582"/>
    <polygon stroke="#231F20" stroke-linecap="round" stroke-linejoin="round" stroke-width=".595" points="13.42 19.112 16.607 19.112 16.607 17.518 13.42 17.518"/>
    <polygon stroke="#231F20" stroke-linecap="round" stroke-linejoin="round" stroke-width=".595" points="19.713 19.112 22.9 19.112 22.9 17.518 19.713 17.518"/>
    <polygon stroke="#231F20" stroke-linecap="round" stroke-linejoin="round" stroke-width=".595" points="26.005 19.112 29.192 19.112 29.192 17.518 26.005 17.518"/>
    <polygon stroke="#231F20" stroke-linecap="round" stroke-linejoin="round" stroke-width=".595" points="13.42 22.342 16.607 22.342 16.607 20.749 13.42 20.749"/>
    <polygon stroke="#231F20" stroke-linecap="round" stroke-linejoin="round" stroke-width=".595" points="19.713 22.342 22.9 22.342 22.9 20.749 19.713 20.749"/>
    <polygon stroke="#231F20" stroke-linecap="round" stroke-linejoin="round" stroke-width=".595" points="26.005 22.342 29.192 22.342 29.192 20.749 26.005 20.749"/>
    <g transform="translate(0 .153)">
      <path fill="#CED5DF" d="M31.3367746,4.57370072 C31.3231666,4.57370072 31.3109194,4.57642232 31.2986722,4.57642232 C31.3095586,4.49613512 31.3177234,4.41720872 31.3177234,4.33419992 C31.3177234,3.43879352 30.592417,2.71212632 29.6970106,2.71212632 C29.462953,2.71212632 29.2411426,2.76247592 29.041105,2.85228872 C28.7430898,2.16236312 28.0558858,1.67791832 27.2570962,1.67791832 C26.510017,1.67791832 25.863637,2.10112712 25.537045,2.71893032 C25.5247978,2.71756952 25.5125506,2.71620872 25.5003034,2.71620872 C24.6334738,2.71620872 23.931301,3.41838152 23.931301,4.28521112 C23.931301,4.29201512 23.9326618,4.29745832 23.9326618,4.30290152 C23.2890034,4.59683432 22.842661,5.24185352 22.842661,5.99437592 C22.842661,7.02177992 23.6741098,7.85322872 24.7015138,7.85322872 L31.3367746,7.85322872 C32.2417066,7.85322872 32.9765386,7.11975752 32.9765386,6.21346472 C32.9765386,5.30853272 32.2417066,4.57370072 31.3367746,4.57370072"/>
      <g transform="translate(28.216)">
        <mask id="menu-5-c" fill="#fff">
          <use xlink:href="#menu-5-b"/>
        </mask>
        <path fill="#E5E8EE" d="M8.743328,3.10390064 C8.72972,3.10390064 8.7174728,3.10526144 8.7052256,3.10526144 C8.716112,3.02497424 8.7242768,2.94604784 8.7242768,2.86303904 C8.7242768,1.96763264 7.9989704,1.24096544 7.103564,1.24096544 C6.8695064,1.24096544 6.647696,1.29267584 6.4476584,1.38112784 C6.1482824,0.69120224 5.4624392,0.20811824 4.6622888,0.20811824 C3.9165704,0.20811824 3.2701904,0.62996624 2.9435984,1.24776944 C2.9313512,1.24776944 2.919104,1.24504784 2.9068568,1.24504784 C2.0386664,1.24504784 1.3378544,1.94722064 1.3378544,2.81405024 L1.3378544,2.83310144 C0.6955568,3.12567344 0.2492144,3.77069264 0.2492144,4.52321504 C0.2492144,5.55061904 1.0806632,6.38206784 2.1080672,6.38206784 L8.743328,6.38206784 C9.64826,6.38206784 10.3817312,5.64859664 10.3817312,4.74230384 C10.3817312,3.83737184 9.64826,3.10390064 8.743328,3.10390064" mask="url(#menu-5-c)"/>
      </g>
      <g transform="translate(14.969 31.298)">
        <mask id="menu-5-e" fill="#fff">
          <use xlink:href="#menu-5-d"/>
        </mask>
        <path stroke="#231F20" stroke-linecap="round" stroke-width=".567" d="M0.10083528,0.12592592 L7.06813128,0.12592592" mask="url(#menu-5-e)"/>
      </g>
      <g transform="translate(22.773 31.298)">
        <mask id="menu-5-g" fill="#fff">
          <use xlink:href="#menu-5-f"/>
        </mask>
        <path stroke="#231F20" stroke-linecap="round" stroke-width=".567" d="M0.34338176,0.12592592 L1.58307056,0.12592592" mask="url(#menu-5-g)"/>
      </g>
      <path stroke="#231F20" stroke-linecap="round" stroke-width=".567" d="M24.4398319 29.9997044L31.4084887 29.9997044M32.4876031 29.9997044L33.7259311 29.9997044"/>
      <g transform="translate(4.082 30.298)">
        <mask id="menu-5-i" fill="#fff">
          <use xlink:href="#menu-5-h"/>
        </mask>
        <path stroke="#231F20" stroke-linecap="round" stroke-width=".567" d="M0.87689952,0.12913992 L2.39691312,0.12913992" mask="url(#menu-5-i)"/>
      </g>
      <g transform="translate(7.804 30.298)">
        <mask id="menu-5-k" fill="#fff">
          <use xlink:href="#menu-5-j"/>
        </mask>
        <path stroke="#231F20" stroke-linecap="round" stroke-width=".567" d="M0.23302088,0.12913992 L10.9425169,0.12913992" mask="url(#menu-5-k)"/>
      </g>
      <g transform="translate(1.36 28.938)">
        <path fill="#FEFEFE" d="M0.06763176,0.10124352 L36.6350494,0.10124352"/>
        <path stroke="#231F20" stroke-width=".567" d="M0.06763176,0.10124352 L36.6350494,0.10124352"/>
      </g>
      <path stroke="#231F20" stroke-linecap="round" stroke-width=".595" d="M19.5985138 5.45073632L19.229737 5.81951312M18.4476852 6.60170096L18.0789084 6.97047776M19.5985138 6.96979736L19.229737 6.60102056M18.4476852 5.8189688L18.0789084 5.450192M3.89488176 18.9591258L3.52610496 19.3279026M2.7440532 20.1099543L2.3752764 20.4787311M3.89488176 20.4780507L3.52610496 20.1092739M2.7440532 19.3272222L2.3752764 18.9584454"/>
      <path fill="#40B8B9" d="M33.8218675 15.8162221C33.8218675 16.2108541 33.5020795 16.5292813 33.1074475 16.5292813 32.7128155 16.5292813 32.3930275 16.2108541 32.3930275 15.8162221 32.3930275 15.4215901 32.7128155 15.1018021 33.1074475 15.1018021 33.5020795 15.1018021 33.8218675 15.4215901 33.8218675 15.8162221M2.8569996 14.7158792C2.8569996 15.1105112 2.5372116 15.4302992 2.1425796 15.4302992 1.7493084 15.4302992 1.4281596 15.1105112 1.4281596 14.7158792 1.4281596 14.322608 1.7493084 14.00282 2.1425796 14.00282 2.5372116 14.00282 2.8569996 14.322608 2.8569996 14.7158792M36.3268282 20.5963042C36.3268282 20.9895754 36.0070402 21.3093634 35.613769 21.3093634 35.219137 21.3093634 34.8979882 20.9895754 34.8979882 20.5963042 34.8979882 20.2016722 35.219137 19.8818842 35.613769 19.8818842 36.0070402 19.8818842 36.3268282 20.2016722 36.3268282 20.5963042"/>
      <g transform="translate(0 23.134)">
        <mask id="menu-5-m" fill="#fff">
          <use xlink:href="#menu-5-l"/>
        </mask>
        <path fill="#40B8B9" d="M1.42843176,0.93519368 C1.42843176,1.32846488 1.10864376,1.64825288 0.71537256,1.64825288 C0.32074056,1.64825288 -0.00040824,1.32846488 -0.00040824,0.93519368 C-0.00040824,0.54056168 0.32074056,0.22077368 0.71537256,0.22077368 C1.10864376,0.22077368 1.42843176,0.54056168 1.42843176,0.93519368" mask="url(#menu-5-m)"/>
      </g>
      <path stroke="#231F20" stroke-linecap="round" stroke-width=".567" d="M36.0331675 12.3291721L35.8304083 12.5319313M35.3965853 12.9657543L35.1938261 13.1685135M36.0331675 13.1690578L35.8304083 12.9662986M35.3965853 12.5324756L35.1938261 12.3297164"/>
      <path fill="#FEFEFE" d="M32.9792602,22.591101 L32.1151522,22.203273 L32.0865754,22.2549834 C31.898785,22.5870186 31.5354514,22.7666442 31.1557882,22.7421498 C31.0809442,22.7367066 31.007461,22.733985 30.932617,22.7353458 C30.551593,22.7367066 30.197785,22.5380298 30.0304066,22.1951082 L30.0031906,22.142037 L29.1186706,22.4795154 L29.1350002,22.5353082 C29.2370602,22.9027242 29.1050626,23.2878306 28.8192946,23.5395786 C28.7635018,23.5885674 28.7090698,23.6402778 28.6573594,23.693349 C28.3906426,23.9641482 28.000093,24.0716514 27.639481,23.9478186 L27.5823274,23.9274066 L27.1958602,24.7915146 L27.2475706,24.8214522 C27.578245,25.0078818 27.7578706,25.3712154 27.734737,25.7508786 C27.7292938,25.8257226 27.727933,25.9005666 27.727933,25.9740498 C27.7292938,26.3564346 27.5292562,26.7088818 27.1863346,26.8762602 L27.1332634,26.9034762 L27.4707418,27.7866354 L27.5278954,27.7716666 C27.8953114,27.6682458 28.279057,27.8002434 28.530805,28.0873722 C28.5811546,28.143165 28.6315042,28.1962362 28.6845754,28.2479466 C28.9553746,28.5160242 29.0628778,28.9079346 28.939045,29.2671858 L28.9213546,29.3229786 L29.782741,29.7108066 L29.8126786,29.6590962 C30.000469,29.327061 30.3638026,29.1474354 30.7434658,29.1719298 C30.8183098,29.177373 30.891793,29.1800946 30.966637,29.1787338 C31.347661,29.177373 31.701469,29.3760498 31.8702082,29.7189714 L31.8947026,29.7720426 L32.7805834,29.4345642 L32.7642538,29.3787714 C32.6621938,29.0113554 32.7928306,28.6276098 33.0799594,28.374501 C33.1343914,28.3255122 33.1888234,28.2751626 33.2405338,28.2220914 C33.5099722,27.9499314 33.9005218,27.8424282 34.259773,27.966261 L34.3155658,27.986673 L34.7047546,27.122565 L34.6516834,27.0939882 C34.3196482,26.9061978 34.1413834,26.5428642 34.1658778,26.163201 C34.1699602,26.088357 34.1726818,26.0148738 34.1726818,25.9400298 C34.1699602,25.5590058 34.368637,25.2051978 34.7115586,25.0378194 L34.7646298,25.0106034 L34.4285122,24.1274442 L34.3713586,24.1437738 C34.0039426,24.2458338 33.620197,24.1138362 33.3670882,23.8267074 C33.3180994,23.7709146 33.2677498,23.7178434 33.2146786,23.666133 C32.9438794,23.3980554 32.837737,23.0075058 32.9588482,22.6468938 L32.9792602,22.591101 Z"/>
      <path stroke="#231F20" stroke-linejoin="round" stroke-width=".567" d="M32.9792602,22.591101 L32.1151522,22.203273 L32.0865754,22.2549834 C31.898785,22.5870186 31.5354514,22.7666442 31.1557882,22.7421498 C31.0809442,22.7367066 31.007461,22.733985 30.932617,22.7353458 C30.551593,22.7367066 30.197785,22.5380298 30.0304066,22.1951082 L30.0031906,22.142037 L29.1186706,22.4795154 L29.1350002,22.5353082 C29.2370602,22.9027242 29.1050626,23.2878306 28.8192946,23.5395786 C28.7635018,23.5885674 28.7090698,23.6402778 28.6573594,23.693349 C28.3906426,23.9641482 28.000093,24.0716514 27.639481,23.9478186 L27.5823274,23.9274066 L27.1958602,24.7915146 L27.2475706,24.8214522 C27.578245,25.0078818 27.7578706,25.3712154 27.734737,25.7508786 C27.7292938,25.8257226 27.727933,25.9005666 27.727933,25.9740498 C27.7292938,26.3564346 27.5292562,26.7088818 27.1863346,26.8762602 L27.1332634,26.9034762 L27.4707418,27.7866354 L27.5278954,27.7716666 C27.8953114,27.6682458 28.279057,27.8002434 28.530805,28.0873722 C28.5811546,28.143165 28.6315042,28.1962362 28.6845754,28.2479466 C28.9553746,28.5160242 29.0628778,28.9079346 28.939045,29.2671858 L28.9213546,29.3229786 L29.782741,29.7108066 L29.8126786,29.6590962 C30.000469,29.327061 30.3638026,29.1474354 30.7434658,29.1719298 C30.8183098,29.177373 30.891793,29.1800946 30.966637,29.1787338 C31.347661,29.177373 31.701469,29.3760498 31.8702082,29.7189714 L31.8947026,29.7720426 L32.7805834,29.4345642 L32.7642538,29.3787714 C32.6621938,29.0113554 32.7928306,28.6276098 33.0799594,28.374501 C33.1343914,28.3255122 33.1888234,28.2751626 33.2405338,28.2220914 C33.5099722,27.9499314 33.9005218,27.8424282 34.259773,27.966261 L34.3155658,27.986673 L34.7047546,27.122565 L34.6516834,27.0939882 C34.3196482,26.9061978 34.1413834,26.5428642 34.1658778,26.163201 C34.1699602,26.088357 34.1726818,26.0148738 34.1726818,25.9400298 C34.1699602,25.5590058 34.368637,25.2051978 34.7115586,25.0378194 L34.7646298,25.0106034 L34.4285122,24.1274442 L34.3713586,24.1437738 C34.0039426,24.2458338 33.620197,24.1138362 33.3670882,23.8267074 C33.3180994,23.7709146 33.2677498,23.7178434 33.2146786,23.666133 C32.9438794,23.3980554 32.837737,23.0075058 32.9588482,22.6468938 L32.9792602,22.591101 Z"/>
      <path stroke="#231F20" stroke-dasharray=".397 .793" stroke-width=".567" d="M31.9507675,23.7272329 C33.1822915,24.2797177 33.7334155,25.7262481 33.1795699,26.9577721 C32.6270851,28.1892961 31.1819155,28.7404201 29.9490307,28.1865745 C28.7175067,27.6340897 28.1663827,26.1889201 28.7188675,24.9560353 C29.2713523,23.7245113 30.7192435,23.1747481 31.9507675,23.7272329 Z"/>
      <path fill="#40B8B9" d="M31.7433816,24.1870472 C32.7217968,24.6252248 33.1586136,25.77374 32.720436,26.7521552 C32.2822584,27.7292096 31.1337432,28.1660264 30.155328,27.7278488 C29.1769128,27.2883104 28.740096,26.141156 29.1782736,25.1627408 C29.617812,24.1856864 30.7663272,23.7488696 31.7433816,24.1870472"/>
      <path fill="#FEFEFE" d="M31.3473888,25.0721115 C31.8345552,25.2912003 32.0550048,25.8654579 31.8345552,26.3539851 C31.6154664,26.8425123 31.0412088,27.0616011 30.5526816,26.8425123 C30.0641544,26.6234235 29.8450656,26.0491659 30.0655152,25.5592779 C30.284604,25.0721115 30.8588616,24.8530227 31.3473888,25.0721115"/>
      <path stroke="#231F20" stroke-linejoin="round" stroke-width=".567" d="M31.3473888,25.0721115 C31.8345552,25.2912003 32.0550048,25.8654579 31.8345552,26.3539851 C31.6154664,26.8425123 31.0412088,27.0616011 30.5526816,26.8425123 C30.0641544,26.6234235 29.8450656,26.0491659 30.0655152,25.5592779 C30.284604,25.0721115 30.8588616,24.8530227 31.3473888,25.0721115 Z"/>
    </g>
  </g>
</svg>
