<svg xmlns="http://www.w3.org/2000/svg" width="48" height="46" viewBox="0 0 48 46">
  <defs>
    <filter id="menu-8-a" width="110.4%" height="119.3%" x="-5.2%" y="-7%" filterUnits="objectBoundingBox">
      <feOffset dy="2" in="SourceAlpha" result="shadowOffsetOuter1"/>
      <feGaussianBlur in="shadowOffsetOuter1" result="shadowBlurOuter1" stdDeviation="3"/>
      <feColorMatrix in="shadowBlurOuter1" result="shadowMatrixOuter1" values="0 0 0 0 0.399606718   0 0 0 0 0.397391411   0 0 0 0 0.397391411  0 0 0 0.5 0"/>
      <feMerge>
        <feMergeNode in="shadowMatrixOuter1"/>
        <feMergeNode in="SourceGraphic"/>
      </feMerge>
    </filter>
  </defs>
  <g fill="none" fill-rule="evenodd" filter="url(#menu-8-a)" transform="translate(6 3)">
    <polygon stroke="#0F0F0F" stroke-linecap="round" stroke-linejoin="round" stroke-width=".327" points="7.027 12.642 6.373 12.647 4.938 17.896 6.248 17.886"/>
    <polygon stroke="#0F0F0F" stroke-linecap="round" stroke-linejoin="round" stroke-width=".327" points="6.247 17.886 6.745 18.865 8.055 18.855 8.375 17.87 8.827 12.628 8.34 13.123 7.357 13.13 7.026 12.642"/>
    <polygon stroke="#0F0F0F" stroke-linecap="round" stroke-linejoin="round" stroke-width=".327" points="8.375 17.87 10.503 17.854 9.973 12.62 8.759 12.629"/>
    <polygon stroke="#0F0F0F" stroke-linecap="round" stroke-linejoin="round" stroke-width=".327" points="10.503 17.855 10.838 18.834 12.148 18.825 12.631 17.839 11.61 12.608 11.287 13.265 10.469 13.271 9.973 12.621"/>
    <polygon stroke="#0F0F0F" stroke-linecap="round" stroke-linejoin="round" stroke-width=".327" points="12.602 17.839 13.941 17.829 12.429 12.602 11.611 12.608"/>
    <g transform="translate(0 .188)">
      <polygon stroke="#000" stroke-width=".213" points=".107 5.014 36.03 5.014 36.03 .918 .107 .918"/>
      <polyline stroke="#000" stroke-width=".213" points="19.08 26.841 .106 26.841 .106 5.103 36.007 5.103 36.007 26.841 32.309 26.841"/>
      <path fill="#07DDDD" d="M26.2884,20.8551 L19.9864,20.8551 C19.8514,20.8551 19.7424,20.7461 19.7424,20.6111 L19.7424,18.9001 C19.7424,18.7651 19.8514,18.6561 19.9864,18.6561 L26.2884,18.6561 C26.4234,18.6561 26.5324,18.7651 26.5324,18.9001 L26.5324,20.6111 C26.5324,20.7461 26.4234,20.8551 26.2884,20.8551"/>
      <path stroke="#282828" stroke-width=".331" d="M26.2884,20.8551 L19.9864,20.8551 C19.8514,20.8551 19.7424,20.7461 19.7424,20.6111 L19.7424,18.9001 C19.7424,18.7651 19.8514,18.6561 19.9864,18.6561 L26.2884,18.6561 C26.4234,18.6561 26.5324,18.7651 26.5324,18.9001 L26.5324,20.6111 C26.5324,20.7461 26.4234,20.8551 26.2884,20.8551 Z"/>
      <path fill="#30C0D8" d="M28.7503,34.7467 L30.8753,32.6217 C30.9293,32.5677 30.9293,32.4817 30.8753,32.4287 L27.6373,29.1887 C27.5663,29.1187 27.5923,28.9997 27.6853,28.9647 L30.3843,27.9317 C30.5043,27.8867 30.5003,27.7157 30.3793,27.6737 L20.6893,24.3877 C20.5813,24.3507 20.4793,24.4537 20.5163,24.5607 L23.8023,34.2507 C23.8433,34.3727 24.0143,34.3757 24.0603,34.2557 L25.0933,31.5567 C25.1293,31.4637 25.2483,31.4377 25.3183,31.5087 L28.5563,34.7467 C28.6093,34.8007 28.6963,34.8007 28.7503,34.7467"/>
      <path stroke="#020202" stroke-width=".427" d="M28.7503,34.7467 L30.8753,32.6217 C30.9293,32.5677 30.9293,32.4817 30.8753,32.4287 L27.6373,29.1887 C27.5663,29.1187 27.5923,28.9997 27.6853,28.9647 L30.3843,27.9317 C30.5043,27.8867 30.5003,27.7157 30.3793,27.6737 L20.6893,24.3877 C20.5813,24.3507 20.4793,24.4537 20.5163,24.5607 L23.8023,34.2507 C23.8433,34.3727 24.0143,34.3757 24.0603,34.2557 L25.0933,31.5567 C25.1293,31.4637 25.2483,31.4377 25.3183,31.5087 L28.5563,34.7467 C28.6093,34.8007 28.6963,34.8007 28.7503,34.7467 Z"/>
      <path stroke="#000" stroke-linecap="round" stroke-width=".364" d="M19.7425 16.0661L29.8005 16.1101M19.7425 13.86L31.5735 13.86"/>
      <path stroke="#07DDDD" stroke-width="1.091" d="M19.8646,10.6833 L32.3086,10.6833"/>
      <path stroke="#000" stroke-width=".364" d="M3.1742 3.7956L2.0452 3.7956C1.9962 3.7956 1.9562 3.7556 1.9562 3.7066L1.9562 2.4296C1.9562 2.3796 1.9962 2.3406 2.0452 2.3406L3.1742 2.3406C3.2232 2.3406 3.2632 2.3796 3.2632 2.4296L3.2632 3.7066C3.2632 3.7556 3.2232 3.7956 3.1742 3.7956zM5.5023 3.7956L4.3733 3.7956C4.3243 3.7956 4.2843 3.7556 4.2843 3.7066L4.2843 2.4296C4.2843 2.3796 4.3243 2.3406 4.3733 2.3406L5.5023 2.3406C5.5513 2.3406 5.5913 2.3796 5.5913 2.4296L5.5913 3.7066C5.5913 3.7556 5.5513 3.7956 5.5023 3.7956zM7.8304 3.7956L6.7014 3.7956C6.6524 3.7956 6.6124 3.7556 6.6124 3.7066L6.6124 2.4296C6.6124 2.3796 6.6524 2.3406 6.7014 2.3406L7.8304 2.3406C7.8794 2.3406 7.9194 2.3796 7.9194 2.4296L7.9194 3.7066C7.9194 3.7556 7.8794 3.7956 7.8304 3.7956z"/>
      <polygon stroke="#231F20" stroke-linecap="round" stroke-width=".165" points="2.951 21.477 15.927 21.477 15.927 9.461 2.951 9.461"/>
    </g>
  </g>
</svg>
