<svg xmlns="http://www.w3.org/2000/svg" width="59" height="45" viewBox="0 0 59 45">
  <defs>
    <filter id="menu-2-a" width="109.6%" height="106.6%" x="-4.8%" y="-2.6%" filterUnits="objectBoundingBox">
      <feOffset dy="2" in="SourceAlpha" result="shadowOffsetOuter1"/>
      <feGaussianBlur in="shadowOffsetOuter1" result="shadowBlurOuter1" stdDeviation="3"/>
      <feColorMatrix in="shadowBlurOuter1" result="shadowMatrixOuter1" values="0 0 0 0 0.399606718   0 0 0 0 0.397391411   0 0 0 0 0.397391411  0 0 0 0.5 0"/>
      <feMerge>
        <feMergeNode in="shadowMatrixOuter1"/>
        <feMergeNode in="SourceGraphic"/>
      </feMerge>
    </filter>
  </defs>
  <g fill="none" fill-rule="evenodd" filter="url(#menu-2-a)" transform="translate(5.412 4.256)">
    <polygon stroke="#231F20" stroke-linejoin="round" stroke-width=".567" points="14.969 5.236 8.187 6.804 8.165 5.708 9.093 5.485 14.225 4.256 14.95 4.082 14.955 5.231"/>
    <path stroke="#231F20" stroke-linejoin="round" stroke-width=".567" d="M14.5026059,3.75167757 L8.97743774,5.09454703 C8.87946014,4.75066487 8.89482918,4.2271571 9.06196744,3.53458995 C9.42025807,2.05051748 10.7199021,1.14470496 11.000387,1.00830477 C11.2818325,0.871904584 11.8946728,0.508811125 12.9493728,0.863259501 C13.1434069,0.929538466 13.3432043,1.02175268 13.5449229,1.15431061 C13.8667121,1.36659541 14.0847603,1.64804087 14.2336478,1.94869762 C14.5592792,2.61629009 14.5362257,3.38954468 14.5026059,3.75167757 Z"/>
    <path stroke="#231F20" stroke-linejoin="round" stroke-width=".567" d="M26.5405949,7.6089212 L23.4370104,6.49562671 L23.4360498,6.49370558 L15.281816,3.5620621 L14.502798,3.75129335 C14.5364178,3.38916045 14.5585108,2.61686643 14.2328794,1.94831339 C14.0849524,1.64765664 13.8669042,1.36621118 13.545115,1.15392638 C13.3433964,1.02232902 13.143599,0.92915424 12.9495649,0.86383584 L12.9486043,0.860954146 L24.4187075,5.03460779 C26.0910507,5.7012397 26.4627892,6.95285551 26.5405949,7.6089212 Z"/>
    <polygon stroke="#231F20" stroke-linejoin="round" stroke-width=".567" points="27.598 9.273 15.319 4.819 15.303 4.823 15.288 4.817 15.282 3.563 23.436 6.493 23.437 6.495 26.54 7.609 27.581 7.985"/>
    <polygon stroke="#231F20" stroke-linejoin="round" stroke-width=".567" points="27.598 9.273 15.303 4.823 15.319 4.819"/>
    <polygon stroke="#231F20" stroke-linejoin="round" stroke-width=".567" points="26.48 18.767 15.179 25.861 5.995 26.993 8.743 24.772 8.743 26.073 14.94 25.128 14.947 24.108 14.985 20.99 14.991 20.996 15.173 21.033 18.033 21.748 18.109 18.743 21.345 19.687 21.301 16.87 24.52 17.772 24.451 15.117 24.445 14.866 24.864 15.024 26.46 15.631"/>
    <polygon stroke="#231F20" stroke-linejoin="round" stroke-width=".567" points="15.317 5.169 15.223 5.194 15.223 5.188"/>
    <polygon stroke="#231F20" stroke-linejoin="round" stroke-width=".567" points="15.322 5.169 15.204 10.854 15.167 12.783 15.073 17.271 14.991 20.996 14.984 20.991 14.947 24.108 8.749 25.147 8.843 18.699 8.931 12.783 9.012 6.99 9.019 6.741 9.019 6.572 15.223 5.194 15.317 5.169"/>
    <polygon stroke="#231F20" stroke-linejoin="round" stroke-width=".567" points="27.594 9.27 26.517 9.257 26.361 9.257 15.323 5.169 15.317 5.169 15.223 5.188 9.019 6.571 8.686 6.653 9.019 6.74 9.012 6.991 8.003 6.534 15.305 4.825"/>
    <polygon stroke="#231F20" stroke-linejoin="round" stroke-width=".567" points="27.598 9.273 15.303 4.823 15.319 4.819"/>
    <path stroke="#231F20" stroke-linecap="round" stroke-width=".653" d="M6.57141527.974108668L6.25154722 1.29397672M5.57050684 1.97597766L5.2506388 2.2958457M6.57141527 2.2958457L6.25154722 1.97597766M5.57050684 1.29397672L5.2506388.974108668M4.32100427 21.7848391L3.97808267 22.1277607M3.24690082 22.859807L2.90397922 23.2027286M4.32100427 23.2031129L3.97808267 22.8601913M3.24690082 22.1281449L2.90397922 21.7852233"/>
    <path fill="#40B8B9" d="M33.274922,7.18492794 C33.274922,7.56146931 32.970423,7.86596832 32.5948422,7.86596832 C32.2183008,7.86596832 31.9138018,7.56146931 31.9138018,7.18492794 C31.9138018,6.80934714 32.2183008,6.50484813 32.5948422,6.50484813 C32.970423,6.50484813 33.274922,6.80934714 33.274922,7.18492794"/>
    <path fill="#57BEC9" d="M1.55188834,17.3243608 C1.55188834,17.7162712 1.20512448,18.0332576 0.775752056,18.0332576 C0.347340198,18.0332576 0.000576338824,17.7162712 0.000576338824,17.3243608 C0.000576338824,16.9324504 0.347340198,16.6145035 0.775752056,16.6145035 C1.20512448,16.6145035 1.55188834,16.9324504 1.55188834,17.3243608"/>
    <polygon fill="#57BEC9" points="47.348 19.4 46.77 19.922 40.851 13.313 15.299 31.531 14.505 30.65 40.888 12.06"/>
    <path stroke="#231F20" stroke-linecap="round" stroke-width=".653" d="M37.1725093 22.9076432L36.9131569 23.2467225M36.3619848 23.9666658L36.1026324 24.3057451M37.3366698 24.1412004L36.9975905 23.8818479M36.2776472 23.3306759L35.9385679 23.0713234"/>
    <polyline stroke="#1E1E1C" stroke-linecap="round" stroke-width=".567" points="13.152 31.243 40.921 11.687 48.213 19.883"/>
    <polyline stroke="#1E1E1C" stroke-linecap="round" stroke-width=".567" points="14.419 32.511 40.825 13.689 47.54 21.307"/>
    <path stroke="#1E1E1C" stroke-linecap="round" stroke-width=".567" d="M8.84238234,18.767129 L1.0762167,20.4990272"/>
    <polygon stroke="#1E1E1C" stroke-linecap="round" stroke-width=".567" points="24.864 15.023 24.445 14.867 24.45 15.117 24.52 17.772 21.302 16.87 21.346 19.687 18.11 18.743 18.034 21.747 15.172 21.034 14.992 20.996 15.073 17.271 15.166 12.782 15.204 10.854 15.322 5.169 26.361 9.257 26.41 9.257 26.436 12.782 26.454 14.66 26.461 15.631"/>
    <path stroke="#1E1E1C" stroke-linecap="round" stroke-width=".567" d="M40.8919119,11.6623122 L26.4795991,14.9666547"/>
    <path stroke="#1E1E1C" stroke-width=".567" d="M14.0345227 30.5864935L15.2621244 31.9274418M14.9651178 29.966449L16.1936801 31.3073973M15.8956169 29.3454439L17.1241791 30.6863922M16.826212 28.7253994L18.0547742 30.0663477M17.7079143 28.0303347L18.935516 29.3712831M18.4584035 27.5200828L19.593791 28.7755408M19.1843983 27.0547852L20.3197858 28.3102433M19.9104892 26.5885271L21.0458766 27.8439852M20.5849016 26.0632903L21.7202891 27.3187484M21.2574891 25.5444893L22.3938371 26.7999474M21.9676345 25.0210776L23.1039826 26.2765357M22.677684 24.4976659L23.814032 25.753124M23.3878295 23.9742542L24.5241775 25.2297123M24.135437 23.4835978L25.271785 24.7390558M24.9300161 22.9742103L26.0654036 24.2296684M25.6954901 22.4236146L26.8318382 23.6790727M26.4618286 21.8720584L27.5981767 23.1275164M27.2282632 21.3205021L28.3646113 22.5759602M27.9946017 20.7698104L29.1309498 22.0252684M28.7610363 20.2182541L29.8964238 21.4737122M29.5273748 19.6666978L30.6627623 20.9221559M30.2928488 19.1151416L31.4291969 20.3715602M31.0591874 18.5644498L32.1955354 19.8199079M31.8256219 18.0128936L32.96197 19.2683517M32.5919605 17.4613373L33.727348 18.7167954M33.358395 16.9106456L34.4937825 18.1661037M34.1238691 16.3590893L35.2602171 17.6145474M34.8902076 15.8075331L36.0265556 17.0629912M35.6566422 15.2569374L36.7929902 16.5123955M36.4464185 14.7981717L37.5818059 16.0545903M37.2081463 14.2616002L38.3435338 15.5170583M37.9689135 13.7241643L39.1052616 14.9796224M38.7306413 13.1866323L39.8669894 14.4420904M39.5767067 12.5984785L40.7120942 13.8539366M40.9378269 11.6913212L40.8043084 13.7229156M41.9537202 12.8470727L40.9441666 13.7999528M42.6178546 13.609665L41.5804447 14.5346888M43.1947698 14.2710138L42.1573599 15.1960376M43.7716849 14.931402L42.734275 15.8564258M44.3486001 15.5927508L43.3121508 16.5177746M44.9255152 16.253139L43.8890659 17.1781629M45.5032949 16.9143918L44.465885 17.8394156M46.0802101 17.57478L45.0428002 18.4998038M46.6571252 18.2351683L45.6197154 19.1611526M47.2668917 18.8665474L46.2294818 19.7915713M47.7875178 19.4499944L46.7510685 20.3750183"/>
  </g>
</svg>
