<svg xmlns="http://www.w3.org/2000/svg" width="50" height="49" viewBox="0 0 50 49">
  <defs>
    <filter id="menu-7-a" width="110.4%" height="119.3%" x="-5.2%" y="-7%" filterUnits="objectBoundingBox">
      <feOffset dy="2" in="SourceAlpha" result="shadowOffsetOuter1"/>
      <feGaussianBlur in="shadowOffsetOuter1" result="shadowBlurOuter1" stdDeviation="3"/>
      <feColorMatrix in="shadowBlurOuter1" result="shadowMatrixOuter1" values="0 0 0 0 0.399606718   0 0 0 0 0.397391411   0 0 0 0 0.397391411  0 0 0 0.5 0"/>
      <feMerge>
        <feMergeNode in="shadowMatrixOuter1"/>
        <feMergeNode in="SourceGraphic"/>
      </feMerge>
    </filter>
  </defs>
  <g fill="none" fill-rule="evenodd" stroke="#000" stroke-width=".5" filter="url(#menu-7-a)" transform="translate(6 5)">
    <polygon points="21.552 .222 16.415 8.942 21.552 17.435 32.978 17.435 37.826 8.885 32.632 .336"/>
    <polygon stroke-linejoin="bevel" points="21.552 .222 21.552 17.435 37.826 8.885"/>
    <polygon points="5.277 8.771 .199 17.321 5.277 25.984 16.704 25.984 21.552 17.435 16.358 8.885"/>
    <polygon stroke-linejoin="bevel" points="5 9 5 26 21 17.556"/>
    <g transform="translate(16 18)">
      <polygon points="5.183 .025 .168 8.43 5.183 16.834 16.866 16.834 21.822 8.485 16.925 .081"/>
      <polygon stroke-linejoin="bevel" points="5.183 .025 5.183 16.834 21.822 8.485"/>
    </g>
  </g>
</svg>
