<svg xmlns="http://www.w3.org/2000/svg" xmlns:xlink="http://www.w3.org/1999/xlink" width="48" height="45" viewBox="0 0 48 45">
  <defs>
    <filter id="menu-9-a" width="110.4%" height="119.1%" x="-5.2%" y="-7%" filterUnits="objectBoundingBox">
      <feOffset dy="2" in="SourceAlpha" result="shadowOffsetOuter1"/>
      <feGaussianBlur in="shadowOffsetOuter1" result="shadowBlurOuter1" stdDeviation="3"/>
      <feColorMatrix in="shadowBlurOuter1" result="shadowMatrixOuter1" values="0 0 0 0 0.399606718   0 0 0 0 0.397391411   0 0 0 0 0.397391411  0 0 0 0.5 0"/>
      <feMerge>
        <feMergeNode in="shadowMatrixOuter1"/>
        <feMergeNode in="SourceGraphic"/>
      </feMerge>
    </filter>
    <polygon id="menu-9-b" points="0 32 38.726 32 38.726 .14 0 .14"/>
  </defs>
  <g fill="none" fill-rule="evenodd" filter="url(#menu-9-a)" transform="translate(4 4)">
    <polygon fill="#CED5E0" points="25 29 15 29 15.897 31 24.104 31"/>
    <polygon stroke="#231F20" stroke-width=".5" points="8 26 35 26 35 11 8 11"/>
    <path stroke="#231F20" stroke-linecap="round" stroke-width=".5" d="M35.3532 4L35 4.3532M34.3532 6L34 6.3532M35.3532 6.3532L35 6M34.3532 4.3532L34 4M38.3532 23L38 23.3532M37.3532 24L37 24.3532M38.3532 24.3532L38 24M37.3532 23.3532L37 23"/>
    <path stroke="#231F20" stroke-linecap="round" stroke-linejoin="round" stroke-width=".5" d="M36.01065 31.782573L4.58743723 31.782573C3.67840532 31.782573 2.94196915 31.0150054 2.94196915 30.0675459L2.94196915 28.7987892 37.6561181 28.7987892 37.6561181 30.0675459C37.6561181 31.0150054 36.919267 31.782573 36.01065 31.782573zM35.0544447 28.7986162L5.5434766 28.7986162 5.5434766 10.3609946C5.5434766 9.65526486 6.09238085 9.08315676 6.76948723 9.08315676L33.828434 9.08315676C34.5055404 9.08315676 35.0544447 9.65526486 35.0544447 10.3609946L35.0544447 28.7986162z"/>
    <path fill="#FFF" d="M21.9524777,9.08324324 C21.9524777,11.8425946 24.0983074,14.0795676 26.7457436,14.0795676 C29.3931798,14.0795676 31.5390096,11.8425946 31.5390096,9.08324324 C31.5390096,6.32389189 29.3931798,4.08691892 26.7457436,4.08691892 C24.0983074,4.08691892 21.9524777,6.32389189 21.9524777,9.08324324"/>
    <path stroke="#231F20" stroke-width=".5" d="M21.9524777,9.08324324 C21.9524777,11.8425946 24.0983074,14.0795676 26.7457436,14.0795676 C29.3931798,14.0795676 31.5390096,11.8425946 31.5390096,9.08324324 C31.5390096,6.32389189 29.3931798,4.08691892 26.7457436,4.08691892 C24.0983074,4.08691892 21.9524777,6.32389189 21.9524777,9.08324324 Z"/>
    <path fill="#07DDDD" d="M22.6117021,9.08324324 C22.6117021,11.4629189 24.4625426,13.392 26.7457021,13.392 C29.0288617,13.392 30.880117,11.4629189 30.880117,9.08324324 C30.880117,6.70356757 29.0288617,4.77448649 26.7457021,4.77448649 C24.4625426,4.77448649 22.6117021,6.70356757 22.6117021,9.08324324"/>
    <path stroke="#231F20" stroke-width=".5" d="M24.9094245 5.76821622L25.060802 6.04803838M28.3630819 12.003027L28.5144594 12.2831557M23.5654596 7.16938378L23.8277132 7.33090216M29.5473957 10.7690811L29.8096494 10.9305995M23.0731883 9.08324324L23.4005597 9.08324324M29.9805032 9.08324324L30.3078746 9.08324324M23.5654596 10.9307292L23.8277132 10.7692108M29.5473957 7.33107514L29.8096494 7.16955676M24.9094245 12.2831557L25.060802 12.003027M28.3630819 6.04808162L28.5144594 5.76825946"/>
    <polyline stroke="#231F20" stroke-width=".5" points="28.472 9.083 26.746 9.083 26.746 6.691"/>
    <path stroke="#231F20" stroke-width=".5" d="M26.7456191 5.25556757L26.7456191 5.59669469M26.7456191 12.4548757L26.7456191 12.7960028"/>
    <path fill="#07DDDD" d="M38.5174372,13.3919568 C38.5174372,13.7439568 38.2436074,14.0297946 37.9054691,14.0297946 C37.5677457,14.0297946 37.293916,13.7439568 37.293916,13.3919568 C37.293916,13.0399568 37.5677457,12.7541189 37.9054691,12.7541189 C38.2436074,12.7541189 38.5174372,13.0399568 38.5174372,13.3919568"/>
    <path fill="#E6E9EE" d="M16.5317266,25.0803027 L4.26373723,25.0803027 C3.58248191,25.0803027 3.0306734,24.5051676 3.0306734,23.7955459 L3.0306734,1.57068108 C3.0306734,0.860627027 3.58248191,0.285491892 4.26373723,0.285491892 L16.5317266,0.285491892 C17.2129819,0.285491892 17.7647904,0.860627027 17.7647904,1.57068108 L17.7647904,23.7955459 C17.7647904,24.5051676 17.2129819,25.0803027 16.5317266,25.0803027"/>
    <path stroke="#231F20" stroke-width=".5" d="M16.5317266,25.0803027 L4.26373723,25.0803027 C3.58248191,25.0803027 3.0306734,24.5051676 3.0306734,23.7955459 L3.0306734,1.57068108 C3.0306734,0.860627027 3.58248191,0.285491892 4.26373723,0.285491892 L16.5317266,0.285491892 C17.2129819,0.285491892 17.7647904,0.860627027 17.7647904,1.57068108 L17.7647904,23.7955459 C17.7647904,24.5051676 17.2129819,25.0803027 16.5317266,25.0803027 Z"/>
    <mask id="menu-9-c" fill="#fff">
      <use xlink:href="#menu-9-b"/>
    </mask>
    <polygon fill="#FFF" points="3.03 21.998 17.765 21.998 17.765 3.368 3.03 3.368" mask="url(#menu-9-c)"/>
    <polygon stroke="#231F20" stroke-width=".5" points="3.03 21.998 17.765 21.998 17.765 3.368 3.03 3.368" mask="url(#menu-9-c)"/>
    <path fill="#FFF" d="M5.60795106,1.81215135 C5.60795106,2.14469189 5.34947234,2.4140973 5.03000426,2.4140973 C4.71136596,2.4140973 4.45288723,2.14469189 4.45288723,1.81215135 C4.45288723,1.47917838 4.71136596,1.20977297 5.03000426,1.20977297 C5.34947234,1.20977297 5.60795106,1.47917838 5.60795106,1.81215135" mask="url(#menu-9-c)"/>
    <path stroke="#231F20" stroke-width=".5" d="M5.60795106,1.81215135 C5.60795106,2.14469189 5.34947234,2.4140973 5.03000426,2.4140973 C4.71136596,2.4140973 4.45288723,2.14469189 4.45288723,1.81215135 C4.45288723,1.47917838 4.71136596,1.20977297 5.03000426,1.20977297 C5.34947234,1.20977297 5.60795106,1.47917838 5.60795106,1.81215135 Z" mask="url(#menu-9-c)"/>
    <g mask="url(#menu-9-c)">
      <g transform="translate(9.128 1.73)">
        <path fill="#E6E9EE" d="M0.209479787,0.162205405 L0.398486221,0.162205405"/>
        <path stroke="#231F20" stroke-linecap="round" stroke-width=".5" d="M0.209479787,0.162205405 L0.398486221,0.162205405"/>
      </g>
    </g>
    <g mask="url(#menu-9-c)">
      <g transform="translate(10.262 1.73)">
        <path fill="#E6E9EE" d="M0.000383776596,0.162205405 L2.06655399,0.162205405"/>
        <path stroke="#231F20" stroke-linecap="round" stroke-width=".5" d="M0.000383776596,0.162205405 L2.06655399,0.162205405"/>
      </g>
    </g>
    <g mask="url(#menu-9-c)">
      <g transform="translate(8.298 1.73)">
        <path fill="#E6E9EE" d="M0.168529787,0.162205405 L0.357536221,0.162205405"/>
        <path stroke="#231F20" stroke-linecap="round" stroke-width=".5" d="M0.168529787,0.162205405 L0.357536221,0.162205405"/>
      </g>
    </g>
    <path fill="#FFF" d="M11.6303809,24.1676973 L9.16508298,24.1676973 C8.70787021,24.1676973 8.33737021,23.7815351 8.33737021,23.3058595 C8.33737021,23.0900757 8.50540213,22.9149405 8.71243404,22.9149405 L12.0830298,22.9149405 C12.2900617,22.9149405 12.4576787,23.0900757 12.4576787,23.3058595 C12.4576787,23.7815351 12.0875936,24.1676973 11.6303809,24.1676973" mask="url(#menu-9-c)"/>
    <path stroke="#231F20" stroke-linecap="round" stroke-width=".5" d="M11.6303809,24.1676973 L9.16508298,24.1676973 C8.70787021,24.1676973 8.33737021,23.7815351 8.33737021,23.3058595 C8.33737021,23.0900757 8.50540213,22.9149405 8.71243404,22.9149405 L12.0830298,22.9149405 C12.2900617,22.9149405 12.4576787,23.0900757 12.4576787,23.3058595 C12.4576787,23.7815351 12.0875936,24.1676973 11.6303809,24.1676973 Z" mask="url(#menu-9-c)"/>
    <path fill="#FFF" d="M4.19835,20.8729514 C4.19835,21.1475459 3.98467979,21.3698162 3.72163723,21.3698162 C3.45776489,21.3698162 3.24409468,21.1475459 3.24409468,20.8729514 C3.24409468,20.5979243 3.45776489,20.3756541 3.72163723,20.3756541 C3.98467979,20.3756541 4.19835,20.5979243 4.19835,20.8729514" mask="url(#menu-9-c)"/>
    <path stroke="#231F20" stroke-linecap="round" stroke-width=".5" d="M1.0536567 13.8932324L.888204255 14.0697686M.304898185 14.6736432L.139445745 14.8501795M1.0536567 14.8502227L.888204255 14.6736865M.304898185 14.0698119L.139445745 13.8932757" mask="url(#menu-9-c)"/>
    <polygon fill="#FFF" points="7.361 17.683 16.265 17.683 16.265 12.163 7.361 12.163" mask="url(#menu-9-c)"/>
    <polygon stroke="#231F20" stroke-linecap="round" stroke-linejoin="round" stroke-width=".5" points="7.361 17.683 16.265 17.683 16.265 12.163 7.361 12.163" mask="url(#menu-9-c)"/>
    <polygon fill="#FFF" points="16.265 12.163 11.813 16.144 7.361 12.163" mask="url(#menu-9-c)"/>
    <polygon stroke="#231F20" stroke-linecap="round" stroke-linejoin="round" stroke-width=".5" points="16.265 12.163 11.813 16.144 7.361 12.163" mask="url(#menu-9-c)"/>
    <polygon fill="#07DDDD" points="8.184 12.481 15.441 12.481 11.813 15.726" mask="url(#menu-9-c)"/>
    <g mask="url(#menu-9-c)">
      <g transform="translate(13.277 14.575)">
        <path fill="#FFF" d="M2.98810532,3.10747593 L0.25478617,0.0549353925"/>
        <path stroke="#231F20" stroke-linecap="round" stroke-linejoin="round" stroke-width=".5" d="M2.98810532,3.10747593 L0.25478617,0.0549353925"/>
      </g>
    </g>
    <g mask="url(#menu-9-c)">
      <g transform="translate(7.358 14.575)">
        <path fill="#FFF" d="M0.00283164894,3.07495701 L2.7361508,0.0224164736"/>
        <path stroke="#231F20" stroke-linecap="round" stroke-linejoin="round" stroke-width=".5" d="M0.00283164894,3.07495701 L2.7361508,0.0224164736"/>
      </g>
    </g>
    <path fill="#07DDDD" d="M20.7138957,4.21457297 C20.7138957,4.56700541 20.440066,4.85284324 20.1019277,4.85284324 C19.7637894,4.85284324 19.4899596,4.56700541 19.4899596,4.21457297 C19.4899596,3.86257297 19.7637894,3.57673514 20.1019277,3.57673514 C20.440066,3.57673514 20.7138957,3.86257297 20.7138957,4.21457297" mask="url(#menu-9-c)"/>
    <g mask="url(#menu-9-c)">
      <g transform="translate(13.996 10.378)">
        <path fill="#FFF" d="M0.0799056772,0.299307568 L0.080192921,0.171502703"/>
        <path stroke="#231F20" stroke-linecap="round" stroke-width=".5" d="M0.0799056772,0.299307568 L0.080192921,0.171502703"/>
      </g>
    </g>
    <g mask="url(#menu-9-c)">
      <g transform="translate(13.996 9.946)">
        <path fill="#FFF" d="M0.0809418993,0.36316973 L0.0812291431,0.292064865"/>
        <path stroke="#231F20" stroke-linecap="round" stroke-width=".5" d="M0.0809418993,0.36316973 L0.0812291431,0.292064865"/>
      </g>
    </g>
    <g mask="url(#menu-9-c)">
      <g transform="translate(12.447 10.683)">
        <path fill="#FFF" d="M0.297395745,0.251839176 L0.297395745,0.124340798"/>
        <path stroke="#231F20" stroke-linecap="round" stroke-width=".5" d="M0.297395745,0.251839176 L0.297395745,0.124340798"/>
      </g>
    </g>
    <g mask="url(#menu-9-c)">
      <g transform="translate(12.447 10.378)">
        <path fill="#FFF" d="M0.297769149,0.188030811 L0.298056393,0.117232432"/>
        <path stroke="#231F20" stroke-linecap="round" stroke-width=".5" d="M0.297769149,0.188030811 L0.298056393,0.117232432"/>
      </g>
    </g>
    <g mask="url(#menu-9-c)">
      <g transform="translate(11.092 10.81)">
        <path fill="#FFF" d="M0.0440005812,0.189212432 L0.0440005812,0.0822486486"/>
        <path stroke="#231F20" stroke-linecap="round" stroke-width=".5" d="M0.0440005812,0.189212432 L0.0440005812,0.0822486486"/>
      </g>
    </g>
    <g mask="url(#menu-9-c)">
      <g transform="translate(11.092 10.378)">
        <path fill="#FFF" d="M0.0445186923,0.313162703 L0.0448059361,0.254010811"/>
        <path stroke="#231F20" stroke-linecap="round" stroke-width=".5" d="M0.0445186923,0.313162703 L0.0448059361,0.254010811"/>
      </g>
    </g>
    <g mask="url(#menu-9-c)">
      <g transform="translate(12.032 8.953)">
        <path fill="#FFF" d="M0.281802235,0.0200380952 L0.278642553,2.26695701"/>
        <path stroke="#231F20" stroke-dasharray=".018 .037" stroke-width=".5" d="M0.281802235,0.0200380952 L0.278642553,2.26695701"/>
      </g>
    </g>
    <g mask="url(#menu-9-c)">
      <g transform="translate(11.617 7.224)">
        <polyline fill="#FFF" points="2.065 4 2.07 1.29 2.561 1.291 1.387 .062 .207 1.286 .699 1.287 .698 1.75"/>
        <polyline stroke="#231F20" stroke-width=".5" points="2.065 4 2.07 1.29 2.561 1.291 1.387 .062 .207 1.286 .699 1.287 .698 1.75"/>
      </g>
    </g>
    <g mask="url(#menu-9-c)">
      <g transform="translate(13.996 8.649)">
        <path fill="#FFF" d="M0.0819263103,1.38391351 L0.0836497733,0.165318919"/>
        <path stroke="#231F20" stroke-linecap="round" stroke-width=".5" d="M0.0819263103,1.38391351 L0.0836497733,0.165318919"/>
      </g>
    </g>
    <g mask="url(#menu-9-c)">
      <g transform="translate(12.447 8.953)">
        <path fill="#FFF" d="M0.298598936,1.33636242 L0.300322399,0.118200257"/>
        <path stroke="#231F20" stroke-linecap="round" stroke-width=".5" d="M0.298598936,1.33636242 L0.300322399,0.118200257"/>
      </g>
    </g>
    <g mask="url(#menu-9-c)">
      <g transform="translate(9.847 8.216)">
        <path fill="#FFF" d="M0.0538111421,0.187978378 L0.0515131915,1.98214054"/>
        <path stroke="#231F20" stroke-dasharray=".018 .037" stroke-width=".5" d="M0.0538111421,0.187978378 L0.0515131915,1.98214054"/>
      </g>
    </g>
    <g mask="url(#menu-9-c)">
      <g transform="translate(9.543 7.224)">
        <polyline fill="#FFF" points="1.259 2.977 1.263 .874 1.59 .875 .808 .056 .023 .871 .35 .872 .349 1.181"/>
        <polyline stroke="#231F20" stroke-width=".5" points="1.259 2.977 1.263 .874 1.59 .875 .808 .056 .023 .871 .35 .872 .349 1.181"/>
      </g>
    </g>
    <g mask="url(#menu-9-c)">
      <g transform="translate(10.262 9.946)">
        <path fill="#FFF" d="M0.103220675,0.2402 L0.103507918,0.13292973"/>
        <path stroke="#231F20" stroke-linecap="round" stroke-width=".5" d="M0.103220675,0.2402 L0.103507918,0.13292973"/>
      </g>
    </g>
    <g mask="url(#menu-9-c)">
      <g transform="translate(10.262 9.818)">
        <path fill="#FFF" d="M0.104205086,0.0593718919 L0.104205086,-8.64864865e-05"/>
        <path stroke="#231F20" stroke-linecap="round" stroke-width=".5" d="M0.104205086,0.0593718919 L0.104205086,-8.64864865e-05"/>
      </g>
    </g>
    <g mask="url(#menu-9-c)">
      <g transform="translate(10.262 8.521)">
        <path fill="#FFF" d="M0.104723197,1.12520566 L0.106159416,0.105097555"/>
        <path stroke="#231F20" stroke-linecap="round" stroke-width=".5" d="M0.104723197,1.12520566 L0.106159416,0.105097555"/>
      </g>
    </g>
    <g mask="url(#menu-9-c)">
      <g transform="translate(11.092 9.386)">
        <path fill="#FFF" d="M0.0450368033,1.07409215 L0.0464730224,0.0544164736"/>
        <path stroke="#231F20" stroke-linecap="round" stroke-width=".5" d="M0.0450368033,1.07409215 L0.0464730224,0.0544164736"/>
      </g>
    </g>
  </g>
</svg>
