<svg xmlns="http://www.w3.org/2000/svg" xmlns:xlink="http://www.w3.org/1999/xlink" width="47" height="47" viewBox="0 0 47 47">
  <defs>
    <filter id="menu-1-a" width="109.6%" height="106.6%" x="-4.8%" y="-2.6%" filterUnits="objectBoundingBox">
      <feOffset dy="2" in="SourceAlpha" result="shadowOffsetOuter1"/>
      <feGaussianBlur in="shadowOffsetOuter1" result="shadowBlurOuter1" stdDeviation="3"/>
      <feColorMatrix in="shadowBlurOuter1" result="shadowMatrixOuter1" values="0 0 0 0 0.399606718   0 0 0 0 0.397391411   0 0 0 0 0.397391411  0 0 0 0.5 0"/>
      <feMerge>
        <feMergeNode in="shadowMatrixOuter1"/>
        <feMergeNode in="SourceGraphic"/>
      </feMerge>
    </filter>
    <polygon id="menu-1-b" points=".272 .157 1.901 .157 1.901 1.784 .272 1.784 .272 .157"/>
    <polygon id="menu-1-d" points="5.241 .361 .272 .361 .272 .137 5.241 .137 5.241 .361"/>
    <polygon id="menu-1-f" points="1.928 .361 .567 .361 .567 .137 1.928 .137 1.928 .361"/>
    <polygon id="menu-1-h" points="1.589 1.361 .229 1.361 .229 .127 1.589 .127 1.589 1.361"/>
    <polygon id="menu-1-j" points="8.337 1.361 .702 1.361 .702 .127 8.337 .127 8.337 1.361"/>
  </defs>
  <g fill="none" fill-rule="evenodd" filter="url(#menu-1-a)" transform="translate(5.546 3.226)">
    <polyline stroke="#050505" stroke-linecap="round" stroke-width=".567" points="26.193 17.8 28.799 17.8 31.838 17.8 29.703 24.784 21.128 24.784 23.227 17.8 25.071 17.8 25.071 19.031 26.193 19.031 26.193 16.486 25.071 16.486 25.071 17.8"/>
    <polyline stroke="#050505" stroke-linecap="round" stroke-width=".567" points="31.368 24.784 33.937 24.784 31.838 17.8 31.426 19.146 29.667 19.139"/>
    <path stroke="#050505" stroke-linecap="round" stroke-width=".567" d="M30.9688142 20.6443405L29.2324334 20.6443405M30.5196142 22.1127798L28.7982022 22.1127798M30.1003517 23.4828332L28.3639709 23.4828332M26.6278622 24.7838941L28.7983382 17.8002685"/>
    <path fill="#050505" d="M13.276373,13.4150905 L12.9144002,13.4150905 L10.9602914,13.4150905 L10.5996794,13.4150905 L10.5996794,13.7770633 L10.5996794,31.2960025 L10.5996794,31.6579753 L10.9602914,31.6579753 L12.9144002,31.6579753 L13.276373,31.6579753 L13.276373,31.2960025 L13.276373,13.7770633 L13.276373,13.4150905 Z M10.9602914,31.2960025 L12.9144002,31.2960025 L12.9144002,13.7770633 L10.9602914,13.7770633 L10.9602914,31.2960025 Z"/>
    <polyline stroke="#050505" stroke-linecap="round" stroke-width=".567" points="12.915 31.295 10.961 31.295 12.915 28.607 10.961 28.607 12.915 26.231 10.961 26.231 12.915 23.84 10.961 23.84 12.915 21.291 10.961 21.291 12.915 18.632 10.961 18.632 12.915 16.208 10.961 16.208 12.915 13.777 13.322 13.777"/>
    <g transform="translate(0 .205)">
      <path fill="#050505" d="M11.6265391,1.59177968 L11.2917823,1.59177968 L11.2237423,1.96327808 L10.6630927,9.05576768 L9.57037032,7.91405648 L9.46422792,7.80247088 L9.27915912,7.79022368 L4.68373752,7.79022368 L4.52316312,7.79022368 L4.38436152,7.92222128 L2.88475992,9.57559328 L2.72690712,9.74977568 L2.81399832,10.0110493 C2.87931672,10.1566549 3.02492232,10.2505501 3.18413592,10.2505501 L14.5794751,10.2505501 L35.8651087,10.2505501 L36.1304647,10.2505501 L36.2502151,9.96750368 C36.3032863,9.79876448 36.2406895,9.61641728 36.0950839,9.51571808 L33.6102631,7.79022368 L33.5177287,7.72626608 L33.3802879,7.71810128 L14.5971655,7.71810128 L14.4393127,7.71810128 L14.3005111,7.84873808 L13.1560783,9.09387008 L12.0238927,1.93334048 L11.9762647,1.62716048 L11.6265391,1.59177968 Z M11.6265391,1.95375248 C11.6455903,1.95375248 11.6632807,1.96463888 11.6673631,1.98913328 L12.9016087,9.80284688 C12.9043303,9.82598048 12.9233815,9.83958848 12.9424327,9.83958848 C12.9546799,9.83958848 12.9642055,9.83550608 12.9737311,9.82598048 L14.5672279,8.09232128 C14.5753927,8.08415648 14.5862791,8.08007408 14.5971655,8.08007408 L33.3802879,8.08007408 C33.3898135,8.08007408 33.3979783,8.08279568 33.4047823,8.08687808 L35.8896031,9.81237248 C35.9222623,9.83686688 35.9059327,9.88993808 35.8651087,9.88993808 L14.5794751,9.88993808 L3.18413592,9.88993808 C3.14739432,9.88993808 3.12834312,9.84503168 3.15283752,9.81917648 L4.65243912,8.16580448 C4.66060392,8.15763968 4.67285112,8.15219648 4.68373752,8.15219648 L9.27915912,8.15219648 C9.29004552,8.15219648 9.30093192,8.15627888 9.30909672,8.16444368 L10.8957895,9.82189808 C10.9053151,9.83142368 10.9162015,9.83550608 10.9257271,9.83550608 C10.9461391,9.83550608 10.9665511,9.81917648 10.9679119,9.79604288 L11.5843543,1.99185488 C11.5870759,1.96599968 11.6061271,1.95375248 11.6265391,1.95375248 Z"/>
      <polyline stroke="#050505" stroke-linecap="round" stroke-width=".567" points="9.297 8.153 9.297 9.889 6.765 8.153 6.765 9.889 4.666 8.153 4.666 9.889 4.666 10.541 5.823 10.541 5.823 11.481 3.58 11.481 3.58 10.552 4.666 10.541"/>
      <polyline stroke="#050505" stroke-linecap="round" stroke-width=".567" points="14.579 8.08 16.774 9.889 16.774 8.08 19.138 9.889 19.138 8.08 21.454 9.889 21.454 8.153 23.649 9.889 23.649 8.08 25.772 9.889 25.772 8.153 28.22 9.889 28.22 8.153 30.969 9.889 30.969 8.08 33.394 9.889 33.394 8.08"/>
      <path stroke="#050505" stroke-linecap="round" stroke-width=".567" d="M26.6278622,11.2994547 L27.3871886,11.3035371 L27.3871886,11.8791555 L25.9039166,11.8791555 L25.9039166,11.2994547 L26.6278622,11.2994547 L26.6278622,7.48241072 L12.027839,0.71106992 C11.776091,0.59404112 11.4807974,0.64166912 11.279399,0.83218112 L4.13519904,7.55725472 L11.612795,0.94240592 L26.6278622,7.48241072"/>
      <polyline stroke="#050505" stroke-linecap="round" stroke-width=".567" points="27.387 11.879 26.628 12.566 25.904 11.879"/>
      <polyline stroke="#050505" stroke-linecap="round" stroke-width=".567" points="23.227 17.596 26.629 12.566 31.838 17.596"/>
      <path fill="#FFF" d="M26.6278622,12.919351 C26.4332678,12.919351 26.275415,12.7614982 26.275415,12.565543 C26.275415,12.3723094 26.4332678,12.2130958 26.6278622,12.2130958 C26.8224566,12.2130958 26.9803094,12.3723094 26.9803094,12.565543 C26.9803094,12.7614982 26.8224566,12.919351 26.6278622,12.919351"/>
      <path fill="#050505" d="M26.6278622,12.033062 C26.3339294,12.033062 26.0930678,12.2725628 26.0930678,12.5664956 C26.0930678,12.8604284 26.3339294,13.0999292 26.6278622,13.0999292 C26.921795,13.0999292 27.1612958,12.8604284 27.1612958,12.5664956 C27.1612958,12.2725628 26.921795,12.033062 26.6278622,12.033062 M26.6278622,12.3950348 C26.7231182,12.3950348 26.799323,12.4712396 26.799323,12.5664956 C26.799323,12.6617516 26.7231182,12.7393172 26.6278622,12.7393172 C26.5326062,12.7393172 26.4564014,12.6617516 26.4564014,12.5664956 C26.4564014,12.4712396 26.5326062,12.3950348 26.6278622,12.3950348"/>
      <path fill="#FFF" d="M31.7534515,17.8762011 C31.5588571,17.8762011 31.4010043,17.7183483 31.4010043,17.5223931 C31.4010043,17.3291595 31.5588571,17.1699459 31.7534515,17.1699459 C31.9480459,17.1699459 32.1058987,17.3291595 32.1058987,17.5223931 C32.1058987,17.7183483 31.9480459,17.8762011 31.7534515,17.8762011"/>
      <path fill="#050505" d="M31.7534515,16.989776 C31.4595187,16.989776 31.2200179,17.2292768 31.2200179,17.5232096 C31.2200179,17.8171424 31.4595187,18.0566432 31.7534515,18.0566432 C32.0473843,18.0566432 32.2868851,17.8171424 32.2868851,17.5232096 C32.2868851,17.2292768 32.0473843,16.989776 31.7534515,16.989776 M31.7534515,17.3517488 C31.8487075,17.3517488 31.9249123,17.4279536 31.9249123,17.5232096 C31.9249123,17.6184656 31.8487075,17.6960312 31.7534515,17.6960312 C31.6581955,17.6960312 31.5819907,17.6184656 31.5819907,17.5232096 C31.5819907,17.4279536 31.6581955,17.3517488 31.7534515,17.3517488"/>
      <path fill="#FFF" d="M23.2265426,17.8762011 C23.0319482,17.8762011 22.8740954,17.7183483 22.8740954,17.5223931 C22.8740954,17.3291595 23.0319482,17.1699459 23.2265426,17.1699459 C23.421137,17.1699459 23.5789898,17.3291595 23.5789898,17.5223931 C23.5789898,17.7183483 23.421137,17.8762011 23.2265426,17.8762011"/>
      <path fill="#050505" d="M23.2265426,16.989776 C22.9326098,16.989776 22.693109,17.2292768 22.693109,17.5232096 C22.693109,17.8171424 22.9326098,18.0566432 23.2265426,18.0566432 C23.5204754,18.0566432 23.7599762,17.8171424 23.7599762,17.5232096 C23.7599762,17.2292768 23.5204754,16.989776 23.2265426,16.989776 M23.2265426,17.3517488 C23.3217986,17.3517488 23.3980034,17.4279536 23.3980034,17.5232096 C23.3980034,17.6184656 23.3217986,17.6960312 23.2265426,17.6960312 C23.1312866,17.6960312 23.0550818,17.6184656 23.0550818,17.5232096 C23.0550818,17.4279536 23.1312866,17.3517488 23.2265426,17.3517488"/>
      <path fill="#FFF" d="M26.6278622,8.56860128 C26.2781366,8.56860128 25.9950902,8.28419408 25.9950902,7.93446848 C25.9950902,7.58474288 26.2781366,7.30169648 26.6278622,7.30169648 C26.976227,7.30169648 27.2606342,7.58474288 27.2606342,7.93446848 C27.2606342,8.28419408 26.976227,8.56860128 26.6278622,8.56860128"/>
      <path fill="#050505" d="M26.6278622,7.12139048 C26.1787982,7.12139048 25.812743,7.48744568 25.812743,7.93514888 C25.812743,8.38421288 26.1787982,8.74890728 26.6278622,8.74890728 C27.0769262,8.74890728 27.4416206,8.38421288 27.4416206,7.93514888 C27.4416206,7.48744568 27.0769262,7.12139048 26.6278622,7.12139048 M26.6278622,7.48336328 C26.8782494,7.48336328 27.0796478,7.68476168 27.0796478,7.93514888 C27.0796478,8.18417528 26.8782494,8.38829528 26.6278622,8.38829528 C26.377475,8.38829528 26.1747158,8.18417528 26.1747158,7.93514888 C26.1747158,7.68476168 26.377475,7.48336328 26.6278622,7.48336328"/>
      <path fill="#FFF" d="M4.52084976,8.42367608 C4.17112416,8.42367608 3.88807776,8.13926888 3.88807776,7.78954328 C3.88807776,7.43981768 4.17112416,7.15677128 4.52084976,7.15677128 C4.86921456,7.15677128 5.15362176,7.43981768 5.15362176,7.78954328 C5.15362176,8.13926888 4.86921456,8.42367608 4.52084976,8.42367608"/>
      <path fill="#050505" d="M4.52084976,6.97646528 C4.07178576,6.97646528 3.70709136,7.34252048 3.70709136,7.79158448 C3.70709136,8.23928768 4.07178576,8.60398208 4.52084976,8.60398208 C4.96991376,8.60398208 5.33460816,8.23928768 5.33460816,7.79158448 C5.33460816,7.34252048 4.96991376,6.97646528 4.52084976,6.97646528 M4.52084976,7.33843808 C4.77123696,7.33843808 4.97263536,7.54119728 4.97263536,7.79158448 C4.97263536,8.03925008 4.77123696,8.24337008 4.52084976,8.24337008 C4.27046256,8.24337008 4.06770336,8.03925008 4.06770336,7.79158448 C4.06770336,7.54119728 4.27046256,7.33843808 4.52084976,7.33843808"/>
      <path fill="#FFF" d="M11.612659,1.60375472 C11.2629334,1.60375472 10.979887,1.31934752 10.979887,0.96962192 C10.979887,0.61989632 11.2629334,0.33684992 11.612659,0.33684992 C11.9610238,0.33684992 12.245431,0.61989632 12.245431,0.96962192 C12.245431,1.31934752 11.9610238,1.60375472 11.612659,1.60375472"/>
      <g transform="translate(10.526)">
        <mask id="menu-1-c" fill="#fff">
          <use xlink:href="#menu-1-b"/>
        </mask>
        <path fill="#050505" d="M1.08705896,0.15654392 C0.63799496,0.15654392 0.27193976,0.52123832 0.27193976,0.97030232 C0.27193976,1.41936632 0.63799496,1.78406072 1.08705896,1.78406072 C1.53612296,1.78406072 1.90081736,1.41936632 1.90081736,0.97030232 C1.90081736,0.52123832 1.53612296,0.15654392 1.08705896,0.15654392 M1.08705896,0.51851672 C1.33608536,0.51851672 1.53884456,0.71991512 1.53884456,0.97030232 C1.53884456,1.21932872 1.33608536,1.42344872 1.08705896,1.42344872 C0.83667176,1.42344872 0.63391256,1.21932872 0.63391256,0.97030232 C0.63391256,0.71991512 0.83667176,0.51851672 1.08705896,0.51851672" mask="url(#menu-1-c)"/>
      </g>
      <g transform="translate(12.247 35.38)">
        <mask id="menu-1-e" fill="#fff">
          <use xlink:href="#menu-1-d"/>
        </mask>
        <path stroke="#231F20" stroke-linecap="round" stroke-width=".567" d="M0.27243216,0.13667624 L5.24071296,0.13667624" mask="url(#menu-1-e)"/>
      </g>
      <g transform="translate(17.69 35.38)">
        <mask id="menu-1-g" fill="#fff">
          <use xlink:href="#menu-1-f"/>
        </mask>
        <path stroke="#231F20" stroke-linecap="round" stroke-width=".567" d="M0.5667732,0.13667624 L1.4499324,0.13667624" mask="url(#menu-1-g)"/>
      </g>
      <path stroke="#231F20" stroke-linecap="round" stroke-width=".567" d="M19.2012962 34.2018548L24.169577 34.2018548M24.9381569 34.2018548L25.8213161 34.2018548"/>
      <g transform="translate(5.082 34.38)">
        <mask id="menu-1-i" fill="#fff">
          <use xlink:href="#menu-1-h"/>
        </mask>
        <path stroke="#231F20" stroke-linecap="round" stroke-width=".567" d="M0.22853024,0.12669048 L1.31308784,0.12669048" mask="url(#menu-1-i)"/>
      </g>
      <g transform="translate(6.804 34.38)">
        <mask id="menu-1-k" fill="#fff">
          <use xlink:href="#menu-1-j"/>
        </mask>
        <path stroke="#231F20" stroke-linecap="round" stroke-width=".567" d="M0.70162848,0.12669048 L8.33707728,0.12669048" mask="url(#menu-1-k)"/>
      </g>
      <g transform="translate(2.722 33.02)">
        <path fill="#FFF" d="M0.07239456,0.19704384 L26.1453226,0.19704384"/>
        <path stroke="#231F20" stroke-width=".567" d="M0.07239456,0.19704384 L26.1453226,0.19704384"/>
      </g>
      <path stroke="#231F20" stroke-linecap="round" stroke-width=".655" d="M24.6544301.51674768L24.3305597.83925728M23.6418588 1.52931896L23.3179884 1.85318936M24.6544301 1.8535976L24.3305597 1.5297272M23.6418588.83966552L23.3179884.51715592M3.46241952 16.8556011L3.13854912 17.1781107M2.44916784 17.8681724L2.12529744 18.190682M3.46241952 18.1910902L3.13854912 17.8685806M2.44916784 17.178519L2.12529744 16.8560094"/>
      <path fill="#17C5C0" d="M32.5442124,4.30004384 C32.5442124,4.64160464 32.2666092,4.91784704 31.9250484,4.91784704 C31.5834876,4.91784704 31.3058844,4.64160464 31.3058844,4.30004384 C31.3058844,3.95712224 31.5834876,3.68087984 31.9250484,3.68087984 C32.2666092,3.68087984 32.5442124,3.95712224 32.5442124,4.30004384"/>
      <path fill="#07DCDC" d="M1.23846408,1.74990464 C1.23846408,2.09282624 0.96086088,2.36906864 0.61930008,2.36906864 C0.27637848,2.36906864 0.00013608,2.09282624 0.00013608,1.74990464 C0.00013608,1.40834384 0.27637848,1.13074064 0.61930008,1.13074064 C0.96086088,1.13074064 1.23846408,1.40834384 1.23846408,1.74990464"/>
      <path fill="#17C5C0" d="M18.8757929,14.5738117 C18.8757929,14.9167333 18.5981897,15.1929757 18.2566289,15.1929757 C17.9150681,15.1929757 17.6374649,14.9167333 17.6374649,14.5738117 C17.6374649,14.2322509 17.9150681,13.9560085 18.2566289,13.9560085 C18.5981897,13.9560085 18.8757929,14.2322509 18.8757929,14.5738117"/>
      <path fill="#07DCDC" d="M14.4531929,10.6031334 L14.4531929,13.3451454 C14.4531929,13.5968934 14.2490729,13.8023742 13.9959641,13.8023742 L11.2539521,13.8023742 C11.0008433,13.8023742 10.7967233,13.5968934 10.7967233,13.3451454 L10.7967233,10.6031334 C10.7967233,10.3500246 11.0008433,10.1459046 11.2539521,10.1459046 L13.9959641,10.1459046 C14.2490729,10.1459046 14.4531929,10.3500246 14.4531929,10.6031334"/>
      <path stroke="#070707" stroke-width=".567" d="M14.4531929,10.6031334 L14.4531929,13.3451454 C14.4531929,13.5968934 14.2490729,13.8023742 13.9959641,13.8023742 L11.2539521,13.8023742 C11.0008433,13.8023742 10.7967233,13.5968934 10.7967233,13.3451454 L10.7967233,10.6031334 C10.7967233,10.3500246 11.0008433,10.1459046 11.2539521,10.1459046 L13.9959641,10.1459046 C14.2490729,10.1459046 14.4531929,10.3500246 14.4531929,10.6031334 Z"/>
    </g>
  </g>
</svg>
