<svg xmlns="http://www.w3.org/2000/svg" xmlns:xlink="http://www.w3.org/1999/xlink" width="45" height="45" viewBox="0 0 45 45">
  <defs>
    <filter id="menu-6-a" width="109.6%" height="106.6%" x="-4.8%" y="-2.6%" filterUnits="objectBoundingBox">
      <feOffset dy="2" in="SourceAlpha" result="shadowOffsetOuter1"/>
      <feGaussianBlur in="shadowOffsetOuter1" result="shadowBlurOuter1" stdDeviation="3"/>
      <feColorMatrix in="shadowBlurOuter1" result="shadowMatrixOuter1" values="0 0 0 0 0.399606718   0 0 0 0 0.397391411   0 0 0 0 0.397391411  0 0 0 0.5 0"/>
      <feMerge>
        <feMergeNode in="shadowMatrixOuter1"/>
        <feMergeNode in="SourceGraphic"/>
      </feMerge>
    </filter>
    <polygon id="menu-6-b" points="0 31.94 31.686 31.94 31.686 .359 0 .359"/>
  </defs>
  <g fill="none" fill-rule="evenodd" filter="url(#menu-6-a)" transform="translate(7 4)">
    <polygon fill="#E5E8ED" points="25 17 28 20 28 17"/>
    <path stroke="#231F20" stroke-linecap="round" stroke-width=".5" d="M30.1988742 1L30 1.19986285M29.1988742 3L29 3.19986285M30.1988742 3.19986285L30 3M29.1988742 1.19986285L29 1M4.19887416 1L4 1.19986285M3.19887416 2L3 2.19986285M4.19887416 2.19986285L4 2M3.19887416 1.19986285L3 1"/>
    <path stroke="#231F20" stroke-linecap="round" stroke-linejoin="round" stroke-width=".5" d="M26 10L28 10M28 11L29 11M29 10L30 10M27 11L27.1192154 11"/>
    <polygon stroke="#231F20" stroke-linejoin="round" stroke-width=".5" points="1.674 15 0 15 0 32 26 32 26 30.232 1.674 30.232"/>
    <polygon stroke="#231F20" stroke-linejoin="round" stroke-width=".5" points="2 13 24.648 13 24.648 16.538 28 16.538 28 30 2 30"/>
    <polygon fill="#FFF" points="28 16 25 16 25 13"/>
    <polygon stroke="#231F20" stroke-linejoin="round" stroke-width=".5" points="28 16 25 16 25 13"/>
    <polygon fill="#07DCDC" points="25 16 25 14 27 16"/>
    <path fill="#FFF" d="M13.8737297,16.0011404 C13.6704865,14.1607447 12.9941622,12.393677 11.8175135,11.0004466 C10.7372973,9.72058211 10.1483243,7.98275556 10.3576216,6.10007263 C10.6776216,3.22588835 12.9154595,0.909536043 15.6804324,0.589682385 C19.3370811,0.167259621 22.4328649,3.13366612 22.4328649,6.85224607 C22.4328649,8.44296694 21.8646486,9.89467967 20.9288649,11.0022461 C19.7530811,12.3945767 19.0763243,14.1611946 18.8743784,16.0011404 L13.8737297,16.0011404 Z"/>
    <path stroke="#231F20" stroke-linejoin="round" stroke-width=".5" d="M13.8737297,16.0011404 L18.8743784,16.0011404 C19.0763243,14.1611946 19.7530811,12.3945767 20.9288649,11.0022461 C21.8646486,9.89467967 22.4328649,8.44296694 22.4328649,6.85224607 C22.4328649,3.13366612 19.3370811,0.167259621 15.6804324,0.589682385 C12.9154595,0.909536043 10.6776216,3.22588835 10.3576216,6.10007263 C10.1483243,7.98275556 10.7372973,9.72058211 11.8175135,11.0004466 C12.9941622,12.393677 13.6704865,14.1607447 13.8737297,16.0011404 Z"/>
    <polygon fill="#FFF" points="19.41 16.001 15.646 16.001 13.338 16.001 13.338 19.392 19.41 19.392"/>
    <polygon stroke="#231F20" stroke-linejoin="round" stroke-width=".5" points="19.41 16.001 15.646 16.001 13.338 16.001 13.338 19.392 19.41 19.392"/>
    <g transform="translate(12.108 17.095)">
      <path fill="#FFF" d="M0.324756757,0.0348178862 L8.20756757,0.0348178862"/>
      <path stroke="#231F20" stroke-linejoin="round" stroke-width=".5" d="M0.324756757,0.0348178862 L8.20756757,0.0348178862"/>
    </g>
    <g transform="translate(12.108 17.995)">
      <path fill="#FFF" d="M0.324756757,0.257436098 L8.20756757,0.257436098"/>
      <path stroke="#231F20" stroke-linejoin="round" stroke-width=".5" d="M0.324756757,0.257436098 L8.20756757,0.257436098"/>
    </g>
    <mask id="menu-6-c" fill="#fff">
      <use xlink:href="#menu-6-b"/>
    </mask>
    <polygon fill="#FFF" points="15.008 20.558 17.74 20.558 17.74 19.392 15.008 19.392" mask="url(#menu-6-c)"/>
    <polygon stroke="#231F20" stroke-linejoin="round" stroke-width=".5" points="15.008 20.558 17.74 20.558 17.74 19.392 15.008 19.392" mask="url(#menu-6-c)"/>
    <polygon fill="#FFF" points="3.705 28.275 7.169 28.275 7.169 4.582 3.705 4.582" mask="url(#menu-6-c)"/>
    <polygon stroke="#231F20" stroke-width=".5" points="3.705 28.275 7.169 28.275 7.169 4.582 3.705 4.582" mask="url(#menu-6-c)"/>
    <polygon fill="#30BFD7" points="4.098 27.867 6.777 27.867 6.777 4.99 4.098 4.99" mask="url(#menu-6-c)"/>
    <polygon stroke="#020202" stroke-width=".5" points="4.098 27.867 6.777 27.867 6.777 4.99 4.098 4.99" mask="url(#menu-6-c)"/>
    <path stroke="#231F20" stroke-width=".5" d="M3.70525405 6.14762331L4.99260541 6.14762331M3.70525405 7.72916694L4.99260541 7.72916694M3.70525405 9.31071057L4.99260541 9.31071057M3.70525405 10.8927041L4.99260541 10.8927041M3.70525405 12.4742477L4.99260541 12.4742477M3.70525405 14.0558363L4.99260541 14.0558363M3.70525405 15.6378298L4.99260541 15.6378298M3.70525405 17.2193734L4.99260541 17.2193734M3.70525405 18.8009171L4.99260541 18.8009171M3.70525405 20.3829106L4.99260541 20.3829106M3.70525405 21.9644542L4.99260541 21.9644542M3.70525405 23.5460428L4.99260541 23.5460428M3.70525405 25.1280363L4.99260541 25.1280363M3.70525405 26.7095799L4.99260541 26.7095799" mask="url(#menu-6-c)"/>
    <path fill="#30BFD7" d="M30.3851676,24.4940873 L15.6457081,24.4940873 L15.6457081,26.8194369 L30.3851676,26.8194369 C31.0026811,26.8194369 31.5030054,26.2989436 31.5030054,25.6565371 C31.5030054,25.0145805 31.0026811,24.4940873 30.3851676,24.4940873" mask="url(#menu-6-c)"/>
    <path stroke="#020202" stroke-width=".5" d="M30.3851676,24.4940873 L15.6457081,24.4940873 L15.6457081,26.8194369 L30.3851676,26.8194369 C31.0026811,26.8194369 31.5030054,26.2989436 31.5030054,25.6565371 C31.5030054,25.0145805 31.0026811,24.4940873 30.3851676,24.4940873 Z" mask="url(#menu-6-c)"/>
    <path stroke="#231F20" stroke-width=".5" d="M28.0819459,26.8193919 L30.3850811,26.8193919 C31.0025946,26.8193919 31.5029189,26.2988986 31.5029189,25.6564921 C31.5029189,25.0145355 31.0025946,24.4940423 30.3850811,24.4940423 L28.0819459,24.4940423 L28.0819459,26.8193919 Z" mask="url(#menu-6-c)"/>
    <polygon stroke="#231F20" stroke-linejoin="round" stroke-width=".5" points="15.646 26.819 12.925 25.656 15.646 24.494" mask="url(#menu-6-c)"/>
    <path stroke="#231F20" stroke-linejoin="round" stroke-width=".5" d="M15.6457081,25.6565371 L28.0820324,25.6565371" mask="url(#menu-6-c)"/>
    <path stroke="#231F20" stroke-linecap="round" stroke-width=".5" d="M25.1155012 19.7046049L24.916627 19.9041939M24.1273066 20.7326352L23.9284324 20.9322243M25.1155012 20.9324492L24.916627 20.7328602M24.1273066 19.9044189L23.9284324 19.7048298" mask="url(#menu-6-c)"/>
    <path fill="#07DCDC" d="M27.7027027 6.11599783C27.7027027 6.46824173 27.4281081 6.75390569 27.0895135 6.75390569 26.7509189 6.75390569 26.4763243 6.46824173 26.4763243 6.11599783 26.4763243 5.76375393 26.7509189 5.47764011 27.0895135 5.47764011 27.4281081 5.47764011 27.7027027 5.76375393 27.7027027 6.11599783M10.9290811 23.3311875C10.9290811 23.6834314 10.6544865 23.9690954 10.3158919 23.9690954 9.9772973 23.9690954 9.7027027 23.6834314 9.7027027 23.3311875 9.7027027 22.9789436 9.9772973 22.6932797 10.3158919 22.6932797 10.6544865 22.6932797 10.9290811 22.9789436 10.9290811 23.3311875M7.53716757 1.07126233C7.53716757 1.42350623 7.26257297 1.70917019 6.92397838 1.70917019 6.58538378 1.70917019 6.31078919 1.42350623 6.31078919 1.07126233 6.31078919.719018428 6.58538378.433354472 6.92397838.433354472 7.26257297.433354472 7.53716757.719018428 7.53716757 1.07126233" mask="url(#menu-6-c)"/>
    <g mask="url(#menu-6-c)">
      <g transform="translate(13.838 6.688)">
        <path fill="#FFF" d="M2.08575135,9.3127935 C2.33223784,9.25251165 2.40229189,2.24722168 1.56337297,0.700137669 C1.56337297,0.700137669 1.23645405,-0.210388076 0.581318919,0.0626796748 C-0.0504648649,0.324950678 0.0922378378,1.18914038 0.0922378378,1.18914038 C0.0922378378,1.18914038 0.132454054,1.80500488 0.621967568,2.16489648 C1.11148108,2.5256878 2.41656216,2.48340054 2.41656216,2.48340054 L2.86499459,2.48340054"/>
        <path stroke="#231F20" stroke-linejoin="round" stroke-width=".5" d="M2.08575135,9.3127935 C2.33223784,9.25251165 2.40229189,2.24722168 1.56337297,0.700137669 C1.56337297,0.700137669 1.23645405,-0.210388076 0.581318919,0.0626796748 C-0.0504648649,0.324950678 0.0922378378,1.18914038 0.0922378378,1.18914038 C0.0922378378,1.18914038 0.132454054,1.80500488 0.621967568,2.16489648 C1.11148108,2.5256878 2.41656216,2.48340054 2.41656216,2.48340054 L2.86499459,2.48340054"/>
      </g>
    </g>
    <g mask="url(#menu-6-c)">
      <g transform="translate(16 6.688)">
        <path fill="#FFF" d="M1.01016216,9.3127935 C1.01016216,9.3127935 0.576432432,2.24722168 1.41535135,0.700137669 C1.41535135,0.700137669 1.72713514,-0.166301355 2.39740541,0.0626796748 C2.96605405,0.256121409 2.88691892,1.18914038 2.88691892,1.18914038 C2.88691892,1.18914038 2.89081081,1.751471 2.35675676,2.16489648 C1.87589189,2.53783415 0.562594595,2.48340054 0.562594595,2.48340054 L0.114162162,2.48340054"/>
        <path stroke="#231F20" stroke-linejoin="round" stroke-width=".5" d="M1.01016216,9.3127935 C1.01016216,9.3127935 0.576432432,2.24722168 1.41535135,0.700137669 C1.41535135,0.700137669 1.72713514,-0.166301355 2.39740541,0.0626796748 C2.96605405,0.256121409 2.88691892,1.18914038 2.88691892,1.18914038 C2.88691892,1.18914038 2.89081081,1.751471 2.35675676,2.16489648 C1.87589189,2.53783415 0.562594595,2.48340054 0.562594595,2.48340054 L0.114162162,2.48340054"/>
      </g>
    </g>
  </g>
</svg>
