<svg xmlns="http://www.w3.org/2000/svg" xmlns:xlink="http://www.w3.org/1999/xlink" width="63" height="39" viewBox="0 0 63 39">
  <defs>
    <filter id="menu-3-a" width="109.6%" height="106.6%" x="-4.8%" y="-2.6%" filterUnits="objectBoundingBox">
      <feOffset dy="2" in="SourceAlpha" result="shadowOffsetOuter1"/>
      <feGaussianBlur in="shadowOffsetOuter1" result="shadowBlurOuter1" stdDeviation="3"/>
      <feColorMatrix in="shadowBlurOuter1" result="shadowMatrixOuter1" values="0 0 0 0 0.399606718   0 0 0 0 0.397391411   0 0 0 0 0.397391411  0 0 0 0.5 0"/>
      <feMerge>
        <feMergeNode in="shadowMatrixOuter1"/>
        <feMergeNode in="SourceGraphic"/>
      </feMerge>
    </filter>
    <polygon id="menu-3-b" points="0 27.896 51.266 27.896 51.266 .444 0 .444"/>
  </defs>
  <g fill="none" fill-rule="evenodd" filter="url(#menu-3-a)" transform="translate(6.01 2.286)">
    <polyline stroke="#000" stroke-width=".68" points="19.179 5.486 41.135 5.547 50.843 27.569 8.542 27.855 .394 5.553 10.559 5.505"/>
    <polygon stroke="#000" stroke-linejoin="round" stroke-width=".68" points="19.007 3.594 19.007 13.732 13.014 13.795 12.989 11.766 12.913 5.685 12.887 3.594"/>
    <path stroke="#000" stroke-linecap="round" stroke-width=".68" d="M21.335711 10.8900742L26.9925566 26.6882818M25.4121235 10.9259993L30.8607667 26.4738197M25.8340396 12.3445652L21.9060904 12.4466252M26.5224002 14.1299348L22.5951314 14.2319948M27.1729307 15.9917814L23.2456619 16.0938414M27.8427164 17.8920706L23.9147672 17.9934502M28.4546682 19.7412617L24.5273994 19.8426413M29.1496288 21.7559261L25.3196572 21.8532233M29.9337217 23.7133688L26.0064529 23.8154288M30.5190698 25.489485L26.591801 25.591545M9.4027878 25.145951L25.516701 24.9853766M9.70645032 26.2456135L25.7319115 26.1238219M10.2898253 26.312701L10.9477721 26.8549798M11.2938235 26.312701L11.9524507 26.8549798M12.2978218 26.312701L12.956449 26.8549798M13.3024324 26.312701L13.9603792 26.8549798M14.3064306 26.312701L14.9650578 26.8549798M15.3111092 26.312701L15.969056 26.8549798M16.3151075 26.312701L16.9737347 26.8549798M17.3197181 26.312701L17.9776649 26.8549798M18.3237163 26.312701L18.9823435 26.8549798M19.3277146 26.312701L19.9863418 26.8549798M20.3323932 26.312701L20.99034 26.8549798M21.3363914 26.312701L21.9950186 26.8549798M22.341002 26.312701L22.9989488 26.8549798M23.3450003 26.312701L24.0036275 26.8549798M24.3496789 26.312701L25.0076257 26.8549798M25.3536091 26.312701L26.0115559 26.8549798M24.8745395 25.0176956L24.9235283 26.0512232M20.3017752 25.10676L20.3534856 26.0654436M15.7542538 25.1320028L15.8120878 26.1233456M10.7250091 25.1572457L10.7760391 26.1832889"/>
    <path stroke="#231F20" stroke-linecap="round" stroke-width=".68" d="M5.89913604.86281524L5.53444164 1.22750964M4.75558776 2.00636352L4.39089336 2.37105792M5.89913604 2.37112596L5.53444164 2.00643156M4.75558776 1.22764572L4.39089336.86227092M48.621452 12.628292L48.325478 13.0140788M47.6959039 13.837635L47.3999299 14.2241022M48.8088342 14.0369242L48.4230474 13.7409502M47.5988789 13.111376L47.2130921 12.815402M4.69843416 24.3253206L4.30652376 24.717231M3.47119668 25.5525581L3.07928628 25.9444685M4.69843416 25.9446046L4.30652376 25.5526942M3.47119668 24.7173671L3.07928628 24.3254567"/>
    <g transform="translate(0 .236)">
      <path fill="#17C6C1" d="M27.9616504,2.81359008 C27.9616504,3.12861528 27.7065004,3.38376528 27.3921556,3.38376528 C27.0771304,3.38376528 26.8219804,3.12861528 26.8219804,2.81359008 C26.8219804,2.49924528 27.0771304,2.24409528 27.3921556,2.24409528 C27.7065004,2.24409528 27.9616504,2.49924528 27.9616504,2.81359008 Z"/>
      <path fill="#07DDDD" d="M2.57817168,18.4089704 C2.57817168,18.7430468 2.30737248,19.0145264 1.97261568,19.0145264 C1.63853928,19.0145264 1.36842048,18.7430468 1.36842048,18.4089704 C1.36842048,18.074894 1.63853928,17.8034144 1.97261568,17.8034144 C2.30737248,17.8034144 2.57817168,18.074894 2.57817168,18.4089704"/>
      <path stroke="#000" stroke-linecap="round" stroke-width=".68" d="M31.827411 24.6282347L48.4386966 24.5608751M32.1543432 25.8016525L48.417264 25.8159409M32.5576163 25.8953436L33.2155631 26.436942M33.8327539 25.8953436L34.4913811 26.436942M35.1078235 25.8953436L35.7664507 26.436942M36.3835735 25.8953436L37.0415203 26.436942M37.6586431 25.8953436L38.3165899 26.436942M38.9337127 25.8953436L39.5923399 26.436942M40.2088504 25.8953436L40.8674776 26.436942M41.4846004 25.8953436L42.1425472 26.436942M42.75967 25.8953436L43.4176168 26.436942M44.0347396 25.8953436L44.6933668 26.436942M45.3104896 25.8953436L45.9684364 26.436942M46.5855592 25.8953436L47.243506 26.436942M33.5297038 24.6501436L33.5888986 25.7381032M38.0141521 24.6242884L38.0685841 25.7061244M42.497852 24.6116329L42.5475212 25.6580881M46.9822324 24.6242884L47.0271388 25.610188M47.7616306 25.8760883L48.4202578 26.4176867"/>
      <mask id="menu-3-c" fill="#fff">
        <use xlink:href="#menu-3-b"/>
      </mask>
      <polygon fill="#07DDDD" points="20.38 7.469 39.847 7.469 39.847 7.037 20.38 7.037" mask="url(#menu-3-c)"/>
      <polygon fill="#07DDDD" points="18.186 2.904 12.912 2.904 11.665 2.111 16.485 2.111" mask="url(#menu-3-c)"/>
      <polygon stroke="#000" stroke-linejoin="round" stroke-width=".68" points="18.979 3.28 12.858 3.28 10.658 2.036 16.78 2.036" mask="url(#menu-3-c)"/>
      <polygon stroke="#000" stroke-linejoin="round" stroke-width=".68" points="12.986 13.481 10.722 9.304 10.704 5.389 10.658 2.036 12.858 3.28 12.885 5.37 12.961 11.452" mask="url(#menu-3-c)"/>
      <polygon stroke="#000" stroke-linecap="round" stroke-width=".68" points="40.11 7.541 20.531 7.534 20.089 6.736 39.705 6.803" mask="url(#menu-3-c)"/>
      <polyline stroke="#000" stroke-linecap="round" stroke-width=".68" points="39.081 8.948 38.412 7.609 37.407 8.423" mask="url(#menu-3-c)"/>
      <polyline stroke="#000" stroke-linecap="round" stroke-width=".68" points="33.944 9.006 33.276 7.667 32.271 8.48" mask="url(#menu-3-c)"/>
      <polyline stroke="#000" stroke-linecap="round" stroke-width=".68" points="29.01 9.064 28.341 7.725 27.336 8.538" mask="url(#menu-3-c)"/>
      <polyline stroke="#000" stroke-linecap="round" stroke-width=".68" points="23.613 9.064 22.943 7.725 21.939 8.538" mask="url(#menu-3-c)"/>
      <path stroke="#000" stroke-linejoin="round" stroke-width=".68" d="M21.022727 6.7883508L21.4370906 7.4578644M21.9231004 6.80032584L22.337464 7.46983944M23.0393646 6.80032584L23.4537282 7.46983944M24.1549484 6.80032584L24.569312 7.46983944M25.2706003 6.80032584L25.6849639 7.46983944M26.3868646 6.80032584L26.8012282 7.46983944M27.5025164 6.80032584L27.91688 7.46983944M28.6187807 6.80032584L29.0324639 7.46983944M29.7343645 6.80032584L30.1487281 7.46983944M30.8500164 6.80032584L31.26438 7.46983944M31.9662806 6.80032584L32.3799638 7.46983944M33.0818645 6.80032584L33.4962281 7.46983944M34.1975164 6.80032584L34.61188 7.46983944M35.3137806 6.80032584L35.7274638 7.46983944M36.4294325 6.80032584L36.8437961 7.46983944M37.5450163 6.80032584L37.9593799 7.46983944M38.6612806 6.80032584L39.0756442 7.46983944" mask="url(#menu-3-c)"/>
      <polygon stroke="#000" stroke-linejoin="round" stroke-width=".68" points="33.182 18.837 41.517 18.893 39.306 13.394 31.311 13.394" mask="url(#menu-3-c)"/>
      <path stroke="#000" stroke-linejoin="round" stroke-width=".68" d="M33.1822235 18.836874L33.1822235 20.027574M31.3111235 13.393674L31.3111235 15.3287316M41.5171235 18.8933472L41.5171235 19.8146088" mask="url(#menu-3-c)"/>
      <polygon fill="#000" points="33.381 14.337 34.423 17.696 39.143 17.76 37.931 14.358" mask="url(#menu-3-c)"/>
      <polyline stroke="#000" stroke-width=".68" points="33.168 15.406 34.004 18.156 38.909 18.213" mask="url(#menu-3-c)"/>
    </g>
  </g>
</svg>
