<svg xmlns="http://www.w3.org/2000/svg" width="321" height="273" viewBox="0 0 321 273">
  <g fill="none" fill-rule="evenodd" transform="translate(3 5)">
    <path fill="#17C6C1" d="M276.11322,50.78608 C276.11322,54.40408 273.162712,57.34168 269.52339,57.34168 C265.884068,57.34168 262.938983,54.40408 262.938983,50.78608 C262.938983,47.16268 265.884068,44.22508 269.52339,44.22508 C273.162712,44.22508 276.11322,47.16268 276.11322,50.78608"/>
    <path fill="#07DDDD" d="M15.8008136,89.96254 C15.8008136,93.58594 12.8557288,96.52354 9.21640678,96.52354 C5.57708475,96.52354 2.62657627,93.58594 2.62657627,89.96254 C2.62657627,86.34454 5.57708475,83.40694 9.21640678,83.40694 C12.8557288,83.40694 15.8008136,86.34454 15.8008136,89.96254"/>
    <polyline stroke="#000" stroke-linecap="round" stroke-width="7.135" points=".869 143.625 158.233 .331 313.677 142.669"/>
    <polyline stroke="#000" stroke-linecap="round" stroke-width="4.76" points="49.328 265.431 48.845 144.103 157.271 46.66 265.22 145.059 265.702 264.475"/>
    <polygon fill="#84DBFF" points="205.53 257.942 167.017 219.597 184.058 202.63 222.577 240.97"/>
    <polygon fill="#84DBFF" points="130.366 183.107 91.852 144.762 108.899 127.795 147.413 166.135"/>
    <polygon stroke="#000" stroke-linecap="round" stroke-width="3.275" points="138.862 233.553 114.276 209.075 180.869 142.768 205.455 167.246"/>
    <polygon stroke="#000" stroke-linecap="round" stroke-width="3.275" points="117.628 254.689 93.042 230.216 107.589 215.728 132.175 240.206"/>
    <polygon stroke="#000" stroke-linecap="round" stroke-width="3.275" points="151.638 161.623 127.052 186.101 88.744 147.967 113.335 123.488"/>
    <polygon stroke="#000" stroke-linecap="round" stroke-width="3.275" points="226.468 236.126 201.882 260.605 162.685 221.584 187.271 197.101"/>
    <polygon stroke="#000" stroke-linecap="round" stroke-width="3.275" points="187.824 138.098 209.242 159.423 214.525 132.255"/>
    <path stroke="#000" stroke-linecap="round" stroke-width="3.275" d="M104.709288 144.52684L119.67878 129.62824M120.773831 145.40218L127.379932 138.83038M121.436068 160.9585L136.183186 146.2759M137.061288 161.18044L144.106712 154.60324M187.897898 210.9139L194.281627 204.9955M188.994576 226.25422L202.640678 212.88382M204.179932 227.3461L211.225356 220.7743M204.179932 242.68642L218.487729 229.31602"/>
    <g transform="translate(125.746 154.6)">
      <path fill="#84DBFF" d="M66.4743051,0.65826 L0.48379661,66.36006"/>
      <path stroke="#000" stroke-width="3.275" d="M66.4743051,0.65826 L0.48379661,66.36006"/>
    </g>
  </g>
</svg>
