<svg xmlns="http://www.w3.org/2000/svg" xmlns:xlink="http://www.w3.org/1999/xlink" width="588" height="316" viewBox="0 0 588 316">
  <defs>
    <polygon id="pic-9-a" points="0 315.19 587.905 315.19 587.905 .1 0 .1"/>
  </defs>
  <g fill="none" fill-rule="evenodd">
    <polyline stroke="#000" stroke-width="6.334" points="219.938 55.968 471.729 56.671 583.057 309.434 97.96 312.714 4.523 56.734 121.087 56.187"/>
    <polygon stroke="#000" stroke-linejoin="round" stroke-width="4.22" points="217.972 34.248 217.972 150.61 149.239 151.337 148.958 128.049 148.084 58.247 147.78 34.248"/>
    <path stroke="#000" stroke-linecap="round" stroke-width="3.51" d="M244.6718 117.994552L309.542879 299.323886M291.418926 118.406895L353.9024 296.862324M296.257338 134.688971L251.212746 135.8604M304.151261 155.181162L259.114471 156.35259M311.611357 176.551143L266.574567 177.722571M319.292267 198.362362L274.247675 199.525981M326.309954 219.587086L281.273164 220.750705M334.279562 242.711086L290.358549 243.827848M343.271314 265.178305L298.234525 266.349733M349.983918 285.564286L304.947129 286.735714"/>
    <path stroke="#000" stroke-linecap="round" stroke-width="4.384" d="M107.828467 281.621257L292.618191 279.77821M111.310782 294.24301L295.086163 292.845105"/>
    <path stroke="#000" stroke-linecap="round" stroke-width="2.192" d="M118.000758 295.013029L125.545903 301.237219M129.514321 295.013029L137.067268 301.237219M141.027884 295.013029L148.580832 301.237219M152.54847 295.013029L160.093614 301.237219M164.062033 295.013029L171.61498 301.237219M175.583399 295.013029L183.128543 301.237219M187.096962 295.013029L194.649909 301.237219M198.617547 295.013029L206.162692 301.237219M210.131111 295.013029L217.684058 301.237219M221.644674 295.013029L229.197621 301.237219M233.166039 295.013029L240.711184 301.237219M244.679603 295.013029L252.23255 301.237219M256.200188 295.013029L263.745333 301.237219M267.713751 295.013029L275.266699 301.237219M279.235117 295.013029L286.780262 301.237219M290.7479 295.013029L298.293045 301.237219"/>
    <path stroke="#000" stroke-linecap="round" stroke-width="4.04" d="M285.254067 280.149162L285.815857 292.011829M232.814921 281.171429L233.407921 292.175048M180.665253 281.461162L181.328476 292.839638M122.991321 281.750895L123.576518 293.527657"/>
    <path stroke="#231F20" stroke-linecap="round" stroke-width="4.173" d="M67.6495961 2.90325714L63.4673855 7.0891619M54.5357132 16.0287238L50.3535026 20.2146286M67.6495961 20.2154095L63.4673855 16.0295048M54.5357132 7.09072381L50.3535026 2.89700952"/>
    <path stroke="#231F20" stroke-linecap="round" stroke-width="3.931" d="M557.576833 137.945543L554.182688 142.373543M546.962913 151.82619L543.568768 156.262M559.725678 154.1136L555.301586 150.716457M545.850258 143.490305L541.426166 140.093162"/>
    <path stroke="#231F20" stroke-linecap="round" stroke-width="4.477" d="M53.8802921 272.20219L49.3859763 276.700476M39.8066855 286.288229L35.3123697 290.786514M53.8802921 290.788076L49.3859763 286.28979M39.8066855 276.702038L35.3123697 272.203752"/>
    <g transform="translate(0 .708)">
      <path fill="#17C6C1" d="M320.656167,27.2939429 C320.656167,30.9097524 317.73018,33.8383238 314.125364,33.8383238 C310.512746,33.8383238 307.586759,30.9097524 307.586759,27.2939429 C307.586759,23.6859429 310.512746,20.7573714 314.125364,20.7573714 C317.73018,20.7573714 320.656167,23.6859429 320.656167,27.2939429 Z"/>
      <path fill="#07DDDD" d="M29.5657316,206.295257 C29.5657316,210.129733 26.4602842,213.245733 22.6213895,213.245733 C18.7902974,213.245733 15.6926526,210.129733 15.6926526,206.295257 C15.6926526,202.460781 18.7902974,199.344781 22.6213895,199.344781 C26.4602842,199.344781 29.5657316,202.460781 29.5657316,206.295257"/>
      <path stroke="#000" stroke-linecap="round" stroke-width="4.384" d="M364.987599 277.67899L555.481046 276.905848M368.736763 291.147295L555.235263 291.311295"/>
      <path stroke="#000" stroke-linecap="round" stroke-width="2.192" d="M373.361383 292.222667L380.906528 298.439048M387.984295 292.222667L395.537242 298.439048M402.606426 292.222667L410.159374 298.439048M417.236361 292.222667L424.781505 298.439048M431.858492 292.222667L439.403637 298.439048M446.480624 292.222667L454.033571 298.439048M461.103536 292.222667L468.656483 298.439048M475.73347 292.222667L483.278614 298.439048M490.355601 292.222667L497.900746 298.439048M504.977733 292.222667L512.53068 298.439048M519.607667 292.222667L527.152812 298.439048M534.229799 292.222667L541.774943 298.439048"/>
      <path stroke="#000" stroke-linecap="round" stroke-width="4.384" d="M384.509003 277.930457L385.187832 290.417886M435.935367 277.633695L436.559578 290.050838M487.353149 277.488438L487.922741 289.499486M538.778733 277.633695L539.293707 288.949695"/>
      <path stroke="#000" stroke-linecap="round" stroke-width="2.192" d="M547.716647,292.001657 L555.269595,298.218038"/>
      <mask id="pic-9-b" fill="#fff">
        <use xlink:href="#pic-9-a"/>
      </mask>
      <polygon fill="#07DDDD" points="233.712 80.733 456.953 80.733 456.953 75.774 233.712 75.774" mask="url(#pic-9-b)"/>
      <polygon fill="#07DDDD" points="208.546 28.331 148.076 28.331 133.766 19.225 189.04 19.225" mask="url(#pic-9-b)"/>
      <polygon stroke="#000" stroke-linejoin="round" stroke-width="4.384" points="217.644 32.647 147.452 32.647 122.226 18.372 192.426 18.372" mask="url(#pic-9-b)"/>
      <polygon stroke="#000" stroke-linejoin="round" stroke-width="4.22" points="148.922 149.737 122.962 101.794 122.752 56.858 122.221 18.373 147.455 32.649 147.759 56.64 148.633 126.441" mask="url(#pic-9-b)"/>
      <polygon stroke="#000" stroke-linecap="round" stroke-width="4.064" points="459.975 81.549 235.439 81.471 230.375 72.31 455.325 73.084" mask="url(#pic-9-b)"/>
      <polyline stroke="#000" stroke-linecap="round" stroke-width="4.384" points="448.172 97.709 440.502 82.332 428.978 91.673" mask="url(#pic-9-b)"/>
      <polyline stroke="#000" stroke-linecap="round" stroke-width="4.384" points="389.264 98.373 381.594 82.996 370.069 92.336" mask="url(#pic-9-b)"/>
      <polyline stroke="#000" stroke-linecap="round" stroke-width="4.384" points="332.68 99.036 325.002 83.667 313.486 92.999" mask="url(#pic-9-b)"/>
      <polyline stroke="#000" stroke-linecap="round" stroke-width="4.384" points="270.785 99.036 263.107 83.667 251.59 92.999" mask="url(#pic-9-b)"/>
      <path stroke="#000" stroke-linejoin="round" stroke-width="4.22" d="M241.082589,72.915619 L245.834392,80.6001905" mask="url(#pic-9-b)"/>
      <path stroke="#000" stroke-linejoin="round" stroke-width="4.384" d="M251.407812 73.0530667L256.159614 80.7376381M264.208809 73.0530667L268.960612 80.7376381M277.002004 73.0530667L281.753807 80.7376381M289.795979 73.0530667L294.547782 80.7376381M302.596976 73.0530667L307.348779 80.7376381M315.390951 73.0530667L320.142754 80.7376381M328.191949 73.0530667L332.935949 80.7376381M340.985143 73.0530667L345.736946 80.7376381M353.779118 73.0530667L358.530921 80.7376381M366.580116 73.0530667L371.324116 80.7376381M379.373311 73.0530667L384.125113 80.7376381M392.167286 73.0530667L396.919088 80.7376381M404.968283 73.0530667L409.712283 80.7376381M417.762258 73.0530667L422.514061 80.7376381M430.555453 73.0530667L435.307255 80.7376381M443.35645 73.0530667L448.108253 80.7376381" mask="url(#pic-9-b)"/>
      <polygon stroke="#000" stroke-linejoin="round" stroke-width="4.22" points="380.524 211.207 476.106 211.855 450.748 148.73 359.067 148.73" mask="url(#pic-9-b)"/>
      <path stroke="#000" stroke-linejoin="round" stroke-width="4.22" d="M380.524199 211.206667L380.524199 224.873333M359.066962 148.730476L359.066962 170.940762M476.106436 211.854857L476.106436 222.428952" mask="url(#pic-9-b)"/>
      <polygon fill="#000" points="382.803 159.552 394.748 198.108 448.883 198.842 434.979 159.794" mask="url(#pic-9-b)"/>
      <polyline stroke="#000" stroke-width="1.95" points="380.364 171.831 389.954 203.397 446.203 204.045" mask="url(#pic-9-b)"/>
    </g>
  </g>
</svg>
