<svg xmlns="http://www.w3.org/2000/svg" xmlns:xlink="http://www.w3.org/1999/xlink" width="80" height="75" viewBox="0 0 80 75">
  <defs>
    <polygon id="pic-13-a" points="14.996 1 .34 1 .34 .5 14.996 .5 14.996 1"/>
    <polygon id="pic-13-c" points="2.871 1 .265 1 .265 .5 2.871 .5"/>
  </defs>
  <g fill="none" fill-rule="evenodd">
    <g transform="translate(29 74.062)">
      <mask id="pic-13-b" fill="#fff">
        <use xlink:href="#pic-13-a"/>
      </mask>
      <path stroke="#231F20" stroke-linecap="round" d="M0.3402,0.4997 L14.9962,0.4997" mask="url(#pic-13-b)"/>
      <g transform="translate(17)">
        <mask id="pic-13-d" fill="#fff">
          <use xlink:href="#pic-13-c"/>
        </mask>
        <path stroke="#231F20" stroke-linecap="round" d="M0.265,0.4997 L2.871,0.4997" mask="url(#pic-13-d)"/>
      </g>
    </g>
    <path stroke="#231F20" stroke-linecap="round" d="M49.0501 71.5652L63.7061 71.5652M65.9749 71.5652L68.5809 71.5652M8.0755 72.4666L11.2745 72.4666M14.5501 72.4666L37.0741 72.4666"/>
    <path fill="#FFF" d="M0.6498,69.5437 L77.5618,69.5437 L0.6498,69.5437 Z"/>
    <path stroke="#231F20" d="M0.6497,69.5438 L77.5617,69.5438"/>
    <polygon fill="#FFF" points=".65 32.881 17.745 39.244 17.745 7.012 .65 .65"/>
    <polygon stroke="#231F20" stroke-linecap="round" stroke-linejoin="round" stroke-width="1.3" points="17.744 39.244 .649 32.882 .649 .65 17.744 7.013"/>
    <polygon fill="#FFF" points="17.744 39.244 34.84 32.882 34.84 .65 17.744 7.013"/>
    <polygon stroke="#231F20" stroke-linecap="round" stroke-linejoin="round" stroke-width="1.3" points="17.744 39.244 34.84 32.882 34.84 .65 17.744 7.013"/>
    <polygon fill="#FFF" points="51.934 39.244 34.839 32.882 34.839 .65 51.934 7.013"/>
    <polygon stroke="#231F20" stroke-linecap="round" stroke-linejoin="round" stroke-width="1.3" points="51.934 39.244 34.839 32.882 34.839 .65 51.934 7.013"/>
    <polygon fill="#FFF" points="17.308 66.822 48.881 66.822 48.881 48.707 17.308 48.707"/>
    <polygon stroke="#231F20" stroke-width="1.5" points="17.308 66.822 48.881 66.822 48.881 48.707 17.308 48.707"/>
    <polygon fill="#FFF" points="60.904 66.822 48.882 66.822 48.882 53.063 54.943 53.063 60.904 59.943"/>
    <polygon stroke="#231F20" stroke-width="1.5" points="60.904 66.822 48.882 66.822 48.882 53.063 54.943 53.063 60.904 59.943"/>
    <polygon fill="#07DDDD" points="59.174 60.309 54.236 54.61 50.428 54.61 50.428 60.309"/>
    <polygon stroke="#070707" stroke-width=".67" points="59.174 60.309 54.236 54.61 50.428 54.61 50.428 60.309"/>
    <g transform="translate(0 .062)">
      <path fill="#FFF" d="M21.7347,64.0398 C20.2317,64.0398 19.0127,65.2578 19.0127,66.7618 C19.0127,68.2648 20.2317,69.4818 21.7347,69.4818 C23.2377,69.4818 24.4557,68.2648 24.4557,66.7618 C24.4557,65.2578 23.2377,64.0398 21.7347,64.0398"/>
      <path stroke="#231F20" stroke-width="1.5" d="M21.7347,64.0398 C20.2317,64.0398 19.0127,65.2578 19.0127,66.7618 C19.0127,68.2648 20.2317,69.4818 21.7347,69.4818 C23.2377,69.4818 24.4557,68.2648 24.4557,66.7618 C24.4557,65.2578 23.2377,64.0398 21.7347,64.0398 Z"/>
      <path fill="#FFF" d="M27.1771,64.0398 C25.6741,64.0398 24.4551,65.2578 24.4551,66.7618 C24.4551,68.2648 25.6741,69.4818 27.1771,69.4818 C28.6801,69.4818 29.8991,68.2648 29.8991,66.7618 C29.8991,65.2578 28.6801,64.0398 27.1771,64.0398"/>
      <path stroke="#231F20" stroke-width="1.5" d="M27.1771,64.0398 C25.6741,64.0398 24.4551,65.2578 24.4551,66.7618 C24.4551,68.2648 25.6741,69.4818 27.1771,69.4818 C28.6801,69.4818 29.8991,68.2648 29.8991,66.7618 C29.8991,65.2578 28.6801,64.0398 27.1771,64.0398 Z"/>
      <path fill="#FFF" d="M55.6732,64.0398 C54.1702,64.0398 52.9512,65.2578 52.9512,66.7618 C52.9512,68.2648 54.1702,69.4818 55.6732,69.4818 C57.1762,69.4818 58.3942,68.2648 58.3942,66.7618 C58.3942,65.2578 57.1762,64.0398 55.6732,64.0398"/>
      <path stroke="#231F20" stroke-width="1.5" d="M55.6732,64.0398 C54.1702,64.0398 52.9512,65.2578 52.9512,66.7618 C52.9512,68.2648 54.1702,69.4818 55.6732,69.4818 C57.1762,69.4818 58.3942,68.2648 58.3942,66.7618 C58.3942,65.2578 57.1762,64.0398 55.6732,64.0398 Z"/>
      <path fill="#FFF" d="M78.9583,31.6833 C78.9583,40.4753 69.3503,49.4993 69.3503,49.4993 C69.3503,49.4993 59.7403,40.4753 59.7403,31.6833 C59.7403,26.3763 64.0433,22.0743 69.3503,22.0743 C74.6563,22.0743 78.9583,26.3763 78.9583,31.6833"/>
      <path stroke="#231F20" d="M78.9583,31.6833 C78.9583,40.4753 69.3503,49.4993 69.3503,49.4993 C69.3503,49.4993 59.7403,40.4753 59.7403,31.6833 C59.7403,26.3763 64.0433,22.0743 69.3503,22.0743 C74.6563,22.0743 78.9583,26.3763 78.9583,31.6833 Z"/>
      <path fill="#07DDDD" d="M76.1117,31.8142 C76.1117,33.7942 75.2597,35.5762 73.9037,36.8122 C72.7027,37.9082 71.1037,38.5772 69.3497,38.5772 C67.5947,38.5772 65.9967,37.9082 64.7957,36.8122 C63.4397,35.5762 62.5887,33.7942 62.5887,31.8142 C62.5887,29.8352 63.4387,28.0532 64.7947,26.8172 C65.9957,25.7202 67.5947,25.0522 69.3497,25.0522 C71.1047,25.0522 72.7037,25.7202 73.9047,26.8172 C75.2607,28.0532 76.1117,29.8352 76.1117,31.8142"/>
      <path stroke="#070707" stroke-width=".67" d="M76.1117,31.8142 C76.1117,33.7942 75.2597,35.5762 73.9037,36.8122 C72.7027,37.9082 71.1037,38.5772 69.3497,38.5772 C67.5947,38.5772 65.9967,37.9082 64.7957,36.8122 C63.4397,35.5762 62.5887,33.7942 62.5887,31.8142 C62.5887,29.8352 63.4387,28.0532 64.7947,26.8172 C65.9957,25.7202 67.5947,25.0522 69.3497,25.0522 C71.1047,25.0522 72.7037,25.7202 73.9047,26.8172 C75.2607,28.0532 76.1117,29.8352 76.1117,31.8142 Z"/>
      <path fill="#07DDDD" d="M72.8968,31.8142 C72.8968,35.5482 71.3088,38.5762 69.3498,38.5762 C67.3908,38.5762 65.8018,35.5482 65.8018,31.8142 C65.8018,28.0802 67.3908,25.0522 69.3498,25.0522 C71.3088,25.0522 72.8968,28.0802 72.8968,31.8142"/>
      <path stroke="#070707" stroke-width=".67" d="M72.8968,31.8142 C72.8968,35.5482 71.3088,38.5762 69.3498,38.5762 C67.3908,38.5762 65.8018,35.5482 65.8018,31.8142 C65.8018,28.0802 67.3908,25.0522 69.3498,25.0522 C71.3088,25.0522 72.8968,28.0802 72.8968,31.8142 Z"/>
      <g transform="translate(62 31)">
        <path fill="#07DDDD" d="M14.1117,0.8142 L0.5887,0.8142"/>
        <path stroke="#070707" stroke-width=".67" d="M14.1117,0.8142 L0.5887,0.8142"/>
      </g>
      <g transform="translate(69 25)">
        <path fill="#07DDDD" d="M0.348,13.5759 L0.348,0.0529"/>
        <path stroke="#070707" stroke-width=".67" d="M0.348,13.5759 L0.348,0.0529"/>
      </g>
      <path fill="#CED5E0" d="M62.2884,9.7722 C62.2614,9.7722 62.2344,9.7762 62.2084,9.7762 C62.2334,9.6102 62.2504,9.4402 62.2504,9.2662 C62.2504,7.3832 60.7244,5.8562 58.8404,5.8562 C58.3484,5.8562 57.8814,5.9622 57.4584,6.1502 C56.8314,4.6992 55.3884,3.6822 53.7064,3.6822 C52.1374,3.6822 50.7754,4.5692 50.0914,5.8692 C50.0644,5.8682 50.0394,5.8642 50.0124,5.8642 C48.1894,5.8642 46.7114,7.3422 46.7114,9.1662 C46.7114,9.1772 46.7134,9.1902 46.7134,9.2022 C45.3624,9.8182 44.4224,11.1772 44.4224,12.7582 C44.4224,14.9182 46.1734,16.6682 48.3324,16.6682 L62.2884,16.6682 C64.1924,16.6682 65.7364,15.1252 65.7364,13.2202 C65.7364,11.3162 64.1924,9.7722 62.2884,9.7722"/>
      <path fill="#E6E9EE" d="M74.1136,6.6785 C74.0866,6.6785 74.0596,6.6825 74.0336,6.6825 C74.0586,6.5165 74.0756,6.3465 74.0756,6.1735 C74.0756,4.2895 72.5486,2.7625 70.6656,2.7625 C70.1726,2.7625 69.7056,2.8685 69.2836,3.0565 C68.6566,1.6055 67.2136,0.5885 65.5316,0.5885 C63.9616,0.5885 62.5996,1.4755 61.9166,2.7755 C61.8896,2.7745 61.8646,2.7715 61.8376,2.7715 C60.0136,2.7715 58.5366,4.2485 58.5366,6.0725 C58.5366,6.0835 58.5386,6.0965 58.5386,6.1085 C57.1876,6.7245 56.2476,8.0835 56.2476,9.6645 C56.2476,11.8245 57.9986,13.5745 60.1576,13.5745 L74.1136,13.5745 C76.0176,13.5745 77.5616,12.0315 77.5616,10.1265 C77.5616,8.2225 76.0176,6.6785 74.1136,6.6785"/>
      <path stroke="#231F20" stroke-linecap="round" d="M11.2718 44.3699L10.4988 45.1429M8.8509 46.7908L8.0789 47.5638M11.2718 47.5642L10.4988 46.7912M8.8509 45.1433L8.0779 44.3703"/>
      <path stroke="#231F20" stroke-linecap="round" stroke-linejoin="round" d="M3.929 62.0759L8.791 62.0759M8.3255 63.8454L10.7035 63.8454M10.9974 62.0759L13.2634 62.0759M6.1273 63.8454L6.5913 63.8454"/>
      <polyline stroke="#231F20" stroke-linecap="round" stroke-linejoin="round" points=".65 43.353 12.631 18.855 21.365 27.588 29.058 13.997 37.943 22.88 41.798 17.669"/>
      <path fill="#07DDDD" d="M14.4906,19.0242 C14.4906,20.0312 13.6746,20.8472 12.6676,20.8472 C11.6606,20.8472 10.8446,20.0312 10.8446,19.0242 C10.8446,18.0172 11.6606,17.2012 12.6676,17.2012 C13.6746,17.2012 14.4906,18.0172 14.4906,19.0242"/>
      <path stroke="#070707" stroke-width=".67" d="M14.4906,19.0242 C14.4906,20.0312 13.6746,20.8472 12.6676,20.8472 C11.6606,20.8472 10.8446,20.0312 10.8446,19.0242 C10.8446,18.0172 11.6606,17.2012 12.6676,17.2012 C13.6746,17.2012 14.4906,18.0172 14.4906,19.0242 Z"/>
      <path fill="#07DDDD" d="M23.0472,27.4021 C23.0472,28.4091 22.2312,29.2251 21.2242,29.2251 C20.2172,29.2251 19.4012,28.4091 19.4012,27.4021 C19.4012,26.3951 20.2172,25.5791 21.2242,25.5791 C22.2312,25.5791 23.0472,26.3951 23.0472,27.4021"/>
      <path stroke="#070707" stroke-width=".67" d="M23.0472,27.4021 C23.0472,28.4091 22.2312,29.2251 21.2242,29.2251 C20.2172,29.2251 19.4012,28.4091 19.4012,27.4021 C19.4012,26.3951 20.2172,25.5791 21.2242,25.5791 C22.2312,25.5791 23.0472,26.3951 23.0472,27.4021 Z"/>
      <path fill="#07DDDD" d="M30.8822,13.9968 C30.8822,15.0038 30.0662,15.8198 29.0592,15.8198 C28.0522,15.8198 27.2362,15.0038 27.2362,13.9968 C27.2362,12.9898 28.0522,12.1738 29.0592,12.1738 C30.0662,12.1738 30.8822,12.9898 30.8822,13.9968"/>
      <path stroke="#070707" stroke-width=".67" d="M30.8822,13.9968 C30.8822,15.0038 30.0662,15.8198 29.0592,15.8198 C28.0522,15.8198 27.2362,15.0038 27.2362,13.9968 C27.2362,12.9898 28.0522,12.1738 29.0592,12.1738 C30.0662,12.1738 30.8822,12.9898 30.8822,13.9968 Z"/>
      <path fill="#07DDDD" d="M39.9232,22.6706 C39.9232,23.6776 39.1072,24.4936 38.1002,24.4936 C37.0922,24.4936 36.2772,23.6776 36.2772,22.6706 C36.2772,21.6636 37.0922,20.8476 38.1002,20.8476 C39.1072,20.8476 39.9232,21.6636 39.9232,22.6706"/>
      <path stroke="#070707" stroke-width=".67" d="M39.9232,22.6706 C39.9232,23.6776 39.1072,24.4936 38.1002,24.4936 C37.0922,24.4936 36.2772,23.6776 36.2772,22.6706 C36.2772,21.6636 37.0922,20.8476 38.1002,20.8476 C39.1072,20.8476 39.9232,21.6636 39.9232,22.6706 Z"/>
      <polyline stroke="#231F20" stroke-linecap="round" stroke-linejoin="round" stroke-width="1.565" points="41.882 20.052 41.853 17.663 39.539 18.003"/>
      <path fill="#07DDDD" d="M5.431,55.4333 C5.431,56.2633 4.759,56.9353 3.929,56.9353 C3.1,56.9353 2.427,56.2633 2.427,55.4333 C2.427,54.6043 3.1,53.9313 3.929,53.9313 C4.759,53.9313 5.431,54.6043 5.431,55.4333"/>
      <path stroke="#070707" stroke-width=".67" d="M5.431,55.4333 C5.431,56.2633 4.759,56.9353 3.929,56.9353 C3.1,56.9353 2.427,56.2633 2.427,55.4333 C2.427,54.6043 3.1,53.9313 3.929,53.9313 C4.759,53.9313 5.431,54.6043 5.431,55.4333 Z"/>
    </g>
  </g>
</svg>
