<svg xmlns="http://www.w3.org/2000/svg" width="96" height="85" viewBox="0 0 96 85">
  <g fill="none" fill-rule="evenodd" transform="translate(1 2)">
    <path fill="#07DDDD" d="M78.7327136,15.6132562 C76.9485278,15.6132562 75.5027221,14.1568095 75.5027221,12.3605253 C75.5027221,10.5637787 76.9485278,9.10779442 78.7327136,9.10779442 C80.5168995,9.10779442 81.9627052,10.5637787 81.9627052,12.3605253 C81.9627052,14.1568095 80.5168995,15.6132562 78.7327136,15.6132562 Z M86.2165605,13.5552739 L86.2165605,11.1657767 L84.3607501,10.8356488 C84.2280611,10.3376827 84.0338484,9.86607141 83.7836216,9.42959978 L84.8634994,7.87605667 L83.1858321,6.18611618 L81.6426904,7.27405872 C81.2097292,7.02207033 80.7414149,6.82649035 80.24693,6.69286714 L79.91911,4.82352941 L77.5463173,4.82352941 L77.2189564,6.69286714 C76.7244715,6.82649035 76.2556981,7.02207033 75.8227369,7.27405872 L74.2795952,6.18611618 L72.6019279,7.87605667 L73.6818057,9.43006214 C73.4315789,9.86607141 73.2373662,10.3376827 73.1046771,10.8356488 L71.2484076,11.1657767 L71.2488668,13.5548116 L73.1046771,13.8849395 C73.2373662,14.3829055 73.4315789,14.8540545 73.6818057,15.2909885 L72.6019279,16.8445316 L74.2795952,18.5340097 L75.8227369,17.4469919 C76.2556981,17.6989803 76.7244715,17.8945603 77.2184973,18.0281835 L77.5463173,19.8970588 L79.91911,19.8970588 L80.24693,18.0281835 C80.7414149,17.8945603 81.2097292,17.6989803 81.6426904,17.4469919 L83.1858321,18.5340097 L84.8634994,16.8449939 L83.7836216,15.2909885 C84.0338484,14.8545168 84.2280611,14.3829055 84.3607501,13.8849395 L86.2165605,13.5552739 Z"/>
    <path stroke="#070707" stroke-width=".5" d="M78.7327136,15.6132562 C76.9485278,15.6132562 75.5027221,14.1568095 75.5027221,12.3605253 C75.5027221,10.5637787 76.9485278,9.10779442 78.7327136,9.10779442 C80.5168995,9.10779442 81.9627052,10.5637787 81.9627052,12.3605253 C81.9627052,14.1568095 80.5168995,15.6132562 78.7327136,15.6132562 Z M86.2165605,13.5552739 L86.2165605,11.1657767 L84.3607501,10.8356488 C84.2280611,10.3376827 84.0338484,9.86607141 83.7836216,9.42959978 L84.8634994,7.87605667 L83.1858321,6.18611618 L81.6426904,7.27405872 C81.2097292,7.02207033 80.7414149,6.82649035 80.24693,6.69286714 L79.91911,4.82352941 L77.5463173,4.82352941 L77.2189564,6.69286714 C76.7244715,6.82649035 76.2556981,7.02207033 75.8227369,7.27405872 L74.2795952,6.18611618 L72.6019279,7.87605667 L73.6818057,9.43006214 C73.4315789,9.86607141 73.2373662,10.3376827 73.1046771,10.8356488 L71.2484076,11.1657767 L71.2488668,13.5548116 L73.1046771,13.8849395 C73.2373662,14.3829055 73.4315789,14.8540545 73.6818057,15.2909885 L72.6019279,16.8445316 L74.2795952,18.5340097 L75.8227369,17.4469919 C76.2556981,17.6989803 76.7244715,17.8945603 77.2184973,18.0281835 L77.5463173,19.8970588 L79.91911,19.8970588 L80.24693,18.0281835 C80.7414149,17.8945603 81.2097292,17.6989803 81.6426904,17.4469919 L83.1858321,18.5340097 L84.8634994,16.8449939 L83.7836216,15.2909885 C84.0338484,14.8545168 84.2280611,14.3829055 84.3607501,13.8849395 L86.2165605,13.5552739 Z"/>
    <polygon stroke="#070707" stroke-width="1.78" points="49.12 0 35.924 15.973 42.522 15.973 42.522 32.865 49.12 39.191 55.901 32.682 55.901 16.157 62.866 15.973"/>
    <path stroke="#070707" stroke-width="1.78" d="M11.3757962 31.3330481L31.3441445 25.3235294 29.165654 31.3330481C29.165654 31.3330481 43.3251535 39.0147446 45.5031847 43.5511433L38.9681724 60.2941176C38.9681724 60.2941176 34.6116506 46.8590972 24.2643947 44.1040817L21.7230521 49.862935 11.3757962 31.3330481zM86.8152866 31.7613074L77.3082886 50.1102777 73.869912 44.2933786C73.869912 44.2933786 55.9180058 51.5060915 56.8325316 77.7794118L43.1206576 77.7794118C43.1206576 77.7794118 42.571572 64.6501985 48.7877573 51.977103 55.0039425 39.3030767 69.6298798 31.7613074 69.6298798 31.7613074L66.8872274 25.3235294 86.8152866 31.7613074z"/>
    <path fill="#FFF" d="M12.663747,60.3853046 C7.7532733,65.3299502 7.7532733,73.3468702 12.663747,78.2915158 C17.5742207,83.2361614 25.5349858,83.2361614 30.4445333,78.2915158 C35.355007,73.3468702 35.355007,65.3299502 30.4445333,60.3853046 C25.5349858,55.4401926 17.5742207,55.4401926 12.663747,60.3853046"/>
    <path stroke="#231F20" stroke-linecap="round" stroke-linejoin="round" stroke-width="1.435" d="M12.663747,60.3853046 C7.7532733,65.3299502 7.7532733,73.3468702 12.663747,78.2915158 C17.5742207,83.2361614 25.5349858,83.2361614 30.4445333,78.2915158 C35.355007,73.3468702 35.355007,65.3299502 30.4445333,60.3853046 C25.5349858,55.4401926 17.5742207,55.4401926 12.663747,60.3853046 Z"/>
    <path stroke="#231F20" stroke-linecap="round" stroke-linejoin="round" stroke-width="1.435" d="M15.2914368,62.428501 C11.6671856,66.0777987 11.6671856,71.9952624 15.2914368,75.6450284 C18.9156879,79.2947945 24.7917835,79.2947945 28.4155696,75.6450284 C32.0398207,71.9952624 32.0398207,66.0777987 28.4155696,62.428501 C24.7917835,58.778735 18.9156879,58.778735 15.2914368,62.428501 Z"/>
    <path stroke="#231F20" stroke-linecap="round" stroke-linejoin="round" stroke-width="1.435" d="M17.3207535,65.0746806 C14.9822541,67.4297 14.9822541,71.247178 17.3207535,73.6017317 C19.6592529,75.9562855 23.449952,75.9562855 25.7875267,73.6017317 C28.1260261,71.247178 28.1260261,67.4297 25.7875267,65.0751462 C23.449952,62.7201269 19.6592529,62.7201269 17.3207535,65.0746806 Z"/>
    <path fill="#07DDDD" d="M19.0143141,66.7802161 C17.6109399,68.1935417 17.6109399,70.4837838 19.0143141,71.8966209 C20.4172033,73.3089695 22.6913195,73.3089695 24.0946938,71.8966209 C25.4970978,70.4837838 25.4970978,68.1935417 24.0946938,66.7802161 C22.6913195,65.367379 20.4172033,65.367379 19.0143141,66.7802161"/>
    <path stroke="#070707" stroke-width=".837" d="M19.0143141,66.7802161 C17.6109399,68.1935417 17.6109399,70.4837838 19.0143141,71.8966209 C20.4172033,73.3089695 22.6913195,73.3089695 24.0946938,71.8966209 C25.4970978,70.4837838 25.4970978,68.1935417 24.0946938,66.7802161 C22.6913195,65.367379 20.4172033,65.367379 19.0143141,66.7802161 Z"/>
    <path stroke="#231F20" stroke-linecap="round" stroke-linejoin="round" stroke-width="1.435" d="M21.5541401,69.3382353 L4.78980892,52.4558824"/>
    <polygon fill="#07DDDD" points="4.79 51.841 9.588 56.676 10.178 52.469 5.38 47.632"/>
    <polygon stroke="#231F20" stroke-linecap="round" stroke-linejoin="round" stroke-width="1.435" points="4.79 51.841 9.588 56.676 10.178 52.469 5.38 47.632"/>
    <polygon fill="#07DDDD" points="4.178 51.853 8.981 56.685 4.802 57.279 0 52.447"/>
    <polygon stroke="#231F20" stroke-linecap="round" stroke-linejoin="round" stroke-width="1.435" points="4.178 51.853 8.981 56.685 4.802 57.279 0 52.447"/>
    <path stroke="#231F20" stroke-linecap="round" stroke-width="1.76" d="M23.9490446 10.8529412L22.7515924 12.0588235M20.955414 14.4705882L19.7579618 15.6764706M23.9490446 15.6764706L22.7515924 14.4705882M20.955414 12.0588235L19.7579618 10.8529412"/>
    <path stroke="#231F20" stroke-linecap="round" stroke-width="1.194" d="M94 42.2058824L92.8025478 43.4117647M91.6050955 44.6176471L90.4076433 45.8235294M94 45.8235294L92.8025478 44.6176471M91.6050955 43.4117647L90.4076433 42.2058824"/>
    <path fill="#07DDDD" d="M67.656051,67.5294118 C67.656051,73.8557182 72.7489468,78.9852941 79.032078,78.9852941 C85.3142858,78.9852941 90.4076433,73.8557182 90.4076433,67.5294118 C90.4076433,61.2026404 85.3142858,56.0735294 79.032078,56.0735294 C72.7489468,56.0735294 67.656051,61.2026404 67.656051,67.5294118"/>
    <path stroke="#070707" stroke-width="1.034" d="M67.656051,67.5294118 C67.656051,73.8557182 72.7489468,78.9852941 79.032078,78.9852941 C85.3142858,78.9852941 90.4076433,73.8557182 90.4076433,67.5294118 C90.4076433,61.2026404 85.3142858,56.0735294 79.032078,56.0735294 C72.7489468,56.0735294 67.656051,61.2026404 67.656051,67.5294118 Z"/>
    <path stroke="#231F20" stroke-width="1.31" d="M78.433121 57.2794118L78.433121 58.4852941M78.433121 75.3676471L78.433121 76.5735294M74.2420382 59.0882353L74.8407643 60.2941176M83.2229299 74.1617647L83.8216561 75.3676471M70.6496815 62.1029412L71.8471338 62.7058824M86.2165605 71.1470588L87.4140127 71.75M70.6496815 71.75L71.8471338 71.1470588M86.2165605 62.7058824L87.4140127 62.1029412M74.2420382 75.3676471L74.8407643 74.1617647M83.2229299 60.2941176L83.8216561 59.0882353M68.8535032 66.9264706L70.0509554 66.9264706M86.8152866 66.9264706L88.0127389 66.9264706"/>
    <polyline stroke="#231F20" stroke-width="1.31" points="73.643 66.926 78.433 66.926 78.433 61.5"/>
    <path fill="#07DDDD" d="M7.18471338,22.0073529 C7.18471338,23.1726023 6.24616192,24.1176471 5.08891886,24.1176471 C3.9316758,24.1176471 2.99363057,23.1726023 2.99363057,22.0073529 C2.99363057,20.8421036 3.9316758,19.8970588 5.08891886,19.8970588 C6.24616192,19.8970588 7.18471338,20.8421036 7.18471338,22.0073529"/>
  </g>
</svg>
