<svg xmlns="http://www.w3.org/2000/svg" xmlns:xlink="http://www.w3.org/1999/xlink" width="109" height="88" viewBox="0 0 109 88">
  <defs>
    <polygon id="pic-10-a" points="0 97 134 97 134 0 0 0"/>
    <rect id="pic-10-c" width="9.926" height="9.898" x="33.748" y="46.52" rx="4.949"/>
    <rect id="pic-10-d" width="9.926" height="9.898" x="33.748" y="57.408" rx="4.949"/>
    <rect id="pic-10-e" width="9.926" height="9.898" x="33.748" y="35.633" rx="4.949"/>
    <rect id="pic-10-f" width="9.926" height="9.898" x="44.667" y="46.52" rx="4.949"/>
    <rect id="pic-10-g" width="9.926" height="9.898" x="44.667" y="57.408" rx="4.949"/>
    <rect id="pic-10-h" width="9.926" height="9.898" x="44.667" y="35.633" rx="4.949"/>
    <rect id="pic-10-i" width="9.926" height="9.898" x="56.578" y="46.52" rx="4.949"/>
    <rect id="pic-10-j" width="9.926" height="9.898" x="56.578" y="57.408" rx="4.949"/>
    <rect id="pic-10-k" width="9.926" height="9.898" x="56.578" y="35.633" rx="4.949"/>
  </defs>
  <g fill="none" fill-rule="evenodd" transform="translate(-11 -2)">
    <path fill="#07DCDC" d="M119.301111,29.2051497 C119.301111,30.1633879 118.524092,30.9413418 117.564566,30.9413418 C116.606132,30.9413418 115.82802,30.1633879 115.82802,29.2051497 C115.82802,28.245819 116.606132,27.4689577 117.564566,27.4689577 C118.524092,27.4689577 119.301111,28.245819 119.301111,29.2051497"/>
    <path stroke="#231F20" stroke-linecap="round" stroke-width="1.831" d="M16.5781461 44.5510549L15.6699841 45.459032M13.7371616 47.3914607L12.8289996 48.2994378M16.5781461 48.299547L15.6699841 47.39157M13.7371616 45.4591413L12.8289996 44.5511642"/>
    <path fill="#17C5C0" d="M36.0051643,81.4391806 C36.0051643,82.3974187 35.227052,83.1753726 34.2686186,83.1753726 C33.3090924,83.1753726 32.5320728,82.3974187 32.5320728,81.4391806 C32.5320728,80.4798498 33.3090924,79.7029885 34.2686186,79.7029885 C35.227052,79.7029885 36.0051643,80.4798498 36.0051643,81.4391806"/>
    <path fill="#07DCDC" d="M21.6774051,30.9412325 C21.6774051,31.8994706 20.9003856,32.6774245 19.9419522,32.6774245 C18.982426,32.6774245 18.2054064,31.8994706 18.2054064,30.9412325 C18.2054064,29.9819017 18.982426,29.2050405 19.9419522,29.2050405 C20.9003856,29.2050405 21.6774051,29.9819017 21.6774051,30.9412325"/>
    <mask id="pic-10-b" fill="#fff">
      <use xlink:href="#pic-10-a"/>
    </mask>
    <polygon stroke="#000" stroke-width="1.118" points="27.083 28.235 100.971 28.235 100.971 19.812 27.083 19.812" mask="url(#pic-10-b)"/>
    <polyline stroke="#000" stroke-width="1.118" points="66.11 73.12 27.084 73.12 27.084 28.416 100.924 28.416 100.924 73.12 93.318 73.12" mask="url(#pic-10-b)"/>
    <path stroke="#231F20" stroke-linecap="round" stroke-width="1.497" d="M90.0773266 2.96938776L89.3333333 3.71128479M87.0995488 5.93877551L86.3555556 6.68067254M90.0773266 6.68067254L89.3333333 5.93877551M87.0995488 3.71237742L86.3555556 2.96938776" mask="url(#pic-10-b)"/>
    <path fill="#17C5C0" d="M74.3155363,10.3285847 C74.3155363,11.1130944 73.6778278,11.7490061 72.8911015,11.7490061 C72.1043752,11.7490061 71.4666667,11.1130944 71.4666667,10.3285847 C71.4666667,9.54407501 72.1043752,8.90816327 72.8911015,8.90816327 C73.6778278,8.90816327 74.3155363,9.54407501 74.3155363,10.3285847" mask="url(#pic-10-b)"/>
    <path fill="#07DCDC" d="M82.7260549,58.9611788 L71.886186,58.9611788 C71.6540337,58.9611788 71.4666667,58.7371892 71.4666667,58.4596607 L71.4666667,54.9413862 C71.4666667,54.6638577 71.6540337,54.4387755 71.886186,54.4387755 L82.7260549,54.4387755 C82.9582073,54.4387755 83.1464883,54.6638577 83.1464883,54.9413862 L83.1464883,58.4596607 C83.1464883,58.7371892 82.9582073,58.9611788 82.7260549,58.9611788" mask="url(#pic-10-b)"/>
    <g mask="url(#pic-10-b)">
      <use fill="#2ABFBF" xlink:href="#pic-10-c"/>
      <rect width="9.376" height="9.348" x="34.023" y="46.795" stroke="#000" stroke-width=".55" rx="4.674"/>
    </g>
    <g mask="url(#pic-10-b)">
      <use fill="#FFF" xlink:href="#pic-10-d"/>
      <rect width="9.376" height="9.348" x="34.023" y="57.683" stroke="#000" stroke-width=".55" rx="4.674"/>
    </g>
    <g mask="url(#pic-10-b)">
      <use fill="#417505" xlink:href="#pic-10-e"/>
      <rect width="9.376" height="9.348" x="34.023" y="35.908" stroke="#000" stroke-width=".55" rx="4.674"/>
    </g>
    <g mask="url(#pic-10-b)">
      <use fill="#000" xlink:href="#pic-10-f"/>
      <rect width="9.376" height="9.348" x="44.942" y="46.795" stroke="#000" stroke-width=".55" rx="4.674"/>
    </g>
    <g mask="url(#pic-10-b)">
      <use fill="#701520" xlink:href="#pic-10-g"/>
      <rect width="9.376" height="9.348" x="44.942" y="57.683" stroke="#000" stroke-width=".55" rx="4.674"/>
    </g>
    <g mask="url(#pic-10-b)">
      <use fill="#F5A623" xlink:href="#pic-10-h"/>
      <rect width="9.376" height="9.348" x="44.942" y="35.908" stroke="#000" stroke-width=".55" rx="4.674"/>
    </g>
    <g mask="url(#pic-10-b)">
      <use fill="#9013FE" xlink:href="#pic-10-i"/>
      <rect width="9.376" height="9.348" x="56.853" y="46.795" stroke="#000" stroke-width=".55" rx="4.674"/>
    </g>
    <g mask="url(#pic-10-b)">
      <use fill="#7ED321" xlink:href="#pic-10-j"/>
      <rect width="9.376" height="9.348" x="56.853" y="57.683" stroke="#000" stroke-width=".55" rx="4.674"/>
    </g>
    <g mask="url(#pic-10-b)">
      <use fill="#D0021B" xlink:href="#pic-10-k"/>
      <rect width="9.376" height="9.348" x="56.853" y="35.908" stroke="#000" stroke-width=".55" rx="4.674"/>
    </g>
    <path stroke="#282828" stroke-width=".677" d="M82.7260549,58.9611788 L71.886186,58.9611788 C71.6540337,58.9611788 71.4666667,58.7371892 71.4666667,58.4596607 L71.4666667,54.9413862 C71.4666667,54.6638577 71.6540337,54.4387755 71.886186,54.4387755 L82.7260549,54.4387755 C82.9582073,54.4387755 83.1464883,54.6638577 83.1464883,54.9413862 L83.1464883,58.4596607 C83.1464883,58.7371892 82.9582073,58.9611788 82.7260549,58.9611788 Z" mask="url(#pic-10-b)"/>
    <path fill="#30BFD7" d="M85.9979014,89.3757306 L90.3693193,85.0073884 C90.4796976,84.8970326 90.4796976,84.717841 90.3693193,84.6085778 L83.7083713,77.947894 C83.5630216,77.8036666 83.6154786,77.558917 83.8067282,77.4846181 L89.3584289,75.362727 C89.605414,75.267668 89.5988569,74.9169332 89.3485932,74.8317079 L69.4182062,68.0726873 C69.1974496,67.9983883 68.9865287,68.2092662 69.0608428,68.4299779 L75.8201477,88.3563051 C75.9064832,88.6065178 76.2572895,88.6141662 76.351275,88.3672314 L78.4768769,82.8155689 C78.5500982,82.6243583 78.7948976,82.571912 78.9391544,82.7161394 L85.6001024,89.3757306 C85.7093878,89.4860864 85.8875231,89.4860864 85.9979014,89.3757306" mask="url(#pic-10-b)"/>
    <path stroke="#020202" stroke-width="1.017" d="M85.9979014,89.3757306 L90.3693193,85.0073884 C90.4796976,84.8970326 90.4796976,84.717841 90.3693193,84.6085778 L83.7083713,77.947894 C83.5630216,77.8036666 83.6154786,77.558917 83.8067282,77.4846181 L89.3584289,75.362727 C89.605414,75.267668 89.5988569,74.9169332 89.3485932,74.8317079 L69.4182062,68.0726873 C69.1974496,67.9983883 68.9865287,68.2092662 69.0608428,68.4299779 L75.8201477,88.3563051 C75.9064832,88.6065178 76.2572895,88.6141662 76.351275,88.3672314 L78.4768769,82.8155689 C78.5500982,82.6243583 78.7948976,82.571912 78.9391544,82.7161394 L85.6001024,89.3757306 C85.7093878,89.4860864 85.8875231,89.4860864 85.9979014,89.3757306 Z" mask="url(#pic-10-b)"/>
    <path stroke="#000" stroke-linecap="round" stroke-width=".746" d="M71.4666667 48.5L88.7684135 48.5906884M71.4666667 44.5408163L91.8183834 44.5408163" mask="url(#pic-10-b)"/>
    <path stroke="#07DCDC" stroke-width="2.237" d="M71.4666667,37.6122449 L92.8731227,37.6122449" mask="url(#pic-10-b)"/>
    <path stroke="#000" stroke-width=".746" d="M33.39357 25.7277396L31.0712543 25.7277396C30.9696188 25.7277396 30.8887476 25.6457922 30.8887476 25.5452701L30.8887476 22.9185831C30.8887476 22.8169683 30.9696188 22.7361136 31.0712543 22.7361136L33.39357 22.7361136C33.4941126 22.7361136 33.5760767 22.8169683 33.5760767 22.9185831L33.5760767 25.5452701C33.5760767 25.6457922 33.4941126 25.7277396 33.39357 25.7277396zM38.1812562 25.7277396L35.8600333 25.7277396C35.7583978 25.7277396 35.6764337 25.6457922 35.6764337 25.5452701L35.6764337 22.9185831C35.6764337 22.8169683 35.7583978 22.7361136 35.8600333 22.7361136L38.1812562 22.7361136C38.2828916 22.7361136 38.3648557 22.8169683 38.3648557 22.9185831L38.3648557 25.5452701C38.3648557 25.6457922 38.2828916 25.7277396 38.1812562 25.7277396zM42.9699259 25.7277396L40.6476101 25.7277396C40.5470675 25.7277396 40.4651034 25.6457922 40.4651034 25.5452701L40.4651034 22.9185831C40.4651034 22.8169683 40.5470675 22.7361136 40.6476101 22.7361136L42.9699259 22.7361136C43.0715613 22.7361136 43.1524326 22.8169683 43.1524326 22.9185831L43.1524326 25.5452701C43.1524326 25.6457922 43.0715613 25.7277396 42.9699259 25.7277396z" mask="url(#pic-10-b)"/>
  </g>
</svg>
