<svg xmlns="http://www.w3.org/2000/svg" xmlns:xlink="http://www.w3.org/1999/xlink" width="288" height="230" viewBox="0 0 288 230">
  <defs>
    <polygon id="icon-2-a" points="0 230 287.24 230 287.24 .686 0 .686"/>
  </defs>
  <g fill="none" fill-rule="evenodd" transform="translate(0 -1)">
    <path stroke="#07DDDD" stroke-linecap="round" stroke-width=".301" d="M167.7654 90.1432L167.7654 97.1242M165.3113 96.0895L170.2203 91.1795"/>
    <polyline stroke="#07DDDD" stroke-linecap="round" stroke-width=".301" points="169.144 91.112 169.165 92.235 170.288 92.256"/>
    <polyline stroke="#07DDDD" stroke-linecap="round" stroke-width=".301" points="165.237 95.019 166.346 95.053 166.381 96.163"/>
    <polyline stroke="#07DDDD" stroke-linecap="round" stroke-width=".301" points="166.938 90.857 167.765 91.666 168.574 90.857"/>
    <polyline stroke="#07DDDD" stroke-linecap="round" stroke-width=".301" points="168.574 96.44 167.757 95.631 166.938 96.44"/>
    <path stroke="#07DDDD" stroke-linecap="round" stroke-width=".301" d="M164.2879,93.6305 L171.2309,93.6305"/>
    <polyline stroke="#07DDDD" stroke-linecap="round" stroke-width=".301" points="170.518 92.822 169.738 93.631 170.518 94.439"/>
    <polyline stroke="#07DDDD" stroke-linecap="round" stroke-width=".301" points="164.992 92.822 165.753 93.631 164.992 94.439"/>
    <path stroke="#07DDDD" stroke-linecap="round" stroke-width=".301" d="M165.3015,91.1764 L170.2105,96.0854"/>
    <polyline stroke="#07DDDD" stroke-linecap="round" stroke-width=".301" points="170.278 95.009 169.155 95.03 169.135 96.153"/>
    <polyline stroke="#07DDDD" stroke-linecap="round" stroke-width=".301" points="166.371 91.102 166.338 92.211 165.227 92.246"/>
    <path stroke="#07DDDD" stroke-linecap="round" stroke-width=".301" d="M150.6023 96.0856L150.6023 103.0666M148.1472 102.0309L153.0572 97.1219"/>
    <polyline stroke="#07DDDD" stroke-linecap="round" stroke-width=".301" points="151.981 97.054 152.002 98.177 153.125 98.198"/>
    <polyline stroke="#07DDDD" stroke-linecap="round" stroke-width=".301" points="148.074 100.962 149.183 100.996 149.217 102.106"/>
    <polyline stroke="#07DDDD" stroke-linecap="round" stroke-width=".301" points="149.775 96.799 150.602 97.607 151.411 96.799"/>
    <polyline stroke="#07DDDD" stroke-linecap="round" stroke-width=".301" points="151.411 102.382 150.593 101.573 149.775 102.382"/>
    <path stroke="#07DDDD" stroke-linecap="round" stroke-width=".301" d="M147.1248,99.5729 L154.0678,99.5729"/>
    <polyline stroke="#07DDDD" stroke-linecap="round" stroke-width=".301" points="153.354 98.764 152.575 99.573 153.354 100.381"/>
    <polyline stroke="#07DDDD" stroke-linecap="round" stroke-width=".301" points="147.829 98.764 148.59 99.573 147.829 100.381"/>
    <path stroke="#07DDDD" stroke-linecap="round" stroke-width=".301" d="M148.1385,97.1178 L153.0475,102.0278"/>
    <polyline stroke="#07DDDD" stroke-linecap="round" stroke-width=".301" points="153.115 100.952 151.992 100.973 151.971 102.096"/>
    <polyline stroke="#07DDDD" stroke-linecap="round" stroke-width=".301" points="149.208 97.044 149.174 98.153 148.064 98.188"/>
    <path stroke="#07DDDD" stroke-linecap="round" stroke-width=".301" d="M122.0799 92.1412L122.0799 99.1222M119.6258 98.0865L124.5348 93.1765"/>
    <polyline stroke="#07DDDD" stroke-linecap="round" stroke-width=".301" points="123.459 93.109 123.48 94.233 124.603 94.253"/>
    <polyline stroke="#07DDDD" stroke-linecap="round" stroke-width=".301" points="119.552 97.017 120.661 97.05 120.696 98.161"/>
    <polyline stroke="#07DDDD" stroke-linecap="round" stroke-width=".301" points="121.253 92.854 122.08 93.663 122.889 92.854"/>
    <polyline stroke="#07DDDD" stroke-linecap="round" stroke-width=".301" points="122.888 98.437 122.072 97.628 121.252 98.437"/>
    <path stroke="#07DDDD" stroke-linecap="round" stroke-width=".301" d="M118.6023,95.6285 L125.5453,95.6285"/>
    <polyline stroke="#07DDDD" stroke-linecap="round" stroke-width=".301" points="124.833 94.82 124.053 95.629 124.833 96.437"/>
    <polyline stroke="#07DDDD" stroke-linecap="round" stroke-width=".301" points="119.306 94.82 120.067 95.629 119.306 96.437"/>
    <path stroke="#07DDDD" stroke-linecap="round" stroke-width=".301" d="M119.616,93.1735 L124.525,98.0825"/>
    <polyline stroke="#07DDDD" stroke-linecap="round" stroke-width=".301" points="124.593 97.007 123.47 97.027 123.449 98.15"/>
    <polyline stroke="#07DDDD" stroke-linecap="round" stroke-width=".301" points="120.685 93.099 120.651 94.208 119.541 94.243"/>
    <path stroke="#07DDDD" stroke-linecap="round" stroke-width=".301" d="M151.9871 114.9156L151.9871 121.8966M149.533 120.8619L154.442 115.9519"/>
    <polyline stroke="#07DDDD" stroke-linecap="round" stroke-width=".301" points="153.366 115.884 153.387 117.007 154.51 117.028"/>
    <polyline stroke="#07DDDD" stroke-linecap="round" stroke-width=".301" points="149.459 119.792 150.568 119.826 150.603 120.936"/>
    <polyline stroke="#07DDDD" stroke-linecap="round" stroke-width=".301" points="151.16 115.629 151.987 116.439 152.796 115.629"/>
    <polyline stroke="#07DDDD" stroke-linecap="round" stroke-width=".301" points="152.796 121.213 151.979 120.403 151.16 121.213"/>
    <path stroke="#07DDDD" stroke-linecap="round" stroke-width=".301" d="M148.5096,118.4029 L155.4526,118.4029"/>
    <polyline stroke="#07DDDD" stroke-linecap="round" stroke-width=".301" points="154.74 117.594 153.96 118.403 154.74 119.211"/>
    <polyline stroke="#07DDDD" stroke-linecap="round" stroke-width=".301" points="149.214 117.594 149.975 118.403 149.214 119.211"/>
    <path stroke="#07DDDD" stroke-linecap="round" stroke-width=".301" d="M149.5232,115.9488 L154.4322,120.8578"/>
    <polyline stroke="#07DDDD" stroke-linecap="round" stroke-width=".301" points="154.5 119.782 153.377 119.803 153.356 120.926"/>
    <polyline stroke="#07DDDD" stroke-linecap="round" stroke-width=".301" points="150.593 115.875 150.559 116.984 149.449 117.019"/>
    <path stroke="#07DDDD" stroke-linecap="round" stroke-width=".148" d="M136.698 92.5211L136.698 95.9641M135.4871 95.4537L137.9091 93.0317"/>
    <polyline stroke="#07DDDD" stroke-linecap="round" stroke-width=".148" points="137.378 92.999 137.389 93.553 137.942 93.563"/>
    <polyline stroke="#07DDDD" stroke-linecap="round" stroke-width=".148" points="135.451 94.926 135.998 94.943 136.014 95.489"/>
    <polyline stroke="#07DDDD" stroke-linecap="round" stroke-width=".148" points="136.29 92.873 136.698 93.272 137.097 92.873"/>
    <polyline stroke="#07DDDD" stroke-linecap="round" stroke-width=".148" points="137.096 95.627 136.694 95.229 136.29 95.627"/>
    <path stroke="#07DDDD" stroke-linecap="round" stroke-width=".148" d="M134.9822,94.2408 L138.4072,94.2408"/>
    <polyline stroke="#07DDDD" stroke-linecap="round" stroke-width=".148" points="138.055 93.842 137.671 94.24 138.055 94.64"/>
    <polyline stroke="#07DDDD" stroke-linecap="round" stroke-width=".148" points="135.33 93.842 135.705 94.24 135.33 94.64"/>
    <path stroke="#07DDDD" stroke-linecap="round" stroke-width=".148" d="M135.4822,93.0299 L137.9042,95.4519"/>
    <polyline stroke="#07DDDD" stroke-linecap="round" stroke-width=".148" points="137.937 94.921 137.383 94.931 137.374 95.484"/>
    <polyline stroke="#07DDDD" stroke-linecap="round" stroke-width=".148" points="136.01 92.994 135.993 93.542 135.447 93.557"/>
    <path stroke="#07DDDD" stroke-linecap="round" stroke-width=".148" d="M131.8387 109.0934L131.8387 112.5364M130.6277 112.025L133.0497 109.604"/>
    <polyline stroke="#07DDDD" stroke-linecap="round" stroke-width=".148" points="132.518 109.571 132.528 110.125 133.082 110.134"/>
    <polyline stroke="#07DDDD" stroke-linecap="round" stroke-width=".148" points="130.592 111.498 131.139 111.515 131.155 112.062"/>
    <polyline stroke="#07DDDD" stroke-linecap="round" stroke-width=".148" points="131.43 109.445 131.839 109.843 132.238 109.445"/>
    <polyline stroke="#07DDDD" stroke-linecap="round" stroke-width=".148" points="132.237 112.199 131.834 111.8 131.43 112.199"/>
    <path stroke="#07DDDD" stroke-linecap="round" stroke-width=".148" d="M130.1228,110.8131 L133.5478,110.8131"/>
    <polyline stroke="#07DDDD" stroke-linecap="round" stroke-width=".148" points="133.196 110.415 132.811 110.813 133.196 111.212"/>
    <polyline stroke="#07DDDD" stroke-linecap="round" stroke-width=".148" points="130.47 110.415 130.845 110.813 130.47 111.212"/>
    <path stroke="#07DDDD" stroke-linecap="round" stroke-width=".148" d="M130.6228,109.6022 L133.0448,112.0242"/>
    <polyline stroke="#07DDDD" stroke-linecap="round" stroke-width=".148" points="133.078 111.493 132.524 111.503 132.514 112.057"/>
    <polyline stroke="#07DDDD" stroke-linecap="round" stroke-width=".148" points="131.15 109.566 131.133 110.113 130.587 110.129"/>
    <path stroke="#07DDDD" stroke-linecap="round" stroke-width=".148" d="M119.3094 111.4977L119.3094 114.9407M118.0984 114.4303L120.5204 112.0083"/>
    <polyline stroke="#07DDDD" stroke-linecap="round" stroke-width=".148" points="119.989 111.975 119.999 112.53 120.553 112.539"/>
    <polyline stroke="#07DDDD" stroke-linecap="round" stroke-width=".148" points="118.062 113.903 118.609 113.92 118.625 114.466"/>
    <polyline stroke="#07DDDD" stroke-linecap="round" stroke-width=".148" points="118.901 111.85 119.309 112.248 119.708 111.85"/>
    <polyline stroke="#07DDDD" stroke-linecap="round" stroke-width=".148" points="119.708 114.603 119.305 114.205 118.901 114.603"/>
    <path stroke="#07DDDD" stroke-linecap="round" stroke-width=".148" d="M117.5936,113.2184 L121.0186,113.2184"/>
    <polyline stroke="#07DDDD" stroke-linecap="round" stroke-width=".148" points="120.667 112.819 120.282 113.218 120.667 113.617"/>
    <polyline stroke="#07DDDD" stroke-linecap="round" stroke-width=".148" points="117.941 112.819 118.316 113.218 117.941 113.617"/>
    <path stroke="#07DDDD" stroke-linecap="round" stroke-width=".148" d="M118.0936,112.0074 L120.5156,114.4284"/>
    <polyline stroke="#07DDDD" stroke-linecap="round" stroke-width=".148" points="120.549 113.898 119.995 113.908 119.985 114.461"/>
    <polyline stroke="#07DDDD" stroke-linecap="round" stroke-width=".148" points="118.621 111.97 118.604 112.518 118.058 112.534"/>
    <path stroke="#07DDDD" stroke-linecap="round" stroke-width=".148" d="M136.701 123.6715L136.701 127.1145M135.49 126.6041L137.912 124.1821"/>
    <polyline stroke="#07DDDD" stroke-linecap="round" stroke-width=".148" points="137.381 124.149 137.392 124.704 137.945 124.713"/>
    <polyline stroke="#07DDDD" stroke-linecap="round" stroke-width=".148" points="135.454 126.077 136.001 126.094 136.017 126.64"/>
    <polyline stroke="#07DDDD" stroke-linecap="round" stroke-width=".148" points="136.293 124.023 136.701 124.422 137.1 124.023"/>
    <polyline stroke="#07DDDD" stroke-linecap="round" stroke-width=".148" points="137.099 126.777 136.696 126.379 136.292 126.777"/>
    <path stroke="#07DDDD" stroke-linecap="round" stroke-width=".148" d="M134.9861,125.3912 L138.4101,125.3912"/>
    <polyline stroke="#07DDDD" stroke-linecap="round" stroke-width=".148" points="138.058 124.993 137.673 125.391 138.058 125.791"/>
    <polyline stroke="#07DDDD" stroke-linecap="round" stroke-width=".148" points="135.333 124.993 135.708 125.391 135.333 125.791"/>
    <path stroke="#07DDDD" stroke-linecap="round" stroke-width=".148" d="M135.4851,124.1813 L137.9071,126.6023"/>
    <polyline stroke="#07DDDD" stroke-linecap="round" stroke-width=".148" points="137.94 126.072 137.386 126.082 137.377 126.635"/>
    <polyline stroke="#07DDDD" stroke-linecap="round" stroke-width=".148" points="136.013 124.144 135.996 124.692 135.45 124.708"/>
    <g transform="translate(0 .314)">
      <path fill="#07DDDD" d="M232.2166 83.3057C232.4946 84.0767 232.8826 84.9797 233.1316 86.3867 233.3016 87.3487 233.3066 88.0887 233.2856 88.6687 233.2756 88.9797 233.1816 89.4927 233.0596 89.8967 232.3136 92.3577 229.5526 91.7297 228.9886 91.5457 228.7656 91.4727 228.3606 91.1917 228.2186 91.0707 225.7526 88.9577 227.6616 86.6737 228.2296 86.0887 228.3116 86.0047 228.4016 85.9287 228.4976 85.8627L232.2166 83.3057zM214.8689 89.4796L211.1499 92.0356C211.0529 92.1026 210.9639 92.1776 210.8809 92.2626 210.3129 92.8476 208.4049 95.1316 210.8699 97.2446 211.0129 97.3656 211.4179 97.6466 211.6399 97.7196 212.2049 97.9036 214.9659 98.5316 215.7109 96.0706 215.8339 95.6666 215.9279 95.1536 215.9379 94.8416 215.9589 94.2626 215.9539 93.5226 215.7829 92.5596 215.5349 91.1536 215.1469 90.2506 214.8689 89.4796M186.0398 85.3321L182.3208 87.8891C182.2238 87.9551 182.1348 88.0311 182.0518 88.1151 181.4838 88.7001 179.5758 90.9841 182.0408 93.0971 182.1838 93.2181 182.5888 93.4991 182.8108 93.5721 183.3758 93.7561 186.1368 94.3841 186.8818 91.9231 187.0048 91.5191 187.0988 91.0061 187.1088 90.6951 187.1298 90.1151 187.1248 89.3751 186.9538 88.4131 186.7058 87.0061 186.3178 86.1031 186.0398 85.3321M199.8269 85.7686L197.7379 87.2056C197.6829 87.2426 197.6329 87.2856 197.5869 87.3316 197.2679 87.6616 196.1959 88.9446 197.5809 90.1296 197.6599 90.1986 197.8889 90.3566 198.0139 90.3976 198.3309 90.5006 199.8809 90.8536 200.2999 89.4706 200.3689 89.2446 200.4219 88.9566 200.4279 88.7816 200.4389 88.4556 200.4359 88.0396 200.3409 87.4986 200.2009 86.7086 199.9829 86.2026 199.8269 85.7686M194.9969 102.5011L192.9079 103.9381C192.8529 103.9751 192.8029 104.0181 192.7569 104.0641 192.4379 104.3941 191.3659 105.6771 192.7509 106.8631 192.8299 106.9311 193.0579 107.0891 193.1839 107.1301 193.4999 107.2331 195.0509 107.5861 195.4699 106.2041 195.5389 105.9771 195.5919 105.6891 195.5979 105.5141 195.6089 105.1891 195.6059 104.7721 195.5109 104.2311 195.3709 103.4411 195.1529 102.9351 194.9969 102.5011M182.0213 104.9063L179.9323 106.3433C179.8773 106.3803 179.8283 106.4233 179.7813 106.4693 179.4623 106.7993 178.3903 108.0823 179.7753 109.2673 179.8553 109.3363 180.0833 109.4943 180.2083 109.5353 180.5253 109.6383 182.0763 109.9913 182.4953 108.6093 182.5633 108.3823 182.6163 108.0943 182.6223 107.9193 182.6333 107.5933 182.6303 107.1773 182.5353 106.6363 182.3953 105.8463 182.1773 105.3403 182.0213 104.9063M199.908 117.2364L197.819 118.6734C197.764 118.7104 197.715 118.7534 197.669 118.8004 197.349 119.1294 196.277 120.4124 197.662 121.5984 197.742 121.6674 197.97 121.8244 198.096 121.8654 198.412 121.9684 199.963 122.3214 200.382 120.9394 200.45 120.7124 200.503 120.4244 200.51 120.2494 200.52 119.9244 200.517 119.5074 200.423 118.9674 200.283 118.1764 200.065 117.6704 199.908 117.2364M216.1004 108.3614L212.4854 110.8464C212.3904 110.9124 212.3034 110.9854 212.2234 111.0674 211.6714 111.6354 209.8164 113.8574 212.2124 115.9104 212.3504 116.0284 212.7454 116.3014 212.9614 116.3734 213.5104 116.5514 216.1944 117.1614 216.9184 114.7694 217.0374 114.3774 217.1294 113.8784 217.1404 113.5754 217.1604 113.0114 217.1544 112.2924 216.9894 111.3564 216.7474 109.9894 216.3714 109.1114 216.1004 108.3614"/>
      <polygon stroke="#000" stroke-linejoin="round" stroke-width="1.171" points="129.873 130.54 129.873 162.809 120.657 162.904 110.805 163.013 110.721 156.544 110.481 137.188 110.397 130.54"/>
      <polygon fill="#07DDDD" points="127.26 129.094 110.477 129.094 106.505 126.567 121.846 126.567"/>
      <polygon stroke="#000" stroke-linejoin="round" stroke-width="1.171" points="110.711 162.76 103.506 149.466 103.447 137.005 103.302 126.331 110.304 130.289 110.389 136.945 110.632 156.3"/>
      <polygon stroke="#000" stroke-linejoin="round" stroke-width="1.218" points="129.787 130.173 110.304 130.173 103.302 126.215 122.785 126.215"/>
      <path stroke="#000" stroke-width=".6" d="M52.4832 136.2843L94.7932 229.0373M62.0291 136.1749L104.3391 228.9279M71.575 136.0665L113.886 228.8185M81.1209 135.9571L123.4319 228.7091M90.6678 135.8477L132.9778 228.5997M110.8016 163.0079L140.1236 228.4899M120.6629 162.9044L150.4939 228.5994M129.8767 162.8067L159.8797 228.3807"/>
      <polyline stroke="#000" stroke-width=".6" points="170.144 228.208 166.04 219.353 162.873 212.513 159.369 204.952 155.781 197.2 152.481 190.072 149.084 182.752 145.76 175.576 142.569 168.688 130.192 141.966"/>
      <path stroke="#000" stroke-width=".6" d="M138.8474 136.2843L180.9124 228.5033M148.3435 136.0665L190.6325 228.7735M157.9051 135.9913L200.2281 228.7733M167.5349 136.0665L209.6189 228.3225M177.1521 136.1124L219.1871 228.2624"/>
      <g transform="translate(186 135)">
        <path fill="#020202" d="M0.6931,0.9913 L42.7561,93.2033"/>
        <path stroke="#000" stroke-width=".6" d="M0.6931,0.9913 L42.7561,93.2033"/>
      </g>
      <g transform="translate(196 136)">
        <path fill="#020202" d="M0.367,0.1612 L42.325,92.1422"/>
        <path stroke="#000" stroke-width=".6" d="M0.367,0.1612 L42.325,92.1422"/>
      </g>
      <g transform="translate(205 135)">
        <path fill="#020202" d="M0.8855,0.9913 L42.8935,93.0833"/>
        <path stroke="#000" stroke-width=".6" d="M0.8855,0.9913 L42.8935,93.0833"/>
      </g>
      <g transform="translate(215 136)">
        <path fill="#020202" d="M0.5818,0.211 L42.4628,92.023"/>
        <path stroke="#000" stroke-width=".6" d="M0.5818,0.211 L42.4628,92.023"/>
      </g>
      <g transform="translate(225 135)">
        <path fill="#020202" d="M0.0769,0.9913 L42.0309,92.9633"/>
        <path stroke="#000" stroke-width=".6" d="M0.0769,0.9913 L42.0309,92.9633"/>
      </g>
      <g transform="translate(234 136)">
        <path fill="#020202" d="M0.7967,0.2598 L42.5997,91.9028"/>
        <path stroke="#000" stroke-width=".6" d="M0.7967,0.2598 L42.5997,91.9028"/>
      </g>
      <path stroke="#000" stroke-width=".6" d="M103.5057,149.4659 L97.3917,136.2839"/>
      <path stroke="#000" stroke-linecap="round" stroke-width="1.056" d="M225.989,132.5997 L249.908,132.5997 C249.908,132.5997 252.671,132.2957 252.671,129.4537 C252.671,126.6097 249.861,126.4017 249.861,126.4017 C249.861,126.4017 247.676,126.2297 247.051,128.2927"/>
      <path stroke="#000" stroke-linecap="round" stroke-width="1.056" d="M215.4568 130.3761L239.3758 130.3761C239.3758 130.3761 242.1388 130.0721 242.1388 127.2291 242.1388 124.3861 239.3288 124.1781 239.3288 124.1781 239.3288 124.1781 237.1438 124.0061 236.5188 126.0691M183.3338 132.5997L207.2528 132.5997C207.2528 132.5997 210.0158 132.2957 210.0158 129.4537 210.0158 126.6097 207.2058 126.4017 207.2058 126.4017 207.2058 126.4017 205.0208 126.2297 204.3958 128.2927"/>
      <mask id="icon-2-b" fill="#fff">
        <use xlink:href="#icon-2-a"/>
      </mask>
      <polygon fill="#07DDDD" points="141.132 146.854 232.38 146.854 232.38 144.827 141.132 144.827" mask="url(#icon-2-b)"/>
      <polygon stroke="#000" stroke-linecap="round" stroke-width="1.2" points="233.615 147.186 141.838 147.153 139.771 143.413 231.718 143.729" mask="url(#icon-2-b)"/>
      <polyline stroke="#000" stroke-linecap="round" stroke-width="1.2" points="228.794 153.783 225.655 147.507 220.948 151.317" mask="url(#icon-2-b)"/>
      <polyline stroke="#000" stroke-linecap="round" stroke-width="1.2" points="204.715 154.055 201.576 147.779 196.869 151.589" mask="url(#icon-2-b)"/>
      <polyline stroke="#000" stroke-linecap="round" stroke-width="1.2" points="181.585 154.326 178.446 148.049 173.739 151.86" mask="url(#icon-2-b)"/>
      <polyline stroke="#000" stroke-linecap="round" stroke-width="1.2" points="156.285 154.326 153.147 148.049 148.439 151.86" mask="url(#icon-2-b)"/>
      <path stroke="#000" stroke-linejoin="round" stroke-width="1.2" d="M144.1453 143.6593L146.0883 146.7983M148.367 143.7159L150.31 146.8539M153.5974 143.7159L155.5394 146.8539M158.8279 143.7159L160.7699 146.8539M164.0584 143.7159L166.0004 146.8539M169.2888 143.7159L171.2308 146.8539M174.5193 143.7159L176.4613 146.8539M179.7498 143.7159L181.6918 146.8539M184.9803 143.7159L186.9223 146.8539M190.2097 143.7159L192.1527 146.8539M195.4402 143.7159L197.3832 146.8539M200.6707 143.7159L202.6137 146.8539M205.9012 143.7159L207.8442 146.8539M211.1316 143.7159L213.0736 146.8539M216.3621 143.7159L218.3041 146.8539M221.5926 143.7159L223.5346 146.8539M226.823 143.7159L228.765 146.8539" mask="url(#icon-2-b)"/>
      <path stroke="#000" stroke-linecap="round" stroke-width="1.8" d="M135.1004 163.169L162.4314 224.162M151.3015 162.0557L178.4455 223.7507M153.4119 167.5596L137.8469 169.1746M156.6971 174.4376L141.1311 176.0526M159.8533 181.6309L144.2873 183.2459M163.0965 188.9708L147.5315 190.5848M166.0974 196.1251L150.5314 197.7401M169.4773 203.9122L154.2983 205.4772M173.1951 211.4444L157.6291 213.0594M176.0662 218.3165L160.5002 219.9315" mask="url(#icon-2-b)"/>
      <path stroke="#000" stroke-linecap="round" stroke-width="1.639" d="M85.4695 217.2803L154.4895 216.9563M86.7449 221.9971L155.3869 221.8381" mask="url(#icon-2-b)"/>
      <path stroke="#000" stroke-linecap="round" stroke-width=".819" d="M89.24 222.2999L92.047 224.6359M93.5418 222.3223L96.3488 224.6583M97.8436 222.3448L100.6506 224.6818M102.1443 222.3673L104.9523 224.7043M106.4461 222.3897L109.2531 224.7267M110.7478 222.4132L113.5548 224.7492M115.0496 222.4356L117.8566 224.7716M119.3504 222.4581L122.1574 224.7941M123.6521 222.4805L126.4591 224.8165M127.9539 222.503L130.7609 224.839M132.2556 222.5255L135.0626 224.8625M136.5564 222.5479L139.3634 224.8849M140.8582 222.5714L143.6652 224.9074M145.1599 222.5938L147.9669 224.9298M149.4617 222.6163L152.2687 224.9523M153.7625 222.6387L156.5695 224.9747" mask="url(#icon-2-b)"/>
      <path stroke="#000" stroke-linecap="round" stroke-width="1.511" d="M151.74 217.0811L151.927 221.5081M132.1512 217.3575L132.3512 221.4665M112.6727 217.3643L112.8997 221.6123M91.1316 217.3595L91.3256 221.7555" mask="url(#icon-2-b)"/>
      <path stroke="#000" stroke-linecap="round" stroke-width="1.639" d="M182.406 217.2803L251.427 216.9563M183.6824 221.9971L252.3234 221.8381" mask="url(#icon-2-b)"/>
      <path stroke="#000" stroke-linecap="round" stroke-width=".819" d="M186.1765 222.2999L188.9835 224.6359M190.4783 222.3223L193.2853 224.6583M194.7801 222.3448L197.5871 224.6818M199.0818 222.3673L201.8888 224.7043M203.3826 222.3897L206.1896 224.7267M207.6844 222.4132L210.4914 224.7492M211.9861 222.4356L214.7931 224.7716M216.2879 222.4581L219.0949 224.7941M220.5887 222.4805L223.3957 224.8165M224.8904 222.503L227.6974 224.839M229.1922 222.5255L231.9992 224.8625M233.493 222.5479L236.301 224.8849M237.7947 222.5714L240.6017 224.9074M242.0965 222.5938L244.9035 224.9298M246.3982 222.6163L249.2052 224.9523M250.699 222.6387L253.506 224.9747" mask="url(#icon-2-b)"/>
      <path stroke="#000" stroke-linecap="round" stroke-width="1.511" d="M248.6765 217.0811L248.8635 221.5081M229.0877 217.3575L229.2877 221.4665M209.6092 217.3643L209.8362 221.6123M188.0691 217.3595L188.2621 221.7555" mask="url(#icon-2-b)"/>
      <path stroke="#000" stroke-linecap="round" stroke-width="2.4" d="M245.8777 42.5694C245.8777 54.7764 235.9817 64.6714 223.7757 64.6714 211.5687 64.6714 201.6747 54.7764 201.6747 42.5694 201.6747 30.3634 211.5687 20.4674 223.7757 20.4674 235.9817 20.4674 245.8777 30.3634 245.8777 42.5694zM195.0662 14.0655L203.1032 22.3535M223.7762 1.8858L223.7762 14.0658M252.4519 14.0655L244.1569 22.3535M264.3582 42.5694L252.4522 42.5694M252.4519 71.3233L244.1569 62.4933" mask="url(#icon-2-b)"/>
      <path fill="#CED5E0" d="M179.0457,54.3087 C178.9347,54.3087 178.8267,54.3237 178.7167,54.3257 C178.8197,53.6407 178.8907,52.9447 178.8907,52.2307 C178.8907,44.4877 172.6127,38.2097 164.8697,38.2097 C162.8467,38.2097 160.9277,38.6477 159.1897,39.4187 C156.6137,33.4527 150.6817,29.2727 143.7697,29.2727 C137.3147,29.2727 131.7177,32.9187 128.9057,38.2607 C128.7977,38.2577 128.6917,38.2447 128.5817,38.2447 C121.0877,38.2447 115.0117,44.3197 115.0117,51.8137 C115.0117,51.8657 115.0197,51.9137 115.0197,51.9647 C109.4677,54.4977 105.6017,60.0837 105.6017,66.5837 C105.6017,75.4627 112.7987,82.6607 121.6767,82.6607 L179.0457,82.6607 C186.8737,82.6607 193.2207,76.3137 193.2207,68.4847 C193.2207,60.6557 186.8737,54.3087 179.0457,54.3087" mask="url(#icon-2-b)"/>
      <path fill="#E6E9EE" d="M237.6902,48.2462 C237.5802,48.2462 237.4712,48.2602 237.3622,48.2632 C237.4642,47.5772 237.5352,46.8812 237.5352,46.1672 C237.5352,38.4242 231.2572,32.1462 223.5142,32.1462 C221.4912,32.1462 219.5722,32.5842 217.8352,33.3552 C215.2582,27.3892 209.3262,23.2102 202.4142,23.2102 C195.9592,23.2102 190.3622,26.8562 187.5512,32.1972 C187.4422,32.1942 187.3362,32.1812 187.2262,32.1812 C179.7322,32.1812 173.6572,38.2562 173.6572,45.7512 C173.6572,45.8022 173.6642,45.8502 173.6652,45.9022 C168.1132,48.4342 164.2462,54.0202 164.2462,60.5212 C164.2462,69.3992 171.4442,76.5972 180.3222,76.5972 L237.6902,76.5972 C245.5192,76.5972 251.8662,70.2502 251.8662,62.4212 C251.8662,54.5932 245.5192,48.2462 237.6902,48.2462" mask="url(#icon-2-b)"/>
      <polyline stroke="#000" stroke-linecap="round" stroke-linejoin="round" stroke-width="1.775" points="14.636 226.571 .887 224.974 42.843 136.341 103.302 135.991 42.843 136.341 83.684 229.112 286.353 227.728 243.5 136.328 129.876 135.991" mask="url(#icon-2-b)"/>
      <polygon stroke="#000" stroke-linecap="round" stroke-linejoin="round" stroke-width="1.775" points="50.225 220.057 29.821 218.317 29.821 197.741 50.225 195.594" mask="url(#icon-2-b)"/>
      <polygon fill="#07DDDD" points="30.483 218.333 29.801 218.695 28.229 219.53 47.29 221.7 49.417 219.845" mask="url(#icon-2-b)"/>
      <polygon stroke="#000" stroke-linecap="round" stroke-linejoin="round" stroke-width=".517" points="30.483 218.333 29.801 218.695 28.229 219.53 47.29 221.7 49.417 219.845" mask="url(#icon-2-b)"/>
      <polygon fill="#07DDDD" points="28.145 219.48 30.407 218.334 30.407 216.486" mask="url(#icon-2-b)"/>
      <polygon stroke="#000" stroke-linecap="round" stroke-linejoin="round" stroke-width=".25" points="28.145 219.48 30.407 218.334 30.407 216.486" mask="url(#icon-2-b)"/>
      <polygon fill="#07DDDD" points="47.117 221.85 49.682 220.604 49.682 218.472" mask="url(#icon-2-b)"/>
      <polygon stroke="#000" stroke-linecap="round" stroke-linejoin="round" stroke-width=".25" points="47.117 221.85 49.682 220.604 49.682 218.472" mask="url(#icon-2-b)"/>
    </g>
  </g>
</svg>
