<svg xmlns="http://www.w3.org/2000/svg" xmlns:xlink="http://www.w3.org/1999/xlink" width="65" height="53" viewBox="0 0 65 53">
  <defs>
    <polygon id="pic-8-a" points="12.297 .659 .649 .659 .649 .165 12.297 .165 12.297 .659"/>
    <polygon id="pic-8-c" points="2.243 .659 .172 .659 .172 .165 2.243 .165 2.243 .659"/>
    <polygon id="pic-8-e" points="0 2.971 0 .6 2.388 .6 2.388 2.971"/>
  </defs>
  <g fill="none" fill-rule="evenodd">
    <polygon stroke="#231F20" stroke-width="1.05" points="9 15 19.749 15 19.749 26.512 30.5 18.589 30.5 26.512 41.249 18.589 41.249 26.512 52 18.589 52 45 9 45"/>
    <polygon stroke="#231F20" stroke-linecap="round" stroke-linejoin="round" stroke-width="1.05" points="9 14 20 14 20 11 9 11"/>
    <polygon stroke="#231F20" stroke-linecap="round" stroke-linejoin="round" stroke-width="1.05" points="9 9 20 9 20 3 9 3"/>
    <polygon stroke="#231F20" stroke-linecap="round" stroke-linejoin="round" stroke-width="1.05" points="22 32 27 32 27 29 22 29"/>
    <polygon stroke="#231F20" stroke-linecap="round" stroke-linejoin="round" stroke-width="1.05" points="33 32 38 32 38 29 33 29"/>
    <polygon stroke="#231F20" stroke-linecap="round" stroke-linejoin="round" stroke-width="1.05" points="43 32 48 32 48 29 43 29"/>
    <polygon stroke="#231F20" stroke-linecap="round" stroke-linejoin="round" stroke-width="1.05" points="22 38 27 38 27 35 22 35"/>
    <polygon stroke="#231F20" stroke-linecap="round" stroke-linejoin="round" stroke-width="1.05" points="33 38 38 38 38 35 33 35"/>
    <polygon stroke="#231F20" stroke-linecap="round" stroke-linejoin="round" stroke-width="1.05" points="43 38 48 38 48 35 43 35"/>
    <path fill="#CED5E0" d="M52.3823061,7.62736829 C52.3610816,7.62736829 52.3405204,7.63000244 52.3186327,7.63066098 C52.3391939,7.49895366 52.3524592,7.36592927 52.3524592,7.22829512 C52.3524592,5.74197805 51.1386837,4.5368561 49.6416939,4.5368561 C49.2503673,4.5368561 48.879602,4.62114878 48.5433265,4.76931951 C48.0452143,3.62346585 46.8984286,2.82136829 45.561949,2.82136829 C44.3143469,2.82136829 43.231898,3.52139268 42.6886837,4.54673415 C42.6674592,4.54607561 42.646898,4.54344146 42.6256735,4.54344146 C41.1764388,4.54344146 40.0024592,5.70970976 40.0024592,7.1486122 C40.0024592,7.15849024 40.0037857,7.16770976 40.0037857,7.1775878 C38.9306224,7.6635878 38.1831224,8.73568537 38.1831224,9.9836122 C38.1831224,11.6879049 39.5739898,13.0695146 41.2905204,13.0695146 L52.3823061,13.0695146 C53.8958776,13.0695146 55.1229184,11.851222 55.1229184,10.3484415 C55.1229184,8.84566098 53.8958776,7.62736829 52.3823061,7.62736829"/>
    <path fill="#E6E9EE" d="M61.7800459,5.18610732 C61.7588214,5.18610732 61.7382602,5.18874146 61.7163724,5.1894 C61.7369337,5.05769268 61.750199,4.92400976 61.750199,4.78703415 C61.750199,3.30071707 60.5364235,2.09559512 59.0394337,2.09559512 C58.6481071,2.09559512 58.2773418,2.1798878 57.9417296,2.32805854 C57.4436173,1.18220488 56.2961684,0.380107317 54.960352,0.380107317 C53.7120867,0.380107317 52.630301,1.08013171 52.0870867,2.10547317 C52.0658622,2.10481463 52.0446378,2.10218049 52.0240765,2.10218049 C50.5748418,2.10218049 49.400199,3.26844878 49.400199,4.70735122 C49.400199,4.71722927 49.4015255,4.72644878 49.4021888,4.73632683 C48.3290255,5.22232683 47.5808622,6.29442439 47.5808622,7.54235122 C47.5808622,9.2466439 48.9723929,10.6282537 50.6889235,10.6282537 L61.7800459,10.6282537 C63.2936173,10.6282537 64.5206582,9.40996098 64.5206582,7.90718049 C64.5206582,6.4044 63.2936173,5.18610732 61.7800459,5.18610732"/>
    <g transform="translate(24.54 52.024)">
      <mask id="pic-8-b" fill="#fff">
        <use xlink:href="#pic-8-a"/>
      </mask>
      <path stroke="#231F20" stroke-linecap="round" stroke-width="1.05" d="M0.648872449,0.164765854 L12.2971378,0.164765854" mask="url(#pic-8-b)"/>
    </g>
    <g transform="translate(38.47 52.024)">
      <mask id="pic-8-d" fill="#fff">
        <use xlink:href="#pic-8-c"/>
      </mask>
      <path stroke="#231F20" stroke-linecap="round" stroke-width="1.05" d="M0.171520408,0.164765854 L2.24289796,0.164765854" mask="url(#pic-8-d)"/>
    </g>
    <path stroke="#231F20" stroke-linecap="round" stroke-width="1.05" d="M40.8541582 49.8248122L52.5024235 49.8248122M54.3053776 49.8248122L56.3767551 49.8248122M8.28942347 50.5357683L10.8317194 50.5357683M13.4349031 50.5357683L31.3370969 50.5357683"/>
    <g transform="translate(1.99 48.073)">
      <path fill="#FFF" d="M0.39822449,0.156402439 L61.5240918,0.156402439"/>
      <path stroke="#231F20" stroke-width="1.05" d="M0.39822449,0.156402439 L61.5240918,0.156402439"/>
    </g>
    <path stroke="#231F20" stroke-linecap="round" stroke-width="1.05" d="M32.7602653 9.08266829L32.1454184 9.69247317M30.8365306 10.9926878L30.2216837 11.6031512M32.7602653 11.6030195L32.1454184 10.9925561M30.8365306 9.69267073L30.2216837 9.08286585M6.5107449 31.5015585L5.89589796 32.112022M4.58641327 33.411578L3.97222959 34.0220415M6.5107449 34.0218439L5.89589796 33.4113805M4.58641327 32.1118244L3.97222959 31.501361"/>
    <path fill="#17C6C1" d="M56.5348112 26.2846976C56.5348112 26.9392829 56.0002194 27.4700634 55.3409337 27.4700634 54.681648 27.4700634 54.1470561 26.9392829 54.1470561 26.2846976 54.1470561 25.6301122 54.681648 25.0993317 55.3409337 25.0993317 56.0002194 25.0993317 56.5348112 25.6301122 56.5348112 26.2846976M4.7755102 24.4598927C4.7755102 25.114478 4.24091837 25.6452585 3.58163265 25.6452585 2.92234694 25.6452585 2.3877551 25.114478 2.3877551 24.4598927 2.3877551 23.8053073 2.92234694 23.2745268 3.58163265 23.2745268 4.24091837 23.2745268 4.7755102 23.8053073 4.7755102 24.4598927M60.7236633 34.2176927C60.7236633 34.872278 60.1890714 35.4030585 59.5297857 35.4030585 58.8705 35.4030585 58.3359082 34.872278 58.3359082 34.2176927 58.3359082 33.5631073 58.8705 33.0323268 59.5297857 33.0323268 60.1890714 33.0323268 60.7236633 33.5631073 60.7236633 34.2176927"/>
    <g transform="translate(0 38.195)">
      <mask id="pic-8-f" fill="#fff">
        <use xlink:href="#pic-8-e"/>
      </mask>
      <path fill="#17C6C1" d="M2.38802041,1.78575366 C2.38802041,2.44033902 1.85276531,2.97111951 1.19347959,2.97111951 C0.534193878,2.97111951 -0.000397959184,2.44033902 -0.000397959184,1.78575366 C-0.000397959184,1.13116829 0.534193878,0.600387805 1.19347959,0.600387805 C1.85276531,0.600387805 2.38802041,1.13116829 2.38802041,1.78575366" mask="url(#pic-8-f)"/>
    </g>
    <path stroke="#231F20" stroke-linecap="round" stroke-width="1.05" d="M60.232051 20.4980707L59.8917959 20.8352415M59.1684388 21.5537049L58.8288469 21.8908756M60.232051 21.8910073L59.8917959 21.5538366M59.1684388 20.8353732L58.8288469 20.4982024M4.67383163 37.7399415L4.33357653 38.0771122M3.61028571 38.7955756L3.27069388 39.1327463M4.67383163 39.1326146L4.33357653 38.7954439M3.61028571 38.0772439L3.27069388 37.7400732"/>
    <path fill="#FFF" d="M55.1273622,37.5283537 L53.6840969,36.885622 L53.6350153,36.9718902 C53.3219541,37.5217683 52.7144031,37.8207439 52.0796582,37.7792561 C51.9556276,37.7720122 51.8315969,37.768061 51.7082296,37.7687195 C51.0701684,37.7720122 50.4785357,37.4407683 50.1973112,36.8717927 L50.154199,36.7842073 L48.6757806,37.3426463 L48.701648,37.4374756 C48.8727704,38.0472805 48.6532296,38.6847439 48.1750153,39.1035732 C48.0814949,39.1852317 47.9912908,39.2695244 47.9037398,39.3571098 C47.4573622,39.8068902 46.8033827,39.9846951 46.201801,39.7805488 L46.1069541,39.748939 L45.4596071,41.1812561 L45.5464949,41.2306463 C46.1003214,41.5408171 46.4014439,42.1440366 46.3596582,42.7742561 C46.3523622,42.8974024 46.3483827,43.0205488 46.3490459,43.1430366 C46.351699,43.7765488 46.0187398,44.3633049 45.4450153,44.6425244 L45.3574643,44.6859878 L45.91925,46.1532073 L46.0147602,46.1268659 C46.6289439,45.957622 47.2709847,46.1755976 47.6934847,46.651061 C47.7750663,46.7425976 47.8606276,46.8321585 47.9488418,46.9190854 C48.401852,47.362939 48.5809337,48.0115976 48.3753214,48.6095488 L48.3428214,48.703061 L49.7860867,49.3457927 L49.8351684,49.2595244 C50.1482296,48.7096463 50.7557806,48.4106707 51.3905255,48.4515 C51.5152194,48.460061 51.6385867,48.4633537 51.7626173,48.4626951 C52.4006786,48.460061 52.991648,48.7906463 53.2728724,49.3589634 L53.316648,49.4472073 L54.7944031,48.8887683 L54.7678724,48.793939 C54.5974133,48.1841341 54.8169541,47.5466707 55.2958316,47.1278415 C55.3886888,47.0468415 55.4788929,46.9618902 55.5664439,46.8736463 C56.0134847,46.4245244 56.666801,46.246061 57.2690459,46.4502073 L57.3632296,46.4824756 L58.0112398,45.0495 L57.924352,45.0014268 C57.3698622,44.6905976 57.0694031,44.087378 57.1105255,43.4571585 C57.1184847,43.3340122 57.1224643,43.2108659 57.121801,43.0877195 C57.1184847,42.4548659 57.4521071,41.8681098 58.0245051,41.5888902 L58.1133827,41.5460854 L57.5502704,40.0782073 L57.4560867,40.1045488 C56.8412398,40.2737927 56.1985357,40.0558171 55.776699,39.5810122 C55.6951173,39.4888171 55.6102194,39.3992561 55.5213418,39.3123293 C55.0683316,38.8691341 54.8899133,38.2198171 55.0948622,37.6225244 L55.1273622,37.5283537 Z"/>
    <path stroke="#231F20" stroke-linejoin="round" stroke-width=".7" d="M55.1273622,37.5283537 L53.6840969,36.885622 L53.6350153,36.9718902 C53.3219541,37.5217683 52.7144031,37.8207439 52.0796582,37.7792561 C51.9556276,37.7720122 51.8315969,37.768061 51.7082296,37.7687195 C51.0701684,37.7720122 50.4785357,37.4407683 50.1973112,36.8717927 L50.154199,36.7842073 L48.6757806,37.3426463 L48.701648,37.4374756 C48.8727704,38.0472805 48.6532296,38.6847439 48.1750153,39.1035732 C48.0814949,39.1852317 47.9912908,39.2695244 47.9037398,39.3571098 C47.4573622,39.8068902 46.8033827,39.9846951 46.201801,39.7805488 L46.1069541,39.748939 L45.4596071,41.1812561 L45.5464949,41.2306463 C46.1003214,41.5408171 46.4014439,42.1440366 46.3596582,42.7742561 C46.3523622,42.8974024 46.3483827,43.0205488 46.3490459,43.1430366 C46.351699,43.7765488 46.0187398,44.3633049 45.4450153,44.6425244 L45.3574643,44.6859878 L45.91925,46.1532073 L46.0147602,46.1268659 C46.6289439,45.957622 47.2709847,46.1755976 47.6934847,46.651061 C47.7750663,46.7425976 47.8606276,46.8321585 47.9488418,46.9190854 C48.401852,47.362939 48.5809337,48.0115976 48.3753214,48.6095488 L48.3428214,48.703061 L49.7860867,49.3457927 L49.8351684,49.2595244 C50.1482296,48.7096463 50.7557806,48.4106707 51.3905255,48.4515 C51.5152194,48.460061 51.6385867,48.4633537 51.7626173,48.4626951 C52.4006786,48.460061 52.991648,48.7906463 53.2728724,49.3589634 L53.316648,49.4472073 L54.7944031,48.8887683 L54.7678724,48.793939 C54.5974133,48.1841341 54.8169541,47.5466707 55.2958316,47.1278415 C55.3886888,47.0468415 55.4788929,46.9618902 55.5664439,46.8736463 C56.0134847,46.4245244 56.666801,46.246061 57.2690459,46.4502073 L57.3632296,46.4824756 L58.0112398,45.0495 L57.924352,45.0014268 C57.3698622,44.6905976 57.0694031,44.087378 57.1105255,43.4571585 C57.1184847,43.3340122 57.1224643,43.2108659 57.121801,43.0877195 C57.1184847,42.4548659 57.4521071,41.8681098 58.0245051,41.5888902 L58.1133827,41.5460854 L57.5502704,40.0782073 L57.4560867,40.1045488 C56.8412398,40.2737927 56.1985357,40.0558171 55.776699,39.5810122 C55.6951173,39.4888171 55.6102194,39.3992561 55.5213418,39.3123293 C55.0683316,38.8691341 54.8899133,38.2198171 55.0948622,37.6225244 L55.1273622,37.5283537 Z"/>
    <path stroke="#231F20" stroke-dasharray=".7 1.4" stroke-width=".7" d="M53.4083112,39.4146 C55.4670867,40.3319415 56.3870357,42.7323073 55.4637704,44.7764049 C54.5391786,46.8205024 52.1215765,47.7338927 50.0621378,46.8172098 C48.0033622,45.8998683 47.0834133,43.4995024 48.0066786,41.4554049 C48.9306071,39.4113073 51.3495357,38.4972585 53.4083112,39.4146 Z"/>
    <path fill="#17C6C1" d="M53.0630816,40.1776463 C54.6973673,40.9053293 55.4276224,42.8111341 54.6947143,44.4337683 C53.9611429,46.0564024 52.0416531,46.7814512 50.4073673,46.0537683 C48.7724184,45.3260854 48.0428265,43.4202805 48.7757347,41.7976463 C49.5093061,40.1756707 51.4287959,39.4499634 53.0630816,40.1776463"/>
    <path fill="#FFF" d="M52.3991531,41.6471049 C53.2156327,42.0112756 53.5810918,42.9635195 53.2143061,43.774178 C52.8481837,44.5854951 51.8884388,44.9483488 51.0712959,44.584178 C50.2548163,44.2206659 49.8893571,43.2677634 50.2561429,42.4564463 C50.6222653,41.6457878 51.5820102,41.2829341 52.3991531,41.6471049"/>
    <path stroke="#231F20" stroke-linejoin="round" stroke-width=".7" d="M52.3991531,41.6471049 C53.2156327,42.0112756 53.5810918,42.9635195 53.2143061,43.774178 C52.8481837,44.5854951 51.8884388,44.9483488 51.0712959,44.584178 C50.2548163,44.2206659 49.8893571,43.2677634 50.2561429,42.4564463 C50.6222653,41.6457878 51.5820102,41.2829341 52.3991531,41.6471049 Z"/>
  </g>
</svg>
