<svg xmlns="http://www.w3.org/2000/svg" width="384" height="256" viewBox="0 0 384 256">
  <g fill="none" fill-rule="evenodd" transform="translate(0 1)">
    <polygon stroke="#231F20" stroke-linejoin="round" stroke-width="2.38" points="120 34.18 62.188 48 62 38.34 69.908 36.379 113.659 25.532 119.836 24 119.876 34.14"/>
    <path stroke="#231F20" stroke-linejoin="round" stroke-width="2.38" d="M113.557505,25.0339412 L69.552401,35.7218627 C68.7694453,32.9826471 68.8891328,28.8190392 70.2206563,23.3057451 C73.0732083,11.4972353 83.4311641,4.29558824 85.6653307,3.20986275 C87.8994974,2.12911765 92.786737,-0.764490196 101.18481,2.06437255 C102.730773,2.58233333 104.32162,3.32441176 105.932414,4.3802549 C108.490734,6.05864706 110.236177,8.29484314 111.413104,10.6904118 C114.01132,16.0094706 113.831789,22.1602549 113.557505,25.0339412 Z"/>
    <path stroke="#231F20" stroke-linejoin="round" stroke-width="2.38" d="M209.444647,55.7236157 L184.729178,46.863498 L184.714217,46.8485569 L119.773775,23.5253804 L113.555012,25.0344392 C113.829296,22.1607529 114.008827,16.0049882 111.415598,10.6909098 C110.233684,8.29534118 108.493228,6.0591451 105.929921,4.37577255 C104.324113,3.3249098 102.733267,2.58283137 101.182316,2.06487059 L101.177329,2.03498824 L192.543775,35.2442431 C205.863996,40.5433804 208.831249,50.5041647 209.444647,55.7236157 Z"/>
    <polygon stroke="#231F20" stroke-linejoin="round" stroke-width="2.38" points="217.87 68.958 120.061 33.532 119.936 33.557 119.811 33.518 119.771 23.527 184.717 46.85 184.727 46.86 209.447 55.725 217.75 58.708"/>
    <polygon stroke="#231F20" stroke-linejoin="round" stroke-width="2.38" points="217.87 68.958 119.936 33.557 120.061 33.532"/>
    <polygon stroke="#231F20" stroke-linejoin="round" stroke-width="2.38" points="208.963 144.486 118.943 200.914 45.784 209.933 67.682 192.248 67.682 202.607 117.048 195.086 117.103 186.968 117.402 162.166 117.447 162.221 118.893 162.515 141.689 168.192 142.287 144.286 168.07 151.807 167.716 129.395 193.354 136.567 192.805 115.45 192.755 113.463 196.096 114.708 208.813 119.534"/>
    <polygon stroke="#231F20" stroke-linejoin="round" stroke-width="2.38" points="120.045 36.313 119.297 36.512 119.297 36.462"/>
    <polygon stroke="#231F20" stroke-linejoin="round" stroke-width="2.38" points="120.093 36.313 119.145 81.535 118.846 96.875 118.098 132.584 117.45 162.217 117.4 162.168 117.101 186.97 67.73 195.237 68.478 143.939 69.176 96.875 69.824 50.806 69.874 48.814 69.874 47.469 119.295 36.512 120.043 36.313"/>
    <polygon stroke="#231F20" stroke-linejoin="round" stroke-width="2.38" points="217.836 68.934 209.259 68.834 208.012 68.834 120.091 36.312 120.047 36.312 119.294 36.461 69.873 47.468 67.234 48.116 69.873 48.813 69.823 50.805 61.794 47.169 119.942 33.573"/>
    <polygon stroke="#231F20" stroke-linejoin="round" stroke-width="2.38" points="217.87 68.958 119.936 33.557 120.061 33.532"/>
    <path stroke="#231F20" stroke-linecap="round" stroke-width="2.545" d="M50.3824531 2.94341176L47.8341068 5.48839216M42.4102682 10.9050667L39.8619219 13.4500471M50.3824531 13.449051L47.8341068 10.9040706M42.4102682 5.48689804L39.8619219 2.94191765"/>
    <path stroke="#231F20" stroke-linecap="round" stroke-width="2.735" d="M32.4557591 168.492643L29.7228945 171.221898M23.8991003 177.038L21.1662357 179.767255M32.4557591 179.766757L29.7228945 177.037502M23.8991003 171.2214L21.1662357 168.492145"/>
    <path fill="#17C6C1" d="M261.642361,52.3484039 C261.642361,54.5397765 259.866996,56.3177765 257.672725,56.3177765 C255.478454,56.3177765 253.698103,54.5397765 253.698103,52.3484039 C253.698103,50.1620118 255.478454,48.3790314 257.672725,48.3790314 C259.866996,48.3790314 261.642361,50.1620118 261.642361,52.3484039"/>
    <path fill="#07DDDD" d="M8.44145964,132.6134 C8.44145964,134.944224 6.55139453,136.826812 4.21748828,136.826812 C1.89355599,136.826812 0.00349088542,134.944224 0.00349088542,132.6134 C0.00349088542,130.282576 1.89355599,128.399988 4.21748828,128.399988 C6.55139453,128.399988 8.44145964,130.282576 8.44145964,132.6134"/>
    <polygon fill="#07DDDD" points="375.189 149.524 370.591 153.668 323.439 101.095 119.905 246.024 113.577 239.017 323.738 91.124"/>
    <path stroke="#231F20" stroke-linecap="round" stroke-width="2.4" d="M294.136021 177.422486L292.076398 180.116878M287.68287 185.851302L285.623247 188.540714M295.4461 187.237345L292.753132 185.175463M287.010625 180.788235L284.312669 178.731333"/>
    <polyline stroke="#1D1D1B" stroke-linecap="round" stroke-width="2.38" points="102.804 243.733 323.997 88.156 382.09 153.359"/>
    <polyline stroke="#1D1D1B" stroke-linecap="round" stroke-width="2.38" points="112.89 253.811 323.231 104.091 376.731 164.687"/>
    <path stroke="#1D1D1B" stroke-linecap="round" stroke-width="2.38" d="M68.4702266,144.480678 L6.61672396,158.261424"/>
    <polygon stroke="#1D1D1B" stroke-linecap="round" stroke-width="2.38" points="196.096 114.705 192.755 113.46 192.805 115.447 193.353 136.569 167.72 129.393 168.069 151.804 142.286 144.284 141.688 168.19 118.898 162.517 117.446 162.218 118.095 132.585 118.848 96.876 119.142 81.536 120.094 36.314 208.015 68.836 208.414 68.836 208.613 96.876 208.763 111.817 208.813 119.536"/>
    <path stroke="#1D1D1B" stroke-linecap="round" stroke-width="2.38" d="M323.765659,87.9651804 L208.960411,114.25169"/>
    <path stroke="#1D1D1B" stroke-width="2.38" d="M109.827245 238.509984L119.616685 249.173004M117.239392 233.57342L127.028832 244.236439M124.656526 228.636855L134.440979 239.299875M132.068673 223.70029L141.858113 234.36331M139.08635 218.170063L148.87579 228.838063M145.067234 214.109051L154.113615 224.094737M150.847642 210.407624L159.894022 220.39331M156.633535 206.706694L165.674928 216.69238M162.00501 202.523663L171.051391 212.509349M167.36701 198.39442L176.408404 208.380106M173.021247 194.23131L182.067628 204.216996M178.680471 190.072682L187.721865 200.058369M184.334708 185.909573L193.381089 195.895259M190.290658 182.003949L199.332051 191.989635M196.617139 177.9524L205.658533 187.938086M202.719207 173.570651L211.765587 183.556337M208.821275 169.183424L217.867655 179.16911M214.928329 164.796196L223.969723 174.781882M221.030896 160.414447L230.072289 170.400133M227.132964 156.02722L236.179344 166.012906M233.235031 151.639992L242.281411 161.625678M239.337598 147.258243L248.383978 157.238949M245.444652 142.871016L254.486046 152.856702M251.54672 138.483788L260.588113 148.469475M257.649286 134.097059L266.695667 144.082745M263.751354 129.714812L272.797734 139.700498M269.853422 125.327584L278.899802 135.313271M275.960477 120.940855L285.00187 130.926541M282.063043 116.558608L291.109423 126.544294M288.350128 112.915451L297.396508 122.901137M294.418284 108.640282L303.464664 118.625969M300.481453 104.365114L309.527833 114.3508M306.549609 100.090443L315.59599 110.076129M313.285023 95.4113647L322.331404 105.392071M324.125719 88.1937804L323.068479 104.360133M332.220085 97.3910706L324.186061 104.971227M337.508776 103.455694L329.250339 110.816714M342.106272 108.713494L333.847835 116.074514M346.703768 113.971294L338.445331 121.332314M351.300766 119.228596L343.042328 126.589616M355.898262 124.486396L347.634837 131.847416M360.495758 129.744196L352.232333 137.105216M365.088267 134.996518L356.829829 142.362518M369.685763 140.254318L361.427326 147.620318M374.546073 145.273557L366.282648 152.634576M378.69524 149.913788L370.436802 157.274808"/>
  </g>
</svg>
