<svg xmlns="http://www.w3.org/2000/svg" xmlns:xlink="http://www.w3.org/1999/xlink" width="109" height="84" viewBox="0 0 109 84">
  <defs>
    <polygon id="icon3-a" points="0 83.896 108.192 83.896 108.192 .301 0 .301"/>
  </defs>
  <g fill="none" fill-rule="evenodd" transform="translate(0 -1)">
    <polygon stroke="#0F0F0F" stroke-linecap="round" stroke-linejoin="round" stroke-width=".678" points="29.626 37.785 28.27 37.795 25.296 48.701 28.01 48.68"/>
    <polygon stroke="#0F0F0F" stroke-linecap="round" stroke-linejoin="round" stroke-width=".678" points="28.01 48.68 29.043 50.714 31.757 50.693 32.42 48.647 33.357 37.756 32.346 38.785 30.312 38.801 29.626 37.785"/>
    <polygon stroke="#0F0F0F" stroke-linecap="round" stroke-linejoin="round" stroke-width=".678" points="32.42 48.647 36.83 48.615 35.731 37.739 33.216 37.758"/>
    <polygon stroke="#0F0F0F" stroke-linecap="round" stroke-linejoin="round" stroke-width=".678" points="36.83 48.615 37.524 50.65 40.238 50.629 41.24 48.581 39.124 37.714 38.455 39.079 36.76 39.092 35.731 37.739"/>
    <polygon stroke="#0F0F0F" stroke-linecap="round" stroke-linejoin="round" stroke-width=".678" points="41.178 48.582 43.954 48.561 40.819 37.701 39.124 37.713"/>
    <path stroke="#231F20" stroke-linecap="round" stroke-width="1.849" d="M102.662806 38.1589286L101.748968 39.0762662M99.8005101 41.0286169L98.8866717 41.9459545M102.662806 41.9459545L101.748968 41.0286169M99.8005101 39.0762662L98.8866717 38.1589286"/>
    <path stroke="#231F20" stroke-linecap="round" stroke-width="1.561" d="M95.7599131 1.88722078L94.987004 2.66105195M93.3428657 4.3106039L92.5699566 5.08443506M95.7599131 5.08454545L94.987004 4.31071429"/>
    <g transform="translate(0 .803)">
      <path stroke="#231F20" stroke-linecap="round" stroke-width="1.561" d="M93.3428657,1.8582987 L92.5699566,1.08446753 L93.3428657,1.8582987 Z"/>
      <path fill="#07DCDC" d="M108.191418,22.5062338 C108.191418,23.4743506 107.4086,24.2603247 106.441913,24.2603247 C105.476327,24.2603247 104.692408,23.4743506 104.692408,22.5062338 C104.692408,21.537013 105.476327,20.7521429 106.441913,20.7521429 C107.4086,20.7521429 108.191418,21.537013 108.191418,22.5062338"/>
      <path stroke="#231F20" stroke-linecap="round" stroke-width="1.849" d="M4.70186364 38.0103442L3.78692424 38.9276818M1.83967778 40.8800325L.924738384 41.7973701M4.70186364 41.7974805L3.78692424 40.8801429M1.83967778 38.9277922L.924738384 38.0104545"/>
      <path fill="#17C5C0" d="M24.2738596,75.2787597 C24.2738596,76.2468766 23.4899404,77.0328506 22.5243545,77.0328506 C21.5576677,77.0328506 20.7748495,76.2468766 20.7748495,75.2787597 C20.7748495,74.309539 21.5576677,73.5246688 22.5243545,73.5246688 C23.4899404,73.5246688 24.2738596,74.309539 24.2738596,75.2787597"/>
      <path fill="#07DCDC" d="M9.83917677,24.2602143 C9.83917677,25.2283312 9.05635859,26.0143052 8.09077273,26.0143052 C7.12408586,26.0143052 6.34126768,25.2283312 6.34126768,24.2602143 C6.34126768,23.2909935 7.12408586,22.5061234 8.09077273,22.5061234 C9.05635859,22.5061234 9.83917677,23.2909935 9.83917677,24.2602143"/>
      <mask id="icon3-b" fill="#fff">
        <use xlink:href="#icon3-a"/>
      </mask>
      <polygon stroke="#000" stroke-width="1.13" points="15.285 21.526 89.725 21.526 89.725 13.016 15.285 13.016" mask="url(#icon3-b)"/>
      <polyline stroke="#000" stroke-width="1.13" points="54.603 66.873 15.286 66.873 15.286 21.709 89.677 21.709 89.677 66.873 82.014 66.873" mask="url(#icon3-b)"/>
      <path fill="#07DCDC" d="M69.5378162,54.4362078 L56.4798364,54.4362078 C56.2001798,54.4362078 55.9744727,54.2099091 55.9744727,53.9295195 L55.9744727,50.374974 C55.9744727,50.0945844 56.2001798,49.8671818 56.4798364,49.8671818 L69.5378162,49.8671818 C69.8174727,49.8671818 70.0442808,50.0945844 70.0442808,50.374974 L70.0442808,53.9295195 C70.0442808,54.2099091 69.8174727,54.4362078 69.5378162,54.4362078" mask="url(#icon3-b)"/>
      <path stroke="#282828" stroke-width=".684" d="M69.5378162,54.4362078 L56.4798364,54.4362078 C56.2001798,54.4362078 55.9744727,54.2099091 55.9744727,53.9295195 L55.9744727,50.374974 C55.9744727,50.0945844 56.2001798,49.8671818 56.4798364,49.8671818 L69.5378162,49.8671818 C69.8174727,49.8671818 70.0442808,50.0945844 70.0442808,50.374974 L70.0442808,53.9295195 C70.0442808,54.2099091 69.8174727,54.4362078 69.5378162,54.4362078 Z" mask="url(#icon3-b)"/>
      <path fill="#30BFD7" d="M74.6396768,83.2971299 L79.0437172,78.8837532 C79.1549192,78.7722597 79.1549192,78.5912208 79.0437172,78.4808312 L72.3330606,71.7514805 C72.1866263,71.6057662 72.2394747,71.3584935 72.4321515,71.2834286 L78.0252828,69.1396623 C78.2741111,69.0436234 78.2675051,68.6892727 78.0153737,68.6031688 L57.9362525,61.7744675 C57.7138485,61.6994026 57.5013535,61.9124545 57.5762222,62.1354416 L64.3859697,82.2671948 C64.4729495,82.519987 64.8263737,82.5277143 64.9210606,82.2782338 L67.0625253,76.6693377 C67.1362929,76.4761558 67.3829192,76.4231688 67.5282525,76.5688831 L74.2389091,83.2971299 C74.3490101,83.4086234 74.5284747,83.4086234 74.6396768,83.2971299" mask="url(#icon3-b)"/>
      <path stroke="#020202" stroke-width="1.027" d="M74.6396768,83.2971299 L79.0437172,78.8837532 C79.1549192,78.7722597 79.1549192,78.5912208 79.0437172,78.4808312 L72.3330606,71.7514805 C72.1866263,71.6057662 72.2394747,71.3584935 72.4321515,71.2834286 L78.0252828,69.1396623 C78.2741111,69.0436234 78.2675051,68.6892727 78.0153737,68.6031688 L57.9362525,61.7744675 C57.7138485,61.6994026 57.5013535,61.9124545 57.5762222,62.1354416 L64.3859697,82.2671948 C64.4729495,82.519987 64.8263737,82.5277143 64.9210606,82.2782338 L67.0625253,76.6693377 C67.1362929,76.4761558 67.3829192,76.4231688 67.5282525,76.5688831 L74.2389091,83.2971299 C74.3490101,83.4086234 74.5284747,83.4086234 74.6396768,83.2971299 Z" mask="url(#icon3-b)"/>
      <path stroke="#000" stroke-linecap="round" stroke-width=".753" d="M55.9741424 44.4860195L76.8162636 44.5776429M55.9741424 39.9034156L80.4903343 39.9034156" mask="url(#icon3-b)"/>
      <path stroke="#07DCDC" stroke-width="2.259" d="M56.2268242,33.3037727 L82.0135818,33.3037727" mask="url(#icon3-b)"/>
      <path stroke="#000" stroke-width=".753" d="M21.6427758 18.992974L19.3031293 18.992974C19.2007354 18.992974 19.1192606 18.9101818 19.1192606 18.8086234L19.1192606 16.1548571C19.1192606 16.0521948 19.2007354 15.9705065 19.3031293 15.9705065L21.6427758 15.9705065C21.7440687 15.9705065 21.8266444 16.0521948 21.8266444 16.1548571L21.8266444 18.8086234C21.8266444 18.9101818 21.7440687 18.992974 21.6427758 18.992974zM26.4661909 18.992974L24.1276455 18.992974C24.0252515 18.992974 23.9426758 18.9101818 23.9426758 18.8086234L23.9426758 16.1548571C23.9426758 16.0521948 24.0252515 15.9705065 24.1276455 15.9705065L26.4661909 15.9705065C26.5685848 15.9705065 26.6511606 16.0521948 26.6511606 16.1548571L26.6511606 18.8086234C26.6511606 18.9101818 26.5685848 18.992974 26.4661909 18.992974zM31.290597 18.992974L28.9509505 18.992974C28.8496576 18.992974 28.7670818 18.9101818 28.7670818 18.8086234L28.7670818 16.1548571C28.7670818 16.0521948 28.8496576 15.9705065 28.9509505 15.9705065L31.290597 15.9705065C31.3929909 15.9705065 31.4744657 16.0521948 31.4744657 16.1548571L31.4744657 18.8086234C31.4744657 18.9101818 31.3929909 18.992974 31.290597 18.992974z" mask="url(#icon3-b)"/>
      <polygon stroke="#231F20" stroke-linecap="round" stroke-width=".5" points="21.18 55.73 48.069 55.73 48.069 30.766 21.18 30.766" mask="url(#icon3-b)"/>
    </g>
  </g>
</svg>
