<svg xmlns="http://www.w3.org/2000/svg" xmlns:xlink="http://www.w3.org/1999/xlink" width="94" height="75" viewBox="0 0 94 75">
  <defs>
    <polygon id="pic12-a" points="0 74 93.339 74 93.339 .324 0 .324"/>
  </defs>
  <g fill="none" fill-rule="evenodd">
    <polygon fill="#CED5E0" points="60.059 67.376 37.791 67.376 39.788 70.808 58.063 70.808"/>
    <polygon stroke="#231F20" stroke-width=".672" points="17.414 61.705 80.437 61.705 80.437 27.248 17.414 27.248"/>
    <path stroke="#231F20" stroke-linecap="round" stroke-width="1.005" d="M86.3134 9.5391L85.4304 10.4221M83.5498 12.3038L82.6668 13.1868M86.3134 13.1866L85.4304 12.3036M83.5498 10.4219L82.6668 9.5389M92.8369 53.1446L91.9539 54.0276M90.0722 55.9083L89.1892 56.7913M92.8369 56.7911L91.9539 55.9081M90.0722 54.0274L89.1892 53.1444"/>
    <g transform="translate(0 .676)">
      <path stroke="#231F20" stroke-linecap="round" stroke-linejoin="round" stroke-width="1.005" d="M86.7949 73.4972L11.0569 73.4972C8.8659 73.4972 7.0909 71.7222 7.0909 69.5312L7.0909 66.5972 90.7609 66.5972 90.7609 69.5312C90.7609 71.7222 88.9849 73.4972 86.7949 73.4972zM84.4902 66.5968L13.3612 66.5968 13.3612 23.9598C13.3612 22.3278 14.6842 21.0048 16.3162 21.0048L81.5352 21.0048C83.1672 21.0048 84.4902 22.3278 84.4902 23.9598L84.4902 66.5968z"/>
      <path fill="#FFF" d="M52.9111,21.005 C52.9111,27.386 58.0831,32.559 64.4641,32.559 C70.8451,32.559 76.0171,27.386 76.0171,21.005 C76.0171,14.624 70.8451,9.451 64.4641,9.451 C58.0831,9.451 52.9111,14.624 52.9111,21.005"/>
      <path stroke="#231F20" stroke-width="1.005" d="M52.9111,21.005 C52.9111,27.386 58.0831,32.559 64.4641,32.559 C70.8451,32.559 76.0171,27.386 76.0171,21.005 C76.0171,14.624 70.8451,9.451 64.4641,9.451 C58.0831,9.451 52.9111,14.624 52.9111,21.005 Z"/>
      <path fill="#07DDDD" d="M54.5,21.005 C54.5,26.508 58.961,30.969 64.464,30.969 C69.967,30.969 74.429,26.508 74.429,21.005 C74.429,15.502 69.967,11.041 64.464,11.041 C58.961,11.041 54.5,15.502 54.5,21.005"/>
      <path stroke="#231F20" stroke-width="1.005" d="M60.0381 13.339L60.5651 14.252M68.3623 27.757L68.8893 28.671M56.7988 16.5792L57.7118 17.1062M71.2168 24.9035L72.1298 25.4305M55.6123 21.005L56.6673 21.005M72.2607 21.005L73.3157 21.005M56.7988 25.4308L57.7118 24.9038M71.2168 17.1066L72.1298 16.5796M60.0381 28.671L60.5651 27.757M68.3623 14.2521L68.8893 13.3391"/>
      <polyline stroke="#231F20" stroke-width="1.005" points="68.626 21.005 64.464 21.005 64.464 15.474"/>
      <path stroke="#231F20" stroke-width="1.005" d="M64.4638 12.1535L64.4638 13.2085M64.4638 28.8019L64.4638 29.8569"/>
      <path fill="#07DDDD" d="M92.8369,30.9689 C92.8369,31.7829 92.1769,32.4439 91.3619,32.4439 C90.5479,32.4439 89.8879,31.7829 89.8879,30.9689 C89.8879,30.1549 90.5479,29.4939 91.3619,29.4939 C92.1769,29.4939 92.8369,30.1549 92.8369,30.9689"/>
      <path fill="#E6E9EE" d="M39.8457,57.9982 L10.2767,57.9982 C8.6347,57.9982 7.3047,56.6682 7.3047,55.0272 L7.3047,3.6322 C7.3047,1.9902 8.6347,0.6602 10.2767,0.6602 L39.8457,0.6602 C41.4877,0.6602 42.8177,1.9902 42.8177,3.6322 L42.8177,55.0272 C42.8177,56.6682 41.4877,57.9982 39.8457,57.9982"/>
      <path stroke="#231F20" stroke-width=".672" d="M39.8457,57.9982 L10.2767,57.9982 C8.6347,57.9982 7.3047,56.6682 7.3047,55.0272 L7.3047,3.6322 C7.3047,1.9902 8.6347,0.6602 10.2767,0.6602 L39.8457,0.6602 C41.4877,0.6602 42.8177,1.9902 42.8177,3.6322 L42.8177,55.0272 C42.8177,56.6682 41.4877,57.9982 39.8457,57.9982 Z"/>
      <mask id="pic12-b" fill="#fff">
        <use xlink:href="#pic12-a"/>
      </mask>
      <polygon fill="#FFF" points="7.304 50.871 42.817 50.871 42.817 7.788 7.304 7.788" mask="url(#pic12-b)"/>
      <polygon stroke="#231F20" stroke-width=".672" points="7.304 50.871 42.817 50.871 42.817 7.788 7.304 7.788" mask="url(#pic12-b)"/>
      <path fill="#FFF" d="M13.5166,4.1906 C13.5166,4.9596 12.8936,5.5826 12.1236,5.5826 C11.3556,5.5826 10.7326,4.9596 10.7326,4.1906 C10.7326,3.4206 11.3556,2.7976 12.1236,2.7976 C12.8936,2.7976 13.5166,3.4206 13.5166,4.1906" mask="url(#pic12-b)"/>
      <path stroke="#231F20" stroke-width=".672" d="M13.5166,4.1906 C13.5166,4.9596 12.8936,5.5826 12.1236,5.5826 C11.3556,5.5826 10.7326,4.9596 10.7326,4.1906 C10.7326,3.4206 11.3556,2.7976 12.1236,2.7976 C12.8936,2.7976 13.5166,3.4206 13.5166,4.1906 Z" mask="url(#pic12-b)"/>
      <g mask="url(#pic12-b)">
        <g transform="translate(22 4)">
          <path fill="#E6E9EE" d="M0.5049,0.3751 L1.1629,0.3751"/>
          <path stroke="#231F20" stroke-linecap="round" stroke-width=".672" d="M0.5049,0.3751 L1.1629,0.3751"/>
        </g>
      </g>
      <g mask="url(#pic12-b)">
        <g transform="translate(24 4)">
          <path fill="#E6E9EE" d="M0.7353,0.3751 L5.7153,0.3751"/>
          <path stroke="#231F20" stroke-linecap="round" stroke-width=".672" d="M0.7353,0.3751 L5.7153,0.3751"/>
        </g>
      </g>
      <g mask="url(#pic12-b)">
        <g transform="translate(20 4)">
          <path fill="#E6E9EE" d="M0.4062,0.3751 L1.0642,0.3751"/>
          <path stroke="#231F20" stroke-linecap="round" stroke-width=".672" d="M0.4062,0.3751 L1.0642,0.3751"/>
        </g>
      </g>
      <path fill="#FFF" d="M28.0322,55.8878 L22.0902,55.8878 C20.9882,55.8878 20.0952,54.9948 20.0952,53.8948 C20.0952,53.3958 20.5002,52.9908 20.9992,52.9908 L29.1232,52.9908 C29.6222,52.9908 30.0262,53.3958 30.0262,53.8948 C30.0262,54.9948 29.1342,55.8878 28.0322,55.8878" mask="url(#pic12-b)"/>
      <path stroke="#231F20" stroke-linecap="round" stroke-width=".672" d="M28.0322,55.8878 L22.0902,55.8878 C20.9882,55.8878 20.0952,54.9948 20.0952,53.8948 C20.0952,53.3958 20.5002,52.9908 20.9992,52.9908 L29.1232,52.9908 C29.6222,52.9908 30.0262,53.3958 30.0262,53.8948 C30.0262,54.9948 29.1342,55.8878 28.0322,55.8878 Z" mask="url(#pic12-b)"/>
      <path fill="#FFF" d="M10.1191,48.2687 C10.1191,48.9037 9.6041,49.4177 8.9701,49.4177 C8.3341,49.4177 7.8191,48.9037 7.8191,48.2687 C7.8191,47.6327 8.3341,47.1187 8.9701,47.1187 C9.6041,47.1187 10.1191,47.6327 10.1191,48.2687" mask="url(#pic12-b)"/>
      <path stroke="#231F20" stroke-linecap="round" stroke-width=".672" d="M2.7168 32.1281L2.1408 32.7041M.9121 33.9328L.3361 34.5088M2.7168 34.5089L2.1408 33.9329M.9121 32.7042L.3361 32.1282" mask="url(#pic12-b)"/>
      <polygon fill="#FFF" points="17.741 40.891 39.202 40.891 39.202 28.127 17.741 28.127" mask="url(#pic12-b)"/>
      <polygon stroke="#231F20" stroke-linecap="round" stroke-linejoin="round" stroke-width=".551" points="17.741 40.891 39.202 40.891 39.202 28.127 17.741 28.127" mask="url(#pic12-b)"/>
      <polygon fill="#FFF" points="39.202 28.127 28.472 37.333 17.741 28.127" mask="url(#pic12-b)"/>
      <polygon stroke="#231F20" stroke-linecap="round" stroke-linejoin="round" stroke-width=".551" points="39.202 28.127 28.472 37.333 17.741 28.127" mask="url(#pic12-b)"/>
      <polygon fill="#07DDDD" points="19.726 28.861 37.218 28.861 28.472 36.365" mask="url(#pic12-b)"/>
      <g mask="url(#pic12-b)">
        <g transform="translate(32 33)">
          <path fill="#FFF" d="M7.2021,7.8908 L0.6141,0.8318"/>
          <path stroke="#231F20" stroke-linecap="round" stroke-linejoin="round" stroke-width=".551" d="M7.2021,7.8908 L0.6141,0.8318"/>
        </g>
      </g>
      <g mask="url(#pic12-b)">
        <g transform="translate(17 33)">
          <path fill="#FFF" d="M0.7412,7.8156 L7.3292,0.7566"/>
          <path stroke="#231F20" stroke-linecap="round" stroke-linejoin="round" stroke-width=".551" d="M0.7412,7.8156 L7.3292,0.7566"/>
        </g>
      </g>
      <path fill="#07DDDD" d="M49.9258,9.7462 C49.9258,10.5612 49.2658,11.2222 48.4508,11.2222 C47.6358,11.2222 46.9758,10.5612 46.9758,9.7462 C46.9758,8.9322 47.6358,8.2712 48.4508,8.2712 C49.2658,8.2712 49.9258,8.9322 49.9258,9.7462" mask="url(#pic12-b)"/>
      <g mask="url(#pic12-b)">
        <g transform="translate(33 24)">
          <path fill="#FFF" d="M0.8886,0.8136 L0.8896,0.3966"/>
          <path stroke="#231F20" stroke-linecap="round" stroke-width=".256" d="M0.8886,0.8136 L0.8896,0.3966"/>
        </g>
      </g>
      <g mask="url(#pic12-b)">
        <g transform="translate(33 23)">
          <path fill="#FFF" d="M0.8906,0.9074 L0.8916,0.6754"/>
          <path stroke="#231F20" stroke-linecap="round" stroke-width=".256" d="M0.8906,0.9074 L0.8916,0.6754"/>
        </g>
      </g>
      <g mask="url(#pic12-b)">
        <g transform="translate(30 24)">
          <path fill="#FFF" d="M0.7168,1.4083 L0.7168,0.9923"/>
          <path stroke="#231F20" stroke-linecap="round" stroke-width=".256" d="M0.7168,1.4083 L0.7168,0.9923"/>
        </g>
      </g>
      <g mask="url(#pic12-b)">
        <g transform="translate(30 24)">
          <path fill="#FFF" d="M0.7177,0.5021 L0.7187,0.2711"/>
          <path stroke="#231F20" stroke-linecap="round" stroke-width=".256" d="M0.7177,0.5021 L0.7187,0.2711"/>
        </g>
      </g>
      <g mask="url(#pic12-b)">
        <g transform="translate(26 25)">
          <path fill="#FFF" d="M0.8193,0.5392 L0.8193,0.1902"/>
          <path stroke="#231F20" stroke-linecap="round" stroke-width=".256" d="M0.8193,0.5392 L0.8193,0.1902"/>
        </g>
      </g>
      <g mask="url(#pic12-b)">
        <g transform="translate(26 24)">
          <path fill="#FFF" d="M0.8203,0.7804 L0.8213,0.5874"/>
          <path stroke="#231F20" stroke-linecap="round" stroke-width=".256" d="M0.8203,0.7804 L0.8213,0.5874"/>
        </g>
      </g>
      <g mask="url(#pic12-b)">
        <g transform="translate(29 20)">
          <path fill="#FFF" d="M0.6826,0.7511 L0.6716,5.9471"/>
          <path stroke="#231F20" stroke-dasharray=".171 .341" stroke-width=".256" d="M0.6826,0.7511 L0.6716,5.9471"/>
        </g>
      </g>
      <g mask="url(#pic12-b)">
        <g transform="translate(28 16)">
          <polyline fill="#FFF" points="4.976 9.954 4.989 3.687 6.173 3.69 3.342 .848 .499 3.679 1.685 3.681 1.683 4.751"/>
          <polyline stroke="#231F20" stroke-width=".256" points="4.976 9.954 4.989 3.687 6.173 3.69 3.342 .848 .499 3.679 1.685 3.681 1.683 4.751"/>
        </g>
      </g>
      <g mask="url(#pic12-b)">
        <g transform="translate(33 20)">
          <path fill="#FFF" d="M0.8925,3.2003 L0.8985,0.3823"/>
          <path stroke="#231F20" stroke-linecap="round" stroke-width=".256" d="M0.8925,3.2003 L0.8985,0.3823"/>
        </g>
      </g>
      <g mask="url(#pic12-b)">
        <g transform="translate(30 20)">
          <path fill="#FFF" d="M0.7197,3.7951 L0.7257,0.9781"/>
          <path stroke="#231F20" stroke-linecap="round" stroke-width=".256" d="M0.7197,3.7951 L0.7257,0.9781"/>
        </g>
      </g>
      <g mask="url(#pic12-b)">
        <g transform="translate(23 19)">
          <path fill="#FFF" d="M0.8418,0.4347 L0.8338,4.5837"/>
          <path stroke="#231F20" stroke-dasharray=".171 .341" stroke-width=".256" d="M0.8418,0.4347 L0.8338,4.5837"/>
        </g>
      </g>
      <g mask="url(#pic12-b)">
        <g transform="translate(23 16)">
          <polyline fill="#FFF" points="3.034 7.588 3.044 2.726 3.833 2.728 1.948 .835 .055 2.72 .844 2.722 .842 3.435"/>
          <polyline stroke="#231F20" stroke-width=".256" points="3.034 7.588 3.044 2.726 3.833 2.728 1.948 .835 .055 2.72 .844 2.722 .842 3.435"/>
        </g>
      </g>
      <g mask="url(#pic12-b)">
        <g transform="translate(24 23)">
          <path fill="#FFF" d="M0.9336,0.6574 L0.9346,0.3074"/>
          <path stroke="#231F20" stroke-linecap="round" stroke-width=".256" d="M0.9336,0.6574 L0.9346,0.3074"/>
        </g>
      </g>
      <g mask="url(#pic12-b)">
        <g transform="translate(24 22)">
          <path fill="#FFF" d="M0.9355,0.8986 L0.9355,0.7046"/>
          <path stroke="#231F20" stroke-linecap="round" stroke-width=".256" d="M0.9355,0.8986 L0.9355,0.7046"/>
        </g>
      </g>
      <g mask="url(#pic12-b)">
        <g transform="translate(24 19)">
          <path fill="#FFF" d="M0.9365,3.3068 L0.9415,0.9478"/>
          <path stroke="#231F20" stroke-linecap="round" stroke-width=".256" d="M0.9365,3.3068 L0.9415,0.9478"/>
        </g>
      </g>
      <g mask="url(#pic12-b)">
        <g transform="translate(26 21)">
          <path fill="#FFF" d="M0.8213,3.1886 L0.8263,0.8306"/>
          <path stroke="#231F20" stroke-linecap="round" stroke-width=".256" d="M0.8213,3.1886 L0.8263,0.8306"/>
        </g>
      </g>
    </g>
  </g>
</svg>
