<svg xmlns="http://www.w3.org/2000/svg" xmlns:xlink="http://www.w3.org/1999/xlink" width="86" height="82" viewBox="0 0 86 82">
  <defs>
    <polygon id="icon-4-a" points="0 81.847 84.167 81.847 84.167 .919 0 .919"/>
  </defs>
  <g fill="none" fill-rule="evenodd" transform="translate(1 -1)">
    <polygon fill="#E5E8ED" points="65.433 42.94 74.206 51.745 74.206 42.94"/>
    <path stroke="#231F20" stroke-linecap="round" stroke-width=".981" d="M80.8676216 3.86618611L80.0302568 4.70771389M78.2427297 6.50051389L77.4053649 7.34204167M80.8676216 7.34250278L80.0302568 6.500975M78.2427297 4.70771389L77.4053649 3.86618611M11.5728649 1.65296806L10.7355 2.49449583M8.94808784 4.28729583L8.11072297 5.12882361M11.5728649 5.12870833L10.7355 4.28718056M8.94808784 2.49449583L8.11072297 1.65296806"/>
    <path stroke="#231F20" stroke-linecap="round" stroke-linejoin="round" stroke-width=".981" d="M69.5313784 25.3659528L74.8048243 25.3659528M74.2987297 27.2921292L76.8774459 27.2921292M77.1961959 25.3659528L79.6543041 25.3659528M71.9150541 27.2921292L72.4170135 27.2921292"/>
    <polygon stroke="#231F20" stroke-linejoin="round" stroke-width=".981" points="4.958 38.448 .487 38.448 .487 81.592 69.905 81.592 69.905 77.104 4.958 77.104"/>
    <polygon stroke="#231F20" stroke-linejoin="round" stroke-width=".981" points="4.961 33.96 65.433 33.96 65.433 42.94 74.382 42.94 74.382 77.104 4.961 77.104"/>
    <polygon fill="#FFF" points="74.382 42.94 65.433 42.94 65.433 33.96"/>
    <polygon stroke="#231F20" stroke-linejoin="round" stroke-width=".981" points="74.382 42.94 65.433 42.94 65.433 33.96"/>
    <polygon fill="#07DCDC" points="66.735 41.633 66.735 37.117 71.235 41.633"/>
    <g transform="translate(0 .234)">
      <path fill="#FFF" d="M36.8520946,41.0029222 C36.3122297,36.2869083 34.5157432,31.7587972 31.3902703,28.1886444 C28.5209459,24.9089917 26.9564865,20.4558111 27.5124324,15.6314361 C28.3624324,8.26633889 34.3066892,2.33068611 41.6511486,1.51106111 C51.3641216,0.428602778 59.5872973,8.03001944 59.5872973,17.5588806 C59.5872973,21.6351028 58.077973,25.3551167 55.5922973,28.1932556 C52.4691216,31.7611028 50.6714865,36.2880611 50.1350676,41.0029222 L36.8520946,41.0029222 Z"/>
      <path stroke="#231F20" stroke-linejoin="round" stroke-width=".981" d="M36.8520946,41.0029222 L50.1350676,41.0029222 C50.6714865,36.2880611 52.4691216,31.7611028 55.5922973,28.1932556 C58.077973,25.3551167 59.5872973,21.6351028 59.5872973,17.5588806 C59.5872973,8.03001944 51.3641216,0.428602778 41.6511486,1.51106111 C34.3066892,2.33068611 28.3624324,8.26633889 27.5124324,15.6314361 C26.9564865,20.4558111 28.5209459,24.9089917 31.3902703,28.1886444 C34.5157432,31.7587972 36.3122297,36.2869083 36.8520946,41.0029222 Z"/>
      <polygon fill="#FFF" points="51.559 41.003 41.559 41.003 35.43 41.003 35.43 49.693 51.559 49.693"/>
      <polygon stroke="#231F20" stroke-linejoin="round" stroke-width=".981" points="51.559 41.003 41.559 41.003 35.43 41.003 35.43 49.693 51.559 49.693"/>
      <g transform="translate(32.162 43.806)">
        <path fill="#FFF" d="M0.862635135,0.0927986111 L21.8013514,0.0927986111"/>
        <path stroke="#231F20" stroke-linejoin="round" stroke-width=".981" d="M0.862635135,0.0927986111 L21.8013514,0.0927986111"/>
      </g>
      <g transform="translate(32.162 46.111)">
        <path fill="#FFF" d="M0.862635135,0.686133333 L21.8013514,0.686133333"/>
        <path stroke="#231F20" stroke-linejoin="round" stroke-width=".981" d="M0.862635135,0.686133333 L21.8013514,0.686133333"/>
      </g>
      <mask id="icon-4-b" fill="#fff">
        <use xlink:href="#icon-4-a"/>
      </mask>
      <polygon fill="#FFF" points="39.866 52.68 47.122 52.68 47.122 49.692 39.866 49.692" mask="url(#icon-4-b)"/>
      <polygon stroke="#231F20" stroke-linejoin="round" stroke-width=".981" points="39.866 52.68 47.122 52.68 47.122 49.692 39.866 49.692" mask="url(#icon-4-b)"/>
      <polygon fill="#FFF" points="9.842 72.456 19.043 72.456 19.043 11.741 9.842 11.741" mask="url(#icon-4-b)"/>
      <polygon stroke="#231F20" stroke-width=".981" points="9.842 72.456 19.043 72.456 19.043 11.741 9.842 11.741" mask="url(#icon-4-b)"/>
      <polygon fill="#30BFD7" points="10.885 71.409 18.002 71.409 18.002 12.787 10.885 12.787" mask="url(#icon-4-b)"/>
      <polygon stroke="#020202" stroke-width=".981" points="10.885 71.409 18.002 71.409 18.002 12.787 10.885 12.787" mask="url(#icon-4-b)"/>
      <path stroke="#231F20" stroke-width=".981" d="M9.84208108 15.7532847L13.2616081 15.7532847M9.84208108 19.8059903L13.2616081 19.8059903M9.84208108 23.8586958L13.2616081 23.8586958M9.84208108 27.9125542L13.2616081 27.9125542M9.84208108 31.9652597L13.2616081 31.9652597M9.84208108 36.0180806L13.2616081 36.0180806M9.84208108 40.0719389L13.2616081 40.0719389M9.84208108 44.1246444L13.2616081 44.1246444M9.84208108 48.17735L13.2616081 48.17735M9.84208108 52.2312083L13.2616081 52.2312083M9.84208108 56.2839139L13.2616081 56.2839139M9.84208108 60.3367347L13.2616081 60.3367347M9.84208108 64.3905931L13.2616081 64.3905931M9.84208108 68.4432986L13.2616081 68.4432986" mask="url(#icon-4-b)"/>
      <path fill="#30BFD7" d="M80.7106014,62.7660986 L41.5589122,62.7660986 L41.5589122,68.7248069 L80.7106014,68.7248069 C82.3508716,68.7248069 83.6798581,67.3910431 83.6798581,65.7448764 C83.6798581,64.0998625 82.3508716,62.7660986 80.7106014,62.7660986" mask="url(#icon-4-b)"/>
      <path stroke="#020202" stroke-width=".981" d="M80.7106014,62.7660986 L41.5589122,62.7660986 L41.5589122,68.7248069 L80.7106014,68.7248069 C82.3508716,68.7248069 83.6798581,67.3910431 83.6798581,65.7448764 C83.6798581,64.0998625 82.3508716,62.7660986 80.7106014,62.7660986 Z" mask="url(#icon-4-b)"/>
      <path stroke="#231F20" stroke-width=".981" d="M74.5926689,68.7246917 L80.7103716,68.7246917 C82.3506419,68.7246917 83.6796284,67.3909278 83.6796284,65.7447611 C83.6796284,64.0997472 82.3506419,62.7659833 80.7103716,62.7659833 L74.5926689,62.7659833 L74.5926689,68.7246917 Z" mask="url(#icon-4-b)"/>
      <polygon stroke="#231F20" stroke-linejoin="round" stroke-width=".981" points="41.559 68.725 34.332 65.745 41.559 62.766" mask="url(#icon-4-b)"/>
      <path stroke="#231F20" stroke-linejoin="round" stroke-width=".981" d="M41.5589122,65.7448764 L74.5928986,65.7448764" mask="url(#icon-4-b)"/>
      <path stroke="#231F20" stroke-linecap="round" stroke-width=".981" d="M67.0221554 50.49305L66.1847905 51.333425M64.3972635 53.1273778L63.5598986 53.9677528M67.0221554 53.9683292L66.1847905 53.1279542M64.3972635 51.3340014L63.5598986 50.4936264" mask="url(#icon-4-b)"/>
      <path fill="#07DCDC" d="M73.5853041 15.6722444C73.5853041 16.5748694 72.8559122 17.3068833 71.9565203 17.3068833 71.0571284 17.3068833 70.3277365 16.5748694 70.3277365 15.6722444 70.3277365 14.7696194 71.0571284 14.0364528 71.9565203 14.0364528 72.8559122 14.0364528 73.5853041 14.7696194 73.5853041 15.6722444M29.0303716 59.7861681C29.0303716 60.6887931 28.3009797 61.4208069 27.4015878 61.4208069 26.5021959 61.4208069 25.7728041 60.6887931 25.7728041 59.7861681 25.7728041 58.8835431 26.5021959 58.1515292 27.4015878 58.1515292 28.3009797 58.1515292 29.0303716 58.8835431 29.0303716 59.7861681M20.0206014 2.74510972C20.0206014 3.64773472 19.2912095 4.37974861 18.3918176 4.37974861 17.4924257 4.37974861 16.7630338 3.64773472 16.7630338 2.74510972 16.7630338 1.84248472 17.4924257 1.11047083 18.3918176 1.11047083 19.2912095 1.11047083 20.0206014 1.84248472 20.0206014 2.74510972" mask="url(#icon-4-b)"/>
      <g mask="url(#icon-4-b)">
        <g transform="translate(36.757 17.139)">
          <path fill="#FFF" d="M5.54027703,23.8640333 C6.19500676,23.7095611 6.38108784,5.75850556 4.15270946,1.79410278 C4.15270946,1.79410278 3.28433108,-0.539119444 1.54412838,0.160616667 C-0.134047297,0.832686111 0.245006757,3.04717222 0.245006757,3.04717222 C0.245006757,3.04717222 0.351831081,4.625325 1.65210135,5.54754722 C2.95237162,6.472075 6.41899324,6.36371389 6.41899324,6.36371389 L7.61014189,6.36371389"/>
          <path stroke="#231F20" stroke-linejoin="round" stroke-width=".525" d="M5.54027703,23.8640333 C6.19500676,23.7095611 6.38108784,5.75850556 4.15270946,1.79410278 C4.15270946,1.79410278 3.28433108,-0.539119444 1.54412838,0.160616667 C-0.134047297,0.832686111 0.245006757,3.04717222 0.245006757,3.04717222 C0.245006757,3.04717222 0.351831081,4.625325 1.65210135,5.54754722 C2.95237162,6.472075 6.41899324,6.36371389 6.41899324,6.36371389 L7.61014189,6.36371389"/>
        </g>
      </g>
      <g mask="url(#icon-4-b)">
        <g transform="translate(42.5 17.139)">
          <path fill="#FFF" d="M2.68324324,23.8640333 C2.68324324,23.8640333 1.53114865,5.75850556 3.75952703,1.79410278 C3.75952703,1.79410278 4.5877027,-0.426147222 6.36810811,0.160616667 C7.87858108,0.656311111 7.66837838,3.04717222 7.66837838,3.04717222 C7.66837838,3.04717222 7.67871622,4.48814444 6.26013514,5.54754722 C4.98283784,6.5032 1.49439189,6.36371389 1.49439189,6.36371389 L0.303243243,6.36371389"/>
          <path stroke="#231F20" stroke-linejoin="round" stroke-width=".525" d="M2.68324324,23.8640333 C2.68324324,23.8640333 1.53114865,5.75850556 3.75952703,1.79410278 C3.75952703,1.79410278 4.5877027,-0.426147222 6.36810811,0.160616667 C7.87858108,0.656311111 7.66837838,3.04717222 7.66837838,3.04717222 C7.66837838,3.04717222 7.67871622,4.48814444 6.26013514,5.54754722 C4.98283784,6.5032 1.49439189,6.36371389 1.49439189,6.36371389 L0.303243243,6.36371389"/>
        </g>
      </g>
    </g>
  </g>
</svg>
