<svg xmlns="http://www.w3.org/2000/svg" xmlns:xlink="http://www.w3.org/1999/xlink" width="152" height="149" viewBox="0 0 152 149">
  <defs>
    <polygon id="icon-1-a" points=".336 .566 7.128 .566 7.128 7.357 .336 7.357 .336 .566"/>
    <polygon id="icon-1-c" points="21.297 .987 .568 .987 .568 .05 21.297 .05 21.297 .987"/>
    <polygon id="icon-1-e" points="4.347 .987 .661 .987 .661 .05 4.347 .05 4.347 .987"/>
    <polygon id="icon-1-g" points="0 5.825 0 .659 5.165 .659 5.165 5.825 0 5.825"/>
  </defs>
  <g fill="none" fill-rule="evenodd" transform="translate(0 -1)">
    <polyline stroke="#050505" stroke-linecap="round" stroke-width="1.505" points="109.278 73.745 120.147 73.745 132.826 73.745 123.92 102.876 88.146 102.876 96.901 73.745 104.597 73.745 104.597 78.875 109.278 78.875 109.278 68.259 104.597 68.259 104.597 73.745"/>
    <polyline stroke="#050505" stroke-linecap="round" stroke-width="1.505" points="130.863 102.877 141.581 102.877 132.827 73.745 131.11 79.358 123.77 79.329"/>
    <path stroke="#050505" stroke-linecap="round" stroke-width="1.505" d="M129.198565 85.6085312L121.95789 85.6085312M127.326997 91.7327039L120.145932 91.7327039M125.577631 97.4531156L118.334969 97.4531156M111.089326 102.876668L120.146131 73.7450701"/>
    <path fill="#050505" d="M55.3889805,55.4502442 L53.8808377,55.4502442 L45.7281234,55.4502442 L44.2199805,55.4502442 L44.2199805,56.960374 L44.2199805,130.046686 L44.2199805,131.556816 L45.7281234,131.556816 L53.8808377,131.556816 L55.3889805,131.556816 L55.3889805,130.046686 L55.3889805,56.960374 L55.3889805,55.4502442 Z M45.7281234,130.046686 L53.8808377,130.046686 L53.8808377,56.960374 L45.7281234,56.960374 L45.7281234,130.046686 Z"/>
    <polyline stroke="#050505" stroke-linecap="round" stroke-width="1.505" points="53.88 130.047 45.728 130.047 53.88 118.828 45.728 118.828 53.88 108.915 45.728 108.915 53.88 98.938 45.728 98.938 53.88 88.309 45.728 88.309 53.88 77.216 45.728 77.216 53.88 67.102 45.728 67.102 53.88 56.96 55.577 56.96"/>
    <g transform="translate(0 .422)">
      <path fill="#050505" d="M48.5043779,6.55654675 C47.6161831,6.55654675 46.8948974,7.2221961 46.8253519,8.1084039 L44.4886247,37.6950273 L39.9264429,32.9341442 C39.6105078,32.6043 39.1674039,32.4155338 38.7103909,32.4155338 L19.5416766,32.4155338 C19.0667805,32.4155338 18.6117545,32.6162221 18.2938325,32.9679234 L12.0347416,39.8648455 C11.5876636,40.3576247 11.4744039,41.0689753 11.7426506,41.6789883 C12.0128844,42.2850273 12.6169364,42.6804429 13.2825857,42.6804429 L60.8238584,42.6804429 L149.627443,42.6804429 C150.366612,42.6804429 151.012391,42.2055468 151.234936,41.5001571 C151.455495,40.7927805 151.195196,40.0357286 150.58717,39.6124948 L140.22291,32.4155338 C139.936781,32.2168325 139.606936,32.1135078 139.261196,32.1135078 L60.8993649,32.1135078 C60.4304299,32.1135078 59.9793779,32.3122091 59.6614558,32.6559623 L54.8826896,37.8500143 L50.1675078,7.97726104 C50.0363649,7.15463766 49.3369364,6.55654675 48.5043779,6.55654675 M48.5043779,8.06468961 C48.5838584,8.06468961 48.6613519,8.11436494 48.675261,8.21172857 L53.8236117,40.8126506 C53.8395078,40.9060403 53.9170013,40.9596896 53.9964818,40.9596896 C54.0421831,40.9596896 54.0898714,40.9437935 54.1256377,40.9040532 L60.7721961,33.679274 C60.8039883,33.6435078 60.8516766,33.6236377 60.8993649,33.6236377 L139.261196,33.6236377 C139.296962,33.6236377 139.332729,33.6335727 139.362534,33.6554299 L149.726794,40.8523909 C149.867871,40.9517416 149.798326,41.170313 149.627443,41.170313 L60.8238584,41.170313 L13.2825857,41.170313 C13.1315727,41.170313 13.0520922,40.9914818 13.1534299,40.8782221 L19.4125208,33.983287 C19.444313,33.9455338 19.4920013,33.9236766 19.5416766,33.9236766 L38.7103909,33.9236766 C38.7580792,33.9236766 38.8037805,33.9435468 38.8375597,33.979313 L45.460274,40.8881571 C45.4940532,40.9259104 45.5397545,40.9437935 45.5834688,40.9437935 C45.6689104,40.9437935 45.7523649,40.8802091 45.760313,40.7828455 L48.3295208,8.22563766 C48.3394558,8.12032597 48.4209234,8.06468961 48.5043779,8.06468961"/>
      <polyline stroke="#050505" stroke-linecap="round" stroke-width="1.505" points="38.785 33.924 38.785 41.169 28.219 33.924 28.219 41.169 19.464 33.924 19.464 41.169 19.464 43.887 24.294 43.887 24.294 47.812 14.935 47.812 14.935 43.933 19.464 43.887"/>
      <polyline stroke="#050505" stroke-linecap="round" stroke-width="1.505" points="60.823 33.624 69.981 41.171 69.981 33.624 79.843 41.171 79.843 33.624 89.504 41.171 89.504 33.924 98.66 41.171 98.66 33.624 107.518 41.171 107.518 33.924 117.731 41.171 117.731 33.924 129.198 41.171 129.198 33.624 139.316 41.171 139.316 33.624"/>
      <path stroke="#050505" stroke-linecap="round" stroke-width="1.505" d="M111.089326,47.0574351 L114.258612,47.0713442 L114.258612,49.4736429 L108.069066,49.4736429 L108.069066,47.0574351 L111.089326,47.0574351 L111.089326,31.131526 L50.1794299,2.87818831 C49.132274,2.39335714 47.8943649,2.59404545 47.0538584,3.38487662 L17.2506506,31.4415 L48.4467545,3.84586364 L111.089326,31.131526"/>
      <polyline stroke="#050505" stroke-linecap="round" stroke-width="1.505" points="114.259 49.473 111.09 52.341 108.069 49.473"/>
      <polyline stroke="#050505" stroke-linecap="round" stroke-width="1.505" points="96.9 73.323 111.089 52.34 132.827 73.323"/>
      <path fill="#FFF" d="M111.089326,53.812087 C110.278625,53.812087 109.616949,53.1523987 109.616949,52.3416974 C109.616949,51.5309961 110.278625,50.8693208 111.089326,50.8693208 C111.900027,50.8693208 112.561703,51.5309961 112.561703,52.3416974 C112.561703,53.1523987 111.900027,53.812087 111.089326,53.812087"/>
      <path fill="#050505" d="M111.089326,50.1136597 C109.861352,50.1136597 108.861884,51.1131273 108.861884,52.3411013 C108.861884,53.5670883 109.861352,54.5665558 111.089326,54.5665558 C112.3173,54.5665558 113.316768,53.5670883 113.316768,52.3411013 C113.316768,51.1131273 112.3173,50.1136597 111.089326,50.1136597 M111.089326,51.6237896 C111.484742,51.6237896 111.806638,51.9456857 111.806638,52.3411013 C111.806638,52.7365169 111.484742,53.056426 111.089326,53.056426 C110.69391,53.056426 110.372014,52.7365169 110.372014,52.3411013 C110.372014,51.9456857 110.69391,51.6237896 111.089326,51.6237896"/>
      <path fill="#FFF" d="M132.473957,74.4913286 C131.663256,74.4913286 131.001581,73.8316403 131.001581,73.020939 C131.001581,72.2102377 131.663256,71.5485623 132.473957,71.5485623 C133.284658,71.5485623 133.946334,72.2102377 133.946334,73.020939 C133.946334,73.8316403 133.284658,74.4913286 132.473957,74.4913286"/>
      <path fill="#050505" d="M132.472964,70.7948883 C131.24499,70.7948883 130.247509,71.7923688 130.247509,73.0203429 C130.247509,74.2483169 131.24499,75.2457974 132.472964,75.2457974 C133.700938,75.2457974 134.700405,74.2483169 134.700405,73.0203429 C134.700405,71.7923688 133.700938,70.7948883 132.472964,70.7948883 M132.472964,72.3030312 C132.870366,72.3030312 133.190275,72.6249273 133.190275,73.0203429 C133.190275,73.4157584 132.870366,73.7356675 132.472964,73.7356675 C132.077548,73.7356675 131.757639,73.4157584 131.757639,73.0203429 C131.757639,72.6249273 132.077548,72.3030312 132.472964,72.3030312"/>
      <path fill="#FFF" d="M96.8998675,74.4913286 C96.0891662,74.4913286 95.4274909,73.8316403 95.4274909,73.020939 C95.4274909,72.2102377 96.0891662,71.5485623 96.8998675,71.5485623 C97.7105688,71.5485623 98.3722442,72.2102377 98.3722442,73.020939 C98.3722442,73.8316403 97.7105688,74.4913286 96.8998675,74.4913286"/>
      <path fill="#050505" d="M96.8998675,70.7948883 C95.6718935,70.7948883 94.672426,71.7923688 94.672426,73.0203429 C94.672426,74.2483169 95.6718935,75.2457974 96.8998675,75.2457974 C98.1278416,75.2457974 99.1273091,74.2483169 99.1273091,73.0203429 C99.1273091,71.7923688 98.1278416,70.7948883 96.8998675,70.7948883 M96.8998675,72.3030312 C97.2952831,72.3030312 97.6171792,72.6249273 97.6171792,73.0203429 C97.6171792,73.4157584 97.2952831,73.7356675 96.8998675,73.7356675 C96.5044519,73.7356675 96.1825558,73.4157584 96.1825558,73.0203429 C96.1825558,72.6249273 96.5044519,72.3030312 96.8998675,72.3030312"/>
      <path fill="#FFF" d="M111.089326,35.6611208 C109.632845,35.6611208 108.446599,34.474874 108.446599,33.0183935 C108.446599,31.561913 109.632845,30.3776532 111.089326,30.3776532 C112.545806,30.3776532 113.732053,31.561913 113.732053,33.0183935 C113.732053,34.474874 112.545806,35.6611208 111.089326,35.6611208"/>
      <path fill="#050505" d="M111.089326,29.6225883 C109.21756,29.6225883 107.693521,31.1466273 107.693521,33.0183935 C107.693521,34.8921468 109.21756,36.4161857 111.089326,36.4161857 C112.961092,36.4161857 114.485131,34.8921468 114.485131,33.0183935 C114.485131,31.1466273 112.961092,29.6225883 111.089326,29.6225883 M111.089326,31.1327182 C112.130521,31.1327182 112.976988,31.9771987 112.976988,33.0183935 C112.976988,34.0595883 112.130521,34.9060558 111.089326,34.9060558 C110.048131,34.9060558 109.201664,34.0595883 109.201664,33.0183935 C109.201664,31.9771987 110.048131,31.1327182 111.089326,31.1327182"/>
      <path fill="#FFF" d="M18.8601312,35.0576649 C17.4036506,35.0576649 16.2174039,33.8714182 16.2174039,32.4149377 C16.2174039,30.9584571 17.4036506,29.7741974 18.8601312,29.7741974 C20.3166117,29.7741974 21.5028584,30.9584571 21.5028584,32.4149377 C21.5028584,33.8714182 20.3166117,35.0576649 18.8601312,35.0576649"/>
      <path fill="#050505" d="M18.8601312,29.0191325 C16.9883649,29.0191325 15.464326,30.5431714 15.464326,32.4149377 C15.464326,34.2867039 16.9883649,35.8127299 18.8601312,35.8127299 C20.7318974,35.8127299 22.2559364,34.2867039 22.2559364,32.4149377 C22.2559364,30.5431714 20.7318974,29.0191325 18.8601312,29.0191325 M18.8601312,30.5292623 C19.901326,30.5292623 20.7477935,31.3737429 20.7477935,32.4149377 C20.7477935,33.4561325 19.901326,34.3026 18.8601312,34.3026 C17.8189364,34.3026 16.9724688,33.4561325 16.9724688,32.4149377 C16.9724688,31.3737429 17.8189364,30.5292623 18.8601312,30.5292623"/>
      <path fill="#FFF" d="M48.4461584,6.60304286 C46.9896779,6.60304286 45.8034312,5.41878312 45.8034312,3.9623026 C45.8034312,2.50582208 46.9896779,1.31957532 48.4461584,1.31957532 C49.902639,1.31957532 51.0888857,2.50582208 51.0888857,3.9623026 C51.0888857,5.41878312 49.902639,6.60304286 48.4461584,6.60304286"/>
      <g transform="translate(44.714)">
        <mask id="icon-1-b" fill="#fff">
          <use xlink:href="#icon-1-a"/>
        </mask>
        <path fill="#050505" d="M3.73187273,0.565305195 C1.86010649,0.565305195 0.336067532,2.08934416 0.336067532,3.96111039 C0.336067532,5.83486364 1.86010649,7.35691558 3.73187273,7.35691558 C5.60363896,7.35691558 7.12767792,5.83486364 7.12767792,3.96111039 C7.12767792,2.08934416 5.60363896,0.565305195 3.73187273,0.565305195 M3.73187273,2.07543506 C4.77306753,2.07543506 5.61953506,2.91991558 5.61953506,3.96111039 C5.61953506,5.00429221 4.77306753,5.84877273 3.73187273,5.84877273 C2.69067792,5.84877273 1.84421039,5.00429221 1.84421039,3.96111039 C1.84421039,2.91991558 2.69067792,2.07543506 3.73187273,2.07543506" mask="url(#icon-1-b)"/>
      </g>
      <g transform="translate(51.662 148.039)">
        <mask id="icon-1-d" fill="#fff">
          <use xlink:href="#icon-1-c"/>
        </mask>
        <path stroke="#231F20" stroke-linecap="round" stroke-width="1.867" d="M0.568484416,0.0495402597 L21.2970039,0.0495402597" mask="url(#icon-1-d)"/>
      </g>
      <g transform="translate(75.506 148.039)">
        <mask id="icon-1-f" fill="#fff">
          <use xlink:href="#icon-1-e"/>
        </mask>
        <path stroke="#231F20" stroke-linecap="round" stroke-width="1.867" d="M0.660681818,0.0495402597 L4.34659091,0.0495402597" mask="url(#icon-1-f)"/>
      </g>
      <path stroke="#231F20" stroke-linecap="round" stroke-width="1.867" d="M80.1054351 142.602955L100.833955 142.602955M104.041788 142.602955L107.727697 142.602955M22.1569831 143.875835L26.6814117 143.875835M31.3139338 143.875835L63.169726 143.875835"/>
      <g transform="translate(10.935 138.104)">
        <path fill="#FFF" d="M0.721150649,0.391107792 L109.492229,0.391107792"/>
        <path stroke="#231F20" stroke-width="1.867" d="M0.721150649,0.391107792 L109.492229,0.391107792"/>
      </g>
      <path stroke="#231F20" stroke-linecap="round" stroke-width="2.723" d="M102.858125 2.06927532L101.508943 3.41845714M98.6317481 6.29545325L97.2825662 7.64463506M102.858125 7.64503247L101.508943 6.29585065M98.6317481 3.41885455L97.2825662 2.06768571M14.4445909 70.2321662L13.0934221 71.5833351M10.2174195 74.4583442L8.86823766 75.809513M14.4445909 75.8089169L13.0934221 74.4577481M10.2174195 71.582739L8.86823766 70.2315701"/>
      <path fill="#17C5C0" d="M135.77379,17.8519208 C135.77379,19.2785961 134.617348,20.4350377 133.190673,20.4350377 C131.763997,20.4350377 130.607556,19.2785961 130.607556,17.8519208 C130.607556,16.4252455 131.763997,15.2688039 133.190673,15.2688039 C134.617348,15.2688039 135.77379,16.4252455 135.77379,17.8519208"/>
      <g transform="translate(0 3.974)">
        <mask id="icon-1-h" fill="#fff">
          <use xlink:href="#icon-1-g"/>
        </mask>
        <path fill="#07DCDC" d="M5.16543896,3.24220909 C5.16543896,4.66888442 4.0089974,5.82532597 2.58232208,5.82532597 C1.15564675,5.82532597 -0.000794805195,4.66888442 -0.000794805195,3.24220909 C-0.000794805195,1.81553377 1.15564675,0.659092208 2.58232208,0.659092208 C4.0089974,0.659092208 5.16543896,1.81553377 5.16543896,3.24220909" mask="url(#icon-1-h)"/>
      </g>
      <path fill="#17C5C0" d="M78.7498948,60.7181494 C78.7498948,62.1448247 77.5934532,63.3012662 76.1667779,63.3012662 C74.7401026,63.3012662 73.583661,62.1448247 73.583661,60.7181494 C73.583661,59.291474 74.7401026,58.1350325 76.1667779,58.1350325 C77.5934532,58.1350325 78.7498948,59.291474 78.7498948,60.7181494"/>
      <path fill="#07DCDC" d="M60.299287,44.1506338 L60.299287,55.5858935 C60.299287,56.6409974 59.4428844,57.4974 58.3877805,57.4974 L46.9545078,57.4974 C45.8974169,57.4974 45.0430013,56.6409974 45.0430013,55.5858935 L45.0430013,44.1506338 C45.0430013,43.0955299 45.8974169,42.2391273 46.9545078,42.2391273 L58.3877805,42.2391273 C59.4428844,42.2391273 60.299287,43.0955299 60.299287,44.1506338"/>
      <path stroke="#070707" stroke-width="1.816" d="M60.299287,44.1506338 L60.299287,55.5858935 C60.299287,56.6409974 59.4428844,57.4974 58.3877805,57.4974 L46.9545078,57.4974 C45.8974169,57.4974 45.0430013,56.6409974 45.0430013,55.5858935 L45.0430013,44.1506338 C45.0430013,43.0955299 45.8974169,42.2391273 46.9545078,42.2391273 L58.3877805,42.2391273 C59.4428844,42.2391273 60.299287,43.0955299 60.299287,44.1506338 Z"/>
    </g>
  </g>
</svg>
