<?xml version="1.0" encoding="UTF-8"?><!DOCTYPE svg PUBLIC "-//W3C//DTD SVG 1.1//EN" "http://www.w3.org/Graphics/SVG/1.1/DTD/svg11.dtd"><svg xmlns="http://www.w3.org/2000/svg"><symbol id="icon-arrow-btn" viewBox="0 0 7 10">
    <path d="M.661 2.066A1.2 1.2 0 0 1 2.34.35L6.991 4.9l-5.01 4.225A1.2 1.2 0 1 1 .435 7.291l2.99-2.523L.662 2.066z"/>
</symbol><symbol id="icon-arrow-lg" viewBox="0 0 45 24">
    <path d="M23.31 20.717L3.023.612a1.25 1.25 0 1 0-1.76 1.776l21.188 21a1.25 1.25 0 0 0 1.783-.023l20.128-21A1.25 1.25 0 1 0 42.56.635l-19.25 20.082z"/>
</symbol><symbol id="icon-arrow-toggle" viewBox="0 0 33 19">
    <path d="M16.118 16.813L31.416.453a.8.8 0 0 1 1.168 1.093l-15.897 17a.8.8 0 0 1-1.183-.015l-15.102-17A.8.8 0 0 1 1.598.47l14.52 16.344z"/>
</symbol><symbol id="icon-arrow" viewBox="0 0 22 12">
    <path d="M21.464 6.45a.749.749 0 0 0 .286-.593c0-.2-.077-.4-.235-.548L16.945.983a.75.75 0 1 0-1.032 1.09l3.21 3.038H1a.75.75 0 1 0 0 1.5h18.176L15.9 9.87a.75.75 0 0 0 1.058 1.063l4.506-4.484z"/>
</symbol><symbol id="icon-chevron" viewBox="0 0 8 6">
    <path d="M4.003 4.162L6.597.698a.503.503 0 0 1 .806.604L4.005 5.838.598 1.302a.503.503 0 0 1 .804-.604l2.601 3.464z"/>
</symbol><symbol id="icon-close" viewBox="0 0 13 13">
    <path fill-rule="evenodd" d="M13 1.3L11.7 0 6.5 5.2 1.3 0 0 1.3l5.2 5.2L0 11.7 1.3 13l5.2-5.2 5.2 5.2 1.3-1.3-5.2-5.2z"/>
</symbol><symbol id="icon-dots" viewBox="0 0 18 17">
    <path fill-rule="evenodd" d="M3 6a3 3 0 1 1 0-6 3 3 0 0 1 0 6zm0 11a3 3 0 1 1 0-6 3 3 0 0 1 0 6zM15 6a3 3 0 1 1 0-6 3 3 0 0 1 0 6zm0 11a3 3 0 1 1 0-6 3 3 0 0 1 0 6z"/>
</symbol><symbol id="icon-edit" viewBox="0 0 12 12">
    <path fill-rule="evenodd" d="M0 9.467V12h2.533l7.334-7.4-2.534-2.533L0 9.467zm11.8-6.8a.644.644 0 0 0 0-.934L10.267.2a.644.644 0 0 0-.934 0l-1.2 1.2 2.534 2.533L11.8 2.667z"/>
</symbol><symbol id="icon-email-fill" viewBox="0 0 11 9">
    <path fill-rule="evenodd" d="M0 2l5.02 3.912L10.044 2v6.313H0V2zM10.043.575L5.021 4.55 0 .596V0h10.043v.575z"/>
</symbol><symbol id="icon-email" viewBox="0 0 14 12">
    <path fill-rule="evenodd" d="M12.201 1.628a.806.806 0 0 0-.421-.118H2.42a.806.806 0 0 0-.416.115l5.1 5.29 5.097-5.287zm.389.764l-5.486 5.69L1.61 2.384V9.88c0 .447.363.81.81.81h9.36a.81.81 0 0 0 .81-.81V2.392zM2.42.7h9.36c.895 0 1.62.725 1.62 1.62v7.56a1.62 1.62 0 0 1-1.62 1.62H2.42A1.62 1.62 0 0 1 .8 9.88V2.32C.8 1.425 1.525.7 2.42.7z"/>
</symbol><symbol id="icon-facebook" viewBox="0 0 13 13">
    <path fill-rule="evenodd" d="M13 12.283a.717.717 0 0 1-.717.717H8.97V7.966h1.69l.253-1.962H8.97V4.75c0-.568.158-.955.972-.955h1.04V2.04c-.18-.024-.797-.078-1.515-.078-1.498 0-2.523.915-2.523 2.594v1.447H5.25v1.962h1.694V13H.717A.717.717 0 0 1 0 12.283V.717C0 .321.321 0 .717 0h11.566c.396 0 .717.321.717.717v11.566" opacity=".9"/>
</symbol><symbol id="icon-go-down" viewBox="0 0 23 15">
    <path d="M11.5 8.672l8-8L22.328 3.5l-8 8-2.828 2.828L.672 3.5 3.5.672l8 8z"/>
</symbol><symbol id="icon-house-stroke" viewBox="0 0 13 12">
    <path d="M8.104 1.39a171.586 171.586 0 0 1 2.339 2.67c.618.724 1.13 1.343 1.506 1.827.772.996.709 1.807-.053 2.126-.181.076-.35.102-.491.104h-.618v1.67c0 .955-.679 1.471-1.68 1.64a5.167 5.167 0 0 1-1.409.03l-.436-.055-.006-2.147H5.745l-.007 2.14-.428.061a5.15 5.15 0 0 1-1.41-.006c-1.003-.153-1.687-.661-1.687-1.62V8.117h-.627a1.319 1.319 0 0 1-.482-.104c-.762-.32-.825-1.13-.053-2.126.376-.484.888-1.103 1.506-1.828l.187-.218a155.168 155.168 0 0 1 2.327-2.646c.07-.106.182-.229.34-.346A1.805 1.805 0 0 1 6.528.502c.418.008.776.136 1.06.347.158.117.269.24.34.345l.175.195zM6.474.5a.39.39 0 0 0-.01.001h.01zm.063.001zM9.682 4.71l-.185-.217a154.196 154.196 0 0 0-2.339-2.659l-.06-.083a.51.51 0 0 0-.105-.098.81.81 0 0 0-.487-.15.822.822 0 0 0-.499.15.508.508 0 0 0-.105.098l-.06.083a92.684 92.684 0 0 0-.731.819c-.548.618-1.097 1.245-1.608 1.84l-.185.217A52.76 52.76 0 0 0 1.842 6.5c-.414.533-.411.566-.351.59a.428.428 0 0 0 .104.027h1.618V9.83c0 .348.264.544.838.631.22.034.457.044.69.037l.007-2.243h3.505l.007 2.235c.228.003.462-.011.68-.049.578-.097.847-.302.847-.654v-2.67h1.608a.395.395 0 0 0 .114-.026c.06-.025.063-.058-.35-.59a52.764 52.764 0 0 0-1.477-1.792zM6.45 1.499zm.09 0h.01-.01z"/>
</symbol><symbol id="icon-house" viewBox="0 0 11 10">
    <path fill-rule="evenodd" d="M10.554 5.194C9.257 3.524 6.53.498 6.53.498S6.248.014 5.514.003V0h-.027v.003C4.752.014 4.47.498 4.47.498S1.743 3.524.446 5.194c-1.085 1.4.15 1.423.15 1.423h1.117V8.83c0 1.494 2.526 1.131 2.526 1.131l.008-2.206H6.754l.007 2.206s2.526.32 2.526-1.174v-2.17h1.118s1.234-.024.149-1.423"/>
</symbol><symbol id="icon-instagram" viewBox="0 0 256 256">
    <path d="M128 23.064c34.177 0 38.225.13 51.722.745 12.48.57 19.258 2.655 23.769 4.408 5.974 2.322 10.238 5.096 14.717 9.575 4.48 4.479 7.253 8.743 9.575 14.717 1.753 4.511 3.838 11.289 4.408 23.768.615 13.498.745 17.546.745 51.723 0 34.178-.13 38.226-.745 51.723-.57 12.48-2.655 19.257-4.408 23.768-2.322 5.974-5.096 10.239-9.575 14.718-4.479 4.479-8.743 7.253-14.717 9.574-4.511 1.753-11.289 3.839-23.769 4.408-13.495.616-17.543.746-51.722.746-34.18 0-38.228-.13-51.723-.746-12.48-.57-19.257-2.655-23.768-4.408-5.974-2.321-10.239-5.095-14.718-9.574-4.479-4.48-7.253-8.744-9.574-14.718-1.753-4.51-3.839-11.288-4.408-23.768-.616-13.497-.746-17.545-.746-51.723 0-34.177.13-38.225.746-51.722.57-12.48 2.655-19.258 4.408-23.769 2.321-5.974 5.095-10.238 9.574-14.717 4.48-4.48 8.744-7.253 14.718-9.575 4.51-1.753 11.288-3.838 23.768-4.408 13.497-.615 17.545-.745 51.723-.745zM128 0C93.237 0 88.878.147 75.226.77c-13.625.622-22.93 2.786-31.071 5.95-8.418 3.271-15.556 7.648-22.672 14.764C14.367 28.6 9.991 35.738 6.72 44.155 3.555 52.297 1.392 61.602.77 75.226.147 88.878 0 93.237 0 128c0 34.763.147 39.122.77 52.774.622 13.625 2.785 22.93 5.95 31.071 3.27 8.417 7.647 15.556 14.763 22.672 7.116 7.116 14.254 11.492 22.672 14.763 8.142 3.165 17.446 5.328 31.07 5.95 13.653.623 18.012.77 52.775.77s39.122-.147 52.774-.77c13.624-.622 22.929-2.785 31.07-5.95 8.418-3.27 15.556-7.647 22.672-14.763 7.116-7.116 11.493-14.254 14.764-22.672 3.164-8.142 5.328-17.446 5.95-31.07.623-13.653.77-18.012.77-52.775s-.147-39.122-.77-52.774c-.622-13.624-2.786-22.929-5.95-31.07-3.271-8.418-7.648-15.556-14.764-22.672C227.4 14.368 220.262 9.99 211.845 6.72c-8.142-3.164-17.447-5.328-31.071-5.95C167.122.147 162.763 0 128 0zm0 62.27C91.698 62.27 62.27 91.7 62.27 128c0 36.302 29.428 65.73 65.73 65.73 36.301 0 65.73-29.428 65.73-65.73 0-36.301-29.429-65.73-65.73-65.73zm0 108.397c-23.564 0-42.667-19.103-42.667-42.667S104.436 85.333 128 85.333s42.667 19.103 42.667 42.667-19.103 42.667-42.667 42.667zm83.686-110.994c0 8.484-6.876 15.36-15.36 15.36-8.483 0-15.36-6.876-15.36-15.36 0-8.483 6.877-15.36 15.36-15.36 8.484 0 15.36 6.877 15.36 15.36z"/>
</symbol><symbol id="icon-leafs" viewBox="0 0 39 37">
    <path fill-rule="evenodd" d="M0 0s.27 11.613.72 13.504c.45 1.89 1.262 4.951 2.072 6.211.81 1.26 2.072 3.151 4.323 4.322 2.252 1.17 6.305.9 6.305.9l3.783-.36s2.342 3.6 3.243 6.391c.9 2.791 1.891 5.852 1.891 5.852l2.252.18s.99-3.42 1.08-3.871c.09-.45.451-2.34 1.172-2.97 0 0 2.522.09 4.503-.361 1.982-.45 3.333-1.08 4.053-1.89.72-.81 1.081-1.53 1.081-1.53s.54-1.171.72-2.702c.18-1.53.18-2.97.18-2.97v-2.251s.09-1.71.361-3.06c.27-1.351.54-2.161.54-2.161s.54-1.53.721-1.71c0 0-2.162 1.62-3.963 1.89-1.801.27-3.873.81-3.873.81s-2.792.54-4.413 2.43c-1.622 1.891-1.892 3.061-1.892 3.061s-.45 1.17-.45 4.051c0 2.881.27 3.241.27 3.241l1.801-1.71s3.063-2.61 4.954-3.421l-2.522 2.79s-1.621 1.801-2.612 3.512c-.99 1.71-1.891 3.87-1.891 3.87l-.81 2.521-1.892-4.32s-1.081-2.251-1.802-3.602c-.72-1.35-2.251-4.05-3.783-5.941-1.53-1.89-3.332-3.421-3.332-3.421s-1.711-1.17-2.612-1.71c0 0 2.702.9 4.683 2.34 1.982 1.44 4.864 3.87 4.864 3.87s1.261-3.42 1.171-5.49c-.09-2.071 0-2.521-1.26-4.412-1.262-1.89-4.414-3.15-4.414-3.15s-2.522-.99-4.414-1.531c-1.891-.54-4.593-1.26-6.305-2.43C2.793 3.6 2.072 2.88 2.072 2.88S.18.63 0 0"/>
</symbol><symbol id="icon-linkedin" viewBox="0 0 19 17">
    <path fill-rule="evenodd" d="M.502 5.954H4.2V17H.502V5.954zm13.804-.107c2.629 0 4.694 1.59 4.694 5.011V17h-4.194v-5.716c0-1.497-.656-2.518-2.099-2.518-1.103 0-1.717.69-2.002 1.354-.107.238-.091.57-.091.902V17H6.459s.054-10.126 0-11.046h4.155v1.733c.245-.758 1.573-1.84 3.692-1.84zM2.283.74c1.364 0 2.203.825 2.23 1.915 0 1.07-.866 1.918-2.256 1.918H2.23C.892 4.572.023 3.727.023 2.657c0-1.091.894-1.918 2.26-1.918z"/>
</symbol><symbol id="icon-location" viewBox="0 0 7 12">
    <path fill-rule="evenodd" d="M3.54 4.858c-.608 0-1.104-.519-1.104-1.163 0-.643.496-1.163 1.104-1.163.611 0 1.108.52 1.108 1.163 0 .644-.497 1.163-1.108 1.163m3.43-1.87C6.256 0 3.5 0 3.5 0v.008C3.252.015.725.141.03 2.982c0 0-.193 1.085.39 2.481 0 0 .689 1.374.815 1.55 0 0 1.829 2.858 2.219 4.987.4-2.127 2.296-4.985 2.296-4.985.126-.174.82-1.545.82-1.545.59-1.397.4-2.482.4-2.482"/>
</symbol><symbol id="icon-materials" viewBox="0 0 29 21">
    <path d="M25.356 10.09l-3.994 5.771a.666.666 0 0 1-.583.276L5.466 15.066l-3.41 2.713 18.504 1.296 6.192-8.951-1.396-.033zm-4.796 4.84l3.97-5.734a.65.65 0 0 1 .567-.3l2.674.063c.52.018.814.604.518 1.033l-6.935 10.025a.655.655 0 0 1-.575.265L.609 18.869c-.594-.047-.825-.797-.359-1.172l4.637-3.69a.66.66 0 0 1 .454-.142l15.22 1.066zm4.795-8.98l-2.637 3.812-1.364 1.97a.669.669 0 0 1-.575.265l-10.762-.755-4.552-.317-3.407 2.712 3.259.226 15.244 1.068 3.999-5.78 2.192-3.168-1.397-.033zm2.935-.1l-2.752 3.977-4.176 6.034a.666.666 0 0 1-.583.276L5.234 15.05.61 14.728c-.597-.046-.825-.798-.36-1.172l4.62-3.678a.659.659 0 0 1 .471-.154l4.758.332 10.462.734 1.18-1.705 2.8-4.048a.664.664 0 0 1 .556-.282l2.666.062a.658.658 0 0 1 .527 1.033zm-1.537-4.012l-14.646-.345-10.05 8 3.26.229 4.782.333 10.462.734 1.18-1.703 2.819-4.077 2.193-3.171zM27.764.672a.66.66 0 0 1 .526 1.034l-2.752 3.98-2.82 4.076-1.356 1.958a.666.666 0 0 1-.583.276l-10.762-.755-4.783-.333-4.624-.324c-.597-.046-.829-.802-.36-1.172L11.507.453a.664.664 0 0 1 .436-.152l15.822.371z"/>
</symbol><symbol id="icon-menu" viewBox="0 0 16 12">
    <path fill-rule="evenodd" d="M0 2V0h16v2H0zm0 5V5h16v2H0zm0 5v-2h16v2H0z"/>
</symbol><symbol id="icon-minus" viewBox="0 0 13 2">
    <path d="M.846 2C.379 2 0 1.553 0 1 0 .448.38 0 .846 0h11.309c.467 0 .845.448.845 1 0 .553-.378 1-.845 1H.846z"/>
</symbol><symbol id="icon-next" viewBox="0 0 12 21">
    <path d="M9.838 10.271L.442 19.427a.8.8 0 0 0 1.116 1.146l10-9.744a.8.8 0 0 0-.015-1.16l-10-9.256A.8.8 0 0 0 .457 1.587l9.381 8.684z"/>
</symbol><symbol id="icon-params" viewBox="0 0 32 30">
    <path fill-rule="evenodd" d="M25.006 15.876v9.642H18.74V23.81c0-1.832.007-3.664-.01-5.496-.001-.309-.121-.619-.177-.893h-5.486v8.072h-6.34v-9.627c3.057-3.025 6.07-6.004 9.127-9.03 3.055 3.016 6.083 6.005 9.152 9.04zm-4.012-8.827v-4.31h3.064v7.245l3.172 3.08-1.614 1.658s-3.859-3.724-5.824-5.624c-1.02-.986-2.036-1.976-3.055-2.963-.729-.705-1.017-.704-1.766.021-2.786 2.694-5.57 5.391-8.353 8.087-.18.176-.551.521-.551.521l-1.618-1.632s.726-.713 1.124-1.098c2.957-2.845 5.908-5.695 8.87-8.533 1.137-1.09 1.769-1.067 2.88.015 1.173 1.141 2.356 2.268 3.67 3.533zm5.829 20.524l.126-.482c.417.424.812.823 1.238 1.258l-1.239 1.099-.14-.44H4.866c-.048.148-.1.317-.138.436-.398-.393-.777-.77-1.175-1.165l1.159-1.14.152.434h21.96zm4.082-3.482l.552.206-1.216 1.162c-.312-.371-.67-.798-1.026-1.225l.4-.155V3.938l-.491-.116 1.123-1.193 1.132 1.184-.474.119V24.09zM2.312 12.28l.213.392H.818v-1.718l.432.24C4.592 7.766 7.93 4.344 11.32.866L11.102.44h1.707v1.706l-.462-.177L2.312 12.28z"/>
</symbol><symbol id="icon-phone-fill" viewBox="0 0 10 12">
    <path fill-rule="evenodd" d="M1.785.345s.872-.534 1.552.362c.678.892 1.334 2.353.258 3.058-.504-.863-1.81-3.42-1.81-3.42zm3.51 8.182c.257.282.55.225.91-.176.442.708 2.27 2.999 2.27 2.999s-.796.53-2.204-.123c-.912-.423-2.84-1.85-4.26-4.104C1.24 5.898.795 4.485.476 2.843.23 1.403.743.88 1.322.568l1.805 3.387s-.72.41-.198 1.367c0 0 .65 1.757 2.367 3.205zm1.388-.485c.862-.758 1.46-.128 1.46-.128s.632.829 1.165 1.487c.532.655-.3 1.58-.3 1.58L6.683 8.042z"/>
</symbol><symbol id="icon-phone" viewBox="0 0 14 14">
    <path d="M13.493 9.51a44.889 44.889 0 0 1-.157 1.936 16.033 16.033 0 0 1-.195 1.412 3.815 3.815 0 0 1-.086.352l-.09.295-.307-.008C6.576 13.347.154 6.925.003.844L-.005.535l.296-.09A3.9 3.9 0 0 1 .652.36C1.003.29 1.487.225 2.087.163A46.33 46.33 0 0 1 3.902.016L4.174 0l1.63 3.397L4.283 4.85c.895 1.79 2.445 3.337 4.366 4.366l1.455-1.455.256.117.275.126c.416.192.81.374 1.167.541l.069.032c.432.203.784.37 1.05.501l.572.43zM4.82 3.216L3.68.843l-.1.007c-.504.035-.98.075-1.41.12-.567.057-1.022.118-1.343.18.353 5.447 6.079 11.171 11.525 11.523.061-.315.122-.758.179-1.31a44.092 44.092 0 0 0 .128-1.51 65.27 65.27 0 0 0-1.132-.541l-.034-.016-.034-.016c-.355-.166-.748-.348-1.163-.539-.004-.002-.504.49-1.5 1.474l-.53-.284C6.201 8.825 4.53 7.158 3.558 5.213l-.267-.534L4.82 3.217z"/>
</symbol><symbol id="icon-plus-arrow" viewBox="0 0 30 16">
    <path fill-rule="evenodd" d="M10 9.5v6.235c0 .147-.107.265-.239.265H7.24c-.132 0-.24-.118-.24-.265V9.5H.765C.619 9.5.5 9.393.5 9.261V6.74c0-.132.119-.24.265-.24H7V.265C7 .119 7.108 0 7.24 0H9.76c.132 0 .239.12.239.265V6.5h6.235c.146 0 .265.108.265.24V9.26c0 .132-.119.239-.265.239H10zm17.503 2.454a.158.158 0 0 1-.223 0L23.547 8.22a.159.159 0 0 0-.26.055l-1.192 3.113c-.052.139-.249.135-.297-.006L18.008.209a.158.158 0 0 1 .202-.2l11.172 3.79c.14.047.143.244.005.296l-3.112 1.192a.158.158 0 0 0-.056.26l3.735 3.733a.158.158 0 0 1 0 .224l-2.45 2.45z"/>
</symbol><symbol id="icon-plus" viewBox="0 0 13 14">
    <path d="M5.5 6V1.342C5.5.877 5.948.5 6.5.5c.553 0 1 .377 1 .842V6h4.655c.467 0 .845.448.845 1 0 .553-.378 1-.845 1H7.5v4.659c0 .465-.447.841-1 .841-.552 0-1-.376-1-.841V8H.846C.379 8 0 7.553 0 7c0-.552.379-1 .846-1H5.5z"/>
</symbol><symbol id="icon-prev" viewBox="0 0 12 21">
    <path d="M2.162 10.271l9.396 9.156a.8.8 0 0 1-1.116 1.146l-10-9.744a.8.8 0 0 1 .015-1.16l10-9.256a.8.8 0 0 1 1.086 1.174l-9.381 8.684z"/>
</symbol><symbol id="icon-roof" viewBox="0 0 37 17">
    <path fill-rule="evenodd" d="M9.883 3.128L.775 15.982a.097.097 0 0 0 .081.152L3.437 17a.1.1 0 0 0 .083-.044l6.895-10.34a.1.1 0 0 1 .162-.006l8.044 10.352a.1.1 0 0 0 .079.038h17.744c.08 0 .128-.091.08-.155L26.838 3.692a.1.1 0 0 0-.077-.04l-3.517-.119a.097.097 0 0 1-.096-.097V.589a.1.1 0 0 0-.1-.098h-3.59c-.057 0-.101.044-.101.098v4.169a.098.098 0 0 1-.099.098h-.765a.098.098 0 0 1-.099-.098V3.464a.098.098 0 0 0-.096-.097l-8.33-.28a.098.098 0 0 0-.085.041"/>
</symbol><symbol id="icon-thumb" viewBox="0 0 40 43">
    <path fill-rule="evenodd" stroke-width=".5" d="M35.277 21.992c-.365.875-1.446.962-1.446.962.964 1.348.964 2.406.868 3.561-.097 1.155-1.35 2.022-1.35 2.022.771 1.636.578 1.924.386 2.983-.193 1.059-1.543 1.829-1.543 1.829.193.673.386 1.443.29 2.695-.194 1.54-1.736 2.31-2.315 2.406-.578.096-.193.096-3.471.288-3.278.193-6.171-.577-6.171-.577s-3.375-.866-5.4-1.636c-2.024-.77-3.278-.77-3.278-.77h-1.35v-15.88c.772.192 1.832-.193 1.832-.193 1.061-.481 2.604-2.406 2.604-2.406s2.796-3.465 4.339-5.39C20.814 9.961 20.814 9 20.814 9s.386-1.636.579-2.791c.193-1.155.964-2.117.964-2.117h.964c1.254 0 2.121.962 2.121.962s.675 1.155.868 3.176c.193 2.021-.578 3.08-1.253 4.716-.675 1.636-1.06 3.85-1.06 3.85h8.966c1.929 0 2.796 2.017 2.796 3.08 0 .577 0 .962-.482 2.117zM5.821 35.755c-.878 0-1.59-.732-1.59-1.636 0-.904.712-1.636 1.59-1.636.878 0 1.59.732 1.59 1.636 0 .904-.712 1.636-1.59 1.636zm31.867-11.838s1.639-2.118 1.253-4.909c-.385-2.79-2.7-4.234-2.7-4.234s-1.157-1.155-3.278-1.155h-4.628s1.254-2.695 1.157-5.005c-.096-2.31-.578-3.657-.868-4.331-.289-.674-1.253-1.829-2.507-2.502-1.253-.674-3.47-.77-3.47-.77s-.965-.097-1.64.288c-.675.385-1.157.963-1.157.963s-.578.481-.964 1.444c-.386.962-.675 2.502-.675 2.502l-.482 2.213s-.29.963-.772 1.444c-.482.481-4.05 4.812-4.05 4.812s-1.253 1.637-1.976 2.07H4.085S1 16.843 1 19.827v15.591s.193 3.369 2.989 3.369h6.364s1.735 0 2.7.384c.964.385 4.435 1.54 4.435 1.54s2.844 1.011 6.219 1.203c3.375.193 5.496 0 5.496 0s2.89-.381 4.339-1.828c1.06-1.059 1.253-1.444 1.446-1.829.193-.385.675-1.347.482-3.657 0 0 2.218-2.599 1.446-5.486 0 0 1.736-3.176.772-5.197z"/>
</symbol><symbol id="icon-user" viewBox="0 0 11 8">
    <path d="M3.776 3.755a2.108 2.108 0 1 1 3.15-.064c1.145.264 1.978.862 2.524 1.707.451.699.62 1.393.64 1.88a.446.446 0 1 1-.89.036 3.26 3.26 0 0 0-.498-1.432c-.594-.917-1.62-1.464-3.254-1.451-1.629.012-2.709.566-3.381 1.48-.237.323-.406.67-.518 1.016a2.527 2.527 0 0 0-.106.434.446.446 0 1 1-.886-.102c.057-.486.28-1.18.792-1.875.57-.775 1.372-1.341 2.427-1.63zm1.544-2.65a1.217 1.217 0 1 0 .005 2.434 1.217 1.217 0 0 0-.005-2.433z"/>
</symbol><symbol id="icon-w" viewBox="0 0 101 53">
    <path fill-rule="evenodd" d="M83 53h-9.39c-4.981 0-8.026-2.951-10.222-7.37-1.553-3.125-12.14-29.406-12.14-29.406L39.485 53h-9.058c-6.068.002-9.746-6.228-10.518-7.733C18.542 42.61 0 .007 0 .007s6.735-.015 9.344 0C13.368 0 16.398 1.266 19.35 7.403c2.717 6.12 13.894 31.658 13.894 31.658L45.88.006h7.395c1.8 0 5.89.101 8.917 6.509C64.568 11.548 83 53 83 53zm13.767-37.328c-3.282 1.88-7.692 1.922-10.89-.902-1.936-1.708-2.28-3.234-3.807-6.003L78 0h15.209s6.713 0 7.677 6.915c.713 5.104-2.083 7.593-4.119 8.757z"/>
</symbol></svg>