<svg xmlns="http://www.w3.org/2000/svg" width="142" height="32" viewBox="0 0 142 32">
  <path fill-rule="evenodd" d="M109.883,22.9829 C110.076,22.7019 110.448,22.5609 110.999,22.5609 C111.051,22.5609 111.105,22.5619 111.16,22.5659 C111.215,22.5689 111.278,22.5729 111.349,22.5789 L111.349,23.3329 C111.262,23.3259 111.199,23.3229 111.16,23.3209 C111.121,23.3189 111.085,23.3179 111.051,23.3179 C110.797,23.3179 110.646,23.3829 110.596,23.5129 C110.547,23.6439 110.522,23.9749 110.522,24.5079 L111.144,24.5079 L111.144,25.1609 L110.522,25.1609 L110.522,29.4039 L109.704,29.4039 L109.704,25.1609 L109.02,25.1609 L109.02,24.5079 L109.704,24.5079 L109.704,23.7359 C109.716,23.3929 109.777,23.1419 109.883,22.9829 Z M115.6875,26.4277 C115.8785,26.4027 116.0055,26.3227 116.0695,26.1887 C116.1065,26.1157 116.1245,26.0097 116.1245,25.8707 C116.1245,25.5887 116.0245,25.3837 115.8245,25.2557 C115.6245,25.1277 115.3375,25.0637 114.9655,25.0637 C114.5345,25.0637 114.2275,25.1817 114.0485,25.4147 C113.9475,25.5447 113.8815,25.7367 113.8505,25.9917 L113.0795,25.9917 C113.0945,25.3837 113.2915,24.9607 113.6695,24.7227 C114.0465,24.4847 114.4845,24.3657 114.9835,24.3657 C115.5615,24.3657 116.0305,24.4757 116.3915,24.6967 C116.7495,24.9167 116.9275,25.2607 116.9275,25.7247 L116.9275,28.5587 C116.9275,28.6447 116.9455,28.7137 116.9815,28.7657 C117.0165,28.8177 117.0915,28.8437 117.2045,28.8437 C117.2405,28.8437 117.2825,28.8417 117.3285,28.8367 C117.3745,28.8327 117.4235,28.8257 117.4745,28.8157 L117.4745,29.4277 C117.3465,29.4637 117.2485,29.4867 117.1805,29.4957 C117.1135,29.5057 117.0215,29.5097 116.9055,29.5097 C116.6205,29.5097 116.4145,29.4087 116.2855,29.2067 C116.2185,29.0987 116.1705,28.9487 116.1425,28.7517 C115.9745,28.9727 115.7325,29.1637 115.4175,29.3267 C115.1015,29.4877 114.7545,29.5697 114.3745,29.5697 C113.9185,29.5697 113.5465,29.4317 113.2565,29.1547 C112.9675,28.8777 112.8225,28.5307 112.8225,28.1157 C112.8225,27.6597 112.9655,27.3067 113.2495,27.0567 C113.5345,26.8057 113.9075,26.6497 114.3705,26.5927 L115.6875,26.4277 Z M113.9475,28.6607 C114.1225,28.7987 114.3285,28.8667 114.5675,28.8667 C114.8585,28.8667 115.1395,28.8007 115.4125,28.6647 C115.8725,28.4417 116.1015,28.0767 116.1015,27.5687 L116.1015,26.9037 C116.0005,26.9687 115.8715,27.0217 115.7125,27.0647 C115.5525,27.1077 115.3975,27.1397 115.2445,27.1567 L114.7455,27.2217 C114.4455,27.2617 114.2195,27.3237 114.0695,27.4097 C113.8135,27.5537 113.6855,27.7827 113.6855,28.0977 C113.6855,28.3357 113.7725,28.5237 113.9475,28.6607 Z M119.2238,24.4849 L120.0408,24.4849 L120.0408,25.1829 C120.2378,24.9409 120.4148,24.7649 120.5738,24.6549 C120.8458,24.4679 121.1558,24.3759 121.5008,24.3759 C121.8938,24.3759 122.2088,24.4709 122.4488,24.6649 C122.5818,24.7739 122.7048,24.9369 122.8158,25.1509 C122.9988,24.8869 123.2148,24.6929 123.4628,24.5649 C123.7108,24.4389 123.9898,24.3759 124.2988,24.3759 C124.9598,24.3759 125.4108,24.6139 125.6498,25.0909 C125.7778,25.3479 125.8418,25.6949 125.8418,26.1299 L125.8418,29.4039 L124.9828,29.4039 L124.9828,25.9879 C124.9828,25.6599 124.9018,25.4349 124.7378,25.3119 C124.5738,25.1889 124.3738,25.1279 124.1378,25.1279 C123.8138,25.1279 123.5348,25.2369 123.2998,25.4549 C123.0658,25.6719 122.9488,26.0349 122.9488,26.5429 L122.9488,29.4039 L122.1078,29.4039 L122.1078,26.1939 C122.1078,25.8599 122.0688,25.6169 121.9888,25.4639 C121.8638,25.2339 121.6288,25.1189 121.2868,25.1189 C120.9738,25.1189 120.6898,25.2399 120.4338,25.4819 C120.1778,25.7239 120.0498,26.1619 120.0498,26.7959 L120.0498,29.4039 L119.2238,29.4039 L119.2238,24.4849 Z M128,29.4048 L128,24.5088 L128.841,24.5088 L128.841,29.4048 L128,29.4048 Z M128,23.5938 L128,22.6568 L128.841,22.6568 L128.841,23.5938 L128,23.5938 Z M131.053,29.4038 L131.053,22.6568 L131.88,22.6568 L131.88,29.4038 L131.053,29.4038 Z M137.136,24.4849 L138.05,24.4849 C137.934,24.7999 137.675,25.5209 137.274,26.6449 C136.974,27.4899 136.723,28.1789 136.521,28.7129 C136.043,29.9669 135.706,30.7319 135.511,31.0069 C135.315,31.2829 134.979,31.4209 134.501,31.4209 C134.385,31.4209 134.295,31.4159 134.233,31.4069 C134.17,31.3969 134.093,31.3809 134.001,31.3559 L134.001,30.6029 C134.145,30.6419 134.248,30.6679 134.313,30.6759 C134.377,30.6859 134.434,30.6899 134.483,30.6899 C134.635,30.6899 134.747,30.6659 134.82,30.6149 C134.892,30.5639 134.951,30.5029 135,30.4289 C135.016,30.4049 135.071,30.2789 135.165,30.0529 C135.26,29.8269 135.329,29.6589 135.372,29.5489 L133.553,24.4849 L134.49,24.4849 L135.808,28.4919 L137.136,24.4849 Z M4.0647,5.6587 L5.6447,15.2397 L5.6957,15.2397 L7.7327,5.6587 L10.7807,5.6587 L12.9187,15.2397 L12.9697,15.2397 L14.5997,5.6587 L17.9117,5.6587 L15.0017,19.1527 L11.0637,19.1527 L9.2827,9.5717 L9.2317,9.5717 L7.5507,19.1527 L3.5387,19.1527 L0.6027,5.6587 L4.0647,5.6587 Z M22.1999,14.0113 C22.1999,14.4123 22.2289,14.8013 22.2869,15.1773 C22.3469,15.5543 22.4429,15.8883 22.5759,16.1813 C22.7099,16.4733 22.8859,16.7073 23.1029,16.8823 C23.3209,17.0593 23.5879,17.1463 23.9059,17.1463 C24.4909,17.1463 24.9169,16.9373 25.1849,16.5193 C25.4459,16.1123 25.6269,15.4973 25.7289,14.6773 C25.7339,14.6413 25.7639,14.6123 25.7989,14.6123 L28.8469,14.6123 C28.7809,16.1853 28.3619,17.3813 27.5929,18.1993 C26.8239,19.0203 25.6119,19.4293 23.9559,19.4293 C22.7009,19.4293 21.7239,19.2193 21.0209,18.8023 C20.3189,18.3843 19.7999,17.8323 19.4659,17.1463 C19.1309,16.4603 18.9269,15.6923 18.8519,14.8383 C18.7769,13.9863 18.7389,13.1333 18.7389,12.2793 C18.7389,11.3773 18.8009,10.5083 18.9269,9.6713 C19.0519,8.8353 19.3029,8.0913 19.6789,7.4393 C20.0559,6.7863 20.5949,6.2693 21.2969,5.8833 C21.9989,5.4993 22.9359,5.3073 24.1069,5.3073 C25.1099,5.3073 25.9329,5.4693 26.5769,5.7963 C27.2209,6.1213 27.7269,6.5823 28.0949,7.1763 C28.4619,7.7703 28.7129,8.4883 28.8469,9.3333 C28.9809,10.1783 29.0479,11.1173 29.0479,12.1543 L29.0479,12.9323 L22.1999,12.9323 L22.1999,14.0113 Z M25.6369,9.5083 C25.5859,9.1153 25.4979,8.7803 25.3729,8.5043 C25.2469,8.2293 25.0729,8.0213 24.8469,7.8773 C24.6199,7.7373 24.3319,7.6643 23.9809,7.6643 C23.6299,7.6643 23.3409,7.7443 23.1159,7.9033 C22.8899,8.0623 22.7099,8.2713 22.5759,8.5293 C22.4429,8.7893 22.3469,9.0773 22.2869,9.3953 C22.2289,9.7133 22.1999,10.0313 22.1999,10.3493 L22.1999,10.8753 L25.7369,10.8753 C25.7199,10.3573 25.6869,9.9023 25.6369,9.5083 Z M30.8297,9.4713 C30.8297,8.6853 30.9547,8.0283 31.2057,7.5013 C31.4567,6.9753 31.7937,6.5483 32.2207,6.2223 C32.6477,5.8963 33.1487,5.6623 33.7257,5.5203 C34.3027,5.3783 34.9177,5.3073 35.5697,5.3073 C36.6057,5.3073 37.4427,5.4073 38.0787,5.6083 C38.7127,5.8093 39.2077,6.0933 39.5577,6.4603 C39.9097,6.8283 40.1477,7.2683 40.2727,7.7783 C40.3987,8.2873 40.4607,8.8443 40.4607,9.4463 L40.4607,16.5443 C40.4607,17.1803 40.4897,17.6733 40.5487,18.0243 C40.6077,18.3753 40.7197,18.7513 40.8877,19.1533 L38.6197,19.1533 C37.5677,19.1543 37.4077,18.7103 37.2537,18.2213 C37.1797,17.9833 37.2007,17.9833 37.1497,17.7483 L37.0997,17.7483 C36.6987,18.4503 36.2347,18.9063 35.7087,19.1153 C35.1807,19.3233 34.4997,19.4293 33.6637,19.4293 C33.0617,19.4293 32.5507,19.3233 32.1327,19.1153 C31.7147,18.9063 31.3797,18.6173 31.1297,18.2493 C30.8787,17.8823 30.6947,17.4693 30.5787,17.0083 C30.4607,16.5483 30.4027,16.0933 30.4027,15.6423 C30.4027,15.0063 30.4687,14.4583 30.6027,13.9983 C30.7367,13.5383 30.9417,13.1463 31.2177,12.8193 C31.4937,12.4933 31.8447,12.2223 32.2707,12.0043 C32.6977,11.7873 33.2117,11.5953 33.8137,11.4273 L35.7707,10.9013 C36.2887,10.7663 36.6487,10.5823 36.8487,10.3493 C37.0497,10.1153 37.1497,9.7723 37.1497,9.3213 C37.1497,8.8023 37.0287,8.3973 36.7867,8.1043 C36.5437,7.8113 36.1297,7.6643 35.5437,7.6643 C35.0087,7.6643 34.6077,7.8233 34.3397,8.1413 C34.0727,8.4593 33.9397,8.8853 33.9397,9.4203 L33.9397,9.7963 L30.8297,9.7963 L30.8297,9.4713 Z M36.3977,12.8443 C36.1297,12.9533 35.8867,13.0323 35.6697,13.0823 C34.9677,13.2343 34.4657,13.4843 34.1657,13.8353 C33.8637,14.1863 33.7127,14.6633 33.7127,15.2653 C33.7127,15.7833 33.8137,16.2273 34.0147,16.5943 C34.2147,16.9623 34.5497,17.1463 35.0177,17.1463 C35.2517,17.1463 35.4947,17.1093 35.7457,17.0333 C35.9967,16.9583 36.2257,16.8363 36.4347,16.6703 C36.6437,16.5033 36.8157,16.2853 36.9497,16.0183 C37.0837,15.7503 37.1497,15.4323 37.1497,15.0653 L37.1497,12.4063 C36.9157,12.5893 36.6657,12.7363 36.3977,12.8443 Z M47.133,1.7954 L47.133,5.6584 L48.623,5.6584 L48.616,8.0154 L47.133,8.0154 L47.133,15.3154 C47.133,15.8514 47.212,16.2314 47.371,16.4564 C47.529,16.6824 47.861,16.7954 48.362,16.7954 C48.495,16.7954 48.629,16.7914 48.763,16.7824 C48.897,16.7744 49.023,16.7624 49.14,16.7444 L49.14,19.1524 C48.755,19.1524 48.383,19.1654 48.024,19.1914 C47.663,19.2164 47.283,19.2284 46.882,19.2284 C46.213,19.2284 45.665,19.1824 45.239,19.0904 C44.813,18.9994 44.487,18.8154 44.261,18.5384 C44.035,18.2624 43.88,17.8994 43.797,17.4474 C43.713,16.9954 43.671,16.4274 43.671,15.7414 L43.671,8.0154 L41.986,8.0154 L41.986,5.6584 L43.671,5.6584 L43.671,1.7954 L47.133,1.7954 Z M53.8049,1.0513 L53.8049,7.0373 L53.8549,7.0373 C54.5239,5.8833 55.6189,5.3073 57.1409,5.3073 C58.2439,5.3073 59.0929,5.6083 59.6869,6.2093 C60.2809,6.8123 60.5769,7.7903 60.5769,9.1443 L60.5769,19.0543 L57.1169,19.0543 L57.1169,9.8473 C57.1169,9.1443 56.9989,8.6553 56.7649,8.3793 C56.5309,8.1043 56.1549,7.9663 55.6359,7.9663 C54.4149,7.9663 53.8049,8.7093 53.8049,10.1983 L53.8049,19.1533 L50.3429,19.1533 L50.3429,1.0513 L53.8049,1.0513 Z M65.8444,14.0113 C65.8444,14.4123 65.8744,14.8013 65.9324,15.1773 C65.9914,15.5543 66.0874,15.8883 66.2214,16.1813 C66.3554,16.4733 66.5314,16.7073 66.7484,16.8823 C66.9654,17.0593 67.2334,17.1463 67.5514,17.1463 C68.1364,17.1463 68.5624,16.9373 68.8304,16.5193 C69.0854,16.1213 69.2634,15.5263 69.3674,14.7343 C69.3764,14.6663 69.4324,14.6123 69.5004,14.6123 L72.4924,14.6123 C72.4264,16.1853 72.0074,17.3813 71.2384,18.1993 C70.4694,19.0203 69.2574,19.4293 67.6004,19.4293 C66.3464,19.4293 65.3684,19.2193 64.6664,18.8023 C63.9644,18.3843 63.4454,17.8323 63.1114,17.1463 C62.7764,16.4603 62.5724,15.6923 62.4964,14.8383 C62.4214,13.9863 62.3844,13.1333 62.3844,12.2793 C62.3844,11.3773 62.4464,10.5083 62.5724,9.6713 C62.6974,8.8353 62.9484,8.0913 63.3244,7.4393 C63.7004,6.7863 64.2404,6.2693 64.9424,5.8833 C65.6444,5.4993 66.5814,5.3073 67.7524,5.3073 C68.7554,5.3073 69.5784,5.4693 70.2224,5.7963 C70.8664,6.1213 71.3724,6.5823 71.7404,7.1763 C72.1074,7.7703 72.3584,8.4883 72.4924,9.3333 C72.6264,10.1783 72.6934,11.1173 72.6934,12.1543 L72.6934,12.9323 L65.8444,12.9323 L65.8444,14.0113 Z M69.2824,9.5083 C69.2314,9.1153 69.1434,8.7803 69.0184,8.5043 C68.8924,8.2293 68.7184,8.0213 68.4914,7.8773 C68.2654,7.7373 67.9774,7.6643 67.6264,7.6643 C67.2754,7.6643 66.9864,7.7443 66.7614,7.9033 C66.5354,8.0623 66.3554,8.2713 66.2214,8.5293 C66.0874,8.7893 65.9914,9.0773 65.9324,9.3953 C65.8744,9.7133 65.8444,10.0313 65.8444,10.3493 L65.8444,10.8753 L69.3824,10.8753 C69.3654,10.3573 69.3324,9.9023 69.2824,9.5083 Z M77.3889,5.3609 L77.3889,7.4649 L77.4389,7.4649 C77.7899,6.8119 78.2169,6.2899 78.7179,5.8959 C79.2199,5.5039 79.8299,5.3069 80.5489,5.3069 C80.6499,5.3069 80.7539,5.3109 80.8629,5.3199 C80.9719,5.3289 81.0769,5.3409 81.1759,5.3569 L81.1759,8.6689 C80.9929,8.6519 80.8129,8.6389 80.6369,8.6309 C80.4609,8.6219 80.2819,8.6179 80.0979,8.6179 C79.7969,8.6179 79.4959,8.6609 79.1949,8.7439 C78.8939,8.8269 78.6179,8.9649 78.3679,9.1569 C78.1169,9.3489 77.9149,9.5999 77.7649,9.9099 C77.6149,10.2189 77.5389,10.5999 77.5389,11.0499 L77.5389,19.1529 L74.4989,19.1529 L74.4989,5.3609 L77.3889,5.3609 Z M84.7284,5.4367 L84.7284,8.4387 L84.7824,8.4387 C85.1714,7.4827 85.8054,6.7437 86.6814,6.2217 C87.5584,5.6977 88.5554,5.4367 89.6714,5.4367 C90.7164,5.4367 91.6244,5.6327 92.3944,6.0217 C93.1654,6.4107 93.8064,6.9377 94.3214,7.6017 C94.8354,8.2657 95.2164,9.0377 95.4644,9.9147 C95.7114,10.7917 95.8364,11.7167 95.8364,12.6907 C95.8364,13.6657 95.7114,14.5917 95.4644,15.4687 C95.2164,16.3447 94.8354,17.1147 94.3214,17.7787 C93.8064,18.4437 93.1654,18.9667 92.3944,19.3477 C91.6244,19.7267 90.7164,19.9187 89.6714,19.9187 C89.1754,19.9187 88.6794,19.8557 88.1824,19.7317 C87.6874,19.6087 87.2264,19.4227 86.8014,19.1747 C86.3764,18.9267 86.0004,18.6167 85.6724,18.2447 C85.3444,17.8727 85.0924,17.4387 84.9154,16.9417 L84.8614,16.9417 L84.8614,25.2747 L83.2654,25.2747 L83.2654,5.4367 L84.7284,5.4367 Z M93.9094,10.5787 C93.7404,9.8797 93.4744,9.2547 93.1124,8.7057 C92.7494,8.1567 92.2834,7.7087 91.7174,7.3637 C91.1504,7.0177 90.4694,6.8457 89.6714,6.8457 C88.7504,6.8457 87.9794,7.0047 87.3594,7.3237 C86.7394,7.6427 86.2434,8.0667 85.8714,8.5997 C85.4994,9.1307 85.2384,9.7507 85.0874,10.4587 C84.9364,11.1677 84.8614,11.9117 84.8614,12.6907 C84.8614,13.3997 84.9454,14.1037 85.1144,14.8037 C85.2824,15.5037 85.5564,16.1277 85.9374,16.6767 C86.3184,17.2257 86.8144,17.6737 87.4264,18.0177 C88.0374,18.3637 88.7854,18.5367 89.6714,18.5367 C90.4694,18.5367 91.1504,18.3637 91.7174,18.0177 C92.2834,17.6737 92.7494,17.2257 93.1124,16.6767 C93.4744,16.1277 93.7404,15.5037 93.9094,14.8037 C94.0774,14.1037 94.1614,13.3997 94.1614,12.6907 C94.1614,11.9827 94.0774,11.2787 93.9094,10.5787 Z M99.5637,5.8355 L99.5637,9.0505 L99.6167,9.0505 C100.0427,7.9355 100.7017,7.0755 101.5957,6.4735 C102.4907,5.8715 103.5577,5.5965 104.7977,5.6495 L104.7977,7.3235 C104.0367,7.2885 103.3447,7.3895 102.7247,7.6295 C102.1047,7.8675 101.5697,8.2095 101.1177,8.6515 C100.6667,9.0955 100.3167,9.6215 100.0687,10.2325 C99.8197,10.8445 99.6967,11.5135 99.6967,12.2385 L99.6967,19.5465 L98.0227,19.5465 L98.0227,5.8355 L99.5637,5.8355 Z M114.4873,6.022 C115.2933,6.411 115.9703,6.934 116.5193,7.589 C117.0683,8.245 117.4853,9.01 117.7693,9.887 C118.0523,10.764 118.1933,11.7 118.1933,12.691 C118.1933,13.683 118.0523,14.618 117.7693,15.494 C117.4853,16.371 117.0683,17.137 116.5193,17.793 C115.9703,18.448 115.2933,18.966 114.4873,19.347 C113.6813,19.727 112.7553,19.919 111.7103,19.919 C110.6653,19.919 109.7393,19.727 108.9343,19.347 C108.1273,18.966 107.4503,18.448 106.9013,17.793 C106.3523,17.137 105.9353,16.371 105.6523,15.494 C105.3683,14.618 105.2273,13.683 105.2273,12.691 C105.2273,11.7 105.3683,10.764 105.6523,9.887 C105.9353,9.01 106.3523,8.245 106.9013,7.589 C107.4503,6.934 108.1273,6.411 108.9343,6.022 C109.7393,5.632 110.6653,5.437 111.7103,5.437 C112.7553,5.437 113.6813,5.632 114.4873,6.022 Z M109.5813,7.273 C108.9703,7.615 108.4623,8.064 108.0583,8.622 C107.6533,9.178 107.3483,9.811 107.1423,10.521 C106.9353,11.231 106.8323,11.954 106.8323,12.691 C106.8323,13.428 106.9353,14.151 107.1423,14.861 C107.3483,15.571 107.6533,16.205 108.0583,16.761 C108.4623,17.318 108.9703,17.767 109.5813,18.109 C110.1913,18.451 110.9013,18.621 111.7103,18.621 C112.5193,18.621 113.2283,18.451 113.8403,18.109 C114.4503,17.767 114.9583,17.318 115.3623,16.761 C115.7673,16.205 116.0723,15.571 116.2783,14.861 C116.4853,14.151 116.5893,13.428 116.5893,12.691 C116.5893,11.954 116.4853,11.231 116.2783,10.521 C116.0723,9.811 115.7673,9.178 115.3623,8.622 C114.9583,8.064 114.4503,7.615 113.8403,7.273 C113.2283,6.932 112.5193,6.761 111.7103,6.761 C110.9013,6.761 110.1913,6.932 109.5813,7.273 Z M129.2648,6.0216 C130.0708,6.4106 130.7478,6.9346 131.2978,7.5896 C131.8468,8.2446 132.2628,9.0106 132.5458,9.8876 C132.8288,10.7646 132.9718,11.6996 132.9718,12.6906 C132.9718,13.6836 132.8288,14.6176 132.5458,15.4936 C132.2628,16.3706 131.8468,17.1376 131.2978,17.7926 C130.7478,18.4476 130.0708,18.9666 129.2648,19.3476 C128.4578,19.7266 127.5338,19.9186 126.4888,19.9186 C125.4428,19.9186 124.5178,19.7266 123.7108,19.3476 C122.9058,18.9666 122.2278,18.4476 121.6788,17.7926 C121.1288,17.1376 120.7128,16.3706 120.4298,15.4936 C120.1468,14.6176 120.0048,13.6836 120.0048,12.6906 C120.0048,11.6996 120.1468,10.7646 120.4298,9.8876 C120.7128,9.0106 121.1288,8.2446 121.6788,7.5896 C122.2278,6.9346 122.9058,6.4106 123.7108,6.0216 C124.5178,5.6326 125.4428,5.4366 126.4888,5.4366 C127.5338,5.4366 128.4578,5.6326 129.2648,6.0216 Z M124.3488,7.2476 C123.7348,7.5906 123.2248,8.0426 122.8188,8.6016 C122.4118,9.1606 122.1048,9.7976 121.8978,10.5106 C121.6898,11.2246 121.5858,11.9506 121.5858,12.6906 C121.5858,13.4326 121.6898,14.1586 121.8978,14.8716 C122.1048,15.5846 122.4118,16.2216 122.8188,16.7806 C123.2248,17.3406 123.7348,17.7916 124.3488,18.1346 C124.9618,18.4776 125.6758,18.6486 126.4888,18.6486 C127.3008,18.6486 128.0138,18.4776 128.6278,18.1346 C129.2418,17.7916 129.7518,17.3406 130.1578,16.7806 C130.5648,16.2216 130.8708,15.5846 131.0778,14.8716 C131.2858,14.1586 131.3908,13.4326 131.3908,12.6906 C131.3908,11.9506 131.2858,11.2246 131.0778,10.5106 C130.8708,9.7976 130.5648,9.1606 130.1578,8.6016 C129.7518,8.0426 129.2418,7.5906 128.6278,7.2476 C128.0138,6.9046 127.3008,6.7326 126.4888,6.7326 C125.6758,6.7326 124.9618,6.9046 124.3488,7.2476 Z M138.051,7.2437 L138.051,19.5467 L136.377,19.5467 L136.377,7.2437 L134.597,7.2437 L134.597,5.8357 L136.377,5.8357 L136.377,4.5867 C136.377,4.0027 136.421,3.4617 136.51,2.9667 C136.598,2.4707 136.767,2.0457 137.015,1.6897 C137.262,1.3367 137.604,1.0617 138.037,0.8667 C138.472,0.6717 139.025,0.5747 139.698,0.5747 C139.947,0.5747 140.177,0.5837 140.389,0.6007 C140.602,0.6187 140.841,0.6457 141.107,0.6817 L141.107,2.1157 C140.876,2.0807 140.663,2.0487 140.469,2.0227 C140.274,1.9957 140.079,1.9827 139.884,1.9827 C139.423,1.9827 139.07,2.0537 138.822,2.1957 C138.573,2.3377 138.392,2.5267 138.277,2.7667 C138.161,3.0057 138.095,3.2847 138.077,3.6027 C138.06,3.9227 138.051,4.2677 138.051,4.6397 L138.051,5.8357 L139.791,5.8357 L139.791,7.2437 L138.051,7.2437 Z"/>
</svg>
