<svg xmlns="http://www.w3.org/2000/svg" width="200" height="33" viewBox="0 0 200 33">
  <path fill="#FFF" fill-rule="evenodd" d="M167.883,23.9829 C168.076,23.7019 168.448,23.5609 168.999,23.5609 C169.051,23.5609 169.105,23.5619 169.16,23.5659 C169.215,23.5689 169.278,23.5729 169.349,23.5789 L169.349,24.3329 C169.262,24.3259 169.199,24.3229 169.16,24.3209 C169.121,24.3189 169.085,24.3179 169.051,24.3179 C168.797,24.3179 168.646,24.3829 168.596,24.5129 C168.547,24.6439 168.522,24.9749 168.522,25.5079 L169.144,25.5079 L169.144,26.1609 L168.522,26.1609 L168.522,30.4039 L167.704,30.4039 L167.704,26.1609 L167.02,26.1609 L167.02,25.5079 L167.704,25.5079 L167.704,24.7359 C167.716,24.3929 167.777,24.1419 167.883,23.9829 Z M173.6875,27.4277 C173.8785,27.4027 174.0055,27.3227 174.0695,27.1887 C174.1065,27.1157 174.1245,27.0097 174.1245,26.8707 C174.1245,26.5887 174.0245,26.3837 173.8245,26.2557 C173.6245,26.1277 173.3375,26.0637 172.9655,26.0637 C172.5345,26.0637 172.2275,26.1817 172.0485,26.4147 C171.9475,26.5447 171.8815,26.7367 171.8505,26.9917 L171.0795,26.9917 C171.0945,26.3837 171.2915,25.9607 171.6695,25.7227 C172.0465,25.4847 172.4845,25.3657 172.9835,25.3657 C173.5615,25.3657 174.0305,25.4757 174.3915,25.6967 C174.7495,25.9167 174.9275,26.2607 174.9275,26.7247 L174.9275,29.5587 C174.9275,29.6447 174.9455,29.7137 174.9815,29.7657 C175.0165,29.8177 175.0915,29.8437 175.2045,29.8437 C175.2405,29.8437 175.2825,29.8417 175.3285,29.8367 C175.3745,29.8327 175.4235,29.8257 175.4745,29.8157 L175.4745,30.4277 C175.3465,30.4637 175.2485,30.4867 175.1805,30.4957 C175.1135,30.5057 175.0215,30.5097 174.9055,30.5097 C174.6205,30.5097 174.4145,30.4087 174.2855,30.2067 C174.2185,30.0987 174.1705,29.9487 174.1425,29.7517 C173.9745,29.9727 173.7325,30.1637 173.4175,30.3267 C173.1015,30.4877 172.7545,30.5697 172.3745,30.5697 C171.9185,30.5697 171.5465,30.4317 171.2565,30.1547 C170.9675,29.8777 170.8225,29.5307 170.8225,29.1157 C170.8225,28.6597 170.9655,28.3067 171.2495,28.0567 C171.5345,27.8057 171.9075,27.6497 172.3705,27.5927 L173.6875,27.4277 Z M171.9475,29.6607 C172.1225,29.7987 172.3285,29.8667 172.5675,29.8667 C172.8585,29.8667 173.1395,29.8007 173.4125,29.6647 C173.8725,29.4417 174.1015,29.0767 174.1015,28.5687 L174.1015,27.9037 C174.0005,27.9687 173.8715,28.0217 173.7125,28.0647 C173.5525,28.1077 173.3975,28.1397 173.2445,28.1567 L172.7455,28.2217 C172.4455,28.2617 172.2195,28.3237 172.0695,28.4097 C171.8135,28.5537 171.6855,28.7827 171.6855,29.0977 C171.6855,29.3357 171.7725,29.5237 171.9475,29.6607 Z M177.2238,25.4849 L178.0408,25.4849 L178.0408,26.1829 C178.2378,25.9409 178.4148,25.7649 178.5738,25.6549 C178.8458,25.4679 179.1558,25.3759 179.5008,25.3759 C179.8938,25.3759 180.2088,25.4709 180.4488,25.6649 C180.5818,25.7739 180.7048,25.9369 180.8158,26.1509 C180.9988,25.8869 181.2148,25.6929 181.4628,25.5649 C181.7108,25.4389 181.9898,25.3759 182.2988,25.3759 C182.9598,25.3759 183.4108,25.6139 183.6498,26.0909 C183.7778,26.3479 183.8418,26.6949 183.8418,27.1299 L183.8418,30.4039 L182.9828,30.4039 L182.9828,26.9879 C182.9828,26.6599 182.9018,26.4349 182.7378,26.3119 C182.5738,26.1889 182.3738,26.1279 182.1378,26.1279 C181.8138,26.1279 181.5348,26.2369 181.2998,26.4549 C181.0658,26.6719 180.9488,27.0349 180.9488,27.5429 L180.9488,30.4039 L180.1078,30.4039 L180.1078,27.1939 C180.1078,26.8599 180.0688,26.6169 179.9888,26.4639 C179.8638,26.2339 179.6288,26.1189 179.2868,26.1189 C178.9738,26.1189 178.6898,26.2399 178.4338,26.4819 C178.1778,26.7239 178.0498,27.1619 178.0498,27.7959 L178.0498,30.4039 L177.2238,30.4039 L177.2238,25.4849 Z M186,30.4048 L186,25.5088 L186.841,25.5088 L186.841,30.4048 L186,30.4048 Z M186,24.5938 L186,23.6568 L186.841,23.6568 L186.841,24.5938 L186,24.5938 Z M189.053,30.4038 L189.053,23.6568 L189.88,23.6568 L189.88,30.4038 L189.053,30.4038 Z M195.136,25.4849 L196.05,25.4849 C195.934,25.7999 195.675,26.5209 195.274,27.6449 C194.974,28.4899 194.723,29.1789 194.521,29.7129 C194.043,30.9669 193.706,31.7319 193.511,32.0069 C193.315,32.2829 192.979,32.4209 192.501,32.4209 C192.385,32.4209 192.295,32.4159 192.233,32.4069 C192.17,32.3969 192.093,32.3809 192.001,32.3559 L192.001,31.6029 C192.145,31.6419 192.248,31.6679 192.313,31.6759 C192.377,31.6859 192.434,31.6899 192.483,31.6899 C192.635,31.6899 192.747,31.6659 192.82,31.6149 C192.892,31.5639 192.951,31.5029 193,31.4289 C193.016,31.4049 193.071,31.2789 193.165,31.0529 C193.26,30.8269 193.329,30.6589 193.372,30.5489 L191.553,25.4849 L192.49,25.4849 L193.808,29.4919 L195.136,25.4849 Z M62.0647,6.6587 L63.6447,16.2397 L63.6957,16.2397 L65.7327,6.6587 L68.7807,6.6587 L70.9187,16.2397 L70.9697,16.2397 L72.5997,6.6587 L75.9117,6.6587 L73.0017,20.1527 L69.0637,20.1527 L67.2827,10.5717 L67.2317,10.5717 L65.5507,20.1527 L61.5387,20.1527 L58.6027,6.6587 L62.0647,6.6587 Z M80.1999,15.0113 C80.1999,15.4123 80.2289,15.8013 80.2869,16.1773 C80.3469,16.5543 80.4429,16.8883 80.5759,17.1813 C80.7099,17.4733 80.8859,17.7073 81.1029,17.8823 C81.3209,18.0593 81.5879,18.1463 81.9059,18.1463 C82.4909,18.1463 82.9169,17.9373 83.1849,17.5193 C83.4459,17.1123 83.6269,16.4973 83.7289,15.6773 C83.7339,15.6413 83.7639,15.6123 83.7989,15.6123 L86.8469,15.6123 C86.7809,17.1853 86.3619,18.3813 85.5929,19.1993 C84.8239,20.0203 83.6119,20.4293 81.9559,20.4293 C80.7009,20.4293 79.7239,20.2193 79.0209,19.8023 C78.3189,19.3843 77.7999,18.8323 77.4659,18.1463 C77.1309,17.4603 76.9269,16.6923 76.8519,15.8383 C76.7769,14.9863 76.7389,14.1333 76.7389,13.2793 C76.7389,12.3773 76.8009,11.5083 76.9269,10.6713 C77.0519,9.8353 77.3029,9.0913 77.6789,8.4393 C78.0559,7.7863 78.5949,7.2693 79.2969,6.8833 C79.9989,6.4993 80.9359,6.3073 82.1069,6.3073 C83.1099,6.3073 83.9329,6.4693 84.5769,6.7963 C85.2209,7.1213 85.7269,7.5823 86.0949,8.1763 C86.4619,8.7703 86.7129,9.4883 86.8469,10.3333 C86.9809,11.1783 87.0479,12.1173 87.0479,13.1543 L87.0479,13.9323 L80.1999,13.9323 L80.1999,15.0113 Z M83.6369,10.5083 C83.5859,10.1153 83.4979,9.7803 83.3729,9.5043 C83.2469,9.2293 83.0729,9.0213 82.8469,8.8773 C82.6199,8.7373 82.3319,8.6643 81.9809,8.6643 C81.6299,8.6643 81.3409,8.7443 81.1159,8.9033 C80.8899,9.0623 80.7099,9.2713 80.5759,9.5293 C80.4429,9.7893 80.3469,10.0773 80.2869,10.3953 C80.2289,10.7133 80.1999,11.0313 80.1999,11.3493 L80.1999,11.8753 L83.7369,11.8753 C83.7199,11.3573 83.6869,10.9023 83.6369,10.5083 Z M88.8297,10.4713 C88.8297,9.6853 88.9547,9.0283 89.2057,8.5013 C89.4567,7.9753 89.7937,7.5483 90.2207,7.2223 C90.6477,6.8963 91.1487,6.6623 91.7257,6.5203 C92.3027,6.3783 92.9177,6.3073 93.5697,6.3073 C94.6057,6.3073 95.4427,6.4073 96.0787,6.6083 C96.7127,6.8093 97.2077,7.0933 97.5577,7.4603 C97.9097,7.8283 98.1477,8.2683 98.2727,8.7783 C98.3987,9.2873 98.4607,9.8443 98.4607,10.4463 L98.4607,17.5443 C98.4607,18.1803 98.4897,18.6733 98.5487,19.0243 C98.6077,19.3753 98.7197,19.7513 98.8877,20.1533 L96.6197,20.1533 C95.5677,20.1543 95.4077,19.7103 95.2537,19.2213 C95.1797,18.9833 95.2007,18.9833 95.1497,18.7483 L95.0997,18.7483 C94.6987,19.4503 94.2347,19.9063 93.7087,20.1153 C93.1807,20.3233 92.4997,20.4293 91.6637,20.4293 C91.0617,20.4293 90.5507,20.3233 90.1327,20.1153 C89.7147,19.9063 89.3797,19.6173 89.1297,19.2493 C88.8787,18.8823 88.6947,18.4693 88.5787,18.0083 C88.4607,17.5483 88.4027,17.0933 88.4027,16.6423 C88.4027,16.0063 88.4687,15.4583 88.6027,14.9983 C88.7367,14.5383 88.9417,14.1463 89.2177,13.8193 C89.4937,13.4933 89.8447,13.2223 90.2707,13.0043 C90.6977,12.7873 91.2117,12.5953 91.8137,12.4273 L93.7707,11.9013 C94.2887,11.7663 94.6487,11.5823 94.8487,11.3493 C95.0497,11.1153 95.1497,10.7723 95.1497,10.3213 C95.1497,9.8023 95.0287,9.3973 94.7867,9.1043 C94.5437,8.8113 94.1297,8.6643 93.5437,8.6643 C93.0087,8.6643 92.6077,8.8233 92.3397,9.1413 C92.0727,9.4593 91.9397,9.8853 91.9397,10.4203 L91.9397,10.7963 L88.8297,10.7963 L88.8297,10.4713 Z M94.3977,13.8443 C94.1297,13.9533 93.8867,14.0323 93.6697,14.0823 C92.9677,14.2343 92.4657,14.4843 92.1657,14.8353 C91.8637,15.1863 91.7127,15.6633 91.7127,16.2653 C91.7127,16.7833 91.8137,17.2273 92.0147,17.5943 C92.2147,17.9623 92.5497,18.1463 93.0177,18.1463 C93.2517,18.1463 93.4947,18.1093 93.7457,18.0333 C93.9967,17.9583 94.2257,17.8363 94.4347,17.6703 C94.6437,17.5033 94.8157,17.2853 94.9497,17.0183 C95.0837,16.7503 95.1497,16.4323 95.1497,16.0653 L95.1497,13.4063 C94.9157,13.5893 94.6657,13.7363 94.3977,13.8443 Z M105.133,2.7954 L105.133,6.6584 L106.623,6.6584 L106.616,9.0154 L105.133,9.0154 L105.133,16.3154 C105.133,16.8514 105.212,17.2314 105.371,17.4564 C105.529,17.6824 105.861,17.7954 106.362,17.7954 C106.495,17.7954 106.629,17.7914 106.763,17.7824 C106.897,17.7744 107.023,17.7624 107.14,17.7444 L107.14,20.1524 C106.755,20.1524 106.383,20.1654 106.024,20.1914 C105.663,20.2164 105.283,20.2284 104.882,20.2284 C104.213,20.2284 103.665,20.1824 103.239,20.0904 C102.813,19.9994 102.487,19.8154 102.261,19.5384 C102.035,19.2624 101.88,18.8994 101.797,18.4474 C101.713,17.9954 101.671,17.4274 101.671,16.7414 L101.671,9.0154 L99.986,9.0154 L99.986,6.6584 L101.671,6.6584 L101.671,2.7954 L105.133,2.7954 Z M111.8049,2.0513 L111.8049,8.0373 L111.8549,8.0373 C112.5239,6.8833 113.6189,6.3073 115.1409,6.3073 C116.2439,6.3073 117.0929,6.6083 117.6869,7.2093 C118.2809,7.8123 118.5769,8.7903 118.5769,10.1443 L118.5769,20.0543 L115.1169,20.0543 L115.1169,10.8473 C115.1169,10.1443 114.9989,9.6553 114.7649,9.3793 C114.5309,9.1043 114.1549,8.9663 113.6359,8.9663 C112.4149,8.9663 111.8049,9.7093 111.8049,11.1983 L111.8049,20.1533 L108.3429,20.1533 L108.3429,2.0513 L111.8049,2.0513 Z M123.8444,15.0113 C123.8444,15.4123 123.8744,15.8013 123.9324,16.1773 C123.9914,16.5543 124.0874,16.8883 124.2214,17.1813 C124.3554,17.4733 124.5314,17.7073 124.7484,17.8823 C124.9654,18.0593 125.2334,18.1463 125.5514,18.1463 C126.1364,18.1463 126.5624,17.9373 126.8304,17.5193 C127.0854,17.1213 127.2634,16.5263 127.3674,15.7343 C127.3764,15.6663 127.4324,15.6123 127.5004,15.6123 L130.4924,15.6123 C130.4264,17.1853 130.0074,18.3813 129.2384,19.1993 C128.4694,20.0203 127.2574,20.4293 125.6004,20.4293 C124.3464,20.4293 123.3684,20.2193 122.6664,19.8023 C121.9644,19.3843 121.4454,18.8323 121.1114,18.1463 C120.7764,17.4603 120.5724,16.6923 120.4964,15.8383 C120.4214,14.9863 120.3844,14.1333 120.3844,13.2793 C120.3844,12.3773 120.4464,11.5083 120.5724,10.6713 C120.6974,9.8353 120.9484,9.0913 121.3244,8.4393 C121.7004,7.7863 122.2404,7.2693 122.9424,6.8833 C123.6444,6.4993 124.5814,6.3073 125.7524,6.3073 C126.7554,6.3073 127.5784,6.4693 128.2224,6.7963 C128.8664,7.1213 129.3724,7.5823 129.7404,8.1763 C130.1074,8.7703 130.3584,9.4883 130.4924,10.3333 C130.6264,11.1783 130.6934,12.1173 130.6934,13.1543 L130.6934,13.9323 L123.8444,13.9323 L123.8444,15.0113 Z M127.2824,10.5083 C127.2314,10.1153 127.1434,9.7803 127.0184,9.5043 C126.8924,9.2293 126.7184,9.0213 126.4914,8.8773 C126.2654,8.7373 125.9774,8.6643 125.6264,8.6643 C125.2754,8.6643 124.9864,8.7443 124.7614,8.9033 C124.5354,9.0623 124.3554,9.2713 124.2214,9.5293 C124.0874,9.7893 123.9914,10.0773 123.9324,10.3953 C123.8744,10.7133 123.8444,11.0313 123.8444,11.3493 L123.8444,11.8753 L127.3824,11.8753 C127.3654,11.3573 127.3324,10.9023 127.2824,10.5083 Z M135.3889,6.3609 L135.3889,8.4649 L135.4389,8.4649 C135.7899,7.8119 136.2169,7.2899 136.7179,6.8959 C137.2199,6.5039 137.8299,6.3069 138.5489,6.3069 C138.6499,6.3069 138.7539,6.3109 138.8629,6.3199 C138.9719,6.3289 139.0769,6.3409 139.1759,6.3569 L139.1759,9.6689 C138.9929,9.6519 138.8129,9.6389 138.6369,9.6309 C138.4609,9.6219 138.2819,9.6179 138.0979,9.6179 C137.7969,9.6179 137.4959,9.6609 137.1949,9.7439 C136.8939,9.8269 136.6179,9.9649 136.3679,10.1569 C136.1169,10.3489 135.9149,10.5999 135.7649,10.9099 C135.6149,11.2189 135.5389,11.5999 135.5389,12.0499 L135.5389,20.1529 L132.4989,20.1529 L132.4989,6.3609 L135.3889,6.3609 Z M142.7284,6.4367 L142.7284,9.4387 L142.7824,9.4387 C143.1714,8.4827 143.8054,7.7437 144.6814,7.2217 C145.5584,6.6977 146.5554,6.4367 147.6714,6.4367 C148.7164,6.4367 149.6244,6.6327 150.3944,7.0217 C151.1654,7.4107 151.8064,7.9377 152.3214,8.6017 C152.8354,9.2657 153.2164,10.0377 153.4644,10.9147 C153.7114,11.7917 153.8364,12.7167 153.8364,13.6907 C153.8364,14.6657 153.7114,15.5917 153.4644,16.4687 C153.2164,17.3447 152.8354,18.1147 152.3214,18.7787 C151.8064,19.4437 151.1654,19.9667 150.3944,20.3477 C149.6244,20.7267 148.7164,20.9187 147.6714,20.9187 C147.1754,20.9187 146.6794,20.8557 146.1824,20.7317 C145.6874,20.6087 145.2264,20.4227 144.8014,20.1747 C144.3764,19.9267 144.0004,19.6167 143.6724,19.2447 C143.3444,18.8727 143.0924,18.4387 142.9154,17.9417 L142.8614,17.9417 L142.8614,26.2747 L141.2654,26.2747 L141.2654,6.4367 L142.7284,6.4367 Z M151.9094,11.5787 C151.7404,10.8797 151.4744,10.2547 151.1124,9.7057 C150.7494,9.1567 150.2834,8.7087 149.7174,8.3637 C149.1504,8.0177 148.4694,7.8457 147.6714,7.8457 C146.7504,7.8457 145.9794,8.0047 145.3594,8.3237 C144.7394,8.6427 144.2434,9.0667 143.8714,9.5997 C143.4994,10.1307 143.2384,10.7507 143.0874,11.4587 C142.9364,12.1677 142.8614,12.9117 142.8614,13.6907 C142.8614,14.3997 142.9454,15.1037 143.1144,15.8037 C143.2824,16.5037 143.5564,17.1277 143.9374,17.6767 C144.3184,18.2257 144.8144,18.6737 145.4264,19.0177 C146.0374,19.3637 146.7854,19.5367 147.6714,19.5367 C148.4694,19.5367 149.1504,19.3637 149.7174,19.0177 C150.2834,18.6737 150.7494,18.2257 151.1124,17.6767 C151.4744,17.1277 151.7404,16.5037 151.9094,15.8037 C152.0774,15.1037 152.1614,14.3997 152.1614,13.6907 C152.1614,12.9827 152.0774,12.2787 151.9094,11.5787 Z M157.5637,6.8355 L157.5637,10.0505 L157.6167,10.0505 C158.0427,8.9355 158.7017,8.0755 159.5957,7.4735 C160.4907,6.8715 161.5577,6.5965 162.7977,6.6495 L162.7977,8.3235 C162.0367,8.2885 161.3447,8.3895 160.7247,8.6295 C160.1047,8.8675 159.5697,9.2095 159.1177,9.6515 C158.6667,10.0955 158.3167,10.6215 158.0687,11.2325 C157.8197,11.8445 157.6967,12.5135 157.6967,13.2385 L157.6967,20.5465 L156.0227,20.5465 L156.0227,6.8355 L157.5637,6.8355 Z M172.4873,7.022 C173.2933,7.411 173.9703,7.934 174.5193,8.589 C175.0683,9.245 175.4853,10.01 175.7693,10.887 C176.0523,11.764 176.1933,12.7 176.1933,13.691 C176.1933,14.683 176.0523,15.618 175.7693,16.494 C175.4853,17.371 175.0683,18.137 174.5193,18.793 C173.9703,19.448 173.2933,19.966 172.4873,20.347 C171.6813,20.727 170.7553,20.919 169.7103,20.919 C168.6653,20.919 167.7393,20.727 166.9343,20.347 C166.1273,19.966 165.4503,19.448 164.9013,18.793 C164.3523,18.137 163.9353,17.371 163.6523,16.494 C163.3683,15.618 163.2273,14.683 163.2273,13.691 C163.2273,12.7 163.3683,11.764 163.6523,10.887 C163.9353,10.01 164.3523,9.245 164.9013,8.589 C165.4503,7.934 166.1273,7.411 166.9343,7.022 C167.7393,6.632 168.6653,6.437 169.7103,6.437 C170.7553,6.437 171.6813,6.632 172.4873,7.022 Z M167.5813,8.273 C166.9703,8.615 166.4623,9.064 166.0583,9.622 C165.6533,10.178 165.3483,10.811 165.1423,11.521 C164.9353,12.231 164.8323,12.954 164.8323,13.691 C164.8323,14.428 164.9353,15.151 165.1423,15.861 C165.3483,16.571 165.6533,17.205 166.0583,17.761 C166.4623,18.318 166.9703,18.767 167.5813,19.109 C168.1913,19.451 168.9013,19.621 169.7103,19.621 C170.5193,19.621 171.2283,19.451 171.8403,19.109 C172.4503,18.767 172.9583,18.318 173.3623,17.761 C173.7673,17.205 174.0723,16.571 174.2783,15.861 C174.4853,15.151 174.5893,14.428 174.5893,13.691 C174.5893,12.954 174.4853,12.231 174.2783,11.521 C174.0723,10.811 173.7673,10.178 173.3623,9.622 C172.9583,9.064 172.4503,8.615 171.8403,8.273 C171.2283,7.932 170.5193,7.761 169.7103,7.761 C168.9013,7.761 168.1913,7.932 167.5813,8.273 Z M187.2648,7.0216 C188.0708,7.4106 188.7478,7.9346 189.2978,8.5896 C189.8468,9.2446 190.2628,10.0106 190.5458,10.8876 C190.8288,11.7646 190.9718,12.6996 190.9718,13.6906 C190.9718,14.6836 190.8288,15.6176 190.5458,16.4936 C190.2628,17.3706 189.8468,18.1376 189.2978,18.7926 C188.7478,19.4476 188.0708,19.9666 187.2648,20.3476 C186.4578,20.7266 185.5338,20.9186 184.4888,20.9186 C183.4428,20.9186 182.5178,20.7266 181.7108,20.3476 C180.9058,19.9666 180.2278,19.4476 179.6788,18.7926 C179.1288,18.1376 178.7128,17.3706 178.4298,16.4936 C178.1468,15.6176 178.0048,14.6836 178.0048,13.6906 C178.0048,12.6996 178.1468,11.7646 178.4298,10.8876 C178.7128,10.0106 179.1288,9.2446 179.6788,8.5896 C180.2278,7.9346 180.9058,7.4106 181.7108,7.0216 C182.5178,6.6326 183.4428,6.4366 184.4888,6.4366 C185.5338,6.4366 186.4578,6.6326 187.2648,7.0216 Z M182.3488,8.2476 C181.7348,8.5906 181.2248,9.0426 180.8188,9.6016 C180.4118,10.1606 180.1048,10.7976 179.8978,11.5106 C179.6898,12.2246 179.5858,12.9506 179.5858,13.6906 C179.5858,14.4326 179.6898,15.1586 179.8978,15.8716 C180.1048,16.5846 180.4118,17.2216 180.8188,17.7806 C181.2248,18.3406 181.7348,18.7916 182.3488,19.1346 C182.9618,19.4776 183.6758,19.6486 184.4888,19.6486 C185.3008,19.6486 186.0138,19.4776 186.6278,19.1346 C187.2418,18.7916 187.7518,18.3406 188.1578,17.7806 C188.5648,17.2216 188.8708,16.5846 189.0778,15.8716 C189.2858,15.1586 189.3908,14.4326 189.3908,13.6906 C189.3908,12.9506 189.2858,12.2246 189.0778,11.5106 C188.8708,10.7976 188.5648,10.1606 188.1578,9.6016 C187.7518,9.0426 187.2418,8.5906 186.6278,8.2476 C186.0138,7.9046 185.3008,7.7326 184.4888,7.7326 C183.6758,7.7326 182.9618,7.9046 182.3488,8.2476 Z M196.051,8.2437 L196.051,20.5467 L194.377,20.5467 L194.377,8.2437 L192.597,8.2437 L192.597,6.8357 L194.377,6.8357 L194.377,5.5867 C194.377,5.0027 194.421,4.4617 194.51,3.9667 C194.598,3.4707 194.767,3.0457 195.015,2.6897 C195.262,2.3367 195.604,2.0617 196.037,1.8667 C196.472,1.6717 197.025,1.5747 197.698,1.5747 C197.947,1.5747 198.177,1.5837 198.389,1.6007 C198.602,1.6187 198.841,1.6457 199.107,1.6817 L199.107,3.1157 C198.876,3.0807 198.663,3.0487 198.469,3.0227 C198.274,2.9957 198.079,2.9827 197.884,2.9827 C197.423,2.9827 197.07,3.0537 196.822,3.1957 C196.573,3.3377 196.392,3.5267 196.277,3.7667 C196.161,4.0057 196.095,4.2847 196.077,4.6027 C196.06,4.9227 196.051,5.2677 196.051,5.6397 L196.051,6.8357 L197.791,6.8357 L197.791,8.2437 L196.051,8.2437 Z M41.2717,27.1890002 L36.6027,27.189 C34.1257,27.189 32.6117,25.675 31.5197,23.408 C30.7477,21.805 25.4837,8.323 25.4837,8.323 L19.6337,27.189 L15.1297,27.189 C12.1127,27.19 10.2837,23.994 9.8997,23.222 C9.2207,21.859 0.0007,0.003 0.0007,0.003 C0.0007,0.003 3.3497,-0.004 4.6467,0.003 C6.6477,-9.63183662e-14 8.1547,0.65 9.6227,3.798 C10.9737,6.938 16.5317,20.039 16.5317,20.039 L22.8137,0.003 L26.4907,0.003 C27.3857,0.003 29.4197,0.055 30.9247,3.342 C32.1067,5.924 41.2717,27.1890002 41.2717,27.1890002 Z M48.0813,8.149 C46.4883,9.126 44.3483,9.148 42.7963,7.68 C41.8563,6.792 41.6893,5.999 40.9483,4.56 L38.9733,0.003 L46.3543,0.003 C46.3543,0.003 49.6123,0.003 50.0803,3.597 C50.4263,6.25 49.0693,7.544 48.0813,8.149 Z"/>
</svg>
