<svg xmlns="http://www.w3.org/2000/svg" xmlns:xlink="http://www.w3.org/1999/xlink" width="14" height="16" viewBox="0 0 14 16">
  <defs>
    <path id="icon_white-a" d="M3.81993569,3.89067524 L4.7266881,4.79742765 C5.31189711,4.21864952 6.11575563,3.8585209 7.00321543,3.8585209 C7.89067524,3.8585209 8.69453376,4.21864952 9.27974277,4.79742765 L10.1864952,3.89067524 C9.36977492,3.07395498 8.24437299,2.57234727 7.00321543,2.57234727 C5.76205788,2.57234727 4.63665595,3.07395498 3.81993569,3.89067524 L3.81993569,3.89067524 Z M7.00321543,0 C8.95819936,0 10.7266881,0.790996785 12,2.07717042 L11.0932476,2.98392283 C10.0514469,1.93569132 8.60450161,1.28617363 7.00321543,1.28617363 C5.40192926,1.28617363 3.95498392,1.93569132 2.90675241,2.97749196 L2,2.07073955 C3.27974277,0.790996785 5.04823151,0 7.00321543,0 Z M2,6 L12,6 L12,16 L2,16 L2,6 Z"/>
    <path id="icon_white-b" d="M12,6 L14,6.71428571 L14,15.2857143 L12,16 L12,6 Z M0,6.71428571 L2,6 L2,16 L0,15.2857143 L0,6.71428571 Z"/>
  </defs>
  <g fill="none" fill-rule="evenodd" transform="translate(-1)">
    <rect width="16" height="16"/>
    <g transform="translate(1)">
      <use fill="#FFF" xlink:href="#icon_white-a"/>
      <use fill="#2C3235" fill-opacity=".32" xlink:href="#icon_white-a"/>
      <g>
        <use fill="#FFF" xlink:href="#icon_white-b"/>
        <use fill="#2C3235" fill-opacity=".64" xlink:href="#icon_white-b"/>
      </g>
    </g>
  </g>
</svg>
