<?xml version="1.0" encoding="UTF-8"?><!DOCTYPE svg PUBLIC "-//W3C//DTD SVG 1.1//EN" "http://www.w3.org/Graphics/SVG/1.1/DTD/svg11.dtd"><svg xmlns="http://www.w3.org/2000/svg"><symbol id="icon-airfy" viewBox="0 0 77 32">
    <path fill-rule="evenodd" d="M18.59 17.12l3.055 7.108h-2.54l-2.476-5.902-.06-.144 2.022-1.063zm3-4.124L0 24.307l2.6-5.886 18.99-5.425zm9.323 11.385h-2.159V9.524h2.159V24.38zM76.087 9.524L68.69 28.222c-.444 1.143-1.01 2.058-1.698 2.746-.688.688-1.678 1.032-2.968 1.032a9.86 9.86 0 0 1-1.937-.19l.222-1.969c.508.17 1.037.254 1.588.254.74 0 1.322-.227 1.746-.682.423-.456.793-1.106 1.11-1.953l1.207-3.11-6.35-14.826h2.414l5.047 12.54h.064l4.603-12.54h2.35zM44.85 9.143c.275 0 .524.01.747.032.222.02.449.063.682.127l-.286 2.063a4.13 4.13 0 0 0-.635-.127 6.307 6.307 0 0 0-.888-.063c-.572 0-1.122.105-1.651.316a3.54 3.54 0 0 0-1.381.998c-.392.454-.71 1.034-.953 1.742-.243.707-.365 1.557-.365 2.55v7.6h-2.158V12.793c0-.401-.011-.92-.032-1.555a35.155 35.155 0 0 0-.095-1.714h2.063a29.537 29.537 0 0 1 .127 2.54h.064a5.144 5.144 0 0 1 1.904-2.112c.847-.54 1.799-.81 2.857-.81zM29.834 2.286c.38 0 .73.142 1.047.428.318.286.477.651.477 1.096 0 .444-.16.809-.477 1.095-.317.285-.666.428-1.047.428-.381 0-.73-.143-1.048-.428a1.408 1.408 0 0 1-.476-1.095c0-.445.159-.81.476-1.096.317-.286.667-.428 1.048-.428zm-17.84-.543l4.446 10.363-2.126.615-3.495-8.423-4.434 10.688-2.659.752L9.771 1.743h2.223zM57.674 0c.275 0 .572.016.89.048.317.031.613.09.888.174l-.38 1.905a8.445 8.445 0 0 0-.7-.159 4.486 4.486 0 0 0-.793-.063c-.571 0-1.042.095-1.413.285-.37.19-.656.46-.857.81-.201.35-.338.757-.412 1.222a9.458 9.458 0 0 0-.111 1.492v3.81h3.492v1.81h-3.492V24.38h-2.16V11.333h-3.11v-1.81h3.11V5.46c0-1.693.414-3.026 1.239-4C54.69.487 55.96 0 57.675 0z"/>
</symbol><symbol id="icon-arrow-down" viewBox="0 0 6 6">
    <path fill-rule="evenodd" d="M1.927 4.779c.592.936 1.55.939 2.145 0l1.632-2.583C6.297 1.26 5.88.5 4.772.5H1.227C.119.5-.3 1.257.294 2.196L1.927 4.78z"/>
</symbol><symbol id="icon-cross" viewBox="0 0 8 8">
    <path fill-rule="evenodd" d="M1.888.746A.803.803 0 0 0 .738.738a.811.811 0 0 0 .008 1.15L2.858 4 .746 6.112a.803.803 0 0 0-.008 1.15.811.811 0 0 0 1.15-.008L4 5.142l2.112 2.112a.803.803 0 0 0 1.15.008.811.811 0 0 0-.008-1.15L5.142 4l2.112-2.112a.803.803 0 0 0 .008-1.15.811.811 0 0 0-1.15.008L4 2.858 1.888.746z"/>
</symbol><symbol id="icon-edit" viewBox="0 0 8 8">
    <path fill-rule="evenodd" d="M.5 6.042V7.5h1.458l4.3-4.3L4.802 1.74.5 6.041zm6.886-3.97l-.711.711-1.458-1.458.711-.711a.387.387 0 0 1 .548 0l.91.91a.387.387 0 0 1 0 .548zM7.044 6.5c.275 0 .498.232.498.5 0 .276-.215.5-.498.5H3.5l1-1h2.544z"/>
</symbol><symbol id="icon-eye" viewBox="0 0 8 6">
    <path d="M4 .23a4.3 4.3 0 0 0-4 2.727 4.3 4.3 0 0 0 4 2.728 4.3 4.3 0 0 0 4-2.728A4.3 4.3 0 0 0 4 .23zm0 4.545a1.819 1.819 0 1 1 .001-3.637A1.819 1.819 0 0 1 4 4.775zm0-2.909a1.09 1.09 0 0 0-1.09 1.091 1.09 1.09 0 1 0 2.182 0 1.09 1.09 0 0 0-1.092-1.09z"/>
</symbol><symbol id="icon-load" viewBox="0 0 16 16">
    <path fill-rule="evenodd" d="M0 15.105c0-.279.226-.505.496-.505h15.008c.274 0 .496.219.496.505v.39c0 .279-.226.505-.496.505H.496A.496.496 0 0 1 0 15.495v-.39zM7.588.107h.823a.5.5 0 0 1 .496.502v9.362l2.911-2.902a.495.495 0 0 1 .699.002l.58.58a.5.5 0 0 1-.007.708L8.357 13.09c-.2.2-.517.198-.715 0L2.91 8.36c-.2-.2-.201-.514-.008-.708l.58-.58a.495.495 0 0 1 .7-.002l2.91 2.902V.61a.5.5 0 0 1 .496-.502z"/>
</symbol><symbol id="icon-minus" viewBox="0 0 8 2">
    <rect width="8" height="1.4" y="3.3" fill-rule="evenodd" rx=".5" transform="translate(0 -3)"/>
</symbol><symbol id="icon-plus" viewBox="0 0 8 8">
    <path fill-rule="evenodd" d="M3.3 3.3H.5c-.27 0-.5.226-.5.505v.39c0 .286.224.505.5.505h2.8v2.8c0 .27.226.5.505.5h.39a.498.498 0 0 0 .505-.5V4.7h2.8c.27 0 .5-.226.5-.505v-.39a.498.498 0 0 0-.5-.505H4.7V.5c0-.27-.226-.5-.505-.5h-.39A.498.498 0 0 0 3.3.5v2.8z"/>
</symbol><symbol id="icon-save" viewBox="0 0 8 8">
    <path d="M5.944.5H1.278a.778.778 0 0 0-.778.778v5.444c0 .428.346.778.778.778h5.444a.78.78 0 0 0 .778-.778V2.056L5.944.5zM4 6.722a1.165 1.165 0 0 1-1.167-1.166c0-.646.521-1.167 1.167-1.167s1.167.521 1.167 1.167c0 .645-.521 1.166-1.167 1.166zm1.167-3.889h-3.89V1.278h3.89v1.555z"/>
</symbol><symbol id="icon-tick" viewBox="0 0 8 6">
    <path d="M.148 2.54l.243-.245c.197-.2.51-.2.702-.006l1.882 1.907L6.908.228a.5.5 0 0 1 .704.005l.242.245c.197.2.193.521-.005.722L3.343 5.765a.5.5 0 0 1-.712.006L.148 3.257a.507.507 0 0 1 0-.717z"/>
</symbol></svg>