<?xml version="1.0" encoding="UTF-8"?><!DOCTYPE svg PUBLIC "-//W3C//DTD SVG 1.1//EN" "http://www.w3.org/Graphics/SVG/1.1/DTD/svg11.dtd"><svg xmlns="http://www.w3.org/2000/svg"><symbol id="icon-arrow-down" viewBox="0 0 18 9">
    <path d="M.75 0L8.5 7l7.76-7 .75.75L8.5 8.5 0 .75z"/>
</symbol><symbol id="icon-arrow-next" viewBox="0 0 16 32">
    <style>
        .st0{fill:#fff;fill-opacity:.19}
    </style>
    <path class="st0" d="M1.4 0L0 1.4 13.2 16 0 30.6 1.4 32 16 16 1.4 0"/>
</symbol><symbol id="icon-arrow-prev" viewBox="0 0 16 32">
    <style>
        .st0{fill:#fff;fill-opacity:.19}
    </style>
    <path class="st0" d="M14.6 0L0 16l14.6 16 1.4-1.4L2.8 16 16 1.4 14.6 0"/>
</symbol><symbol id="icon-burger" viewBox="0 0 15 12">
    <path d="M0 0h15v2H0z"/>
    <path d="M0 5h15v2H0z"/>
    <path d="M0 10h15v2H0z"/>
</symbol><symbol id="icon-close" viewBox="0 0 384.1 384.2">
    <path d="M373.6 322.7L243 192.1 373.6 61.5c14.1-14.1 14.1-36.8 0-50.9s-36.8-14.1-50.9 0L192.1 141.2 61.5 10.6c-14.1-14.1-36.8-14.1-50.9 0s-14.1 36.8 0 50.9l130.6 130.6L10.6 322.7c-14.1 14.1-14.1 36.8 0 50.9s36.8 14.1 50.9 0L192.1 243l130.6 130.6c14.1 14.1 36.8 14.1 50.9 0 14-14.1 14-36.9 0-50.9z"/>
</symbol><symbol id="icon-dollar" viewBox="0 0 48 48">
    <path d="M23.15 35.61l1.25-10.98c4.29 1.98 5.11 3.57 5.11 5.87 0 3.47-3.67 5.06-6.36 5.11zm-4.56-19.38c0-2.25 2.64-4.53 5.29-4.6l-1.15 9.99c-2.77-1.53-4.14-3.3-4.14-5.39zm7.27-4.38c1.41.33 2.65.96 3.65 1.55l1.01-1.73a14.8 14.8 0 0 0-4.43-1.82l.42-3.62L24.52 6l-.41 3.62h-.1c-3.81 0-7.42 3.21-7.42 6.61 0 3.08 1.94 5.55 5.9 7.52l-1.34 11.71a11 11 0 0 1-3.93-1.62l-.2-.12L16 35.44l.2.12c1.19.7 2.62 1.54 4.73 1.89L20.52 41l1.99.23.41-3.62.09.01c4.18 0 8.5-2.66 8.5-7.12 0-3.63-1.81-5.73-6.87-7.95zM24 46C11.87 46 2 36.13 2 24S11.87 2 24 2s22 9.87 22 22-9.87 22-22 22zM0 24c0 13.23 10.77 24 24 24 13.24 0 24-10.77 24-24S37.24 0 24 0C10.77 0 0 10.77 0 24z"/>
</symbol><symbol id="icon-enter" viewBox="0 0 18 18">
    <path d="M6.46 1.69A3.15 3.15 0 0 1 11 1.66c.53.56.8 1.28.77 2.03-.02.25-.23 1.44-.37 2.17-.25 1.3-1.08 2.69-2.66 2.69-1.6 0-2.43-1.45-2.65-2.69-.14-.73-.36-1.92-.37-2.18-.05-.73.22-1.44.74-1.99zm2.28 7.57c1.68 0 2.97-1.25 3.36-3.26.03-.19.36-1.89.38-2.28.04-.95-.3-1.85-.97-2.55a3.86 3.86 0 0 0-5.57.02c-.65.7-.99 1.6-.93 2.53.02.39.34 2.09.38 2.28.36 1.98 1.67 3.26 3.35 3.26zM.76 16.71l.34-2.51c.15-.84.97-1.31 1.69-1.46l5.76-1.02 5.74 1.02c.46.1 1.54.44 1.71 1.45l.34 2.52zm13.67-4.67L8.55 11l-5.9 1.04C1.44 12.3.57 13.08.4 14.1L0 17.42h17.1l-.4-3.34c-.17-1-1.01-1.76-2.27-2.04z"/>
</symbol><symbol id="icon-fb" viewBox="0 0 8 17">
    <path d="M1.74 16.66H5.1v-8.4h2.34l.25-2.81H5.1V3.84c0-.66.13-.92.77-.92h1.82V0H5.37c-2.5 0-3.63 1.1-3.63 3.2v2.25H0v2.84h1.74z"/>
</symbol><symbol id="icon-food" viewBox="0 0 27 36.1">
    <style>
        .st0{fill:#1a1919}
    </style>
    <path class="st0" d="M25.5 32.9c0 .8-.7 1.5-1.5 1.5s-1.5-.7-1.5-1.5V18.8L21 17.3c-1-1-1.5-2.3-1.5-3.7V8.2c0-3.4 2.6-6.3 6-6.7v31.4zM18 8.2v5.4c0 1.8.7 3.5 2 4.8l1 1v13.5c.1 1.7 1.5 2.9 3.2 2.8 1.5-.1 2.7-1.3 2.8-2.8V0h-.8C21.7 0 18 3.7 18 8.2zm-5.3-7.1l.8 9.8c0 1-.5 2.1-1.6 3.3l-2.9 3v16c0 .8-.7 1.5-1.5 1.5S6 34 6 33.2v-16l-2.9-3c-1-1.2-1.6-2.5-1.6-3.4l.7-9.7L.8 1 0 10.8c0 1.7 1 3.3 2 4.4l2.5 2.6v15.4c.1 1.7 1.5 2.9 3.2 2.8 1.5-.1 2.7-1.3 2.8-2.8V17.8l2.6-2.6c1.3-1.6 1.9-3 1.9-4.4L14.2 1l-1.5.1"/>
    <path class="st0" d="M4 11.5h1.5V1H4v10.5zm5 0h1.5V1H9v10.5z"/>
</symbol><symbol id="icon-glass" viewBox="0 0 36 36">
    <path d="M34.1 8.15a6.67 6.67 0 0 0-13.29-.74h8.35l-5.75 6.06A6.67 6.67 0 0 0 34.1 8.15zm-30.66.74L14.1 21.14 25.72 8.89zm24-8.89a8.15 8.15 0 1 1-5.07 14.56l-7.56 7.96v11.55h5.93v1.49H7.41v-1.49h5.92V22.52L0 7.41h19.33A8.15 8.15 0 0 1 27.44 0z"/>
</symbol><symbol id="icon-hand-left" viewBox="0 0 32 28">
    <path d="M28.89 13.95h-8.63v.65a16.59 16.59 0 0 1-4.59 11.3h-4.65a9.7 9.7 0 0 1-9.69-9.69c0-3.5 2.14-6.81 5.73-8.85l9.92-5.77a4.62 4.62 0 0 1-2.03 5.69 1.87 1.87 0 0 0-.69 2.1c.24.75.9 1.25 1.68 1.25h12.95c.98 0 1.66.68 1.66 1.66 0 .96-.7 1.66-1.66 1.66zM15.94 9.3a.41.41 0 0 1-.41-.32c-.06-.18-.05-.45.14-.59A5.9 5.9 0 0 0 17.84.33L17.27 0 6.4 6.21C2.39 8.49 0 12.23 0 16.21c0 6.07 4.94 11.02 11.02 11.02h5.17l.19-.17c.2-.18 4.84-4.33 5.19-11.78h7.32c1.7 0 2.99-1.29 2.99-2.99a2.92 2.92 0 0 0-2.99-2.99z"/>
</symbol><symbol id="icon-hand-right" viewBox="0 0 32 28">
    <style>
        .st0{fill:#f9af4b}
    </style>
    <path class="st0" d="M1.3 12.3c0-1 .7-1.7 1.7-1.7h12.9c.8 0 1.4-.5 1.7-1.3.3-.8 0-1.6-.7-2.1-2-1.1-2.9-3.6-2-5.7l9.9 5.8c3.6 2 5.7 5.4 5.7 8.9 0 5.3-4.3 9.7-9.7 9.7h-4.6c-2.9-3-4.6-7.1-4.6-11.3V14H3c-1-.1-1.7-.8-1.7-1.7zm1.7-3h-.1c-1.6 0-2.9 1.4-2.8 3 0 1.7 1.3 3 3 3h7.3c.4 7.4 5 11.6 5.2 11.8l.2.2H21c6.1 0 11-5 11-11 0-4-2.4-7.7-6.4-10L14.6 0l-.6.3c-1.6 2.8-.7 6.4 2.2 8.1.2.1.2.4.1.6 0 .2-.2.3-.4.3H3z"/>
</symbol><symbol id="icon-heart-fill" viewBox="0 0 18 16">
    <g>
        <path d="M13.35 11.03a36.51 36.51 0 0 1-4.64 3.43 32.6 32.6 0 0 1-4.62-3.42C1.86 8.95.73 6.85.73 4.79A4.06 4.06 0 0 1 8.4 2.91l.32.61.32-.61a4.07 4.07 0 0 1 7.67 1.88c0 2.18-1.07 4.17-3.36 6.24zM8.72 2.04A4.8 4.8 0 0 0 0 4.79c0 2.27 1.21 4.55 3.6 6.78a32.92 32.92 0 0 0 4.93 3.63l.19.05.19-.05c.11-.07 2.87-1.76 4.92-3.63 2.46-2.22 3.6-4.38 3.6-6.78a4.8 4.8 0 0 0-8.71-2.75z"/>
        <path fill="currentColor" d="M13.35 11.03a36.51 36.51 0 0 1-4.64 3.43 32.6 32.6 0 0 1-4.62-3.42C1.86 8.95.73 6.85.73 4.79A4.06 4.06 0 0 1 8.4 2.91l.32.61.32-.61a4.07 4.07 0 0 1 7.67 1.88c0 2.18-1.07 4.17-3.36 6.24z"/>
    </g>
</symbol><symbol id="icon-heart-stroke" viewBox="0 0 18 16">
    <path d="M13.35 11.03a36.51 36.51 0 0 1-4.64 3.43 32.6 32.6 0 0 1-4.62-3.42C1.86 8.95.73 6.85.73 4.79A4.06 4.06 0 0 1 8.4 2.91l.32.61.32-.61a4.07 4.07 0 0 1 7.67 1.88c0 2.18-1.07 4.17-3.36 6.24zM8.72 2.04A4.8 4.8 0 0 0 0 4.79c0 2.27 1.21 4.55 3.6 6.78a32.92 32.92 0 0 0 4.93 3.63l.19.05.19-.05c.11-.07 2.87-1.76 4.92-3.63 2.46-2.22 3.6-4.38 3.6-6.78a4.8 4.8 0 0 0-8.71-2.75z"/>
</symbol><symbol id="icon-heart" viewBox="0 0 416 384.1">
    <path d="M381.9 31.7c-40.4-42.1-106-42.1-146.4 0L208 60.2l-27.5-28.6c-40.5-42.1-106-42.1-146.4 0-45.5 47.3-45.5 124.1 0 171.4L208 384.1l173.9-181c45.5-47.3 45.5-124.1 0-171.4z"/>
</symbol><symbol id="icon-horn" viewBox="0 0 48 44">
    <path d="M46 41.06L10 26.32v-8.64L46 3zm-16.86-1.99a3 3 0 0 1-3.88 1.73l-9.33-3.59a3 3 0 0 1-1.73-3.87l1.07-2.79 14.88 5.87zM2 22a4 4 0 0 1 4-4h2v8H6a4 4 0 0 1-4-4zm6.81-6H6a6 6 0 0 0 0 12h2.81l4.6 1.82-1.08 2.8a5 5 0 0 0 2.88 6.46l9.33 3.59A5 5 0 0 0 31 39.79l1.01-2.63L48 44V0z"/>
</symbol><symbol id="icon-in" viewBox="0 0 18 18">
    <path d="M4.2 2.1a2.1 2.1 0 1 1-4.2 0 2.1 2.1 0 0 1 4.2 0zM.29 17.44h3.62V5.79H.29zM6 5.29h3.47v1.59h.05A3.83 3.83 0 0 1 12.95 5c3.66 0 4.34 2.41 4.34 5.55v6.39h-3.62v-5.67c0-1.35-.03-3.09-1.88-3.09-1.88 0-2.17 1.48-2.17 3v5.76H6z"/>
</symbol><symbol id="icon-instagram" viewBox="0 0 18 18">
    <path d="M4.34 1.31a3.03 3.03 0 0 0-3.03 3.03v8.9a3.04 3.04 0 0 0 3.03 3.04h8.9a3.04 3.04 0 0 0 3.04-3.04v-8.9a3.04 3.04 0 0 0-3.04-3.03zm0 16.28A4.35 4.35 0 0 1 0 13.24v-8.9A4.35 4.35 0 0 1 4.34 0h8.9c2.4 0 4.35 1.95 4.35 4.34v8.9c0 2.4-1.95 4.35-4.35 4.35z"/>
    <path d="M5.31 8.73a3.43 3.43 0 0 0 6.85 0 3.43 3.43 0 0 0-6.85 0zM4 8.73a4.73 4.73 0 1 1 9.47 0 4.73 4.73 0 0 1-9.47 0zm9-4.99a.74.74 0 1 1 1.48 0 .74.74 0 1 1-1.48 0"/>
</symbol><symbol id="icon-like" viewBox="0 0 416 384.1">
    <path d="M381.9 31.7c-40.4-42.1-106-42.1-146.4 0L208 60.2l-27.5-28.6c-40.5-42.1-106-42.1-146.4 0-45.5 47.3-45.5 124.1 0 171.4L208 384.1l173.9-181c45.5-47.3 45.5-124.1 0-171.4z"/>
</symbol><symbol id="icon-map" viewBox="0 0 19 17">
    <path d="M12 14.79h.77V4H12zm-6-2h.77V2H6z"/>
    <path d="M17.72 14.81l-5.76 1.34-5.41-1.51-5.78 1.33V2.14L6.54.8l5.4 1.52L17.72.99zM6.55 0L0 1.54v15.41l6.54-1.51 5.4 1.51 6.55-1.54V0l-6.54 1.53z"/>
</symbol><symbol id="icon-marker" viewBox="0 0 18 19">
    <path d="M14.11 12.98L9 17.88l-5.11-4.9a7.1 7.1 0 0 1 0-10.06l.05-.05a7.18 7.18 0 0 1 10.13 0l.04.04a7.1 7.1 0 0 1 0 10.07zm.52-10.66A7.9 7.9 0 0 0 9 0a7.9 7.9 0 0 0-5.63 2.32l-.04.04a7.85 7.85 0 0 0 0 11.17L9 19l5.67-5.47a7.85 7.85 0 0 0 0-11.17z"/>
    <path d="M9.5 10.17c-.92 0-1.66-.75-1.66-1.67a1.66 1.66 0 1 1 3.33 0c0 .92-.75 1.67-1.67 1.67zM7 8.5a2.5 2.5 0 1 0 5 0 2.5 2.5 0 0 0-5 0z"/>
</symbol><symbol id="icon-microphone" viewBox="0 0 23 35">
    <path d="M21.52 14v3.59c0 5.53-4.51 10.04-10.04 10.04A10.06 10.06 0 0 1 1.43 17.59V14H0v3.59a11.5 11.5 0 0 0 10.76 11.44v5.77h1.43v-5.77c6-.38 10.76-5.36 10.76-11.44V14h-1.43"/>
    <path d="M5.43 7.17a5.75 5.75 0 0 1 11.48 0v10.04a5.74 5.74 0 0 1-11.48 0zm12.92 10.04V7.17A7.18 7.18 0 0 0 4 7.17v10.04a7.18 7.18 0 0 0 14.35 0z"/>
</symbol><symbol id="icon-note" viewBox="0 0 17.7 30.3">
    <style>
        .st0{fill:#1a1919}
    </style>
    <path class="st0" d="M16.4 2.3l-5.1-.8V5l5.1 1V2.3zm-6.3 19.8l-6.1.8c-1.6.2-2.7 1.5-2.7 3.1 0 1.7 1.4 3.1 3.2 3.1h.4l2.6-.3c1.6-.2 2.7-1.5 2.7-3.1l-.1-3.6zm0-22.1l7.6 1.3v6.3l-6.3-1.3v19.3c0 2.2-1.7 4.1-3.8 4.4l-2.6.3c-2.4.3-4.6-1.4-4.9-3.8v-.6c0-2.2 1.6-4.1 3.8-4.3l6.3-.8V0z"/>
</symbol><symbol id="icon-pencil" viewBox="0 0 15 15">
    <path d="M4.17 12.29l-3.12 1.2 1.2-3.12 6.51-6.51 1.92 1.92zM0 14.54l4.51-1.73 7.03-7.03L8.76 3l-7.03 7.03zM13.82 2.91l-1.06 1.06-1.91-1.91L11.91 1a1.35 1.35 0 0 1 1.91 0c.53.52.53 1.38 0 1.91zM12.87 0c-.52 0-1.01.2-1.38.57L10 2.06l2.76 2.76 1.49-1.49A1.96 1.96 0 0 0 12.87 0z"/>
</symbol><symbol id="icon-phone" viewBox="0 0 28 48">
    <path d="M26 42.98V40H2v2.98A3.02 3.02 0 0 0 5.01 46h17.98A3.02 3.02 0 0 0 26 42.98zM2 5.01V38h24V5.01A3.01 3.01 0 0 0 22.99 2H5.01A3.01 3.01 0 0 0 2 5.01zM22.99 0A5.02 5.02 0 0 1 28 5.01v37.97A5.02 5.02 0 0 1 22.99 48H5.02A5.02 5.02 0 0 1 0 42.98V5.01A5.02 5.02 0 0 1 5.02 0zM14 41a2 2 0 1 1 0 4 2 2 0 0 1 0-4z"/>
</symbol><symbol id="icon-pizza" viewBox="0 0 30 30">
    <path d="M27.57 4.71a26.64 26.64 0 0 0-12.95-3.49c-4.61 0-8.93 1.29-12.95 3.49l1.58 3.01a23.72 23.72 0 0 1 22.68.09zM14.62 26.8l10.7-17.94a22.62 22.62 0 0 0-10.7-2.77c-3.72 0-7.5.92-10.76 2.69zM28.71 3.96l.53.3-14.62 24.98L0 4.26l.53-.3A27.89 27.89 0 0 1 14.62 0c5.03 0 9.75 1.45 14.09 3.96z"/>
    <path d="M11.13 12.05a.92.92 0 1 1 .01-1.83.92.92 0 0 1-.01 1.83zm0-3.05a2.13 2.13 0 1 0 0 4.26 2.13 2.13 0 0 0 0-4.26zm7 3.05a.92.92 0 1 1 .01-1.83.92.92 0 0 1-.01 1.83zM16 11.13a2.13 2.13 0 1 0 4.26 0 2.13 2.13 0 0 0-4.26 0zm-1.87 7.92a.92.92 0 1 1 .01-1.83.92.92 0 0 1-.01 1.83zM12 18.13a2.13 2.13 0 1 0 4.26 0 2.13 2.13 0 0 0-4.26 0z"/>
</symbol><symbol id="icon-review" viewBox="0 0 22 18.6">
    <title/>
    <path d="M1 0C.4 0 0 .4 0 1v13c0 .6.4 1 1 1h2l2.8 3.3c.4.4 1 .4 1.3 0L10 15h11c.6 0 1-.4 1-1V1c0-.6-.4-1-1-1H1zm0 1v13h2.5l3 3.6L9.7 14H21V1H1z"/>
</symbol><symbol id="icon-search" viewBox="0 0 17 17">
    <path d="M.67 5.93a5.27 5.27 0 1 1 10.53.01A5.27 5.27 0 0 1 .67 5.93zm9.69 3.93a5.94 5.94 0 1 0-.5.49l6.42 6.42.49-.5z"/>
</symbol><symbol id="icon-share" viewBox="0 0 29.6 26.6">
    <style>
        .st0{fill:#434352}
    </style>
    <path class="st0" d="M1.6 21.2C2.7 14.6 8.5 9.6 15.5 9.6h.7V3l11.1 9.6-11 9.4v-6.5h-.7c-5.9 0-10.8 2.1-14 5.7zm13.2-13C6.6 8.5 0 15.2 0 23.3v3.3L1.4 24c2.6-4.3 7.4-6.8 13.4-7v8.1l14.8-12.6L14.8 0v8.2z"/>
</symbol><symbol id="icon-sports" viewBox="0 0 34 34">
    <path d="M32.26 8.42h-3.89l-.3 1.9c-.66 4.21-2.55 8.63-5.49 11.23a14.76 14.76 0 0 0 9.68-13.13zM16.84 25.2c-.85 2.03-2.55 5.24-5.3 7.08h10.6c-2.75-1.84-4.44-5.05-5.3-7.08zm-5.77-3.66c-2.4-2.07-4.51-5.63-5.46-11.22l-.3-1.9H1.42a14.77 14.77 0 0 0 9.65 13.12zM5.73 2.06L7 10.1c1.04 6.14 4.49 12.35 9.84 12.35 5.42 0 8.9-6.4 9.84-12.35l1.27-8.04-11.11-.65zm22.86 4.96h5.09v.7c0 8.81-7.09 15.98-15.86 16.13.85 2.33 3.59 8.43 8.84 8.43v1.4H7.02v-1.4c5.25 0 8-6.1 8.84-8.43A16.15 16.15 0 0 1 0 7.72v-.7h5.09L4.1.75 16.84 0l12.74.75z"/>
</symbol><symbol id="icon-star-simple" viewBox="0 0 39 38">
    <path d="M28.45 32.89l-8.95-6.48-8.95 6.48 3.33-10.65-8.67-6.01 10.82.02L19.5 5.1l3.47 11.15 10.82-.02-8.67 6.01zm-4.3-18.26L19.5 0l-4.65 14.63H0l11.98 8.27-4.67 14.48 12.19-8.97 12.19 8.97-4.67-14.48L39 14.63z"/>
</symbol><symbol id="icon-star" viewBox="0 0 15.8 15.1">
    <style>
        .st0{fill:#f9af4b}
    </style>
    <path class="st0" d="M9.8 5.9L7.9 0 6 5.9H0l4.8 3.4L3 15.1l4.9-3.6 4.9 3.6-1.9-5.9 4.8-3.3H9.8z"/>
</symbol><symbol id="icon-tab" viewBox="0 0 21 15">
    <path d="M18.48 13.77H2.17c-.72 0-1.31-.59-1.31-1.31v-7.3h18.93v7.3c0 .72-.59 1.31-1.31 1.31zM2.17.86h16.31c.72 0 1.31.59 1.31 1.31V4.3H.86V2.17c0-.72.59-1.31 1.31-1.31zm0-.86C.98 0 0 .97 0 2.17v10.29c0 1.19.98 2.17 2.17 2.17h16.31c1.2 0 2.17-.98 2.17-2.17V2.17c0-1.2-.97-2.17-2.17-2.17z"/>
</symbol><symbol id="icon-tw" viewBox="0 0 19 16">
    <path d="M0 13.53a10.86 10.86 0 0 0 5.91 1.73c7.15 0 11.19-6.04 10.95-11.46a7.73 7.73 0 0 0 1.92-1.99c-.69.3-1.43.51-2.21.6A3.82 3.82 0 0 0 18.26.28c-.74.44-1.57.76-2.44.94a3.86 3.86 0 0 0-6.57 3.51A10.93 10.93 0 0 1 1.31.71 3.85 3.85 0 0 0 2.5 5.85a3.85 3.85 0 0 1-1.75-.48 3.87 3.87 0 0 0 3.1 3.83c-.55.14-1.14.18-1.74.06a3.85 3.85 0 0 0 3.59 2.68A7.73 7.73 0 0 1 0 13.53"/>
</symbol></svg>